<svg width="123" height="32" viewBox="0 0 123 32" fill="none" xmlns="http://www.w3.org/2000/svg">
<g clip-path="url(#clip0)">
<path d="M90.6169 2.29231C90.6169 1.02696 91.6883 0 93.0091 0H120.59C121.911 0 122.982 1.02696 122.982 2.29231V29.7081C122.982 30.9739 121.911 32 120.59 32H93.0091C91.6883 32 90.6169 30.9739 90.6169 29.7085V2.29189V2.29231Z" fill="#006699"/>
<path d="M0.0168457 26.8048H13.5238V22.4477H4.90574V5.82612H0.0168457V26.8048ZM20.3622 26.8048V12.3551H15.4738V26.8048H20.3622ZM17.9184 10.3826C19.6228 10.3826 20.6839 9.27298 20.6839 7.8855C20.6523 6.46781 19.6228 5.38965 17.9509 5.38965C16.2786 5.38965 15.185 6.46823 15.185 7.8855C15.185 9.27298 16.2461 10.3826 17.8864 10.3826H17.9184ZM22.6318 26.8048H27.5202V18.7351C27.5202 18.3033 27.5518 17.8714 27.6813 17.5638C28.0341 16.7009 28.8385 15.807 30.1891 15.807C31.9585 15.807 32.6663 17.1324 32.6663 19.0738V26.8044H37.5539V18.5194C37.5539 14.0809 35.1421 12.0156 31.9256 12.0156C29.2887 12.0156 28.1306 13.4639 27.4873 14.4506H27.5202V12.3551H22.6318C22.6963 13.7111 22.6318 26.8048 22.6318 26.8048ZM44.4504 5.82612H39.562V26.8048H44.4504V22.1199L45.6721 20.6086L49.4995 26.8048H55.5131L49.0818 17.8349L54.7092 11.7327H48.8246C48.8246 11.7327 44.8046 17.192 44.4504 17.84V5.82612Z" fill="black"/>
<path d="M68.5855 20.7768C68.65 20.4058 68.7465 19.694 68.7465 18.8891C68.7465 15.1539 66.8166 11.3617 61.7355 11.3617C56.3002 11.3617 53.7915 15.5849 53.7915 19.4154C53.7915 24.1528 56.847 27.1111 62.1853 27.1111C64.3083 27.1111 66.2694 26.8039 67.8781 26.1563L67.2348 22.9844C65.9157 23.4141 64.565 23.6294 62.8931 23.6294C60.6099 23.6294 58.6163 22.7082 58.4553 20.7458L68.5855 20.776V20.7768ZM58.4232 17.5276C58.5518 16.2946 59.3886 14.4753 61.4788 14.4753C63.6974 14.4753 64.2126 16.4176 64.2126 17.5276H58.4237H58.4232ZM80.8126 5.82562V13.0878H80.7481C80.0403 12.0713 78.561 11.3931 76.6004 11.3931C72.837 11.3931 69.5248 14.3519 69.5564 19.4066C69.5564 24.0919 72.5478 27.1434 76.2778 27.1434C78.3043 27.1434 80.2334 26.2797 81.1988 24.6153H81.2949L81.4884 26.8043H85.8297C85.7656 25.787 85.7007 24.0302 85.7007 22.3041V5.8252H80.8122L80.8126 5.82562ZM80.8126 20.1158C80.8126 20.4851 80.7806 20.8557 80.7157 21.1629C80.4273 22.4891 79.2693 23.4129 77.8541 23.4129C75.8285 23.4129 74.5094 21.8105 74.5094 19.2832C74.5094 16.9103 75.6358 14.9991 77.8865 14.9991C79.3979 14.9991 80.4589 16.0159 80.7485 17.2792C80.8126 17.5574 80.8126 17.8659 80.8126 18.1429V20.1154V20.1158Z" fill="black"/>
<path d="M100.428 26.7872V12.3376H95.5396V26.7872H100.428H100.428ZM97.9846 10.365C99.689 10.365 100.75 9.2554 100.75 7.86876C100.718 6.45066 99.689 5.37207 98.0171 5.37207C96.3439 5.37207 95.2512 6.45066 95.2512 7.86876C95.2512 9.2554 96.3119 10.365 97.9526 10.365H97.9842H97.9846ZM103.134 26.7872H108.022V18.7188C108.022 18.2874 108.054 17.8551 108.183 17.5471C108.536 16.6838 109.34 15.7903 110.691 15.7903C112.46 15.7903 113.167 17.1152 113.167 19.0579V26.7872H118.055V18.5023C118.055 14.0641 115.644 11.9989 112.428 11.9989C109.791 11.9989 108.633 13.4468 107.99 14.433H108.022V12.338H103.134C103.198 13.6935 103.134 26.7877 103.134 26.7877V26.7872Z" fill="white"/>
</g>
<defs>
<clipPath id="clip0">
<rect width="123" height="32" fill="white"/>
</clipPath>
</defs>
</svg>
