<svg width="90" height="47" viewBox="0 0 90 47" fill="none" xmlns="http://www.w3.org/2000/svg">
<path d="M1 29.0783C18.6536 20.5137 14.765 45.8201 31.5517 46.0652C40.8812 46.2014 55.1005 39.1925 56.9297 29.0783C58.1629 22.2596 51.1283 18.1999 45.2981 17.822C40.3648 17.5022 32.2266 18.628 29.6075 23.6207C25.8418 30.7989 37.7837 32.9628 42.0918 33.2398C51.5125 33.8454 60.394 33.556 67.4389 26.7444C72.8908 19.9945 67.4389 16.8792 62.5279 14.0234" stroke="#00ADE4" stroke-linecap="round" stroke-linejoin="round"/>
<path d="M62.41 14.3378C69.1852 13.1751 82.6871 10.5519 89 8.00684" stroke="#00ADE4" stroke-linecap="round" stroke-linejoin="round"/>
<path d="M68.2201 17.822C73.8031 15.1667 81.617 11.3818 88.3669 8.00684" stroke="#00ADE4" stroke-linecap="round" stroke-linejoin="round"/>
<path d="M71.9041 23.9619C76.798 19.1262 83.4951 12.5282 88.6835 8.00684" stroke="#00ADE4" stroke-linecap="round" stroke-linejoin="round"/>
<path d="M20.4756 18.8468C17.7033 17.6786 15.1277 15.8297 11.1296 14.1738" stroke="#00ADE4" stroke-linecap="round" stroke-linejoin="round"/>
<path d="M11.1296 14.9526C13.2387 13.4225 15.6804 12.3972 18.1391 11.5776" stroke="#00ADE4" stroke-linecap="round" stroke-linejoin="round"/>
<path d="M15.0237 10.5391C17.3817 14.1736 17.9918 15.629 20.4755 19.1062" stroke="#00ADE4" stroke-linecap="round" stroke-linejoin="round"/>
<path d="M57.9783 38.915C60.7568 40.9604 65.3719 43.2125 68.3843 44.8861" stroke="#00ADE4" stroke-linecap="round" stroke-linejoin="round"/>
<path d="M58.2594 39.6937C63.751 39.9988 66.567 39.6937 70.18 38.6553" stroke="#00ADE4" stroke-linecap="round" stroke-linejoin="round"/>
<path d="M69.4228 38.3955C68.9254 40.2607 68.0404 42.8361 67.3243 44.6262" stroke="#00ADE4" stroke-linecap="round" stroke-linejoin="round"/>
<path d="M37.6052 25.4466C35.736 23.5774 34.5764 9.61029 34.2302 2.8604L46.1723 1.30273V8.57185L52.6626 9.86991L50.5857 25.4466C47.0377 26.2254 39.4744 27.3158 37.6052 25.4466Z" fill="#1A1A1A"/>
<path d="M33.949 2.34082C34.8703 12.1219 35.5034 17.5032 37.0859 25.1866" stroke="#00ADE4" stroke-linecap="round" stroke-linejoin="round"/>
<path d="M33.2877 2.6257C38.3204 2.03678 42.2015 1.75929 47.2158 1.04297" stroke="#00ADE4" stroke-linecap="round" stroke-linejoin="round"/>
<path d="M46.4317 1.5625C45.9236 8.80358 45.6312 18.1913 45.6312 25.4467" stroke="#00ADE4" stroke-linecap="round" stroke-linejoin="round"/>
<path d="M34.9874 25.4466C39.491 25.3873 46.3472 25.6608 50.8453 25.4466" stroke="#00ADE4" stroke-linecap="round" stroke-linejoin="round"/>
<path d="M46.6699 8.57178C49.1687 8.99236 51.6874 9.28266 54.1986 9.61022" stroke="#00ADE4" stroke-linecap="round" stroke-linejoin="round"/>
<path d="M52.9005 9.35059C51.5761 14.4925 50.864 19.6519 50.6073 24.9561" stroke="#00ADE4" stroke-linecap="round" stroke-linejoin="round"/>
<path d="M65.773 33.3645C65.1788 36.0385 69.2289 35.0003 67.8066 32.8669C67.3235 32.1422 65.7082 31.7335 65.4413 32.8741C65.2304 33.7749 65.9241 34.3216 66.5518 34.7923" stroke="#00ADE4" stroke-linecap="round" stroke-linejoin="round"/>
<path d="M23.9522 15.9708C23.9861 16.7401 24.8229 17.9445 25.7406 17.2832C26.4392 16.7798 26.3667 15.4192 25.7551 14.9035C25.2366 14.4664 23.5704 13.9217 23.2238 14.8314C22.8926 15.7008 23.8959 16.318 24.4714 16.7496" stroke="#00ADE4" stroke-linecap="round" stroke-linejoin="round"/>
</svg>
