<svg width="90" height="47" viewBox="0 0 90 47" fill="none" xmlns="http://www.w3.org/2000/svg">
<path d="M1 29.0354C18.6536 20.4707 14.765 45.7772 31.5517 46.0222C40.8812 46.1584 55.1005 39.1495 56.9297 29.0354C58.1629 22.2167 51.1283 18.1569 45.2981 17.779C40.3648 17.4593 32.2266 18.585 29.6075 23.5777C25.8418 30.756 37.7837 32.9199 42.0918 33.1968C51.5125 33.8024 60.394 33.5131 67.4389 26.7014C72.8908 19.9515 67.4389 16.8362 62.5279 13.9805" stroke="#00ADE4" stroke-linecap="round" stroke-linejoin="round"/>
<path d="M62.4102 14.2948C69.1853 13.1321 82.6873 10.5089 89.0001 7.96387" stroke="#00ADE4" stroke-linecap="round" stroke-linejoin="round"/>
<path d="M68.2202 17.7791C73.8032 15.1237 81.6171 11.3388 88.367 7.96387" stroke="#00ADE4" stroke-linecap="round" stroke-linejoin="round"/>
<path d="M71.9038 23.9189C76.7977 19.0833 83.4948 12.4852 88.6833 7.96387" stroke="#00ADE4" stroke-linecap="round" stroke-linejoin="round"/>
<path d="M20.4754 18.8039C17.7031 17.6356 15.1274 15.7867 11.1294 14.1309" stroke="#00ADE4" stroke-linecap="round" stroke-linejoin="round"/>
<path d="M11.1294 14.9101C13.2384 13.38 15.6802 12.3547 18.1389 11.5352" stroke="#00ADE4" stroke-linecap="round" stroke-linejoin="round"/>
<path d="M15.0234 10.4961C17.3815 14.1307 17.9915 15.586 20.4753 19.0633" stroke="#00ADE4" stroke-linecap="round" stroke-linejoin="round"/>
<path d="M57.9785 38.8721C60.7571 40.9174 65.3721 43.1696 68.3845 44.8431" stroke="#00ADE4" stroke-linecap="round" stroke-linejoin="round"/>
<path d="M58.2598 39.6507C63.7513 39.9558 66.5673 39.6507 70.1803 38.6123" stroke="#00ADE4" stroke-linecap="round" stroke-linejoin="round"/>
<path d="M69.4227 38.3525C68.9253 40.2177 68.0402 42.7932 67.3242 44.5832" stroke="#00ADE4" stroke-linecap="round" stroke-linejoin="round"/>
<path d="M37.6049 25.4036C35.7357 23.5344 34.5761 9.56733 34.23 2.81743L46.1721 1.25977V8.52888L52.6624 9.82694L50.5855 25.4036C47.0375 26.1824 39.4741 27.2728 37.6049 25.4036Z" fill="white"/>
<path d="M33.9487 2.29785C34.8701 12.079 35.5032 17.4603 37.0856 25.1436" stroke="#00ADE4" stroke-linecap="round" stroke-linejoin="round"/>
<path d="M33.2876 2.58273C38.3202 1.99381 42.2014 1.71632 47.2157 1" stroke="#00ADE4" stroke-linecap="round" stroke-linejoin="round"/>
<path d="M46.4319 1.51953C45.9237 8.76061 45.6313 18.1484 45.6313 25.4038" stroke="#00ADE4" stroke-linecap="round" stroke-linejoin="round"/>
<path d="M34.9873 25.4032C39.4908 25.3439 46.3471 25.6173 50.8451 25.4032" stroke="#00ADE4" stroke-linecap="round" stroke-linejoin="round"/>
<path d="M46.6699 8.52832C49.1687 8.9489 51.6874 9.23921 54.1986 9.56677" stroke="#00ADE4" stroke-linecap="round" stroke-linejoin="round"/>
<path d="M52.9007 9.30762C51.5762 14.4496 50.8641 19.609 50.6074 24.9131" stroke="#00ADE4" stroke-linecap="round" stroke-linejoin="round"/>
<path d="M65.7731 33.3215C65.1789 35.9956 69.229 34.9573 67.8067 32.8239C67.3236 32.0992 65.7083 31.6905 65.4414 32.8311C65.2306 33.7319 65.9243 34.2786 66.5519 34.7494" stroke="#00ADE4" stroke-linecap="round" stroke-linejoin="round"/>
<path d="M23.9521 15.9278C23.986 16.6971 24.8228 17.9016 25.7405 17.2403C26.4391 16.7369 26.3666 15.3762 25.7549 14.8605C25.2365 14.4234 23.5702 13.8788 23.2237 14.7884C22.8925 15.6578 23.8958 16.275 24.4713 16.7066" stroke="#00ADE4" stroke-linecap="round" stroke-linejoin="round"/>
</svg>
