<svg width="120" height="60" viewBox="0 0 120 60" fill="none" xmlns="http://www.w3.org/2000/svg">
<path d="M13.5299 41.9668V51.9668H9.85991V41.9668H6.15991V38.7668H17.2299V41.9668H13.5299ZM25.7899 48.0068H19.9399C19.9351 48.2247 19.9759 48.4412 20.0599 48.6423C20.1438 48.8434 20.2689 49.0247 20.4272 49.1745C20.5855 49.3243 20.7734 49.4393 20.9788 49.512C21.1842 49.5848 21.4026 49.6137 21.6199 49.5968C22.523 49.592 23.4091 49.3506 24.1899 48.8968L25.5199 51.0968C24.3168 51.8375 22.9327 52.232 21.5199 52.2368C18.5199 52.2368 16.8899 50.1168 16.8899 47.0768C16.8899 43.6568 18.8199 41.8968 21.4199 41.8968C24.0199 41.8968 25.8399 43.6968 25.8399 47.3768C25.7999 47.6168 25.7999 47.8268 25.7899 47.9968V48.0068ZM21.2899 44.3768C20.5099 44.3768 20.0899 44.9068 19.9699 45.8968H22.7999C22.6299 44.8968 22.2999 44.3768 21.2999 44.3768H21.2899ZM32.1099 52.2068C29.2099 52.2068 27.4699 50.3568 27.4699 47.0068C27.4699 44.0068 29.0099 41.8668 32.1899 41.8668C32.9719 41.8409 33.7452 42.0377 34.4198 42.4343C35.0943 42.8309 35.6423 43.4109 35.9999 44.1068L33.6599 45.9068C33.1899 45.0468 32.8599 44.6268 32.1299 44.6268C31.3999 44.6268 30.8299 45.4968 30.8299 47.0668C30.8299 48.6368 31.2999 49.4468 32.2299 49.4468C32.8699 49.4468 33.3299 49.0868 33.9499 48.1468L36.0999 49.8268C34.9399 51.5268 33.8699 52.1968 32.0999 52.1968L32.1099 52.2068ZM43.7099 52.0068V46.3768C43.7099 45.0768 43.2799 44.7468 42.5799 44.7468C41.8799 44.7468 41.4199 45.0868 41.4199 46.3468V52.0168H38.0199V39.6168L41.4199 38.2568V42.7568C42.1238 42.1797 43.0098 41.8714 43.9199 41.8868C46.0899 41.8868 47.1199 43.3468 47.1199 45.9468V52.0168L43.7099 52.0068Z" fill="#0A9600"/>
<path d="M55.27 52.2073C51.34 52.2073 49.27 49.3073 49.27 45.3873C49.27 41.1373 51.77 38.5673 55.27 38.5673C58.52 38.5673 59.8 39.9673 60.71 42.4673L57.39 43.7673C56.91 42.5373 56.46 41.7673 55.25 41.7673C53.72 41.7673 53.05 43.2973 53.05 45.3973C53.05 47.4973 53.69 49.0173 55.28 49.0173C56.43 49.0173 56.92 48.3973 57.64 47.1473L60.74 48.7973C60.281 49.8557 59.5111 50.7495 58.5324 51.3603C57.5537 51.9711 56.4125 52.27 55.26 52.2173L55.27 52.2073ZM69.13 45.8073C68.9424 45.5629 68.7039 45.3621 68.4311 45.2188C68.1584 45.0755 67.8577 44.9931 67.55 44.9773C66.72 44.9773 66.21 45.3773 66.21 46.5773V51.9773H62.81V42.0773H66.21V42.7973C66.6795 42.3017 67.304 41.9811 67.9804 41.8884C68.6567 41.7956 69.3445 41.9364 69.93 42.2873L69.13 45.8073ZM77.23 51.9873V51.3273C76.5349 51.9062 75.6544 52.2151 74.75 52.1973C72.58 52.1973 71.55 50.7373 71.55 48.1273V42.0973H74.95V47.6973C74.95 48.9773 75.39 49.3173 76.09 49.3173C76.79 49.3173 77.22 48.9773 77.22 47.7373V42.0973H80.64V52.0173L77.23 51.9873ZM88.79 51.9873V46.3573C88.79 45.0573 88.35 44.7273 87.66 44.7273C86.97 44.7273 86.5 45.0673 86.5 46.3273V51.9973H83.1V42.0973H86.5V42.7573C87.2039 42.1802 88.0899 41.8718 89 41.8873C91.17 41.8873 92.2 43.3473 92.2 45.9473V52.0173L88.79 51.9873ZM98.84 52.1873C95.94 52.1873 94.19 50.3373 94.19 46.9873C94.19 43.9873 95.74 41.8473 98.91 41.8473C99.6931 41.8231 100.467 42.0205 101.143 42.4168C101.819 42.8131 102.369 43.3921 102.73 44.0873L100.39 45.8573C99.91 44.9973 99.59 44.5773 98.86 44.5773C98.13 44.5773 97.56 45.4473 97.56 47.0173C97.56 48.5873 98.03 49.3973 98.96 49.3973C99.6 49.3973 100.06 49.0373 100.68 48.0973L102.83 49.7773C101.68 51.5173 100.6 52.1773 98.85 52.1773L98.84 52.1873ZM110.44 51.9873V46.3573C110.44 45.0573 110.01 44.7273 109.31 44.7273C108.61 44.7273 108.16 45.0673 108.16 46.3273V51.9973H104.76V39.5973L108.16 38.2373V42.7373C108.859 42.1585 109.743 41.8498 110.65 41.8673C112.83 41.8673 113.85 43.3273 113.85 45.9273V51.9973L110.44 51.9873Z" fill="black"/>
<path d="M34.5249 7.75293V15.6889H42.4499V31.5489H50.3859V15.6889H58.3109V7.75293H34.5249ZM66.2469 23.6129V15.6879H58.3099V31.5479H82.1069V23.6119L66.2469 23.6129ZM66.2469 7.75293H82.1069V15.6889H66.2469V7.75293Z" fill="#0A9600"/>
</svg>
