<svg width="120" height="45" viewBox="0 0 120 45" fill="none" xmlns="http://www.w3.org/2000/svg">
<path fill-rule="evenodd" clip-rule="evenodd" d="M64.8122 13C64.8022 14.9989 64.7922 16.9971 64.7837 18.9952C64.7814 19.4349 64.7891 19.4449 65.1787 19.2593C66.2783 18.7342 67.4464 18.6095 68.6299 18.7511C69.8411 18.8959 70.8382 19.5073 71.6298 20.4297C72.5138 21.46 73.012 22.6627 73.1713 24.0079C73.2707 24.8511 73.3007 25.6988 73.2014 26.5412C72.945 28.7165 72.1226 30.5914 70.2538 31.8789C69.2921 32.5411 68.2187 32.9153 67.0629 33.0631C67.0129 33.0701 66.9343 33.04 66.929 33.1363C66.6471 33.1363 66.3645 33.1363 66.0812 33.1363C66.0689 33.1055 66.0558 33.1101 66.0435 33.1363C65.3628 33.1363 64.6821 33.1363 64.003 33.1363C64.0014 33.0354 63.919 33.0716 63.8721 33.0662C62.8557 32.9384 61.8477 32.7613 60.8444 32.5542C60.6804 32.5195 60.6881 32.4294 60.6896 32.3093C60.7382 29.3332 60.7767 26.3572 60.7813 23.3804C60.7844 21.5016 60.769 19.622 60.7204 17.744C60.7043 17.1064 60.7166 16.4642 60.5048 15.8421C60.3262 15.3139 60.009 14.972 59.4438 14.8896C59.3552 14.8757 59.269 14.8503 59.182 14.8295C58.8555 14.7487 58.7431 14.5354 58.8416 14.2066C58.8709 14.1088 58.9494 14.1019 59.0195 14.088C59.6717 13.9556 60.3231 13.8231 60.9769 13.6992C62.051 13.4943 63.1275 13.298 64.2016 13.0893C64.2755 13.0747 64.3957 13.1386 64.4265 13.0008C64.465 13.0008 64.5042 13.0008 64.5412 13.0008C64.5327 13.0177 64.5366 13.0331 64.5566 13.0308C64.5658 13.03 64.5728 13.0115 64.5805 13.0008C64.6582 13 64.7352 13 64.8122 13ZM64.773 26.0692C64.7891 26.0692 64.8045 26.0684 64.8199 26.0684C64.8199 27.3582 64.813 28.6479 64.823 29.9362C64.8276 30.5314 64.8669 31.1281 64.8861 31.7241C64.8908 31.8881 64.9678 31.9705 65.131 31.9805C65.1941 31.9844 65.2581 31.9951 65.322 32.0021C66.169 32.0991 66.8735 31.8334 67.4271 31.1805C67.8014 30.7408 68.0701 30.2395 68.2772 29.7044C69.0172 27.7909 69.1127 25.809 68.8409 23.8023C68.7346 23.02 68.4921 22.2646 68.0616 21.5901C67.5534 20.7947 66.8866 20.2542 65.871 20.3258C65.5691 20.3466 65.2765 20.4028 64.9855 20.4852C64.8392 20.526 64.8014 20.5937 64.7984 20.7377C64.7545 22.5157 64.7783 24.2928 64.773 26.0692ZM21 14.309C21.4528 14.336 21.9017 14.3852 22.3367 14.5215C23.0028 14.7325 23.2861 15.2653 23.4609 15.8783C23.6557 16.562 23.7012 17.2681 23.7281 17.9719C23.8405 20.9279 23.8174 23.8855 23.7643 26.8431C23.7474 27.7971 23.715 28.7534 23.5764 29.7013C23.5256 30.0493 23.4548 30.3943 23.3123 30.7192C23.0775 31.2552 22.6894 31.6017 22.1042 31.7102C21.8524 31.7572 21.6037 31.8203 21.3504 31.8573C21.2218 31.875 21.1286 31.9743 21 31.9805C21 32.0313 21 32.0829 21 32.1337C21.0046 32.143 21.01 32.1514 21.0131 32.1615C21.0139 32.1638 21.0046 32.1692 21 32.173C21 32.3401 21 32.5072 21 32.6735C21.0755 32.7859 21.1925 32.7751 21.3049 32.7759C22.607 32.7821 23.9098 32.7905 25.2127 32.7905C27.0861 32.7905 28.9595 32.7836 30.8329 32.7821C30.9985 32.7821 31.1147 32.7567 31.1293 32.5526C31.1625 32.1022 31.1139 31.9428 30.8914 31.8973C30.6158 31.8419 30.3393 31.778 30.0598 31.7495C29.2575 31.6687 28.7862 31.212 28.5606 30.4644C28.5106 30.2988 28.4659 30.1317 28.432 29.9631C28.2904 29.257 28.265 28.5386 28.2249 27.8225C28.1502 26.502 28.1394 25.1806 28.1364 23.8593C28.1364 23.7292 28.1833 23.6976 28.305 23.7022C29.0165 23.7261 29.7279 23.7477 30.4363 23.8216C30.8945 23.8701 31.2633 24.0718 31.5459 24.4376C31.7045 24.6409 31.8331 24.8611 31.9402 25.0952C32.1126 25.4702 32.2073 25.8682 32.2997 26.2671C32.3244 26.3726 32.3667 26.4173 32.4776 26.4165C32.6439 26.4157 32.811 26.4342 32.9773 26.4357C33.2707 26.4388 33.2384 26.475 33.2384 26.187C33.2391 24.1404 33.2392 22.0937 33.2392 20.0463C33.2392 20.0078 33.2361 19.9685 33.2392 19.9315C33.2476 19.8399 33.206 19.8053 33.1159 19.8083C32.9427 19.8145 32.7687 19.8245 32.5962 19.8145C32.4029 19.8006 32.3167 19.873 32.2743 20.0686C32.1627 20.5822 32.0195 21.0881 31.733 21.5378C31.4173 22.0329 30.9907 22.3678 30.3886 22.4287C29.7179 22.4972 29.045 22.5087 28.3712 22.518C28.1895 22.5211 28.1341 22.4779 28.1341 22.2877C28.1287 20.1379 28.1764 17.9896 28.2449 15.8405C28.2542 15.5656 28.288 15.2915 28.3034 15.0166C28.3096 14.9096 28.3543 14.8796 28.4582 14.8803C29.4592 14.8873 30.4602 14.8873 31.4612 14.8934C32.4984 14.9004 33.3885 15.2638 34.1116 16.0153C34.5019 16.4196 34.7953 16.8939 35.0517 17.3913C35.2951 17.8649 35.4768 18.3646 35.6777 18.8558C35.7932 19.1392 35.8548 19.1654 36.1474 19.0899C36.3145 19.046 36.4778 18.9883 36.6456 18.949C36.7527 18.9236 36.7881 18.872 36.7842 18.7627C36.735 17.0379 36.7511 15.3115 36.6741 13.5867C36.6672 13.4197 36.6171 13.3565 36.4354 13.3565C31.79 13.3565 27.1446 13.3503 22.4992 13.348C21.9995 13.348 21.4982 13.3303 21 13.385C21 13.693 21 14.001 21 14.309ZM40.2115 33.1355C40.2015 33.0277 40.1137 33.0701 40.059 33.0608C38.6877 32.8375 37.5026 32.2592 36.5432 31.2398C35.7109 30.355 35.2288 29.2924 34.9639 28.1243C34.5851 26.455 34.5743 24.7779 35.1172 23.1509C35.9395 20.6861 37.6266 19.1307 40.2084 18.6341C41.5929 18.3669 42.9696 18.4547 44.2994 18.9429C46.1082 19.6089 47.2478 20.9248 47.8699 22.7182C48.3119 23.9925 48.3966 25.3054 48.3065 26.6444C48.2226 27.8987 47.8661 29.0614 47.2016 30.1225C46.2083 31.7102 44.7591 32.6412 42.9388 33.0185C42.8387 33.0393 42.7363 33.0485 42.6362 33.0693C42.6031 33.0762 42.5392 33.0608 42.56 33.1355C42.329 33.1355 42.098 33.1355 41.867 33.1355C41.8539 33.1039 41.8408 33.1086 41.8285 33.1355C41.2895 33.1355 40.7497 33.1355 40.2115 33.1355ZM44.0561 26.0507C44.0707 25.5872 44.0407 25.126 44.0161 24.6655C43.9676 23.7554 43.8621 22.8529 43.5995 21.9759C43.3762 21.229 43.0482 20.5437 42.4637 20.0024C42.0533 19.6228 41.5759 19.5119 41.0392 19.6174C40.4987 19.7229 40.1499 20.0794 39.8889 20.5321C39.3676 21.4361 39.2043 22.4425 39.0996 23.4581C39.0026 24.4029 39.0095 25.3539 39.0188 26.3033C39.0303 27.4614 39.1435 28.6056 39.48 29.7198C39.681 30.3866 39.9358 31.0288 40.4279 31.5431C41.1139 32.2592 42.0757 32.27 42.7856 31.584C43.3115 31.075 43.541 30.4197 43.7096 29.7367C44.0099 28.5255 44.0322 27.2866 44.0561 26.0507ZM80.0582 33.1355C80.0852 33.047 80.0097 33.0693 79.9735 33.0631C76.9967 32.615 74.8884 30.4136 74.4234 27.4005C74.1169 25.4101 74.3294 23.4589 75.392 21.6779C76.4161 19.9616 77.9276 18.9567 79.8904 18.6133C80.8644 18.4431 81.8331 18.457 82.7887 18.7096C84.0861 19.0537 85.0671 19.8268 85.7285 20.9911C86.4477 22.2546 86.6987 23.6345 86.6902 25.0736C86.6895 25.2222 86.6348 25.2499 86.4985 25.2499C83.9005 25.2576 81.3025 25.2707 78.7053 25.2769C78.5336 25.2777 78.4782 25.3115 78.4851 25.4956C78.5252 26.5674 78.6584 27.6215 79.1581 28.5856C79.8588 29.9331 80.9237 30.7916 82.4799 30.9449C83.3122 31.0265 84.1308 30.9857 84.9177 30.67C85.2588 30.5329 85.563 30.3289 85.8756 30.1417C86.0242 30.0532 86.152 30.0016 86.2937 30.1718C86.4954 30.4136 86.5347 30.5375 86.3976 30.73C86.1227 31.1143 85.7693 31.4215 85.4051 31.7179C84.4865 32.4633 83.4247 32.8752 82.2666 33.0639C82.2289 33.0701 82.1557 33.0477 82.1765 33.1347C81.676 33.1347 81.1755 33.1347 80.6758 33.1347C80.6619 33.1001 80.6504 33.1186 80.6365 33.1347C80.5472 33.1347 80.4579 33.1347 80.367 33.1347C80.3547 33.1255 80.3431 33.1178 80.3308 33.1086C80.3293 33.1178 80.3293 33.1255 80.3277 33.1347C80.2392 33.1355 80.1483 33.1355 80.0582 33.1355ZM80.5017 24.0587C80.5017 24.0426 80.5017 24.0264 80.5017 24.0102C81.1039 24.0102 81.706 24.0025 82.3089 24.0141C82.4945 24.0179 82.5415 23.9533 82.5199 23.7831C82.4991 23.6114 82.493 23.4389 82.4837 23.2656C82.4491 22.5418 82.3682 21.8234 82.1726 21.1243C82.0664 20.747 81.9286 20.3812 81.6883 20.0648C81.2895 19.5373 80.705 19.4334 80.1429 19.786C79.8996 19.9377 79.7033 20.1402 79.5493 20.3789C78.847 21.4662 78.6114 22.6889 78.5167 23.9525C78.5074 24.0803 78.566 24.098 78.6753 24.0957C79.2836 24.0788 79.8934 24.0988 80.5017 24.0587ZM93.457 33.1355C93.4863 33.0231 93.5825 33.0731 93.648 33.0616C95.0763 32.8098 96.3445 32.2708 97.2215 31.0465C97.5719 30.5568 97.7959 30.0085 97.9245 29.4226C97.9345 29.3787 97.9315 29.3325 97.973 29.3032C97.9746 29.3017 97.9823 29.3071 97.9869 29.3109C97.9915 29.3148 97.9961 29.3202 98.0008 29.3248C98.0008 28.7858 98.0008 28.2475 98.0008 27.707C97.9892 27.6993 97.9707 27.6931 97.9692 27.6847C97.9677 27.6654 97.9831 27.6608 98.0008 27.6693C98.0008 27.63 98.0008 27.5915 98.0008 27.5538C97.9392 27.5068 97.9407 27.5068 97.923 27.4306C97.8006 26.8692 97.558 26.3664 97.1761 25.9352C96.6109 25.2954 95.874 24.9073 95.1148 24.5554C94.3664 24.2089 93.5894 23.924 92.8687 23.5151C92.4475 23.2764 92.0525 23.0062 91.7445 22.625C91.3911 22.1884 91.3857 21.6864 91.4542 21.1643C91.5597 20.3574 92.3143 19.6713 93.1282 19.662C94.0792 19.6513 94.8368 20.0455 95.4213 20.7839C95.8602 21.3391 96.1358 21.9797 96.3853 22.6335C96.5932 23.1763 96.6209 23.1833 97.1661 22.9815C97.2785 22.9399 97.3093 22.8853 97.3062 22.7728C97.2754 21.6702 97.2446 20.5676 97.2254 19.4642C97.2223 19.2871 97.1522 19.2116 96.9921 19.1492C96.1366 18.8174 95.2442 18.6672 94.3379 18.5679C93.2968 18.4539 92.2658 18.4793 91.2456 18.738C89.2797 19.2362 87.8545 20.8355 87.7374 22.6466C87.6358 24.2251 88.1725 25.484 89.5338 26.3456C90.1221 26.7176 90.7759 26.9493 91.4165 27.2088C92.0695 27.4737 92.7232 27.7363 93.3084 28.1374C93.6148 28.3469 93.8782 28.5979 94.0245 28.9482C94.4726 30.0355 93.8289 31.3699 92.6816 31.6271C91.4696 31.8997 90.427 31.5539 89.6085 30.5976C89.0503 29.9454 88.6845 29.1862 88.3658 28.4C88.1894 27.9657 88.1494 27.9472 87.6935 28.0928C87.6627 28.1028 87.6335 28.1174 87.6035 28.1259C87.4957 28.1575 87.4564 28.2229 87.4587 28.3384C87.4949 29.5635 87.5234 30.7885 87.5573 32.0128C87.5657 32.3324 87.5704 32.337 87.8799 32.4464C88.7654 32.759 89.6848 32.923 90.6095 33.0624C90.665 33.0708 90.7512 33.0316 90.7628 33.137C91.6598 33.1355 92.5592 33.1355 93.457 33.1355ZM64.5427 13C64.5343 13.0169 64.5381 13.0323 64.5581 13.03C64.5674 13.0293 64.5743 13.0108 64.582 13C64.5689 13 64.5558 13 64.5427 13ZM98 27.6685C97.9823 27.6593 97.9669 27.6639 97.9684 27.6839C97.97 27.6931 97.9884 27.6993 98 27.7062C98 27.6947 98 27.6808 98 27.6685ZM21 32.173C21.0046 32.1692 21.0139 32.1638 21.0131 32.1615C21.01 32.1522 21.0038 32.143 21 32.1337C21 32.1476 21 32.1599 21 32.173ZM41.867 33.1355C41.8539 33.1039 41.8408 33.1086 41.8285 33.1355C41.8408 33.1355 41.8539 33.1355 41.867 33.1355ZM66.0827 33.1355C66.0704 33.1047 66.0573 33.1093 66.045 33.1355C66.0573 33.1355 66.0704 33.1355 66.0827 33.1355ZM80.367 33.1355C80.3547 33.1263 80.3431 33.1186 80.3308 33.1093C80.3293 33.1186 80.3293 33.1263 80.3277 33.1355C80.3408 33.1355 80.3539 33.1355 80.367 33.1355ZM80.675 33.1355C80.6611 33.1009 80.6496 33.1193 80.6357 33.1355C80.6496 33.1355 80.6611 33.1355 80.675 33.1355ZM54.2779 21.343C54.3102 20.4852 54.3418 19.6266 54.3741 18.7688C54.3833 18.524 54.3687 18.5078 54.1377 18.5509C52.3197 18.8867 50.5079 19.2563 48.6984 19.6305C48.2965 19.7129 48.2803 19.7421 48.2973 20.1541C48.298 20.1672 48.298 20.1795 48.298 20.1926C48.3003 20.3142 48.3589 20.3751 48.4828 20.3951C48.6846 20.4267 48.884 20.4775 49.0857 20.5075C49.6063 20.5868 49.8958 20.9079 50.0329 21.393C50.1691 21.8727 50.1953 22.3671 50.2123 22.8583C50.2685 24.5254 50.2739 26.1932 50.2369 27.861C50.2177 28.7581 50.2138 29.6559 50.1075 30.5491C50.0251 31.2398 49.6648 31.6717 49.0134 31.8142C48.8324 31.8542 48.6476 31.8796 48.4667 31.9181C48.4028 31.9312 48.3265 31.9343 48.3265 32.039C48.3265 32.2053 48.3088 32.3717 48.3065 32.538C48.305 32.6827 48.3512 32.7836 48.5306 32.7659C48.6315 32.7559 48.7354 32.7759 48.8378 32.7759C50.6019 32.7805 52.366 32.7852 54.13 32.7867C54.9 32.7875 55.67 32.779 56.4393 32.7828C56.5825 32.7836 56.6348 32.7405 56.6318 32.5996C56.6279 32.4333 56.6402 32.2662 56.6456 32.0999C56.6487 31.9782 56.6017 31.9174 56.4677 31.9074C56.1998 31.8896 55.9326 31.855 55.6654 31.8234C55.2958 31.7811 54.9416 31.7048 54.7129 31.3645C54.582 31.1705 54.5058 30.9549 54.4588 30.7269C54.3164 30.0393 54.3033 29.3386 54.2763 28.6426C54.2039 26.7961 54.2147 24.9489 54.2648 23.1016C54.274 22.7644 54.4188 22.5495 54.7114 22.4063C55.3805 22.0768 56.0804 22.0036 56.8073 22.1438C57.2893 22.2369 57.7275 22.4525 58.1694 22.6558C58.3281 22.7297 58.4166 22.7136 58.4882 22.5349C58.9317 21.4238 59.3606 20.3065 59.7526 19.1762C59.8403 18.9228 59.8118 18.8582 59.5762 18.7373C59.5254 18.7111 59.473 18.6849 59.4184 18.6664C58.5914 18.4085 57.766 18.3908 56.9528 18.7149C55.9595 19.1107 55.2427 19.823 54.6921 20.7208C54.5635 20.931 54.4426 21.1466 54.3179 21.3599C54.3033 21.353 54.2902 21.3476 54.2779 21.343Z" fill="black"/>
</svg>
