<svg width="436" height="144" viewBox="0 0 436 144" fill="none" xmlns="http://www.w3.org/2000/svg">
<path d="M1 47.9845L1.00004 6.50765L1 2.26985L36.0643 1H241.905H431.591L436 64.2153L433.551 141.494L372.321 143H101.44H3.96176L1 113.763V47.9845Z" fill="white"/>
<path d="M433.734 7.4191C433.54 6.1415 433.326 4.8639 433.071 3.5863C432.962 3.05925 433.071 2 431.505 0.96594C410.371 0.616347 395.32 0.865829 374.117 0.937337C342.209 1.0438 310.301 1.06923 278.392 1.09942C209.748 1.16775 141.111 1.16934 72.4671 1.35526C45.428 1.42836 27.8018 1.29011 0.962991 2.14343C0.719373 2.1511 1.55625 51.7366 1.52242 58.2085C1.42572 76.5208 1.09421 94.8347 2.15091 113.145C2.71034 122.926 2.17853 130 4.91788 142.409C4.60708 142.516 4.49658 142.627 5.03529 142.665C18.8277 143.635 27.7956 143.439 42.0368 143.522C70.5125 143.689 99.0296 143.619 127.512 143.573C199.216 143.453 270.913 143.102 342.596 142.705C360.2 142.608 377.833 142.562 395.424 142.375C410.231 142.217 418.963 141.768 433.695 141.407C433.702 141.415 433.709 141.424 433.715 141.432C434.061 141.796 433.834 141.162 434 141C435.384 80.3904 437 50 433.734 7.4191ZM404.879 140.604C389.684 140.585 374.469 140.738 359.282 140.825C323.803 141.029 288.324 141.21 252.845 141.37C186.722 141.669 120.585 141.942 54.441 142.028C36.2008 142.052 24.8571 142.249 6.62379 142.168C4.18723 125 4.33917 106.448 4.18723 88.5897C4.02838 70.1884 4.10434 51.7872 3.86262 33.3859C3.73139 23.1968 4.18723 18 2.17853 2.78541C24.6524 2.88234 37.1885 2.65829 59.6693 2.60585C92.0126 2.52957 124.356 2.58201 156.699 2.60426C224.68 2.64875 292.661 2.83308 360.642 2.64398C386.266 2.57248 406.151 2.72344 431.374 1.58726C433.258 29.9691 433.356 82.5 433.356 140.979C421.878 140.844 416.364 140.619 404.879 140.604Z" fill="black"/>
<path d="M415.431 11.2978C396.552 11.0049 377.748 11.2139 358.808 11.2738C330.306 11.363 301.804 11.3843 273.302 11.4096C211.985 11.4668 150.674 11.4681 89.3569 11.6238C65.204 11.6851 43.6898 11.7853 19.7158 12.5C18.994 12.5213 17.8896 12.8421 18.2536 12.9752C18 29 17.1388 43.753 17.0524 59.2445C16.9661 74.583 16.6699 89.9229 17.6139 105.26C18.1136 113.452 17.6385 113.5 17.6385 129.986C17.3609 130.075 22.3889 129.954 22.8701 129.986C35.1903 130.798 49.4537 130.634 62.1749 130.704C87.611 130.843 113.084 130.785 138.526 130.746C202.576 130.646 266.62 130.352 330.652 130.019C346.377 129.938 362.128 129.9 377.841 129.743C391.068 129.611 404.227 129.234 417.386 128.932C417.392 128.939 417.399 128.947 417.405 128.953C419.199 120.856 418.471 114.799 419.024 106.405C420.907 77.6469 420.5 33.5 415.431 11.2978ZM386.287 128.26C372.714 128.244 359.123 128.372 345.557 128.445C313.865 128.615 282.173 128.767 250.481 128.901C191.416 129.152 132.339 129.381 73.255 129.452C56.9618 129.472 35.2871 129.068 19.0001 129C20.0058 115 20.1416 99.6499 20.0058 84.692C19.864 69.279 19.9318 53.866 19.7159 38.4529C19.5987 29.9185 19.5 28 20.8016 13.0377C40.8766 13.1189 57.844 12.7153 77.9252 12.6713C106.816 12.6075 135.707 12.6514 164.598 12.67C225.323 12.7073 286.047 12.8617 346.772 12.7033C369.66 12.6434 392.783 12.7698 415.313 11.8182C417.442 41.903 417.059 71 417.059 104.256C416.778 109.127 417.405 116 417.084 128.574C406.831 128.461 396.546 128.272 386.287 128.26Z" fill="black"/>
<path d="M428.192 128.41C428.378 126.975 428.954 124.894 426.822 124.025C426.584 123.928 426.225 124.137 426.269 124.242C426.884 125.63 426.701 127.073 426.542 128.502C426.013 128.541 425.504 128.603 424.998 128.67C424.937 127.757 424.795 126.856 424.51 125.988C424.448 125.802 423.893 125.987 423.86 126.099C423.44 127.63 423.363 129.237 423.457 130.839C422.301 130.898 421.149 130.956 419.993 131.001C420.057 130.29 420.201 129.557 419.996 128.879C419.954 128.744 419.59 128.868 419.525 128.934C418.922 129.537 418.634 130.276 418.543 131.047C416.831 131.096 415.111 131.115 413.369 131.064C413.196 131.058 412.837 131.236 413.084 131.286C414.775 131.628 416.619 131.744 418.51 131.744C418.54 132.703 418.822 133.663 419.181 134.437C419.24 134.566 419.681 134.385 419.702 134.32C420.004 133.458 419.993 132.595 419.963 131.726C421.146 131.69 422.334 131.614 423.516 131.513C423.619 132.651 423.781 133.782 424.001 134.873C424.031 135.02 424.46 134.855 424.475 134.768C424.663 133.674 424.848 132.533 424.951 131.381C425.445 131.331 425.939 131.284 426.425 131.23C426.451 133.193 426.619 135.148 427.075 137.106C427.113 137.268 427.584 137.084 427.601 136.988C427.992 135.002 428.139 133.024 428.157 131.038C428.895 130.954 429.616 130.871 430.31 130.796C430.489 130.776 430.854 130.535 430.51 130.543C429.722 130.559 428.936 130.586 428.154 130.617C428.154 130.1 428.151 129.582 428.139 129.064C428.139 129.046 428.142 129.024 428.142 129.006C429.463 128.915 430.78 128.793 432.01 128.715C432.198 128.703 432.51 128.499 432.195 128.48C430.91 128.401 429.545 128.371 428.192 128.41ZM426.428 130.693C425.951 130.716 425.475 130.74 425.001 130.764C425.034 130.213 425.048 129.662 425.028 129.113C425.51 129.114 425.992 129.114 426.487 129.094C426.454 129.438 426.428 129.781 426.422 130.122C426.419 130.312 426.428 130.502 426.428 130.693Z" fill="black"/>
<path d="M14.5997 7.73684C14.5912 7.58706 14.5912 7.43441 14.5763 7.28463C14.5635 7.14925 14.5592 6.95625 14.5187 6.82951C14.5038 6.7863 14.329 6.51555 14.3333 6.54723C14.2928 6.21887 13.9582 6.54435 13.939 6.7431C13.9347 6.78919 13.9454 6.65671 13.8686 6.91306C13.8111 7.10605 13.7706 7.25293 13.7386 7.46032C13.7195 7.57842 13.7216 7.70515 13.7109 7.82613C12.7881 7.92118 11.8673 8.022 10.953 8.13146C10.7931 7.06283 10.5502 6.0403 10.1559 5.11281C10.0152 4.78157 9.63796 5.25971 9.65075 5.52183C9.69125 6.43491 9.71895 7.35376 9.74879 8.27261C9.34384 8.32158 8.93676 8.37053 8.53394 8.41662C8.35704 8.43678 8.02029 8.98981 8.31867 9.0215C8.80248 9.07334 9.29269 9.07624 9.77863 9.11368C9.79781 9.77329 9.81912 10.4358 9.83831 11.0954C9.26285 11.2884 8.70231 11.5274 8.1844 11.8529C8.09915 11.9048 7.87109 12.3426 8.09701 12.3253C8.69165 12.2764 9.28203 12.2562 9.87454 12.2418C9.95553 14.8025 10.06 17.3603 10.2838 19.8864C10.3093 20.1744 10.5843 19.8432 10.5992 19.6819C10.7889 17.4294 11.1214 14.8082 11.181 12.2303C12.1615 12.236 13.1419 12.2562 14.1244 12.2821C14.1564 12.3714 14.1798 12.4693 14.2182 12.5529C14.3248 12.7833 14.5464 12.4809 14.5741 12.2908C15.2263 12.3052 15.8785 12.3167 16.5328 12.3109C16.6713 12.3109 16.9889 11.8904 16.7736 11.7665C16.1044 11.3834 15.3819 11.1012 14.6338 10.9139C14.653 10.3724 14.6594 9.83089 14.6551 9.28938C18.6833 9.2721 22.7264 8.95238 26.7078 8.56064C26.8634 8.54624 27.1575 8.08536 26.8953 8.03064C22.8692 7.20108 18.7153 7.34511 14.5997 7.73684ZM13.7749 10.7497C12.9117 10.623 12.0336 10.6259 11.1725 10.7613C11.1597 10.2313 11.1235 9.70993 11.0766 9.19433C11.9441 9.24042 12.8115 9.29225 13.6832 9.3009C13.6917 9.76176 13.7173 10.2572 13.7749 10.7497Z" fill="black"/>
</svg>
