<svg width="137" height="44" viewBox="0 0 137 44" fill="none" xmlns="http://www.w3.org/2000/svg">
<path fill-rule="evenodd" clip-rule="evenodd" d="M136.922 19.0413C136.922 18.9029 136.783 18.7646 136.783 18.7646C136.645 18.6263 136.23 18.6263 135.677 18.6263C134.293 18.6263 133.048 19.3179 132.495 20.4246V19.0413C132.495 18.9029 132.357 18.7646 132.218 18.7646H130.143C130.005 18.7646 129.867 18.9029 129.867 19.0413V28.5863C129.867 28.7246 130.005 28.8629 130.143 28.8629H132.357C132.495 28.8629 132.633 28.7246 132.633 28.5863V24.2979C132.633 22.3613 134.017 21.3929 135.677 21.3929C136.092 21.3929 136.507 21.5313 136.645 21.5313C136.783 21.5313 136.922 21.5313 136.922 21.2546V19.0413ZM122.95 18.6263C125.993 18.6263 128.345 20.7013 128.345 23.8829C128.345 27.0646 125.993 29.1396 122.95 29.1396C119.907 29.1396 117.555 27.0646 117.555 23.8829C117.555 20.7013 119.907 18.6263 122.95 18.6263ZM122.95 26.5113C124.472 26.5113 125.578 25.4046 125.578 23.8829C125.578 22.2229 124.472 21.2546 122.95 21.2546C121.428 21.2546 120.322 22.3613 120.322 23.8829C120.322 25.4046 121.428 26.5113 122.95 26.5113ZM110.777 18.6263C113.82 18.6263 116.172 20.7013 116.172 23.8829C116.172 27.0646 113.82 29.1396 110.777 29.1396C107.733 29.1396 105.382 27.0646 105.382 23.8829C105.382 20.7013 107.733 18.6263 110.777 18.6263ZM110.777 26.5113C112.298 26.5113 113.405 25.4046 113.405 23.8829C113.405 22.2229 112.298 21.2546 110.777 21.2546C109.255 21.2546 108.148 22.3613 108.148 23.8829C108.148 25.5429 109.255 26.5113 110.777 26.5113ZM103.583 14.8913C103.722 14.8913 103.86 15.0296 103.86 15.1679V28.7246C103.86 28.8629 103.722 29.0013 103.583 29.0013H101.37C101.232 29.0013 101.093 28.8629 101.093 28.7246V27.4796C100.402 28.5863 99.295 29.1396 97.7734 29.1396C95.2834 29.1396 93.2084 27.2029 93.2084 23.8829C93.2084 20.4246 95.2833 18.6263 97.635 18.6263C99.1567 18.6263 100.263 19.3179 100.955 20.2863V15.0296C100.955 14.8913 101.093 14.7529 101.232 14.7529L103.583 14.8913ZM98.6034 26.5113C100.125 26.5113 101.232 25.4046 101.232 23.8829C101.232 22.2229 100.125 21.2546 98.6034 21.2546C97.0817 21.2546 95.975 22.3613 95.975 23.8829C96.1134 25.5429 97.22 26.5113 98.6034 26.5113ZM91.9634 25.8196C91.9634 28.0329 90.3034 29.1396 87.675 29.1396C85.8767 29.1396 84.2167 28.5863 83.3867 27.6179C83.2484 27.4796 83.2484 27.4796 83.3867 27.3413L84.6317 25.6813C84.77 25.5429 84.9084 25.5429 84.9084 25.6813C85.6 26.3729 86.5684 26.7879 87.8134 26.7879C88.505 26.7879 89.1967 26.6496 89.1967 25.9579C89.1967 25.4046 88.6434 25.2663 86.9834 24.9896C85.4617 24.7129 83.6634 24.0213 83.6634 21.8079C83.6634 19.7329 85.3234 18.6263 87.8134 18.6263C89.4734 18.6263 90.7184 19.1796 91.6867 20.0096C91.825 20.1479 91.825 20.2863 91.6867 20.2863L90.4417 21.8079C90.3034 21.9463 90.165 21.9463 90.165 21.8079C89.6117 21.2546 88.6434 20.9779 87.675 20.9779C86.845 20.9779 86.43 21.2546 86.43 21.6696C86.43 22.2229 86.9834 22.2229 88.7817 22.6379C90.4417 23.0529 91.9634 23.7446 91.9634 25.8196ZM81.865 25.8196C81.865 28.0329 80.205 29.1396 77.5767 29.1396C75.7784 29.1396 74.1184 28.5863 73.2884 27.6179C73.2884 27.4796 73.2884 27.4796 73.2884 27.3413L74.5334 25.6813C74.6717 25.5429 74.81 25.5429 74.81 25.6813C75.5017 26.3729 76.47 26.7879 77.715 26.7879C78.4067 26.7879 79.0984 26.6496 79.0984 25.9579C79.0984 25.4046 78.545 25.2663 76.885 24.9896C75.3634 24.7129 73.565 24.0213 73.565 21.8079C73.565 19.7329 75.0867 18.6263 77.715 18.6263C79.375 18.6263 80.62 19.1796 81.5884 20.0096C81.7267 20.1479 81.7267 20.2863 81.5884 20.2863L80.3433 21.8079C80.205 21.9463 80.0667 21.9463 80.0667 21.8079C79.5134 21.2546 78.545 20.9779 77.5767 20.9779C76.7467 20.9779 76.3317 21.2546 76.3317 21.6696C76.3317 22.2229 76.885 22.2229 78.6834 22.6379C80.3434 23.0529 81.865 23.7446 81.865 25.8196ZM67.0634 18.6263C69.9684 18.6263 71.3517 19.8713 71.3517 22.6379V28.5863C71.3517 28.7246 71.2134 28.8629 71.075 28.8629H69C68.8617 28.8629 68.7234 28.7246 68.7234 28.5863V27.4796C68.17 28.3096 67.2017 29.0013 65.68 29.0013C63.7434 29.0013 62.36 27.7563 62.36 25.8196C62.36 24.0213 63.7434 22.9146 65.5417 22.6379L68.3084 22.3613C68.7234 22.3613 68.8617 22.2229 68.8617 21.9463V21.8079C68.8617 21.2546 68.3084 20.8396 67.0634 20.8396C66.095 20.8396 65.1267 21.1163 64.7117 21.9463C64.7117 22.0846 64.5734 22.0846 64.435 21.9463L62.9134 20.8396C62.775 20.8396 62.775 20.7013 62.9134 20.5629C63.3284 19.3179 64.9884 18.6263 67.0634 18.6263ZM68.7234 24.8513V24.4363L66.2334 24.7129C65.4034 24.8513 64.9884 25.2663 64.9884 25.8196C64.9884 26.5113 65.5417 26.9263 66.3717 26.9263C67.8934 26.9263 68.7234 25.9579 68.7234 24.8513ZM60.5617 15.0296V28.5863C60.5617 28.7246 60.4234 28.8629 60.285 28.8629H58.0717C57.9334 28.8629 57.795 28.7246 57.795 28.5863V15.0296C57.795 14.8913 57.9334 14.7529 58.0717 14.7529H60.285C60.4234 14.8913 60.5617 15.0296 60.5617 15.0296ZM55.4434 18.9029C55.5817 18.9029 55.72 19.0413 55.72 19.1796V28.3096C55.72 30.9379 54.475 33.2896 50.325 33.2896C48.3884 33.2896 47.1434 32.7363 46.0367 31.9063C45.8984 31.9063 45.8984 31.7679 46.0367 31.4913L47.005 29.8313C47.005 29.6929 47.2817 29.6929 47.2817 29.8313C48.1117 30.5229 48.9417 30.9379 50.0484 30.9379C52.2617 30.9379 52.9534 29.8313 52.9534 28.3096V27.6179C52.2617 28.5863 51.155 29.1396 49.7717 29.1396C47.1434 29.1396 45.0684 27.3413 45.0684 24.0213C45.0684 20.7013 47.1434 18.7646 49.6334 18.7646C51.155 18.7646 52.2617 19.4563 52.815 20.4246V19.3179C52.815 19.1796 52.9534 19.0413 53.0917 19.0413L55.4434 18.9029ZM50.6017 26.5113C52.1234 26.5113 53.23 25.4046 53.23 23.8829C53.23 22.2229 52.1234 21.2546 50.6017 21.2546C49.08 21.2546 47.9734 22.3613 47.9734 23.8829C47.9734 25.5429 49.08 26.5113 50.6017 26.5113Z" fill="#0DAB40"/>
<path fill-rule="evenodd" clip-rule="evenodd" d="M25.5633 37.8549H1.07827C1.07827 41.3133 3.84494 43.9416 7.16494 43.9416H25.5633C28.8833 43.9416 31.6499 41.1749 31.6499 37.8549V12.6783C31.6499 12.5399 31.5116 12.4016 31.3733 12.4016H25.7016C25.5633 12.4016 25.4249 12.5399 25.4249 12.6783V37.8549H25.5633ZM25.5633 0.919922C28.8833 0.919922 31.6499 3.68659 31.6499 7.14492H7.16494V32.4599C7.16494 32.5983 7.02661 32.7366 6.88828 32.7366H1.21661C1.07827 32.7366 0.939941 32.5983 0.939941 32.4599V7.14492C0.939941 3.68659 3.70661 0.919922 7.02661 0.919922H25.5633Z" fill="#0DAB40"/>
</svg>
