<svg width="295" height="151" viewBox="0 0 295 151" fill="none" xmlns="http://www.w3.org/2000/svg">
<path d="M4.52677 50.6474L2 3.68596V2.90327L27.2677 2.38148H160.766L288.789 1.33789L293 66.5621L290.473 148.484L250.045 150.049L66.0116 150.832L6.63242 150.049L4.52677 118.22V50.6474Z" fill="white"/>
<path d="M292.399 31.9888C292.103 26.4935 291.731 20.9982 291.306 15.5045C291.098 12.7845 290.881 10.0662 290.633 7.34617C290.509 5.99873 290.372 4.65129 290.208 3.30386C290.12 2.59662 290.102 1.87262 289.903 1.16874C289.837 0.937464 289.677 0.803391 289.509 0.6844C289.677 0.431337 289.465 0.186653 288.579 0.166542C288.057 0.154811 287.495 0.340838 287.283 0.540272C273.738 0.17157 260.247 0.434689 246.658 0.510105C226.209 0.622391 205.759 0.649207 185.31 0.681049C141.317 0.753113 97.3281 0.754789 53.3352 0.950871C36.0062 1.02796 18.3011 0.882159 1.10047 1.78213C0.582598 1.80894 -0.209715 2.21284 0.051436 2.38043C2.62754 21.8663 1.52097 41.4058 1.459 60.9118C1.39703 80.225 1.18457 99.54 1.86179 118.852C2.22032 129.167 2.89312 139.445 5.55775 149.715C5.35857 149.827 5.28775 149.945 5.633 149.985C14.4723 151.007 24.7059 150.801 33.8329 150.888C52.0825 151.064 70.3587 150.991 88.6128 150.942C134.567 150.816 180.516 150.446 226.456 150.027C237.739 149.925 249.039 149.876 260.313 149.678C269.803 149.512 279.244 149.038 288.686 148.658C288.69 148.666 288.695 148.676 288.699 148.685C288.92 149.068 290.452 148.515 290.558 148.344C293.351 143.866 292.506 139.014 292.776 134.434C293.05 129.722 293.271 125.007 293.448 120.293C293.811 110.562 293.984 100.83 294.006 91.0984C294.05 71.393 293.457 51.6875 292.399 31.9888ZM266.373 147.811C256.635 147.791 246.884 147.952 237.15 148.044C214.412 148.259 191.675 148.45 168.937 148.619C126.559 148.934 84.1732 149.223 41.7826 149.313C30.0927 149.338 18.3365 149.546 6.65105 149.46C7.40352 130.63 5.82776 111.788 5.73038 92.9536C5.62857 73.5465 5.67726 54.1394 5.52234 34.7323C5.43824 23.9863 5.72595 13.1264 1.8795 2.4592C16.2827 2.56143 30.7257 2.32512 45.1333 2.26982C65.8616 2.18937 86.5899 2.24468 107.318 2.26814C150.886 2.31507 194.454 2.50947 238.022 2.31004C254.444 2.23462 271.034 2.39383 287.198 1.19555C287.973 20.4049 288.774 39.6394 289.221 58.8605C289.677 78.4352 289.806 98.0132 289.168 117.588C288.996 122.854 288.77 128.118 288.478 133.382C288.332 136.016 288.168 138.651 287.991 141.285C287.831 143.61 287.367 145.919 288.469 148.207C281.112 148.064 273.734 147.826 266.373 147.811Z" fill="black"/>
</svg>
