<svg width="72" height="69" viewBox="0 0 72 69" fill="none" xmlns="http://www.w3.org/2000/svg">
<path d="M6.6958 1C8.28028 18.4293 10 36.6431 10 55.6431" stroke="#FF7020" stroke-linecap="round" stroke-linejoin="round"/>
<path d="M2.50012 7.18604C6.50012 4.68604 9.48779 4.08535 15.0001 7.18604C26.3326 13.5606 29.1569 2.64307 39.5001 2.64307" stroke="#FF7020" stroke-linecap="round" stroke-linejoin="round"/>
<path d="M5.00012 23.1861C9.50012 20.4274 12.855 19.033 18.5001 23.1861C27.4622 29.7794 31.0937 20.7139 39.0001 18.6431" stroke="#FF7020" stroke-linecap="round" stroke-linejoin="round"/>
<path d="M38.5001 1.64307C38.5001 12.8111 38.5001 10.5836 38.5001 20.1431" stroke="#FF7020" stroke-linecap="round" stroke-linejoin="round"/>
<path d="M1 56.3291C13.2322 56.3291 39.2426 56.3291 39.2426 56.3291" stroke="#FF7020" stroke-linecap="round" stroke-linejoin="round"/>
<path d="M37.6153 55.1089C37.6151 59.9909 37.2084 65.2798 38.8358 66.9071C40.3631 68.4345 45.9507 68.1842 47.3793 68.1506C54.5129 67.9828 59.9911 68.1506 71.3825 68.1506" stroke="#FF7020" stroke-linecap="round" stroke-linejoin="round"/>
<path d="M51.7663 66.2455C54.7717 67.9663 61.8276 68.8312 63.5617 65.1186C66.329 59.194 62.4275 54.0102 56.2026 53.1453C50.2258 52.3148 47.1709 58.9973 50.1795 63.6775C52.5354 67.3423 58.8308 67.7714 63.5617 64.25" stroke="#FF7020" stroke-linecap="round" stroke-linejoin="round"/>
</svg>
