<svg xmlns="http://www.w3.org/2000/svg" width="80" height="80" fill="none" viewBox="0 0 80 80">
  <path stroke="#FEDF76" stroke-linecap="round" stroke-linejoin="round" stroke-width="2" d="M8.637 47.103c8.223-6.03 12.993-8.978 20.833-14.802M47.013 49.022c4.301-3.204 17.655-12.386 21.93-15.624M47.013 73.144c4.301-3.204 17.655-12.386 21.93-15.625M30.018 32.3c3.276.098 9.26.329 15.899.554m23.574.292c-3.97 0-9.03.146-14.254 0M47.562 48.2c6.03 2.466 8.223 3.289 14.254 5.482M68.394 33.398c3.838 3.018 5.482 4.662 9.32 7.403M3.429 55.874c2.167-3.537 4.223-7.201 6.853-10.416M3.977 55.875c16.725.534 21.93.504 38.65.825"/>
  <path stroke="#FEDF76" stroke-linecap="round" stroke-linejoin="round" stroke-width="2" d="M43.175 46.006c1.353-3.382 5.215-11.514 2.742-13.706-3.173-2.81-12.125-6.387-12.61-10.964-.98-9.25 14.405-17.207 18.64-15.351 6.579 2.883-8.64 7.151-9.868 12.06-3.627 4.737 10.978 8.962 12.457 12.61 1.926 4.75-5.098 11.598-6.975 15.351M21.794 45.459c.669-1.012 2.254-5.057 3.838-7.128 1.157 2.071 3.015 5.757 4.386 7.127M31.114 45.459c.285-.44 3.411-5.453 6.03-7.676 2.193 2.741 3.161 8.136 3.838 9.32M10.281 46.007c7.286.215 27.96 1.096 39.473 1.096M47.013 47.651c-1.644 3.838-2.74 5.211-4.386 9.049M11.378 56.972v15.624M11.378 72.87h35.635M47.562 48.2v24.67M68.942 48.2c-.233 9.662 0 2.74 0 9.32M62.364 53.682c5.101-4.227 10.399-8.208 15.35-12.61"/>
</svg>
