<svg xmlns="http://www.w3.org/2000/svg" width="80" height="80" fill="none" viewBox="0 0 80 80">
  <path stroke="#00ADE4" stroke-width="2" d="M63.575 11.429H18.432c-2.857 0-5.041 1.2-5.714 5.143-.585 3.428-1.664 18.285-2.299 24-.571 5.142.572 9.714 5.727 9.714h49.13c6.274 0 6.858-3.429 6.286-9.714-.571-6.286-1.936-22.32-2.272-24-.572-2.858 0-5.143-5.715-5.143z"/>
  <path stroke="#00ADE4" stroke-linecap="round" stroke-linejoin="round" stroke-width="2" d="M10.857 41.143h60M35.426 51.429V60c-14.283 0-23.998 3.44-4.322 3.44 5.305.162 11.449 0 19.179 0 17.145 0 14.581-3.44-3.173-3.44V51.43"/>
  <path fill="#222" stroke="#00ADE4" stroke-linecap="round" stroke-linejoin="round" stroke-width="2" d="M59.428 24.571s2.858-7.094 6.858-8c-4-.313-5.992-5.832-6.858-8.571-.637 3.032-2.857 8.238-6.857 8.238 4.572 0 6.857 8.333 6.857 8.333z"/>
</svg>
