<svg xmlns="http://www.w3.org/2000/svg" width="89" height="87" fill="none" viewBox="0 0 89 87">
  <path stroke="#4DC952" stroke-linecap="round" stroke-linejoin="round" stroke-width="2" d="M29.941 44.044c3.55 10.902 22.71 1.449 17.857-5.021-5.198-6.932-25.689.418-15.032 8.41"/>
  <path stroke="#4DC952" stroke-linecap="round" stroke-linejoin="round" stroke-width="2" d="M45.283 46.236c8.102 11.072 10.29 25.823 9.452 23.494-4.59-7.561-7.49-11.982-8.641-14.583-1.613-3.642 7.291 24.035 7.291 30.246-2.52-5.85-11.61-16.635-14.85-17.283-3.241-.648-11.255 10.892-15.666 17.283l6.213-32.136c-6.93-3.42-13.988-8.804-11.612-10.532 2.377-1.729 11.79-3.691 17.28-5.131-6.75 3.78-11.61 5.239-10.53 6.751 1.08 1.512 5.304 3.42 9.445 4.32M60.13 38.134c4.216 8.529 6.518 18.431 11.74 5.77C75.492 35.115 80.807 25.354 88 19"/>
  <circle cx="69.05" cy="42.725" r="17.904" stroke="#4DC952" stroke-width="2"/>
</svg>
