<svg xmlns="http://www.w3.org/2000/svg" width="80" height="80" fill="none" viewBox="0 0 80 80">
  <path stroke="#B1BEFF" stroke-linecap="round" stroke-linejoin="round" stroke-width="2" d="M24.154 33.247c-2.143-.529-5.07-2.052-5.964-4.104-2.199-5.329 2.347-8.552 4.464-9.258 4.517-1.505 12.283.618 11.219 6.616-.821 4.629-4.97 7.92-9.72 6.746zM48.635 42.545c-10.5 13.859-23.156 8.313-32.612 1.948 0 0 1.889 19.507 27.17 13.222l-4.432 14.857M60.476 42.857c1.142 9.715 2.285 23.429 3.428 32.572M18.19 30.857c-1.608 6.858-3.429 12-1.037 14.286M19.995 37.574c.111 1.488-.25 4.87 1.762 5.34 1.994.465 8.361-.38 10.147-1.2 1.765-.81-9.143.121-8-4.14M34.761 39.429c4 1.714 4.123-.572.572-.572-2.163 0-3.151-.217-4-1.755-.923-1.673-.923-2.334-.923-2.841M30.647 33.143c0 3.933-.202 13.785 0 17.714M16.906 50.857c-3.048 5.288 3.699 8.572 9.716 8.572M35.396 11.541c.572-1.143 2.276-1.143 4.563 1.714 1.723-3.428 4.009-3.428 4.58-2.285 1.143 2.285-2.488 5.904-4.018 8-2.286-1.715-5.697-5.715-5.125-7.429zM43.193 30.286c-.618 7.247 5.443 7.993 10.852 5.686"/>
  <path stroke="#B1BEFF" stroke-linecap="round" stroke-linejoin="round" stroke-width="2" d="M22.761 20c.337-.806 2.04-2.253 1.336-3.153-1.074-1.37-3.983-.16-4.761.921-.915 1.271 1.088-.088 1.355-.368.66-.693.723-1.611.927-2.543.257-1.169-.874-1.698-1.714-2.286M26.516 27.597c.584 1.32 1.054 2.171 2.456 2.723 1.112.438 1.96.227 2.957-.317"/>
  <circle cx="52.908" cy="33.142" r="10.429" stroke="#B1BEFF" stroke-width="2"/>
</svg>
