<svg xmlns="http://www.w3.org/2000/svg" width="80" height="80" fill="none" viewBox="0 0 80 80">
  <path stroke="#2898FF" stroke-linecap="round" stroke-linejoin="round" stroke-width="2" d="M34.49 44.935c-2.614 3.919-5.359 7.878-8.205 12.207M53.918 71.22H17.143c1.294-1.942 1.82-3.064 3.428-5.506M34.49 44.865h31.224M66.285 44.571c-4.994 9.567-8.938 19.793-12.367 26.65M30.49 50.65c13.842.157 18.517 0 32.366 0M56.204 66.65h15.428l-4.776-21.507M35.429 56h18.023M38.185 61.143h13.243"/>
  <g>
    <path stroke="#2898FF" stroke-linecap="round" stroke-linejoin="round" d="M17.86 11.556c-10.546 8.01-6.753 26.24-.404 30.643 7.25 3.858 16.2-4.122 14.183-9.83-2.018-5.707-10.3-4.92-12.982 5.66"/>
    <path stroke="#2898FF" stroke-linecap="round" stroke-linejoin="round" stroke-width="2" d="M16.039 7.92c-16.84 12.909-5.07 46.204 11.045 37.297C48.57 33.34 23.178 14.492 16.5 33.441"/>
    <path stroke="#2898FF" stroke-linecap="round" stroke-linejoin="round" d="M18.018 46.817c-.156 3.587.268 14.897 13.107 18.91"/>
    <path stroke="#2898FF" stroke-linecap="round" stroke-linejoin="round" stroke-width="2" d="M14.463 44.328c-3.035 10.53 5.124 23.82 14.108 26.53M32.956 61.486c-1.099 2.892-4.156 11.63-2.823 8.84M32.801 61.389c2.344 2.43 6.16 5.314 9.1 9.09M29.714 71.123h11.88"/>
    <path stroke="#2898FF" stroke-linecap="round" stroke-linejoin="round" stroke-width="2" d="M38.785 67.267c-.588 1.008-.821 2.174-.8 3.347.21-.965 2.768.102 2.797-.274.014-.193-2.034-1.949-2.262-1.868-.415.147-.306 1.367-.328 1.708M21.376 47.234c.116 6.38 4.372 12.367 10.782 13.847M21.232 39.26c7.409-13.857 8.759-.957 1.288.614-9.402.649-8.994-20.9-3.147-24.037"/>
  </g>
</svg>
