<svg xmlns="http://www.w3.org/2000/svg" width="81" height="80" fill="none" viewBox="0 0 81 80">
  <path stroke="#FFA86B" stroke-linecap="round" stroke-linejoin="round" stroke-width="2" d="M10.941 46.25c7.216-4.976 11.197-7.465 19.16-12.938M45.776 47.992c3.905-2.908 16.026-11.243 19.906-14.182M45.776 69.888c3.905-2.909 16.026-11.244 19.906-14.183"/>
  <path stroke="#FFA86B" stroke-linecap="round" stroke-linejoin="round" stroke-width="2" d="M12.434 45.255c6.614.195 25.38.995 35.83.995M30.1 33.316c2.974.088 25.877 0 34.336 0M46.274 47.245c5.474 2.24 7.465 2.986 12.939 4.976M65.183 33.81c3.483 2.74 4.976 4.232 8.46 6.72M6.214 54.212c1.967-3.211 3.833-6.537 6.22-9.455M6.712 54.212c15.182.484 19.906.457 35.083.749M45.776 46.748c-1.492 3.483-2.488 4.73-3.98 8.214M13.43 55.207v14.182M30.1 33.81v10.947M13.43 69.639h32.346M46.274 47.245v22.393M65.68 47.245c-.211 8.771 0 2.488 0 8.46M59.709 52.222c4.63-3.837 9.438-7.45 13.933-11.446M22.452 44.94c6.473-8.606.304-19.17-8.348-19.588-1.964-.095-8.262 1.744-7.353 5.03 1.617 5.844 10.259-4.637-.537-10.283"/>
  <g>
    <circle cx="59.273" cy="18.942" r="8.343" fill="#222" stroke="#FFA86B"/>
    <path stroke="#FFA86B" stroke-linecap="round" stroke-linejoin="round" stroke-width="2" d="M65.607 25.996c-7.183 4.422-13.396 1.106-14.923-4.974-2.347-9.352 12.16-15.475 17.685-6.632 1.628 3.392 1.109 8.843-2.762 11.606z"/>
    <path stroke="#FFA86B" stroke-linecap="round" stroke-linejoin="round" stroke-width="2" d="M53.448 24.89s2.498-3.783 3.316-3.315c3.87 2.21 6.08-.46 3.317-3.317-4.212-4.354 2.21-5.526 4.421-2.21l3.316-2.764"/>
  </g>
  <g>
    <path fill="#222" stroke="#FFA86B" d="M43.674 27.101a7.426 7.426 0 11-4.305 14.215A7.426 7.426 0 0143.674 27.1z"/>
    <path stroke="#FFA86B" stroke-linecap="round" stroke-linejoin="round" stroke-width="2" d="M49.218 30.607c1.927 7.31-2.532 11.78-8.143 11.509-8.632-.416-10.116-14.45-1.096-16.893 3.333-.515 7.874 1.346 9.24 5.384z"/>
    <path stroke="#FFA86B" stroke-linecap="round" stroke-linejoin="round" stroke-width="2" d="M45.111 40.75s-2.596-3.125-1.983-3.706c2.902-2.744 1.185-5.334-1.983-3.706-4.829 2.482-4.167-3.332-.748-4.367l-1.509-3.562"/>
  </g>
  <g>
    <circle cx="26.143" cy="16.465" r="7.426" fill="#222" stroke="#FFA86B" transform="rotate(-53.523 26.143 16.465)"/>
    <path stroke="#FFA86B" stroke-linecap="round" stroke-linejoin="round" stroke-width="2" d="M34.602 15.659c-.641 7.532-6.342 10.243-11.536 8.104-7.991-3.292-4.674-17.01 4.643-16.28 3.312.635 6.964 3.913 6.893 8.175z"/>
    <path stroke="#FFA86B" stroke-linecap="round" stroke-linejoin="round" stroke-width="2" d="M27.327 23.833s-1.396-3.816-.623-4.157c3.654-1.61 2.908-4.626-.623-4.157-5.382.716-2.805-4.538.762-4.364l-.224-3.863"/>
  </g>
</svg>
