<svg xmlns="http://www.w3.org/2000/svg" width="80" height="80" fill="none" viewBox="0 0 80 80">
  <path stroke="#AE68F3" stroke-linecap="round" stroke-linejoin="round" stroke-width="2" d="M51.534 27.348c4.956-7.16 13.732-.067 12.116 5.507-1.398 4.823-8.364 8.315-13.218 1.928M50.852 31.309c1.652 1.652 6.333 3.304 9.913 0"/>
  <path stroke="#AE68F3" stroke-linecap="round" stroke-linejoin="round" stroke-width="2" d="M29.348 46.349c2.902 2.298 6.334 4.46 10.345 6.333 2.334 1.09 5.209-2.937 7.565-8.812m-17.91 2.479a44.91 44.91 0 01-3.975-3.544m3.975 3.544l-3.975-3.544m0 0c-16.374-16.475-8.877-35.82 6.434-9.058 0-13.56 7.06-24.85 16.922-20.488 4.533 2.853 3.386 15.215.344 25.38M45.82 26.019c-3.427-2.287-6.8-4.585-10.419-6.551M42.134 28.237c-2.722-1.622-5.455-3.243-8.275-4.691M38.366 31.002c-1.9-1.337-3.902-2.52-5.794-3.86"/>
  <g>
    <path stroke="#AE68F3" stroke-linecap="round" stroke-linejoin="round" stroke-width="2" d="M25.098 42.769c-1.142.354 11.84-.187 10.74.275 0 1.102-4.897 2.341-6.651 3.121M50.983 37.812c-13.417 5.402-20.01 8.888-15.34 8.42 4.643-.463 9.135-2.172 13.786-2.8.383-.052.843-.177.16-.04"/>
    <path stroke="#AE68F3" stroke-linecap="round" stroke-linejoin="round" stroke-width="2" d="M54.288 38.087c-1.655 8.204 3.028 20.365 4.858 28.364 1.649 7.207-12.227-11.058-18.451-10.19-11.841 1.653-14.87 6.885-20.102 9.088-2.762 1.163 7.894-12.025 11.29-16.247"/>
  </g>
</svg>
