<svg xmlns="http://www.w3.org/2000/svg" width="81" height="83" fill="none" viewBox="0 0 81 83">
  <g filter="url(#filter0_d)">
    <path stroke="#00ADE4" stroke-linecap="round" stroke-linejoin="round" stroke-width="2" d="M45.15 48.93c-5.652 3.214-21.3-1.307-25.767 4.244 6.951-.162 18.563.152 20.115 3.256 1.552 3.104-7.667 12.75-13.81 17.114M53.722 73.573V50M53.722 56.43c3.75-6.965 7.206-9.108 22.206-9.108M6.413 11.429c0 6.665-1.031 12.16 1.61 16.494 1.917 3.148 4.166 3.576 8.61 3.576h11.954M6.372 11.429h25.37M28.9 31.543c1.73 2.361 2.78 5.58 7.509 8.665 0 0-4.718-7.549-4.718-11.795M31.74 11.429c0 6.665-.051 10.763-.05 16.984M11.185 17.021H26.1m-12.825 4.35H26.1m-9.492 4.35H26.1"/>
    <path stroke="#00ADE4" stroke-width="2" d="M59.687 40.894a9.179 9.179 0 11-18.358 0 9.179 9.179 0 0118.358 0z"/>
    <g>
      <path stroke="#00ADE4" stroke-linecap="round" stroke-linejoin="round" stroke-width="2" d="M41.333 40.79c-.478-.55-.475-.3-.527.305-.097 1.154.053 2.264.697 3.29.364.579 1.008 1.335 1.75 1.576.634.206-.14-2.184-.201-2.37-.35-1.07-.841-2.576-1.789-3.36-1.034-.856-1.434 1.065-1.479 1.631-.112 1.423.586 2.67 1.742 3.615.4.326 1.212 1.134 1.48.54"/>
      <path stroke="#00ADE4" stroke-linecap="round" stroke-linejoin="round" stroke-width="2" d="M41.48 43.2c-1.685-2.117-2.08-4.674-1.406-7.285.962-3.731 3.784-6.587 7.63-7.19 3.39-.531 6.639.753 8.752 3.427.61.774 1.212 1.566 1.942 2.236.128.117.349.345.483.345M53.296 43.828c.35-.062 2.503-.832.386-1.632-.858-.324-1.477-.062-1.852.276-.207.187-1.016 1.38.269 1.859 1.026.382 2.686-1.033 1.458-2.216-.591-.568-1.244.445-.528 1.069"/>
      <path stroke="#00ADE4" stroke-linecap="round" stroke-linejoin="round" stroke-width="2" d="M52.59 43.044c2.194.02 6.197.282 6.706-2.64.093-.536-.107-2.719-1.036-2.486"/>
      <path stroke="#00ADE4" stroke-linecap="round" stroke-linejoin="round" stroke-width="2" d="M58.2 35.393c-.243 1.01-.415 2.13.164 3.066.29.467 1.312 1.981 2.095 1.441.795-.548.311-2.508.123-3.185-.314-1.136-1.086-2.39-2.272-2.856-1.091-.427-1.124 1.608-1.137 2.168-.028 1.225.407 2.391 1.493 3.093 1.328.86 1.299-.914.89-1.705"/>
    </g>
  </g>
  <defs>
    <filter id="filter0_d" width="88" height="88" x="-3.5" y="0" color-interpolation-filters="sRGB" filterUnits="userSpaceOnUse">
      <feFlood flood-opacity="0" result="BackgroundImageFix"/>
      <feColorMatrix in="SourceAlpha" values="0 0 0 0 0 0 0 0 0 0 0 0 0 0 0 0 0 0 127 0"/>
      <feOffset dy="4"/>
      <feGaussianBlur stdDeviation="2"/>
      <feColorMatrix values="0 0 0 0 0 0 0 0 0 0 0 0 0 0 0 0 0 0 0.25 0"/>
      <feBlend in2="BackgroundImageFix" result="effect1_dropShadow"/>
      <feBlend in="SourceGraphic" in2="effect1_dropShadow" result="shape"/>
    </filter>
  </defs>
</svg>
