<svg xmlns="http://www.w3.org/2000/svg" width="80" height="80" fill="none" viewBox="0 0 80 80">
  <path stroke="#FFB0F7" stroke-linecap="round" stroke-linejoin="round" stroke-width="2" d="M27.545 11.424c-2.68.999-5.163 3.388-2.952 6.23 2.613 3.36 6.206-.677 6.78-3.39 1.485-7.02-12.838-.437-6.14 3.39"/>
  <path stroke="#FFB0F7" stroke-linecap="round" stroke-linejoin="round" stroke-width="2" d="M25.583 18.51c-.915 0-12.616.24-12.616 1.337 1.522 1.217 9.735.697 11.556.711 1.965.015-5.333 8-2.667 9.245 2.311.652 6.685 2.026 5.69 2.311-.996.284-6.104 4.03-8.534 5.867 5.392-1.482 16-4.73 15.289-5.867-.711-1.138-3.615-3.082-4.978-3.911 3.2-4.208 5.511-15.29 4.978-19.912-.382-3.306-2.046 8.083-5.334 9.6M44.325 45.43c-1.361 1.873-1.207 3.83 1.442 4.219 2.323.34 7.096-1.97 6.633-4.899-.221-1.404-2.832-1.39-3.83-1.428-1.716-.066-3.513.238-4.752 1.535-2.41 2.523.877 4.104 2.91 4.658"/>
  <path stroke="#FFB0F7" stroke-linecap="round" stroke-linejoin="round" stroke-width="2" d="M44.566 49.275c-5.11 3.635-7.599.79-10.265-2.41.889 3.734 2.844 8.711 11.707 6.734M46.39 53.266c-1.6 4.977-8.053 6.934-6.934 14.4 2.934-3.26 6.756-8.889 11.378-9.778 4.621-.89 20.843 6.652 15.645 3.378-9.597-6.045-11.2-10.667-11.2-10.667 3.912-.355 6.057-6.89 11.732-6.222-4.41-2.206-11.146 5.074-15.29 2.311M15.445 42.174c-1.254.796-2.651 2.88-1.041 4.218 2.367 1.966 6.304-.198 7.795-2.242 2.158-2.96-3.069-3.433-4.965-3.017-2.474.543-2.661 2.683-1.789 4.645"/>
  <path stroke="#FFB0F7" stroke-linecap="round" stroke-linejoin="round" stroke-width="2" d="M20.612 59.687c-.54-.54-2.962-.181-3.45 0L15.28 72.825c-2.674-7.426-2.667-15.467-4.623-22.4l-3.733-12.09c1.66 3.556 6.293 10.348 11.556 9.068 5.262-1.28 11.2-4.326 13.51-5.69-2.488 3.379-9.777 7.468-9.777 9.956 0 3.269 2.279 4.445 2.667 6.578.614 3.378-4.267 7.467-6.4 8.178.505-1.891 3.893-4.978 2.133-6.738zM6.923 30.726c2.656.806 5.54 1.882 8.409 2.883M10.526 23.758c1.149 1.554 2.647 3.871 3.714 4.938M39.237 36.868c1.518-2.074 2.985-4.186 4.805-6.007M42.36 38.31c.827-.374 1.612-.77 2.403-1.202"/>
  <g>
    <path stroke="#FFB0F7" stroke-linecap="round" stroke-linejoin="round" stroke-width="2" d="M55.235 14.324c-1.178 1.284-2.001 3.444.297 4.624 1.877.964 4.288-.242 5.13-1.956 1.81-3.687-5.657-5-6.598-.843"/>
    <path stroke="#FFB0F7" stroke-linecap="round" stroke-linejoin="round" stroke-width="2" d="M54.732 18.766c-4.82 7.294-3.981 14.093-4.297 18.981-.1 1.54 3.392-8.854 3.733-10.359 0 0 .782 2.182 4.188 4.047 3.405 1.865 11.036-.6 10.203-.789-1.04-.236-6.696 1.4-9.536-2.159-2.272-2.847-1.333-4.312-.422-5.381l10.455-1.097-10.38-3.261M64.168 14.499a240.426 240.426 0 004.8-3.541M64.524 16.549c2.133-.613 5.333-1.502 8.553-2.232"/>
  </g>
</svg>
