<svg xmlns="http://www.w3.org/2000/svg" width="80" height="80" fill="none" viewBox="0 0 80 80">
  <path stroke="#B1BEFF" stroke-linecap="round" stroke-linejoin="round" stroke-width="2" d="M50.81 44.45c.68-1.467 1.234-2.42 2.464-2.103 4.311 1.752-.924 13.672-6.83 11.218m4.366-9.115c-5.696 5.004-10.778 5.405-17.863 3.506-3.867-1.036-1.85 5.26 1.846 7.362C44.958 61.1 47.33 51.957 50.81 44.45zM45.714 30.32c1.102-1.896 2.143-3.867 3.384-5.647M50.988 29.715c2.309-1.115 4.583-2.411 7.031-3.026M40.282 36.836c-4.097 0-13.996 1.522-13.996-5.967 0-2.978 1.137-5.726 3-5.726 3.112 0 .567 8.958 10.996 11.693zm0 0c.976.4 1.615 2.049-.901 2.812-4.444 1.348-5.764-1.527-7.43-2.812M17.143 18.856c0 19.19.248 31.26 2.197 41.847M19.34 61.208c16.26 2.52 28.565 3.025 47.022 1.008M65.484 17.849c-2.724 14.117-1.846 34.846 0 43.863M17.143 18.856h47.46M17.143 17.943c.44-.091 3.516-3.11 5.713-7.657 4.834 5.556 7.47 6.648 10.107 7.657 0 0 4.834-4.622 7.471-7.657 3.076 5.042 8.35 7.657 8.35 7.657s4.834-2.1 8.789-7.657c3.515 5.556 7.47 7.657 7.47 7.657"/>
  <path stroke="#B1BEFF" stroke-linecap="round" stroke-linejoin="round" stroke-width="2" d="M19.34 61.711c.44-.09.88 4.034 4.834 7.563l8.79-6.05s3.075 4.033 7.03 7.059c3.956-4.034 8.35-6.05 8.35-6.05s4.395 2.52 7.91 6.05c4.395-4.538 8.35-8.572 8.35-8.572"/>
</svg>
