<svg xmlns="http://www.w3.org/2000/svg" width="81" height="80" fill="none" viewBox="0 0 81 80">
  <path stroke="#4DC952" stroke-linecap="round" stroke-linejoin="round" stroke-width="2" d="M12.848 39.23c15.88-2.025 32.363-4.502 50.953-6.678"/>
  <path fill="#222" d="M35.238 58.727l-18.705-10.12 24.05-36.028 6.12 4.446 2.913-4.965 17.171 11.274-23.58 34.936-4.464-3.476-3.505 3.933z"/>
  <path stroke="#4DC952" stroke-linecap="round" stroke-linejoin="round" stroke-width="2" d="M35.273 59.046c-5.13-2.612-13.215-7.227-18.605-10.303M57.85 23.173c-5.39-3.076-12.49-7.023-17.88-10.1M16.75 48.395c7.667-11.938 13.877-21.53 23.01-35.08M35.736 58.786c7.952-13.011 13.29-20.892 22.113-35.613M34.214 32.175c-3.509 1.36-4.684 4.371-2.28 5.712 2.404 1.34 5.364-3.411 7.421-4.168 4.426-.814 2.45 7.62-3.233 8.37M29.588 33.283c4.8 2.456 9.67 4.604 14.278 6.288M43.227 57.923c-1.615-.896-2.988-1.892-5.015-3.098M67.045 22.86c-5.28-3.262-12.236-7.455-17.515-10.718M49.312 12.377c-1.09 1.501-2.141 2.953-3.16 4.364M43.7 57.678c8.402-12.724 14.014-20.414 23.346-34.817"/>
  <path fill="#222" d="M38.8 50.546c-8.337-3.193-25.118-9.685-25.544-10.111l3.193 26.608 51.088-4.79-3.725-28.736L38.8 50.546z"/>
  <path stroke="#4DC952" stroke-linecap="round" stroke-linejoin="round" stroke-width="2" d="M12.847 39.23c1.2 10.387 2.1 19.117 3.075 27.32M63.8 32.552c1.12 9.335 2.696 20.258 3.827 29.578M15.846 67.077c7.073-.698 44.712-4.211 51.78-4.947M12.771 39.757C25.413 45.33 58.981 58.743 67.1 62.055M15.846 67.078c6.625-4.965 37.716-26.853 47.878-33.999"/>
</svg>
