<svg xmlns="http://www.w3.org/2000/svg" width="80" height="80" fill="none" viewBox="0 0 80 80">
  <path stroke="#FFA86B" stroke-linecap="round" stroke-linejoin="round" stroke-width="2" d="M18.558 24.327c-.935 4.29-1.921 8.167 2.311 11.08 5.353 3.684 10.82.017 12.043-5.715 1.197-5.611-5.273-7.625-9.84-6.012-5.937 2.095-6.904 6.243-4.514 11.322M22.392 36.889c-2.9 3.83-5.494 7.977-8.482 11.712M28.574 35.749c1.604 3.62 5.463 10.218 7.43 13.66"/>
  <path stroke="#FFA86B" stroke-linecap="round" stroke-linejoin="round" stroke-width="2" d="M26.43 13.077c-4.536.21-14.185 2.822-17.5 10.801-9.794 23.566 19.274 34.596 32.235 21.635 3.826-3.826 5.892-9.304 5.16-14.719-.84-6.211-6.434-11.966-11.794-14.526-5.885-2.81-13.251-1.963-18.405.982-7.89 4.51-14.235 21.111-3.548 28.263"/>
  <path stroke="#FFA86B" stroke-linecap="round" stroke-linejoin="round" stroke-width="2" d="M42.638 43.762c2.665 3.287 22.584 20.374 19.392 22.83-3.675 2.826-21.6-18-22.584-19.148M48.774 23.387h24.303M50.493 29.358H65.73M52 35.013h8.557"/>
</svg>
