<svg width="81" height="68" viewBox="0 0 81 68" fill="none" xmlns="http://www.w3.org/2000/svg">
<path d="M45.8003 39.8872C41.5438 44.995 24.6198 38.7801 20.4512 43.9612C26.9393 43.8103 37.7761 44.1028 39.2246 46.9999C40.6731 49.8969 32.0695 58.899 26.3358 62.973" stroke="#0BC8D6" stroke-linecap="round" stroke-linejoin="round"/>
<path d="M53.9483 67.047C53.9483 59.1673 53.5678 46.8013 52.5903 38.9819" stroke="#0BC8D6" stroke-linecap="round" stroke-linejoin="round"/>
<path d="M39.9159 25C36.8505 29.7464 37.2221 37.8248 44.895 39.4347C52.0871 40.9436 57.2901 36.2896 57.5696 29.0233C57.7754 23.6719 52.5903 20.8755 47.611 20.8755C42.6317 20.8755 38.7984 25.8548 39.9157 33.0974" stroke="#0BC8D6" stroke-linecap="round" stroke-linejoin="round"/>
<path d="M53.2256 46C56.7256 39.5 59.2256 38.5 73.2256 38.5" stroke="#0BC8D6" stroke-linecap="round" stroke-linejoin="round"/>
<path d="M1.21065 1C1.20964 8.06398 0.117649 13.8871 2.91603 18.4802C4.94884 21.8167 7.33183 22.27 12.0411 22.27C16.2795 22.27 19.0729 22.27 24.7102 22.27" stroke="#0BC8D6" stroke-linecap="round" stroke-linejoin="round"/>
<path d="M1.16553 1C11.5702 1 17.2214 1 28.0528 1" stroke="#0BC8D6" stroke-linecap="round" stroke-linejoin="round"/>
<path d="M25.0415 22.3172C26.875 24.8193 28.9839 30.1336 33.9948 33.4022C33.9948 33.4022 29.6839 27.4334 28.3575 20.6118" stroke="#0BC8D6" stroke-linecap="round" stroke-linejoin="round"/>
<path d="M28.0532 1C28.0542 8.06398 28.052 10.4186 28.053 17.0117" stroke="#0BC8D6" stroke-linecap="round" stroke-linejoin="round"/>
<path d="M44.895 32.645C48.7231 35.5 53.7724 34.0291 52.8166 29.25" stroke="#0BC8D6" stroke-linecap="round" stroke-linejoin="round"/>
<path d="M4 6H24M8.125 10H24M12.25 14H24" stroke="#0BC8D6"/>
<path d="M59.2499 18.3205C60.1149 23.6486 65.3928 31.1969 70.6714 37.8571C74.629 30.7529 77.7078 25.8687 79.4501 19.2085C81.0224 13.1984 78.7686 5.00001 69.3516 5C63.1945 4.99999 57.7559 9.11889 59.2499 18.3205Z" stroke="#0BC8D6" stroke-linejoin="round"/>
<circle cx="69.4537" cy="12.4673" r="3.98052" stroke="#0BC8D6"/>
</svg>
