<svg xmlns="http://www.w3.org/2000/svg" width="80" height="80" fill="none" viewBox="0 0 80 80">
  <path stroke="#6AD5F8" stroke-linecap="round" stroke-linejoin="round" stroke-width="2" d="M52.676 31.588c-6.874-10.694-11.097-5.549-22.78-2.628-9.637 2.044-20.236-2.95-23.252-8.228-9.16-16.03 7.681-.168 1.055 8.228-2.2 2.786-.704 7.547 2.629 8.47 17.228 4.77 1.266 10.053 5.282 15.893 3.303 4.805 15.263.295 16.289 7.662.173 1.245-.177 2.606.755 3.61 1.151 1.24 3.083-4.385 3.083-8.181 0-12.851 4.38-4.09 11.098-7.01"/>
  <path stroke="#6AD5F8" stroke-linecap="round" stroke-linejoin="round" stroke-width="2" d="M51.63 23.496c-4.639 4.638 1.99 9.085 6.423 10.033 2.975.636 5.368.04 6.864-2.77 1.205-2.264 1.87-5.5.272-7.767-3.195-4.536-14.53-4.44-15.49 2.015-.825 5.534 6.125 7.677 10.243 7.934M52.677 31.588c-7.086 3.037-20.152 8.47-3.505 13.143M64.974 31.379c1.621.593 11.944 4.196 11.944 7.218-.544 2.174-4.53 4.813-6.134 6.134M48.985 45.032c-1.324 6.951-5.674 12.665-7.01 19.563-.313 1.61-.345 2.645 1.049 1.05 4.926-5.642 9.945-14.489 18.122-14.489 5.55.876 13.59 12.344 15.772 14.488L70.2 44.146"/>
  <path stroke="#6AD5F8" stroke-linecap="round" stroke-linejoin="round" stroke-width="2" d="M53.519 26.141c1.847 1.03 6.24 4.115 8.438 2.015.814-.777 1.437-3.608.252-3.904M50.118 36.72c-5.62 3.046-5.328 5.382-.947 7.427.585-2.337.947-5.257.947-7.427zM67.876 37.476c.2.492 1.912 7.295 2.617 6.963.704-.331 5.549-4.965-2.617-6.963zM62.315 38.598c-1.61-.655-6.059-2.539-7.432-.556-1.151 1.663 1.68 3.091 4.219 3.768 4.38 1.169 5.458 3.73 2.628 4.673-1.456.486-5.84.877-8.177-.584"/>
</svg>
