<svg xmlns="http://www.w3.org/2000/svg" width="80" height="80" fill="none" viewBox="0 0 80 80">
  <path stroke="#43B48B" stroke-linecap="round" stroke-linejoin="round" stroke-width="2" d="M32.158 21.666c-3.74-1.826-9.896-4.984-8.246-8.93 1.65-3.947 7.15 6.049 11 3.849 1.827-1.044-2.44-7.475 1.255-9.512 3.694-2.036 3.697 11.03 8.093 10.612 5.24-.5 9.348-10.612 13.749-7.699 1.648 2.75-3.852 7.699-8.25 13.198M32.16 22.084c4.4 4.95 14.848 2.75 17.598.695"/>
  <path stroke="#43B48B" stroke-linecap="round" stroke-linejoin="round" stroke-width="2" d="M32.16 22.634c-6.6 19.671-25.846 30.245-15.4 41.244 7.921 8.341 25.85 12.648 39.597 3.85 18.44-11.802-1.65-14.974-6.6-45.094"/>
  <path stroke="#43B48B" stroke-linecap="round" stroke-linejoin="round" stroke-width="2" d="M45.907 41.881c-2.79-6.438-10.998-4.95-12.098-1.65-1.65 4.95 8.8 8.25 10.45 12.099 2.748 8.249-11.419 8.284-17.048 1.65M32.16 63.328c2.75-9.348 6.6-18.147 10.586-29.196"/>
  <g>
    <path stroke="#43B48B" stroke-linecap="round" stroke-linejoin="round" stroke-width="2" d="M4.571 27.429c1.39.104 4.059 0 5.452 0M13.714 19.429c.001 1.795 0 2.938.002 4.652M17.143 27.429c1.66.083 3.267 0 4.908 0M13.695 30.754v4.674"/>
  </g>
  <g>
    <path stroke="#43B48B" stroke-linecap="round" stroke-linejoin="round" stroke-width="2" d="M58.286 38.858c1.39.103 4.058 0 5.451 0M67.429 30.857v4.653M70.857 38.857c1.66.084 3.268 0 4.909 0M67.41 42.184v4.674"/>
  </g>
</svg>
