<svg xmlns="http://www.w3.org/2000/svg" width="80" height="80" fill="none" viewBox="0 0 80 80">
  <path stroke="#FFB0F7" stroke-linecap="round" stroke-linejoin="round" stroke-width="2" d="M27.017 8.6c-2.918 1.088-5.62 3.689-3.214 6.782 2.844 3.657 6.755-.737 7.38-3.69 1.616-7.64-13.972-.476-6.682 3.69"/>
  <path stroke="#FFB0F7" stroke-linecap="round" stroke-linejoin="round" stroke-width="2" d="M24.881 16.314c-.996 0-13.73.26-13.73 1.455 1.656 1.325 10.594.759 12.577.774 2.138.016-5.805 8.707-2.903 10.061 2.516.71 7.276 2.206 6.192 2.516-1.083.31-6.643 4.386-9.287 6.385 5.869-1.612 17.414-5.147 16.64-6.385-.774-1.239-3.935-3.354-5.418-4.257 3.483-4.58 5.998-16.64 5.418-21.671-.415-3.598-2.227 8.797-5.805 10.448M45.28 45.614c-1.482 2.037-1.314 4.167 1.568 4.59 2.529.372 7.723-2.144 7.22-5.33-.241-1.529-3.082-1.513-4.17-1.555-1.866-.072-3.822.26-5.17 1.67-2.624 2.746.954 4.467 3.166 5.07"/>
  <path stroke="#FFB0F7" stroke-linecap="round" stroke-linejoin="round" stroke-width="2" d="M45.541 49.798c-5.561 3.956-8.27.86-11.172-2.622.967 4.063 3.095 9.48 12.741 7.329M47.526 54.141c-1.742 5.418-8.764 7.548-7.546 15.673 3.194-3.548 7.354-9.674 12.384-10.642 5.03-.967 22.685 7.24 17.027 3.676-10.445-6.578-12.19-11.609-12.19-11.609 4.259-.387 6.593-7.498 12.769-6.772-4.8-2.4-12.131 5.522-16.641 2.515M13.846 42.069c-1.365.865-2.886 3.134-1.133 4.59 2.576 2.14 6.862-.215 8.484-2.44 2.349-3.221-3.34-3.736-5.404-3.283-2.693.59-2.896 2.92-1.947 5.055"/>
  <path stroke="#FFB0F7" stroke-linecap="round" stroke-linejoin="round" stroke-width="2" d="M19.47 61.13c-.587-.588-3.224-.198-3.754 0l-2.05 14.299c-2.91-8.083-2.903-16.834-5.031-24.38L4.57 37.892c1.806 3.87 6.85 11.26 12.577 9.868 5.727-1.393 12.19-4.709 14.706-6.192-2.71 3.676-10.642 8.127-10.642 10.835 0 3.558 2.48 4.838 2.902 7.16.668 3.676-4.644 8.126-6.966 8.9.55-2.058 4.238-5.418 2.322-7.334zM4.571 29.608c2.89.878 6.03 2.049 9.152 3.138M8.493 22.025c1.25 1.692 2.88 4.214 4.042 5.375M39.742 36.293c1.652-2.257 3.249-4.556 5.23-6.537M43.141 37.862c.9-.407 1.755-.838 2.615-1.307"/>
  <g>
    <path stroke="#FFB0F7" stroke-linecap="round" stroke-linejoin="round" stroke-width="2" d="M57.152 11.757c-1.281 1.399-2.177 3.75.323 5.033 2.044 1.05 4.668-.263 5.584-2.128 1.97-4.013-6.157-5.441-7.181-.918"/>
    <path stroke="#FFB0F7" stroke-linecap="round" stroke-linejoin="round" stroke-width="2" d="M56.604 16.592c-5.246 7.939-4.332 15.338-4.676 20.658-.108 1.677 3.692-9.636 4.063-11.274 0 0 .85 2.375 4.557 4.404 3.707 2.03 12.012-.653 11.106-.858-1.132-.257-7.288 1.524-10.38-2.35-2.472-3.099-1.45-4.693-.459-5.857l11.38-1.193-11.298-3.55M66.876 11.948c2.128-1.532 2.902-2.113 5.224-3.854M67.263 14.178c2.322-.667 5.805-1.634 9.31-2.428"/>
  </g>
</svg>
