<svg xmlns="http://www.w3.org/2000/svg" width="80" height="80" fill="none" viewBox="0 0 80 80">
  <path stroke="#02BBA0" stroke-linecap="round" stroke-linejoin="round" stroke-width="2" d="M34.426 30.77c-20.406 21.153-.792 43.076 22.67 36.153m0 0c-11.539 4.231-19.463-.26-25.384-5-6.61-5.292-7.63-16.11-3.846-23.846 3.501-7.157 11.126-10.093 18.462-9.23 19.046 2.237 26.537 22.307 10.768 38.076zM35.173 30.385c-1.538 13.461 9.231 35 21.154 36.538M35.558 30.385c6.768 5.893 14.615 20 21.154 36.538M35.173 30c-1.647 2.152-14.23 36.923 21.539 36.923M35.942 30c5.77-2.308 30.77 18.846 21.154 36.538M25.55 44.862c11.546 1.676 23.854-4.478 28.854-12.94M27.096 55.769c13.846 7.308 36.154-4.615 34.616-18.846M38.635 66.539c14.02 1.282 23.077-7.693 26.923-15.77M59.789 26.539c-.714-2.007-5.205-15.458-1.157-15.77 4.512.315 6.435 6.854 4.69 13.695 1.608-4.076 4.236-11.156 7.62-10.233 4.231 1.154-2.692 13.077-5.384 14.615M72.865 16.54c6.923.384-1.988 10.918-7.307 12.691M54.963 24.785c3.829.896 8.672 3.676 12.902 6.369M12.866 64.616c.769-2.308 1.923-6.539 5.873-10.78M12.866 62.308c-2.106 0-9.122-1.808-9.758-4.82-.607-2.871 8.057-.342 8.988.589M12.373 58.05c-1.135-1.02-2.246-2.07-2.92-3.466-.405-.84-1.37-3.805.648-3.388 1.945.403 3.558 2.726 4.603 4.235.357.515.92 1.186 1.076 1.813"/>
  <path stroke="#02BBA0" stroke-linecap="round" stroke-linejoin="round" stroke-width="2" d="M12.481 52.693c.025-.878 1.216-4.326 2.562-2.93 1.409 1.46 1.006 5.243 1.006 7.033"/>
  <g>
    <path stroke="#02BBA0" stroke-linecap="round" stroke-linejoin="round" stroke-width="2" d="M17.481 30.385c1.539-.385 2.682-2.22 2.682-3.73M20.174 26.154c0 1.84.583 4.409 2.627 5.09M17.097 30.385c1.538.769 2.692 2.308 2.307 4.23M19.404 34.616c.65-1.262 1.154-3.077 3.462-3.462"/>
  </g>
  <path stroke="#02BBA0" stroke-linecap="round" stroke-linejoin="round" stroke-width="2" d="M69.02 44.615c2.692-.384 4.198-2.914 4.615-5M74.02 39.615c-.77 2.692 1.166 5.77 3.46 5.77M69.02 44.615c2.198.486 3.835 2.24 4.23 4.616M73.25 49.161c.375-2.041.77-3.392 4.23-3.776"/>
</svg>
