<svg xmlns="http://www.w3.org/2000/svg" width="80" height="80" fill="none" viewBox="0 0 80 80">
  <path stroke="#AE68F3" stroke-linecap="round" stroke-linejoin="round" stroke-width="2" d="M66.62 16.295c-7.688-4.325-23.454 2.989-24.986 10.57-1.765-7.581-15.844-15.27-25.466-10.57-20.661 10.09 11.613 55.737 25.466 55.737 12.493 0 40.843-45.166 24.986-55.737z"/>
  <path stroke="#AE68F3" stroke-linecap="round" stroke-linejoin="round" stroke-width="2" d="M8 42.722c8.649 0 15.204 1.043 16.337-1.348 1.13-2.387 1.038-8.81 1.922-13.067 2.402-4.324 3.348 11.62 3.844 17.14 1.441 16.049 4.346 6.247 5.285-.661.429-3.154.961-11.194 3.364-11.194 1.441 0 2.803 14.264 4.804 15.376.986.547 4.096-7.594 4.096-7.594 2.825-4.944 3.603 1.617 4.553 3.412 1.356 2.56 5.286 1.78 9.13 1.78h11.532"/>
</svg>
