<svg xmlns="http://www.w3.org/2000/svg" width="80" height="80" fill="none" viewBox="0 0 80 80">
  <path stroke="#FEDF76" stroke-linecap="round" stroke-linejoin="round" stroke-width="2" d="M23.515 36.979c-1.352.215-2.703.429-3.228 1.825-.538 1.43-.323 3.296.673 4.494 3.222 3.873 8.595 2.082 9.768-2.342 1.514-5.705-6.245-6.066-9.403-3.078-1.701 1.61-1.383 4.452.477 5.801 1.098.797 2.423.9 3.734.9"/>
  <path stroke="#FEDF76" stroke-linecap="round" stroke-linejoin="round" stroke-width="2" d="M26.456 45.129c6.987-1.746 21.06-4.198 18.329-2.767-4.736 2.48-14.073 6.13-16.803 7.355"/>
  <path stroke="#FEDF76" stroke-linecap="round" stroke-linejoin="round" stroke-width="2" d="M25.251 45.835c-3.99 7.151-2.136 29.393-1.05 26.152.516-1.537 2.94-11.032 5.881-11.032 2.94 0 6.202 6.962 7.772 9.398.605.94-1.485-22.748-1.26-21.658"/>
  <path stroke="#FEDF76" stroke-linecap="round" stroke-linejoin="round" stroke-width="2" d="M31.342 48.287c7.26 0 8.822.817 15.753.817 2.94 0 5.041-.408 7.352-.817M30.922 43.792c.245-2.868.84-6.116.84-8.99M31.972 30.92c7.513.393 12.376.636 18.904 1.43M50.746 31.855c-1.048 5.799-3.002 11.859-3.002 17.787"/>
  <path stroke="#FEDF76" stroke-linecap="round" stroke-linejoin="round" stroke-width="2" d="M32.182 30.51s-1.542 1.431-2.52 2.657c-1.305 1.634 2.31 2.043 17.013 2.86M46.885 35.823l3.78-3.678M50.666 32.35c.63 1.838 1.68 3.269 2.31 4.495l7.561 1.226-1.68-3.065M47.711 19.568c1.584.528 3.431 1.056 6.07 1.848.844.253-3.695 2.111-5.542 2.639.704 1.671 2.903 5.542 1.847 5.542-1.32 0-5.542-3.167-6.598-3.959-1.055-.791-6.334 3.431-7.653 2.64-1.32-.792 2.375-3.96 2.111-5.015-.264-1.055-3.958-3.959-3.43-4.486.527-.528 5.278.264 6.333-.264 1.056-.528 4.223-6.334 5.279-5.279.844.845 1.214 4.135 1.583 6.334zM29.501 9.804c1.32 1.32 2.903 2.903 5.278 4.75M34.78 7.692c1.319 2.64 1.847 3.695 2.902 5.543M55.365 24.847c1.583-.264 2.903-.527 5.278-.791M54.31 26.958c1.583.792 2.11 1.32 5.277 3.167M54.447 48.083c.51-3.645 1.26-7.152 2.31-10.625"/>
  <path stroke="#FEDF76" stroke-linecap="round" stroke-linejoin="round" stroke-width="2" d="M50.473 32.386c2.776.9 5.665 1.646 8.339 2.802.726.314-.484-.334-.97-.413"/>
</svg>
