<svg xmlns="http://www.w3.org/2000/svg" width="80" height="80" fill="none" viewBox="0 0 80 80">
  <path stroke="#EF9790" stroke-linecap="round" stroke-linejoin="round" stroke-width="2" d="M10.988 30.94v37.167M49.206 37.044c.14 9.386 0 28.968 0 37.713M10.39 68.198c16.123 3.28 26.872 5.466 40.607 7.652M10.39 30.485c10.749 2.187 28.664 6.013 39.413 8.199M29.498 20.648c10.749 2.186 29.26 5.465 40.01 7.651M46.219 40.324c11.943-6.012 19.11-9.292 28.067-14.21M70.704 25.566V64.92M48.608 75.304c8.36-3.826 15.527-7.652 24.484-12.025M8 31.852c7.763-3.553 14.93-6.286 27.47-11.751"/>
  <path stroke="#EF9790" stroke-linecap="round" stroke-linejoin="round" stroke-width="2" d="M29.238 34.008c1.993-.318 3.763-1.055 5.571-1.943 3.14-1.541 6.21-3.222 9.291-4.878 2.395-1.286 4.797-2.568 7.277-3.684.092-.041.51-.36.51-.164M28.649 34.554c.063 5.728 0 26.842 0 36.65M22.97 25.778c10.84 2.581 23.745 5.678 35.617 8.26M57.714 33.714c7.429 5.143-2.955 37.183 9.715 41.143"/>
  <path stroke="#EF9790" stroke-linecap="round" stroke-linejoin="round" stroke-width="2" d="M38.265 29.904c-3.15-2.573-5.784-5.953-7.532-9.629-1.2-2.525-2.104-5.468-1.66-8.297.438-2.779 2.526-4.814 5.399-3.638 5.066 2.072 5.64 9.413 5.544 14.078-.053 2.517-.567 6.206-3.556 6.666"/>
  <path stroke="#EF9790" stroke-linecap="round" stroke-linejoin="round" stroke-width="2" d="M39.085 30.56c-1.096-10.594 18.058-27.132 22.63-20.275 4.064 3.703-18.36 18.64-25.42 21.096"/>
</svg>
