<svg width="63" height="86" viewBox="0 0 63 86" fill="none" xmlns="http://www.w3.org/2000/svg">
<path d="M44.8002 1C30.0483 3.0686 26.5851 10.8837 30.0483 22.9617C32.0782 30.0409 39.4025 36.9008 46.0972 38.4418C50.5807 39.4738 55.7265 39.3051 58.6467 35.2355C62.0412 30.5049 62.6985 23.5259 61.3359 17.9972C58.71 7.34191 48.4344 -3.55831 37.3057 3.89617C32.4618 7.14078 30.8542 10.6336 30.0482 16.5145C29.2052 22.665 32.6988 31.0982 38.284 34.4794" stroke="#FDD13B" stroke-linecap="round" stroke-linejoin="round"/>
<path d="M52.5785 39.7861C49.2138 41.6401 47.0567 44.9485 50.1651 48.1812C52.5219 50.6323 55.9536 52.2397 57.9568 54.9904C61.3974 59.7147 50.9755 61.2169 51.027 65.8505C51.0707 69.7794 59.0109 71.1097 56.7846 74.9179C55.5425 77.0426 48.5234 80.7445 52.5785 85.3988" stroke="#FDD13B" stroke-linecap="round" stroke-linejoin="round"/>
<path d="M51.958 39.1654C50.4199 39.6428 49.6246 40.3867 49.3033 42.027C49.1313 42.9053 49.4658 43.3125 50.3376 43.0613C51.6725 42.6767 52.6406 41.1133 52.8199 39.786C53.0162 38.334 50.8887 39.4271 50.5445 40.0963C50.3127 40.5471 50.4066 41.1547 50.4066 41.6477" stroke="#FDD13B" stroke-linecap="round" stroke-linejoin="round"/>
<path d="M15.344 52.1978C11.6914 58.3828 6.75803 63.9384 2.75998 69.9355C1.04689 72.5051 -0.145828 75.0744 2.75998 76.1591C12.5462 77.8031 21.9124 77.8031 35.0252 77.8031" stroke="#FDD13B" stroke-linecap="round" stroke-linejoin="round"/>
<path d="M12.241 53.4395C21.6131 54.4891 37.6225 54.0656 47.0139 53.4395" stroke="#FDD13B" stroke-linecap="round" stroke-linejoin="round"/>
<path d="M43.8694 53.1289C40.9115 62.7988 37.2806 69.3027 34.5607 79.1933" stroke="#FDD13B" stroke-linecap="round" stroke-linejoin="round"/>
<path d="M9.54871 60.5757C21.6614 60.7133 28.9012 60.5757 41.0193 60.5757" stroke="#FDD13B" stroke-linecap="round" stroke-linejoin="round"/>
<path d="M15.5879 64.6909C16.3686 64.8262 20.2152 65.4402 21.4144 66.2523C21.4922 66.3155 14.1491 67.8151 15.5879 67.9589C17.2102 68.1212 18.9439 68.0916 20.5353 68.4588C21.3565 68.6484 22.1894 69.1562 21.8454 70.131C21.3275 71.5982 18.7898 71.5208 17.5927 71.4346C16.9521 71.3885 14.2209 71.06 13.2952 70.131" stroke="#FDD13B" stroke-linecap="round" stroke-linejoin="round"/>
<path d="M24.5348 67.6875C26.4333 66.9416 27.1218 66.0239 28.7501 64.8434C29.8933 64.0146 29.3199 66.1885 29.2156 67.274C29.1282 68.183 28.7501 70.6847 28.7501 72.842" stroke="#FDD13B" stroke-linecap="round" stroke-linejoin="round"/>
<path d="M44.201 53.7495C45.89 59.8204 47.3886 65.0655 48.8872 70.3106C49.9189 73.9215 43.2675 72.1838 37.2731 71.8092" stroke="#FDD13B" stroke-linecap="round" stroke-linejoin="round"/>
<path d="M45.2449 11.7263C48.556 10.7733 51.711 9.69319 54.9209 8.50098" stroke="#FDD13B" stroke-linecap="round" stroke-linejoin="round"/>
<path d="M43.6326 17.5319C48.7835 15.8899 53.7488 13.977 58.7916 12.0488" stroke="#FDD13B" stroke-linecap="round" stroke-linejoin="round"/>
<path d="M49.7603 20.4345C52.7319 19.6025 55.6079 18.676 58.4686 17.5317" stroke="#FDD13B" stroke-linecap="round" stroke-linejoin="round"/>
<path d="M53.9535 27.8529C55.9929 27.0901 58.0356 26.3392 60.0816 25.5952" stroke="#FDD13B" stroke-linecap="round" stroke-linejoin="round"/>
</svg>
