<svg width="89" height="60" viewBox="0 0 89 60" fill="none" xmlns="http://www.w3.org/2000/svg">
<path d="M58.3874 13.0335C59.8853 12.6255 63.6726 12.5945 64.875 17.0091C66.0773 21.4237 64.3506 23.7658 62.4141 24.0975" stroke="#7FB800" stroke-linecap="round" stroke-linejoin="round"/>
<path d="M31.615 27.4005C34.2224 26.7487 35.8521 26.4226 38.4595 25.771C40.5705 26.1752 73.5924 36.2779 69.0688 33.1656C61.6391 25.7308 59.8423 22.0956 58.7289 18.0076M58.7289 18.0076C57.6155 13.9197 56.1033 5.88657 61.2499 2.45808C67.6927 1.06245 75.889 28.5901 71.9778 33.1656C70.1301 35.3273 66.0522 32.1622 58.7289 18.0076Z" stroke="#7FB800" stroke-linecap="round" stroke-linejoin="round"/>
<path d="M36.8296 19.9039C44.8639 14.6755 50.6701 10.7439 61.2496 2.45776M36.8296 19.9039C36.8296 19.9039 34.5481 20.8815 31.6148 21.8593M36.8296 19.9039L31.6148 21.8593M36.8296 19.9039L38.7852 25.7704M31.6148 21.8593L33.2444 27.0743M31.6148 21.8593C28.6816 22.837 29.3328 28.0521 33.2444 27.0743M33.2444 27.0743L34.8741 32.6149" stroke="#7FB800" stroke-linecap="round" stroke-linejoin="round"/>
<path d="M74.311 6.0841C77.4351 4.36584 80.5852 2.66189 83.7629 1M75.9407 12.0802C78.5481 11.4284 81.4814 10.7765 86.3703 9.79873M76.9184 18.5987C79.8518 18.5987 83.437 18.5987 87.9999 18.9247" stroke="#7FB800" stroke-linecap="round" stroke-linejoin="round"/>
<path d="M41.8189 32.4002C41.9545 35.0193 42.3825 38.0079 44.9146 38.7057C47.2095 39.3381 49.5177 37.6214 50.3646 35.0762C52.0744 29.9379 41.0936 30.2163 42.2611 36.4911C43.0697 40.8364 51.6199 36.5416 49.1289 32.2464C47.7048 29.7908 43.5825 29.9535 41.7409 31.4928C39.8798 33.0483 41.0916 35.0024 42.053 36.5526" stroke="#7FB800" stroke-linecap="round" stroke-linejoin="round"/>
<path d="M44.0273 38.8377C36.8642 34.2747 38.1607 25.4748 37.1557 27.3264C37.1557 29.8924 37.1829 37.86 41.094 40.1415" stroke="#7FB800" stroke-linecap="round" stroke-linejoin="round"/>
<path d="M41.4199 39.8818C40.5559 44.02 38.8125 51.5509 38.8125 55.786" stroke="#7FB800" stroke-linecap="round" stroke-linejoin="round"/>
<path d="M38.8125 55.8517C41.094 49.4056 47.4875 43.3207 52.6281 49.4056C53.1482 50.0212 56.8824 55.2908 55.7606 55.8517L50.8718 41.1189C52.5014 40.2498 55.7606 37.1426 55.7606 31.667C55.7606 24.8226 54.7829 39.8152 48.5903 37.5337" stroke="#7FB800" stroke-linecap="round" stroke-linejoin="round"/>
<path d="M19.1525 37.1859C19.6769 38.4594 21.6629 38.9021 22.8402 39.0488C25.597 39.3921 28.5438 37.6515 28.695 34.6577C28.8969 30.6594 23.9628 29.8409 21.0914 30.951C19.7329 31.4762 18.2674 32.4847 17.7839 33.9354C17.3793 35.1491 18.3275 38.449 20.703 38.8449" stroke="#7FB800" stroke-linecap="round" stroke-linejoin="round"/>
<path d="M26.2823 39.1055C27.6595 41.6096 25.8992 54.3465 26.8031 57.0582L22.0886 46.5659C19.9109 48.6775 17.9312 49.7334 16.1495 49.7334C14.0627 49.7334 12.52 46.3019 11.5962 43.2004L15.5556 46.1699L20.5048 39.1055" stroke="#7FB800" stroke-linecap="round" stroke-linejoin="round"/>
<path d="M18.5841 40.645C16.3987 39.908 14.8839 38.4991 13.2046 36.9477C12.9103 36.6758 9.45721 33.6086 9.802 33.0224C9.95518 32.762 14.9062 36.3198 15.2671 36.5676C16.7663 37.5967 18.3046 38.5157 19.9527 39.2763" stroke="#7FB800" stroke-linecap="round" stroke-linejoin="round"/>
<path d="M26.4072 39.6366C29.5747 36.2711 32.1483 35.4792 35.1923 32.8184C32.854 36.6126 30.3666 37.6569 26.4072 42.2102" stroke="#7FB800" stroke-linecap="round" stroke-linejoin="round"/>
</svg>
