<svg width="89" height="61" viewBox="0 0 89 61" fill="none" xmlns="http://www.w3.org/2000/svg">
<path d="M58.3875 13.0764C59.8854 12.6685 63.6728 12.6374 64.8751 17.0521C66.0774 21.4667 64.3507 23.8088 62.4142 24.1405" stroke="#7FB800" stroke-linecap="round" stroke-linejoin="round"/>
<path d="M31.6148 27.4435C34.2222 26.7916 35.8518 26.4655 38.4592 25.814C40.5702 26.2182 73.5921 36.3209 69.0686 33.2086C61.6389 25.7738 59.8421 22.1386 58.7287 18.0506M58.7287 18.0506C57.6153 13.9626 56.103 5.92954 61.2496 2.50105C67.6925 1.10542 75.8887 28.633 71.9776 33.2086C70.1298 35.3703 66.052 32.2052 58.7287 18.0506Z" stroke="#7FB800" stroke-linecap="round" stroke-linejoin="round"/>
<path d="M36.8296 19.9468C44.8639 14.7184 50.6701 10.7869 61.2496 2.50072M36.8296 19.9468C36.8296 19.9468 34.5481 20.9245 31.6148 21.9023M36.8296 19.9468L31.6148 21.9023M36.8296 19.9468L38.7852 25.8133M31.6148 21.9023L33.2444 27.1172M31.6148 21.9023C28.6816 22.88 29.3328 28.0951 33.2444 27.1172M33.2444 27.1172L34.8741 32.6578" stroke="#7FB800" stroke-linecap="round" stroke-linejoin="round"/>
<path d="M74.3112 6.12707C77.4353 4.40881 80.5853 2.70486 83.763 1.04297M75.9408 12.1232C78.5482 11.4713 81.4815 10.8195 86.3704 9.8417M76.9186 18.6417C79.8519 18.6417 83.4371 18.6417 88 18.9676" stroke="#7FB800" stroke-linecap="round" stroke-linejoin="round"/>
<path d="M41.8188 32.4436C41.9544 35.0627 42.3824 38.0513 44.9145 38.7491C47.2094 39.3816 49.5175 37.6648 50.3645 35.1196C52.0743 29.9814 41.0935 30.2598 42.261 36.5345C43.0696 40.8799 51.6198 36.5851 49.1288 32.2898C47.7047 29.8343 43.5824 29.997 41.7407 31.5363C39.8797 33.0917 41.0915 35.0459 42.0529 36.596" stroke="#7FB800" stroke-linecap="round" stroke-linejoin="round"/>
<path d="M44.0272 38.8807C36.8641 34.3177 38.1606 25.5178 37.1556 27.3694C37.1556 29.9354 37.1828 37.903 41.0939 40.1845" stroke="#7FB800" stroke-linecap="round" stroke-linejoin="round"/>
<path d="M41.4198 39.9248C40.5558 44.063 38.8124 51.5939 38.8124 55.829" stroke="#7FB800" stroke-linecap="round" stroke-linejoin="round"/>
<path d="M38.8124 55.8952C41.0939 49.4491 47.4873 43.3642 52.628 49.4491C53.1481 50.0646 56.8823 55.3343 55.7605 55.8952L50.8716 41.1623C52.5013 40.2932 55.7605 37.1861 55.7605 31.7105C55.7605 24.8661 54.7827 39.8586 48.5902 37.5772" stroke="#7FB800" stroke-linecap="round" stroke-linejoin="round"/>
<path d="M9.97571 33.1475L20.4681 39.2846C16.0681 36.711 17.1026 30.376 23.6356 30.376C31.2508 30.376 28.1229 36.711 25.8133 38.4927L26.2092 39.2846L35.3158 33.1475L26.8031 41.8582V56.9039L22.0518 46.4115C20.3361 47.5333 18.3547 50.093 15.7168 49.381C13.0256 48.6547 12.6813 45.2897 11.7574 43.442L15.7168 46.4115L19.4782 41.0663L9.97571 33.1475Z" fill="#1A1A1A" stroke="#7FB800"/>
<path d="M19.1525 37.2293C19.6769 38.5029 21.6629 38.9456 22.8402 39.0922C25.597 39.4355 28.5438 37.6949 28.695 34.7012C28.8969 30.7029 23.9628 29.8843 21.0914 30.9944C19.7329 31.5197 18.2674 32.5282 17.7839 33.9788C17.3793 35.1925 18.3275 38.4925 20.703 38.8884" stroke="#7FB800" stroke-linecap="round" stroke-linejoin="round"/>
<path d="M26.2823 39.1489C27.6595 41.653 25.8992 54.3899 26.8031 57.1017L22.0886 46.6093C19.9109 48.721 17.9312 49.7768 16.1495 49.7768C14.0627 49.7768 12.52 46.3454 11.5962 43.2438L15.5556 46.2134L20.5048 39.1489" stroke="#7FB800" stroke-linecap="round" stroke-linejoin="round"/>
<path d="M18.584 40.6884C16.3986 39.9515 14.8838 38.5425 13.2045 36.9912C12.9102 36.7193 9.45709 33.652 9.80188 33.0659C9.95506 32.8055 14.906 36.3633 15.2669 36.611C16.7662 37.6402 18.3045 38.5591 19.9526 39.3198" stroke="#7FB800" stroke-linecap="round" stroke-linejoin="round"/>
<path d="M26.4071 39.68C29.5746 36.3145 32.1482 35.5227 35.1922 32.8618C32.8539 36.6561 30.3665 37.7003 26.4071 42.2536" stroke="#7FB800" stroke-linecap="round" stroke-linejoin="round"/>
</svg>
