<svg width="90" height="27" viewBox="0 0 90 27" fill="none" xmlns="http://www.w3.org/2000/svg">
<path d="M13.8903 3.66533C11.7051 5.52972 12.2055 9.47161 15.0254 10.4831C17.4251 11.3438 19.9892 8.85113 21.0397 6.96549C22.4746 4.38973 21.8321 1.04297 18.4394 1.04297C15.9046 1.04297 12.875 2.68641 12.6728 5.52972C12.4437 8.7502 16.6983 8.56833 18.8286 8.6884" stroke="#AE82FC" stroke-linecap="round" stroke-linejoin="round"/>
<path d="M12.2856 10.1201C8.20866 12.4066 3.44006 14.4202 1.2157 15.9031C-0.69116 17.1743 10.68 12.6641 10.3936 14.4542C9.71408 18.7013 8.01796 22.3678 5.93475 25.9973C16.0758 15.466 18.7444 20.8131 25.2541 25.5184C24.4899 24.2601 17.9362 14.6093 20.8835 14.4542C22.496 14.3693 32.4661 18.2344 30.0617 16.7772C28.4315 15.7892 22.6317 11.9695 20.0093 10.1201" stroke="#AE82FC" stroke-linecap="round" stroke-linejoin="round"/>
<path d="M43.6106 3.66533C41.4253 5.52972 41.9257 9.47161 44.7456 10.4831C47.1453 11.3438 49.7094 8.85113 50.7599 6.96549C52.1948 4.38973 51.5523 1.04297 48.1596 1.04297C45.6248 1.04297 42.5952 2.68641 42.393 5.52972C42.1639 8.7502 46.4186 8.56833 48.5488 8.6884" stroke="#AE82FC" stroke-linecap="round" stroke-linejoin="round"/>
<path d="M42.0058 10.1201C37.9289 12.4066 33.1603 14.4202 30.9359 15.9031C29.0291 17.1743 40.4003 12.6641 40.1138 14.4542C39.4343 18.7013 37.7382 22.3678 35.655 25.9973C45.796 15.466 48.4646 20.8131 54.9743 25.5184C54.2101 24.2601 47.6564 14.6093 50.6037 14.4542C52.2163 14.3693 62.1863 18.2344 59.782 16.7772C58.1517 15.7892 52.3519 11.9695 49.7296 10.1201" stroke="#AE82FC" stroke-linecap="round" stroke-linejoin="round"/>
<path d="M72.4564 3.66533C70.2712 5.52972 70.7715 9.47161 73.5915 10.4831C75.9911 11.3438 78.5553 8.85113 79.6057 6.96549C81.0407 4.38973 80.3982 1.04297 77.0054 1.04297C74.4706 1.04297 71.4411 2.68641 71.2388 5.52972C71.0098 8.7502 75.2644 8.56833 77.3946 8.6884" stroke="#AE82FC" stroke-linecap="round" stroke-linejoin="round"/>
<path d="M70.8515 10.1201C66.7746 12.4066 62.006 14.4202 59.7816 15.9031C57.8748 17.1743 69.246 12.6641 68.9595 14.4542C68.28 18.7013 66.5839 22.3678 64.5007 25.9973C74.6417 15.466 77.3103 20.8131 83.82 25.5184C83.0558 24.2601 76.5021 14.6093 79.4494 14.4542C81.062 14.3693 91.032 18.2344 88.6277 16.7772C86.9974 15.7892 81.1976 11.9695 78.5753 10.1201" stroke="#AE82FC" stroke-linecap="round" stroke-linejoin="round"/>
</svg>
