<svg width="90" height="67" viewBox="0 0 90 67" fill="none" xmlns="http://www.w3.org/2000/svg">
<path d="M1.38257 57.3426C3.14827 57.6074 14.8601 58.9283 24.4304 56.6543" stroke="#42AB45" stroke-linecap="round" stroke-linejoin="round"/>
<path d="M25.1831 53.141C28.2485 48.9937 30.9138 44.6079 34.4684 40.8442" stroke="#42AB45" stroke-linecap="round" stroke-linejoin="round"/>
<path d="M26.1871 42.6009C25.5256 48.3655 29.3069 43.0034 28.2505 41.8062C27.5503 41.0126 26.2655 42.2769 25.978 42.8519C25.4993 43.8092 25.8404 44.6878 26.1871 45.6123" stroke="#42AB45" stroke-linecap="round" stroke-linejoin="round"/>
<path d="M35.2215 48.1218C32.1671 55.6914 36.8875 48.9097 35.3609 47.7872C34.0339 46.8115 33.1241 51.2414 32.9629 51.8861" stroke="#42AB45" stroke-linecap="round" stroke-linejoin="round"/>
<path d="M24.77 57.3427C25.6533 57.2294 27.1484 66.4598 30.3195 66.4598C31.716 61.703 32.8871 58.9282 34.2835 57.3427C36.6619 54.6421 41.9384 60.3576 44.9862 59.721C46.9682 58.5318 45.0583 54.1617 42.6078 50.4362C41.408 48.6121 48.9362 45.9116 52.5177 43.8651C55.2925 42.2796 46.1754 42.3587 41.815 41.4868C37.8511 40.6941 41.1929 27.5636 38.2475 28.0091C35.302 28.4547 34.6799 36.3334 31.1123 36.3335C29.1303 36.3335 19.0948 25.2341 20.0132 29.1981C21.2762 34.6494 21.9512 41.4868 17.6349 44.2615C15.3823 45.7097 13.6477 47.0363 11.689 47.0363C10.5663 47.0363 8.6386 46.6474 10.6294 47.2873C12.819 47.9911 16.7308 51.2169 18.824 52.1895C17.5027 53.1144 13.116 55.1228 6.1394 55.757" stroke="#42AB45" stroke-linecap="round" stroke-linejoin="round"/>
<path d="M39.0403 6.59229C39.0403 10.9526 39.0403 14.9166 39.0403 18.8806C39.0403 20.4662 39.0404 22.4481 40.2293 23.2409C41.1632 24.2916 46.068 24.1938 47.3645 24.2163C50.8253 24.2163 58.7383 24.2934 60.8421 24.2163" stroke="#42AB45" stroke-linecap="round" stroke-linejoin="round"/>
<path d="M60.842 24.4302C64.4901 28.2441 66.3599 29.7328 70.3152 33.236C71.7917 34.5438 70.3204 31.3236 70.1664 31.0318C68.7621 28.371 66.8291 26.0847 65.2305 23.5535C64.9507 23.1105 64.0482 22.2876 64.9465 22.5122" stroke="#42AB45" stroke-linecap="round" stroke-linejoin="round"/>
<path d="M65.2025 23.2412C66.2881 23.5901 74.9394 23.3921 75.1124 22.4484C75.1124 17.2952 75.1124 14.124 75.1124 10.16C75.1124 7.78169 73.1304 8.1781 68.77 8.1781C57.6709 8.1781 50.5358 8.1781 39.0403 8.1781" stroke="#42AB45" stroke-linecap="round" stroke-linejoin="round"/>
<path d="M48.1575 15.8188C48.8262 18.1899 49.7734 15.5503 49.1041 15.3591C47.856 15.0025 48.0701 16.8496 49.3746 17.0359" stroke="#42AB45" stroke-linecap="round" stroke-linejoin="round"/>
<path d="M55.7612 16.4768C57.9947 18.3275 57.7151 14.4981 56.248 15.4761C55.9342 15.6854 54.8518 16.9853 55.4908 17.3423C56.0438 17.6514 57.0929 17.4505 57.7085 17.4505" stroke="#42AB45" stroke-linecap="round" stroke-linejoin="round"/>
<path d="M64.5 15.9896C65.9506 17.6634 65.6793 15.3135 65.4466 15.3135C64.5767 15.3135 64.1214 16.8007 64.0132 17.4501" stroke="#42AB45" stroke-linecap="round" stroke-linejoin="round"/>
<path d="M79.0764 7.00328C80.2656 5.40333 81.4548 3.42135 82.644 1.04297" stroke="#42AB45" stroke-linecap="round" stroke-linejoin="round"/>
<path d="M80.3762 10.362C83.4352 8.71199 86.3038 6.54626 89.3826 5.00684" stroke="#42AB45" stroke-linecap="round" stroke-linejoin="round"/>
<path d="M61.6348 64.0703C63.5887 56.682 65.995 51.901 71.1483 46.2324" stroke="#42AB45" stroke-linecap="round" stroke-linejoin="round"/>
<path d="M83.4367 65.2591C83.0382 59.6788 82.8646 52.5784 82.2476 47.0249" stroke="#42AB45" stroke-linecap="round" stroke-linejoin="round"/>
<path d="M70.3556 42.2681C70.3556 47.8176 77.4537 50.6418 83.3046 44.6464C86.5172 41.3545 87.1927 35.703 82.9081 32.9307C78.8848 30.3273 71.5498 34.9288 70.5757 39.3122C69.3902 44.6472 71.9412 48.2931 76.3016 47.9983" stroke="#42AB45" stroke-linecap="round" stroke-linejoin="round"/>
<path d="M70.752 39.8896C71.0201 43.0126 76.1456 42.9909 78.2431 40.4273" stroke="#42AB45" stroke-linecap="round" stroke-linejoin="round"/>
</svg>
