<svg width="42" height="34" viewBox="0 0 42 34" fill="none" xmlns="http://www.w3.org/2000/svg">
<path d="M6.12195 8.82106C12.7454 2.19763 23.9606 -1.82229 32.4634 3.3739C36.9092 6.09076 40.5122 12.0143 40.5122 17.195C40.5122 29.0588 26.7469 34.9936 16.3659 32.3983C9.91184 30.7848 1 28.688 1 20.5284C1 11.5533 7.19454 8.88403 14.1707 5.89423" stroke="black" stroke-linecap="round" stroke-linejoin="round"/>
<path d="M17.6472 10.1016C17.5847 13.5637 17.3316 17.0079 17.0375 20.4573C16.9697 21.2517 16.7529 22.1696 16.7529 22.9674C16.7529 23.2119 17.1509 22.8448 17.2204 22.815C17.9924 22.4841 18.8167 22.248 19.6086 21.9715C22.779 20.8644 25.8877 19.7074 29.0903 18.6991C30.2329 18.3394 31.257 18.3113 29.5375 17.9674" stroke="black" stroke-linecap="round" stroke-linejoin="round"/>
<path d="M16.3643 9.91943C19.6379 11.4526 22.9215 13.2744 25.9781 15.2243C26.713 15.6931 27.6051 16.1067 28.2545 16.6877C28.8193 17.1931 29.6833 17.9682 30.4496 17.9682" stroke="black" stroke-linecap="round" stroke-linejoin="round"/>
<path d="M19.8425 12.8457C18.5836 13.7316 17.5376 14.803 16.5498 15.9555" stroke="black" stroke-linecap="round" stroke-linejoin="round"/>
<path d="M22.7686 13.2124C20.2377 14.9559 17.9836 16.8999 15.8174 19.0661" stroke="black" stroke-linecap="round" stroke-linejoin="round"/>
<path d="M26.0623 13.7603C22.9083 15.5729 19.808 17.9532 17.0887 20.3863C16.6581 20.7715 16.1559 21.1964 15.798 21.6566C15.5729 21.946 16.4279 21.2807 16.733 21.0773" stroke="black" stroke-linecap="round" stroke-linejoin="round"/>
<path d="M26.7931 15.5884C24.5401 17.3313 22.3598 19.163 20.0655 20.8526C19.5961 21.1983 17.6429 22.8977 17.4639 22.5396" stroke="black" stroke-linecap="round" stroke-linejoin="round"/>
<path d="M28.2564 17.0527C26.8351 17.9926 25.4978 19.0457 24.1303 20.0609C23.6935 20.3852 23.2932 20.763 22.7686 20.8942" stroke="black" stroke-linecap="round" stroke-linejoin="round"/>
</svg>
