<svg width="228" height="64" viewBox="0 0 228 64" fill="none" xmlns="http://www.w3.org/2000/svg">
<path fill-rule="evenodd" clip-rule="evenodd" d="M73.1832 34.8373C71.1467 35.1001 69.8644 35.6819 69.0159 36.5265C68.337 37.2022 67.9976 38.0467 67.9976 38.8913C67.9976 40.4116 69.1102 41.5189 70.4678 41.5189C71.3164 41.5189 72.1649 41.1811 72.5987 40.6744C72.7684 40.5054 72.9381 40.1676 72.9381 39.8298L73.1832 34.8373ZM76.6906 43.9213C74.9934 43.9213 73.4472 42.8139 73.0324 41.1248C72.1838 42.645 70.5621 43.9213 68.4313 43.9213C66.0553 43.9213 64 42.0632 64 39.6796C64 36.3763 67.149 33.9928 73.1078 33.9177V33.0731C73.2021 30.7083 71.8255 29.2631 69.4496 29.2631C67.7525 29.2631 65.9611 30.3704 64.7731 31.8156C64.6788 31.9094 64.1697 31.3839 64.1697 31.3088C65.6971 28.2496 68.5067 26.5604 71.4107 26.5604C74.7295 26.5604 77.1243 28.9252 77.03 32.923L76.766 39.5294C76.766 41.0497 77.4449 41.7254 78.218 41.7254C79.0665 41.7254 79.6699 41.0497 80.0094 40.1113C80.0094 40.0174 80.5185 40.2802 80.5185 40.374C80.5185 42.645 78.8214 43.9213 76.6906 43.9213ZM97.8856 43.3207H93.379C93.2843 43.3207 93.2843 42.4761 93.379 42.4761C95.2455 42.2134 95.5097 42.0444 95.5097 38.4033V33.3171C95.5097 31.0273 94.152 29.4132 92.1907 29.4132C90.833 29.4132 89.5506 30.0889 88.9477 30.9335C88.5135 31.4402 88.2689 32.3787 88.2689 33.5611V38.3846C88.2689 42.0257 88.7024 42.1946 90.5689 42.4573C90.5689 42.4573 90.6637 43.3019 90.5689 43.3019H81.8762C81.7819 43.3019 81.7819 42.4573 81.7819 42.4573C83.8184 42.1195 84.0824 42.0257 84.0824 38.3846V32.191C84.0824 28.4561 83.6487 28.2871 81.4425 27.9493C81.2728 27.9493 81.3482 27.1047 81.4425 27.1047H87.9106V30.8397H88.0047C89.4565 28.1182 91.6631 26.5229 94.3973 26.5229C97.4709 26.5229 99.8469 28.8877 99.8469 32.7916V38.3095C99.8469 41.9506 100.186 42.1195 102.223 42.3823C102.392 42.3823 102.317 43.2268 102.223 43.2268C100.959 43.3207 99.0733 43.3207 97.8856 43.3207ZM111.594 43.9213C106.484 43.9213 103.166 39.9424 103.166 35.3629C103.166 30.4455 106.484 26.5416 111.934 26.5416C114.48 26.5416 115.762 27.3862 116.535 27.3862C116.874 27.3862 117.214 27.1234 117.383 26.7105C117.383 26.6167 118.402 26.6167 118.402 26.7105V32.8103C118.402 32.9042 117.383 32.9042 117.383 32.8103C116.026 30.0138 114.14 27.649 111.934 27.649C109.199 27.649 107.597 30.5393 107.597 34.5182C107.597 38.7599 109.803 41.5564 112.877 41.5564C114.913 41.5564 117.214 40.1113 118.157 38.4972C118.251 38.3283 118.93 38.6661 118.93 38.835C117.817 41.7066 114.932 43.9213 111.594 43.9213ZM132.299 33.1482V31.9658C132.299 29.3381 131.017 27.8179 129.395 27.8179C127.359 27.8179 125.812 30.0138 125.473 33.1669H132.299V33.1482ZM125.492 35.1001C125.492 38.7412 127.528 41.5377 131.036 41.5377C133.073 41.5377 135.128 40.1864 136.24 38.4784C136.24 38.3846 136.919 38.6474 136.919 38.8163C135.976 41.7066 132.921 43.9025 129.508 43.9025C124.134 43.9025 120.985 39.9987 120.985 35.3441C120.985 30.6895 124.304 26.5229 129.923 26.5229C134.185 26.5229 136.994 29.3194 137.24 33.1294V34.3118H125.662C125.492 34.4995 125.492 34.9312 125.492 35.1001ZM145.763 43.9213C143.123 43.9213 140.822 43.2457 140.049 42.7389C139.955 42.645 139.71 40.4491 139.71 38.2532C139.71 38.1594 140.728 38.0843 140.728 38.2532C142.086 41.2186 144.047 42.9078 146.178 42.9078C147.97 42.9078 149.251 41.9693 149.251 40.543C149.251 38.8538 147.215 38.0843 145.159 37.1459C142.689 36.2075 139.88 34.95 139.88 31.7968C139.88 29.3381 142.01 26.8044 146.008 26.8044C147.705 26.8044 148.818 27.4801 149.591 27.4801C149.93 27.4801 150.27 27.2173 150.534 26.8044C150.534 26.7105 151.552 26.7105 151.552 26.8044V32.3974C151.552 32.4912 150.534 32.4912 150.534 32.3974C149.176 29.8449 147.554 28.0807 145.594 28.0807C143.802 28.0807 142.953 29.2631 142.953 30.2015C142.953 31.8907 144.915 32.5663 146.951 33.4297C149.421 34.4432 152.325 35.7195 152.325 38.9476C152.306 41.6315 149.761 43.9213 145.763 43.9213ZM154.192 28.9065C153.928 28.9065 153.853 28.2308 154.098 28.0619C155.889 26.4478 158.869 23.7451 160.49 22.0372C160.585 21.9434 161.169 22.0372 161.169 22.2061V27.1985H166.958C167.128 27.1985 167.128 28.8127 166.958 28.8127H161.169V38.2156C161.169 40.3365 162.451 41.2749 163.809 41.2749C164.827 41.2749 165.939 40.4303 166.449 39.4169C166.449 39.323 167.128 39.6796 167.128 39.7546C166.449 42.0444 164.223 43.8275 161.753 43.8275C159.113 43.8275 156.983 42.1383 156.983 38.835V28.9065H154.192ZM181.1 31.6279C180.592 31.6279 179.309 30.1077 178.366 30.1077C177.933 30.1077 177.423 30.3704 177.009 30.7833C176.33 31.459 175.726 33.0731 175.726 34.4244V38.4972C175.726 42.2321 176.33 42.3072 178.291 42.57C178.291 42.57 178.385 43.4145 178.291 43.4145H169.258C169.164 43.4145 169.164 42.57 169.258 42.57C171.295 42.2321 171.559 42.1383 171.559 38.4972V32.3036C171.559 28.6625 171.126 28.3998 168.919 28.0619C168.75 28.0619 168.825 27.2173 168.919 27.2173H175.482V31.459H175.651C175.821 30.9522 176.16 30.3517 176.424 29.7698C177.612 27.8179 179.064 26.6355 180.592 26.6355C182.043 26.6355 183.231 27.7428 183.231 28.9252C183.307 30.2578 181.515 31.6279 181.1 31.6279ZM198.732 33.8238L193.188 47.9753C191.227 52.9677 189.435 54 187.06 54C185.702 54 184.155 53.3243 184.155 52.8926C184.061 52.217 185.004 49.7583 185.513 49.7583C185.683 49.7583 187.72 50.6967 188.757 50.6967C190.208 50.6967 191.133 49.7583 191.906 47.7313L192.924 45.0099C192.584 43.6585 188.492 34.7623 187.983 33.5611C186.965 31.1963 186.286 29.3194 185.607 28.6437C185.174 28.212 184.759 28.0432 183.571 27.8742C183.476 27.8742 183.476 27.0296 183.571 27.0296C184.684 27.0296 186.984 27.1234 188.247 27.1234C189.53 27.1234 191.735 27.0296 192.849 27.0296C192.943 27.0296 192.943 27.8742 192.849 27.8742C190.284 28.212 190.548 29.0566 191.906 32.4537L194.885 39.6608L197.261 33.4672C198.109 31.3464 198.543 30.0702 198.543 29.3194C198.543 28.3809 197.94 28.0432 196.167 27.9681C196.073 27.9681 196.073 27.0296 196.167 27.0296C197.355 27.0296 198.902 27.1234 199.92 27.1234C200.693 27.1234 201.447 27.0296 202.899 27.0296C202.994 27.0296 203.069 27.9681 202.899 27.9681C201.956 28.0619 201.541 28.3059 201.032 28.8127C200.353 29.5071 199.844 30.8584 198.732 33.8238Z" fill="white"/>
<path fill-rule="evenodd" clip-rule="evenodd" d="M44.4424 25.654C41.4646 22.3906 38.4869 22.9029 37.9781 22.9978C38.2419 23.0926 38.4869 28.7467 41.6343 31.7445C43.7639 33.7177 48.0985 33.0346 48.0985 33.0346C48.0985 33.0346 47.3446 28.8225 44.4424 25.654ZM48.0231 36.7154C47.0808 36.7154 43.255 37.0569 40.7108 40.2255C38.0723 43.5647 38.1477 46.221 37.5635 46.8281C38.0723 46.9989 43.4435 47.5112 45.7427 44.0011C47.9477 40.7377 48.0231 37.2277 48.0231 36.7154ZM24.7104 34.4007C25.3135 34.4956 27.3489 37.1518 31.005 37.4933C35.0004 37.9297 36.3762 35.8616 36.4515 35.8616C36.4515 35.596 33.21 32.0859 29.6481 32.0859C27.1792 32.1618 24.7104 34.4007 24.7104 34.4007ZM39.2596 36.2032C39.1654 36.298 35.8485 40.7377 28.0273 39.5424C21.7327 38.5179 19.4335 34.9889 19 34.9129C19.5088 34.2299 24.2769 30.3594 29.8177 30.4542C35.2642 30.625 39.2596 33.7177 39.2596 33.7177H42.7462C39.9381 32.8638 36.527 31.327 35.0004 27.8929C33.6435 24.7243 33.8885 22.846 33.3043 20.1898C33.3043 20.1898 39.5989 19.6774 44.4612 22.846C48.8901 25.7679 51.3589 33.471 51.4343 33.7366H54.167L53.5639 20L56.975 20.0948C56.372 23.6997 57.1447 49.4085 56.975 49.4085C56.6358 49.5034 53.7335 49.6742 53.4886 48.9721C53.4886 48.9721 54.167 36.3739 54.2612 36.1273H51.6228C51.6228 36.298 51.3589 43.413 46.0066 47.1887C40.6354 50.9643 32.8896 49.8449 32.8896 49.8449C33.8319 48.384 32.8896 46.8471 35.6223 42.654C38.7697 37.8538 42.9347 36.1462 42.8593 36.1462C42.5766 36.2032 39.335 36.2032 39.2596 36.2032Z" fill="white"/>
<path fill-rule="evenodd" clip-rule="evenodd" d="M206.462 28.4734C206.709 28.4734 206.879 28.3846 206.879 28.1894C206.879 28.0118 206.785 27.8876 206.481 27.8876H206.215V28.4734H206.462ZM205.949 27.6745H206.519C206.841 27.6745 207.164 27.7811 207.164 28.1716C207.164 28.3669 207.032 28.5444 206.841 28.5976L207.24 29.2722H206.936L206.613 28.6864H206.215V29.2722H205.949V27.6745ZM207.753 28.5089C207.753 27.7633 207.202 27.213 206.5 27.213C205.797 27.213 205.246 27.7633 205.246 28.5089C205.246 29.2367 205.797 29.787 206.5 29.787C207.202 29.7693 207.753 29.2367 207.753 28.5089ZM205 28.5089C205 27.6035 205.684 27 206.5 27C207.335 27 208 27.6035 208 28.5089C208 29.4143 207.316 30 206.5 30C205.684 30 205 29.4143 205 28.5089Z" fill="white"/>
</svg>
