<svg width="72" height="72" viewBox="0 0 72 72" fill="none" xmlns="http://www.w3.org/2000/svg">
<g clip-path="url(#clip0)">
<path fill-rule="evenodd" clip-rule="evenodd" d="M61.4138 34.6952C61.4138 48.9602 50.1076 60.5252 36.1621 60.5252C22.2166 60.5252 10.9126 48.9602 10.9126 34.6952C10.9126 20.4302 22.2166 8.86523 36.1621 8.86523C50.1076 8.86523 61.4138 20.4302 61.4138 34.6952Z" fill="#D33833"/>
<path d="M11.9385 41.091C11.9385 41.091 10.1115 14.1563 34.929 13.3868L33.1965 10.5L19.728 15L15.903 19.4258L12.537 25.872L10.6133 33.3758L11.1915 38.3775" fill="#EF3D3A"/>
<path d="M18.8664 17.0775C14.4339 21.6113 11.6934 27.8708 11.6934 34.794C11.6934 41.7173 14.4384 47.979 18.8664 52.5083C23.2944 57.0375 29.4077 59.8365 36.1622 59.8365C42.9167 59.8365 49.0254 57.0398 53.4579 52.5083C57.8904 47.9768 60.6309 41.715 60.6309 34.794C60.6309 27.873 57.8859 21.609 53.4579 17.0775C49.0299 12.546 42.9167 9.7493 36.1622 9.7493C29.4077 9.7493 23.2989 12.546 18.8664 17.0775V17.0775ZM17.7459 53.6063C13.0367 48.7913 10.1274 42.1358 10.1274 34.7963C10.1274 27.4568 13.0389 20.8013 17.7459 15.9863C22.4529 11.1713 28.9689 8.1833 36.1622 8.18555C43.3554 8.1878 49.8714 11.1713 54.5784 15.9863C59.2854 20.8013 62.1992 27.4568 62.1992 34.7963C62.1992 42.1358 59.2877 48.7913 54.5784 53.6063C49.8692 58.4213 43.3554 61.407 36.1622 61.407C28.9689 61.407 22.4529 58.4213 17.7459 53.6063" fill="#231F20"/>
<path fill-rule="evenodd" clip-rule="evenodd" d="M46.791 34.84L42.966 35.4182L37.7685 35.9965L34.4025 36.0932L31.131 35.9965L28.629 35.227L26.4173 32.8195L24.6848 27.9145L24.3023 26.857L21.9938 26.0875L20.6438 23.8757L19.665 20.701L20.7225 17.911L23.2245 17.0447L25.245 18.0077L26.208 20.1227L27.3623 19.9292L27.7448 19.4477L27.3623 17.236L27.2655 14.446L27.8438 10.621L27.8213 8.42272L29.5763 5.61922L32.6543 3.40747L38.0363 1.07422L43.9988 1.94047L49.1963 5.69122L51.6038 9.51622L53.1428 12.3062L53.5253 19.2317L52.371 25.1942L50.256 30.4817L48.2355 33.2717" fill="#F0D6B7"/>
<path fill-rule="evenodd" clip-rule="evenodd" d="M43.5194 51.48L29.7629 52.0583V54.3668L30.9171 62.4443L30.3389 63.1193L20.7224 59.85L20.0474 58.6958L19.0844 47.8283L16.8726 41.2875L16.3911 39.7485L24.0861 34.461L26.4936 33.498L28.6086 36.0945L30.4356 37.7303L32.5506 38.4053L33.5114 38.6933L34.6656 43.695L35.5319 44.7525L37.7436 43.983L36.2046 46.9643L44.5746 50.9085L43.5171 51.4868" fill="#335061"/>
<path fill-rule="evenodd" clip-rule="evenodd" d="M20.7222 17.9116L23.2242 17.0454L25.2447 18.0084L26.2077 20.1234L27.3619 19.9299L27.6499 18.7756L27.0717 16.5639L27.6499 11.2719L27.1684 8.38511L28.9009 6.36461L32.6517 3.38336L31.5942 1.94336L26.3022 4.53986L24.0904 6.27236L22.8394 8.96561L20.9157 11.5621L20.3374 14.6401L20.7199 17.9116" fill="#6D6B6D"/>
<path fill-rule="evenodd" clip-rule="evenodd" d="M24.6645 8.86643C24.6645 8.86643 26.1045 5.30693 31.8803 3.57893C37.656 1.85093 32.1683 2.32793 32.1683 2.32793L25.9133 4.73543L23.5058 7.14293L22.4483 9.06668L24.66 8.87318L24.6645 8.86643ZM21.78 17.2364C21.78 17.2364 19.7595 10.5022 27.4568 9.54143L27.1688 8.38718L21.8813 9.63818L20.3423 14.6399L20.7248 17.9114L21.7823 17.2364" fill="#DCD9D8"/>
<path fill-rule="evenodd" clip-rule="evenodd" d="M24.8579 26.183L26.1179 24.9635C26.1305 25.1431 26.2026 25.3134 26.3228 25.4475C26.443 25.5815 26.6045 25.6717 26.7817 25.7038C26.8784 26.3788 27.1642 32.438 31.2817 35.7095C31.6597 36.0088 28.2037 35.228 28.2037 35.228L25.1257 30.4175L24.8579 26.183ZM42.5362 24.3538C42.5362 24.3538 42.7612 21.4378 43.5487 21.6628C44.3362 21.8878 44.3362 22.6753 44.3362 22.6753C44.3362 22.6753 42.4282 23.9083 42.5407 24.3583" fill="#F7E4CD"/>
<path d="M50.5441 13.6738C50.5441 13.6738 48.9578 14.0113 48.8116 15.4063C48.6653 16.8013 50.5441 15.6943 50.8321 15.5998L50.5441 13.6738ZM38.9251 13.7706C38.9251 13.7706 36.8101 14.0586 36.8101 15.4063C36.8101 16.7541 39.2176 16.6573 39.8881 16.0813" fill="#F7E4CD"/>
<path fill-rule="evenodd" clip-rule="evenodd" d="M25.8186 20.0249C25.8186 20.0249 22.1623 17.8109 21.7798 19.9282C21.3973 22.0454 20.5288 23.5844 22.3581 25.7962L21.1071 25.4137L19.9528 22.4324L19.5703 19.5457L21.7821 17.2372L24.2841 17.4307L25.7241 18.5849L25.8208 20.0249H25.8186ZM27.5533 13.9634C27.5533 13.9634 29.1891 5.4989 37.4623 3.8384C44.2731 2.4929 47.8506 4.1264 49.1983 5.6654C49.1983 5.6654 43.1368 -1.5481 37.3633 0.663651C31.5898 2.8754 27.3598 6.96365 27.4498 9.5354L27.5466 13.9612L27.5533 13.9634ZM49.8666 6.64865C49.8666 6.64865 47.0766 6.5519 46.9798 9.05615C46.9898 9.3231 47.0549 9.5851 47.1711 9.82565C47.1711 9.82565 49.3851 7.32365 50.7306 8.6714L49.8666 6.64865ZM37.6513 10.0844C37.6513 10.0844 37.1721 6.2459 33.8983 8.4779C31.7833 9.9179 31.9746 11.9429 32.3593 12.3029C32.7441 12.6629 32.6406 13.4617 32.9331 12.9329C33.2256 12.4042 33.1288 10.6694 34.1886 10.1879C35.2483 9.7064 36.9786 9.16865 37.6536 10.0642" fill="#F7E4CD"/>
<path fill-rule="evenodd" clip-rule="evenodd" d="M28.6088 36.0907L19.5638 40.1317C19.5638 40.1317 23.3146 55.0424 21.3908 59.6617L20.0408 59.1802L19.9441 53.5034L17.4511 42.7507L16.3936 39.7694L25.8436 33.4199L28.6336 36.1132L28.6088 36.0907ZM29.5426 44.3369L30.8251 45.9029V51.6742H29.2861L29.0948 47.1742C29.0948 46.6927 29.2861 44.9624 29.2861 44.9624L29.5426 44.3369ZM29.5718 52.5382L25.2428 52.7294L26.4938 53.5957L29.5718 54.0772" fill="#49728B"/>
<path fill-rule="evenodd" clip-rule="evenodd" d="M44.3857 51.5772L47.9452 51.4805L48.8115 60.332L45.1552 60.8135L44.3857 51.5795" fill="#335061"/>
<path fill-rule="evenodd" clip-rule="evenodd" d="M45.3489 51.5763L50.7354 51.2883L52.9472 45.4203C52.9472 45.1323 54.8709 37.3428 54.8709 37.3428L50.5419 32.8203L49.6757 32.0508L47.3672 34.3593V43.3053L45.3467 51.5785" fill="#335061"/>
<path fill-rule="evenodd" clip-rule="evenodd" d="M47.7542 50.9035L44.3882 51.5785L44.8697 54.2718C46.1207 54.85 48.2357 53.3088 48.2357 53.3088L47.7542 50.9035ZM47.8487 34.0713L54.5829 39.073L54.7764 36.7645L49.6779 32.0508L47.8509 34.0713" fill="#49728B"/>
<path fill-rule="evenodd" clip-rule="evenodd" d="M32.9106 70.5276L30.9194 62.4456L29.9294 56.4831L29.7651 52.0574L38.7786 51.5781H44.3879L43.8771 61.7031L44.7434 69.4949L44.6466 70.9349L37.3341 71.5131L32.9084 70.5501" fill="white"/>
<path fill-rule="evenodd" clip-rule="evenodd" d="M43.1326 51.48C43.1326 51.48 42.6511 61.4857 44.0956 68.58C44.0956 68.58 41.2088 70.407 36.9766 70.8885L45.0541 70.6005L46.0171 70.0222L44.8628 54.2452L44.5748 50.877" fill="#DCD9D8"/>
<path fill-rule="evenodd" clip-rule="evenodd" d="M48.9758 59.561L52.7266 58.5035L59.8456 58.121L60.9031 54.8495L58.9793 49.1728L56.7676 48.8848L53.6896 49.8478L50.7353 51.2878L49.1671 50.9998L47.9453 51.479" fill="white"/>
<path fill-rule="evenodd" clip-rule="evenodd" d="M48.9082 57.6357C48.9082 57.6357 51.4102 56.4814 51.795 56.5782L50.7375 51.2862L51.9885 50.8047L52.8547 56.3847L58.7227 56.6727C58.7227 56.6727 59.877 54.4609 59.589 52.1727L60.6465 55.2507L60.7432 56.9832L59.2042 59.2917L57.4717 59.6742L54.585 59.5774L53.622 58.3264L50.256 58.8079L49.1985 59.1904" fill="#DCD9D8"/>
<path d="M45.1261 50.8055L43.0111 45.419L40.7993 42.2465C40.7993 42.2465 41.2808 40.8965 41.9536 40.8965H44.1653L46.2803 41.666L46.0891 45.2255L45.1261 50.8055Z" fill="white"/>
<path fill-rule="evenodd" clip-rule="evenodd" d="M45.5401 48.9822C45.5401 48.9822 42.8468 43.7847 42.8468 43.0197C42.8468 43.0197 43.3283 41.8655 44.0011 42.1535C44.6738 42.4415 46.1161 43.211 46.1161 43.211V41.384L42.8446 40.709L40.6328 40.997L44.3836 49.8485L45.1531 49.9452" fill="#DCD9D8"/>
<path d="M33.7724 36.2808L31.1084 35.9883L28.6064 35.2188V36.085L29.8282 37.435L33.6532 39.1675" fill="white"/>
<path fill-rule="evenodd" clip-rule="evenodd" d="M29.475 36.5723C29.475 36.5723 32.4563 37.8233 33.4193 37.5353L33.516 38.6895L30.8228 38.1135L29.187 36.9593L29.475 36.5768" fill="#DCD9D8"/>
<path fill-rule="evenodd" clip-rule="evenodd" d="M48.9645 41.2265C47.3332 41.1815 45.8595 40.9857 44.5657 40.619C44.6557 40.0902 44.4892 39.5705 44.622 39.188C44.982 38.9292 45.585 38.9337 46.1295 38.873C45.657 38.6412 44.9977 38.5512 44.4555 38.684C44.442 38.3172 44.2755 38.09 44.1787 37.802C45.0967 37.4735 47.2612 35.327 48.4807 36.038C49.0612 36.3755 49.3087 38.3105 49.3537 39.2465C49.392 40.025 49.2862 40.8125 48.9645 41.2265" fill="#D33833"/>
<path d="M48.9645 41.2265C47.3332 41.1815 45.8595 40.9857 44.5657 40.619C44.6557 40.0902 44.4892 39.5705 44.622 39.188C44.982 38.9292 45.585 38.9337 46.1295 38.873C45.657 38.6412 44.9977 38.5512 44.4555 38.684C44.442 38.3172 44.2755 38.09 44.1787 37.802C45.0967 37.4735 47.2612 35.327 48.4807 36.038C49.0612 36.3755 49.3087 38.3105 49.3537 39.2465C49.392 40.025 49.2862 40.8125 48.9645 41.2265V41.2265Z" stroke="#D33833" stroke-width="0.514"/>
<path fill-rule="evenodd" clip-rule="evenodd" d="M41.1592 38.5578L41.1457 38.9313C40.635 39.2688 39.8137 39.262 39.2557 39.5433C40.0792 39.5793 40.7295 39.7773 41.292 40.0608L41.256 40.9945C40.3222 41.6335 39.4695 42.5875 38.3692 43.186C37.8517 43.4695 36.0247 44.1985 35.4712 44.0703C35.1562 43.9983 35.1292 43.609 35.0055 43.2423C34.74 42.4548 34.128 41.2105 34.0717 40.0293C34.0042 38.5375 33.8535 36.04 35.46 36.346C36.7885 36.6279 38.0702 37.0968 39.267 37.7388C39.8812 38.0763 40.2345 38.488 41.166 38.56" fill="#D33833"/>
<path d="M41.1592 38.5578L41.1457 38.9313C40.635 39.2688 39.8137 39.262 39.2557 39.5433C40.0792 39.5793 40.7295 39.7773 41.292 40.0608L41.256 40.9945C40.3222 41.6335 39.4695 42.5875 38.3692 43.186C37.8517 43.4695 36.0247 44.1985 35.4712 44.0703C35.1562 43.9983 35.1292 43.609 35.0055 43.2423C34.74 42.4548 34.128 41.2105 34.0717 40.0293C34.0042 38.5375 33.8535 36.04 35.46 36.346C36.7885 36.6279 38.0702 37.0968 39.267 37.7388C39.8812 38.0763 40.2345 38.488 41.166 38.56L41.1592 38.5578Z" stroke="#D33833" stroke-width="0.514"/>
<path fill-rule="evenodd" clip-rule="evenodd" d="M42.0862 40.3389C41.9445 39.5289 41.778 39.2949 41.8432 38.5839C44.01 37.1394 44.415 41.0634 42.0862 40.3389Z" fill="#D33833"/>
<path d="M42.0862 40.3389C41.9445 39.5289 41.778 39.2949 41.8432 38.5839C44.01 37.1394 44.415 41.0634 42.0862 40.3389Z" stroke="#D33833" stroke-width="0.514"/>
<path fill-rule="evenodd" clip-rule="evenodd" d="M45.2251 40.9942C45.2251 40.9942 44.5501 40.0312 45.0316 39.7432C45.5131 39.4552 45.9946 39.7432 46.2826 39.2617C46.5706 38.7802 46.2826 38.4922 46.3794 37.9117C46.4761 37.3312 46.9576 37.2367 47.4369 37.1422C47.9161 37.0477 49.2639 36.8542 49.4574 37.3357L48.8791 35.6032L47.7249 35.2207L44.0686 37.3357L43.8751 38.3932V40.5082L45.2251 40.9942ZM35.1001 44.1667L34.7266 39.6667C34.5016 37.428 35.2666 37.8172 37.2061 37.8172C37.5031 37.8172 39.0061 38.1705 39.1411 38.3955C39.6654 39.4665 38.2411 39.228 39.7486 40.038C40.9996 40.7197 43.2091 39.624 42.7029 38.1075C42.4194 37.77 41.2291 38.0017 40.8016 37.7812L38.5471 36.6112C37.5909 36.1162 35.3814 35.3917 34.3621 36.0847C31.7791 37.8397 34.5241 42.2317 35.4466 44.0632" fill="#EF3D3A"/>
<path fill-rule="evenodd" clip-rule="evenodd" d="M37.6539 10.0872C35.0327 9.47975 33.7299 11.1852 32.9334 12.956C32.2247 12.785 32.4834 11.8197 32.7084 11.327C33.1584 10.0355 35.0709 8.31875 36.6144 8.5505C37.2804 8.65175 38.1804 9.25925 37.6764 10.0872H37.6539ZM50.4294 13.0505L50.5532 13.055C51.1449 14.2857 51.6782 15.5907 52.4049 16.655C51.9032 17.8205 48.6137 18.8532 48.6632 16.7585C49.3742 16.448 50.6027 16.6955 51.2349 16.2972C50.8704 15.296 50.3439 14.4432 50.4249 13.028L50.4294 13.0505ZM38.9949 13.1045C39.5574 14.135 39.7374 15.2195 40.5384 15.9957C40.8984 16.3467 41.5959 16.7742 41.2517 17.7507C41.006 18.1268 40.6533 18.4206 40.2392 18.5945C38.9904 18.9635 36.0767 18.671 37.0892 17.114C38.1242 17.159 39.5102 17.7845 40.2842 17.0352C39.6902 16.0902 38.6349 14.2115 39.0242 13.1067L38.9949 13.1045ZM49.9817 23.5805C48.1007 24.7887 46.0037 26.1005 42.9212 25.799C42.2619 25.2275 42.0122 23.954 42.6512 23.1102C42.9842 23.6817 42.7749 24.737 43.7042 24.8945C45.4524 25.1937 47.4887 23.8257 48.7442 23.3465C49.5249 22.0302 48.6767 21.5465 47.9747 20.7005C46.5347 18.968 44.6064 16.817 44.6762 14.2205C45.2567 13.7997 45.3062 14.864 45.3917 15.0575C46.1432 16.8125 48.0332 19.0625 49.4124 20.57C49.7499 20.9412 50.3124 21.2967 50.3709 21.542C50.5509 22.2552 49.9052 23.108 49.9794 23.5827L49.9817 23.5805ZM25.1619 22.307C24.5724 21.9695 24.4329 20.489 23.7399 20.4462C22.7499 20.3855 22.9299 22.37 22.9344 23.5287C22.2527 22.91 22.1334 21.0087 22.6329 20.03C22.0637 19.751 21.8072 20.3382 21.4922 20.5475C21.8972 17.5955 25.8122 19.1975 25.1597 22.3092L25.1619 22.307ZM51.1584 24.7842C50.2584 26.4492 49.0434 28.2852 46.4739 28.3392C46.4222 27.7992 46.3839 26.9825 46.4762 26.6585C48.4404 26.4695 49.6532 25.4705 51.1562 24.7842H51.1584ZM38.8487 25.8642C40.4867 26.726 43.4994 26.8182 45.7269 26.753C45.8462 27.2412 45.8439 27.8442 45.8484 28.4405C42.9842 28.5822 39.6002 27.878 38.8734 25.8642H38.8487ZM38.5584 27.4707C39.6924 30.317 43.5872 29.9907 46.8722 29.9097C46.7282 30.2787 46.4132 30.7152 46.0239 30.8727C44.9709 31.3227 42.0684 31.6265 40.6082 30.8502C39.6812 30.3552 39.0872 29.2437 38.5787 28.5912C38.3537 28.2762 37.1117 27.4707 38.5607 27.4662" fill="#231F20"/>
<path fill-rule="evenodd" clip-rule="evenodd" d="M49.8241 43.192L45.6436 49.8182C46.3051 47.8742 46.5886 44.6207 46.6876 42.1367C48.0713 41.4887 49.2571 42.283 49.8241 43.1942" fill="#81B0C4"/>
<path fill-rule="evenodd" clip-rule="evenodd" d="M56.9792 51.377C55.4897 51.674 54.4434 53.123 52.9922 53.0285C53.7909 51.9035 55.1882 51.4535 56.9792 51.377V51.377ZM57.6362 53.708C56.4212 53.8362 54.9969 54.0319 53.7662 53.9329C54.3512 53.0419 56.5944 53.348 57.6362 53.708ZM58.0569 55.7149C56.6934 55.7442 54.9969 55.7172 53.7009 55.6092C54.4659 54.7857 57.1727 55.3032 58.0569 55.7149Z" fill="#231F20"/>
<path fill-rule="evenodd" clip-rule="evenodd" d="M47.2567 61.2136C47.4525 62.9236 48.1342 64.6629 48.0442 66.5371C47.2905 66.7914 46.8562 67.0141 45.846 67.0096L45.6255 61.4589C46.1205 61.4926 46.8562 61.1034 47.2545 61.2339" fill="#DCD9D8"/>
<path fill-rule="evenodd" clip-rule="evenodd" d="M45.0586 35.9688C44.3746 36.4188 43.7896 36.9745 43.1326 37.4538C41.6746 37.5258 40.8781 37.3525 39.8071 36.5155C39.8251 36.448 39.9331 36.4773 39.9354 36.3963C41.4969 37.0938 43.4814 36.1128 45.0586 35.9688" fill="#F0D6B7"/>
<path fill-rule="evenodd" clip-rule="evenodd" d="M36.8618 46.6112C37.2893 44.7527 38.9723 43.7897 40.4978 42.7637C42.0728 44.7662 43.0313 47.3312 44.0866 49.8152C41.5936 49.0637 39.0466 47.8442 36.8641 46.6089" fill="#81B0C4"/>
<path fill-rule="evenodd" clip-rule="evenodd" d="M45.6298 61.4619C45.5668 62.9806 45.7783 65.4219 45.8503 67.0126C46.8628 67.0149 47.2948 66.7921 48.0485 66.5401C48.134 64.6636 47.4545 62.9289 47.261 61.2166C46.8628 61.1109 46.1293 61.4979 45.632 61.4416L45.6298 61.4619ZM29.8978 52.8219C30.5638 58.9464 31.529 64.0719 33.2998 69.5169C37.2283 70.7094 41.9623 70.8129 45.4363 69.7374C44.7995 66.6774 45.0763 62.9491 44.705 59.6799L44.183 52.2481C39.9755 51.3706 34.0288 52.0456 29.9 52.8151L29.8978 52.8219ZM45.1978 52.2931C45.1618 54.9256 45.3148 57.5176 45.5173 60.1524L48.1498 59.6934C47.846 57.1576 47.8798 54.3046 47.261 52.0614C46.541 52.0681 45.9133 52.0524 45.1978 52.2931ZM50.321 51.8701C49.8418 51.7576 49.286 51.8656 48.8248 51.8746L49.7248 58.6359C50.4448 58.6584 50.8273 58.3209 51.4235 58.2039C51.455 56.2284 51.2503 53.5059 50.2985 51.8701H50.321ZM58.079 58.9576C59.582 58.5931 60.5248 56.7526 60.104 54.8626C59.8228 53.5936 59.321 51.2019 58.7833 50.3896C58.3873 49.7889 57.3095 49.0014 56.45 49.5526C55.0505 50.4481 52.5868 50.7091 51.5675 51.7914C52.0783 53.4946 52.238 55.8324 52.4495 57.9901C54.1978 58.0981 56.3465 57.5086 57.8 58.1341C56.7875 58.4626 55.469 58.4649 54.5938 58.9441C55.3093 59.2906 56.9878 59.2209 58.0813 58.9554L58.079 58.9576ZM44.111 49.8226C43.0535 47.3409 42.0973 44.7691 40.5223 42.7711C38.9968 43.7949 37.316 44.7579 36.8863 46.6186C39.0688 47.8561 41.618 49.0711 44.1088 49.8249L44.111 49.8226ZM46.712 42.1389C46.613 44.6206 46.3295 47.8764 45.668 49.8204C47.243 47.8111 48.5188 45.4711 49.8485 43.1941C49.2815 42.2851 48.0935 41.4931 46.712 42.1389ZM43.787 41.0904C43.1885 41.0229 42.6845 41.7766 41.9038 41.4504L41.3818 42.0534C43.0985 44.1234 43.8568 47.0574 45.2068 49.4874C45.9178 47.1519 45.8368 44.5936 45.9943 42.0444C45.0178 42.1074 44.4755 41.1601 43.7893 41.0881L43.787 41.0904ZM41.8903 38.5884C41.8273 39.2971 41.9915 39.5289 42.1333 40.3434C44.462 41.0724 44.0548 37.1484 41.8903 38.5884ZM39.3073 37.7401C38.1105 37.0981 36.8287 36.6292 35.5003 36.3474C33.8938 36.0391 34.0445 38.5389 34.112 40.0306C34.166 41.2119 34.7803 42.4606 35.0458 43.2436C35.1718 43.6104 35.1988 43.9974 35.5115 44.0716C36.065 44.1999 37.8898 43.4709 38.4095 43.1874C39.512 42.5866 40.3625 41.6124 41.2963 40.9959L41.3323 40.0621C40.7698 39.7831 40.1218 39.5829 39.296 39.5446C39.8585 39.2634 40.6775 39.2679 41.186 38.9326L41.1995 38.5591C40.268 38.4871 39.917 38.0731 39.3005 37.7379L39.3073 37.7401ZM29.7223 35.9986C28.8898 36.8446 32.0578 37.9966 33.068 38.0596C33.0613 37.5241 33.374 37.0201 33.311 36.6354C32.1118 36.4239 30.5345 36.5634 29.7223 35.9986ZM39.9823 36.3946C39.9778 36.4779 39.8698 36.4464 39.854 36.5139C40.925 37.3509 41.7215 37.5264 43.1795 37.4521L45.1055 35.9671C43.5305 36.1089 41.5438 37.0876 39.9823 36.3946ZM49.4008 39.2521C49.3558 38.3116 49.1083 36.3811 48.5278 36.0436C47.3083 35.3326 45.1415 37.4791 44.2258 37.8076C44.3248 38.0956 44.4913 38.3251 44.5025 38.6896C45.0425 38.5546 45.7063 38.6446 46.1765 38.8786C45.632 38.9394 45.0515 38.9349 44.669 39.1936C44.534 39.5761 44.7005 40.0936 44.6128 40.6246C45.9043 40.9891 47.3803 41.1826 49.0115 41.2321C49.3265 40.8204 49.439 40.0329 49.4008 39.2521ZM28.3183 36.8176C28.0573 36.6309 26.2865 34.3291 26.0683 34.4236C22.8665 35.6836 19.874 37.8661 17.1988 39.9361C19.7503 45.4081 20.7763 52.1154 20.9608 58.5774C23.8858 59.9431 26.4508 61.9141 30.4108 62.1189L29.2723 52.9209C28.2755 52.5001 26.8468 52.9389 25.9153 52.7904C25.9063 51.6654 27.3395 52.2954 27.4588 51.5439C27.5488 50.9724 26.6713 50.9296 26.957 50.0296C27.686 50.2951 28.0685 50.8801 28.847 51.0984C29.558 49.5459 28.838 46.7964 28.937 45.4734C28.9595 45.2304 29.0585 44.1234 29.6053 44.3169C30.089 44.4879 29.5783 47.2644 29.6278 48.4906C29.6728 49.6224 29.4928 50.7406 29.9495 51.4291C33.7813 50.9071 37.6738 50.5696 41.8183 50.4571C40.907 50.0656 39.8225 49.6921 38.6345 49.0261C37.991 48.6661 35.9615 47.9079 35.777 47.2936C35.48 46.3194 36.5555 45.7996 36.7378 44.9649C34.8028 46.0224 34.427 43.9524 33.9703 42.4899C33.5563 41.1624 33.3178 40.1724 33.2188 39.4074C31.5538 38.6131 29.7718 37.8324 28.3363 36.7906L28.3183 36.8176ZM47.7065 34.7026C50.375 33.4089 50.8565 39.5401 49.8103 41.5111C49.9723 42.1006 50.5303 42.3256 50.7553 42.8544L46.0978 50.6461C47.2273 49.9419 48.8428 50.5201 50.1478 49.9711C50.6338 49.7799 50.9848 48.6661 51.3538 47.7774C52.3663 45.3294 53.4283 42.2424 53.9008 39.9024C54.0065 39.3691 54.299 38.2104 54.2338 37.7356C54.1168 36.8874 52.967 36.2574 52.3798 35.7106L49.4998 32.9836C49.043 33.6586 48.0643 34.1086 47.6908 34.6576L47.7065 34.7026ZM22.1735 11.0439C20.9023 12.4434 21.1678 15.0624 21.323 16.9276C23.618 15.4831 26.669 17.0401 26.642 19.4994C27.74 19.4701 27.0515 18.1269 26.8535 17.2651C26.2055 14.4436 27.947 11.3791 26.9323 8.79838C24.9635 8.94688 23.3458 9.75238 22.1735 11.0439ZM31.268 2.92588C28.388 3.74038 24.7025 5.83288 23.5213 8.41588C24.437 8.28088 25.0738 7.82188 25.9738 7.74088C26.3158 7.71838 26.7613 7.88488 27.155 7.78588C27.9358 7.59238 28.595 5.83963 29.1868 5.18713C29.7628 4.55038 30.4535 4.27813 30.926 3.69763C31.2298 3.55138 31.6798 3.56263 31.6955 3.10588C31.5605 2.96413 31.4255 2.88088 31.2455 2.88088L31.268 2.92588ZM46.2463 3.69088C43.2605 2.01013 38.2048 0.743382 35.0278 2.32513C32.4628 3.60313 28.9978 5.71813 27.8165 8.40013C28.919 10.9876 27.4903 13.3569 27.398 15.9826C27.3485 17.3776 28.055 18.5994 28.109 20.1226C27.731 20.7459 26.579 20.8201 25.778 20.7796C25.508 19.4341 25.0355 17.9221 23.654 17.7691C21.6965 17.5554 20.261 19.1776 20.171 20.8741C20.0653 22.8676 21.701 26.1729 24.023 25.9434C24.9185 25.8534 25.139 24.9534 26.1155 24.9646C26.6443 26.0221 25.2988 26.3529 25.1615 27.1066C25.1255 27.3024 25.274 28.0651 25.3595 28.4229C25.7803 30.1644 26.7208 32.4166 27.6455 33.7419C28.82 35.4226 31.124 35.6769 33.608 35.8411C34.0513 34.8871 35.6825 34.9636 36.7468 35.2156C35.4733 34.7116 34.2875 33.4876 33.3043 32.4031C32.1793 31.1611 31.0318 29.8269 30.9755 28.2024C33.1063 31.1589 34.868 33.7419 38.7425 35.0424C41.6743 36.0256 45.101 34.5924 47.3533 33.0084C48.2893 32.3514 48.8473 31.3074 49.5133 30.3534C51.9995 26.7534 53.1583 21.6684 52.9063 16.7184C52.8005 14.6776 52.805 12.6459 52.1188 11.2734C51.4033 9.83788 48.9823 8.55088 47.5648 9.85138C47.3015 8.45638 48.7438 7.59238 50.4358 8.09638C49.2298 6.53938 47.9608 4.66738 46.2463 3.69988V3.69088ZM51.8105 49.7416C54.1438 48.5806 58.5043 46.6186 59.969 49.7461C60.509 50.8981 61.1435 52.8466 61.4225 54.0369C61.8185 55.7154 60.9725 59.2434 59.2693 59.8081C57.746 60.3031 55.9663 60.2761 54.1303 59.9071C53.9143 59.7271 53.6735 59.4121 53.5048 59.0881C52.193 59.0364 50.9668 59.1556 49.9318 59.6956C50.0308 60.6631 49.3738 60.8206 48.7618 61.0231C48.305 62.8299 49.673 65.1901 49.3468 66.8371C49.1128 68.0116 47.6683 68.1916 46.6085 68.4121C46.5748 69.0871 46.6535 69.6091 46.7278 70.1604C46.4848 71.0536 45.3958 71.5644 44.3653 71.6904C40.9723 72.0954 35.8198 72.2821 32.5528 71.1054C31.6415 68.8711 30.9238 66.1554 30.1678 63.6016C26.984 63.9391 24.4078 62.2291 21.9823 61.1041C21.1408 60.7149 19.9573 60.4966 19.6648 59.8306C19.361 59.1826 19.4848 57.9406 19.4105 56.7706C19.2193 53.7781 19.0505 50.8869 18.2855 47.8201C17.93 46.4431 17.3113 45.2326 16.8793 43.9051C16.481 42.6766 15.7835 41.1601 15.6013 39.9316C15.3313 38.1159 17.0413 38.0146 18.1348 37.2271C19.8223 36.0121 21.1498 35.3371 22.9835 34.2391C23.5235 33.9129 25.1615 33.1141 25.346 32.7091C25.715 31.9576 24.7115 30.8979 24.446 30.3084C24.0185 29.3769 23.8003 28.5849 23.7395 27.6646C22.2028 27.4216 21.0395 26.5081 20.3353 25.4776C19.172 23.7721 18.3643 20.6176 19.3723 18.2169C19.451 18.0279 19.8223 17.6544 19.9033 17.3664C20.0158 16.7949 19.6873 16.0344 19.667 15.4269C19.5613 12.3061 20.1958 9.62188 22.295 8.67688C23.15 5.30188 26.1988 4.15438 29.0743 2.46238C30.1498 1.83238 31.3333 1.42738 32.5573 0.977382C36.9448 -0.638118 43.6813 -0.334368 47.324 2.42188C48.8675 3.59188 51.338 6.05563 52.22 7.84438C54.5533 12.5581 54.3868 20.4376 52.7555 26.1729C52.5373 26.9424 52.2155 28.0741 51.7745 28.9989C51.464 29.6446 50.5033 30.9339 50.6203 31.5076C50.7395 32.0971 52.814 33.6721 53.2595 34.1019C54.0605 34.8736 55.5815 35.9019 55.7053 36.8739C55.8403 37.9089 55.2485 39.3309 54.9493 40.3321L51.8443 49.7371" fill="#231F20"/>
<path fill-rule="evenodd" clip-rule="evenodd" d="M36.2406 26.6168C36.3666 26.4481 37.0641 26.1893 38.0406 26.6618C38.0406 26.6618 36.8864 26.8553 36.9831 28.7768L36.5016 28.6801C36.5016 28.6801 36.0066 26.9341 36.2451 26.6146" fill="#F7E4CD"/>
<path fill-rule="evenodd" clip-rule="evenodd" d="M44.6762 43.1596C44.6762 43.4521 44.4399 43.6884 44.1474 43.6884C43.8549 43.6884 43.6187 43.4521 43.6187 43.1596C43.6187 42.8671 43.8549 42.6309 44.1474 42.6309C44.4399 42.6309 44.6762 42.8671 44.6762 43.1596ZM45.2027 45.6346C45.2027 45.9271 44.9664 46.1634 44.6739 46.1634C44.3814 46.1634 44.1452 45.9271 44.1452 45.6346C44.1452 45.3421 44.3814 45.1059 44.6739 45.1059C44.9664 45.1059 45.2027 45.3421 45.2027 45.6346Z" fill="#1D1919"/>
</g>
<defs>
<clipPath id="clip0">
<rect width="72" height="72" fill="white"/>
</clipPath>
</defs>
</svg>
