<svg width="72" height="72" viewBox="0 0 72 72" fill="none" xmlns="http://www.w3.org/2000/svg">
<path d="M69.9123 31.2642C69.0421 29.9775 67.8858 28.9096 66.534 28.1443C65.1822 27.379 63.6716 26.937 62.1204 26.8529C60.5693 26.7688 59.0198 27.045 57.5932 27.6597C56.1666 28.2745 54.9017 29.2111 53.8975 30.3963C53.2152 31.1308 52.6411 31.9589 52.1924 32.8554C51.7483 33.719 51.4037 34.6301 51.1651 35.5715H44.9755C44.8388 35.343 44.7395 35.0941 44.6814 34.8343C43.8392 31.5273 41.7754 29.163 38.6456 27.8597C32.6198 25.3504 26.0794 28.6791 24.3943 35.025C24.2836 35.4419 24.3659 35.9139 23.6608 36.0108C20.7394 36.4123 17.4423 34.7409 16.0578 32.0743C15.1245 30.2765 15.1737 30.1201 17.1803 29.8681C25.5089 28.822 32.3108 20.365 29.4316 10.5577C27.3456 3.45195 19.5583 -1.15961 12.2643 0.35133C5.3881 1.77569 0.533364 7.5089 0.173734 14.6296C-0.15708 21.1799 4.37356 27.4408 10.9522 29.3869C11.9435 29.6802 12.1674 30.1187 12.1625 31.0702C12.1286 37.7115 12.0982 44.3537 12.171 50.9945C12.2382 57.1365 16.7436 62.1367 22.7805 62.7842C23.9181 62.9062 24.303 63.308 24.5881 64.3638C25.7127 68.5278 29.4522 71.4895 33.8068 71.8196C35.8954 71.9873 37.9859 71.5177 39.8022 70.4729C41.6185 69.4281 43.0753 67.8571 43.9804 65.9673C46.642 60.2619 44.0057 53.7466 38.1621 51.5877C32.374 49.4493 26.0753 52.7642 24.4776 58.8733C24.2042 59.9186 23.7452 59.9828 22.8712 59.8381C18.386 59.0956 15.2716 55.522 15.1461 50.8597C15.0957 48.9878 15.1342 47.1134 15.1337 45.2402C15.133 42.2724 15.1335 39.3047 15.1335 35.9951C16.5781 37.1023 17.7944 37.9355 19.2245 38.4204C20.6469 38.8745 22.1405 39.064 23.6312 38.9796C24.3494 38.9547 24.2893 39.4949 24.4021 39.9182C25.1728 42.8118 26.7972 45.069 29.4151 46.5562C30.8033 47.3559 32.3575 47.8239 33.9565 47.9236C35.5555 48.0234 37.1558 47.7522 38.6327 47.1313C40.1095 46.5103 41.4228 45.5564 42.4701 44.344C43.5173 43.1316 44.2702 41.6936 44.6699 40.1422C44.7282 39.8867 44.829 39.6429 44.968 39.4208H51.261C51.301 39.7611 51.3725 40.097 51.4745 40.4241C52.7743 45.104 57.0659 48.0874 61.9732 47.9209C65.9103 47.7872 70.3465 45.3084 71.7032 39.7688C72.0528 38.307 72.0735 36.7859 71.7638 35.3152C71.4541 33.8445 70.8217 32.4609 69.9123 31.2642V31.2642ZM34.5983 53.9747C35.5795 53.9653 36.5527 54.1514 37.4612 54.5222C38.3696 54.8929 39.1951 55.4409 39.8895 56.1342C40.5839 56.8274 41.1333 57.652 41.5055 58.5599C41.8778 59.4677 42.0655 60.4407 42.0577 61.4218C42.0622 62.9007 41.6277 64.3477 40.8092 65.5794C39.9906 66.8111 38.8249 67.7721 37.4597 68.3407C36.0945 68.9093 34.5912 69.0599 33.1404 68.7734C31.6895 68.4869 30.3563 67.7762 29.3097 66.7313C28.2631 65.6864 27.5503 64.3544 27.2614 62.904C26.9725 61.4536 27.1206 59.9501 27.687 58.584C28.2534 57.2178 29.2125 56.0506 30.4429 55.23C31.6732 54.4095 33.1195 53.9726 34.5983 53.9747V53.9747ZM3.25014 14.9811C3.27818 11.8341 4.54937 8.82597 6.78648 6.61257C9.02359 4.39917 12.0451 3.1601 15.1922 3.1656C18.3392 3.17109 21.3564 4.4207 23.5858 6.6419C25.8151 8.8631 27.0758 11.8757 27.0929 15.0227C27.1024 16.5961 26.8004 18.1558 26.2043 19.612C25.6082 21.0681 24.7297 22.3918 23.6195 23.5068C22.5094 24.6218 21.1894 25.506 19.7359 26.1084C18.2824 26.7109 16.724 27.0196 15.1505 27.0169C13.5771 27.0141 12.0198 26.6999 10.5683 26.0924C9.11692 25.4849 7.80011 24.5961 6.69383 23.4773C5.58756 22.3584 4.71371 21.0316 4.12267 19.5734C3.53163 18.1152 3.23508 16.5544 3.25014 14.9811V14.9811ZM34.5472 44.9342C33.0769 44.9208 31.6435 44.472 30.428 43.6446C29.2125 42.8172 28.2694 41.6482 27.7178 40.2852C27.1661 38.9222 27.0306 37.4264 27.3285 35.9865C27.6263 34.5465 28.344 33.2271 29.3911 32.1948C30.4382 31.1625 31.7676 30.4636 33.2116 30.1862C34.6556 29.9088 36.1494 30.0655 37.5044 30.6364C38.8594 31.2073 40.0149 32.1669 40.825 33.394C41.6351 34.6211 42.0635 36.0607 42.0561 37.5311C42.0522 38.5111 41.8546 39.4807 41.4746 40.3841C41.0946 41.2874 40.5396 42.1067 39.8417 42.7948C39.1438 43.4828 38.3168 44.0261 37.4081 44.3932C36.4995 44.7604 35.5272 44.9443 34.5472 44.9342V44.9342ZM58.2178 44.1975C56.5579 43.4019 55.2488 42.0234 54.5398 40.3246C53.8309 38.6259 53.7717 36.7257 54.3736 34.9862C54.9755 33.2467 56.1964 31.7894 57.8035 30.892C59.4107 29.9947 61.2919 29.72 63.0885 30.1203C64.8852 30.5207 66.4717 31.568 67.5459 33.0629C68.62 34.5577 69.1067 36.3954 68.9131 38.2259C68.7194 40.0565 67.8591 41.7517 66.496 42.9888C65.1329 44.2258 63.3624 44.9181 61.5217 44.9337C61.4521 44.9339 61.3834 44.9309 61.3142 44.9293C60.2434 44.8961 59.1902 44.6472 58.2178 44.1975V44.1975Z" fill="#2671E5"/>
<path d="M21.3025 12.5342C18.8546 10.9189 16.3729 9.35533 13.8572 7.84345C11.6383 6.50343 9.24932 7.85601 9.18651 10.452C9.14951 11.9822 9.17977 13.514 9.18159 15.0451C9.18341 16.6187 9.15365 18.193 9.19028 19.7657C9.24713 22.2057 11.5888 23.6067 13.6809 22.3886C16.2514 20.8919 18.7826 19.3282 21.2745 17.6974C23.3481 16.3414 23.353 13.8873 21.3025 12.5342ZM19.2642 15.4505C17.128 16.7706 14.9927 18.0923 12.8584 19.4155C12.4879 19.6449 12.2018 19.6671 12.2009 19.1172C12.1962 16.2789 12.1987 13.4407 12.1987 10.3337C14.7017 11.9064 16.9929 13.3437 19.2809 14.7862C19.6274 15.0047 19.6175 15.2322 19.2642 15.4505V15.4505Z" fill="#2671E5"/>
<path d="M31.5727 62.8752C32.4786 62.8161 33.031 62.3043 33.0657 61.4543C33.0872 61.2629 33.0671 61.0691 33.0068 60.8861C32.9464 60.7032 32.8473 60.5354 32.7161 60.3944C32.585 60.2533 32.4249 60.1422 32.2468 60.0687C32.0688 59.9952 31.8769 59.961 31.6844 59.9686C30.7362 59.9322 30.1672 60.4606 30.1535 61.4216C30.1404 62.3397 30.7223 62.7631 31.5727 62.8752Z" fill="#2671E5"/>
<path d="M37.6401 62.8565C38.5162 62.7271 39.0774 62.257 39.0307 61.3407C38.9848 60.4397 38.4137 59.9273 37.5145 59.9692C36.6232 60.0107 36.076 60.5634 36.1134 61.4622C36.1508 62.3624 36.7459 62.804 37.6401 62.8565Z" fill="#2671E5"/>
<path d="M65.3866 36.6526C65.7283 36.3119 66.0039 35.9455 65.966 35.3896C65.984 35.1166 65.9158 34.8448 65.7709 34.6127C65.626 34.3806 65.4119 34.1999 65.1587 34.0961C64.8932 33.9512 64.5871 33.8988 64.2885 33.9472C63.99 33.9956 63.716 34.142 63.5099 34.3633C62.7181 35.0743 61.965 35.8273 61.2538 36.6189C60.4475 37.5664 59.7832 38.0111 58.795 36.781C58.214 36.0578 57.3353 36.0722 56.6602 36.7778C56.0259 37.4409 56.1284 38.1941 56.7138 38.8407C57.3416 39.534 58.0116 40.1919 58.695 40.8313C59.6406 41.716 60.2834 41.7177 61.2281 40.8C62.6322 39.436 64.0002 38.035 65.3866 36.6526Z" fill="#2671E5"/>
<path d="M38.3225 34.1268C38.0655 33.9675 37.7625 33.8989 37.4619 33.9319C37.1613 33.965 36.8804 34.0978 36.6642 34.3092C35.8976 34.9817 35.1679 35.6951 34.4783 36.4465C33.6408 37.3851 32.9248 38.1199 31.8023 36.7143C31.2537 36.0274 30.3944 36.1241 29.768 36.7633C29.129 37.4153 29.1944 38.1648 29.7919 38.8166C30.4516 39.5363 31.1631 40.2091 31.8588 40.8954C32.6903 41.7155 33.5052 41.6344 34.3027 40.8361C35.684 39.4534 37.0667 38.072 38.4508 36.6921C38.8212 36.3228 39.1386 35.9316 39.0812 35.3718C39.0903 35.1128 39.0233 34.8569 38.8885 34.6356C38.7537 34.4143 38.5569 34.2374 38.3225 34.1268V34.1268Z" fill="#2671E5"/>
</svg>
