<svg width="72" height="58" viewBox="0 0 72 58" fill="none" xmlns="http://www.w3.org/2000/svg">
<path fill-rule="evenodd" clip-rule="evenodd" d="M24.7202 21.1172C26.9101 21.1172 28.683 22.89 28.683 25.08C28.683 27.27 26.9101 29.0428 24.7202 29.0428C22.5302 29.0428 20.7573 27.27 20.7573 25.08C20.7573 22.89 22.5302 21.1172 24.7202 21.1172Z" fill="#73C3D5"/>
<path d="M24.7202 19.1699C26.354 19.1699 27.8314 19.8304 28.8916 20.8906C29.9518 21.9682 30.6123 23.4282 30.6123 25.062C30.6123 26.6958 29.9518 28.1558 28.8916 29.2334C27.8314 30.2936 26.354 30.9541 24.7202 30.9541C23.0864 30.9541 21.6264 30.2936 20.5488 29.2334C19.4712 28.1558 18.8281 26.6958 18.8281 25.062C18.8281 23.4282 19.4886 21.9682 20.5488 20.8906C21.6091 19.8304 23.0864 19.1699 24.7202 19.1699ZM28.3528 21.4468C27.4316 20.5256 26.1454 19.9521 24.7202 19.9521C23.3124 19.9521 22.0262 20.5256 21.0876 21.4468C20.1664 22.368 19.5929 23.6542 19.5929 25.0794C19.5929 26.4872 20.1664 27.7734 21.0876 28.712C22.0088 29.6332 23.295 30.2067 24.7202 30.2067C26.1454 30.2067 27.4142 29.6332 28.3528 28.712C29.274 27.7908 29.8649 26.5046 29.8649 25.0794C29.8476 23.6542 29.274 22.368 28.3528 21.4468Z" fill="#FF7F40"/>
<path fill-rule="evenodd" clip-rule="evenodd" d="M47.037 21.1172C49.227 21.1172 50.9999 22.89 50.9999 25.08C50.9999 27.27 49.227 29.0428 47.037 29.0428C44.8471 29.0428 43.0742 27.27 43.0742 25.08C43.0742 22.89 44.8471 21.1172 47.037 21.1172Z" fill="#73C3D5"/>
<path d="M47.0371 19.1699C48.6709 19.1699 50.1309 19.8304 51.2085 20.8906C52.2861 21.9682 52.9292 23.4282 52.9292 25.062C52.9292 26.6958 52.2687 28.1558 51.2085 29.2334C50.1483 30.2936 48.6709 30.9541 47.0371 30.9541C45.4033 30.9541 43.9259 30.2936 42.8657 29.2334C41.8055 28.1558 41.145 26.6958 41.145 25.062C41.145 23.4282 41.8055 21.9682 42.8657 20.8906C43.9259 19.8304 45.4033 19.1699 47.0371 19.1699ZM50.6523 21.4468C49.7311 20.5256 48.445 19.9521 47.0197 19.9521C45.5945 19.9521 44.3257 20.5256 43.3871 21.4468C42.466 22.368 41.875 23.6542 41.875 25.0794C41.875 26.4872 42.4486 27.7734 43.3871 28.712C44.3083 29.6332 45.5945 30.2067 47.0197 30.2067C48.4276 30.2067 49.7138 29.6332 50.6523 28.712C51.5735 27.7908 52.1471 26.5046 52.1471 25.0794C52.1645 23.6542 51.5909 22.368 50.6523 21.4468Z" fill="#FF7F40"/>
<path fill-rule="evenodd" clip-rule="evenodd" d="M71.6801 2.86784C70.3244 5.10996 67.8216 8.75994 67.3002 9.73326L66.9526 5.56186L60.0871 12.8097C57.7233 8.32542 53.4129 5.02306 48.2856 4.04973C46.9994 1.77284 41.8025 0.121666 36.4666 0C36.2754 0 36.0669 0 35.8757 0C35.6845 0 35.4759 0 35.2847 0C29.9488 0.121666 24.7519 1.77284 23.4658 4.04973C18.3384 5.02306 14.028 8.32542 11.6642 12.8097L4.79877 5.54448L4.45116 9.71588C3.92973 8.75994 1.42689 5.09258 0.0711904 2.85046C-0.293807 4.1714 0.888089 14.4782 1.20094 15.7992C1.5138 17.1027 3.66902 26.0712 5.3202 25.9322C5.54615 25.8453 5.99805 24.0377 6.53685 22.4039L10.3085 29.4084C12.0813 36.465 17.8518 41.9921 25.03 43.3999C25.0996 42.8785 25.2212 42.3745 25.4124 41.9052C17.3825 40.3757 11.2644 33.2843 11.2644 24.8198V20.5615C11.2644 13.2963 16.3918 7.1609 23.2224 5.63139C23.2398 5.68353 23.2572 5.73567 23.2746 5.78782L27.2895 16.6335C27.7936 17.9892 28.6452 19.1711 30.2617 19.1711H35.8757H41.4897C43.1061 19.1711 43.9577 17.9892 44.4618 16.6335L48.4768 5.82258C48.4941 5.77043 48.5115 5.71829 48.5289 5.66615C55.3422 7.21304 60.4869 13.3311 60.4869 20.5963V24.8546C60.4869 33.319 54.3688 40.4104 46.3389 41.9399C46.5301 42.4092 46.6518 42.9133 46.7213 43.4347C53.9169 42.0268 59.67 36.4997 61.4428 29.4431L65.2145 22.4386C65.7707 24.0551 66.2052 25.8627 66.4311 25.967C68.0823 26.1234 70.2375 17.1375 70.5504 15.8339C70.8632 14.4782 72.0451 4.18878 71.6801 2.86784ZM5.65043 18.6496L4.97258 23.0817C2.99117 17.3461 1.94832 13.0356 1.13142 6.88281L5.33758 14.5825L6.11972 8.75994L10.969 14.3044C10.1694 16.2511 9.73492 18.3715 9.73492 20.5963V24.8546C9.73492 25.0979 9.73492 25.3412 9.75231 25.5846L5.65043 18.6496ZM47.0168 5.28377L43.0018 16.0946C42.7063 16.8768 42.3066 17.6242 41.4723 17.6242H35.8757H30.279C29.4448 17.6242 29.045 16.8768 28.7495 16.0946L24.7346 5.28377C24.2653 3.99759 30.1574 2.25951 35.893 2.20737C41.594 2.25951 47.5034 3.99759 47.0168 5.28377ZM66.7614 23.0817L66.0835 18.6496L61.9816 25.5846C61.999 25.3412 61.999 25.0979 61.999 24.8546V20.5963C61.999 18.3715 61.5645 16.2511 60.765 14.3044L65.6142 8.75994L66.3964 14.5825L70.6025 6.88281C69.7856 13.0182 68.7602 17.3461 66.7614 23.0817Z" fill="#73C3D5"/>
<path d="M42.9874 37.5945H35.8787H28.7699C23.6947 37.5945 20.9833 35.0917 20.0621 34.0488L19.2974 34.6745C20.3402 35.8564 23.3123 38.5678 28.7699 38.5678H35.8787H42.9874C48.4276 38.5678 51.3997 35.8564 52.4599 34.6745L51.6952 34.0488C50.774 35.1091 48.0626 37.5945 42.9874 37.5945Z" fill="#73C3D5"/>
<path fill-rule="evenodd" clip-rule="evenodd" d="M44.951 40.2533C44.1167 39.8188 43.2129 39.8536 42.3439 40.1838C41.4401 40.5314 40.5363 41.0181 39.702 41.4874C39.2849 41.7133 38.8503 41.9567 38.4332 42.2C38.0161 41.9567 37.5294 41.835 37.0253 41.835H34.7485C34.227 41.835 33.7577 41.974 33.3406 42.2C32.9235 41.9567 32.4889 41.7133 32.0718 41.4874C31.2201 41.0181 30.3337 40.5314 29.4299 40.1838C28.5782 39.8536 27.657 39.8188 26.8228 40.2533C24.8935 41.244 24.6154 43.9902 24.7718 45.9021C24.9282 47.7966 25.6756 50.8383 27.883 51.2728C28.2654 51.3423 28.6478 51.3249 29.0301 51.238C30.4728 50.8556 32.0892 50.0561 33.5318 49.1523C33.8968 49.3261 34.3139 49.4304 34.7658 49.4304H37.0427C37.4773 49.4304 37.8944 49.3261 38.2768 49.1523C39.7368 50.0387 41.3532 50.8556 42.7784 51.238C43.1434 51.3423 43.5432 51.3597 43.9256 51.2728C46.1329 50.8383 46.8977 47.7966 47.0367 45.9021C47.1584 43.9902 46.8803 41.2267 44.951 40.2533ZM28.5956 49.7433C25.9016 50.4733 24.9109 40.0969 28.8389 41.5917C29.708 41.9219 30.8204 42.5302 32.1935 43.295C31.9675 43.7121 31.8285 44.1814 31.8285 44.6854V44.8766C31.1854 44.6681 30.3163 44.4595 29.2039 44.1988C31.0637 45.3633 30.4901 45.0678 31.7416 45.6935C30.3511 46.5104 30.9942 46.1107 29.0649 47.5533C30.2468 47.1709 31.168 46.8407 31.8458 46.5626C31.8632 47.1188 32.0197 47.6228 32.2977 48.0573C31.1854 48.7352 29.847 49.413 28.5956 49.7433ZM43.1434 49.7433C41.892 49.413 40.5537 48.7352 39.4587 48.0747C39.7194 47.6576 39.8758 47.1883 39.9106 46.6669C40.571 46.9276 41.4227 47.223 42.4656 47.5707C40.6058 46.1802 41.1272 46.5104 39.9106 45.7978V45.6588C40.9882 45.12 40.5363 45.3633 42.3265 44.2335C41.3358 44.4595 40.5363 44.6681 39.9106 44.8419V44.7202C39.9106 44.2162 39.7715 43.7469 39.5456 43.3297C40.9013 42.5476 42.031 41.9567 42.9001 41.6264C46.8282 40.0969 45.8375 50.4733 43.1434 49.7433Z" fill="#FF7F40"/>
</svg>
