<svg width="72" height="72" viewBox="0 0 72 72" fill="none" xmlns="http://www.w3.org/2000/svg">
<g clip-path="url(#clip0)">
<path d="M32.0231 58.3906C32.0287 58.3906 32.0344 58.4097 32.0344 58.4469L32.0535 59.2344L32.1716 58.6336C32.1401 58.2556 31.8431 58.448 32.0231 58.4041V58.3906ZM48.285 37.1945C48.2794 37.2001 48.2659 37.2001 48.2602 37.2057C48.2659 37.2114 48.2794 37.217 48.285 37.2249C48.2794 37.2192 48.285 37.2057 48.285 37.1934V37.1945Z" fill="#FEFEFE"/>
<path d="M46.7495 63.4305L46.898 60.7283C47.1455 58.764 46.9092 56.757 47.4245 54.8153C47.6787 53.8118 46.8665 52.6328 47.9082 51.753L47.6495 50.898C47.357 50.4143 47.5066 49.944 47.681 49.4727C47.6618 47.7492 47.681 46.0268 47.9903 44.3224L48.275 37.2124C48.2693 37.2068 48.2558 37.2012 48.2502 37.1933C43.1877 39.5175 38.4143 36.264 37.6021 32.3592C37.0688 29.7942 37.3546 27.3698 39.3571 25.4112C39.6912 25.0827 39.9758 24.7047 40.2863 24.3447C41.1042 19.4397 40.5113 14.9397 36.3443 11.4342C36.9698 11.0742 37.5346 11.2789 38.0318 11.1867C32.9018 9.89292 26.6693 13.4085 24.6038 18.777C23.9851 20.388 23.6498 22.0395 23.7545 23.7788C28.8507 21.4163 33.4295 24.2378 34.6748 28.533C35.9821 33.0015 32.4991 37.731 27.8686 37.7985C26.5186 37.8177 25.2361 37.5938 23.9581 37.2158L24.2427 44.616C24.4227 46.2338 24.614 47.8448 24.5352 49.476L24.5723 50.6292L24.5352 51.3975C24.9132 52.9467 24.9942 54.5397 25.1112 56.127C25.1 56.0864 25.0917 56.0451 25.0865 56.0033C25.0921 56.0483 25.1056 56.0843 25.1112 56.1158L25.5016 64.2102C25.5826 65.3262 25.1798 65.883 24.1516 66.1677C22.9366 66.5085 21.7407 66.918 20.5381 67.3017C22.1491 67.5244 23.7365 67.5492 25.3227 67.512C27.0395 67.4749 27.8202 66.7245 27.989 65.0078L28.286 61.7543L28.6201 55.8537H28.862V61.4629L28.961 64.0167C29.2085 67.9767 29.3266 67.9519 25.379 68.7417C25.2856 68.7608 25.2057 68.8159 25.1202 68.8542L25.8267 69.3267C25.901 69.3458 25.9617 69.3762 26 69.4448C26.9416 69.4504 27.89 69.5314 28.8203 69.4448C30.5123 69.2839 31.3122 68.3783 31.436 66.6998C31.5102 65.6198 31.6216 64.5432 31.715 63.4643C31.5665 62.0322 31.7825 60.6259 32.0491 59.2185L32.03 58.431C32.03 58.3939 32.0187 58.3692 32.0187 58.3748C31.8387 58.4198 32.1368 58.2263 32.1672 58.6043L32.2662 58.1025V64.5983L32.3225 66.8787C32.354 69.6372 32.1796 69.8847 29.5516 70.6722C28.826 70.8893 28.07 71.0097 27.3511 71.2605C26.8302 71.4405 26.1676 71.3415 25.6782 71.9547C27.8157 71.8737 29.8182 72.1155 31.8095 71.7938C33.8682 71.4597 34.685 70.6283 35.1057 68.6213C35.4151 67.1588 35.5557 65.6288 36.1092 64.1213C36.1902 64.2822 36.2521 64.3463 36.2701 64.443L37.1138 68.6325C37.4986 70.5844 38.2917 71.4158 40.2638 71.7623C42.3158 72.1155 44.3926 71.8748 46.5188 71.9232C46.2151 71.4023 45.7381 71.4889 45.3533 71.3775C44.0337 70.9928 42.6871 70.6643 41.3933 70.2188C40.4517 69.8903 39.7756 69.2895 39.788 68.1297L39.7992 58.6099H40.1851L40.5878 64.5724C40.8297 69.1714 41.3753 69.6732 45.9923 69.4189C46.2511 68.9847 46.8923 69.3255 47.1331 68.8609C46.0238 68.8553 45.0563 68.3209 44.0393 67.9812C43.469 67.7899 43.1472 67.2747 43.1596 66.6312C43.2091 63.3709 43.0853 60.0983 43.5252 56.8504L44.2137 65.0382C44.3127 66.315 44.8887 67.3129 46.2387 67.4007C48.0387 67.5132 49.8646 67.4322 51.6803 67.4322C50.7196 66.9484 49.7341 66.6638 48.7553 66.3522C46.5368 65.6389 46.5503 65.6322 46.7528 63.3777L46.7495 63.4305ZM32.7916 16.9287C32.7872 17.3644 32.6121 17.7811 32.304 18.0892C31.9959 18.3973 31.5792 18.5724 31.1435 18.5768C30.1703 18.5959 29.4391 18.0368 29.42 16.7734C29.5257 15.8565 30.0387 15.2299 31.13 15.2052C32.2887 15.186 32.8096 15.9679 32.7905 16.9287H32.7916ZM40.2413 44.0378C40.247 46.5465 38.3266 48.7358 36.1317 48.729C34.0617 48.7234 31.9467 46.281 32.0221 43.9748L31.6373 41.6505C33.119 42.6608 34.3643 43.6958 36.0316 43.7318C37.736 43.7633 39.0747 42.888 40.4697 41.8665C40.7667 42.6844 40.0175 43.3234 40.2402 44.0355L40.2413 44.0378Z" fill="#FE733E"/>
<path d="M24.5418 49.4781L24.1818 49.3352C22.4943 48.6411 21.0149 47.5746 19.6514 46.3911C14.7307 42.1386 11.4839 36.8151 10.6964 30.3576C9.8043 23.0192 11.4468 16.2445 16.3439 10.4249C20.8124 5.11936 26.5083 2.02674 33.3089 1.31236C40.8644 0.524861 47.6504 2.63986 53.3654 7.85761C58.1321 12.208 60.9029 17.6001 61.6274 23.9406C62.2349 29.3406 61.2618 34.5572 58.4853 39.2991C55.9631 43.6079 52.6038 47.1021 48.0599 49.315L47.6887 49.495C47.5154 49.9675 47.3602 50.4366 47.6572 50.9204C47.7629 50.827 47.8552 50.71 47.9789 50.6414C54.8414 47.0099 59.6002 41.611 61.8254 34.0994C62.0167 33.4615 62.3148 33.1454 63.0292 33.2196C63.9967 33.3186 64.2667 32.674 64.2667 31.8696L64.2723 22.5974C64.2723 21.9224 64.1114 21.2024 63.4229 21.1281C62.1584 20.9796 62.0032 20.056 61.7501 19.1571C60.2482 13.9281 57.3974 9.56536 53.1224 6.22411C44.3834 -0.638389 34.7894 -1.87589 24.7241 2.75911C17.2529 6.19936 12.4874 12.1686 10.3308 20.1572C10.1958 20.6522 10.2566 21.2417 9.41393 21.0572C8.21018 20.8097 7.76018 21.5162 7.75343 22.5816L7.7478 31.8539C7.7478 32.8832 8.26868 33.4289 9.2598 33.1859C10.1598 32.9631 10.3882 33.4154 10.5738 34.1084C11.3793 37.0705 12.7248 39.7784 14.5451 42.2534C17.2113 45.8669 20.4581 48.7784 24.5857 50.6144L24.5407 49.4556L24.5418 49.4781Z" fill="#B5D2F3"/>
<path d="M24.5476 51.3878C23.6307 53.9596 21.1883 53.8966 19.1116 54.5423C20.6731 54.9451 22.2616 55.4086 23.8219 55.1431C24.7512 54.9822 24.9312 55.3163 25.0673 55.8687L25.0988 55.9992L25.1236 56.1117C25.0054 54.5187 24.9256 52.9325 24.5476 51.3867V51.3878Z" fill="#FE684B"/>
<path d="M47.4243 54.822C49.4076 55.722 51.2796 54.8164 53.1955 54.5554C51.3235 53.7623 48.9003 54.1706 47.9148 51.7598C46.8685 52.6395 47.6898 53.8185 47.4254 54.822H47.4243Z" fill="#FE6446"/>
<path d="M32.2706 58.1172L32.1716 58.6189L32.0534 59.2197C31.7868 60.6259 31.5697 62.0322 31.7193 63.4654C32.1839 63.7073 31.8318 64.3452 32.2818 64.6062V58.1172H32.2706Z" fill="#FED6C8"/>
<path d="M28.6312 55.8507L28.2971 61.7514L28.8731 61.4589V55.8496H28.6312V55.8507Z" fill="#FEEBE3"/>
<path d="M22.8071 69.4494H26.0055L25.8323 69.3313L25.1258 68.8588C24.4249 68.8217 23.7679 68.9769 22.8083 69.4472L22.8071 69.4494Z" fill="#FE9166"/>
<path d="M45.999 69.4484H49.1108C48.4785 69.0827 47.8587 68.7734 47.1398 68.8904C46.8979 69.3629 46.2533 69.0029 45.999 69.4484Z" fill="#FE8F64"/>
<path d="M48.0634 49.2969C52.6061 47.0919 55.9609 43.5954 58.4888 39.281C61.2653 34.5391 62.2384 29.3214 61.6309 23.9225C60.9188 17.5775 58.14 12.1854 53.37 7.85188C47.655 2.6285 40.8679 0.509 33.3225 1.30212C26.5298 2.00862 20.8271 5.108 16.3575 10.4146C11.4458 16.2331 9.81002 23.0056 10.7021 30.3451C11.4896 36.8094 14.7375 42.1273 19.6571 46.3786C21.0274 47.5621 22.4955 48.6343 24.1875 49.3228C24.3056 49.3722 24.4125 49.4217 24.5475 49.4656C24.6285 47.8344 24.435 46.2256 24.255 44.6056L23.8838 44.339C22.626 43.439 21.5471 42.3061 20.4638 41.2025C20.1353 40.8684 19.7258 40.5837 19.7258 40.037C18.9945 40.5635 18.468 40.1979 18.0383 39.6151C15.6578 36.3672 14.22 32.7661 14.0288 28.7026C13.8555 25.1206 14.1773 21.6376 15.6825 18.2851C17.5973 14.027 20.5425 10.7735 24.4958 8.35588C25.1651 7.94637 25.5499 8.31087 26.0145 8.61462C26.4668 8.56962 26.8695 8.41663 27.162 8.04425L27.1058 7.91375C26.7086 7.07675 26.6895 6.12838 27.6458 5.90563C28.6065 5.67613 29.1533 6.46813 29.1578 7.46712C36.3285 5.12262 42.9975 6.07775 49.0163 10.67C53.5163 14.1035 56.0948 18.7081 56.8913 24.3241C57.9083 31.5444 55.4659 37.5316 50.4338 42.5941C49.8375 43.1904 49.1693 43.7281 48.4133 44.1309C48.2844 44.1975 48.1542 44.2616 48.0229 44.3232C47.7135 46.0276 47.6944 47.7511 47.7135 49.4735L48.0735 49.2935L48.0634 49.2969Z" fill="#E2F5FC"/>
<path d="M50.4226 42.6146C55.4491 37.5521 57.8926 31.5638 56.8801 24.3446C56.0926 18.723 53.5141 14.1071 49.0051 10.6905C42.9976 6.08589 36.3117 5.13864 29.1601 7.48764C29.1488 7.49327 29.1353 7.50677 29.123 7.51239C28.5605 7.87239 28.1195 8.64639 27.3072 8.16264C27.2577 8.13114 27.2138 8.10639 27.1643 8.06927C26.8718 8.44052 26.4758 8.59577 26.0168 8.63964C25.9977 8.71389 25.9718 8.78252 25.9493 8.85677C25.4352 10.3013 23.8906 10.6793 22.8556 11.5568C20.0476 13.9058 17.9652 16.7318 16.7378 20.1293C14.7668 25.6193 15.1696 31.0001 17.81 36.1943C18.2375 37.038 18.764 37.8368 19.3287 38.5995C19.6409 39.0125 19.783 39.5295 19.7258 40.044C19.7258 40.602 20.1353 40.8934 20.4638 41.2275C21.5551 42.33 22.6272 43.4528 23.8838 44.364L24.2551 44.6306L23.9705 37.2304C21.8138 35.8174 20.2388 34.0196 19.9655 31.3421C19.6246 28.0391 21.0117 25.5968 23.7151 23.8181C23.7263 23.8125 23.7398 23.799 23.7522 23.7934C23.6465 22.0575 23.9817 20.3959 24.6016 18.7916C26.6558 13.4209 32.8906 9.89964 38.0285 11.1878C41.4563 11.7458 44.2576 13.3028 46.2657 16.158C47.8711 18.4451 48.7013 20.9674 48.5157 23.781C50.4507 25.2503 52.0111 26.9726 52.2653 29.5208C52.6062 32.9486 51.1437 35.4518 48.2603 37.2V37.2315L47.9757 44.3415C48.1107 44.2796 48.2423 44.229 48.3661 44.1503C49.1345 43.7475 49.8038 43.2086 50.399 42.6068L50.4226 42.6146Z" fill="#CDECF6"/>
<path d="M42.0637 23.5038C44.2012 22.4575 46.2532 23.02 48.3052 23.695L48.5347 23.7693C48.708 20.9489 47.8777 18.4255 46.2847 16.1463C44.2766 13.2888 41.4754 11.7329 38.0666 11.1816C37.5401 11.2806 36.9754 11.0691 36.3499 11.4291C40.5394 14.9369 41.1165 19.4369 40.2919 24.3396L42.0772 23.5026L42.0637 23.5038Z" fill="#FE6B3C"/>
<path d="M52.2901 29.515C52.0358 26.968 50.4743 25.2445 48.5405 23.7752L48.311 23.701C46.2522 23.026 44.1957 22.4612 42.0695 23.5097L40.6745 24.1847L40.2897 24.3647L39.3605 25.4312C37.3523 27.3887 37.0733 29.8131 37.6055 32.3792C38.4177 36.2897 43.19 39.5455 48.2592 37.2257C48.2648 37.2201 48.2783 37.2201 48.284 37.2145C51.1662 35.4595 52.6343 32.9395 52.289 29.5307L52.2901 29.515ZM44.7098 36.364C41.4192 36.3392 38.8531 33.7236 38.8823 30.4206C38.9138 27.1671 41.5823 24.5886 44.8505 24.6133C48.1467 24.6381 50.6701 27.2346 50.6442 30.5691C50.6195 33.8788 48.041 36.3966 44.7065 36.3628L44.7098 36.364Z" fill="#FE6142"/>
<path d="M23.7116 23.7946C21.0093 25.5721 19.6211 28.0156 19.9619 31.3186C20.2342 33.9961 21.8092 35.7939 23.9534 37.2001C25.2427 37.5849 26.5184 37.8076 27.8763 37.7885C32.4888 37.721 35.9898 32.996 34.6826 28.523C33.4451 24.23 28.8494 21.4096 23.7701 23.7721C23.7453 23.7777 23.7329 23.7912 23.7206 23.7969L23.7116 23.7946ZM27.4061 36.3642C24.0277 36.3755 21.4132 33.7857 21.4256 30.4265C21.4312 27.1302 24.0041 24.5765 27.3206 24.5574C30.6731 24.5382 33.3506 27.1786 33.3393 30.4749C33.3281 33.7149 30.6686 36.3507 27.4083 36.3631L27.4061 36.3642Z" fill="#FE6143"/>
<path d="M32.8051 44.5202C32.5756 44.2907 32.408 43.9802 32.0244 43.9746C31.9501 46.2809 34.0572 48.7221 36.134 48.7289C38.3345 48.7345 40.2492 46.5464 40.2436 44.0376C39.4134 44.4651 38.8857 45.3449 37.9317 45.6059C36.0192 46.1267 34.2811 45.9962 32.8062 44.5214L32.8051 44.5202Z" fill="#070909"/>
<path d="M40.4708 41.8683C39.0758 42.8808 37.7438 43.7651 36.0327 43.7336C34.3598 43.7021 33.1077 42.6615 31.6384 41.6523L32.0232 43.9766C32.4079 43.9878 32.5857 44.2916 32.8039 44.5222C34.2732 45.9847 36.0271 46.1276 37.9294 45.6067C38.8834 45.348 39.4111 44.4727 40.2413 44.0385C40.0186 43.3252 40.7678 42.6885 40.4708 41.8695V41.8683Z" fill="#FDFCFB"/>
<path d="M31.1311 15.2096C30.0343 15.2287 29.5201 15.8542 29.4211 16.7778C29.4403 18.0423 30.1715 18.5936 31.1446 18.5812C31.5804 18.5768 31.9971 18.4017 32.3052 18.0936C32.6133 17.7855 32.7884 17.3688 32.7928 16.9331C32.8119 15.9656 32.291 15.1848 31.1323 15.2096H31.1311Z" fill="#FEA777"/>
<path d="M19.7147 40.028C19.7718 39.5134 19.6297 38.9965 19.3175 38.5835C18.7595 37.8207 18.2263 37.022 17.7988 36.1782C15.1584 30.9841 14.7613 25.6032 16.7267 20.1132C17.9642 16.7045 20.0364 13.892 22.8444 11.5407C23.8794 10.6745 25.4229 10.301 25.9382 8.84072C25.9629 8.77322 25.9877 8.69784 26.0057 8.62359C25.541 8.31984 25.1563 7.95422 24.4869 8.36484C20.5325 10.7836 17.5884 14.0348 15.6737 18.2941C14.1662 21.6466 13.8455 25.1307 14.0199 28.7116C14.2179 32.7593 15.6512 36.3661 18.0294 39.6241C18.4569 40.2068 18.9902 40.5725 19.7169 40.046L19.7147 40.028Z" fill="#FDFEFE"/>
<path d="M29.1038 7.5133C29.1151 7.50767 29.1286 7.49417 29.1409 7.48855C29.1297 6.4783 28.5784 5.69755 27.6289 5.92705C26.6794 6.15655 26.6929 7.10492 27.0889 7.93517L27.1452 8.06567C27.191 8.09943 27.2387 8.13061 27.2881 8.15905C28.1003 8.64842 28.5402 7.86655 29.1038 7.51442V7.5133Z" fill="#FBFDFE"/>
<path d="M50.6475 30.5746C50.6722 27.2468 48.15 24.6492 44.8537 24.6188C41.5687 24.5941 38.916 27.1726 38.8856 30.4261C38.8702 31.201 39.0095 31.9711 39.2954 32.6915C39.5813 33.4119 40.008 34.068 40.5505 34.6215C41.0931 35.1749 41.7406 35.6146 42.4551 35.9147C43.1697 36.2149 43.9369 36.3695 44.712 36.3695C48.0465 36.3942 50.625 33.8776 50.6497 30.5757L50.6475 30.5746ZM45 31.2192C43.884 31.2383 43.2337 30.6061 43.1347 29.5092C43.0414 28.4967 43.9594 27.5326 44.9752 27.6001C46.0665 27.6811 46.6796 28.3201 46.809 29.4597C46.6605 30.4767 46.1396 31.2012 45.009 31.2203L45 31.2192ZM27.3183 24.5626C24.003 24.5817 21.4368 27.1343 21.4233 30.4317C21.4177 33.791 24.0266 36.3942 27.4038 36.3695C30.6641 36.3582 33.3213 33.7235 33.3348 30.488C33.3405 27.185 30.6641 24.5446 27.3161 24.5626H27.3183ZM27.324 31.2192C26.2215 31.2305 25.5577 30.6005 25.4711 29.4901C25.3901 28.4776 26.3148 27.5191 27.3363 27.6057C28.4163 27.6991 29.0464 28.3257 29.1364 29.4653C29.0014 30.5116 28.4298 31.2068 27.3138 31.2203L27.324 31.2192Z" fill="#FEFEFE"/>
<path d="M44.9776 27.5998C43.9606 27.5255 43.0426 28.4795 43.1371 29.5089C43.2361 30.6114 43.8875 31.238 45.0023 31.2189C46.1363 31.1998 46.6628 30.4764 46.8023 29.4583C46.6718 28.3175 46.0598 27.6808 44.9686 27.5986L44.9776 27.5998Z" fill="#090B0B"/>
<path d="M27.3374 27.6071C26.3249 27.5204 25.3912 28.4688 25.4722 29.4914C25.5588 30.6007 26.2226 31.2329 27.3251 31.2206C28.4411 31.2093 29.0126 30.5141 29.1476 29.4656C29.0418 28.3181 28.4096 27.6926 27.3476 27.6059L27.3374 27.6071Z" fill="#090C0C"/>
</g>
<defs>
<clipPath id="clip0">
<rect width="72" height="72" fill="white"/>
</clipPath>
</defs>
</svg>
