<svg viewBox="0 0 62 70" fill="none" xmlns="http://www.w3.org/2000/svg">
<path d="M31.6782 67.2293L10.2839 54.6444V42.9687L5.17822 39.4687L10.2839 32.4967L31.1288 20.7715H40.1782L59.1782 32.4967L51.6782 32.9687L52.1782 55.4687L31.6782 67.2293Z" fill="currentColor"/>
<path d="M31.1289 21.4687L31.1289 67.6725" stroke="black" stroke-linecap="round" stroke-linejoin="round"/>
<path d="M51.9736 32.4966V55.9471" stroke="black" stroke-linecap="round" stroke-linejoin="round"/>
<path d="M10.2839 55.9472V42.9688" stroke="black" stroke-linecap="round" stroke-linejoin="round"/>
<path d="M9.17822 31.9687L32.1782 44.9687M4.67822 39.4687L25.6782 51.4687" stroke="black" stroke-linecap="round" stroke-linejoin="round"/>
<path d="M28.5232 19.4688L53.8629 34.1064" stroke="black" stroke-linecap="round" stroke-linejoin="round"/>
<path d="M39.6783 20.4689L59.1783 32.4689" stroke="black" stroke-linecap="round" stroke-linejoin="round"/>
<path d="M7.67822 53.3418L33.0179 67.9795" stroke="black" stroke-linecap="round" stroke-linejoin="round"/>
<path d="M10.284 32.6271L33.1783 19.9688" stroke="black" stroke-linecap="round" stroke-linejoin="round"/>
<path d="M31.1289 44.2222L51.4376 32.4969" stroke="black" stroke-linecap="round" stroke-linejoin="round"/>
<path d="M30.1782 67.969L53.2764 54.6446" stroke="black" stroke-linecap="round" stroke-linejoin="round"/>
<path d="M36.1784 41.469L31.2834 59.469M41.6784 38.969L34.1784 65.9689M52.1783 34.469L45.1642 58.9232M47.1784 34.969L39.6784 61.969M49.6642 56.4232L51.9632 47.969" stroke="black" stroke-linecap="round" stroke-linejoin="round"/>
<path d="M15.6782 30.0179L14.4678 34.4688M21.1782 26.9689L18.1782 36.9688M31.0041 23.0179L25.6782 40.9689M26.3522 23.9198L22.1782 38.9688M29.1782 42.9689L31.1782 35.9689" stroke="black" stroke-linecap="round" stroke-linejoin="round"/>
<path d="M25.6782 51.4688C25.6782 51.4688 28.1782 47.9688 31.1782 44.4688M4.67822 39.4688C4.67822 39.4688 7.17822 36.4688 10.1782 32.4688" stroke="black" stroke-linecap="round" stroke-linejoin="round"/>
<path d="M51.6782 32.4688C53.6782 32.4688 58.6782 32.4688 58.6782 32.4688" stroke="black" stroke-linecap="round" stroke-linejoin="round"/>
<path d="M30.812 20.8135C34.7665 20.8135 36.7257 20.8135 40.6782 20.8135" stroke="black" stroke-linecap="round" stroke-linejoin="round"/>
<path d="M4.67822 21.9688L1.67822 15.9688C4.01156 16.3021 8.77822 16.9688 9.17822 16.9688C9.57822 16.9688 20.3449 24.3021 25.6782 27.9688L21.1782 32.9688L4.67822 21.9688Z" fill="white"/>
<path d="M27.6782 13.4688C27.2782 12.2688 24.6782 10.9688 23.6782 10.9688L45.1782 1.46875L33.7627 17.8475C33.7639 17.9349 33.7267 17.9688 33.6782 17.9688L33.7627 17.8475C33.7599 17.6344 33.5291 17.1033 32.6782 15.9688C31.1782 13.9688 28.1782 14.9688 27.6782 13.4688Z" fill="white"/>
<path d="M38.1782 39.9686C39.1782 33.4686 39.9845 26.6715 43.6782 21.4686C45.391 19.0559 49.7109 14.2972 53.1782 15.4686C57.1782 16.8199 54.0956 24.5524 51.1782 22.4686C47.6782 19.9686 52.6782 10.4686 60.7651 9.69971" stroke="black" stroke-linecap="round" stroke-linejoin="round"/>
<path d="M4.67822 22.4688C10.1782 25.9688 17.6623 30.3659 21.6782 32.9688" stroke="black" stroke-linecap="round" stroke-linejoin="round"/>
<path d="M4.67828 22.4684C3.67828 20.4684 2.67828 18.9684 1 16.0327" stroke="black" stroke-linecap="round" stroke-linejoin="round"/>
<path d="M1.17822 15.9688C4.17822 16.4688 5.67822 16.4688 9.17822 16.9688" stroke="black" stroke-linecap="round" stroke-linejoin="round"/>
<path d="M9.17822 16.9688C16.1782 21.9688 19.1782 23.9688 25.1782 27.9688" stroke="black" stroke-linecap="round" stroke-linejoin="round"/>
<path d="M21.6782 32.9688C21.6782 32.9688 23.8773 30.0721 25.6782 27.9688" stroke="black" stroke-linecap="round" stroke-linejoin="round"/>
<path d="M2.3147 17.8735C2.76432 17.5329 3.19698 17.1821 3.62939 16.8218" stroke="black" stroke-linecap="round" stroke-linejoin="round"/>
<path d="M4.67822 22.4686L8.17822 20.4686L8.88811 16.8218" stroke="black" stroke-linecap="round" stroke-linejoin="round"/>
<path d="M7.17822 19.9688C17.6782 26.4688 23.6386 30.2577 23.6386 30.2577" stroke="black" stroke-linecap="round" stroke-linejoin="round"/>
<path d="M27.4305 14.2715C32.2321 10.7793 40.4927 4.6343 45.0526 1.00013" stroke="black" stroke-linecap="round" stroke-linejoin="round"/>
<path d="M33.7185 18.1474C37.1551 13.6541 40.9552 8.10347 45.2936 1.01507" stroke="black" stroke-linecap="round" stroke-linejoin="round"/>
<path d="M27.6722 14.4135C28.6547 14.0587 32.3309 15.3058 33.7184 18.1475" stroke="black" stroke-linecap="round" stroke-linejoin="round"/>
<path d="M27.6721 14.4132C27.2098 10.9439 22.6832 11.0427 22.6832 11.0427C28.4324 8.76326 40.2946 3.14714 45.0526 0.99982" stroke="black" stroke-linecap="round" stroke-linejoin="round"/>
<path d="M27.6783 13.9688C19.0069 22.6403 32.7434 32.1245 33.6782 31.9688C36.6782 31.4688 32.1781 23.9688 30.1781 27.4688C28.1781 30.4688 30.4782 38.8688 33.6782 42.4688" stroke="black" stroke-linecap="round" stroke-linejoin="round"/>
<path d="M24.6793 35.9491C28.2763 36.8014 31.3518 36.9386 34.5943 36.6405C34.2259 44.9588 34.1407 48.0427 34.1299 48.0359C32.8397 47.2268 25.2459 36.726 24.6793 35.9491Z" fill="white" stroke="black" stroke-linecap="round" stroke-linejoin="round"/>
</svg>
