<svg width="66" height="66" viewBox="0 0 66 66" fill="none" xmlns="http://www.w3.org/2000/svg">
<circle cx="5.5" cy="4.5" r="3.5" fill="#A4CDF8"/>
<circle cx="4.5" cy="25.5" r="3.5" fill="#A4CDF8"/>
<circle cx="4.5" cy="44.5" r="3.5" fill="#A4CDF8"/>
<circle cx="60.5" cy="39.5" r="3.5" fill="white"/>
<circle cx="60.5" cy="58.5" r="3.5" fill="white"/>
<circle cx="61.5" cy="18.5" r="3.5" fill="white"/>
<path d="M19.2795 10.3481C19.2795 13.4118 19.2795 12.3932 19.2795 15.4569" stroke="black" stroke-linecap="round" stroke-linejoin="round"/>
<path d="M52.1926 15.9751C52.1926 19.0388 52.1926 21.4637 52.1926 24.5273" stroke="black" stroke-linecap="round" stroke-linejoin="round"/>
<path d="M16.373 7.9416V3.01758L27.776 5.86833V11.0515L16.373 7.9416Z" fill="white"/>
<path d="M13.8376 8.54834C16.5715 9.3669 24.2732 11.4336 26.5364 12.1766" stroke="black" stroke-linecap="round" stroke-linejoin="round"/>
<path d="M13.511 3.5C17.7254 4.57295 23.4269 6.12791 26.5368 6.90538" stroke="black" stroke-linecap="round" stroke-linejoin="round"/>
<path d="M14.3558 3.38095C14.3559 5.71339 14.3552 7.52747 14.3555 8.97744M25.7591 6.49083C25.7592 8.82327 25.7585 10.6374 25.7588 12.0873" stroke="black" stroke-linecap="round" stroke-linejoin="round"/>
<path d="M33.9951 12.6066V7.68262L45.3981 10.5334V15.7165L33.9951 12.6066Z" fill="white"/>
<path d="M31.8169 13.2134C34.5508 14.0319 42.2524 16.0986 44.5157 16.8416" stroke="black" stroke-linecap="round" stroke-linejoin="round"/>
<path d="M31.4902 8.16504C35.7046 9.23799 41.4061 10.7929 44.516 11.5704" stroke="black" stroke-linecap="round" stroke-linejoin="round"/>
<path d="M32.3351 8.04599C32.3351 10.3784 32.3345 12.1925 32.3348 13.6425M43.7384 11.1559C43.7384 13.4883 43.7378 15.3024 43.7381 16.7524" stroke="black" stroke-linecap="round" stroke-linejoin="round"/>
<path d="M33.9951 20.8991V15.9751L45.3981 18.8258V24.009L33.9951 20.8991Z" fill="white"/>
<path d="M31.8169 21.5059C34.5508 22.3244 42.2524 24.3911 44.5157 25.1341" stroke="black" stroke-linecap="round" stroke-linejoin="round"/>
<path d="M31.4905 16.458C35.7048 17.531 41.4063 19.0859 44.5162 19.8634" stroke="black" stroke-linecap="round" stroke-linejoin="round"/>
<path d="M32.3351 16.339C32.3351 18.6714 32.3345 20.4855 32.3348 21.9355M43.7384 19.4488C43.7384 21.7813 43.7378 23.5954 43.7381 25.0453" stroke="black" stroke-linecap="round" stroke-linejoin="round"/>
<path d="M8.12744 4.92188C8.61244 5.0615 10.6367 5.37373 14.3553 6.33763M58.6179 17.9121C57.7921 17.6608 52.7395 16.257 44.1585 14.0375M26.5748 9.49629C28.3394 9.95184 30.1522 10.4197 31.9781 10.8911" stroke="black" stroke-linecap="round" stroke-linejoin="round"/>
<path d="M19.02 15.4565C19.5397 15.6329 25.6305 17.2685 32.4963 19.1044M52.7107 24.5271C52.3327 24.4098 48.377 23.1703 44 21.9998" stroke="black" stroke-linecap="round" stroke-linejoin="round"/>
<path d="M58.773 18.9034C58.6316 17.1239 59.0858 15.2158 61.4113 15.2158C62.9017 15.2158 63.9949 15.885 64.6952 17.0468C65.8038 18.8858 65.2209 21.4118 62.8147 21.8996C61.1997 22.2271 59.8312 22.2411 58.9695 20.7473C58.0699 19.1878 58.3446 18.1621 58.773 16.5987" stroke="black" stroke-linecap="round" stroke-linejoin="round"/>
<path d="M3.41681 1.61222C4.96415 0.940732 6.13677 1.23971 7.25441 2.35722C8.37206 3.47473 8.20882 6.82734 5.01877 6.82734C3.09655 6.82734 1.74921 5.65058 2.03932 3.47475C2.78431 1.23968 5.25543 0.589155 6.88179 1.2397" stroke="black" stroke-linecap="round" stroke-linejoin="round"/>
<path d="M4.27545 5.32154C4.27466 4.05099 4.27495 3.62748 4.27495 2.35693L6.50996 4.05099C5.76505 4.47451 4.27555 5.47284 4.27545 5.32154Z" stroke="black" stroke-linecap="round" stroke-linejoin="round"/>
<path d="M60.4663 17.1782C60.5109 18.1196 60.4794 19.0743 60.5894 20.0094" stroke="black" stroke-linecap="round" stroke-linejoin="round"/>
<path d="M59.8435 17.513C61.0392 17.513 62.2174 17.4326 63.4095 17.3784" stroke="black" stroke-linecap="round" stroke-linejoin="round"/>
<path d="M62.7366 17.1768C62.7366 18.3212 62.8039 19.4672 62.8039 20.6081" stroke="black" stroke-linecap="round" stroke-linejoin="round"/>
<path d="M60.1108 20.2719C61.1689 20.1837 62.2221 20.0183 63.2731 19.8682" stroke="black" stroke-linecap="round" stroke-linejoin="round"/>
<path d="M18.2795 31.3481C18.2795 34.4118 18.2795 33.3932 18.2795 36.4569" stroke="black" stroke-linecap="round" stroke-linejoin="round"/>
<path d="M51.1926 36.9751C51.1926 40.0388 51.1926 42.4637 51.1926 45.5273" stroke="black" stroke-linecap="round" stroke-linejoin="round"/>
<path d="M15.373 28.9416V24.0176L26.776 26.8683V32.0515L15.373 28.9416Z" fill="white"/>
<path d="M12.8376 29.5483C15.5715 30.3669 23.2732 32.4336 25.5364 33.1766" stroke="black" stroke-linecap="round" stroke-linejoin="round"/>
<path d="M12.511 24.5C16.7254 25.573 22.4269 27.1279 25.5368 27.9054" stroke="black" stroke-linecap="round" stroke-linejoin="round"/>
<path d="M13.3558 24.3809C13.3559 26.7134 13.3552 28.5275 13.3555 29.9774M24.7591 27.4908C24.7592 29.8233 24.7585 31.6374 24.7588 33.0873" stroke="black" stroke-linecap="round" stroke-linejoin="round"/>
<path d="M32.9951 33.6066V28.6826L44.3981 31.5334V36.7165L32.9951 33.6066Z" fill="white"/>
<path d="M30.8169 34.2134C33.5508 35.0319 41.2524 37.0986 43.5157 37.8416" stroke="black" stroke-linecap="round" stroke-linejoin="round"/>
<path d="M30.4902 29.165C34.7046 30.238 40.4061 31.7929 43.516 32.5704" stroke="black" stroke-linecap="round" stroke-linejoin="round"/>
<path d="M31.3351 29.046C31.3351 31.3784 31.3345 33.1925 31.3348 34.6425M42.7384 32.1559C42.7384 34.4883 42.7378 36.3024 42.7381 37.7524" stroke="black" stroke-linecap="round" stroke-linejoin="round"/>
<path d="M32.9951 41.8991V36.9751L44.3981 39.8258V45.009L32.9951 41.8991Z" fill="white"/>
<path d="M30.8169 42.5059C33.5508 43.3244 41.2524 45.3911 43.5157 46.1341" stroke="black" stroke-linecap="round" stroke-linejoin="round"/>
<path d="M30.4905 37.458C34.7048 38.531 40.4063 40.0859 43.5162 40.8634" stroke="black" stroke-linecap="round" stroke-linejoin="round"/>
<path d="M31.3351 37.339C31.3351 39.6714 31.3345 41.4855 31.3348 42.9355M42.7384 40.4488C42.7384 42.7813 42.7378 44.5954 42.7381 46.0453" stroke="black" stroke-linecap="round" stroke-linejoin="round"/>
<path d="M7.12744 25.9219C7.61244 26.0615 9.63667 26.3737 13.3553 27.3376M57.6179 38.9121C56.7921 38.6608 51.7395 37.257 43.1585 35.0375M25.5748 30.4963C27.3394 30.9518 29.1522 31.4197 30.9781 31.8911" stroke="black" stroke-linecap="round" stroke-linejoin="round"/>
<path d="M57.773 39.9034C57.6316 38.1239 58.0858 36.2158 60.4113 36.2158C61.9017 36.2158 62.9949 36.885 63.6952 38.0468C64.8038 39.8858 64.2209 42.4118 61.8147 42.8996C60.1997 43.2271 58.8312 43.2411 57.9695 41.7473C57.0699 40.1878 57.3446 39.1621 57.773 37.5987" stroke="black" stroke-linecap="round" stroke-linejoin="round"/>
<path d="M18.02 36.4565C18.5397 36.6329 24.6305 38.2685 31.4963 40.1044M51.7107 45.5271C51.3327 45.4098 47.377 44.6703 43 43.4998" stroke="black" stroke-linecap="round" stroke-linejoin="round"/>
<path d="M2.41681 22.6122C3.96415 21.9407 5.13677 22.2397 6.25441 23.3572C7.37206 24.4747 7.20882 27.8273 4.01877 27.8273C2.09655 27.8273 0.749212 26.6506 1.03932 24.4748C1.78431 22.2397 4.25543 21.5892 5.88179 22.2397" stroke="black" stroke-linecap="round" stroke-linejoin="round"/>
<path d="M3.27545 26.3215C3.27466 25.051 3.27495 24.6275 3.27495 23.3569L5.50996 25.051C4.76505 25.4745 3.27555 26.4728 3.27545 26.3215Z" stroke="black" stroke-linecap="round" stroke-linejoin="round"/>
<path d="M59.4663 38.1782C59.5109 39.1196 59.4794 40.0743 59.5894 41.0094" stroke="black" stroke-linecap="round" stroke-linejoin="round"/>
<path d="M58.8435 38.513C60.0392 38.513 61.2174 38.4326 62.4095 38.3784" stroke="black" stroke-linecap="round" stroke-linejoin="round"/>
<path d="M61.7366 38.1768C61.7366 39.3212 61.8039 40.4672 61.8039 41.6081" stroke="black" stroke-linecap="round" stroke-linejoin="round"/>
<path d="M59.1108 41.2719C60.1689 41.1837 61.2221 41.0183 62.2731 40.8682" stroke="black" stroke-linecap="round" stroke-linejoin="round"/>
<path d="M18.2795 50.3481C18.2795 53.4118 18.2795 52.3932 18.2795 55.4569" stroke="black" stroke-linecap="round" stroke-linejoin="round"/>
<path d="M51.1926 55.9751C51.1926 59.0388 51.1926 61.4637 51.1926 64.5273" stroke="black" stroke-linecap="round" stroke-linejoin="round"/>
<path d="M15.373 47.9416V43.0176L26.776 45.8683V51.0515L15.373 47.9416Z" fill="white"/>
<path d="M12.8376 48.5483C15.5715 49.3669 23.2732 51.4336 25.5364 52.1766" stroke="black" stroke-linecap="round" stroke-linejoin="round"/>
<path d="M12.511 43.5C16.7254 44.573 22.4269 46.1279 25.5368 46.9054" stroke="black" stroke-linecap="round" stroke-linejoin="round"/>
<path d="M13.3558 43.3809C13.3559 45.7134 13.3552 47.5275 13.3555 48.9774M24.7591 46.4908C24.7592 48.8233 24.7585 50.6374 24.7588 52.0873" stroke="black" stroke-linecap="round" stroke-linejoin="round"/>
<path d="M32.9951 52.6066V47.6826L44.3981 50.5334V55.7165L32.9951 52.6066Z" fill="white"/>
<path d="M30.8169 53.2134C33.5508 54.0319 41.2524 56.0986 43.5157 56.8416" stroke="black" stroke-linecap="round" stroke-linejoin="round"/>
<path d="M30.4902 48.165C34.7046 49.238 40.4061 50.7929 43.516 51.5704" stroke="black" stroke-linecap="round" stroke-linejoin="round"/>
<path d="M31.3351 48.046C31.3351 50.3784 31.3345 52.1925 31.3348 53.6425M42.7384 51.1559C42.7384 53.4883 42.7378 55.3024 42.7381 56.7524" stroke="black" stroke-linecap="round" stroke-linejoin="round"/>
<path d="M33 60.924V56L44.403 58.8507V64.0339L33 60.924Z" fill="white"/>
<path d="M30.8169 61.5059C33.5508 62.3244 41.2524 64.3911 43.5157 65.1341" stroke="black" stroke-linecap="round" stroke-linejoin="round"/>
<path d="M30.4905 56.458C34.7048 57.531 40.4063 59.0859 43.5162 59.8634" stroke="black" stroke-linecap="round" stroke-linejoin="round"/>
<path d="M31.3351 56.339C31.3351 58.6714 31.3345 60.4855 31.3348 61.9355M42.7384 59.4488C42.7384 61.7813 42.7378 63.5954 42.7381 65.0453" stroke="black" stroke-linecap="round" stroke-linejoin="round"/>
<path d="M7.12744 44.9219C7.61244 45.0615 9.63667 45.3737 13.3553 46.3376M57.6179 57.9121C56.7921 57.6608 51.7395 56.257 43.1585 54.0375M25 49.5002C26.7646 49.9557 29.1522 50.4197 30.9781 50.8911" stroke="black" stroke-linecap="round" stroke-linejoin="round"/>
<path d="M57.773 58.9034C57.6316 57.1239 58.0858 55.2158 60.4113 55.2158C61.9017 55.2158 62.9949 55.885 63.6952 57.0468C64.8038 58.8858 64.2209 61.4118 61.8147 61.8996C60.1997 62.2271 58.8312 62.2411 57.9695 60.7473C57.0699 59.1878 57.3446 58.1621 57.773 56.5987" stroke="black" stroke-linecap="round" stroke-linejoin="round"/>
<path d="M2.41681 41.6122C3.96415 40.9407 5.13677 41.2397 6.25441 42.3572C7.37206 43.4747 7.20882 46.8273 4.01877 46.8273C2.09655 46.8273 0.749212 45.6506 1.03932 43.4748C1.78431 41.2397 4.25543 40.5892 5.88179 41.2397" stroke="black" stroke-linecap="round" stroke-linejoin="round"/>
<path d="M3.27545 45.3215C3.27466 44.051 3.27495 43.6275 3.27495 42.3569L5.50996 44.051C4.76505 44.4745 3.27555 45.4728 3.27545 45.3215Z" stroke="black" stroke-linecap="round" stroke-linejoin="round"/>
<path d="M59.4663 57.1782C59.5109 58.1196 59.4794 59.0743 59.5894 60.0094" stroke="black" stroke-linecap="round" stroke-linejoin="round"/>
<path d="M58.8435 57.513C60.0392 57.513 61.2174 57.4326 62.4095 57.3784" stroke="black" stroke-linecap="round" stroke-linejoin="round"/>
<path d="M61.7366 57.1768C61.7366 58.3212 61.8039 59.4672 61.8039 60.6081" stroke="black" stroke-linecap="round" stroke-linejoin="round"/>
<path d="M59.1108 60.2719C60.1689 60.1837 61.2221 60.0183 62.2731 59.8682" stroke="black" stroke-linecap="round" stroke-linejoin="round"/>
<path d="M18.02 55.4565C18.5397 55.6329 24.6305 57.2685 31.4963 59.1044M51.7107 64.5271C51.3327 64.4098 46.877 63.1703 42.5 61.9998" stroke="black" stroke-linecap="round" stroke-linejoin="round"/>
</svg>
