<svg width="58" height="60" viewBox="0 0 58 60" fill="none" xmlns="http://www.w3.org/2000/svg">
<path d="M9.5 19.5L2 35.5V44.5L22 55L47 51.5L54 35.5V27L36 16L9.5 19.5Z" fill="white"/>
<path d="M1 43C7.54213 46.6198 17.4621 52.3785 24 56" stroke="black" stroke-linecap="round" stroke-linejoin="round"/>
<path d="M46 52.5C48.5 47 50 43.5 54 34.5" stroke="black" stroke-linecap="round" stroke-linejoin="round"/>
<path d="M18 55C29 53.5 34.5 53 48.5 50.5" stroke="black" stroke-linecap="round" stroke-linejoin="round"/>
<path d="M1.5 34C8.04213 37.6198 17.9621 43.3785 24.5 47" stroke="black" stroke-linecap="round" stroke-linejoin="round"/>
<path d="M34 16C40.5421 19.6198 50.4621 25.3785 57 29" stroke="black" stroke-linecap="round" stroke-linejoin="round"/>
<path d="M2 36.5C4.5 31 6 27.5 10 18.5M46.5 43.5C49 38 50.5 34.5 54.5 25.5" stroke="black" stroke-linecap="round" stroke-linejoin="round"/>
<path d="M7.5 20.5C18.5 19 24 18.5 38 16M18.5 46C29.5 44.5 35 44 49 41.5" stroke="black" stroke-linecap="round" stroke-linejoin="round"/>
<path d="M2.93994 34.0275C2.95064 36.284 3.0001 42.2432 3.0001 44.5M21.44 45.0275C21.4507 47.284 21.5001 53.2432 21.5001 55.5M46.94 41.5275C46.9507 43.784 47.0001 49.7432 47.0001 52M53.5001 26C53.5108 28.2565 53.5603 34.2157 53.5603 36.4725" stroke="black" stroke-linecap="round" stroke-linejoin="round"/>
<path d="M24.5003 45.2105L22.0003 54.4038M25 53.9049L27.3644 45.2105M28.0001 53.4049L30.3641 44.7116M33.5001 44.2115L31.1357 52.9059M36.5001 43.7126L34.136 52.4059M40.0001 43.2126L37.5 52.4059M43.0001 42.7137L40.5 51.907M46.0001 42.2136L43.5001 51.407" stroke="black" stroke-linecap="round" stroke-linejoin="round"/>
<path d="M49.5 43.9867V37.5003M51.5 40.0003L51.5703 32.46" stroke="black" stroke-linecap="round" stroke-linejoin="round"/>
<path d="M9.99983 39.0004L8.06756 46.4382M12.4996 40.5004L10.4999 48.1543M15.4996 42.0004L13.3898 50.0004M17.9996 43.6838L15.874 51.5004M20.4999 45.0004L18.3991 52.8771M7.49985 37.5003L5.36636 45.5004M4.99986 36.5004L2.99961 43.8507" stroke="black" stroke-linecap="round" stroke-linejoin="round"/>
<path d="M9 4.5L2 20L9.5 23.5L21.5 31L47 26.5L50.5 19L53.5 12L34.5 1.5L9 4.5Z" fill="#A4CDF8"/>
<path d="M1 19C7.54213 22.6198 17.4621 28.3785 24 32" stroke="black" stroke-linecap="round" stroke-linejoin="round"/>
<path d="M33.5 1C40.0421 4.61976 49.9621 10.3785 56.5 14" stroke="black" stroke-linecap="round" stroke-linejoin="round"/>
<path d="M2 21C4.5 15.5 5.5 12.5 9.5 3.5M46 28.5C48.5 23 50 19.5 54 10.5" stroke="black" stroke-linecap="round" stroke-linejoin="round"/>
<path d="M7 5.5C18 4 23.5 3.5 37.5 1M18 31C29 29.5 34.5 29 48.5 26.5" stroke="black" stroke-linecap="round" stroke-linejoin="round"/>
<path d="M3 35C3 33.5812 3 32.0692 3 30.5M21.5 46C21.5 44.1339 21.5 42.1067 21.5 40M47 42C47 40.282 47 38.4275 47 36.5M53.5 27.5C53.5 25.782 53.5 23.9275 53.5 22M21.5 30C21.5 31.652 21.5 33.3309 21.5 35M3 26C3 24.3567 3 21.6777 3 20M47 33C47 31.1799 47 29.3304 47 27.5M53.5 20C53.5 18.3567 53.5 16.6777 53.5 15V20Z" stroke="black" stroke-linecap="round" stroke-linejoin="round"/>
</svg>
