<svg width="45" height="42" viewBox="0 0 45 42" fill="none" xmlns="http://www.w3.org/2000/svg">
<rect x="3.75" y="0.75" width="39.8857" height="39.8857" rx="19.9428" fill="#F8F8F8" stroke="black" stroke-width="1.5"/>
<path d="M15.9172 30.8186L11.6592 27.3704L25.5947 15.8761L21.7237 15.1098L24.8205 13.9604L25.5947 12.0447L26.756 9.74585H30.2398L32.9495 10.8953L35.6592 16.6424V22.0064L32.5624 28.5198L26.3689 31.9681L15.9172 30.8186Z" fill="#F8F8F8"/>
<path d="M9.82568 31.9681L7.82568 30.8569L25.5945 15.8761L21.7236 15.1098L24.8203 13.9604L25.5945 12.0447L26.7558 9.74585H30.2397L32.5623 11.3569L34.8257 16.3569L35.6591 22.0064L32.5623 28.5198L28.8257 30.8569L22.8257 31.9681L13.8257 30.3569L9.82568 31.9681Z" fill="url(#paint0_linear)"/>
<g filter="url(#filter0_d)">
<mask id="path-4-inside-1" fill="white">
<path fill-rule="evenodd" clip-rule="evenodd" d="M6.66776 32.4582C6.38232 32.0459 6.11147 31.6228 5.85596 31.1895C5.87266 31.1735 5.89022 31.158 5.90864 31.1433C7.7098 29.7026 9.38518 28.3663 10.9324 27.1321L10.9326 27.132L10.9328 27.1318C15.0212 23.8708 18.215 21.3233 20.471 19.4499C21.8797 18.2801 22.9002 17.3915 23.5398 16.7651C23.3156 16.7369 23.0786 16.702 22.8387 16.6626C22.0048 16.5256 21.0788 16.3241 20.4801 16.1304C20.1845 16.0347 19.9765 15.7632 19.9563 15.4464C19.936 15.1297 20.1077 14.8327 20.3887 14.6984L20.7819 14.5103L20.782 14.5103C21.4856 14.1736 21.7994 14.0235 22.1181 13.8854C22.3746 13.7742 22.6343 13.6708 23.103 13.4841L23.3721 13.3769C23.3823 13.3729 23.3925 13.369 23.4028 13.3654C23.4262 13.3285 23.4579 13.2736 23.4985 13.1942C23.5688 13.057 23.6431 12.893 23.7355 12.6889L23.7355 12.6889L23.7506 12.6556C23.8468 12.4432 23.9578 12.1994 24.0857 11.9469C24.5921 10.947 25.4319 9.66656 27.0583 9.20299C28.5615 8.77455 30.1321 8.93437 31.5296 9.84037C32.915 10.7385 34.0563 12.3205 34.8256 14.6011C36.8159 20.5013 35.8515 26.1987 32.2047 29.675C28.553 33.156 22.4481 34.1879 14.6139 31.2904C14.2252 31.1467 14.023 30.7091 14.1599 30.3107L10.6859 32.7501C10.4308 32.9292 10.0711 32.878 9.88253 32.6356C9.69395 32.3932 9.74791 32.0515 10.003 31.8723L19.9939 24.857L20.3437 25.1893C21.3014 26.0991 24.1308 27.4785 27.5243 25.1338C27.7809 24.9566 28.1401 25.0105 28.3268 25.2542C28.5134 25.498 28.4566 25.8393 28.2001 26.0165C24.5919 28.5095 21.3952 27.4041 19.9051 26.2766L14.8925 29.7963C14.9699 29.7987 15.0482 29.8136 15.125 29.842C22.6481 32.6244 28.0873 31.4956 31.1796 28.5478C34.2768 25.5954 35.2563 20.596 33.4037 15.1039C32.7104 13.0485 31.7422 11.8011 30.7249 11.1416C29.7197 10.4899 28.5943 10.3639 27.4617 10.6867C26.4524 10.9744 25.8704 11.7687 25.4211 12.6558C25.3101 12.8751 25.2114 13.0913 25.1152 13.3035L25.0947 13.349L25.0946 13.3491L25.0945 13.3493C25.0081 13.5403 24.9189 13.7373 24.8308 13.9093C24.7392 14.0883 24.6209 14.2971 24.4678 14.4678C24.3381 14.6123 24.1253 14.7929 23.828 14.8479L23.6129 14.9336L23.6128 14.9336C23.3979 15.0191 23.2308 15.0856 23.0876 15.1437C23.4805 15.208 23.8483 15.2566 24.145 15.2818C24.4164 15.3049 24.6167 15.2985 24.6403 15.2961C24.7363 15.2745 24.8363 15.2727 24.9331 15.2901C25.1455 15.3285 25.5323 15.4789 25.6581 15.9359C25.7544 16.2858 25.6173 16.5863 25.5542 16.7103C25.4045 17.0042 25.1189 17.3318 24.7954 17.6625C24.116 18.357 22.9758 19.3529 21.4186 20.646C19.1503 22.5296 15.9385 25.0915 11.8436 28.3577L11.8432 28.358C10.2983 29.5903 8.62773 30.9228 6.83474 32.3569C6.78231 32.3989 6.72616 32.4326 6.66776 32.4582Z"/>
</mask>
<path fill-rule="evenodd" clip-rule="evenodd" d="M6.66776 32.4582C6.38232 32.0459 6.11147 31.6228 5.85596 31.1895C5.87266 31.1735 5.89022 31.158 5.90864 31.1433C7.7098 29.7026 9.38518 28.3663 10.9324 27.1321L10.9326 27.132L10.9328 27.1318C15.0212 23.8708 18.215 21.3233 20.471 19.4499C21.8797 18.2801 22.9002 17.3915 23.5398 16.7651C23.3156 16.7369 23.0786 16.702 22.8387 16.6626C22.0048 16.5256 21.0788 16.3241 20.4801 16.1304C20.1845 16.0347 19.9765 15.7632 19.9563 15.4464C19.936 15.1297 20.1077 14.8327 20.3887 14.6984L20.7819 14.5103L20.782 14.5103C21.4856 14.1736 21.7994 14.0235 22.1181 13.8854C22.3746 13.7742 22.6343 13.6708 23.103 13.4841L23.3721 13.3769C23.3823 13.3729 23.3925 13.369 23.4028 13.3654C23.4262 13.3285 23.4579 13.2736 23.4985 13.1942C23.5688 13.057 23.6431 12.893 23.7355 12.6889L23.7355 12.6889L23.7506 12.6556C23.8468 12.4432 23.9578 12.1994 24.0857 11.9469C24.5921 10.947 25.4319 9.66656 27.0583 9.20299C28.5615 8.77455 30.1321 8.93437 31.5296 9.84037C32.915 10.7385 34.0563 12.3205 34.8256 14.6011C36.8159 20.5013 35.8515 26.1987 32.2047 29.675C28.553 33.156 22.4481 34.1879 14.6139 31.2904C14.2252 31.1467 14.023 30.7091 14.1599 30.3107L10.6859 32.7501C10.4308 32.9292 10.0711 32.878 9.88253 32.6356C9.69395 32.3932 9.74791 32.0515 10.003 31.8723L19.9939 24.857L20.3437 25.1893C21.3014 26.0991 24.1308 27.4785 27.5243 25.1338C27.7809 24.9566 28.1401 25.0105 28.3268 25.2542C28.5134 25.498 28.4566 25.8393 28.2001 26.0165C24.5919 28.5095 21.3952 27.4041 19.9051 26.2766L14.8925 29.7963C14.9699 29.7987 15.0482 29.8136 15.125 29.842C22.6481 32.6244 28.0873 31.4956 31.1796 28.5478C34.2768 25.5954 35.2563 20.596 33.4037 15.1039C32.7104 13.0485 31.7422 11.8011 30.7249 11.1416C29.7197 10.4899 28.5943 10.3639 27.4617 10.6867C26.4524 10.9744 25.8704 11.7687 25.4211 12.6558C25.3101 12.8751 25.2114 13.0913 25.1152 13.3035L25.0947 13.349L25.0946 13.3491L25.0945 13.3493C25.0081 13.5403 24.9189 13.7373 24.8308 13.9093C24.7392 14.0883 24.6209 14.2971 24.4678 14.4678C24.3381 14.6123 24.1253 14.7929 23.828 14.8479L23.6129 14.9336L23.6128 14.9336C23.3979 15.0191 23.2308 15.0856 23.0876 15.1437C23.4805 15.208 23.8483 15.2566 24.145 15.2818C24.4164 15.3049 24.6167 15.2985 24.6403 15.2961C24.7363 15.2745 24.8363 15.2727 24.9331 15.2901C25.1455 15.3285 25.5323 15.4789 25.6581 15.9359C25.7544 16.2858 25.6173 16.5863 25.5542 16.7103C25.4045 17.0042 25.1189 17.3318 24.7954 17.6625C24.116 18.357 22.9758 19.3529 21.4186 20.646C19.1503 22.5296 15.9385 25.0915 11.8436 28.3577L11.8432 28.358C10.2983 29.5903 8.62773 30.9228 6.83474 32.3569C6.78231 32.3989 6.72616 32.4326 6.66776 32.4582Z" fill="#F8F8F8"/>
<path d="M6.66776 32.4582L5.84559 33.0275L6.31491 33.7053L7.06981 33.3738L6.66776 32.4582ZM5.85596 31.1895L5.16266 30.4689L4.59314 31.0168L4.99459 31.6975L5.85596 31.1895ZM5.90864 31.1433L5.28401 30.3624L5.284 30.3624L5.90864 31.1433ZM10.9324 27.1321L10.3115 26.3482L10.3089 26.3504L10.9324 27.1321ZM10.9326 27.132L10.3123 26.3476L10.3117 26.3481L10.9326 27.132ZM10.9328 27.1318L11.5531 27.9162L11.5564 27.9136L10.9328 27.1318ZM20.471 19.4499L19.8322 18.6806L19.8322 18.6806L20.471 19.4499ZM23.5398 16.7651L24.2395 17.4796L25.7183 16.0314L23.6647 15.773L23.5398 16.7651ZM22.8387 16.6626L22.6766 17.6494L22.6766 17.6494L22.8387 16.6626ZM20.4801 16.1304L20.1722 17.0818L20.1722 17.0818L20.4801 16.1304ZM20.3887 14.6984L20.8199 15.6006L20.8201 15.6005L20.3887 14.6984ZM20.7819 14.5103L20.3629 13.6022L20.3505 13.6082L20.7819 14.5103ZM20.782 14.5103L21.2011 15.4183L21.2136 15.4123L20.782 14.5103ZM22.1181 13.8854L22.5158 14.8029L22.5158 14.8029L22.1181 13.8854ZM23.103 13.4841L23.4729 14.4132L23.4731 14.4131L23.103 13.4841ZM23.3721 13.3769L23.7422 14.3059L23.7425 14.3058L23.3721 13.3769ZM23.4028 13.3654L23.7317 14.3098L24.0617 14.1949L24.2483 13.8995L23.4028 13.3654ZM23.4985 13.1942L22.6085 12.7384L22.6084 12.7384L23.4985 13.1942ZM23.7355 12.6889L24.6465 13.1015L24.6509 13.0913L23.7355 12.6889ZM23.7355 12.6889L22.8245 12.2763L22.82 12.2865L23.7355 12.6889ZM23.7506 12.6556L22.8396 12.243L22.8396 12.2431L23.7506 12.6556ZM24.0857 11.9469L23.1936 11.4951L23.1936 11.4951L24.0857 11.9469ZM27.0583 9.20299L26.7842 8.24129L26.7842 8.24129L27.0583 9.20299ZM31.5296 9.84037L32.0736 9.00127L32.0736 9.00127L31.5296 9.84037ZM34.8256 14.6011L33.8781 14.9207L33.8781 14.9207L34.8256 14.6011ZM32.2047 29.675L32.8947 30.3988L32.8947 30.3988L32.2047 29.675ZM14.6139 31.2904L14.267 32.2284L14.267 32.2284L14.6139 31.2904ZM14.1599 30.3107L15.1056 30.6358L16.1074 27.7213L13.5853 29.4923L14.1599 30.3107ZM10.6859 32.7501L10.1113 31.9317L10.1113 31.9317L10.6859 32.7501ZM9.88253 32.6356L10.6718 32.0215L10.6718 32.0215L9.88253 32.6356ZM10.003 31.8723L9.42838 31.0539L9.42838 31.0539L10.003 31.8723ZM19.9939 24.857L20.6826 24.132L20.0892 23.5682L19.4192 24.0386L19.9939 24.857ZM20.3437 25.1893L19.655 25.9143L19.655 25.9143L20.3437 25.1893ZM27.5243 25.1338L26.9559 24.3111L26.9559 24.3111L27.5243 25.1338ZM28.3268 25.2542L29.1208 24.6463L29.1208 24.6463L28.3268 25.2542ZM28.2001 26.0165L28.7685 26.8393L28.7685 26.8393L28.2001 26.0165ZM19.9051 26.2766L20.5085 25.4791L19.9271 25.0392L19.3305 25.4582L19.9051 26.2766ZM14.8925 29.7963L14.3179 28.9779L11.8637 30.7012L14.861 30.7958L14.8925 29.7963ZM15.125 29.842L15.4719 28.904L15.4719 28.904L15.125 29.842ZM31.1796 28.5478L30.4896 27.824L30.4896 27.824L31.1796 28.5478ZM33.4037 15.1039L34.3513 14.7842L34.3513 14.7842L33.4037 15.1039ZM30.7249 11.1416L31.2689 10.3025L31.2689 10.3025L30.7249 11.1416ZM27.4617 10.6867L27.7358 11.6484L27.7358 11.6484L27.4617 10.6867ZM25.4211 12.6558L26.3133 13.1077L26.3133 13.1077L25.4211 12.6558ZM25.1152 13.3035L24.2043 12.8909L24.2043 12.8911L25.1152 13.3035ZM25.0947 13.349L24.1837 12.9365L24.1792 12.9465L24.1749 12.9565L25.0947 13.349ZM25.0946 13.3491L26.0067 13.7592L26.0106 13.7504L26.0144 13.7415L25.0946 13.3491ZM25.0945 13.3493L26.0055 13.7617L26.0065 13.7595L25.0945 13.3493ZM24.8308 13.9093L23.9408 13.4535L23.9407 13.4535L24.8308 13.9093ZM24.4678 14.4678L25.2122 15.1355L25.2122 15.1355L24.4678 14.4678ZM23.828 14.8479L23.6462 13.8646L23.5495 13.8825L23.4581 13.9188L23.828 14.8479ZM23.6129 14.9336L23.9753 15.8656L23.9828 15.8626L23.6129 14.9336ZM23.6128 14.9336L23.2504 14.0015L23.243 14.0045L23.6128 14.9336ZM23.0876 15.1437L22.7119 14.2169L19.4116 15.5549L22.9259 16.1305L23.0876 15.1437ZM24.145 15.2818L24.2297 14.2854L24.2297 14.2854L24.145 15.2818ZM24.6403 15.2961L24.7404 16.2911L24.8007 16.285L24.8599 16.2717L24.6403 15.2961ZM24.9331 15.2901L25.1106 14.306L25.1106 14.306L24.9331 15.2901ZM25.6581 15.9359L24.6939 16.2013L24.6939 16.2013L25.6581 15.9359ZM25.5542 16.7103L24.663 16.2566L24.663 16.2566L25.5542 16.7103ZM24.7954 17.6625L25.5102 18.3618L25.5102 18.3618L24.7954 17.6625ZM21.4186 20.646L20.7797 19.8767L20.7797 19.8767L21.4186 20.646ZM11.8436 28.3577L11.22 27.5759L11.2177 27.5778L11.8436 28.3577ZM11.8432 28.358L12.4667 29.1398L12.4691 29.1379L11.8432 28.358ZM6.83474 32.3569L7.45936 33.1379L7.45937 33.1379L6.83474 32.3569ZM7.48994 31.889C7.21825 31.4966 6.96048 31.0939 6.71732 30.6816L4.99459 31.6975C5.26246 32.1517 5.54639 32.5953 5.84559 33.0275L7.48994 31.889ZM5.284 30.3624C5.24163 30.3963 5.20116 30.4318 5.16266 30.4689L6.54926 31.9102C6.54416 31.9151 6.53882 31.9198 6.53328 31.9242L5.284 30.3624ZM10.3089 26.3504C8.76166 27.5845 7.08577 28.9212 5.28401 30.3624L6.53327 31.9242C8.33382 30.484 10.0087 29.1481 11.556 27.9139L10.3089 26.3504ZM10.3117 26.3481L10.3115 26.3482L11.5533 27.916L11.5535 27.9159L10.3117 26.3481ZM10.3126 26.3474L10.3123 26.3476L11.5528 27.9164L11.5531 27.9162L10.3126 26.3474ZM19.8322 18.6806C17.5856 20.5461 14.4012 23.0862 10.3093 26.35L11.5564 27.9136C15.6412 24.6554 18.8444 22.1005 21.1099 20.2192L19.8322 18.6806ZM22.8402 16.0507C22.2322 16.646 21.2392 17.5122 19.8322 18.6806L21.1099 20.2192C22.5202 19.0481 23.5682 18.137 24.2395 17.4796L22.8402 16.0507ZM22.6766 17.6494C22.927 17.6905 23.1765 17.7273 23.415 17.7573L23.6647 15.773C23.4547 15.7465 23.2303 15.7136 23.0009 15.6759L22.6766 17.6494ZM20.1722 17.0818C20.8389 17.2976 21.8201 17.5086 22.6766 17.6494L23.0009 15.6759C22.1895 15.5425 21.3188 15.3507 20.788 15.179L20.1722 17.0818ZM18.9583 15.5102C19.004 16.2247 19.4753 16.8563 20.1722 17.0818L20.788 15.179C20.8938 15.2132 20.9491 15.3017 20.9542 15.3827L18.9583 15.5102ZM19.9574 13.7962C19.2987 14.111 18.9127 14.7964 18.9583 15.5102L20.9542 15.3827C20.9594 15.463 20.9167 15.5543 20.8199 15.6006L19.9574 13.7962ZM20.3505 13.6082L19.9572 13.7963L20.8201 15.6005L21.2134 15.4124L20.3505 13.6082ZM20.3629 13.6023L20.3629 13.6023L21.201 15.4183L21.201 15.4182L20.3629 13.6023ZM21.7204 12.9679C21.3805 13.1152 21.0471 13.2749 20.3504 13.6082L21.2136 15.4123C21.9242 15.0724 22.2182 14.9319 22.5158 14.8029L21.7204 12.9679ZM22.733 12.5551C22.269 12.7399 21.9937 12.8494 21.7204 12.9679L22.5158 14.8029C22.7555 14.699 22.9995 14.6017 23.4729 14.4132L22.733 12.5551ZM23.002 12.4479L22.7329 12.5551L23.4731 14.4131L23.7422 14.3059L23.002 12.4479ZM23.074 12.4211C23.0499 12.4294 23.0258 12.4384 23.0017 12.448L23.7425 14.3058C23.7387 14.3073 23.7351 14.3086 23.7317 14.3098L23.074 12.4211ZM22.6084 12.7384C22.5781 12.7977 22.5611 12.8254 22.5574 12.8313L24.2483 13.8995C24.2912 13.8316 24.3377 13.7495 24.3886 13.65L22.6084 12.7384ZM22.8245 12.2764C22.7288 12.4878 22.6654 12.6272 22.6085 12.7384L24.3886 13.65C24.4722 13.4867 24.5574 13.2981 24.6464 13.1014L22.8245 12.2764ZM22.82 12.2865L22.82 12.2865L24.6509 13.0913L24.651 13.0913L22.82 12.2865ZM22.8396 12.2431L22.8246 12.2763L24.6464 13.1014L24.6615 13.0682L22.8396 12.2431ZM23.1936 11.4951C23.0549 11.769 22.9359 12.0305 22.8396 12.243L24.6615 13.0682C24.7576 12.8559 24.8608 12.6298 24.9778 12.3987L23.1936 11.4951ZM26.7842 8.24129C24.7426 8.8232 23.7342 10.4276 23.1936 11.4951L24.9778 12.3987C25.45 11.4664 26.1212 10.5099 27.3324 10.1647L26.7842 8.24129ZM32.0736 9.00127C30.4127 7.92452 28.5398 7.74091 26.7842 8.24129L27.3324 10.1647C28.5832 9.80818 29.8515 9.94422 30.9857 10.6795L32.0736 9.00127ZM35.7731 14.2815C34.9559 11.8589 33.7032 10.0577 32.0736 9.00127L30.9857 10.6795C32.1268 11.4192 33.1566 12.7821 33.8781 14.9207L35.7731 14.2815ZM32.8947 30.3988C36.8995 26.5812 37.8498 20.4377 35.7731 14.2815L33.8781 14.9207C35.782 20.5649 34.8034 25.8162 31.5147 28.9512L32.8947 30.3988ZM14.267 32.2284C22.3134 35.2043 28.8694 34.2359 32.8947 30.3988L31.5147 28.9512C28.2365 32.0761 22.5828 33.1716 14.9608 30.3525L14.267 32.2284ZM13.2143 29.9856C12.9063 30.8815 13.3529 31.8903 14.267 32.2284L14.9608 30.3525C15.0976 30.4031 15.1397 30.5366 15.1056 30.6358L13.2143 29.9856ZM11.2606 33.5685L14.7346 31.1291L13.5853 29.4923L10.1113 31.9317L11.2606 33.5685ZM9.09327 33.2496C9.61735 33.9233 10.5799 34.0464 11.2606 33.5685L10.1113 31.9317C10.2817 31.812 10.5249 31.8327 10.6718 32.0215L9.09327 33.2496ZM9.42838 31.0539C8.71806 31.5527 8.5444 32.5442 9.09327 33.2496L10.6718 32.0215C10.8435 32.2422 10.7778 32.5503 10.5777 32.6907L9.42838 31.0539ZM19.4192 24.0386L9.42838 31.0539L10.5777 32.6907L20.5686 25.6754L19.4192 24.0386ZM21.0325 24.4643L20.6826 24.132L19.3051 25.582L19.655 25.9143L21.0325 24.4643ZM26.9559 24.3111C24.0254 26.3358 21.7164 25.114 21.0325 24.4643L19.655 25.9143C20.8865 27.0842 24.2362 28.6211 28.0927 25.9566L26.9559 24.3111ZM29.1208 24.6463C28.6016 23.9682 27.6398 23.8386 26.9559 24.3111L28.0927 25.9566C27.922 26.0746 27.6787 26.0528 27.5327 25.8621L29.1208 24.6463ZM28.7685 26.8393C29.482 26.3463 29.6645 25.3565 29.1208 24.6463L27.5327 25.8621C27.3623 25.6394 27.4313 25.3322 27.6316 25.1938L28.7685 26.8393ZM19.3017 27.074C21.0656 28.4086 24.7375 29.6243 28.7685 26.8393L27.6316 25.1938C24.4462 27.3946 21.7249 26.3995 20.5085 25.4791L19.3017 27.074ZM15.4672 30.6147L20.4798 27.0949L19.3305 25.4582L14.3179 28.9779L15.4672 30.6147ZM15.4719 28.904C15.2931 28.8379 15.1082 28.8026 14.9241 28.7968L14.861 30.7958C14.8316 30.7949 14.8034 30.7892 14.7781 30.7799L15.4719 28.904ZM30.4896 27.824C27.7699 30.4166 22.7812 31.6074 15.4719 28.904L14.7781 30.7799C22.5151 33.6414 28.4047 32.5746 31.8696 29.2717L30.4896 27.824ZM32.4562 15.4235C34.2219 20.6578 33.2298 25.2119 30.4896 27.824L31.8696 29.2717C35.3238 25.9789 36.2908 20.5341 34.3513 14.7842L32.4562 15.4235ZM30.1809 11.9807C30.9543 12.4821 31.8109 13.5106 32.4562 15.4235L34.3513 14.7842C33.6099 12.5864 32.5302 11.1201 31.2689 10.3025L30.1809 11.9807ZM27.7358 11.6484C28.6154 11.3977 29.4386 11.4994 30.1809 11.9807L31.2689 10.3025C30.0008 9.48039 28.5731 9.33008 27.1876 9.72498L27.7358 11.6484ZM26.3133 13.1077C26.7276 12.2896 27.1409 11.818 27.7358 11.6484L27.1876 9.72498C25.764 10.1307 25.0133 11.2479 24.529 12.204L26.3133 13.1077ZM26.0261 13.7161C26.1223 13.5038 26.2131 13.3054 26.3133 13.1077L24.529 12.204C24.4071 12.4447 24.3005 12.6787 24.2043 12.8909L26.0261 13.7161ZM26.0057 13.7614L26.0262 13.716L24.2043 12.8911L24.1837 12.9365L26.0057 13.7614ZM26.0144 13.7415L26.0145 13.7414L24.1749 12.9565L24.1749 12.9566L26.0144 13.7415ZM26.0065 13.7595L26.0067 13.7592L24.1826 12.9389L24.1825 12.9392L26.0065 13.7595ZM25.7209 14.3651C25.8221 14.1675 25.9215 13.9473 26.0055 13.7617L24.1835 12.937C24.0946 13.1333 24.0157 13.3071 23.9408 13.4535L25.7209 14.3651ZM25.2122 15.1355C25.4544 14.8655 25.6199 14.5625 25.7209 14.365L23.9407 13.4535C23.8585 13.6142 23.7875 13.7286 23.7233 13.8001L25.2122 15.1355ZM24.0098 15.8312C24.6117 15.7199 25.0081 15.3631 25.2122 15.1355L23.7233 13.8001C23.7003 13.8258 23.6786 13.8446 23.6613 13.8559C23.646 13.866 23.6418 13.8654 23.6462 13.8646L24.0098 15.8312ZM23.9828 15.8626L24.1979 15.777L23.4581 13.9188L23.243 14.0045L23.9828 15.8626ZM23.9753 15.8656L23.9753 15.8656L23.2504 14.0015L23.2504 14.0016L23.9753 15.8656ZM23.4633 16.0704C23.6029 16.0138 23.7667 15.9486 23.9826 15.8627L23.243 14.0045C23.0292 14.0896 22.8587 14.1574 22.7119 14.2169L23.4633 16.0704ZM24.2297 14.2854C23.9669 14.263 23.6261 14.2186 23.2492 14.1568L22.9259 16.1305C23.3349 16.1975 23.7298 16.2501 24.0603 16.2782L24.2297 14.2854ZM24.5403 14.3011C24.5582 14.2993 24.5712 14.2985 24.5733 14.2984C24.5777 14.2981 24.5802 14.298 24.5802 14.298C24.5804 14.298 24.5769 14.2982 24.5693 14.2983C24.5545 14.2987 24.5299 14.2989 24.4969 14.2985C24.4308 14.2978 24.3376 14.2946 24.2297 14.2854L24.0603 16.2782C24.3651 16.3041 24.6326 16.3019 24.7404 16.2911L24.5403 14.3011ZM25.1106 14.306C24.8845 14.2652 24.6495 14.269 24.4207 14.3205L24.8599 16.2717C24.8232 16.2799 24.788 16.2801 24.7556 16.2742L25.1106 14.306ZM26.6222 15.6706C26.3495 14.6795 25.5005 14.3763 25.1106 14.306L24.7555 16.2742C24.7504 16.2733 24.7513 16.2732 24.7541 16.2742C24.7564 16.2752 24.7532 16.2743 24.7458 16.269C24.7374 16.263 24.7245 16.2518 24.7121 16.2347C24.7061 16.2264 24.7015 16.2185 24.6982 16.2116C24.6949 16.2048 24.6938 16.2009 24.6939 16.2013L26.6222 15.6706ZM26.4453 17.1639C26.5323 16.993 26.823 16.3998 26.6222 15.6706L24.6939 16.2013C24.6919 16.1939 24.6914 16.1871 24.6914 16.1833C24.6914 16.1803 24.6917 16.182 24.6902 16.189C24.6864 16.2059 24.6781 16.2268 24.663 16.2566L26.4453 17.1639ZM25.5102 18.3618C25.8345 18.0302 26.2195 17.6075 26.4453 17.1639L24.663 16.2566C24.5895 16.4009 24.4033 16.6333 24.0805 16.9632L25.5102 18.3618ZM22.0574 21.4153C23.6131 20.1235 24.7903 19.0977 25.5102 18.3618L24.0805 16.9632C23.4416 17.6162 22.3385 18.5823 20.7797 19.8767L22.0574 21.4153ZM12.4672 29.1395C16.5585 25.8761 19.7797 23.3068 22.0574 21.4153L20.7797 19.8767C18.5209 21.7524 15.3185 24.3069 11.22 27.5759L12.4672 29.1395ZM12.4691 29.1379L12.4695 29.1376L11.2177 27.5778L11.2172 27.5782L12.4691 29.1379ZM7.45937 33.1379C9.25176 31.7042 10.9218 30.3721 12.4667 29.1398L11.2196 27.5763C9.67478 28.8085 8.00371 30.1414 6.21011 31.576L7.45937 33.1379ZM7.06981 33.3738C7.20766 33.3133 7.33868 33.2344 7.45936 33.1379L6.21011 31.576C6.22594 31.5634 6.24465 31.5518 6.26571 31.5426L7.06981 33.3738Z" fill="black" mask="url(#path-4-inside-1)"/>
</g>
<defs>
<filter id="filter0_d" x="0.855957" y="7.97607" width="39.9858" height="34" filterUnits="userSpaceOnUse" color-interpolation-filters="sRGB">
<feFlood flood-opacity="0" result="BackgroundImageFix"/>
<feColorMatrix in="SourceAlpha" type="matrix" values="0 0 0 0 0 0 0 0 0 0 0 0 0 0 0 0 0 0 127 0"/>
<feOffset dy="4"/>
<feGaussianBlur stdDeviation="2.5"/>
<feColorMatrix type="matrix" values="0 0 0 0 0 0 0 0 0 0 0 0 0 0 0 0 0 0 0.1 0"/>
<feBlend mode="normal" in2="BackgroundImageFix" result="effect1_dropShadow"/>
<feBlend mode="normal" in="SourceGraphic" in2="effect1_dropShadow" result="shape"/>
</filter>
<linearGradient id="paint0_linear" x1="23.6591" y1="9.74585" x2="12.3257" y2="31.8569" gradientUnits="userSpaceOnUse">
<stop offset="0.214073" stop-color="#A4CDF8"/>
<stop offset="1" stop-color="#A4CDF8" stop-opacity="0"/>
</linearGradient>
</defs>
</svg>
