<svg viewBox="0 0 69 56" fill="none" xmlns="http://www.w3.org/2000/svg">
<path d="M6.0302 54.0058C5.39065 52.0871 9.76091 37.2175 12.026 30.0226C6.26951 31.3017 5.63026 39.3493 6.0302 43.2132C3.63163 41.2146 -0.60591 36.2581 1.63252 32.4208C3.87095 28.5835 10.5596 25.7588 13.6241 24.8262C11.0923 20.6958 1.63252 12.8347 17.2216 14.4336C27.7959 15.5182 24.9495 22.5612 22.4179 24.8262C23.8836 24.693 25.7756 23.9468 29.6129 28.4237C33.4502 32.9006 33.4331 39.1177 30.5044 41.1786C30.5044 41.1786 29.9063 37.229 29.2027 34.9957C28.2717 32.0404 24.9723 29.0298 24.9723 29.0298C29.2027 38.5753 32.5654 48.5547 32.5654 48.5547C32.5654 48.5547 34.1924 57.9918 23.6706 45.626C21.3079 42.8491 15.0897 45.7449 13.6241 47.6102C11.3593 50.5415 6.66975 55.9244 6.0302 54.0058Z" fill="white"/>
<path d="M16.7936 13.9831C20.1048 14.4771 22.9604 15.0979 24.7377 18.1757C25.6947 19.8331 24.9487 23.8149 22.7228 24.8868C19.4102 26.482 14.0053 25.0596 11.3821 22.7687C9.79783 21.3852 7.92867 18.6219 8.59261 16.4145C9.00229 15.0524 10.4406 14.489 11.7142 14.1833C14.4217 13.5334 17.2848 13.8879 19.925 14.6441C22.3197 15.3299 26.2067 16.9079 26.0075 20.0323C25.8229 22.9294 23.0121 25.2688 20.3401 25.7518C16.3049 26.4812 7.84678 22.3241 8.45874 17.5569" stroke="black" stroke-linecap="round" stroke-linejoin="round"/>
<path d="M24.7429 28.6333C27.5133 34.6895 28.2071 37.0857 30.8147 43.2134C31.38 44.542 33.6973 50.6456 32.0138 52.0072C29.5258 52.6756 25.803 46.7033 22.8205 45.212C18.8233 43.2134 15.052 45.3332 11.6275 50.0086C10.0287 52.1916 8.03007 54.8053 4.4326 54.0058" stroke="black" stroke-linecap="round" stroke-linejoin="round"/>
<path d="M11.6277 30.4224C10.3052 33.8811 4.91632 48.2875 6.23884 55.205" stroke="black" stroke-linecap="round" stroke-linejoin="round"/>
<path d="M13.4761 24.3682C10.2943 26.3221 7.12293 28.1006 4.35748 30.6317C-0.00982845 34.6289 -0.32863 40.2472 6.83413 43.6047" stroke="black" stroke-linecap="round" stroke-linejoin="round"/>
<path d="M22.8196 24.4263C30.4137 26.0251 35.981 36.0459 30.414 41.6142C30.414 38.4164 29.6144 33.2201 24.8178 28.8232" stroke="black" stroke-linecap="round" stroke-linejoin="round"/>
<path d="M23.9438 19.4395C22.7447 23.0369 15.9495 22.6372 13.1514 20.2389" stroke="black" stroke-linecap="round" stroke-linejoin="round"/>
<path d="M7.15527 44.2222C2.35864 35.8281 7.95471 31.0315 13.5508 29.4326" stroke="black" stroke-linecap="round" stroke-linejoin="round"/>
<path d="M61.0617 51.6908C60.7922 52.9881 45.8242 54.6235 41.2794 51.6908L37.1796 30.0917L35.7778 21.4472C42.6717 15.643 58.0644 18.4131 64.9582 20.0576C62.8796 31.4935 62.8796 42.9417 61.0617 51.6908Z" fill="currentColor"/>
<path d="M46 31.8438L44.5 32.3438C45.5 33.0104 47.4 34.4437 47 34.8438C46.6 35.2438 47.5 37.0104 48 37.8438L48.5 44.3438C48.1667 44.5104 47.4 44.9438 47 45.3438C46.5 45.8438 47.5 47.3438 49 47.3438C50.5 47.3438 51 45.8438 51 45.3438C51 44.9438 50 44.1771 49.5 43.8438L50 37.8438L53 40.3438C53 40.8438 53.3 41.9438 54.5 42.3438C56 42.8438 56.5 40.8438 56.5 40.3438C56.5 39.9438 55.1667 39.1771 54.5 38.8438L51 36.3438C50.8333 36.0104 50.4 35.2438 50 34.8438C49.6 34.4437 48.5 34.0104 48 33.8438L46 31.8438Z" fill="white"/>
<path d="M61.3729 18.45C58.0879 17.465 52.4581 17.3434 48.5696 17.4625C45.2792 17.5634 38.7615 18.084 36.5437 19.6547C35.08 20.6913 35.6128 21.9311 37.0469 22.6488C41.0448 24.6496 47.2291 24.5014 51.5649 24.2943C55.4938 24.1067 60.8391 23.8579 64.1623 21.5414C66.7976 19.7044 61.4968 18.5608 60.3955 18.4084C54.116 17.5394 46.589 17.7213 40.4338 19.1087C37.0162 19.879 34.454 21.479 31.5929 23.2864" stroke="black" stroke-linecap="round" stroke-linejoin="round"/>
<path d="M36.5961 18.6577C35.1038 20.15 35.469 20.3154 35.8952 22.1623C37.7642 34.7786 39.1661 43.8904 40.9328 52.4919" stroke="black" stroke-linecap="round" stroke-linejoin="round"/>
<path d="M64.8659 20.5269C63.2304 35.7132 62.0622 45.2923 61.2278 52.1933" stroke="black" stroke-linecap="round" stroke-linejoin="round"/>
<path d="M40.0371 51.5972C45.7078 53.9848 55.2586 53.9848 61.5262 51.7464" stroke="black" stroke-linecap="round" stroke-linejoin="round"/>
<path d="M46.9998 34.8433C46.1099 33.985 45.4598 33.2983 44.4998 32.3433M48.3938 34.2188C47.5799 33.3655 46.8749 32.7501 45.9998 31.8433" stroke="black" stroke-linecap="round" stroke-linejoin="round"/>
<path d="M48.1602 38.0348C48.1602 39.3116 48.1602 42.0921 48.1602 44.1094" stroke="black" stroke-linecap="round" stroke-linejoin="round"/>
<path d="M49.5117 38.2345C49.5117 39.5112 49.5117 42.0409 49.5117 44.2266" stroke="black" stroke-linecap="round" stroke-linejoin="round"/>
<path d="M50.9998 36.3433C52.1912 37.4497 53.2988 38.2615 53.9998 38.8433" stroke="black" stroke-linecap="round" stroke-linejoin="round"/>
<path d="M50.4999 37.8433C51.8063 38.9384 52.3657 39.437 53.0667 39.9043" stroke="black" stroke-linecap="round" stroke-linejoin="round"/>
<path d="M47.6233 47.6614C48.7976 48.0629 49.6988 47.8163 50.3633 46.9111C50.9777 46.0741 50.8869 44.6506 49.5805 44.2235C48.5383 43.8827 47.4449 44.3089 47.0535 45.4607C46.6621 46.6126 48.2162 48.2392 49.5805 47.0497" stroke="black" stroke-linecap="round" stroke-linejoin="round"/>
<path d="M53.5321 42.5246C54.612 42.9011 55.4409 42.6698 56.052 41.8211C56.617 41.0364 56.5335 39.7017 55.332 39.3012C54.3735 38.9817 53.368 39.3813 53.008 40.4612C52.648 41.5412 54.0773 43.0664 55.332 41.9511" stroke="black" stroke-linecap="round" stroke-linejoin="round"/>
<path d="M44.4998 32.3432C45.1109 32.0403 45.8015 31.7869 46.3688 31.4087" stroke="black" stroke-linecap="round" stroke-linejoin="round"/>
<path d="M47.6233 37.8489C48.7976 38.2504 49.6988 38.0038 50.3633 37.0986C50.9777 36.2616 50.8869 34.8381 49.5805 34.411C48.5383 34.0702 47.4449 34.4964 47.0535 35.6482C46.6621 36.8001 48.4256 38.8654 49.7899 37.6759" stroke="black" stroke-linecap="round" stroke-linejoin="round"/>
<path d="M36.5431 19.5921C35.0795 20.6287 35.6123 21.8685 37.0464 22.5862C41.0442 24.5869 47.2286 24.4387 51.5644 24.2317C55.4932 24.0441 60.8385 23.7952 64.1618 21.4787C66.7971 19.6418 61.4962 18.4982 60.395 18.3458M40.4333 19.0461C37.0157 19.8164 34.4534 21.4163 31.5923 23.2238" stroke="black" stroke-linecap="round" stroke-linejoin="round"/>
<path d="M38.0118 22.981L39.0491 19.4542" stroke="black" stroke-linecap="round" stroke-linejoin="round"/>
<path d="M62.2008 18.8409C61.3768 21.9092 61.6375 21.0027 61.0129 23.2744M59.7861 18.2275L58.2527 23.8254" stroke="black" stroke-linecap="round" stroke-linejoin="round"/>
<path d="M53.6116 17.572L51.8473 24.3666M55.0326 23.8167C55.6576 21.5434 56.0378 20.2956 56.6856 17.9393L55.0326 23.8167Z" stroke="black" stroke-linecap="round" stroke-linejoin="round"/>
<path d="M50.5858 17.7555C49.6657 20.6808 49.3013 22.2796 48.6767 24.5513M47.5189 18.2272L45.8594 24.3667" stroke="black" stroke-linecap="round" stroke-linejoin="round"/>
<path d="M43.2253 24.054L44.7588 18.5338M40.6185 23.7474L42.1519 18.5337" stroke="black" stroke-linecap="round" stroke-linejoin="round"/>
<path d="M59 8.84375L56.5 12.8438L62 11.3438L59 8.84375Z" fill="currentColor"/>
<path d="M30.5303 1C34.4705 5.56472 38.5979 10.0265 42.1078 14.9403" stroke="black" stroke-linecap="round" stroke-linejoin="round"/>
<path d="M36.6733 1.94531C37.8666 3.74908 39.0388 5.56633 40.2175 7.37965" stroke="black" stroke-linecap="round" stroke-linejoin="round"/>
<path d="M52.2676 13.759C54.1239 8.75501 56.4245 5.10644 60.5372 1.70898" stroke="black" stroke-linecap="round" stroke-linejoin="round"/>
<path d="M47.0001 9.84416C46.2173 10.4788 44.4054 10.353 43.4055 9.20953C42.2114 7.84416 44.9054 4.8762 46.9054 6.20952C48.6486 7.3716 47.7828 9.20953 47.0001 9.84416Z" fill="currentColor" stroke="black" stroke-linecap="round" stroke-linejoin="round"/>
<path d="M50.889 19.8149C50.1063 20.4495 48.2944 20.3237 47.2944 19.1802C46.1003 17.8149 48.7944 14.8469 50.7944 16.1802C52.5375 17.3423 51.6717 19.1802 50.889 19.8149Z" fill="white" stroke="black" stroke-linecap="round" stroke-linejoin="round"/>
<path d="M56.0479 13.0503C57.1914 11.58 58.1624 9.99304 59.3557 8.56104" stroke="black" stroke-linecap="round" stroke-linejoin="round"/>
<path d="M58.8833 8.56104C60.1296 9.73992 61.0001 10.8441 62.5001 11.8441" stroke="black" stroke-linecap="round" stroke-linejoin="round"/>
<path d="M55.5754 13.2862C58.5001 12.3438 60.1991 12.1676 63.0001 11.3438" stroke="black" stroke-linecap="round" stroke-linejoin="round"/>
<path d="M60.1724 15.1968C62.7379 14.3131 65.0357 13.8055 67.7538 13.9997" stroke="black" stroke-linecap="round" stroke-linejoin="round"/>
</svg>
