<svg width="56" height="74" viewBox="0 0 56 74" fill="none" xmlns="http://www.w3.org/2000/svg">
<path d="M28 71.7605L6.60571 59.1756V47.4999L1.5 43.9999L6.60571 37.028L27.4506 25.3027H36.5L55.5 37.028L48 37.4999L48.5 59.9999L28 71.7605Z" fill="#A4CDF8"/>
<path d="M27.4507 26L27.4507 72.2037" stroke="black" stroke-linecap="round" stroke-linejoin="round"/>
<path d="M48.2954 37.0278V60.4783" stroke="black" stroke-linecap="round" stroke-linejoin="round"/>
<path d="M6.60571 60.4785V47.5" stroke="black" stroke-linecap="round" stroke-linejoin="round"/>
<path d="M5.5 36.5L28.5 49.5M1 44L22 56" stroke="black" stroke-linecap="round" stroke-linejoin="round"/>
<path d="M24.845 24L50.1846 38.6377" stroke="black" stroke-linecap="round" stroke-linejoin="round"/>
<path d="M36 25.0001L55.5001 37.0002" stroke="black" stroke-linecap="round" stroke-linejoin="round"/>
<path d="M4 57.873L29.3397 72.5107" stroke="black" stroke-linecap="round" stroke-linejoin="round"/>
<path d="M6.60577 37.1583L29.5001 24.5001" stroke="black" stroke-linecap="round" stroke-linejoin="round"/>
<path d="M27.4507 48.7534L47.7594 37.0282" stroke="black" stroke-linecap="round" stroke-linejoin="round"/>
<path d="M26.4999 72.5002L49.5982 59.1759" stroke="black" stroke-linecap="round" stroke-linejoin="round"/>
<path d="M32.5001 46.0002L27.6052 64.0002M38.0001 43.5002L30.5001 70.5002M48.5001 39.0002L41.486 63.4544M43.5001 39.5002L36.0001 66.5002M45.986 60.9545L48.285 52.5002" stroke="black" stroke-linecap="round" stroke-linejoin="round"/>
<path d="M11.9999 34.5491L10.7895 39.0001M17.4999 31.5001L14.4999 41.5001M27.3259 27.5492L21.9999 45.5001M22.6739 28.4511L18.4999 43.5001M25.4999 47.5001L27.4999 40.5001" stroke="black" stroke-linecap="round" stroke-linejoin="round"/>
<path d="M22 56C22 56 24.5 52.5 27.5 49M1 44C1 44 3.5 41 6.5 37" stroke="black" stroke-linecap="round" stroke-linejoin="round"/>
<path d="M48 37C50 37 55 37 55 37" stroke="black" stroke-linecap="round" stroke-linejoin="round"/>
<path d="M27.1338 25.3447C31.0882 25.3447 33.0475 25.3447 36.9999 25.3447" stroke="black" stroke-linecap="round" stroke-linejoin="round"/>
<path d="M11.4999 16.0002C10.4999 3.00013 25.0001 -0.499745 29.9998 2.00022C38.4998 5.50023 41.5001 15.0002 34.4999 24.0002C28.2776 32.0002 28.4999 37.0002 29.0002 47.5003L27.4999 49.0002L25.4998 47.5003L23.4999 35.5002C21.4999 26.0002 13.4999 26.5002 11.4999 16.0002Z" fill="white" stroke="black" stroke-linecap="round" stroke-linejoin="round"/>
<path d="M25.599 22.0202C32.2648 22.782 34.8047 14.0179 30.0582 9.58775C26.7785 6.52669 19.6414 7.88377 18.9109 13.7282" stroke="black" stroke-linecap="round" stroke-linejoin="round"/>
<path d="M17 9.58789C17.5 11.5002 18 13.5002 18.5 15.0002" stroke="black" stroke-linecap="round" stroke-linejoin="round"/>
<path d="M18.5 15.0001C19.6464 13.5871 21.1404 11.8173 23.3699 10.8618" stroke="black" stroke-linecap="round" stroke-linejoin="round"/>
</svg>
