<svg width="71" height="73" viewBox="0 0 71 73" fill="none" xmlns="http://www.w3.org/2000/svg">
<path d="M6.51343 1.5L2.01343 5.5L2.01343 27.5C3.84676 31.3333 7.79807 39.5 13.0134 39.5C20.0134 39.5 25.5134 35.3333 28.0134 32L28.0134 15.5L6.51343 1.5Z" fill="#A4CDF8"/>
<path d="M2.01367 2.52423C2.01364 12.9126 1.99447 18.3313 2.01365 25.0001" stroke="black" stroke-linecap="round" stroke-linejoin="round"/>
<path d="M2.01343 24C2.51343 31 8.01339 39.5 14.0134 39.5" stroke="black" stroke-linecap="round" stroke-linejoin="round"/>
<path d="M11.0133 39.0003C15.5134 39.0003 20.6044 36.9848 22.7993 34.5003" stroke="black" stroke-linecap="round" stroke-linejoin="round"/>
<path d="M12.5135 39.4999C22.0134 39.4999 24.9948 35.6376 27.1898 33.1531" stroke="black" stroke-linecap="round" stroke-linejoin="round"/>
<path d="M6.01367 1.06689C15.6231 7.32243 18.4912 9.20525 29.3899 16.109" stroke="black" stroke-linecap="round" stroke-linejoin="round"/>
<path d="M1.01367 5.06836C9.38977 10.052 15.3899 14.1105 24.8899 19.6105" stroke="black" stroke-linecap="round" stroke-linejoin="round"/>
<path d="M22.874 16.9671C22.874 24.9394 22.8741 31.1115 22.8741 35.3276" stroke="black" stroke-linecap="round" stroke-linejoin="round"/>
<path d="M27.5134 14.4998C27.5134 22.4721 27.5135 28.6443 27.5135 32.8603" stroke="black" stroke-linecap="round" stroke-linejoin="round"/>
<path d="M1.01367 5.79506C3.01367 4.5 4.51367 3.5 6.51367 2" stroke="black" stroke-linecap="round" stroke-linejoin="round"/>
<path d="M22.0137 18.7951C24.0137 17.5 27.0135 15.5 29.0135 14" stroke="black" stroke-linecap="round" stroke-linejoin="round"/>
<path d="M20.0134 16C21.6134 14.8209 22.4134 14.3657 24.0134 13" stroke="black" stroke-linecap="round" stroke-linejoin="round"/>
<path d="M16.0134 14C17.6134 12.8209 18.4134 12.3657 20.0134 11" stroke="black" stroke-linecap="round" stroke-linejoin="round"/>
<path d="M13.0134 12C14.6134 10.8209 15.4134 10.3657 17.0134 9" stroke="black" stroke-linecap="round" stroke-linejoin="round"/>
<path d="M10.0134 10C11.6134 8.82091 12.4134 8.36568 14.0134 7" stroke="black" stroke-linecap="round" stroke-linejoin="round"/>
<path d="M7.01343 8C8.61343 6.82091 9.41343 6.36568 11.0134 5" stroke="black" stroke-linecap="round" stroke-linejoin="round"/>
<path d="M4.01343 6C5.61343 4.82091 6.41343 4.36568 8.01343 3" stroke="black" stroke-linecap="round" stroke-linejoin="round"/>
<path d="M22.6714 34.8254C24.0134 34.5 25.5165 33.4506 27.5134 32.5" stroke="black" stroke-linecap="round" stroke-linejoin="round"/>
<path d="M23.0134 30.3254C24.3555 30 25.8586 28.9506 27.8555 28" stroke="black" stroke-linecap="round" stroke-linejoin="round"/>
<path d="M23.0134 26C24.1221 25.7201 25.3638 24.8176 27.0134 24" stroke="black" stroke-linecap="round" stroke-linejoin="round"/>
<path d="M23.0134 22C24.1221 21.7201 25.3638 20.8176 27.0134 20" stroke="black" stroke-linecap="round" stroke-linejoin="round"/>
<ellipse cx="13.3075" cy="24.9086" rx="6.82477" ry="6.92439" transform="rotate(-0.164727 13.3075 24.9086)" fill="white"/>
<path d="M7.15953 24.8022C8.40377 26.0301 9.44047 27.3839 10.1159 29.2844C10.2497 30.5717 8.64181 22.6079 17.5373 17.0077" stroke="black" stroke-linecap="round" stroke-linejoin="round"/>
<path d="M12.5557 18.7699C6.27641 18.7879 4.61827 22.9386 5.11972 25.8039C5.50682 28.0158 6.72998 29.7633 8.66562 30.771C12.5162 32.7757 16.399 31.0053 18.0743 27.1602C19.898 22.9746 16.6788 19.55 14.6597 18.7638C12.9987 18.117 10.7448 18.0844 9.0236 18.7801C7.5079 19.3927 5.92243 20.3156 5.1077 21.6229" stroke="black" stroke-linecap="round" stroke-linejoin="round"/>
<path d="M31.2886 60.1217L32.0741 13.8569L50.079 3.31738L67.2059 13.8569L68.0841 60.8457L50.079 71.1749L31.2886 60.1217Z" fill="white"/>
<path d="M49.5964 23.0791L49.5965 71.5642" stroke="black" stroke-linecap="round" stroke-linejoin="round"/>
<path d="M67.9043 12.5396V61.266" stroke="black" stroke-linecap="round" stroke-linejoin="round"/>
<path d="M32 13L31.6349 60.8457" stroke="black" stroke-linecap="round" stroke-linejoin="round"/>
<path d="M30.3174 12.9785L50.5181 24.3963" stroke="black" stroke-linecap="round" stroke-linejoin="round"/>
<path d="M47.3079 2L69.5635 14.8562" stroke="black" stroke-linecap="round" stroke-linejoin="round"/>
<path d="M29 58.9775L51.2557 71.8337" stroke="black" stroke-linecap="round" stroke-linejoin="round"/>
<path d="M31.2886 13.5571L51.3965 2.4394" stroke="black" stroke-linecap="round" stroke-linejoin="round"/>
<path d="M49.5964 23.7407L68.5232 12.5396" stroke="black" stroke-linecap="round" stroke-linejoin="round"/>
<path d="M48.7615 71.8245L69.0485 60.1218" stroke="black" stroke-linecap="round" stroke-linejoin="round"/>
<path d="M54.0901 21.3227L49.2007 39.3277M59.9056 17.8095L49.2007 57.7857M65.8134 14.6016L50.5182 70.9252M67.8681 23.9576L55.8196 68.3252M68.0903 39.3277L61.1687 64.6095M68.298 52.9413L65.8134 62.1633" stroke="black" stroke-linecap="round" stroke-linejoin="round"/>
<path d="M42.125 28C42.125 29.375 42.125 30.75 42.125 32.125" stroke="black" stroke-linecap="round" stroke-linejoin="round"/>
<path d="M42 28C43.625 29 44 29.5 45 30" stroke="black" stroke-linecap="round" stroke-linejoin="round"/>
<path d="M42 32.5C43.5 33.5 44.2723 34.0237 45 34.5" stroke="black" stroke-linecap="round" stroke-linejoin="round"/>
<path d="M45 34.5C45 32.5 45 31.6338 45 30" stroke="black" stroke-linecap="round" stroke-linejoin="round"/>
<path d="M36.125 24C36.125 25.375 36.125 26.75 36.125 28.125" stroke="black" stroke-linecap="round" stroke-linejoin="round"/>
<path d="M36 24C37.625 25 38 25.5 39 26" stroke="black" stroke-linecap="round" stroke-linejoin="round"/>
<path d="M36 28.5C37.5 29.5 38.2723 30.0237 39 30.5" stroke="black" stroke-linecap="round" stroke-linejoin="round"/>
<path d="M39 30.5C39 28.5 39 27.6338 39 26" stroke="black" stroke-linecap="round" stroke-linejoin="round"/>
<path d="M42.125 37C42.125 38.375 42.125 39.75 42.125 41.125" stroke="black" stroke-linecap="round" stroke-linejoin="round"/>
<path d="M42 37C43.625 38 44 38.5 45 39" stroke="black" stroke-linecap="round" stroke-linejoin="round"/>
<path d="M42 41.5C43.5 42.5 44.2723 43.0237 45 43.5" stroke="black" stroke-linecap="round" stroke-linejoin="round"/>
<path d="M45 43.5C45 41.5 45 40.6338 45 39" stroke="black" stroke-linecap="round" stroke-linejoin="round"/>
<path d="M36.125 33C36.125 34.375 36.125 35.75 36.125 37.125" stroke="black" stroke-linecap="round" stroke-linejoin="round"/>
<path d="M36 33C37.625 34 38 34.5 39 35" stroke="black" stroke-linecap="round" stroke-linejoin="round"/>
<path d="M36 37.5C37.5 38.5 38.2723 39.0237 39 39.5" stroke="black" stroke-linecap="round" stroke-linejoin="round"/>
<path d="M39 39.5C39 37.5 39 36.6338 39 35" stroke="black" stroke-linecap="round" stroke-linejoin="round"/>
<path d="M42.125 46C42.125 47.375 42.125 48.75 42.125 50.125" stroke="black" stroke-linecap="round" stroke-linejoin="round"/>
<path d="M42 46C43.625 47 44 47.5 45 48" stroke="black" stroke-linecap="round" stroke-linejoin="round"/>
<path d="M42 50.5C43.5 51.5 44.2723 52.0237 45 52.5" stroke="black" stroke-linecap="round" stroke-linejoin="round"/>
<path d="M45 52.5C45 50.5 45 49.6338 45 48" stroke="black" stroke-linecap="round" stroke-linejoin="round"/>
<path d="M36.125 42C36.125 43.375 36.125 44.75 36.125 46.125" stroke="black" stroke-linecap="round" stroke-linejoin="round"/>
<path d="M36 42C37.625 43 38 43.5 39 44" stroke="black" stroke-linecap="round" stroke-linejoin="round"/>
<path d="M36 46.5C37.5 47.5 38.2723 48.0237 39 48.5" stroke="black" stroke-linecap="round" stroke-linejoin="round"/>
<path d="M39 48.5C39 46.5 39 45.6338 39 44" stroke="black" stroke-linecap="round" stroke-linejoin="round"/>
<path d="M42.125 55C42.125 56.375 42.125 57.75 42.125 59.125" stroke="black" stroke-linecap="round" stroke-linejoin="round"/>
<path d="M42 55C43.625 56 44 56.5 45 57" stroke="black" stroke-linecap="round" stroke-linejoin="round"/>
<path d="M42 59.5C43.5 60.5 44.2723 61.0237 45 61.5" stroke="black" stroke-linecap="round" stroke-linejoin="round"/>
<path d="M45 61.5C45 59.5 45 58.6338 45 57" stroke="black" stroke-linecap="round" stroke-linejoin="round"/>
<path d="M36.125 51C36.125 52.375 36.125 53.75 36.125 55.125" stroke="black" stroke-linecap="round" stroke-linejoin="round"/>
<path d="M36 51C37.625 52 38 52.5 39 53" stroke="black" stroke-linecap="round" stroke-linejoin="round"/>
<path d="M36 55.5C37.5 56.5 38.2723 57.0237 39 57.5" stroke="black" stroke-linecap="round" stroke-linejoin="round"/>
<path d="M39 57.5C39 55.5 39 54.6338 39 53" stroke="black" stroke-linecap="round" stroke-linejoin="round"/>
</svg>
