<svg width="49" height="38" viewBox="0 0 49 38" fill="none" xmlns="http://www.w3.org/2000/svg">
<path d="M8.49731 3.42672C14.1001 3.42672 45.7788 2.02866 43.9253 5.29078C43.9253 11.815 8.97391 22.9995 8.97391 27.1937C8.5596 28.9752 10.3643 30.4558 11.304 30.4558C22.5414 30.4558 33.1996 30.1246 44.3913 29.9898" stroke="black" stroke-linecap="round" stroke-linejoin="round"/>
<circle cx="7.3572" cy="4.24832" r="3.61599" fill="#A4CDF8" stroke="black"/>
<circle cx="44.7776" cy="4.24832" r="3.61599" fill="#A4CDF8" stroke="black"/>
<circle cx="8.04212" cy="29.0573" r="4.62561" fill="white" stroke="black"/>
<path d="M33.6738 32.7858C39.7314 31.3879 42.9931 30.4559 46.954 29.4075C41.5952 29.0581 38.3335 28.5921 33.674 27.6602" stroke="black" stroke-linecap="round" stroke-linejoin="round"/>
<ellipse cx="9.50027" cy="28.3133" rx="8.4193" ry="8.72768" transform="rotate(-0.164727 9.50027 28.3133)" fill="white"/>
<path d="M3.8963 28.1724C5.46448 29.7199 6.77108 31.4262 7.62233 33.8215C7.79105 35.4439 5.7645 25.4068 16.976 18.3485" stroke="black" stroke-linecap="round" stroke-linejoin="round"/>
<path d="M10.6974 20.5697C2.78283 20.5924 0.69288 25.824 1.32492 29.4355C1.81282 32.2234 3.35453 34.426 5.79425 35.6962C10.6476 38.223 15.5416 35.9915 17.6532 31.1451C19.9519 25.8694 15.8943 21.553 13.3494 20.562C11.2558 19.7467 8.41487 19.7057 6.24547 20.5825C4.33503 21.3546 2.33667 22.5179 1.30976 24.1657" stroke="black" stroke-linecap="round" stroke-linejoin="round"/>
</svg>
