<svg width="375" height="604" viewBox="0 0 375 604" fill="none" xmlns="http://www.w3.org/2000/svg">
<g clip-path="url(#clip0)">
<rect width="375" height="604" fill="white"/>
<g style="mix-blend-mode:darken" filter="url(#filter0_d)">
<path fill-rule="evenodd" clip-rule="evenodd" d="M802.773 68.7868C805.178 67.4289 806.026 64.3789 804.669 61.9744C803.311 59.5699 800.261 58.7214 797.856 60.0792C768.201 76.8256 729.006 98.5532 692.055 119.037L692.051 119.039C650.45 142.1 611.696 163.583 592.604 174.605C586.234 178.283 580.001 181.988 573.895 185.618L573.889 185.621C562.48 192.404 551.518 198.92 540.958 204.486C524.739 213.034 510.375 218.822 498.1 219.674C474.668 221.302 460.355 218.259 438.149 213.538C435.763 213.03 433.285 212.504 430.696 211.961C422.461 210.237 415.289 208.778 408.117 207.319L408.111 207.318C392.021 204.045 375.935 200.772 347.858 194.503C309.674 185.976 288.628 182.536 272.138 183.612C256.727 184.618 245.454 189.584 228.716 196.956C227.29 197.584 225.824 198.23 224.312 198.892C211.747 204.397 197.613 210.406 183.522 216.398L183.518 216.399L183.518 216.399C154.195 228.867 125.054 241.258 110.603 248.863C104.686 251.978 100.492 255.832 98.0919 260.28C95.656 264.795 95.2746 269.552 96.3856 273.946C97.1022 276.78 98.4195 279.424 100.164 281.787C100.093 281.951 100.03 282.121 99.9764 282.296C99.1609 284.934 100.639 287.734 103.277 288.549L216.731 323.617C194.243 336.83 148.668 358.314 119.187 371.839C89.8027 385.318 68.2801 377.382 46.7825 369.455C45.8616 369.115 44.9407 368.776 44.0192 368.438C40.6382 367.198 36.9242 365.802 33.0052 364.329L33.002 364.328C24.1763 361.01 14.3107 357.301 4.86487 354.107C-8.59036 349.558 -22.1806 345.689 -31.3104 345.689C-36.154 345.689 -41.8814 346.938 -48.0902 348.861C-54.3676 350.806 -61.4847 353.554 -69.2091 356.788C-77.5755 360.291 -86.9439 364.492 -96.8959 368.954L-96.8972 368.955C-105.118 372.641 -113.736 376.505 -122.517 380.302C-145.243 390.13 -163.496 397.762 -200.035 413.041L-200.04 413.043C-226.813 424.238 -263.402 439.538 -318.759 462.813C-321.305 463.884 -322.501 466.815 -321.431 469.361C-320.36 471.906 -317.429 473.102 -314.883 472.032C-259.626 448.798 -223.054 433.506 -196.269 422.306L-196.269 422.305C-159.65 406.993 -141.324 399.33 -118.548 389.481C-109.434 385.54 -100.773 381.654 -92.5876 377.982L-92.585 377.981C-82.8147 373.598 -73.7226 369.519 -65.3471 366.012C-57.7364 362.826 -50.959 360.219 -45.131 358.413C-39.2344 356.586 -34.6454 355.689 -31.3104 355.689C-24.0827 355.689 -12.0216 358.953 1.66159 363.58C10.946 366.72 20.5198 370.319 29.2729 373.61L29.2759 373.611L29.2854 373.615C33.2523 375.106 37.0505 376.534 40.5767 377.827C41.593 378.199 42.617 378.578 43.6491 378.959C65.1411 386.904 90.1644 396.154 123.357 380.928C155.897 366 209.72 340.626 229.092 327.711C230.403 326.837 231.963 325.47 232.701 323.394C233.546 321.018 232.956 318.784 231.906 317.145C230.966 315.676 229.616 314.577 228.393 313.758C227.109 312.899 225.599 312.11 223.973 311.376C217.59 308.492 207.417 305.574 195.763 302.589C188.434 300.713 180.432 298.787 172.17 296.799L172.168 296.798C153.673 292.347 133.877 287.583 117.421 282.353C111.735 280.546 107.22 276 106.08 271.494C105.546 269.379 105.716 267.209 106.893 265.029C108.105 262.782 110.583 260.175 115.261 257.713C129.343 250.301 157.719 238.237 186.757 225.892L186.759 225.891L186.765 225.888C200.994 219.839 215.383 213.722 228.325 208.052C229.699 207.45 231.026 206.866 232.312 206.301C249.532 198.731 259.206 194.478 272.789 193.591C287.62 192.623 307.281 195.688 345.679 204.262C373.849 210.553 390.072 213.853 406.2 217.134L406.203 217.135C413.357 218.59 420.494 220.042 428.646 221.749C431.232 222.291 433.72 222.82 436.13 223.334L436.133 223.334C458.322 228.058 473.913 231.378 498.793 229.65C513.284 228.644 529.219 221.977 545.621 213.332C556.392 207.655 567.756 200.901 579.324 194.026L579.33 194.022C585.384 190.424 591.494 186.793 597.604 183.266C616.682 172.251 655.253 150.871 696.733 127.877C733.676 107.399 772.928 85.6408 802.773 68.7868ZM815.374 83.7796C813.946 81.4165 810.872 80.6591 808.509 82.0879L811.096 86.3666C808.509 82.0879 808.508 82.0884 808.506 82.0896L808.497 82.0949L808.462 82.116L808.323 82.2003L807.77 82.5339C807.283 82.8286 806.558 83.2662 805.611 83.8374C803.718 84.9799 800.936 86.6573 797.384 88.7958C790.28 93.0729 780.095 99.1947 767.773 106.572C743.128 121.328 709.938 141.105 675.752 161.195C641.56 181.287 606.395 201.678 577.794 217.666C563.49 225.662 550.857 232.54 540.823 237.724C530.644 242.982 523.509 246.299 519.998 247.402C505.228 252.039 483.495 251.173 455.358 246.736C430.45 242.808 401.266 236.222 368.579 228.845L368.578 228.845L368.537 228.836C364.548 227.936 360.508 227.024 356.416 226.104C350.871 224.856 345.188 223.466 339.464 222.065L339.46 222.064C328.242 219.318 316.863 216.533 306.039 214.711C289.585 211.942 273.27 211.154 258.86 216.228C245.461 220.946 214.977 233.855 188.043 245.491C174.531 251.328 161.847 256.874 152.541 260.96C147.888 263.003 144.079 264.682 141.433 265.85C140.11 266.434 139.077 266.89 138.376 267.201L137.576 267.555L137.371 267.645L137.319 267.668L137.306 267.674L137.302 267.676C137.302 267.676 137.301 267.676 139.327 272.247L137.301 267.676C135.333 268.549 134.144 270.583 134.35 272.726C134.556 274.87 136.111 276.64 138.21 277.121L139.327 272.247C138.21 277.121 138.21 277.121 138.211 277.121L138.212 277.122L138.219 277.123L138.248 277.13L138.364 277.156L138.825 277.263C139.232 277.357 139.838 277.497 140.629 277.681C142.209 278.049 144.528 278.591 147.475 279.288C153.37 280.684 161.776 282.699 171.819 285.178C191.91 290.139 218.524 296.95 244.657 304.364C249.893 305.849 254.595 307.689 258.257 309.785C262.013 311.936 264.159 314.062 265.054 315.871C265.757 317.29 265.925 318.925 264.437 321.374C262.768 324.123 259.069 327.697 252.016 331.893C248.793 333.811 244.989 336.089 240.737 338.636L240.734 338.638C225.543 347.738 204.622 360.268 183.971 372.044C170.758 379.577 157.707 386.772 146.387 392.535C134.964 398.351 125.629 402.54 119.719 404.253C107.045 407.927 96.9364 410.578 81.48 408.964C65.7685 407.323 44.2827 401.236 9.27997 386.612C-5.70886 380.349 -16.4066 377.092 -25.9949 376.601C-35.7661 376.102 -43.9113 378.498 -53.655 382.496C-84.2499 395.048 -175.79 436.116 -214.879 454.729C-217.372 455.916 -218.43 458.9 -217.243 461.393C-216.056 463.886 -213.072 464.945 -210.579 463.758C-171.598 445.195 -80.2331 404.209 -49.8594 391.748C-40.6434 387.967 -34.1109 386.199 -26.5056 386.588C-18.7175 386.987 -9.34033 389.67 5.42499 395.839C40.6847 410.57 63.2524 417.115 80.4415 418.91C97.8859 420.731 109.525 417.62 122.503 413.858C129.419 411.853 139.508 407.26 150.924 401.447C162.445 395.581 175.649 388.3 188.924 380.731C209.682 368.895 230.74 356.281 245.931 347.182C250.164 344.647 253.94 342.384 257.129 340.487C264.76 335.947 270.077 331.352 272.984 326.565C276.074 321.479 276.382 316.214 274.017 311.435C271.845 307.047 267.718 303.679 263.226 301.107C258.639 298.481 253.117 296.369 247.386 294.744C221.102 287.287 194.368 280.445 174.216 275.47C166.811 273.642 160.291 272.064 155.004 270.801L156.562 270.116C165.856 266.035 178.521 260.498 192.009 254.671C219.072 242.979 249.185 230.236 262.181 225.66C274.166 221.44 288.438 221.89 304.379 224.573C314.866 226.337 325.585 228.964 336.557 231.652L336.558 231.652C342.374 233.077 348.26 234.519 354.222 235.86C358.327 236.783 362.388 237.7 366.402 238.606L366.402 238.606C399.013 245.966 428.544 252.631 453.8 256.614C481.984 261.059 505.792 262.343 522.993 256.943C527.475 255.536 535.384 251.789 545.413 246.608C555.588 241.352 568.328 234.414 582.673 226.395C611.368 210.354 646.606 189.921 680.818 169.816C715.035 149.709 748.251 129.916 772.91 115.152C785.24 107.77 795.432 101.644 802.542 97.3629C806.097 95.2226 808.882 93.5435 810.778 92.3994C811.726 91.8273 812.452 91.389 812.941 91.0936L813.495 90.7588L813.635 90.674L813.671 90.6526L813.68 90.6472C813.682 90.6459 813.683 90.6453 811.096 86.3666L813.683 90.6453C816.046 89.2166 816.803 86.1427 815.374 83.7796Z" fill="white"/>
</g>
<path fill-rule="evenodd" clip-rule="evenodd" d="M0 362.667V28H375V208.779L286.633 191.575H268.417L251.688 194.549L133.84 241.391L105.958 255.518L95.5489 262.582V267.043L102.984 280.426L110.419 284.516L224.549 316.487L221.575 324.666L110.419 381.174L88.1137 384.148H57.6295L0 362.667ZM0 521.4V387.87C5.05627 390.044 10.0515 392.537 15.1315 395.071C31.323 403.15 48.376 411.658 71.0126 411.658C110.129 425.432 165.167 390.012 204.515 364.69L204.515 364.69C218.269 355.839 230.106 348.221 238.676 344.369C275.267 327.924 282.544 304.963 231.984 295.297L137.186 272.619L269.532 214.625L375 236.95V440.585L370.651 442.886L186.258 536.57L0 521.4Z" fill="white"/>
<path d="M156.365 112.722L123.5 104.001L100.825 112.014L77.4764 121.212V131.117L114.267 140.315L156.365 122.981V112.722Z" fill="white"/>
<path d="M102.947 127.226C101.874 131.39 101.556 133.008 100.47 137.485M116.036 128.287C114.559 133.24 114.304 135.104 113.144 139.608M106.484 128.287C105.383 132.562 105.118 133.661 104.008 138.23M110.376 128.89C109.274 133.165 108.607 135.965 107.899 138.9M96.9324 136.424L99.7631 126.165M111.083 140.066C111.615 137.878 112.034 136.066 112.448 134.301" stroke="black" stroke-linecap="round" stroke-linejoin="round"/>
<path d="M77.8297 131.118C78.7878 127.4 79.2384 125.623 80.306 121.212M83.1361 121.92C82.0827 126.008 81.7795 128.391 80.7853 132.249M83.7179 132.952C84.2926 130.561 85.7416 125.344 86.3199 122.981" stroke="black" stroke-linecap="round" stroke-linejoin="round"/>
<path d="M123.819 125.458C122.613 130.136 121.696 132.533 120.635 136.778M127.539 124.043C126.291 128.885 125.697 130.75 124.526 135.294M119.927 127.227L116.744 138.901" stroke="black" stroke-linecap="round" stroke-linejoin="round"/>
<path d="M96.3617 125.458C95.3482 129.391 94.3556 132.077 93.3949 135.805M89.5035 124.043L86.7854 134.194M92.9041 124.397L89.857 135.01C90.8143 131.295 91.9005 128.291 92.9041 124.397Z" stroke="black" stroke-linecap="round" stroke-linejoin="round"/>
<path d="M132.663 132.533L135.493 120.859M131.601 122.274L128.418 133.948M136.554 130.764C137.666 126.448 138.206 123.66 139.384 119.09L136.554 130.764ZM140.091 129.349C141.184 125.111 141.764 121.813 142.922 117.321L140.091 129.349Z" stroke="black" stroke-linecap="round" stroke-linejoin="round"/>
<path d="M150.704 114.491C149.477 119.255 148.582 123.335 147.875 126.165M151.444 124.75C152.555 120.439 153.42 117.288 154.596 112.723M143.983 127.58L146.813 116.26M154.596 123.689C155.161 121.497 155.854 118.898 156.365 116.968" stroke="black" stroke-linecap="round" stroke-linejoin="round"/>
<path d="M75 120.151C88.2207 123.217 101.441 126.561 113.914 129.349" stroke="black" stroke-linecap="round" stroke-linejoin="round"/>
<path d="M119 103C132.221 106.066 145.441 109.411 157.914 112.198" stroke="black" stroke-linecap="round" stroke-linejoin="round"/>
<path d="M75.7076 130.765C84.1979 133.241 99.0558 136.779 114.268 140.67" stroke="black" stroke-linecap="round" stroke-linejoin="round"/>
<path d="M112.498 129.703C121.696 126.519 144.691 116.967 158.487 111.307M75 121.5C84.1978 118.316 108 109 124.5 103" stroke="black" stroke-linecap="round" stroke-linejoin="round"/>
<path d="M112.145 140.67C125.588 135.01 137.969 130.411 158.487 121.92" stroke="black" stroke-linecap="round" stroke-linejoin="round"/>
<path d="M156.365 111.661C156.365 115.906 156.365 119.798 156.365 125.104" stroke="black" stroke-linecap="round" stroke-linejoin="round"/>
<path d="M77.8301 116.614C77.9212 121.803 77.8301 127.227 77.8301 132.887" stroke="black" stroke-linecap="round" stroke-linejoin="round"/>
<path d="M112.498 127.227C112.589 132.415 112.498 137.132 112.498 142.792" stroke="black" stroke-linecap="round" stroke-linejoin="round"/>
<path d="M132.5 89.5C135.409 90.0818 111.5 99 111.5 99L95 94L89 94L106 85.9999L117 85.9999C117 85.9999 125 88 132.5 89.5Z" fill="white"/>
<path d="M116.936 84.0002C116.936 89.5767 116.936 93.2835 116.936 96.9287" stroke="black" stroke-linecap="round" stroke-linejoin="round"/>
<path d="M116 85.3154C122.345 87.0516 127 87.8071 134.5 89.8071" stroke="black" stroke-linecap="round" stroke-linejoin="round"/>
<path d="M93.5915 94.9808C98.047 93.1164 113.946 86.6789 118.476 84.9997" stroke="black" stroke-linecap="round" stroke-linejoin="round"/>
<path d="M83.6309 96.4805C88.717 94.2415 102.741 88.0136 107.913 85.9996" stroke="black" stroke-linecap="round" stroke-linejoin="round"/>
<path d="M83.0692 95.0225C86.4792 94.7743 92.3544 94.3466 95.763 94.0985" stroke="black" stroke-linecap="round" stroke-linejoin="round"/>
<path d="M103 86.9995C107 86.4995 112 86.4995 117 85.4994" stroke="black" stroke-linecap="round" stroke-linejoin="round"/>
<path d="M100.166 95.9995C100.508 94.672 100.852 93.3387 101.197 91.9995L100.166 95.9995Z" stroke="black" stroke-linecap="round" stroke-linejoin="round"/>
<path d="M104 95.9927L105.416 90.4993M110.811 97.9993C111.744 94.3762 112.689 90.7095 113.645 86.9993L110.811 97.9993ZM109.222 88.9993C108.527 91.6953 107.84 94.3615 107.16 96.9993L109.222 88.9993Z" stroke="black" stroke-linecap="round" stroke-linejoin="round"/>
<path d="M114.708 97.4996L116.839 89.23" stroke="black" stroke-linecap="round" stroke-linejoin="round"/>
<circle cx="112" cy="91" r="13.5" fill="white" stroke="black"/>
<path d="M108.976 84.0467C104.185 86.7423 102.206 87.7664 98.8314 89.7721M99.5157 87.0821C102.328 85.4107 103.728 84.5032 107.389 82.402" stroke="black" stroke-linecap="round" stroke-linejoin="round"/>
<path d="M106.647 88.3229L98.7786 93.0753M108.254 90.2594C106.391 91.4337 101.616 94.1413 99.8187 95.2738M108.825 92.344C106.794 93.6233 104.791 94.8855 102.815 96.1306" stroke="black" stroke-linecap="round" stroke-linejoin="round"/>
<path d="M110.681 94.4236L106.243 97.2329M112.093 95.8471C110.686 96.7335 109.299 97.6075 107.93 98.4699" stroke="black" stroke-linecap="round" stroke-linejoin="round"/>
<path d="M122.34 90.0674C123.355 89.4275 124.378 88.7832 125.407 88.1347L122.34 90.0674ZM121.393 88.5627C122.821 87.663 124.269 86.7505 125.739 85.8247L121.393 88.5627Z" stroke="black" stroke-linecap="round" stroke-linejoin="round"/>
<path d="M134 115L113.014 123.83L94.5 118L94.5 94.4995L113.014 98.9995L134.831 88.7627L141.904 93.235L134 96.9998L134 115Z" fill="white"/>
<path d="M94.5 93.293C94.5 106.293 94.5 109.793 94.5 118.5" stroke="black" stroke-linecap="round" stroke-linejoin="round"/>
<path d="M114 98.0002C114 109.422 114 113 114 124.272M134 98C134 106 134 108.642 134 115.272" stroke="black" stroke-linecap="round" stroke-linejoin="round"/>
<path d="M94 118.5C100.345 120.236 107.5 122 115 124" stroke="black" stroke-linecap="round" stroke-linejoin="round"/>
<path d="M95 94.4917C101.345 96.2279 108.5 97.9917 116 99.9917" stroke="black" stroke-linecap="round" stroke-linejoin="round"/>
<path d="M111.616 124.481C116.071 122.616 131.97 116.179 136.5 114.5" stroke="black" stroke-linecap="round" stroke-linejoin="round"/>
<path d="M113 99C115 100.5 116.5 102.5 119 104.5" stroke="black" stroke-linecap="round" stroke-linejoin="round"/>
<path d="M117.822 104.961C121.626 103.021 140.33 94.5429 144.217 92.7727" stroke="black" stroke-linecap="round" stroke-linejoin="round"/>
<path d="M132.714 87.8896C136.24 89.994 139.904 92.127 143.697 93.6907" stroke="black" stroke-linecap="round" stroke-linejoin="round"/>
<path d="M109.112 100.169C119.206 95.7669 126.31 92.6096 137.123 88.0089" stroke="black" stroke-linecap="round" stroke-linejoin="round"/>
<path d="M115.593 122.5C117.146 116.472 118.735 110.305 120.36 104L115.593 122.5ZM116.839 102.5C115.924 106.049 115.022 109.547 114.133 113L116.839 102.5Z" stroke="black" stroke-linecap="round" stroke-linejoin="round"/>
<path d="M119.667 120.999L124.564 101.999M134 107.5L131.5 116.5M127.768 117.999C129.446 111.491 131.164 104.823 132.922 97.9993L127.768 117.999ZM128.499 99.9993C126.789 106.634 125.125 113.091 123.5 119.397L128.499 99.9993Z" stroke="black" stroke-linecap="round" stroke-linejoin="round"/>
<path fill-rule="evenodd" clip-rule="evenodd" d="M80.4929 52.3289C80.4929 54.6008 79.9984 56.8016 79.1508 58.7895L73.288 52.9679C73.9943 51.832 74.3475 50.483 74.3475 49.0631C74.4181 45.0164 71.0982 41.6796 67.0013 41.6796C65.5179 41.6796 64.1758 42.1056 63.0456 42.8155L57.6066 37.4199C59.6551 36.497 61.8448 36 64.2464 36C73.2173 36 80.4929 43.3125 80.4929 52.3289ZM55.3462 38.6978L61.2091 44.5904C60.2202 45.8684 59.6551 47.4302 59.6551 49.1341C59.6551 53.2519 62.975 56.5886 67.0719 56.5886C68.7672 56.5886 70.3212 56.0206 71.5927 55.0267L77.8794 61.3453C74.9126 65.747 69.968 68.6578 64.2464 68.6578C55.2756 68.6578 48 61.3453 48 52.3289C48 46.5783 50.8961 41.6086 55.3462 38.6978ZM67.0719 53.7488C69.8267 53.7488 72.0165 51.548 72.0165 48.7791C72.0165 46.0103 69.8267 43.8095 67.0719 43.8095C64.3171 43.8095 62.1274 46.0103 62.1274 48.7791C62.1274 51.548 64.3171 53.7488 67.0719 53.7488Z" fill="url(#paint0_linear)"/>
<path d="M91.2476 52.2108H89.7114V62.3926H91.2476V52.2108ZM94.842 57.8585C94.842 56.6404 95.5878 55.9444 96.6219 55.9444C97.6311 55.9444 98.2426 56.6056 98.2426 57.7143V62.3926H99.7291V57.5353C99.7291 55.6461 98.69 54.6568 97.129 54.6568C95.9805 54.6568 95.2298 55.1887 94.8768 55.9991H94.7824V54.7562H93.3555V62.3926H94.842V57.8585ZM105.277 54.7562H103.711V52.9267H102.225V54.7562H101.106V55.9494H102.225V60.4586C102.22 61.8457 103.279 62.5169 104.452 62.492C104.924 62.487 105.243 62.3975 105.417 62.3329L105.148 61.1049C105.049 61.1248 104.865 61.1696 104.626 61.1696C104.144 61.1696 103.711 61.0105 103.711 60.1504V55.9494H105.277V54.7562ZM110.121 62.5467C111.786 62.5467 112.965 61.7264 113.303 60.4835L111.896 60.2299C111.627 60.9508 110.981 61.3187 110.136 61.3187C108.863 61.3187 108.008 60.4934 107.968 59.0218H113.397V58.4949C113.397 55.7356 111.747 54.6568 110.016 54.6568C107.889 54.6568 106.487 56.2775 106.487 58.6241C106.487 60.9956 107.869 62.5467 110.121 62.5467ZM107.973 57.9082C108.033 56.8244 108.818 55.8848 110.026 55.8848C111.18 55.8848 111.935 56.7399 111.94 57.9082H107.973ZM118.238 65.4153C120.182 65.4153 121.683 64.5254 121.683 62.5616V54.7562H120.227V55.9941H120.117C119.854 55.5218 119.327 54.6568 117.905 54.6568C116.061 54.6568 114.703 56.1135 114.703 58.5446C114.703 60.9806 116.09 62.2782 117.895 62.2782C119.297 62.2782 119.839 61.4877 120.107 61.0005H120.202V62.502C120.202 63.7001 119.382 64.2172 118.253 64.2172C117.015 64.2172 116.533 63.5957 116.269 63.1582L114.992 63.6852C115.394 64.6199 116.414 65.4153 118.238 65.4153ZM118.223 61.0453C116.896 61.0453 116.205 60.0261 116.205 58.5247C116.205 57.0581 116.881 55.9196 118.223 55.9196C119.521 55.9196 120.217 56.9785 120.217 58.5247C120.217 60.1007 119.506 61.0453 118.223 61.0453ZM123.667 62.3926H125.154V57.7292C125.154 56.7299 125.924 56.0091 126.978 56.0091C127.286 56.0091 127.634 56.0637 127.754 56.0985V54.6767C127.605 54.6568 127.311 54.6419 127.122 54.6419C126.227 54.6419 125.462 55.149 125.183 55.9693H125.104V54.7562H123.667V62.3926ZM131.184 62.5616C132.447 62.5616 133.158 61.9203 133.441 61.3485H133.501V62.3926H134.953V57.3216C134.953 55.0993 133.203 54.6568 131.989 54.6568C130.607 54.6568 129.335 55.2136 128.837 56.6056L130.235 56.9238C130.453 56.3819 131.01 55.8599 132.009 55.8599C132.969 55.8599 133.461 56.362 133.461 57.2271V57.2619C133.461 57.8038 132.904 57.7939 131.532 57.9529C130.085 58.122 128.604 58.4998 128.604 60.2349C128.604 61.7363 129.732 62.5616 131.184 62.5616ZM131.507 61.3684C130.667 61.3684 130.061 60.9906 130.061 60.2548C130.061 59.4593 130.766 59.176 131.627 59.0616C132.109 58.997 133.252 58.8677 133.466 58.6539V59.6383C133.466 60.5431 132.745 61.3684 131.507 61.3684ZM140.487 54.7562H138.921V52.9267H137.435V54.7562H136.316V55.9494H137.435V60.4586C137.43 61.8457 138.489 62.5169 139.662 62.492C140.134 62.487 140.452 62.3975 140.626 62.3329L140.358 61.1049C140.258 61.1248 140.074 61.1696 139.836 61.1696C139.354 61.1696 138.921 61.0105 138.921 60.1504V55.9494H140.487V54.7562ZM142.121 62.3926H143.608V54.7562H142.121V62.3926ZM142.872 53.5779C143.384 53.5779 143.812 53.1802 143.812 52.693C143.812 52.2058 143.384 51.8031 142.872 51.8031C142.355 51.8031 141.933 52.2058 141.933 52.693C141.933 53.1802 142.355 53.5779 142.872 53.5779ZM148.814 62.5467C150.967 62.5467 152.374 60.9707 152.374 58.6092C152.374 56.2328 150.967 54.6568 148.814 54.6568C146.662 54.6568 145.255 56.2328 145.255 58.6092C145.255 60.9707 146.662 62.5467 148.814 62.5467ZM148.819 61.2988C147.412 61.2988 146.756 60.0708 146.756 58.6042C146.756 57.1426 147.412 55.8997 148.819 55.8997C150.216 55.8997 150.873 57.1426 150.873 58.6042C150.873 60.0708 150.216 61.2988 148.819 61.2988ZM155.51 57.8585C155.51 56.6404 156.256 55.9444 157.29 55.9444C158.299 55.9444 158.91 56.6056 158.91 57.7143V62.3926H160.397V57.5353C160.397 55.6461 159.358 54.6568 157.797 54.6568C156.648 54.6568 155.898 55.1887 155.545 55.9991H155.45V54.7562H154.023V62.3926H155.51V57.8585Z" fill="black"/>
<path d="M94.148 44.4139C93.969 43.1213 92.9747 42.3713 91.6849 42.3713C90.165 42.3713 89.0201 43.4793 89.0201 45.36C89.0201 47.2378 90.1508 48.3486 91.6849 48.3486C93.0684 48.3486 93.9861 47.4537 94.148 46.3429L93.0855 46.3372C92.952 47.019 92.3951 47.4026 91.6991 47.4026C90.7559 47.4026 90.0798 46.6952 90.0798 45.36C90.0798 44.0475 90.7503 43.3173 91.702 43.3173C92.4094 43.3173 92.9633 43.7179 93.0855 44.4139H94.148ZM100.328 45.36C100.328 43.4793 99.1803 42.3713 97.6548 42.3713C96.1263 42.3713 94.9815 43.4793 94.9815 45.36C94.9815 47.2378 96.1263 48.3486 97.6548 48.3486C99.1803 48.3486 100.328 47.2406 100.328 45.36ZM99.2684 45.36C99.2684 46.6838 98.6036 47.4026 97.6548 47.4026C96.7087 47.4026 96.0411 46.6838 96.0411 45.36C96.0411 44.0361 96.7087 43.3173 97.6548 43.3173C98.6036 43.3173 99.2684 44.0361 99.2684 45.36ZM106.122 42.4509H105.073V46.4168H105.022L102.284 42.4509H101.34V48.269H102.394V44.306H102.443L105.184 48.269H106.122V42.4509ZM107.031 43.3344H108.829V48.269H109.874V43.3344H111.673V42.4509H107.031V43.3344ZM113.637 42.4509H112.583V48.269H113.637V42.4509ZM119.576 42.4509H118.528V46.4168H118.477L115.738 42.4509H114.795V48.269H115.849V44.306H115.897L118.638 48.269H119.576V42.4509ZM124.408 42.4509V46.1639C124.408 46.894 123.9 47.4168 123.101 47.4168C122.3 47.4168 121.794 46.894 121.794 46.1639V42.4509H120.74V46.252C120.74 47.502 121.678 48.3571 123.101 48.3571C124.519 48.3571 125.462 47.502 125.462 46.252V42.4509H124.408ZM131.822 45.36C131.822 43.4793 130.675 42.3713 129.149 42.3713C127.621 42.3713 126.476 43.4793 126.476 45.36C126.476 47.2378 127.621 48.3486 129.149 48.3486C130.675 48.3486 131.822 47.2406 131.822 45.36ZM130.763 45.36C130.763 46.6838 130.098 47.4026 129.149 47.4026C128.203 47.4026 127.536 46.6838 127.536 45.36C127.536 44.0361 128.203 43.3173 129.149 43.3173C130.098 43.3173 130.763 44.0361 130.763 45.36ZM136.503 42.4509V46.1639C136.503 46.894 135.994 47.4168 135.196 47.4168C134.395 47.4168 133.889 46.894 133.889 46.1639V42.4509H132.835V46.252C132.835 47.502 133.772 48.3571 135.196 48.3571C136.613 48.3571 137.557 47.502 137.557 46.252V42.4509H136.503ZM141.88 44.0503H142.894C142.874 43.0673 142.036 42.3713 140.798 42.3713C139.576 42.3713 138.658 43.0588 138.661 44.0872C138.661 44.9225 139.255 45.4026 140.212 45.6497L140.874 45.8202C141.502 45.9793 141.917 46.1753 141.92 46.627C141.917 47.1242 141.445 47.4565 140.758 47.4565C140.099 47.4565 139.587 47.1611 139.545 46.5503H138.508C138.551 47.7065 139.411 48.3571 140.766 48.3571C142.161 48.3571 142.971 47.6611 142.974 46.6355C142.971 45.627 142.139 45.1668 141.264 44.9594L140.718 44.823C140.241 44.7094 139.724 44.5077 139.729 44.0219C139.732 43.5844 140.124 43.2634 140.783 43.2634C141.411 43.2634 141.826 43.556 141.88 44.0503Z" fill="black"/>
<path d="M331.365 146.722L298.5 138.001L275.825 146.014L252.476 155.212V165.117L289.267 174.315L331.365 156.981V146.722Z" fill="white"/>
<path d="M277.947 161.226C276.874 165.39 276.556 167.008 275.47 171.485M291.036 162.287C289.559 167.24 289.304 169.104 288.144 173.608M281.484 162.287C280.383 166.562 280.118 167.661 279.008 172.23M285.376 162.89C284.274 167.165 283.607 169.965 282.899 172.9M271.932 170.424L274.763 160.165M286.083 174.066C286.615 171.878 287.034 170.066 287.448 168.301" stroke="black" stroke-linecap="round" stroke-linejoin="round"/>
<path d="M252.83 165.118C253.788 161.4 254.238 159.623 255.306 155.212M258.136 155.92C257.083 160.008 256.78 162.391 255.785 166.249M258.718 166.952C259.293 164.561 260.742 159.344 261.32 156.981" stroke="black" stroke-linecap="round" stroke-linejoin="round"/>
<path d="M298.819 159.458C297.613 164.136 296.696 166.533 295.635 170.778M302.539 158.043C301.291 162.885 300.697 164.75 299.526 169.294M294.927 161.227L291.744 172.901" stroke="black" stroke-linecap="round" stroke-linejoin="round"/>
<path d="M271.362 159.458C270.348 163.391 269.356 166.077 268.395 169.805M264.504 158.043L261.785 168.194M267.904 158.397L264.857 169.01C265.814 165.295 266.9 162.291 267.904 158.397Z" stroke="black" stroke-linecap="round" stroke-linejoin="round"/>
<path d="M307.663 166.533L310.493 154.859M306.601 156.274L303.418 167.948M311.554 164.764C312.666 160.448 313.206 157.66 314.384 153.09L311.554 164.764ZM315.091 163.349C316.184 159.111 316.764 155.813 317.922 151.321L315.091 163.349Z" stroke="black" stroke-linecap="round" stroke-linejoin="round"/>
<path d="M325.704 148.491C324.477 153.255 323.582 157.335 322.875 160.165M326.444 158.75C327.555 154.439 328.42 151.288 329.596 146.723M318.983 161.58L321.813 150.26M329.596 157.689C330.161 155.497 330.854 152.898 331.365 150.968" stroke="black" stroke-linecap="round" stroke-linejoin="round"/>
<path d="M250 154.151C263.221 157.217 276.441 160.561 288.914 163.349" stroke="black" stroke-linecap="round" stroke-linejoin="round"/>
<path d="M294 137C307.221 140.066 320.441 143.411 332.914 146.198" stroke="black" stroke-linecap="round" stroke-linejoin="round"/>
<path d="M250.708 164.765C259.198 167.241 274.056 170.779 289.268 174.67" stroke="black" stroke-linecap="round" stroke-linejoin="round"/>
<path d="M287.498 163.703C296.696 160.519 319.691 150.967 333.487 145.307M250 155.5C259.198 152.316 283 143 299.5 137" stroke="black" stroke-linecap="round" stroke-linejoin="round"/>
<path d="M287.145 174.67C300.588 169.01 312.969 164.411 333.487 155.92" stroke="black" stroke-linecap="round" stroke-linejoin="round"/>
<path d="M331.365 145.661C331.365 149.906 331.365 153.798 331.365 159.104" stroke="black" stroke-linecap="round" stroke-linejoin="round"/>
<path d="M252.83 150.614C252.921 155.803 252.83 161.227 252.83 166.887" stroke="black" stroke-linecap="round" stroke-linejoin="round"/>
<path d="M287.498 161.227C287.589 166.415 287.498 171.132 287.498 176.792" stroke="black" stroke-linecap="round" stroke-linejoin="round"/>
<path d="M282.083 151.827H286.445V153.407L292.265 154.46L298.583 151.827L297.443 146.035L301.216 141.823L305.406 142.974L306.823 133.255H303.588V128.079L306.823 125.168L305.406 118.699L300.03 116.131L297.443 120.64V116.131L293.561 113.523L286.445 117.405V122.58L283.534 125.168H280.299L277.388 135.264H280.299V142.974L277.388 146.035L282.083 151.827Z" fill="white"/>
<path d="M277.424 134.948C277.938 135.117 278.448 135.221 278.983 135.323C281.303 135.765 283.637 136.128 285.965 136.527" stroke="black" stroke-linecap="round" stroke-linejoin="round"/>
<path d="M279.003 124.971C279.557 125.06 280.06 125.157 280.602 125.326C283.173 126.129 285.711 127.049 288.262 127.914" stroke="black" stroke-linecap="round" stroke-linejoin="round"/>
<path d="M285.965 117.148C288.594 118.013 291.329 118.602 294.004 119.301" stroke="black" stroke-linecap="round" stroke-linejoin="round"/>
<path d="M291.85 113.2C294.134 114.049 296.44 114.838 298.741 115.641" stroke="black" stroke-linecap="round" stroke-linejoin="round"/>
<path d="M299.674 116.287C301.691 116.768 303.661 117.516 305.631 118.153" stroke="black" stroke-linecap="round" stroke-linejoin="round"/>
<path d="M303.909 133.37C305.177 133.682 306.445 133.99 307.713 134.303" stroke="black" stroke-linecap="round" stroke-linejoin="round"/>
<path d="M301.397 141.91C302.815 142.237 304.222 142.626 305.632 142.986" stroke="black" stroke-linecap="round" stroke-linejoin="round"/>
<path d="M298.382 145.714C298.439 146.068 298.474 146.386 298.482 146.751C298.527 148.797 298.465 150.846 298.454 152.892" stroke="black" stroke-linecap="round" stroke-linejoin="round"/>
<path d="M292.281 149.232C292.438 151.235 292.408 153.256 292.496 155.262" stroke="black" stroke-linecap="round" stroke-linejoin="round"/>
<path d="M285.606 153.251C287.185 152.119 288.4 150.435 289.697 149.016" stroke="black" stroke-linecap="round" stroke-linejoin="round"/>
<path d="M282.448 147.149C283.795 145.492 285.552 144.139 287.113 142.699" stroke="black" stroke-linecap="round" stroke-linejoin="round"/>
<path d="M286.376 143.701C286.109 141.983 285.534 138.825 286.109 135.667" stroke="black" stroke-linecap="round" stroke-linejoin="round"/>
<path d="M288.405 128.201C289.123 126.981 290.128 125.617 292.712 124.182" stroke="black" stroke-linecap="round" stroke-linejoin="round"/>
<path d="M292.281 118.368C292.225 120.952 292.163 123.535 292.138 126.12" stroke="black" stroke-linecap="round" stroke-linejoin="round"/>
<path d="M297.664 115.713C297.664 117.842 297.664 119.972 297.664 122.101" stroke="black" stroke-linecap="round" stroke-linejoin="round"/>
<path d="M296.947 121.526C298.167 121.526 299.889 121.885 300.751 123.034" stroke="black" stroke-linecap="round" stroke-linejoin="round"/>
<path d="M300.104 122.675C300.485 122.389 300.812 122.096 301.157 121.762C302.925 120.046 304.668 118.304 306.421 116.574" stroke="black" stroke-linecap="round" stroke-linejoin="round"/>
<path d="M303.622 128.273C303.721 128.049 303.83 127.85 303.997 127.667C305.273 126.263 306.665 124.955 308 123.608" stroke="black" stroke-linecap="round" stroke-linejoin="round"/>
<path d="M304.627 117.722C304.983 118.361 305.132 118.996 305.313 119.716C305.695 121.245 305.977 122.817 306.437 124.326C306.495 124.515 306.593 124.694 306.78 124.756" stroke="black" stroke-linecap="round" stroke-linejoin="round"/>
<path d="M303.622 127.627C304.196 130.211 304.373 132.022 303.622 134.087" stroke="black" stroke-linecap="round" stroke-linejoin="round"/>
<path d="M306.564 133.872C307.067 137.101 305.344 141.408 304.483 143.705" stroke="black" stroke-linecap="round" stroke-linejoin="round"/>
<path d="M297.521 146.432C299.659 144.699 300.485 143.46 301.468 140.905" stroke="black" stroke-linecap="round" stroke-linejoin="round"/>
<path d="M291.491 154.83C291.939 154.756 292.238 154.669 292.671 154.46C295 153.334 296 153 299.5 151.5" stroke="black" stroke-linecap="round" stroke-linejoin="round"/>
<path d="M287.114 153.609C289.259 153.893 291.346 154.65 293.502 154.83" stroke="black" stroke-linecap="round" stroke-linejoin="round"/>
<path d="M287.257 153.898C287.123 153.063 287.017 152.223 286.898 151.386" stroke="black" stroke-linecap="round" stroke-linejoin="round"/>
<path d="M282.95 136.527C282.663 133.656 283.812 128.488 285.534 126.478" stroke="black" stroke-linecap="round" stroke-linejoin="round"/>
<path d="M278.069 135.45C277.989 131.902 279.218 128.201 280.94 125.043" stroke="black" stroke-linecap="round" stroke-linejoin="round"/>
<path d="M283.309 126.407C284.35 125.49 285.328 124.501 286.324 123.536" stroke="black" stroke-linecap="round" stroke-linejoin="round"/>
<path d="M286.468 117.364C286.468 118.96 286.379 120.554 286.332 122.149C286.324 122.44 286.31 122.634 286.396 122.89" stroke="black" stroke-linecap="round" stroke-linejoin="round"/>
<path d="M285.534 123.249C288 124 289.918 124.306 292 125" stroke="black" stroke-linecap="round" stroke-linejoin="round"/>
<path d="M297.592 120.377C298.656 118.719 299.746 117.076 300.822 115.425" stroke="black" stroke-linecap="round" stroke-linejoin="round"/>
<path d="M285.319 117.507C287.939 115.993 290.739 114.721 293.43 113.344" stroke="black" stroke-linecap="round" stroke-linejoin="round"/>
<path d="M291.348 119.301C292.794 118.675 294.161 117.821 295.535 117.06C297.091 116.198 298.66 115.353 300.176 114.42" stroke="black" stroke-linecap="round" stroke-linejoin="round"/>
<path d="M281.371 136.312C281.371 138.253 281.658 140.186 281.658 142.125" stroke="black" stroke-linecap="round" stroke-linejoin="round"/>
<path d="M281 142C283 142.5 284.744 142.867 287.5 143.5" stroke="black" stroke-linecap="round" stroke-linejoin="round"/>
<path d="M277.351 146.361C277.899 145.974 278.329 145.47 278.795 144.989C279.828 143.922 280.851 142.845 281.873 141.767" stroke="black" stroke-linecap="round" stroke-linejoin="round"/>
<path d="M277.065 146.217C279.369 146.566 281 147 284 147.5" stroke="black" stroke-linecap="round" stroke-linejoin="round"/>
<path d="M289.123 148.658C290.662 149.048 292.217 149.152 293.788 149.232" stroke="black" stroke-linecap="round" stroke-linejoin="round"/>
<path d="M282.52 146.935C283.692 148.545 284.713 150.255 285.805 151.919C286.155 152.453 286.507 153.138 287.042 153.538" stroke="black" stroke-linecap="round" stroke-linejoin="round"/>
<path d="M277.208 146.289C278.931 148.298 280.672 150.5 282.089 152.246" stroke="black" stroke-linecap="round" stroke-linejoin="round"/>
<path d="M280.941 151.815C282.886 151.853 284.747 152.803 286.683 152.964" stroke="black" stroke-linecap="round" stroke-linejoin="round"/>
<path d="M289.267 138.465C291.851 140.259 293.573 141.408 295.296 142.843" stroke="black" stroke-linecap="round" stroke-linejoin="round"/>
<path d="M289.841 140.26C290.128 138.25 290.415 134.518 290.702 131.934" stroke="black" stroke-linecap="round" stroke-linejoin="round"/>
<path d="M289.554 133.657C290.671 132.734 294.726 129.953 295.87 129.063" stroke="black" stroke-linecap="round" stroke-linejoin="round"/>
<path d="M294.004 128.919C295.835 130.069 297.901 130.896 299.841 131.838C300.352 132.086 301.047 132.323 301.54 132.652" stroke="black" stroke-linecap="round" stroke-linejoin="round"/>
<path d="M293.286 142.557C294.434 141.982 298.628 139.39 299.602 138.824" stroke="black" stroke-linecap="round" stroke-linejoin="round"/>
<path d="M298.741 139.399C299.315 136.815 299.602 134.231 300.176 131.647" stroke="black" stroke-linecap="round" stroke-linejoin="round"/>
<path d="M296.373 131.502C296.153 132.545 295.939 133.59 295.703 134.629C295.488 135.572 295.26 136.512 295.057 137.458C295.024 137.608 295.009 137.661 295.009 137.783" stroke="black" stroke-linecap="round" stroke-linejoin="round"/>
<path d="M290.989 139.864C291.742 139.578 292.468 139.213 293.198 138.875C293.912 138.545 294.644 138.237 295.332 137.854" stroke="black" stroke-linecap="round" stroke-linejoin="round"/>
<path d="M293.86 130.785C295.009 131.359 295.583 131.646 297.019 132.221" stroke="black" stroke-linecap="round" stroke-linejoin="round"/>
<path d="M295.87 132.185C297.592 132.185 299.82 132.071 301.325 131.934" stroke="black" stroke-linecap="round" stroke-linejoin="round"/>
<path d="M294.362 137.603C295.452 137.863 296.538 138.134 297.632 138.377C298.474 138.563 299.316 138.773 300.176 138.859" stroke="black" stroke-linecap="round" stroke-linejoin="round"/>
<path d="M295.183 131.358C295.788 131.134 296.594 130.822 297.541 130.432M295.5 134.803C296.816 135.094 298.134 135.379 299.46 135.665" stroke="black" stroke-linecap="round" stroke-linejoin="round"/>
<path d="M296.307 140.731L292.5 139" stroke="black" stroke-linecap="round" stroke-linejoin="round"/>
<path d="M292.138 151.671L288 151M284 150L279.693 149.448" stroke="black" stroke-linecap="round" stroke-linejoin="round"/>
<path d="M299 119C300.363 119.377 301.486 119.825 303.186 120.269" stroke="black" stroke-linecap="round" stroke-linejoin="round"/>
<path d="M284.5 145C282.837 144.653 281.571 144.334 280 144M285.534 139.53L281.802 138.723" stroke="black" stroke-linecap="round" stroke-linejoin="round"/>
<path d="M283.807 129.445L279.5 128.5M278.07 131.5L283.312 132.599" stroke="black" stroke-linecap="round" stroke-linejoin="round"/>
<path d="M292.039 121.753L286 120.5M285 125L289 126.5" stroke="black" stroke-linecap="round" stroke-linejoin="round"/>
<path d="M289.608 115.5C291.564 115.989 292.055 116.251 295.5 117.234L289.608 115.5Z" stroke="black" stroke-linecap="round" stroke-linejoin="round"/>
<path fill-rule="evenodd" clip-rule="evenodd" d="M249.215 77.3342C247.001 78.6606 245.418 80.8022 244.757 83.3652L244.149 85.7235L248.889 87.0427L249.498 84.6843C250.164 82.1067 252.724 80.5736 255.206 81.2637C257.689 81.9549 259.168 84.6135 258.503 87.1907C257.838 89.7675 255.279 91.3022 252.795 90.6114L252.742 90.5968L239.048 86.7861C236.579 86.0987 234.001 86.4507 231.787 87.7771C229.574 89.1033 227.991 91.2449 227.33 93.808C226.669 96.3709 227.008 99.0476 228.287 101.346C229.565 103.644 231.629 105.288 234.098 105.974C236.567 106.662 239.146 106.31 241.359 104.984C243.572 103.657 245.155 101.516 245.816 98.9526L246.425 96.5943L241.684 95.2752L241.076 97.6335C240.411 100.211 237.851 101.745 235.368 101.054C232.885 100.363 231.406 97.7043 232.07 95.1272C232.403 93.8384 233.21 92.8109 234.243 92.1915C235.277 91.5723 236.537 91.3613 237.779 91.7065L251.525 95.5317C253.994 96.2191 256.573 95.8671 258.786 94.5408C261 93.2145 262.583 91.0729 263.244 88.5099C263.905 85.947 263.565 83.2703 262.287 80.9721C261.008 78.674 258.945 77.0302 256.476 76.3433C254.006 75.6559 251.428 76.008 249.215 77.3342Z" fill="url(#paint1_linear)"/>
<path d="M275.659 100.741H272.522V91.052H275.758C276.707 91.052 277.523 91.246 278.204 91.6339C278.885 92.0187 279.407 92.5722 279.77 93.2944C280.136 94.0135 280.319 94.8761 280.319 95.8822C280.319 96.8915 280.134 97.7588 279.765 98.4842C279.399 99.2096 278.869 99.7679 278.176 100.159C277.482 100.547 276.643 100.741 275.659 100.741ZM273.984 99.4635H275.578C276.316 99.4635 276.93 99.3248 277.419 99.0472C277.908 98.7665 278.273 98.3612 278.516 97.8314C278.759 97.2984 278.881 96.6486 278.881 95.8822C278.881 95.1221 278.759 94.4772 278.516 93.9473C278.277 93.4174 277.919 93.0153 277.442 92.7409C276.966 92.4665 276.375 92.3293 275.668 92.3293H273.984V99.4635Z" fill="black"/>
<path d="M285.145 100.888C284.429 100.888 283.813 100.735 283.296 100.429C282.781 100.12 282.384 99.6859 282.103 99.1276C281.826 98.5662 281.687 97.9086 281.687 97.1549C281.687 96.4105 281.826 95.7545 282.103 95.1868C282.384 94.6191 282.775 94.176 283.277 93.8574C283.781 93.5389 284.371 93.3796 285.046 93.3796C285.456 93.3796 285.853 93.4474 286.238 93.583C286.623 93.7186 286.968 93.9315 287.274 94.2217C287.58 94.5119 287.821 94.8888 287.998 95.3524C288.175 95.8129 288.263 96.3727 288.263 97.0318V97.5333H282.487V96.4736H286.877C286.877 96.1014 286.801 95.7719 286.65 95.4848C286.498 95.1947 286.285 94.966 286.011 94.7989C285.74 94.6317 285.421 94.5481 285.055 94.5481C284.658 94.5481 284.311 94.6459 284.015 94.8414C283.721 95.0338 283.494 95.2861 283.333 95.5984C283.176 95.9075 283.097 96.2434 283.097 96.6061V97.434C283.097 97.9197 283.182 98.3328 283.352 98.6735C283.526 99.0141 283.767 99.2743 284.076 99.4541C284.385 99.6307 284.746 99.719 285.16 99.719C285.428 99.719 285.672 99.6812 285.893 99.6055C286.114 99.5266 286.304 99.4099 286.465 99.2554C286.626 99.1008 286.749 98.91 286.834 98.6829L288.173 98.9242C288.066 99.3184 287.873 99.6638 287.596 99.9603C287.322 100.254 286.976 100.482 286.56 100.646C286.147 100.807 285.675 100.888 285.145 100.888Z" fill="black"/>
<path d="M291.237 91.052V100.741H289.823V91.052H291.237Z" fill="black"/>
<path d="M293.131 100.741V93.4742H294.546V100.741H293.131ZM293.845 92.353C293.599 92.353 293.388 92.271 293.211 92.107C293.038 91.9398 292.951 91.7411 292.951 91.5109C292.951 91.2775 293.038 91.0788 293.211 90.9148C293.388 90.7476 293.599 90.6641 293.845 90.6641C294.091 90.6641 294.301 90.7476 294.475 90.9148C294.651 91.0788 294.739 91.2775 294.739 91.5109C294.739 91.7411 294.651 91.9398 294.475 92.107C294.301 92.271 294.091 92.353 293.845 92.353Z" fill="black"/>
<path d="M302.655 93.4742L300.02 100.741H298.506L295.867 93.4742H297.385L299.226 99.0661H299.301L301.137 93.4742H302.655Z" fill="black"/>
<path d="M306.847 100.888C306.131 100.888 305.514 100.735 304.997 100.429C304.483 100.12 304.086 99.6859 303.805 99.1276C303.527 98.5662 303.389 97.9086 303.389 97.1549C303.389 96.4105 303.527 95.7545 303.805 95.1868C304.086 94.6191 304.477 94.176 304.978 93.8574C305.483 93.5389 306.073 93.3796 306.748 93.3796C307.158 93.3796 307.555 93.4474 307.94 93.583C308.325 93.7186 308.67 93.9315 308.976 94.2217C309.282 94.5119 309.523 94.8888 309.7 95.3524C309.876 95.8129 309.965 96.3727 309.965 97.0318V97.5333H304.188V96.4736H308.578C308.578 96.1014 308.503 95.7719 308.351 95.4848C308.2 95.1947 307.987 94.966 307.713 94.7989C307.441 94.6317 307.123 94.5481 306.757 94.5481C306.36 94.5481 306.013 94.6459 305.716 94.8414C305.423 95.0338 305.196 95.2861 305.035 95.5984C304.877 95.9075 304.798 96.2434 304.798 96.6061V97.434C304.798 97.9197 304.884 98.3328 305.054 98.6735C305.227 99.0141 305.469 99.2743 305.778 99.4541C306.087 99.6307 306.448 99.719 306.861 99.719C307.129 99.719 307.374 99.6812 307.594 99.6055C307.815 99.5266 308.006 99.4099 308.167 99.2554C308.328 99.1008 308.451 98.91 308.536 98.6829L309.875 98.9242C309.767 99.3184 309.575 99.6638 309.298 99.9603C309.023 100.254 308.678 100.482 308.261 100.646C307.848 100.807 307.377 100.888 306.847 100.888Z" fill="black"/>
<path d="M311.525 100.741V93.4742H312.892V94.6286H312.967C313.1 94.2375 313.333 93.93 313.668 93.706C314.005 93.4789 314.387 93.3654 314.813 93.3654C314.901 93.3654 315.005 93.3686 315.125 93.3749C315.248 93.3812 315.344 93.3891 315.413 93.3985V94.7516C315.357 94.7358 315.256 94.7184 315.111 94.6995C314.965 94.6774 314.82 94.6664 314.675 94.6664C314.341 94.6664 314.043 94.7374 313.781 94.8793C313.523 95.0181 313.318 95.212 313.166 95.4612C313.015 95.7072 312.939 95.9879 312.939 96.3033V100.741H311.525Z" fill="black"/>
<path d="M317.743 103.447C317.532 103.447 317.34 103.43 317.166 103.395C316.993 103.363 316.863 103.329 316.778 103.291L317.119 102.132C317.507 102.239 317.832 102.247 318.093 102.155C318.358 102.067 318.581 101.788 318.76 101.318L318.935 100.835L316.277 93.4742H317.791L319.631 99.1134H319.707L321.547 93.4742L323.075 93.4884L320.071 101.711C319.932 102.086 319.755 102.403 319.541 102.662C319.327 102.92 319.071 103.116 318.775 103.248C318.478 103.381 318.134 103.447 317.743 103.447Z" fill="black"/>
<path d="M276.743 82.7982H275.732C275.703 82.6324 275.65 82.4855 275.572 82.3576C275.495 82.2278 275.398 82.1179 275.283 82.0278C275.168 81.9376 275.036 81.8701 274.888 81.825C274.742 81.7781 274.585 81.7547 274.415 81.7547C274.114 81.7547 273.848 81.8304 273.615 81.9818C273.383 82.1314 273.201 82.3513 273.069 82.6414C272.937 82.9298 272.872 83.2821 272.872 83.6984C272.872 84.122 272.937 84.4788 273.069 84.769C273.202 85.0573 273.384 85.2754 273.615 85.4232C273.848 85.5692 274.113 85.6422 274.413 85.6422C274.578 85.6422 274.733 85.6205 274.878 85.5773C275.024 85.5322 275.154 85.4664 275.27 85.3799C275.387 85.2934 275.485 85.1871 275.564 85.0609C275.645 84.9348 275.701 84.7906 275.732 84.6284L276.743 84.6338C276.705 84.8969 276.623 85.1438 276.497 85.3745C276.373 85.6052 276.209 85.8089 276.008 85.9855C275.806 86.1603 275.57 86.2973 275.299 86.3964C275.029 86.4937 274.729 86.5424 274.399 86.5424C273.912 86.5424 273.478 86.4297 273.096 86.2045C272.714 85.9792 272.413 85.6539 272.193 85.2285C271.973 84.8032 271.863 84.2932 271.863 83.6984C271.863 83.1019 271.974 82.5919 272.196 82.1683C272.418 81.743 272.719 81.4177 273.101 81.1924C273.484 80.9671 273.916 80.8545 274.399 80.8545C274.707 80.8545 274.994 80.8977 275.259 80.9843C275.524 81.0708 275.76 81.1978 275.967 81.3654C276.174 81.5312 276.345 81.7349 276.478 81.9764C276.613 82.2161 276.701 82.49 276.743 82.7982Z" fill="black"/>
<path d="M282.624 83.6984C282.624 84.295 282.512 84.8059 282.289 85.2312C282.067 85.6548 281.764 85.9792 281.38 86.2045C280.998 86.4297 280.565 86.5424 280.08 86.5424C279.595 86.5424 279.161 86.4297 278.777 86.2045C278.395 85.9774 278.092 85.6521 277.869 85.2285C277.647 84.8032 277.536 84.2932 277.536 83.6984C277.536 83.1019 277.647 82.5919 277.869 82.1683C278.092 81.743 278.395 81.4177 278.777 81.1924C279.161 80.9671 279.595 80.8545 280.08 80.8545C280.565 80.8545 280.998 80.9671 281.38 81.1924C281.764 81.4177 282.067 81.743 282.289 82.1683C282.512 82.5919 282.624 83.1019 282.624 83.6984ZM281.615 83.6984C281.615 83.2785 281.55 82.9244 281.418 82.636C281.288 82.3459 281.108 82.1269 280.877 81.9791C280.647 81.8295 280.381 81.7547 280.08 81.7547C279.779 81.7547 279.513 81.8295 279.282 81.9791C279.052 82.1269 278.871 82.3459 278.739 82.636C278.609 82.9244 278.544 83.2785 278.544 83.6984C278.544 84.1184 278.609 84.4734 278.739 84.7636C278.871 85.0519 279.052 85.2709 279.282 85.4205C279.513 85.5683 279.779 85.6422 280.08 85.6422C280.381 85.6422 280.647 85.5683 280.877 85.4205C281.108 85.2709 281.288 85.0519 281.418 84.7636C281.55 84.4734 281.615 84.1184 281.615 83.6984Z" fill="black"/>
<path d="M288.137 80.9302V86.4667H287.245L284.636 82.6955H284.59V86.4667H283.587V80.9302H284.485L287.091 84.7041H287.139V80.9302H288.137Z" fill="black"/>
<path d="M289.002 81.7709V80.9302H293.419V81.7709H291.708V86.4667H290.713V81.7709H289.002Z" fill="black"/>
<path d="M295.289 80.9302V86.4667H294.286V80.9302H295.289Z" fill="black"/>
<path d="M300.94 80.9302V86.4667H300.048L297.439 82.6955H297.393V86.4667H296.39V80.9302H297.288L299.894 84.7041H299.942V80.9302H300.94Z" fill="black"/>
<path d="M305.538 80.9302H306.541V84.5473C306.541 84.9438 306.447 85.2925 306.26 85.5935C306.074 85.8945 305.813 86.1297 305.476 86.2991C305.139 86.4667 304.745 86.5505 304.294 86.5505C303.842 86.5505 303.447 86.4667 303.11 86.2991C302.773 86.1297 302.512 85.8945 302.326 85.5935C302.141 85.2925 302.048 84.9438 302.048 84.5473V80.9302H303.051V84.4635C303.051 84.6942 303.101 84.8996 303.202 85.0799C303.305 85.2601 303.449 85.4016 303.635 85.5043C303.82 85.6052 304.04 85.6557 304.294 85.6557C304.549 85.6557 304.768 85.6052 304.954 85.5043C305.141 85.4016 305.286 85.2601 305.387 85.0799C305.487 84.8996 305.538 84.6942 305.538 84.4635V80.9302Z" fill="black"/>
<path d="M312.593 83.6984C312.593 84.295 312.482 84.8059 312.258 85.2312C312.037 85.6548 311.734 85.9792 311.35 86.2045C310.968 86.4297 310.534 86.5424 310.05 86.5424C309.565 86.5424 309.13 86.4297 308.747 86.2045C308.364 85.9774 308.062 85.6521 307.838 85.2285C307.617 84.8032 307.506 84.2932 307.506 83.6984C307.506 83.1019 307.617 82.5919 307.838 82.1683C308.062 81.743 308.364 81.4177 308.747 81.1924C309.13 80.9671 309.565 80.8545 310.05 80.8545C310.534 80.8545 310.968 80.9671 311.35 81.1924C311.734 81.4177 312.037 81.743 312.258 82.1683C312.482 82.5919 312.593 83.1019 312.593 83.6984ZM311.585 83.6984C311.585 83.2785 311.519 82.9244 311.388 82.636C311.258 82.3459 311.078 82.1269 310.847 81.9791C310.616 81.8295 310.351 81.7547 310.05 81.7547C309.749 81.7547 309.483 81.8295 309.252 81.9791C309.021 82.1269 308.84 82.3459 308.709 82.636C308.579 82.9244 308.514 83.2785 308.514 83.6984C308.514 84.1184 308.579 84.4734 308.709 84.7636C308.84 85.0519 309.021 85.2709 309.252 85.4205C309.483 85.5683 309.749 85.6422 310.05 85.6422C310.351 85.6422 310.616 85.5683 310.847 85.4205C311.078 85.2709 311.258 85.0519 311.388 84.7636C311.519 84.4734 311.585 84.1184 311.585 83.6984Z" fill="black"/>
<path d="M317.047 80.9302H318.05V84.5473C318.05 84.9438 317.956 85.2925 317.769 85.5935C317.583 85.8945 317.322 86.1297 316.985 86.2991C316.648 86.4667 316.254 86.5505 315.803 86.5505C315.351 86.5505 314.956 86.4667 314.619 86.2991C314.282 86.1297 314.021 85.8945 313.835 85.5935C313.65 85.2925 313.557 84.9438 313.557 84.5473V80.9302H314.56V84.4635C314.56 84.6942 314.61 84.8996 314.711 85.0799C314.814 85.2601 314.958 85.4016 315.144 85.5043C315.329 85.6052 315.549 85.6557 315.803 85.6557C316.057 85.6557 316.277 85.6052 316.463 85.5043C316.65 85.4016 316.795 85.2601 316.896 85.0799C316.996 84.8996 317.047 84.6942 317.047 84.4635V80.9302Z" fill="black"/>
<path d="M322.164 82.4522C322.139 82.2161 322.032 82.0323 321.845 81.9007C321.659 81.7691 321.418 81.7034 321.121 81.7034C320.911 81.7034 320.732 81.7349 320.583 81.798C320.433 81.861 320.319 81.9467 320.239 82.0548C320.16 82.1629 320.119 82.2864 320.118 82.4251C320.118 82.5405 320.144 82.6405 320.196 82.7252C320.25 82.8099 320.323 82.882 320.415 82.9415C320.507 82.9992 320.609 83.0478 320.72 83.0875C320.832 83.1271 320.945 83.1605 321.058 83.1875L321.577 83.3173C321.786 83.3659 321.987 83.4317 322.18 83.5146C322.375 83.5975 322.549 83.702 322.702 83.8282C322.857 83.9544 322.98 84.1066 323.07 84.2851C323.16 84.4635 323.205 84.6726 323.205 84.9122C323.205 85.2367 323.122 85.5223 322.956 85.7692C322.79 86.0143 322.551 86.2063 322.237 86.345C321.925 86.482 321.548 86.5505 321.104 86.5505C320.674 86.5505 320.3 86.4838 319.982 86.3504C319.667 86.2171 319.42 86.0224 319.242 85.7665C319.065 85.5106 318.97 85.1988 318.955 84.8311H319.942C319.956 85.024 320.016 85.1844 320.12 85.3123C320.225 85.4403 320.361 85.5358 320.529 85.5989C320.698 85.662 320.887 85.6935 321.096 85.6935C321.314 85.6935 321.505 85.6611 321.669 85.5962C321.835 85.5295 321.965 85.4376 322.059 85.3205C322.152 85.2015 322.2 85.0627 322.202 84.9041C322.2 84.76 322.158 84.641 322.075 84.5473C321.992 84.4518 321.876 84.3725 321.726 84.3094C321.578 84.2445 321.405 84.1868 321.207 84.1364L320.577 83.9742C320.121 83.857 319.761 83.6795 319.496 83.4416C319.233 83.2019 319.101 82.8838 319.101 82.4873C319.101 82.1611 319.189 81.8755 319.366 81.6304C319.544 81.3853 319.787 81.1951 320.093 81.0599C320.4 80.923 320.747 80.8545 321.134 80.8545C321.527 80.8545 321.871 80.923 322.167 81.0599C322.464 81.1951 322.698 81.3835 322.867 81.625C323.036 81.8647 323.124 82.1404 323.129 82.4522H322.164Z" fill="black"/>
<path d="M113.365 292.682L88.6018 286.314L57.8246 291.975L34.4764 301.172V311.078L71.2675 320.275L113.365 302.941V292.682Z" fill="white"/>
<path d="M59.9468 307.186C58.8737 311.351 58.556 312.968 57.4703 317.446M73.0358 308.248C71.5588 313.201 71.3042 315.065 70.1437 319.568M63.4842 308.248C62.3827 312.522 62.1181 313.621 61.0076 318.191M67.3756 308.851C66.274 313.125 65.6068 315.926 64.899 318.86M53.9324 316.384L56.7631 306.125M68.0832 320.026C68.6148 317.839 69.0342 316.026 69.4479 314.261" stroke="black" stroke-linecap="round" stroke-linejoin="round"/>
<path d="M34.8297 311.078C35.7878 307.36 36.2384 305.583 37.306 301.173M40.1361 301.88C39.0827 305.968 38.7795 308.351 37.7853 312.209M40.7179 312.912C41.2926 310.521 42.7416 305.304 43.3199 302.942" stroke="black" stroke-linecap="round" stroke-linejoin="round"/>
<path d="M80.8187 305.418C79.6132 310.096 78.6961 312.493 77.6349 316.739M84.5386 304.003C83.2906 308.846 82.6971 310.71 81.5261 315.254M76.9273 307.187L73.7436 318.861" stroke="black" stroke-linecap="round" stroke-linejoin="round"/>
<path d="M53.3617 305.419C52.3482 309.352 51.3556 312.037 50.3949 315.765M46.5035 304.003L43.7854 314.154M49.9041 304.357L46.857 314.97C47.8143 311.256 48.9005 308.252 49.9041 304.357Z" stroke="black" stroke-linecap="round" stroke-linejoin="round"/>
<path d="M89.6625 312.493L92.4926 300.819M88.6013 302.234L85.4177 313.909M93.5539 310.724C94.6661 306.409 95.2062 303.621 96.384 299.05L93.5539 310.724ZM97.0915 309.309C98.1835 305.072 98.764 301.773 99.9216 297.281L97.0915 309.309Z" stroke="black" stroke-linecap="round" stroke-linejoin="round"/>
<path d="M107.704 294.452C106.477 299.216 105.582 303.296 104.875 306.126M108.444 304.711C109.555 300.399 110.42 297.248 111.596 292.683M100.983 307.541L103.813 296.221M111.596 303.65C112.161 301.458 112.854 298.858 113.365 296.928" stroke="black" stroke-linecap="round" stroke-linejoin="round"/>
<path d="M32 300.112C45.2207 303.178 58.4413 306.522 70.9137 309.31" stroke="black" stroke-linecap="round" stroke-linejoin="round"/>
<path d="M32.7076 310.725C41.1979 313.201 56.0559 316.739 71.2676 320.63" stroke="black" stroke-linecap="round" stroke-linejoin="round"/>
<path d="M69.4984 309.663C78.6962 306.479 101.691 296.928 115.487 291.268" stroke="black" stroke-linecap="round" stroke-linejoin="round"/>
<path d="M69.1448 320.63C82.5877 314.97 94.9694 310.371 115.487 301.881" stroke="black" stroke-linecap="round" stroke-linejoin="round"/>
<path d="M113.365 291.622C113.365 295.867 113.365 299.758 113.365 305.064" stroke="black" stroke-linecap="round" stroke-linejoin="round"/>
<path d="M34.8301 296.575C34.9212 301.763 34.8301 307.188 34.8301 312.848" stroke="black" stroke-linecap="round" stroke-linejoin="round"/>
<path d="M69.4984 307.187C69.5895 312.376 69.4984 317.092 69.4984 322.752" stroke="black" stroke-linecap="round" stroke-linejoin="round"/>
<path d="M32.7076 301.527C36.599 299.759 51.1032 294.452 59.9472 290.915" stroke="black" stroke-linecap="round" stroke-linejoin="round"/>
<path d="M88.6017 285.961C97.092 288.084 106.997 290.56 115.134 292.683" stroke="black" stroke-linecap="round" stroke-linejoin="round"/>
<path d="M75.903 254.83L54.6404 298.216C67.1322 305.784 85.2053 303.109 92.8466 298.216L75.903 254.83Z" fill="white"/>
<path d="M55.6159 294.662C60.1751 302.477 83.2969 303.454 94.0437 296.29" stroke="black" stroke-linecap="round" stroke-linejoin="round"/>
<path d="M54.9647 297.918C58.9126 289.364 72.7317 260.178 77.4352 252" stroke="black" stroke-linecap="round" stroke-linejoin="round"/>
<path d="M75.1555 252C77.9814 257.558 90.4716 291.921 93.0667 297.592" stroke="black" stroke-linecap="round" stroke-linejoin="round"/>
<path d="M77.5054 265.153L69.6195 267.724M75.6519 262.352L70.9221 263.977M74.8489 259.369L72.8761 260.05" stroke="black" stroke-linecap="round" stroke-linejoin="round"/>
<path d="M77.5892 268.23L67.6655 271.657M78.0866 275.122C72.4351 277.073 68.7111 278.372 63.4319 280.195M78.6538 271.431L65.7115 275.9" stroke="black" stroke-linecap="round" stroke-linejoin="round"/>
<path d="M81.2307 277.94L61.1525 284.74M82.3069 281.174L59.5242 288.917M63.4916 294.723L57.7697 296.698M74.6256 287.353C68.812 289.361 62.8647 291.379 57.2446 293.3" stroke="black" stroke-linecap="round" stroke-linejoin="round"/>
<path opacity="0.9" d="M32.175 213.42C41.977 213.42 49.9162 221.399 49.9162 231.251C49.9162 240.845 42.3873 248.663 32.9409 249.066L26.636 238.138L26.7985 238.418L27.1821 239.075C27.1821 239.075 28.2707 237.516 30.8898 236.816C35.4274 235.604 35.8623 237.222 40.3969 236.011C43.2339 235.253 45.7369 233.194 45.7369 233.194L38.6659 221.846C38.6659 221.846 36.1622 223.902 33.3251 224.66C28.7876 225.872 28.3526 224.254 23.8181 225.465L23.4851 225.566C21.8366 226.306 21.2346 226.911 20.6325 227.516L20.0305 228.121C20.0305 228.121 19.681 228.408 19.5645 228.477C19.0561 228.77 18.9957 230.087 19.3963 230.782L30.3434 251.513C30.6057 251.968 30.8443 252.375 31.3781 252.527C31.3945 252.617 31.623 252.436 31.6261 252.527C31.3781 252.61 31.9915 252.534 32.175 252.534C43.8725 252.534 53.35 243.008 53.35 231.251C53.35 219.494 43.8725 209.969 32.175 209.969C20.4775 209.969 11 219.494 11 231.251C11 241.26 18.5045 249.816 27.7635 252.09L25.2402 247.656L25.1387 247.456L25.1166 247.417C19.1487 244.546 14.4338 238.348 14.4338 231.251C14.4338 221.399 22.373 213.42 32.175 213.42Z" fill="url(#paint2_linear)"/>
<path d="M62.4686 236.267H64.0048V231.827H68.3301V230.51H64.0048V227.408H68.7825V226.085H62.4686V236.267ZM73.2731 236.421C74.9386 236.421 76.1168 235.601 76.4549 234.358L75.0479 234.104C74.7795 234.825 74.1332 235.193 73.288 235.193C72.0153 235.193 71.1601 234.368 71.1204 232.896H76.5493V232.369C76.5493 229.61 74.8988 228.531 73.1687 228.531C71.0408 228.531 69.6388 230.152 69.6388 232.499C69.6388 234.87 71.0209 236.421 73.2731 236.421ZM71.1253 231.783C71.185 230.699 71.9705 229.759 73.1786 229.759C74.332 229.759 75.0877 230.614 75.0927 231.783H71.1253ZM80.411 236.436C81.6738 236.436 82.3847 235.795 82.6681 235.223H82.7277V236.267H84.1794V231.196C84.1794 228.974 82.4294 228.531 81.2164 228.531C79.8343 228.531 78.5615 229.088 78.0644 230.48L79.4614 230.798C79.6801 230.256 80.237 229.734 81.2363 229.734C82.1958 229.734 82.688 230.237 82.688 231.102V231.136C82.688 231.678 82.1311 231.668 80.759 231.827C79.3123 231.996 77.8307 232.374 77.8307 234.109C77.8307 235.611 78.9593 236.436 80.411 236.436ZM80.7341 235.243C79.8939 235.243 79.2874 234.865 79.2874 234.129C79.2874 233.334 79.9934 233.05 80.8534 232.936C81.3357 232.871 82.4792 232.742 82.6929 232.528V233.513C82.6929 234.418 81.9721 235.243 80.7341 235.243ZM89.714 228.631H88.148V226.801H86.6614V228.631H85.5428V229.824H86.6614V234.333C86.6565 235.72 87.7154 236.391 88.8887 236.367C89.361 236.362 89.6792 236.272 89.8532 236.207L89.5847 234.979C89.4853 234.999 89.3014 235.044 89.0627 235.044C88.5805 235.044 88.148 234.885 88.148 234.025V229.824H89.714V228.631ZM96.1857 233.1C96.1907 234.398 95.2262 235.014 94.391 235.014C93.4712 235.014 92.8349 234.348 92.8349 233.309V228.631H91.3484V233.488C91.3484 235.382 92.3874 236.367 93.854 236.367C95.0025 236.367 95.783 235.76 96.136 234.945H96.2155V236.267H97.6772V228.631H96.1857V233.1ZM99.6645 236.267H101.151V231.604C101.151 230.604 101.922 229.884 102.976 229.884C103.284 229.884 103.632 229.938 103.751 229.973V228.551C103.602 228.531 103.309 228.516 103.12 228.516C102.225 228.516 101.459 229.023 101.181 229.844H101.101V228.631H99.6645V236.267ZM108.045 236.421C109.711 236.421 110.889 235.601 111.227 234.358L109.82 234.104C109.552 234.825 108.905 235.193 108.06 235.193C106.788 235.193 105.932 234.368 105.893 232.896H111.322V232.369C111.322 229.61 109.671 228.531 107.941 228.531C105.813 228.531 104.411 230.152 104.411 232.499C104.411 234.87 105.793 236.421 108.045 236.421ZM105.898 231.783C105.957 230.699 106.743 229.759 107.951 229.759C109.104 229.759 109.86 230.614 109.865 231.783H105.898ZM116.775 236.267H118.312V231.827H122.637V230.51H118.312V227.408H123.089V226.085H116.775V236.267ZM126.336 226.085H124.849V236.267H126.336V226.085ZM130.548 236.436C131.811 236.436 132.521 235.795 132.805 235.223H132.865V236.267H134.316V231.196C134.316 228.974 132.566 228.531 131.353 228.531C129.971 228.531 128.698 229.088 128.201 230.48L129.598 230.798C129.817 230.256 130.374 229.734 131.373 229.734C132.333 229.734 132.825 230.237 132.825 231.102V231.136C132.825 231.678 132.268 231.668 130.896 231.827C129.449 231.996 127.968 232.374 127.968 234.109C127.968 235.611 129.096 236.436 130.548 236.436ZM130.871 235.243C130.031 235.243 129.424 234.865 129.424 234.129C129.424 233.334 130.13 233.05 130.99 232.936C131.472 232.871 132.616 232.742 132.83 232.528V233.513C132.83 234.418 132.109 235.243 130.871 235.243ZM139.488 239.29C141.432 239.29 142.933 238.4 142.933 236.436V228.631H141.477V229.869H141.367C141.104 229.396 140.577 228.531 139.155 228.531C137.31 228.531 135.953 229.988 135.953 232.419C135.953 234.855 137.34 236.153 139.145 236.153C140.547 236.153 141.089 235.362 141.357 234.875H141.452V236.376C141.452 237.575 140.631 238.092 139.503 238.092C138.265 238.092 137.783 237.47 137.519 237.033L136.241 237.56C136.644 238.494 137.663 239.29 139.488 239.29ZM139.473 234.92C138.146 234.92 137.454 233.901 137.454 232.399C137.454 230.933 138.131 229.794 139.473 229.794C140.771 229.794 141.467 230.853 141.467 232.399C141.467 233.975 140.756 234.92 139.473 234.92ZM150.639 230.495C150.331 229.307 149.401 228.531 147.751 228.531C146.025 228.531 144.802 229.441 144.802 230.793C144.802 231.877 145.459 232.598 146.891 232.916L148.183 233.2C148.919 233.364 149.262 233.692 149.262 234.169C149.262 234.761 148.631 235.223 147.656 235.223C146.766 235.223 146.194 234.84 146.016 234.09L144.579 234.308C144.827 235.661 145.951 236.421 147.666 236.421C149.511 236.421 150.788 235.442 150.788 234.06C150.788 232.981 150.102 232.315 148.7 231.992L147.487 231.713C146.647 231.514 146.284 231.231 146.289 230.714C146.284 230.127 146.92 229.71 147.766 229.71C148.69 229.71 149.118 230.222 149.292 230.734L150.639 230.495Z" fill="black"/>
<path d="M350.365 318.722L317.5 310.001L294.825 318.014L271.476 327.212V337.117L308.267 346.315L350.365 328.981V318.722Z" fill="white"/>
<path d="M296.947 333.226C295.874 337.39 295.556 339.008 294.47 343.485M310.036 334.287C308.559 339.24 308.304 341.104 307.144 345.608M300.484 334.287C299.383 338.562 299.118 339.661 298.008 344.23M304.376 334.89C303.274 339.165 302.607 341.965 301.899 344.9M290.932 342.424L293.763 332.165M305.083 346.066C305.615 343.878 306.034 342.066 306.448 340.301" stroke="black" stroke-linecap="round" stroke-linejoin="round"/>
<path d="M271.83 337.118C272.788 333.4 273.238 331.623 274.306 327.212M277.136 327.92C276.083 332.008 275.78 334.391 274.785 338.249M277.718 338.952C278.293 336.561 279.742 331.344 280.32 328.981" stroke="black" stroke-linecap="round" stroke-linejoin="round"/>
<path d="M317.819 331.458C316.613 336.136 315.696 338.533 314.635 342.778M321.539 330.043C320.291 334.885 319.697 336.75 318.526 341.294M313.927 333.227L310.744 344.901" stroke="black" stroke-linecap="round" stroke-linejoin="round"/>
<path d="M290.362 331.458C289.348 335.391 288.356 338.077 287.395 341.805M283.504 330.043L280.785 340.194M286.904 330.397L283.857 341.01C284.814 337.295 285.9 334.291 286.904 330.397Z" stroke="black" stroke-linecap="round" stroke-linejoin="round"/>
<path d="M326.663 338.533L329.493 326.859M325.601 328.274L322.418 339.948M330.554 336.764C331.666 332.448 332.206 329.66 333.384 325.09L330.554 336.764ZM334.091 335.349C335.184 331.111 335.764 327.813 336.922 323.321L334.091 335.349Z" stroke="black" stroke-linecap="round" stroke-linejoin="round"/>
<path d="M344.704 320.491C343.477 325.255 342.582 329.335 341.875 332.165M345.444 330.75C346.555 326.439 347.42 323.288 348.596 318.723M337.983 333.58L340.813 322.26M348.596 329.689C349.161 327.497 349.854 324.898 350.365 322.968" stroke="black" stroke-linecap="round" stroke-linejoin="round"/>
<path d="M269 326.151C282.221 329.217 295.441 332.561 307.914 335.349" stroke="black" stroke-linecap="round" stroke-linejoin="round"/>
<path d="M313 309C326.221 312.066 339.441 315.411 351.914 318.198" stroke="black" stroke-linecap="round" stroke-linejoin="round"/>
<path d="M269.708 336.765C278.198 339.241 293.056 342.779 308.268 346.67" stroke="black" stroke-linecap="round" stroke-linejoin="round"/>
<path d="M306.498 335.703C315.696 332.519 338.691 322.967 352.487 317.307M269 327.5C278.198 324.316 302 315 318.5 309" stroke="black" stroke-linecap="round" stroke-linejoin="round"/>
<path d="M306.145 346.67C319.588 341.01 331.969 336.411 352.487 327.92" stroke="black" stroke-linecap="round" stroke-linejoin="round"/>
<path d="M350.365 317.661C350.365 321.906 350.365 325.798 350.365 331.104" stroke="black" stroke-linecap="round" stroke-linejoin="round"/>
<path d="M271.83 322.614C271.921 327.803 271.83 333.227 271.83 338.887" stroke="black" stroke-linecap="round" stroke-linejoin="round"/>
<path d="M306.498 333.227C306.589 338.415 306.498 343.132 306.498 348.792" stroke="black" stroke-linecap="round" stroke-linejoin="round"/>
<path d="M304.499 280.112L284.688 287.187V322.5L317 330L333.861 319V285.772L304.499 280.112Z" fill="white"/>
<path d="M311.574 295.678C317.204 293.122 331.278 286.914 337.752 284.357" stroke="black" stroke-linecap="round" stroke-linejoin="round"/>
<path d="M313 330C323.714 325.696 328.571 323.826 337.5 320" stroke="black" stroke-linecap="round" stroke-linejoin="round"/>
<path d="M333.595 283.296C333.595 294.617 333.595 310.118 333.595 322.5" stroke="black" stroke-linecap="round" stroke-linejoin="round"/>
<path d="M316.559 290.725C316.485 296.353 316.559 324.332 316.559 330.7" stroke="black" stroke-linecap="round" stroke-linejoin="round"/>
<path d="M284.688 284.357C284.688 292.14 284.688 315.217 284.688 323" stroke="black" stroke-linecap="round" stroke-linejoin="round"/>
<path d="M281.046 288.239C287.647 285.768 300.143 280.862 307.432 278" stroke="black" stroke-linecap="round" stroke-linejoin="round"/>
<path d="M283.627 287.188C295.301 289.664 309.451 291.787 320.418 294.263" stroke="black" stroke-linecap="round" stroke-linejoin="round"/>
<path d="M282.5 321C294.174 323.476 307.033 326.524 318 329" stroke="black" stroke-linecap="round" stroke-linejoin="round"/>
<path d="M300.607 279.405C309.451 280.82 328.2 284.358 336.337 286.127" stroke="black" stroke-linecap="round" stroke-linejoin="round"/>
<path d="M309.409 297.151C309.504 303.928 309.684 316.686 309.762 322.268" stroke="black" stroke-linecap="round" stroke-linejoin="round"/>
<path d="M291.72 294.321C291.72 300.335 291.72 311.656 291.72 316.608" stroke="black" stroke-linecap="round" stroke-linejoin="round"/>
<path d="M291.013 295.148C297.735 296.444 304.81 297.505 310.823 298.566" stroke="black" stroke-linecap="round" stroke-linejoin="round"/>
<path d="M289.64 316.197C295 317.5 302.5 319 311 321" stroke="black" stroke-linecap="round" stroke-linejoin="round"/>
<path d="M292 316.08C297.572 313.972 304.752 311.579 309.566 309.747" stroke="black" stroke-linecap="round" stroke-linejoin="round"/>
<path d="M292.597 312.697L309.494 306.688M309.232 303.515C304.601 305.317 297.859 307.648 292.335 309.524M308.941 299.989L292.434 306.421C297.066 304.618 304.574 301.689 308.941 299.989Z" stroke="black" stroke-linecap="round" stroke-linejoin="round"/>
<path d="M292.08 303.156L306.5 298.028M291.818 297.147L294.392 296.079M291.818 299.983C294.414 299.181 297.088 298.217 300.5 296.911" stroke="black" stroke-linecap="round" stroke-linejoin="round"/>
<path d="M319.722 292.5L316.63 304.5M324.016 290.5C321.679 299.568 318.852 310.878 316.63 319.5L324.016 290.5ZM318.8 327.5C321.964 315.221 325.316 302.215 328.85 288.5L318.8 327.5Z" stroke="black" stroke-linecap="round" stroke-linejoin="round"/>
<path d="M323.042 325.5L333.092 286.5M333.092 314C332.528 316.188 331.553 320.355 331 322.5L333.092 314ZM327.336 323.5C329.357 315.659 331.413 307.678 333.521 299.5L327.336 323.5Z" stroke="black" stroke-linecap="round" stroke-linejoin="round"/>
<path fill-rule="evenodd" clip-rule="evenodd" d="M209.734 276.768L210.308 277.092C210.893 277.415 211.553 277.579 212.222 277.569C212.877 277.572 213.523 277.408 214.097 277.092L214.671 276.768C223.789 271.65 229.433 262.041 229.443 251.618V251.352C229.456 249.978 228.724 248.704 227.53 248.017L224.436 246.284L212.334 264.559C212.12 264.789 211.816 264.921 211.496 264.925C211.166 264.924 210.863 264.796 210.646 264.571L205.066 258.843C204.786 258.554 204.631 258.255 204.804 257.763C205.066 257.023 205.745 256.706 206.225 256.706C206.692 256.706 206.794 256.812 207.057 257.083C207.065 257.091 207.073 257.099 207.081 257.107L210.767 260.701C211.132 261.057 211.737 260.995 212.019 260.573L222.357 245.119L214.135 240.511C212.951 239.83 211.492 239.83 210.308 240.511L196.914 248.017C195.719 248.704 194.988 249.978 195 251.352V251.618C195.002 262.033 200.631 271.64 209.734 276.768Z" fill="url(#paint3_linear)"/>
<path d="M246.631 257.494C246.283 255.317 244.578 254.044 242.425 254.044C239.791 254.044 237.847 256.018 237.847 259.274C237.847 262.531 239.781 264.504 242.425 264.504C244.663 264.504 246.298 263.102 246.631 261.089L245.08 261.084C244.817 262.387 243.723 263.102 242.435 263.102C240.69 263.102 239.373 261.765 239.373 259.274C239.373 256.803 240.685 255.446 242.44 255.446C243.738 255.446 244.827 256.177 245.08 257.494H246.631ZM249.827 259.831C249.827 258.613 250.597 257.917 251.656 257.917C252.681 257.917 253.292 258.568 253.292 259.687V264.365H254.779V259.508C254.779 257.604 253.735 256.629 252.164 256.629C250.975 256.629 250.259 257.146 249.901 257.972H249.807V254.183H248.34V264.365H249.827V259.831ZM258.975 264.534C260.237 264.534 260.948 263.893 261.232 263.321H261.291V264.365H262.743V259.294C262.743 257.072 260.993 256.629 259.78 256.629C258.398 256.629 257.125 257.186 256.628 258.578L258.025 258.896C258.244 258.355 258.801 257.833 259.8 257.833C260.759 257.833 261.252 258.335 261.252 259.2V259.235C261.252 259.776 260.695 259.767 259.323 259.926C257.876 260.095 256.394 260.472 256.394 262.208C256.394 263.709 257.523 264.534 258.975 264.534ZM259.298 263.341C258.457 263.341 257.851 262.963 257.851 262.227C257.851 261.432 258.557 261.149 259.417 261.034C259.899 260.97 261.043 260.84 261.257 260.627V261.611C261.257 262.516 260.536 263.341 259.298 263.341ZM266.199 259.831C266.199 258.613 266.945 257.917 267.979 257.917C268.989 257.917 269.6 258.578 269.6 259.687V264.365H271.087V259.508C271.087 257.619 270.047 256.629 268.486 256.629C267.338 256.629 266.587 257.161 266.234 257.972H266.14V256.729H264.713V264.365H266.199V259.831ZM276.272 267.388C278.216 267.388 279.717 266.498 279.717 264.534V256.729H278.26V257.967H278.151C277.888 257.494 277.361 256.629 275.939 256.629C274.094 256.629 272.737 258.086 272.737 260.517C272.737 262.953 274.124 264.251 275.929 264.251C277.331 264.251 277.873 263.46 278.141 262.973H278.236V264.475C278.236 265.673 277.415 266.19 276.287 266.19C275.049 266.19 274.567 265.568 274.303 265.131L273.025 265.658C273.428 266.593 274.447 267.388 276.272 267.388ZM276.257 263.018C274.93 263.018 274.238 261.999 274.238 260.497C274.238 259.031 274.915 257.892 276.257 257.892C277.555 257.892 278.251 258.951 278.251 260.497C278.251 262.073 277.54 263.018 276.257 263.018ZM284.992 264.519C286.657 264.519 287.836 263.699 288.174 262.456L286.767 262.203C286.498 262.923 285.852 263.291 285.007 263.291C283.734 263.291 282.879 262.466 282.839 260.994H288.268V260.468C288.268 257.708 286.618 256.629 284.888 256.629C282.76 256.629 281.358 258.25 281.358 260.597C281.358 262.968 282.74 264.519 284.992 264.519ZM282.844 259.881C282.904 258.797 283.689 257.857 284.897 257.857C286.051 257.857 286.807 258.713 286.812 259.881H282.844ZM295.258 254.183H293.722V264.365H295.258V254.183ZM298.853 259.831C298.853 258.613 299.598 257.917 300.632 257.917C301.642 257.917 302.253 258.578 302.253 259.687V264.365H303.74V259.508C303.74 257.619 302.701 256.629 301.14 256.629C299.991 256.629 299.24 257.161 298.887 257.972H298.793V256.729H297.366V264.365H298.853V259.831ZM309.288 256.729H307.722V254.899H306.235V256.729H305.117V257.922H306.235V262.431C306.23 263.818 307.289 264.49 308.463 264.465C308.935 264.46 309.253 264.37 309.427 264.306L309.159 263.078C309.059 263.097 308.875 263.142 308.637 263.142C308.154 263.142 307.722 262.983 307.722 262.123V257.922H309.288V256.729ZM314.131 264.519C315.797 264.519 316.975 263.699 317.313 262.456L315.906 262.203C315.638 262.923 314.991 263.291 314.146 263.291C312.874 263.291 312.018 262.466 311.979 260.994H317.408V260.468C317.408 257.708 315.757 256.629 314.027 256.629C311.899 256.629 310.497 258.25 310.497 260.597C310.497 262.968 311.879 264.519 314.131 264.519ZM311.984 259.881C312.043 258.797 312.829 257.857 314.037 257.857C315.19 257.857 315.946 258.713 315.951 259.881H311.984ZM320.534 254.183H319.047V264.365H320.534V254.183ZM324.01 254.183H322.523V264.365H324.01V254.183ZM326 264.365H327.486V256.729H326V264.365ZM326.75 255.551C327.262 255.551 327.69 255.153 327.69 254.666C327.69 254.178 327.262 253.776 326.75 253.776C326.233 253.776 325.811 254.178 325.811 254.666C325.811 255.153 326.233 255.551 326.75 255.551ZM332.678 267.388C334.622 267.388 336.123 266.498 336.123 264.534V256.729H334.666V257.967H334.557C334.293 257.494 333.766 256.629 332.345 256.629C330.5 256.629 329.143 258.086 329.143 260.517C329.143 262.953 330.53 264.251 332.335 264.251C333.737 264.251 334.279 263.46 334.547 262.973H334.641V264.475C334.641 265.673 333.821 266.19 332.693 266.19C331.455 266.19 330.972 265.568 330.709 265.131L329.431 265.658C329.834 266.593 330.853 267.388 332.678 267.388ZM332.663 263.018C331.335 263.018 330.644 261.999 330.644 260.497C330.644 259.031 331.32 257.892 332.663 257.892C333.96 257.892 334.656 258.951 334.656 260.497C334.656 262.073 333.945 263.018 332.663 263.018ZM341.398 264.519C343.063 264.519 344.242 263.699 344.58 262.456L343.173 262.203C342.904 262.923 342.258 263.291 341.413 263.291C340.14 263.291 339.285 262.466 339.245 260.994H344.674V260.468C344.674 257.708 343.024 256.629 341.293 256.629C339.166 256.629 337.764 258.25 337.764 260.597C337.764 262.968 339.146 264.519 341.398 264.519ZM339.25 259.881C339.31 258.797 340.095 257.857 341.303 257.857C342.457 257.857 343.212 258.713 343.217 259.881H339.25ZM347.8 259.831C347.8 258.613 348.546 257.917 349.58 257.917C350.589 257.917 351.2 258.578 351.2 259.687V264.365H352.687V259.508C352.687 257.619 351.648 256.629 350.087 256.629C348.938 256.629 348.188 257.161 347.835 257.972H347.74V256.729H346.313V264.365H347.8V259.831ZM357.887 264.519C359.692 264.519 360.86 263.436 361.024 261.949H359.578C359.389 262.774 358.747 263.262 357.897 263.262C356.639 263.262 355.829 262.213 355.829 260.547C355.829 258.911 356.654 257.882 357.897 257.882C358.842 257.882 359.418 258.479 359.578 259.195H361.024C360.865 257.654 359.607 256.629 357.872 256.629C355.72 256.629 354.328 258.25 354.328 260.582C354.328 262.884 355.67 264.519 357.887 264.519ZM365.895 264.519C367.561 264.519 368.739 263.699 369.077 262.456L367.67 262.203C367.402 262.923 366.755 263.291 365.91 263.291C364.637 263.291 363.782 262.466 363.742 260.994H369.171V260.468C369.171 257.708 367.521 256.629 365.791 256.629C363.663 256.629 362.261 258.25 362.261 260.597C362.261 262.968 363.643 264.519 365.895 264.519ZM363.747 259.881C363.807 258.797 364.593 257.857 365.801 257.857C366.954 257.857 367.71 258.713 367.715 259.881H363.747Z" fill="black"/>
<path d="M145.365 505.722L112.5 497.001L89.8246 505.014L66.4764 514.212V524.117L103.267 533.315L145.365 515.981V505.722Z" fill="white"/>
<path d="M91.9468 520.226C90.8737 524.39 90.556 526.008 89.4703 530.485M105.036 521.287C103.559 526.24 103.304 528.104 102.144 532.608M95.4842 521.287C94.3827 525.562 94.1181 526.661 93.0076 531.23M99.3756 521.89C98.274 526.165 97.6068 528.965 96.899 531.9M85.9324 529.424L88.7631 519.165M100.083 533.066C100.615 530.878 101.034 529.066 101.448 527.301" stroke="black" stroke-linecap="round" stroke-linejoin="round"/>
<path d="M66.8297 524.118C67.7878 520.4 68.2384 518.623 69.306 514.212M72.1361 514.92C71.0827 519.008 70.7795 521.391 69.7853 525.249M72.7179 525.952C73.2926 523.561 74.7416 518.344 75.3199 515.981" stroke="black" stroke-linecap="round" stroke-linejoin="round"/>
<path d="M112.819 518.458C111.613 523.136 110.696 525.533 109.635 529.778M116.539 517.043C115.291 521.885 114.697 523.75 113.526 528.294M108.927 520.227L105.744 531.901" stroke="black" stroke-linecap="round" stroke-linejoin="round"/>
<path d="M85.3617 518.458C84.3482 522.391 83.3556 525.077 82.3949 528.805M78.5035 517.043L75.7854 527.194M81.9041 517.397L78.857 528.01C79.8143 524.295 80.9005 521.291 81.9041 517.397Z" stroke="black" stroke-linecap="round" stroke-linejoin="round"/>
<path d="M121.663 525.533L124.493 513.859M120.601 515.274L117.418 526.948M125.554 523.764C126.666 519.448 127.206 516.66 128.384 512.09L125.554 523.764ZM129.091 522.349C130.184 518.111 130.764 514.813 131.922 510.321L129.091 522.349Z" stroke="black" stroke-linecap="round" stroke-linejoin="round"/>
<path d="M139.704 507.491C138.477 512.255 137.582 516.335 136.875 519.165M140.444 517.75C141.555 513.439 142.42 510.288 143.596 505.723M132.983 520.58L135.813 509.26M143.596 516.689C144.161 514.497 144.854 511.898 145.365 509.968" stroke="black" stroke-linecap="round" stroke-linejoin="round"/>
<path d="M64 513.151C77.2207 516.217 90.4413 519.561 102.914 522.349" stroke="black" stroke-linecap="round" stroke-linejoin="round"/>
<path d="M108 496C121.221 499.066 134.441 502.411 146.914 505.198" stroke="black" stroke-linecap="round" stroke-linejoin="round"/>
<path d="M64.7076 523.765C73.1979 526.241 88.0558 529.779 103.268 533.67" stroke="black" stroke-linecap="round" stroke-linejoin="round"/>
<path d="M101.498 522.703C110.696 519.519 133.691 509.967 147.487 504.307M64 514.5C73.1978 511.316 97 502 113.5 496" stroke="black" stroke-linecap="round" stroke-linejoin="round"/>
<path d="M101.145 533.67C114.588 528.01 126.969 523.411 147.487 514.92" stroke="black" stroke-linecap="round" stroke-linejoin="round"/>
<path d="M145.365 504.661C145.365 508.906 145.365 512.798 145.365 518.104" stroke="black" stroke-linecap="round" stroke-linejoin="round"/>
<path d="M66.8301 509.614C66.9212 514.803 66.8301 520.227 66.8301 525.887" stroke="black" stroke-linecap="round" stroke-linejoin="round"/>
<path d="M101.498 520.227C101.589 525.415 101.498 530.132 101.498 535.792" stroke="black" stroke-linecap="round" stroke-linejoin="round"/>
<path d="M125.5 487C122 500.5 116.822 514.5 105.5 514.5C88 514.5 85 501.359 85 487C86.5 473.5 95.1782 460 106.5 460C117.822 460 128.5 465.5 125.5 487Z" fill="white"/>
<path d="M90.5976 511.093C96.8813 512.321 100.605 513.359 106.918 514.409" stroke="black" stroke-linecap="round" stroke-linejoin="round"/>
<path d="M110.737 461.537C106.251 465.304 99.3659 473.378 97.1952 484.92C94.9784 496.707 96.9247 511.947 106.223 513.887C108.533 514.114 113.91 512.142 116.988 507.954C121.348 502.021 126.016 491.9 126.016 478.289C126.016 469.913 118.029 454.906 107.96 465.376" stroke="black" stroke-linecap="round" stroke-linejoin="round"/>
<path d="M94.07 512.49C79.4625 502.612 84.0019 471.35 97.1951 462.234C102.751 458.395 109.001 459.442 120.807 463.281" stroke="black" stroke-linecap="round" stroke-linejoin="round"/>
<path d="M118.5 478C112.547 468.951 105.178 479.566 112.316 486.403C119.453 493.24 115 505 103 495" stroke="black" stroke-linecap="round" stroke-linejoin="round"/>
<path d="M116.5 472C114 481 110.5 491.5 106.963 501.123" stroke="black" stroke-linecap="round" stroke-linejoin="round"/>
<path d="M103.792 469.213C100.401 468.142 96.9327 467.046 93.3753 465.922M102.056 472.354L90.5974 468.734M105.898 466.868C102.559 465.813 99.1419 464.733 95.6475 463.629L105.898 466.868Z" stroke="black" stroke-linecap="round" stroke-linejoin="round"/>
<path d="M99.1179 478.307C95.4466 477.147 91.6864 475.959 87.82 474.737M98.1736 481.87L86.8968 478.307M100.763 475.244C97.2301 474.128 93.6099 472.984 89.9034 471.813L100.763 475.244Z" stroke="black" stroke-linecap="round" stroke-linejoin="round"/>
<path d="M96.8477 488.555C93.2059 487.405 89.4768 486.226 85.6433 485.015M96.1532 492.247L84.4696 488.555M97.2171 485.015C93.818 483.941 89.2033 482.902 85.6433 481.777L97.2171 485.015Z" stroke="black" stroke-linecap="round" stroke-linejoin="round"/>
<path d="M97.0342 500.043C93.3628 498.883 89.6026 497.695 85.7362 496.473M96.5006 496.04C92.4948 494.958 89.0224 494.02 84.5083 492.801L96.5006 496.04Z" stroke="black" stroke-linecap="round" stroke-linejoin="round"/>
<path d="M89.556 507.952L101.015 510.395M99.3735 507.254C94.0701 505.858 91.7519 505.433 86.7781 503.861M97.8896 503.861L84.5749 500.036C89.2299 501.506 93.3755 502.564 97.8896 503.861Z" stroke="black" stroke-linecap="round" stroke-linejoin="round"/>
<path d="M113.213 462.253C108.56 460.783 109.808 461.362 104.835 459.79M107.96 463.978L98.7896 461.071" stroke="black" stroke-linecap="round" stroke-linejoin="round"/>
<path fill-rule="evenodd" clip-rule="evenodd" d="M59.974 416C66.0351 416 71.132 419.834 72.6472 425.585C77.6063 426.133 81.3256 430.241 81.3256 435.17C81.3256 440.51 77.0552 444.755 71.6829 444.755H47.5764C43.4438 444.755 40 441.332 40 437.224C40 433.253 43.0306 429.967 46.8876 429.693V429.008C46.8876 421.888 52.8109 416 59.974 416ZM61.9092 430.565L62.3025 430.663C63.3575 430.918 65.8285 431.514 65.8285 434.112C65.8285 436.254 64.2272 437.661 61.5904 437.909V438.983C61.5904 439.193 61.4169 439.364 61.2032 439.364H60.2351C60.0211 439.364 59.8478 439.193 59.8478 438.983V437.901C58.5035 437.753 57.3426 437.265 56.584 436.511C55.8791 435.81 55.5138 434.905 55.4971 433.819H57.8999C57.9656 435.257 59.0506 436.111 60.8303 436.111C61.4396 436.111 63.4282 435.989 63.4282 434.425C63.4282 433.174 61.9507 432.818 60.3867 432.441C60.1202 432.377 59.8485 432.312 59.577 432.24C57.8078 431.781 55.9205 431.103 55.9205 428.851C55.9205 426.612 57.8517 425.474 59.8477 425.273V424.169C59.8477 423.958 60.0207 423.788 60.2348 423.788H61.2031C61.4166 423.788 61.5901 423.958 61.5901 424.169V425.317C63.1155 425.527 65.3274 426.293 65.4025 428.954H62.9939C62.8663 427.692 62.0069 427.079 60.3711 427.079C59.4253 427.079 58.3209 427.484 58.3209 428.625C58.3209 429.66 58.9391 429.816 61.9092 430.565Z" fill="url(#paint4_linear)"/>
<path d="M93.2198 423.842C93.0408 422.55 92.0465 421.8 90.7568 421.8C89.2369 421.8 88.092 422.907 88.092 424.788C88.092 426.666 89.2227 427.777 90.7568 427.777C92.1403 427.777 93.0579 426.882 93.2198 425.771L92.1573 425.765C92.0238 426.447 91.467 426.831 90.771 426.831C89.8278 426.831 89.1516 426.123 89.1516 424.788C89.1516 423.476 89.8221 422.746 90.7738 422.746C91.4812 422.746 92.0352 423.146 92.1573 423.842H93.2198ZM99.3999 424.788C99.3999 422.907 98.2522 421.8 96.7266 421.8C95.1982 421.8 94.0533 422.907 94.0533 424.788C94.0533 426.666 95.1982 427.777 96.7266 427.777C98.2522 427.777 99.3999 426.669 99.3999 424.788ZM98.3402 424.788C98.3402 426.112 97.6755 426.831 96.7266 426.831C95.7806 426.831 95.113 426.112 95.113 424.788C95.113 423.464 95.7806 422.746 96.7266 422.746C97.6755 422.746 98.3402 423.464 98.3402 424.788ZM105.194 421.879H104.145V425.845H104.094L101.356 421.879H100.412V427.697H101.466V423.734H101.515L104.256 427.697H105.194V421.879ZM106.102 422.763H107.901V427.697H108.946V422.763H110.744V421.879H106.102V422.763ZM112.709 421.879H111.655V427.697H112.709V421.879ZM118.648 421.879H117.6V425.845H117.548L114.81 421.879H113.867V427.697H114.921V423.734H114.969L117.71 427.697H118.648V421.879ZM123.48 421.879V425.592C123.48 426.322 122.971 426.845 122.173 426.845C121.372 426.845 120.866 426.322 120.866 425.592V421.879H119.812V425.68C119.812 426.93 120.75 427.785 122.173 427.785C123.591 427.785 124.534 426.93 124.534 425.68V421.879H123.48ZM130.894 424.788C130.894 422.907 129.747 421.8 128.221 421.8C126.693 421.8 125.548 422.907 125.548 424.788C125.548 426.666 126.693 427.777 128.221 427.777C129.747 427.777 130.894 426.669 130.894 424.788ZM129.835 424.788C129.835 426.112 129.17 426.831 128.221 426.831C127.275 426.831 126.607 426.112 126.607 424.788C126.607 423.464 127.275 422.746 128.221 422.746C129.17 422.746 129.835 423.464 129.835 424.788ZM135.574 421.879V425.592C135.574 426.322 135.066 426.845 134.268 426.845C133.466 426.845 132.961 426.322 132.961 425.592V421.879H131.907V425.68C131.907 426.93 132.844 427.785 134.268 427.785C135.685 427.785 136.628 426.93 136.628 425.68V421.879H135.574ZM140.952 423.479H141.966C141.946 422.496 141.108 421.8 139.87 421.8C138.648 421.8 137.73 422.487 137.733 423.515C137.733 424.351 138.327 424.831 139.284 425.078L139.946 425.248C140.574 425.407 140.989 425.604 140.992 426.055C140.989 426.552 140.517 426.885 139.83 426.885C139.171 426.885 138.659 426.589 138.617 425.979H137.58C137.622 427.135 138.483 427.785 139.838 427.785C141.233 427.785 142.043 427.089 142.046 426.064C142.043 425.055 141.21 424.595 140.335 424.388L139.79 424.251C139.313 424.138 138.796 423.936 138.801 423.45C138.804 423.013 139.196 422.692 139.855 422.692C140.483 422.692 140.898 422.984 140.952 423.479Z" fill="black"/>
<path d="M97.2393 435.296C96.8913 433.119 95.1861 431.846 93.0334 431.846C90.3984 431.846 88.4545 433.82 88.4545 437.076C88.4545 440.332 90.3885 442.306 93.0334 442.306C95.2706 442.306 96.9062 440.904 97.2393 438.891L95.6882 438.886C95.4247 440.188 94.331 440.904 93.0433 440.904C91.2983 440.904 89.9808 439.567 89.9808 437.076C89.9808 434.605 91.2933 433.248 93.0483 433.248C94.3459 433.248 95.4347 433.979 95.6882 435.296H97.2393ZM100.435 431.985H98.9483V442.167H100.435V431.985ZM105.641 442.321C107.794 442.321 109.201 440.745 109.201 438.384C109.201 436.007 107.794 434.431 105.641 434.431C103.489 434.431 102.082 436.007 102.082 438.384C102.082 440.745 103.489 442.321 105.641 442.321ZM105.646 441.073C104.239 441.073 103.583 439.845 103.583 438.379C103.583 436.917 104.239 435.674 105.646 435.674C107.043 435.674 107.699 436.917 107.699 438.379C107.699 439.845 107.043 441.073 105.646 441.073ZM115.688 439C115.692 440.298 114.728 440.914 113.893 440.914C112.973 440.914 112.337 440.248 112.337 439.209V434.531H110.85V439.388C110.85 441.282 111.889 442.266 113.356 442.266C114.504 442.266 115.285 441.66 115.638 440.845H115.717V442.167H117.179V434.531H115.688V439ZM122.025 442.316C123.417 442.316 123.964 441.466 124.232 440.979H124.357V442.167H125.808V431.985H124.322V435.769H124.232C123.964 435.296 123.457 434.431 122.035 434.431C120.19 434.431 118.833 435.888 118.833 438.364C118.833 440.835 120.171 442.316 122.025 442.316ZM122.353 441.048C121.026 441.048 120.335 439.88 120.335 438.349C120.335 436.832 121.011 435.694 122.353 435.694C123.651 435.694 124.347 436.753 124.347 438.349C124.347 439.955 123.636 441.048 122.353 441.048ZM140.191 435.296C139.843 433.119 138.138 431.846 135.985 431.846C133.35 431.846 131.406 433.82 131.406 437.076C131.406 440.332 133.34 442.306 135.985 442.306C138.222 442.306 139.858 440.904 140.191 438.891L138.64 438.886C138.376 440.188 137.283 440.904 135.995 440.904C134.25 440.904 132.933 439.567 132.933 437.076C132.933 434.605 134.245 433.248 136 433.248C137.298 433.248 138.386 433.979 138.64 435.296H140.191ZM145.117 442.321C147.269 442.321 148.676 440.745 148.676 438.384C148.676 436.007 147.269 434.431 145.117 434.431C142.964 434.431 141.557 436.007 141.557 438.384C141.557 440.745 142.964 442.321 145.117 442.321ZM145.122 441.073C143.715 441.073 143.058 439.845 143.058 438.379C143.058 436.917 143.715 435.674 145.122 435.674C146.519 435.674 147.175 436.917 147.175 438.379C147.175 439.845 146.519 441.073 145.122 441.073ZM156.048 436.395C155.74 435.207 154.81 434.431 153.159 434.431C151.434 434.431 150.211 435.341 150.211 436.693C150.211 437.777 150.867 438.498 152.299 438.816L153.592 439.1C154.328 439.264 154.671 439.592 154.671 440.069C154.671 440.661 154.039 441.123 153.065 441.123C152.175 441.123 151.603 440.74 151.424 439.989L149.987 440.208C150.236 441.56 151.36 442.321 153.075 442.321C154.919 442.321 156.197 441.342 156.197 439.96C156.197 438.881 155.511 438.215 154.109 437.891L152.896 437.613C152.056 437.414 151.693 437.131 151.698 436.614C151.693 436.027 152.329 435.609 153.174 435.609C154.099 435.609 154.527 436.122 154.701 436.634L156.048 436.395ZM161.386 434.531H159.82V432.701H158.333V434.531H157.215V435.724H158.333V440.233C158.329 441.62 159.387 442.291 160.561 442.266C161.033 442.261 161.351 442.172 161.525 442.107L161.257 440.879C161.157 440.899 160.973 440.944 160.735 440.944C160.253 440.944 159.82 440.785 159.82 439.925V435.724H161.386V434.531ZM168.62 436.395C168.311 435.207 167.382 434.431 165.731 434.431C164.006 434.431 162.783 435.341 162.783 436.693C162.783 437.777 163.439 438.498 164.871 438.816L166.164 439.1C166.899 439.264 167.243 439.592 167.243 440.069C167.243 440.661 166.611 441.123 165.637 441.123C164.747 441.123 164.175 440.74 163.996 439.989L162.559 440.208C162.808 441.56 163.931 442.321 165.647 442.321C167.491 442.321 168.769 441.342 168.769 439.96C168.769 438.881 168.083 438.215 166.681 437.891L165.468 437.613C164.627 437.414 164.265 437.131 164.269 436.614C164.265 436.027 164.901 435.609 165.746 435.609C166.671 435.609 167.098 436.122 167.272 436.634L168.62 436.395Z" fill="black"/>
</g>
<defs>
<filter id="filter0_d" x="-331.823" y="55.4321" width="1157.92" height="432.992" filterUnits="userSpaceOnUse" color-interpolation-filters="sRGB">
<feFlood flood-opacity="0" result="BackgroundImageFix"/>
<feColorMatrix in="SourceAlpha" type="matrix" values="0 0 0 0 0 0 0 0 0 0 0 0 0 0 0 0 0 0 127 0"/>
<feOffset dy="6"/>
<feGaussianBlur stdDeviation="5"/>
<feColorMatrix type="matrix" values="0 0 0 0 0 0 0 0 0 0 0 0 0 0 0 0 0 0 0.4 0"/>
<feBlend mode="normal" in2="BackgroundImageFix" result="effect1_dropShadow"/>
<feBlend mode="normal" in="SourceGraphic" in2="effect1_dropShadow" result="shape"/>
</filter>
<linearGradient id="paint0_linear" x1="54.4252" y1="37.049" x2="74.8283" y2="68.4725" gradientUnits="userSpaceOnUse">
<stop stop-color="#73DFE7"/>
<stop offset="1" stop-color="#0095F7"/>
</linearGradient>
<linearGradient id="paint1_linear" x1="228.436" y1="89.7853" x2="238.414" y2="106.438" gradientUnits="userSpaceOnUse">
<stop stop-color="#62F91F"/>
<stop offset="1" stop-color="#5EAA53"/>
</linearGradient>
<linearGradient id="paint2_linear" x1="18.4956" y1="209.969" x2="44.9664" y2="250.707" gradientUnits="userSpaceOnUse">
<stop stop-color="#FFC100"/>
<stop offset="1" stop-color="#E66B35"/>
</linearGradient>
<linearGradient id="paint3_linear" x1="196.765" y1="250.836" x2="215.494" y2="285.177" gradientUnits="userSpaceOnUse">
<stop stop-color="#9E74FF"/>
<stop offset="1" stop-color="#8A36FF"/>
</linearGradient>
<linearGradient id="paint4_linear" x1="26.6515" y1="425.288" x2="41.8922" y2="459.193" gradientUnits="userSpaceOnUse">
<stop stop-color="#00CFDE"/>
<stop offset="1" stop-color="#05A660"/>
</linearGradient>
<clipPath id="clip0">
<rect width="375" height="604" fill="white"/>
</clipPath>
</defs>
</svg>
