<svg width="961" height="452" viewBox="0 0 961 452" fill="none" xmlns="http://www.w3.org/2000/svg">
<g clip-path="url(#clip0)">
<g style="mix-blend-mode:luminosity" opacity="0.2">
<g filter="url(#filter0_dd)">
<path d="M86 467.5C125.035 448.912 242.758 393.626 273.243 381.119C292.202 373.341 302.598 372.792 332.352 385.223C402.615 414.578 420.459 410.488 446.111 403.053C471.762 395.618 550.631 351.973 580 334.5C609.369 317.027 592.956 299.774 571.022 293.552C518.604 278.682 464.327 266.246 464.327 266.246C464.327 266.246 559.125 224.237 585.52 214.943C611.915 205.649 646.695 217.418 680.319 224.981C755.414 241.87 814.524 256.208 846.495 246.171C878.467 236.133 1136.1 80.3662 1136.1 80.3662M552.434 315.69L429.753 277.77" stroke="white" stroke-width="10" stroke-linecap="round" stroke-linejoin="round"/>
</g>
<g filter="url(#filter1_d)">
<path d="M8.17871 461.419C139.038 406.399 165.061 395.93 204.468 378.889C243.874 361.848 277.332 344.687 293.69 344.687C310.047 344.687 344.992 358.951 367.298 367.13C389.604 375.308 413.557 385.388 446.272 370.381C478.987 355.373 532.359 330.189 551.319 317.549C565.788 307.903 488.863 296.358 440.906 281.116C426.933 276.675 416.742 258.439 437.932 247.286C459.123 236.133 512.284 214.571 551.319 197.471C590.353 180.37 595.186 176.28 671.769 193.381C712.4 202.454 728.049 205.279 754.671 210.854C781.214 216.413 796.68 220.52 823.446 218.661C850.213 216.802 884.043 193.753 920.104 172.934C956.164 152.116 1062.12 94.1215 1125.31 58.4326" stroke="white" stroke-width="10" stroke-linecap="round" stroke-linejoin="round"/>
</g>
<path d="M0 170.704L8 464.5L208.929 378.145L276.589 347.661H304.842L386.629 378.145H417.114L439.419 375.171L550.575 318.664L553.549 310.485L439.419 278.514L431.984 274.424L424.549 261.041V256.58L434.958 249.517L462.84 235.39L580.688 188.548L597.417 185.574H615.633L783.668 218.289L819.357 220.148L849.841 214.943L1137.21 57.3171L1096.69 22H0V170.704Z" fill="white"/>
<path d="M699.651 436.884L515.258 530.567L22.3054 490.417L270.64 381.12C324.174 358.071 346.479 405.656 400.013 405.656C452.802 424.244 534.589 353.238 567.676 338.367C604.267 321.922 611.544 298.961 560.984 289.295L466.186 266.618L598.532 208.624L802.256 251.748L849.841 247.287L887.017 230.929L1161.72 66.9717L1146.5 200.445L699.651 436.884Z" fill="white"/>
</g>
<path d="M566.28 158.189L524.159 147.013L495.098 157.283L465.174 169.071V181.766L512.326 193.554L566.28 171.338V158.189Z" fill="white"/>
<path d="M497.818 176.778C496.442 182.115 496.035 184.188 494.644 189.926M514.593 178.138C512.7 184.486 512.374 186.875 510.886 192.647M502.351 178.138C500.94 183.616 500.6 185.025 499.177 190.881M507.339 178.911C505.927 184.389 505.072 187.978 504.164 191.739M490.109 188.566L493.737 175.418M508.245 193.234C508.927 190.43 509.464 188.107 509.994 185.845" stroke="black" stroke-linecap="round" stroke-linejoin="round"/>
<path d="M465.627 181.766C466.855 177.001 467.432 174.723 468.8 169.071M472.427 169.978C471.077 175.217 470.689 178.271 469.415 183.215M473.173 184.117C473.91 181.052 475.767 174.366 476.508 171.338" stroke="black" stroke-linecap="round" stroke-linejoin="round"/>
<path d="M524.568 174.511C523.023 180.506 521.847 183.579 520.487 189.02M529.335 172.697C527.736 178.904 526.975 181.294 525.474 187.117M519.58 176.778L515.5 191.74" stroke="black" stroke-linecap="round" stroke-linejoin="round"/>
<path d="M489.378 174.512C488.079 179.553 486.807 182.995 485.576 187.773M480.588 172.699L477.105 185.708M484.947 173.152L481.041 186.754C482.268 181.993 483.66 178.144 484.947 173.152Z" stroke="black" stroke-linecap="round" stroke-linejoin="round"/>
<path d="M535.902 183.58L539.529 168.618M534.542 170.431L530.462 185.394M540.889 181.313C542.315 175.781 543.007 172.208 544.517 166.351L540.889 181.313ZM545.423 179.499C546.823 174.068 547.567 169.841 549.05 164.084L545.423 179.499Z" stroke="black" stroke-linecap="round" stroke-linejoin="round"/>
<path d="M559.025 160.457C557.452 166.562 556.305 171.791 555.398 175.419M559.973 173.605C561.397 168.079 562.505 164.04 564.013 158.19M550.411 177.232L554.038 162.724M564.012 172.245C564.736 169.436 565.625 166.104 566.28 163.63" stroke="black" stroke-linecap="round" stroke-linejoin="round"/>
<path d="M462 167.71C478.944 171.639 495.888 175.926 511.873 179.498" stroke="black" stroke-linecap="round" stroke-linejoin="round"/>
<path d="M518.392 145.729C535.336 149.659 552.28 153.945 568.264 157.518" stroke="black" stroke-linecap="round" stroke-linejoin="round"/>
<path d="M462.907 181.313C473.789 184.487 492.831 189.021 512.327 194.008" stroke="black" stroke-linecap="round" stroke-linejoin="round"/>
<path d="M510.059 179.953C521.847 175.873 551.318 163.631 569 156.377M462 169.441C473.788 165.36 504.294 153.42 525.441 145.73" stroke="black" stroke-linecap="round" stroke-linejoin="round"/>
<path d="M509.606 194.009C526.835 186.755 542.703 180.861 569 169.979" stroke="black" stroke-linecap="round" stroke-linejoin="round"/>
<path d="M566.279 156.83C566.279 162.271 566.279 167.258 566.279 174.059" stroke="black" stroke-linecap="round" stroke-linejoin="round"/>
<path d="M465.627 163.178C465.744 169.828 465.627 176.779 465.627 184.034" stroke="black" stroke-linecap="round" stroke-linejoin="round"/>
<path d="M510.059 176.779C510.176 183.429 510.059 189.474 510.059 196.728" stroke="black" stroke-linecap="round" stroke-linejoin="round"/>
<path d="M514.555 115.002L489.421 166.289C504.187 175.235 525.552 172.073 534.585 166.289L514.555 115.002Z" fill="white"/>
<path d="M490.574 162.088C495.963 171.327 523.296 172.482 536 164.013" stroke="black" stroke-linecap="round" stroke-linejoin="round"/>
<path d="M489.804 165.937C494.471 155.826 510.807 121.324 516.367 111.657" stroke="black" stroke-linecap="round" stroke-linejoin="round"/>
<path d="M513.672 111.657C517.012 118.228 531.777 158.848 534.845 165.552" stroke="black" stroke-linecap="round" stroke-linejoin="round"/>
<path d="M516.449 127.207L507.127 130.246M514.258 123.897L508.667 125.817M513.309 120.37L510.977 121.175" stroke="black" stroke-linecap="round" stroke-linejoin="round"/>
<path d="M516.548 130.845L504.817 134.895M517.136 138.991C510.456 141.298 506.053 142.834 499.813 144.988M517.807 134.628L502.508 139.911" stroke="black" stroke-linecap="round" stroke-linejoin="round"/>
<path d="M520.853 142.323L497.118 150.361M522.125 146.146L495.193 155.299M499.883 162.162L493.119 164.498M513.045 153.451C506.173 155.823 499.142 158.21 492.499 160.48" stroke="black" stroke-linecap="round" stroke-linejoin="round"/>
<path opacity="0.9" d="M461.391 66.4512C471.193 66.4512 479.132 74.4307 479.132 84.2825C479.132 93.8763 471.603 101.695 462.157 102.097L455.852 91.1692L456.014 91.4491L456.398 92.1064C456.398 92.1064 457.487 90.547 460.106 89.8472C464.643 88.6349 465.078 90.2535 469.613 89.0422C472.45 88.2841 474.953 86.2249 474.953 86.2249L467.882 74.877C467.882 74.877 465.378 76.9331 462.541 77.6912C458.003 78.9034 457.568 77.2848 453.034 78.4962L452.701 78.5969C451.052 79.3374 450.45 79.9425 449.848 80.5476L449.246 81.1527C449.246 81.1527 448.897 81.4396 448.78 81.5078C448.272 81.8013 448.212 83.1185 448.612 83.8129L459.559 104.544C459.822 104.999 460.06 105.406 460.594 105.558C460.61 105.648 460.839 105.467 460.842 105.558C460.594 105.641 461.207 105.565 461.391 105.565C473.088 105.565 482.566 96.0393 482.566 84.2825C482.566 72.5256 473.088 63 461.391 63C449.693 63 440.216 72.5256 440.216 84.2825C440.216 94.2909 447.72 102.847 456.979 105.122L454.456 100.688L454.355 100.488L454.332 100.449C448.365 97.5777 443.65 91.3791 443.65 84.2825C443.65 74.4307 451.589 66.4512 461.391 66.4512Z" fill="url(#paint0_linear)"/>
<path d="M491.685 89.2988H493.221V84.8592H497.546V83.5417H493.221V80.4395H497.998V79.117H491.685V89.2988ZM502.489 89.4529C504.154 89.4529 505.333 88.6326 505.671 87.3897L504.264 87.1362C503.995 87.8571 503.349 88.225 502.504 88.225C501.231 88.225 500.376 87.3997 500.336 85.9281H505.765V85.4011C505.765 82.6419 504.115 81.563 502.385 81.563C500.257 81.563 498.855 83.1838 498.855 85.5304C498.855 87.9018 500.237 89.4529 502.489 89.4529ZM500.341 84.8145C500.401 83.7306 501.186 82.791 502.395 82.791C503.548 82.791 504.304 83.6461 504.309 84.8145H500.341ZM509.627 89.4679C510.89 89.4679 511.601 88.8265 511.884 88.2548H511.944V89.2988H513.395V84.2278C513.395 82.0055 511.645 81.563 510.432 81.563C509.05 81.563 507.777 82.1199 507.28 83.5119L508.677 83.8301C508.896 83.2882 509.453 82.7662 510.452 82.7662C511.412 82.7662 511.904 83.2683 511.904 84.1333V84.1681C511.904 84.71 511.347 84.7001 509.975 84.8592C508.528 85.0282 507.047 85.4061 507.047 87.1412C507.047 88.6426 508.175 89.4679 509.627 89.4679ZM509.95 88.2747C509.11 88.2747 508.503 87.8968 508.503 87.161C508.503 86.3656 509.209 86.0822 510.069 85.9679C510.552 85.9032 511.695 85.774 511.909 85.5602V86.5446C511.909 87.4494 511.188 88.2747 509.95 88.2747ZM518.93 81.6625H517.364V79.8329H515.877V81.6625H514.759V82.8556H515.877V87.3649C515.872 88.752 516.931 89.4231 518.105 89.3983C518.577 89.3933 518.895 89.3038 519.069 89.2392L518.801 88.0112C518.701 88.0311 518.517 88.0758 518.279 88.0758C517.796 88.0758 517.364 87.9167 517.364 87.0566V82.8556H518.93V81.6625ZM525.402 86.1319C525.407 87.4295 524.442 88.046 523.607 88.046C522.687 88.046 522.051 87.3798 522.051 86.3407V81.6625H520.564V86.5197C520.564 88.4139 521.603 89.3983 523.07 89.3983C524.218 89.3983 524.999 88.7917 525.352 87.9764H525.431V89.2988H526.893V81.6625H525.402V86.1319ZM528.88 89.2988H530.367V84.6355C530.367 83.6362 531.138 82.9153 532.192 82.9153C532.5 82.9153 532.848 82.97 532.967 83.0048V81.5829C532.818 81.563 532.525 81.5481 532.336 81.5481C531.441 81.5481 530.675 82.0552 530.397 82.8755H530.317V81.6625H528.88V89.2988ZM537.261 89.4529C538.927 89.4529 540.105 88.6326 540.443 87.3897L539.036 87.1362C538.768 87.8571 538.121 88.225 537.276 88.225C536.003 88.225 535.148 87.3997 535.109 85.9281H540.538V85.4011C540.538 82.6419 538.887 81.563 537.157 81.563C535.029 81.563 533.627 83.1838 533.627 85.5304C533.627 87.9018 535.009 89.4529 537.261 89.4529ZM535.114 84.8145C535.173 83.7306 535.959 82.791 537.167 82.791C538.32 82.791 539.076 83.6461 539.081 84.8145H535.114ZM545.991 89.2988H547.527V84.8592H551.853V83.5417H547.527V80.4395H552.305V79.117H545.991V89.2988ZM555.552 79.117H554.065V89.2988H555.552V79.117ZM559.764 89.4679C561.026 89.4679 561.737 88.8265 562.021 88.2548H562.08V89.2988H563.532V84.2278C563.532 82.0055 561.782 81.563 560.569 81.563C559.187 81.563 557.914 82.1199 557.417 83.5119L558.814 83.8301C559.033 83.2882 559.59 82.7662 560.589 82.7662C561.548 82.7662 562.041 83.2683 562.041 84.1333V84.1681C562.041 84.71 561.484 84.7001 560.112 84.8592C558.665 85.0282 557.183 85.4061 557.183 87.1412C557.183 88.6426 558.312 89.4679 559.764 89.4679ZM560.087 88.2747C559.247 88.2747 558.64 87.8968 558.64 87.161C558.64 86.3656 559.346 86.0822 560.206 85.9679C560.688 85.9032 561.832 85.774 562.046 85.5602V86.5446C562.046 87.4494 561.325 88.2747 560.087 88.2747ZM568.704 92.3216C570.648 92.3216 572.149 91.4316 572.149 89.4679V81.6625H570.692V82.9004H570.583C570.32 82.4281 569.793 81.563 568.371 81.563C566.526 81.563 565.169 83.0197 565.169 85.4508C565.169 87.8869 566.556 89.1845 568.361 89.1845C569.763 89.1845 570.305 88.394 570.573 87.9068H570.668V89.4082C570.668 90.6064 569.847 91.1234 568.719 91.1234C567.481 91.1234 566.999 90.502 566.735 90.0645L565.457 90.5914C565.86 91.5261 566.879 92.3216 568.704 92.3216ZM568.689 87.9515C567.361 87.9515 566.67 86.9324 566.67 85.4309C566.67 83.9643 567.347 82.8258 568.689 82.8258C569.986 82.8258 570.682 83.8848 570.682 85.4309C570.682 87.0069 569.972 87.9515 568.689 87.9515ZM579.855 83.5268C579.547 82.3386 578.617 81.563 576.967 81.563C575.241 81.563 574.018 82.4728 574.018 83.8251C574.018 84.9089 574.675 85.6298 576.106 85.948L577.399 86.2314C578.135 86.3954 578.478 86.7235 578.478 87.2008C578.478 87.7924 577.846 88.2548 576.872 88.2548C575.982 88.2548 575.41 87.872 575.231 87.1213L573.795 87.34C574.043 88.6923 575.167 89.4529 576.882 89.4529C578.726 89.4529 580.004 88.4735 580.004 87.0914C580.004 86.0126 579.318 85.3464 577.916 85.0233L576.703 84.7449C575.863 84.546 575.5 84.2626 575.505 83.7456C575.5 83.1589 576.136 82.7413 576.981 82.7413C577.906 82.7413 578.334 83.2534 578.508 83.7654L579.855 83.5268Z" fill="black"/>
<path d="M864.441 165.8L822.659 154.713L793.831 164.9L764.148 176.594V189.186L810.922 200.88L864.441 178.842V165.8Z" fill="white"/>
<path d="M796.529 184.238C795.165 189.533 794.761 191.589 793.381 197.281M813.17 185.588C811.292 191.884 810.968 194.255 809.493 199.98M801.026 185.588C799.626 191.022 799.29 192.419 797.878 198.228M805.974 186.354C804.573 191.788 803.725 195.349 802.825 199.08M788.883 195.932L792.482 182.89M806.873 200.562C807.549 197.781 808.082 195.477 808.608 193.233" stroke="black" stroke-linecap="round" stroke-linejoin="round"/>
<path d="M764.597 189.186C765.815 184.46 766.388 182.2 767.745 176.593M771.343 177.493C770.004 182.69 769.619 185.719 768.355 190.624M772.083 191.518C772.814 188.478 774.656 181.845 775.391 178.842" stroke="black" stroke-linecap="round" stroke-linejoin="round"/>
<path d="M823.064 181.989C821.532 187.936 820.366 190.984 819.016 196.381M827.793 180.19C826.207 186.347 825.452 188.717 823.963 194.494M818.117 184.238L814.069 199.08" stroke="black" stroke-linecap="round" stroke-linejoin="round"/>
<path d="M788.157 181.99C786.869 186.991 785.607 190.405 784.385 195.145M779.438 180.191L775.983 193.096M783.762 180.641L779.888 194.134C781.105 189.411 782.486 185.593 783.762 180.641Z" stroke="black" stroke-linecap="round" stroke-linejoin="round"/>
<path d="M834.307 190.984L837.905 176.143M832.958 177.942L828.911 192.784M839.255 188.736C840.669 183.249 841.355 179.704 842.853 173.894L839.255 188.736ZM843.752 186.937C845.14 181.549 845.878 177.356 847.35 171.645L843.752 186.937Z" stroke="black" stroke-linecap="round" stroke-linejoin="round"/>
<path d="M857.244 168.048C855.684 174.105 854.546 179.292 853.647 182.89M858.185 181.091C859.598 175.609 860.697 171.603 862.192 165.8M848.7 184.689L852.297 170.297M862.192 179.742C862.91 176.955 863.792 173.65 864.441 171.196" stroke="black" stroke-linecap="round" stroke-linejoin="round"/>
<path d="M761 175.243C777.808 179.141 794.615 183.393 810.472 186.937" stroke="black" stroke-linecap="round" stroke-linejoin="round"/>
<path d="M816.938 153.439C833.746 157.337 850.554 161.589 866.41 165.133" stroke="black" stroke-linecap="round" stroke-linejoin="round"/>
<path d="M761.9 188.738C772.694 191.886 791.583 196.384 810.922 201.331" stroke="black" stroke-linecap="round" stroke-linejoin="round"/>
<path d="M808.673 187.387C820.366 183.339 849.599 171.196 867.139 164M761 176.959C772.693 172.911 802.954 161.067 823.93 153.439" stroke="black" stroke-linecap="round" stroke-linejoin="round"/>
<path d="M808.223 201.332C825.313 194.136 841.054 188.289 867.139 177.495" stroke="black" stroke-linecap="round" stroke-linejoin="round"/>
<path d="M864.441 164.451C864.441 169.848 864.441 174.795 864.441 181.541" stroke="black" stroke-linecap="round" stroke-linejoin="round"/>
<path d="M764.598 170.748C764.714 177.345 764.598 184.24 764.598 191.436" stroke="black" stroke-linecap="round" stroke-linejoin="round"/>
<path d="M808.673 184.24C808.788 190.837 808.673 196.833 808.673 204.029" stroke="black" stroke-linecap="round" stroke-linejoin="round"/>
<path d="M803.593 125.313L782.166 132.966V171.161L817.115 179.273L835.351 167.375V131.436L803.593 125.313Z" fill="white"/>
<path d="M811.245 142.149C817.335 139.385 832.558 132.67 839.56 129.905" stroke="black" stroke-linecap="round" stroke-linejoin="round"/>
<path d="M812.788 179.271C824.377 174.616 829.63 172.593 839.288 168.455" stroke="black" stroke-linecap="round" stroke-linejoin="round"/>
<path d="M835.064 128.757C835.064 141.001 835.064 157.768 835.064 171.16" stroke="black" stroke-linecap="round" stroke-linejoin="round"/>
<path d="M816.638 136.791C816.558 142.879 816.638 173.141 816.638 180.028" stroke="black" stroke-linecap="round" stroke-linejoin="round"/>
<path d="M782.165 129.905C782.165 138.323 782.165 163.284 782.165 171.702" stroke="black" stroke-linecap="round" stroke-linejoin="round"/>
<path d="M778.226 134.102C785.366 131.429 798.882 126.123 806.766 123.028" stroke="black" stroke-linecap="round" stroke-linejoin="round"/>
<path d="M781.018 132.965C793.644 135.643 808.95 137.939 820.811 140.617" stroke="black" stroke-linecap="round" stroke-linejoin="round"/>
<path d="M779.799 169.537C792.426 172.216 806.334 175.512 818.196 178.19" stroke="black" stroke-linecap="round" stroke-linejoin="round"/>
<path d="M799.383 124.549C808.949 126.079 829.229 129.906 838.029 131.819" stroke="black" stroke-linecap="round" stroke-linejoin="round"/>
<path d="M808.904 143.742C809.007 151.073 809.201 164.872 809.286 170.909" stroke="black" stroke-linecap="round" stroke-linejoin="round"/>
<path d="M789.772 140.682C789.772 147.186 789.772 159.431 789.772 164.787" stroke="black" stroke-linecap="round" stroke-linejoin="round"/>
<path d="M789.007 141.576C796.277 142.977 803.93 144.125 810.434 145.273" stroke="black" stroke-linecap="round" stroke-linejoin="round"/>
<path d="M787.522 164.343C793.319 165.753 801.431 167.376 810.625 169.538" stroke="black" stroke-linecap="round" stroke-linejoin="round"/>
<path d="M790.074 164.216C796.101 161.936 803.867 159.348 809.074 157.366" stroke="black" stroke-linecap="round" stroke-linejoin="round"/>
<path d="M790.72 160.558L808.996 154.058M808.713 150.626C803.704 152.576 796.412 155.097 790.437 157.126M808.398 146.813L790.544 153.77C795.554 151.82 803.675 148.651 808.398 146.813Z" stroke="black" stroke-linecap="round" stroke-linejoin="round"/>
<path d="M790.161 150.237L805.758 144.691M789.877 143.738L792.662 142.582M789.877 146.805C792.686 145.938 795.578 144.896 799.268 143.482" stroke="black" stroke-linecap="round" stroke-linejoin="round"/>
<path d="M820.059 138.711L816.714 151.691M824.703 136.548C822.176 146.357 819.117 158.59 816.714 167.915L824.703 136.548ZM819.061 176.568C822.484 163.287 826.109 149.219 829.932 134.385L819.061 176.568Z" stroke="black" stroke-linecap="round" stroke-linejoin="round"/>
<path d="M823.65 174.405L834.52 132.222M834.52 161.966C833.91 164.333 832.855 168.839 832.257 171.16L834.52 161.966ZM828.294 172.241C830.48 163.76 832.704 155.128 834.984 146.283L828.294 172.241Z" stroke="black" stroke-linecap="round" stroke-linejoin="round"/>
<path fill-rule="evenodd" clip-rule="evenodd" d="M725.7 106.639L726.303 106.98C726.918 107.318 727.611 107.491 728.314 107.48C729.003 107.484 729.681 107.312 730.284 106.98L730.888 106.639C740.469 101.26 746.401 91.162 746.412 80.2095V79.9292C746.424 78.4858 745.656 77.147 744.401 76.4253L741.15 74.6034L728.432 93.809C728.207 94.0499 727.887 94.1892 727.551 94.1932C727.205 94.1922 726.886 94.0573 726.658 93.8206L720.794 87.8019C720.499 87.4983 720.336 87.1837 720.519 86.6672C720.794 85.8894 721.507 85.5559 722.012 85.5559C722.502 85.5559 722.61 85.667 722.887 85.9517C722.895 85.9601 722.903 85.9685 722.912 85.9772L726.785 89.7541C727.168 90.1281 727.804 90.0629 728.101 89.6194L738.965 73.379L730.325 68.5365C729.08 67.8212 727.547 67.8212 726.303 68.5365L712.227 76.4253C710.971 77.147 710.203 78.4858 710.216 79.9292V80.2095C710.218 91.1536 716.133 101.25 725.7 106.639Z" fill="url(#paint1_linear)"/>
<path d="M763.987 85.8695C763.639 83.6919 761.934 82.4192 759.781 82.4192C757.146 82.4192 755.202 84.3929 755.202 87.6493C755.202 90.9057 757.136 92.8794 759.781 92.8794C762.018 92.8794 763.654 91.4775 763.987 89.464L762.436 89.459C762.172 90.7615 761.079 91.4775 759.791 91.4775C758.046 91.4775 756.728 90.1401 756.728 87.6493C756.728 85.1784 758.041 83.8212 759.796 83.8212C761.093 83.8212 762.182 84.552 762.436 85.8695H763.987ZM767.182 88.2061C767.182 86.9881 767.953 86.2921 769.012 86.2921C770.036 86.2921 770.648 86.9434 770.648 88.062V92.7402H772.134V87.883C772.134 85.9789 771.09 85.0044 769.519 85.0044C768.331 85.0044 767.615 85.5215 767.257 86.3468H767.162V82.5584H765.696V92.7402H767.182V88.2061ZM776.33 92.9093C777.593 92.9093 778.304 92.2679 778.587 91.6962H778.647V92.7402H780.098V87.6692C780.098 85.4469 778.348 85.0044 777.135 85.0044C775.753 85.0044 774.481 85.5613 773.983 86.9533L775.38 87.2715C775.599 86.7296 776.156 86.2076 777.155 86.2076C778.115 86.2076 778.607 86.7097 778.607 87.5748V87.6096C778.607 88.1515 778.05 88.1415 776.678 88.3006C775.231 88.4696 773.75 88.8475 773.75 90.5826C773.75 92.084 774.878 92.9093 776.33 92.9093ZM776.653 91.7161C775.813 91.7161 775.206 91.3382 775.206 90.6025C775.206 89.807 775.912 89.5236 776.772 89.4093C777.255 89.3446 778.398 89.2154 778.612 89.0016V89.986C778.612 90.8908 777.891 91.7161 776.653 91.7161ZM783.555 88.2061C783.555 86.9881 784.301 86.2921 785.335 86.2921C786.344 86.2921 786.955 86.9533 786.955 88.062V92.7402H788.442V87.883C788.442 85.9938 787.403 85.0044 785.842 85.0044C784.693 85.0044 783.943 85.5364 783.59 86.3468H783.495V85.1039H782.068V92.7402H783.555V88.2061ZM793.627 95.763C795.571 95.763 797.073 94.873 797.073 92.9093V85.1039H795.616V86.3418H795.507C795.243 85.8695 794.716 85.0044 793.294 85.0044C791.45 85.0044 790.093 86.4611 790.093 88.8922C790.093 91.3283 791.48 92.6259 793.284 92.6259C794.686 92.6259 795.228 91.8354 795.497 91.3482H795.591V92.8496C795.591 94.0478 794.771 94.5648 793.642 94.5648C792.404 94.5648 791.922 93.9434 791.659 93.5059L790.381 94.0328C790.784 94.9675 791.803 95.763 793.627 95.763ZM793.612 91.3929C792.285 91.3929 791.594 90.3738 791.594 88.8723C791.594 87.4057 792.27 86.2672 793.612 86.2672C794.91 86.2672 795.606 87.3262 795.606 88.8723C795.606 90.4483 794.895 91.3929 793.612 91.3929ZM802.347 92.8944C804.013 92.8944 805.191 92.074 805.529 90.8311L804.122 90.5776C803.854 91.2985 803.208 91.6664 802.362 91.6664C801.09 91.6664 800.234 90.8411 800.195 89.3695H805.624V88.8425C805.624 86.0833 803.973 85.0044 802.243 85.0044C800.115 85.0044 798.713 86.6252 798.713 88.9718C798.713 91.3432 800.095 92.8944 802.347 92.8944ZM800.2 88.2559C800.259 87.1721 801.045 86.2324 802.253 86.2324C803.406 86.2324 804.162 87.0875 804.167 88.2559H800.2ZM812.614 82.5584H811.077V92.7402H812.614V82.5584ZM816.208 88.2061C816.208 86.9881 816.954 86.2921 817.988 86.2921C818.997 86.2921 819.609 86.9533 819.609 88.062V92.7402H821.095V87.883C821.095 85.9938 820.056 85.0044 818.495 85.0044C817.347 85.0044 816.596 85.5364 816.243 86.3468H816.148V85.1039H814.722V92.7402H816.208V88.2061ZM826.643 85.1039H825.077V83.2743H823.591V85.1039H822.472V86.2971H823.591V90.8063C823.586 92.1934 824.645 92.8645 825.818 92.8397C826.29 92.8347 826.609 92.7452 826.783 92.6806L826.514 91.4526C826.415 91.4725 826.231 91.5172 825.992 91.5172C825.51 91.5172 825.077 91.3581 825.077 90.498V86.2971H826.643V85.1039ZM831.487 92.8944C833.152 92.8944 834.331 92.074 834.669 90.8311L833.262 90.5776C832.993 91.2985 832.347 91.6664 831.502 91.6664C830.229 91.6664 829.374 90.8411 829.334 89.3695H834.763V88.8425C834.763 86.0833 833.113 85.0044 831.382 85.0044C829.255 85.0044 827.853 86.6252 827.853 88.9718C827.853 91.3432 829.235 92.8944 831.487 92.8944ZM829.339 88.2559C829.399 87.1721 830.184 86.2324 831.392 86.2324C832.546 86.2324 833.302 87.0875 833.306 88.2559H829.339ZM837.889 82.5584H836.402V92.7402H837.889V82.5584ZM841.365 82.5584H839.879V92.7402H841.365V82.5584ZM843.355 92.7402H844.842V85.1039H843.355V92.7402ZM844.106 83.9256C844.618 83.9256 845.045 83.5279 845.045 83.0407C845.045 82.5534 844.618 82.1507 844.106 82.1507C843.589 82.1507 843.166 82.5534 843.166 83.0407C843.166 83.5279 843.589 83.9256 844.106 83.9256ZM850.033 95.763C851.977 95.763 853.478 94.873 853.478 92.9093V85.1039H852.022V86.3418H851.912C851.649 85.8695 851.122 85.0044 849.7 85.0044C847.856 85.0044 846.498 86.4611 846.498 88.8922C846.498 91.3283 847.885 92.6259 849.69 92.6259C851.092 92.6259 851.634 91.8354 851.902 91.3482H851.997V92.8496C851.997 94.0478 851.177 94.5648 850.048 94.5648C848.81 94.5648 848.328 93.9434 848.064 93.5059L846.787 94.0328C847.189 94.9675 848.209 95.763 850.033 95.763ZM850.018 91.3929C848.691 91.3929 848 90.3738 848 88.8723C848 87.4057 848.676 86.2672 850.018 86.2672C851.316 86.2672 852.012 87.3262 852.012 88.8723C852.012 90.4483 851.301 91.3929 850.018 91.3929ZM858.753 92.8944C860.419 92.8944 861.597 92.074 861.935 90.8311L860.528 90.5776C860.26 91.2985 859.613 91.6664 858.768 91.6664C857.495 91.6664 856.64 90.8411 856.601 89.3695H862.03V88.8425C862.03 86.0833 860.379 85.0044 858.649 85.0044C856.521 85.0044 855.119 86.6252 855.119 88.9718C855.119 91.3432 856.501 92.8944 858.753 92.8944ZM856.606 88.2559C856.665 87.1721 857.451 86.2324 858.659 86.2324C859.812 86.2324 860.568 87.0875 860.573 88.2559H856.606ZM865.155 88.2061C865.155 86.9881 865.901 86.2921 866.935 86.2921C867.944 86.2921 868.556 86.9533 868.556 88.062V92.7402H870.042V87.883C870.042 85.9938 869.003 85.0044 867.442 85.0044C866.294 85.0044 865.543 85.5364 865.19 86.3468H865.096V85.1039H863.669V92.7402H865.155V88.2061ZM875.243 92.8944C877.047 92.8944 878.216 91.8105 878.38 90.324H876.933C876.744 91.1493 876.103 91.6365 875.253 91.6365C873.995 91.6365 873.184 90.5875 873.184 88.9221C873.184 87.2864 874.01 86.2573 875.253 86.2573C876.197 86.2573 876.774 86.8539 876.933 87.5698H878.38C878.221 86.0286 876.963 85.0044 875.228 85.0044C873.075 85.0044 871.683 86.6252 871.683 88.9569C871.683 91.2587 873.025 92.8944 875.243 92.8944ZM883.251 92.8944C884.916 92.8944 886.094 92.074 886.432 90.8311L885.025 90.5776C884.757 91.2985 884.111 91.6664 883.266 91.6664C881.993 91.6664 881.138 90.8411 881.098 89.3695H886.527V88.8425C886.527 86.0833 884.876 85.0044 883.146 85.0044C881.018 85.0044 879.616 86.6252 879.616 88.9718C879.616 91.3432 880.998 92.8944 883.251 92.8944ZM881.103 88.2559C881.163 87.1721 881.948 86.2324 883.156 86.2324C884.31 86.2324 885.065 87.0875 885.07 88.2559H881.103Z" fill="black"/>
<path d="M709.28 367.19L667.159 356.014L638.098 366.284L608.174 378.072V390.767L655.326 402.555L709.28 380.339V367.19Z" fill="white"/>
<path d="M640.818 385.779C639.442 391.116 639.035 393.189 637.644 398.927M657.593 387.139C655.7 393.487 655.374 395.876 653.886 401.648M645.351 387.139C643.939 392.617 643.6 394.026 642.177 399.882M650.338 387.912C648.927 393.39 648.071 396.979 647.164 400.74M633.109 397.567L636.737 384.419M651.245 402.235C651.927 399.431 652.464 397.108 652.994 394.846" stroke="black" stroke-linecap="round" stroke-linejoin="round"/>
<path d="M608.627 390.767C609.855 386.002 610.432 383.724 611.8 378.072M615.427 378.979C614.077 384.218 613.689 387.272 612.415 392.216M616.173 393.118C616.91 390.053 618.767 383.367 619.508 380.339" stroke="black" stroke-linecap="round" stroke-linejoin="round"/>
<path d="M667.568 383.512C666.023 389.507 664.847 392.58 663.487 398.02M672.335 381.698C670.736 387.905 669.975 390.295 668.474 396.118M662.58 385.779L658.5 400.741" stroke="black" stroke-linecap="round" stroke-linejoin="round"/>
<path d="M632.378 383.513C631.079 388.554 629.807 391.996 628.575 396.774M623.588 381.7L620.104 394.709M627.946 382.153L624.041 395.755C625.268 390.994 626.66 387.145 627.946 382.153Z" stroke="black" stroke-linecap="round" stroke-linejoin="round"/>
<path d="M678.902 392.581L682.529 377.619M677.542 379.432L673.462 394.395M683.89 390.314C685.315 384.782 686.007 381.209 687.517 375.352L683.89 390.314ZM688.423 388.5C689.823 383.069 690.567 378.842 692.051 373.085L688.423 388.5Z" stroke="black" stroke-linecap="round" stroke-linejoin="round"/>
<path d="M702.025 369.458C700.452 375.563 699.305 380.792 698.398 384.42M702.973 382.606C704.397 377.08 705.505 373.041 707.013 367.191M693.411 386.233L697.038 371.725M707.012 381.246C707.736 378.437 708.625 375.105 709.28 372.631" stroke="black" stroke-linecap="round" stroke-linejoin="round"/>
<path d="M605 376.711C621.944 380.64 638.888 384.927 654.873 388.499" stroke="black" stroke-linecap="round" stroke-linejoin="round"/>
<path d="M661.392 354.73C678.336 358.66 695.28 362.946 711.265 366.519" stroke="black" stroke-linecap="round" stroke-linejoin="round"/>
<path d="M605.907 390.314C616.789 393.488 635.831 398.022 655.327 403.009" stroke="black" stroke-linecap="round" stroke-linejoin="round"/>
<path d="M653.059 388.954C664.847 384.874 694.318 372.632 712 365.378M605 378.442C616.788 374.361 647.294 362.421 668.441 354.731" stroke="black" stroke-linecap="round" stroke-linejoin="round"/>
<path d="M652.606 403.01C669.835 395.756 685.703 389.862 712 378.98" stroke="black" stroke-linecap="round" stroke-linejoin="round"/>
<path d="M709.279 365.831C709.279 371.272 709.279 376.259 709.279 383.06" stroke="black" stroke-linecap="round" stroke-linejoin="round"/>
<path d="M608.627 372.179C608.744 378.829 608.627 385.78 608.627 393.035" stroke="black" stroke-linecap="round" stroke-linejoin="round"/>
<path d="M653.059 385.78C653.176 392.43 653.059 398.475 653.059 405.729" stroke="black" stroke-linecap="round" stroke-linejoin="round"/>
<path d="M678.676 348.313C675.021 362.41 669.614 377.029 657.791 377.029C639.517 377.029 636.384 363.307 636.384 348.313C637.951 334.215 647.013 320.118 658.835 320.118C670.658 320.118 681.809 325.861 678.676 348.313Z" fill="white"/>
<path d="M642.23 373.474C648.792 374.756 652.68 375.84 659.272 376.936" stroke="black" stroke-linecap="round" stroke-linejoin="round"/>
<path d="M663.26 321.724C658.576 325.657 651.386 334.089 649.119 346.141C646.804 358.45 648.837 374.364 658.547 376.39C660.959 376.627 666.574 374.567 669.787 370.194C674.34 363.999 679.215 353.43 679.215 339.217C679.215 330.47 670.875 314.799 660.36 325.732" stroke="black" stroke-linecap="round" stroke-linejoin="round"/>
<path d="M645.856 374.931C630.602 364.616 635.342 331.971 649.119 322.452C654.921 318.443 661.448 319.536 673.776 323.545" stroke="black" stroke-linecap="round" stroke-linejoin="round"/>
<path d="M671.366 338.914C665.15 329.464 657.456 340.549 664.909 347.689C672.362 354.828 667.712 367.108 655.181 356.666" stroke="black" stroke-linecap="round" stroke-linejoin="round"/>
<path d="M669.278 332.649C666.668 342.048 663.013 353.012 659.319 363.061" stroke="black" stroke-linecap="round" stroke-linejoin="round"/>
<path d="M656.008 329.739C652.466 328.62 648.845 327.476 645.13 326.302M654.195 333.019L642.23 329.238M658.207 327.29C654.72 326.188 651.152 325.061 647.503 323.908L658.207 327.29Z" stroke="black" stroke-linecap="round" stroke-linejoin="round"/>
<path d="M651.127 339.237C647.293 338.025 643.366 336.785 639.329 335.509M650.141 342.957L638.365 339.237M652.844 336.038C649.155 334.872 645.375 333.678 641.505 332.455L652.844 336.038Z" stroke="black" stroke-linecap="round" stroke-linejoin="round"/>
<path d="M648.756 349.937C644.953 348.735 641.059 347.505 637.056 346.24M648.031 353.791L635.831 349.937M649.142 346.24C645.592 345.118 640.774 344.033 637.056 342.858L649.142 346.24Z" stroke="black" stroke-linecap="round" stroke-linejoin="round"/>
<path d="M648.951 361.932C645.117 360.721 641.191 359.48 637.153 358.205M648.394 357.752C644.211 356.622 640.585 355.643 635.871 354.37L648.394 357.752Z" stroke="black" stroke-linecap="round" stroke-linejoin="round"/>
<path d="M641.142 370.192L653.108 372.743M651.394 369.463C645.856 368.006 643.435 367.562 638.241 365.921M649.844 365.921L635.941 361.926C640.801 363.462 645.13 364.566 649.844 365.921Z" stroke="black" stroke-linecap="round" stroke-linejoin="round"/>
<path d="M665.845 322.472C660.986 320.937 662.29 321.541 657.097 319.9M660.36 324.273L650.784 321.237" stroke="black" stroke-linecap="round" stroke-linejoin="round"/>
<path fill-rule="evenodd" clip-rule="evenodd" d="M627.206 268.001C633.576 268.001 638.932 272.03 640.524 278.074C645.735 278.649 649.644 282.966 649.644 288.147C649.644 293.758 645.156 298.219 639.511 298.219H614.178C609.835 298.219 606.216 294.622 606.216 290.305C606.216 286.132 609.401 282.678 613.454 282.391V281.671C613.454 274.189 619.679 268.001 627.206 268.001ZM629.24 283.307L629.653 283.41C630.762 283.678 633.358 284.304 633.358 287.035C633.358 289.285 631.676 290.764 628.905 291.025V292.153C628.905 292.374 628.722 292.553 628.498 292.553H627.48C627.256 292.553 627.073 292.374 627.073 292.153V291.016C625.661 290.861 624.441 290.348 623.644 289.555C622.903 288.819 622.519 287.868 622.501 286.726H625.026C625.095 288.238 626.236 289.135 628.106 289.135C628.746 289.135 630.836 289.007 630.836 287.363C630.836 286.049 629.283 285.675 627.64 285.279C627.36 285.212 627.074 285.143 626.789 285.068C624.93 284.585 622.946 283.872 622.946 281.506C622.946 279.153 624.976 277.957 627.073 277.746V276.585C627.073 276.364 627.255 276.185 627.48 276.185H628.498C628.722 276.185 628.904 276.364 628.904 276.585V277.792C630.507 278.013 632.832 278.817 632.911 281.614H630.38C630.246 280.288 629.342 279.643 627.623 279.643C626.629 279.643 625.469 280.069 625.469 281.268C625.469 282.356 626.118 282.52 629.24 283.307Z" fill="url(#paint2_linear)"/>
<path d="M656.878 290.069V295.887H657.89V291.881H657.944L659.552 295.87H660.307L661.915 291.89H661.969V295.887H662.981V290.069H661.691L659.964 294.284H659.895L658.168 290.069H656.878ZM664.891 295.887L665.372 294.452H667.559L668.042 295.887H669.167L667.116 290.069H665.815L663.766 295.887H664.891ZM665.656 293.605L666.443 291.262H666.488L667.275 293.605H665.656ZM674.731 290.069H673.682V294.034H673.631L670.893 290.069H669.949V295.887H671.003V291.924H671.052L673.793 295.887H674.731V290.069ZM676.642 295.887L677.122 294.452H679.31L679.793 295.887H680.918L678.867 290.069H677.566L675.517 295.887H676.642ZM677.406 293.605L678.193 291.262H678.239L679.026 293.605H677.406ZM685.324 291.926H686.398C686.219 290.784 685.231 289.989 683.944 289.989C682.421 289.989 681.279 291.108 681.279 292.983C681.279 294.824 682.37 295.966 683.975 295.966C685.415 295.966 686.447 295.04 686.447 293.54V292.841H684.086V293.665H685.427C685.41 294.495 684.856 295.02 683.981 295.02C683.006 295.02 682.339 294.29 682.339 292.972C682.339 291.662 683.018 290.935 683.958 290.935C684.66 290.935 685.137 291.31 685.324 291.926ZM687.482 295.887H691.289V295.003H688.536V293.415H691.07V292.532H688.536V290.952H691.266V290.069H687.482V295.887ZM692.357 290.069V295.887H693.368V291.881H693.422L695.03 295.87H695.786L697.394 291.89H697.448V295.887H698.459V290.069H697.17L695.442 294.284H695.374L693.647 290.069H692.357ZM699.623 295.887H703.43V295.003H700.677V293.415H703.211V292.532H700.677V290.952H703.407V290.069H699.623V295.887ZM709.28 290.069H708.231V294.034H708.18L705.442 290.069H704.498V295.887H705.552V291.924H705.601L708.342 295.887H709.28V290.069ZM710.189 290.952H711.987V295.887H713.032V290.952H714.831V290.069H710.189V290.952Z" fill="black"/>
<path d="M665.88 277.764C665.532 275.586 663.826 274.314 661.674 274.314C659.039 274.314 657.095 276.287 657.095 279.544C657.095 282.8 659.029 284.774 661.674 284.774C663.911 284.774 665.547 283.372 665.88 281.358L664.329 281.354C664.065 282.656 662.971 283.372 661.684 283.372C659.939 283.372 658.621 282.035 658.621 279.544C658.621 277.073 659.934 275.716 661.689 275.716C662.986 275.716 664.075 276.447 664.329 277.764H665.88ZM669.075 274.453H667.589V284.635H669.075V274.453ZM674.282 284.789C676.434 284.789 677.841 283.213 677.841 280.851C677.841 278.475 676.434 276.899 674.282 276.899C672.129 276.899 670.722 278.475 670.722 280.851C670.722 283.213 672.129 284.789 674.282 284.789ZM674.287 283.541C672.88 283.541 672.223 282.313 672.223 280.846C672.223 279.385 672.88 278.142 674.287 278.142C675.684 278.142 676.34 279.385 676.34 280.846C676.34 282.313 675.684 283.541 674.287 283.541ZM684.328 281.468C684.333 282.765 683.368 283.382 682.533 283.382C681.613 283.382 680.977 282.716 680.977 281.677V276.998H679.491V281.856C679.491 283.75 680.53 284.734 681.996 284.734C683.145 284.734 683.925 284.128 684.278 283.312H684.358V284.635H685.819V276.998H684.328V281.468ZM690.665 284.784C692.057 284.784 692.604 283.934 692.873 283.447H692.997V284.635H694.449V274.453H692.962V278.236H692.873C692.604 277.764 692.097 276.899 690.675 276.899C688.831 276.899 687.474 278.356 687.474 280.831C687.474 283.302 688.811 284.784 690.665 284.784ZM690.993 283.516C689.666 283.516 688.975 282.348 688.975 280.817C688.975 279.3 689.651 278.162 690.993 278.162C692.291 278.162 692.987 279.221 692.987 280.817C692.987 282.422 692.276 283.516 690.993 283.516ZM708.831 277.764C708.483 275.586 706.778 274.314 704.625 274.314C701.991 274.314 700.047 276.287 700.047 279.544C700.047 282.8 701.981 284.774 704.625 284.774C706.863 284.774 708.498 283.372 708.831 281.358L707.28 281.354C707.017 282.656 705.923 283.372 704.635 283.372C702.89 283.372 701.573 282.035 701.573 279.544C701.573 277.073 702.885 275.716 704.64 275.716C705.938 275.716 707.027 276.447 707.28 277.764H708.831ZM713.757 284.789C715.91 284.789 717.317 283.213 717.317 280.851C717.317 278.475 715.91 276.899 713.757 276.899C711.604 276.899 710.197 278.475 710.197 280.851C710.197 283.213 711.604 284.789 713.757 284.789ZM713.762 283.541C712.355 283.541 711.699 282.313 711.699 280.846C711.699 279.385 712.355 278.142 713.762 278.142C715.159 278.142 715.815 279.385 715.815 280.846C715.815 282.313 715.159 283.541 713.762 283.541ZM724.688 278.863C724.38 277.675 723.45 276.899 721.8 276.899C720.075 276.899 718.852 277.809 718.852 279.161C718.852 280.245 719.508 280.966 720.94 281.284L722.232 281.567C722.968 281.731 723.311 282.059 723.311 282.537C723.311 283.128 722.68 283.591 721.705 283.591C720.815 283.591 720.244 283.208 720.065 282.457L718.628 282.676C718.876 284.028 720 284.789 721.715 284.789C723.56 284.789 724.837 283.809 724.837 282.427C724.837 281.349 724.151 280.682 722.749 280.359L721.536 280.081C720.696 279.882 720.333 279.599 720.338 279.081C720.333 278.495 720.969 278.077 721.815 278.077C722.739 278.077 723.167 278.589 723.341 279.101L724.688 278.863ZM730.026 276.998H728.46V275.169H726.974V276.998H725.855V278.192H726.974V282.701C726.969 284.088 728.028 284.759 729.201 284.734C729.673 284.729 729.992 284.64 730.166 284.575L729.897 283.347C729.798 283.367 729.614 283.412 729.375 283.412C728.893 283.412 728.46 283.253 728.46 282.393V278.192H730.026V276.998Z" fill="black"/>
<path d="M242.203 294.51L198.902 283.02L169.025 293.577L138.263 305.696V318.747L186.737 330.866L242.203 308.027V294.51Z" fill="white"/>
<path d="M171.822 313.622C170.408 319.109 169.99 321.241 168.559 327.14M189.068 315.021C187.122 321.547 186.786 324.003 185.257 329.936M176.483 315.021C175.032 320.653 174.683 322.101 173.22 328.121M181.61 315.815C180.159 321.447 179.28 325.137 178.347 329.004M163.898 325.742L167.627 312.225M182.542 330.54C183.243 327.658 183.795 325.269 184.34 322.945" stroke="black" stroke-linecap="round" stroke-linejoin="round"/>
<path d="M138.729 318.75C139.991 313.851 140.585 311.51 141.991 305.699M145.72 306.631C144.332 312.017 143.933 315.157 142.623 320.24M146.487 321.166C147.244 318.016 149.153 311.142 149.915 308.029" stroke="black" stroke-linecap="round" stroke-linejoin="round"/>
<path d="M199.322 311.291C197.734 317.455 196.526 320.613 195.127 326.207M204.223 309.427C202.579 315.808 201.797 318.264 200.254 324.251M194.195 313.622L190 329.004" stroke="black" stroke-linecap="round" stroke-linejoin="round"/>
<path d="M163.146 311.294C161.81 316.476 160.503 320.014 159.237 324.926M154.11 309.429L150.528 322.803M158.59 309.895L154.575 323.879C155.837 318.984 157.268 315.027 158.59 309.895Z" stroke="black" stroke-linecap="round" stroke-linejoin="round"/>
<path d="M210.975 320.614L214.703 305.233M209.576 307.098L205.382 322.479M216.102 318.284C217.567 312.598 218.279 308.924 219.83 302.903L216.102 318.284ZM220.763 316.42C222.201 310.836 222.966 306.49 224.491 300.572L220.763 316.42Z" stroke="black" stroke-linecap="round" stroke-linejoin="round"/>
<path d="M234.746 296.844C233.128 303.12 231.949 308.496 231.017 312.225M235.72 310.36C237.184 304.68 238.324 300.528 239.874 294.513M225.89 314.089L229.619 299.174M239.873 308.962C240.617 306.074 241.531 302.649 242.204 300.106" stroke="black" stroke-linecap="round" stroke-linejoin="round"/>
<path d="M135 304.298C152.419 308.337 169.838 312.744 186.271 316.417" stroke="black" stroke-linecap="round" stroke-linejoin="round"/>
<path d="M192.973 281.701C210.392 285.741 227.811 290.148 244.244 293.82" stroke="black" stroke-linecap="round" stroke-linejoin="round"/>
<path d="M135.933 318.282C147.119 321.545 166.695 326.206 186.738 331.333" stroke="black" stroke-linecap="round" stroke-linejoin="round"/>
<path d="M184.407 316.885C196.525 312.69 226.822 300.105 245 292.647M135 306.077C147.119 301.882 178.48 289.608 200.219 281.702" stroke="black" stroke-linecap="round" stroke-linejoin="round"/>
<path d="M183.941 331.334C201.653 323.877 217.966 317.817 245 306.631" stroke="black" stroke-linecap="round" stroke-linejoin="round"/>
<path d="M242.203 293.112C242.203 298.706 242.203 303.833 242.203 310.824" stroke="black" stroke-linecap="round" stroke-linejoin="round"/>
<path d="M138.729 299.639C138.849 306.475 138.729 313.622 138.729 321.079" stroke="black" stroke-linecap="round" stroke-linejoin="round"/>
<path d="M184.407 313.621C184.527 320.458 184.407 326.672 184.407 334.13" stroke="black" stroke-linecap="round" stroke-linejoin="round"/>
<path d="M210.76 263.914C214.593 264.68 183.091 276.431 183.091 276.431L161.352 269.843L153.446 269.843L175.845 259.302L190.338 259.302C190.338 259.302 200.878 261.937 210.76 263.914Z" fill="white"/>
<path d="M190.254 256.667C190.254 264.014 190.254 268.898 190.254 273.701" stroke="black" stroke-linecap="round" stroke-linejoin="round"/>
<path d="M189.02 258.401C197.381 260.689 203.513 261.684 213.395 264.319" stroke="black" stroke-linecap="round" stroke-linejoin="round"/>
<path d="M159.496 271.135C165.366 268.679 186.314 260.197 192.282 257.985" stroke="black" stroke-linecap="round" stroke-linejoin="round"/>
<path d="M146.372 273.11C153.073 270.16 171.551 261.955 178.365 259.301" stroke="black" stroke-linecap="round" stroke-linejoin="round"/>
<path d="M145.632 271.19C150.125 270.863 157.866 270.3 162.357 269.973" stroke="black" stroke-linecap="round" stroke-linejoin="round"/>
<path d="M171.892 260.619C177.162 259.96 183.75 259.96 190.338 258.642" stroke="black" stroke-linecap="round" stroke-linejoin="round"/>
<path d="M168.158 272.478C168.609 270.729 169.062 268.972 169.517 267.208L168.158 272.478Z" stroke="black" stroke-linecap="round" stroke-linejoin="round"/>
<path d="M173.21 272.469L175.075 265.231M182.183 275.112C183.413 270.339 184.658 265.508 185.918 260.619L182.183 275.112ZM180.09 263.254C179.174 266.807 178.269 270.319 177.373 273.795L180.09 263.254Z" stroke="black" stroke-linecap="round" stroke-linejoin="round"/>
<path d="M187.318 274.454L190.125 263.559" stroke="black" stroke-linecap="round" stroke-linejoin="round"/>
<circle cx="183.75" cy="270.89" r="17.9459" fill="white" stroke="black"/>
<path d="M179.765 261.729C173.453 265.281 170.845 266.63 166.399 269.273M167.301 265.728C171.006 263.526 172.851 262.331 177.675 259.562" stroke="black" stroke-linecap="round" stroke-linejoin="round"/>
<path d="M176.696 267.364L166.33 273.625M178.815 269.915C176.359 271.463 170.069 275.03 167.7 276.522M179.566 272.662C176.891 274.348 174.251 276.011 171.647 277.651" stroke="black" stroke-linecap="round" stroke-linejoin="round"/>
<path d="M182.012 275.402L176.164 279.103M183.872 277.277C182.018 278.445 180.191 279.597 178.387 280.733" stroke="black" stroke-linecap="round" stroke-linejoin="round"/>
<path d="M197.373 269.66C198.711 268.817 200.059 267.968 201.415 267.114L197.373 269.66ZM196.126 267.678C198.008 266.492 199.916 265.29 201.852 264.07L196.126 267.678Z" stroke="black" stroke-linecap="round" stroke-linejoin="round"/>
<path d="M212.736 297.511L185.086 309.146L160.693 301.464L160.693 270.501L185.086 276.43L213.831 262.943L223.15 268.835L212.736 273.796L212.736 297.511Z" fill="white"/>
<path d="M160.693 268.913C160.693 286.041 160.693 290.653 160.693 302.125" stroke="black" stroke-linecap="round" stroke-linejoin="round"/>
<path d="M186.385 275.114C186.385 290.164 186.385 294.878 186.385 309.729M212.736 275.114C212.736 285.655 212.736 289.136 212.736 297.871" stroke="black" stroke-linecap="round" stroke-linejoin="round"/>
<path d="M160.034 302.123C168.394 304.411 177.821 306.735 187.703 309.37" stroke="black" stroke-linecap="round" stroke-linejoin="round"/>
<path d="M161.352 270.491C169.712 272.779 179.139 275.103 189.02 277.738" stroke="black" stroke-linecap="round" stroke-linejoin="round"/>
<path d="M183.244 310.003C189.114 307.547 210.062 299.065 216.03 296.853" stroke="black" stroke-linecap="round" stroke-linejoin="round"/>
<path d="M185.067 276.432C187.703 278.408 189.679 281.043 192.973 283.678" stroke="black" stroke-linecap="round" stroke-linejoin="round"/>
<path d="M191.421 284.285C196.433 281.729 221.077 270.558 226.198 268.225" stroke="black" stroke-linecap="round" stroke-linejoin="round"/>
<path d="M211.042 261.793C215.688 264.566 220.515 267.376 225.513 269.436" stroke="black" stroke-linecap="round" stroke-linejoin="round"/>
<path d="M179.946 277.971C193.245 272.171 202.605 268.011 216.851 261.95" stroke="black" stroke-linecap="round" stroke-linejoin="round"/>
<path d="M188.483 307.394C190.53 299.453 192.624 291.327 194.765 283.019L188.483 307.394ZM190.125 281.043C188.92 285.719 187.732 290.329 186.56 294.877L190.125 281.043Z" stroke="black" stroke-linecap="round" stroke-linejoin="round"/>
<path d="M193.852 305.416L200.303 280.383M212.736 287.63L209.442 299.488M204.525 301.464C206.735 292.888 208.999 284.104 211.316 275.112L204.525 301.464ZM205.488 277.748C203.235 286.489 201.042 294.997 198.902 303.305L205.488 277.748Z" stroke="black" stroke-linecap="round" stroke-linejoin="round"/>
<path fill-rule="evenodd" clip-rule="evenodd" d="M163.269 216.123C163.269 218.784 162.69 221.362 161.698 223.69L154.831 216.872C155.659 215.541 156.072 213.962 156.072 212.299C156.155 207.559 152.267 203.652 147.469 203.652C145.732 203.652 144.16 204.151 142.836 204.982L136.466 198.663C138.865 197.582 141.43 197 144.243 197C154.749 197 163.269 205.564 163.269 216.123ZM133.819 200.16L140.685 207.061C139.527 208.557 138.865 210.386 138.865 212.382C138.865 217.204 142.754 221.112 147.552 221.112C149.537 221.112 151.357 220.447 152.846 219.283L160.209 226.683C156.734 231.838 150.943 235.247 144.243 235.247C133.737 235.247 125.216 226.683 125.216 216.123C125.216 209.389 128.608 203.568 133.819 200.16ZM147.552 217.786C150.778 217.786 153.342 215.209 153.342 211.966C153.342 208.723 150.778 206.146 147.552 206.146C144.325 206.146 141.761 208.723 141.761 211.966C141.761 215.209 144.325 217.786 147.552 217.786Z" fill="url(#paint3_linear)"/>
<path d="M175.411 214.818H173.874V225H175.411V214.818ZM179.005 220.466C179.005 219.248 179.751 218.552 180.785 218.552C181.794 218.552 182.406 219.213 182.406 220.322V225H183.892V220.143C183.892 218.254 182.853 217.264 181.292 217.264C180.144 217.264 179.393 217.796 179.04 218.607H178.945V217.364H177.519V225H179.005V220.466ZM189.44 217.364H187.874V215.534H186.388V217.364H185.269V218.557H186.388V223.066C186.383 224.453 187.442 225.124 188.615 225.099C189.087 225.094 189.406 225.005 189.58 224.94L189.311 223.712C189.212 223.732 189.028 223.777 188.789 223.777C188.307 223.777 187.874 223.618 187.874 222.758V218.557H189.44V217.364ZM194.284 225.154C195.949 225.154 197.128 224.334 197.466 223.091L196.059 222.837C195.79 223.558 195.144 223.926 194.299 223.926C193.026 223.926 192.171 223.101 192.131 221.629H197.56V221.102C197.56 218.343 195.91 217.264 194.18 217.264C192.052 217.264 190.65 218.885 190.65 221.232C190.65 223.603 192.032 225.154 194.284 225.154ZM192.136 220.516C192.196 219.432 192.981 218.492 194.189 218.492C195.343 218.492 196.099 219.347 196.104 220.516H192.136ZM202.401 228.023C204.345 228.023 205.847 227.133 205.847 225.169V217.364H204.39V218.602H204.28C204.017 218.129 203.49 217.264 202.068 217.264C200.224 217.264 198.866 218.721 198.866 221.152C198.866 223.588 200.254 224.886 202.058 224.886C203.46 224.886 204.002 224.095 204.271 223.608H204.365V225.109C204.365 226.308 203.545 226.825 202.416 226.825C201.178 226.825 200.696 226.203 200.432 225.766L199.155 226.293C199.557 227.227 200.577 228.023 202.401 228.023ZM202.386 223.653C201.059 223.653 200.368 222.634 200.368 221.132C200.368 219.665 201.044 218.527 202.386 218.527C203.684 218.527 204.38 219.586 204.38 221.132C204.38 222.708 203.669 223.653 202.386 223.653ZM207.83 225H209.317V220.337C209.317 219.337 210.087 218.616 211.141 218.616C211.449 218.616 211.797 218.671 211.917 218.706V217.284C211.768 217.264 211.474 217.249 211.285 217.249C210.391 217.249 209.625 217.756 209.346 218.577H209.267V217.364H207.83V225ZM215.347 225.169C216.61 225.169 217.321 224.528 217.604 223.956H217.664V225H219.116V219.929C219.116 217.707 217.366 217.264 216.153 217.264C214.77 217.264 213.498 217.821 213.001 219.213L214.398 219.531C214.616 218.989 215.173 218.467 216.172 218.467C217.132 218.467 217.624 218.969 217.624 219.835V219.869C217.624 220.411 217.067 220.401 215.695 220.56C214.248 220.729 212.767 221.107 212.767 222.842C212.767 224.344 213.895 225.169 215.347 225.169ZM215.67 223.976C214.83 223.976 214.224 223.598 214.224 222.862C214.224 222.067 214.93 221.783 215.79 221.669C216.272 221.604 217.415 221.475 217.629 221.261V222.246C217.629 223.151 216.908 223.976 215.67 223.976ZM224.65 217.364H223.084V215.534H221.598V217.364H220.479V218.557H221.598V223.066C221.593 224.453 222.652 225.124 223.825 225.099C224.297 225.094 224.615 225.005 224.789 224.94L224.521 223.712C224.421 223.732 224.238 223.777 223.999 223.777C223.517 223.777 223.084 223.618 223.084 222.758V218.557H224.65V217.364ZM226.285 225H227.771V217.364H226.285V225ZM227.035 216.185C227.547 216.185 227.975 215.788 227.975 215.3C227.975 214.813 227.547 214.411 227.035 214.411C226.518 214.411 226.096 214.813 226.096 215.3C226.096 215.788 226.518 216.185 227.035 216.185ZM232.977 225.154C235.13 225.154 236.537 223.578 236.537 221.217C236.537 218.84 235.13 217.264 232.977 217.264C230.825 217.264 229.418 218.84 229.418 221.217C229.418 223.578 230.825 225.154 232.977 225.154ZM232.982 223.906C231.575 223.906 230.919 222.678 230.919 221.212C230.919 219.75 231.575 218.507 232.982 218.507C234.379 218.507 235.036 219.75 235.036 221.212C235.036 222.678 234.379 223.906 232.982 223.906ZM239.673 220.466C239.673 219.248 240.419 218.552 241.453 218.552C242.462 218.552 243.073 219.213 243.073 220.322V225H244.56V220.143C244.56 218.254 243.521 217.264 241.96 217.264C240.811 217.264 240.061 217.796 239.708 218.607H239.613V217.364H238.186V225H239.673V220.466Z" fill="black"/>
<path d="M178.31 206.145C178.131 204.852 177.137 204.102 175.847 204.102C174.327 204.102 173.182 205.21 173.182 207.091C173.182 208.969 174.313 210.08 175.847 210.08C177.23 210.08 178.148 209.185 178.31 208.074L177.247 208.068C177.114 208.75 176.557 209.134 175.861 209.134C174.918 209.134 174.242 208.426 174.242 207.091C174.242 205.778 174.912 205.048 175.864 205.048C176.571 205.048 177.125 205.449 177.247 206.145H178.31ZM184.49 207.091C184.49 205.21 183.342 204.102 181.817 204.102C180.288 204.102 179.143 205.21 179.143 207.091C179.143 208.969 180.288 210.08 181.817 210.08C183.342 210.08 184.49 208.972 184.49 207.091ZM183.43 207.091C183.43 208.415 182.765 209.134 181.817 209.134C180.871 209.134 180.203 208.415 180.203 207.091C180.203 205.767 180.871 205.048 181.817 205.048C182.765 205.048 183.43 205.767 183.43 207.091ZM190.284 204.182H189.235V208.148H189.184L186.446 204.182H185.502V210H186.556V206.037H186.605L189.346 210H190.284V204.182ZM191.192 205.065H192.991V210H194.036V205.065H195.834V204.182H191.192V205.065ZM197.799 204.182H196.745V210H197.799V204.182ZM203.738 204.182H202.69V208.148H202.638L199.9 204.182H198.957V210H200.011V206.037H200.059L202.8 210H203.738V204.182ZM208.57 204.182V207.895C208.57 208.625 208.061 209.148 207.263 209.148C206.462 209.148 205.956 208.625 205.956 207.895V204.182H204.902V207.983C204.902 209.233 205.84 210.088 207.263 210.088C208.681 210.088 209.624 209.233 209.624 207.983V204.182H208.57ZM215.984 207.091C215.984 205.21 214.837 204.102 213.311 204.102C211.783 204.102 210.638 205.21 210.638 207.091C210.638 208.969 211.783 210.08 213.311 210.08C214.837 210.08 215.984 208.972 215.984 207.091ZM214.925 207.091C214.925 208.415 214.26 209.134 213.311 209.134C212.365 209.134 211.697 208.415 211.697 207.091C211.697 205.767 212.365 205.048 213.311 205.048C214.26 205.048 214.925 205.767 214.925 207.091ZM220.664 204.182V207.895C220.664 208.625 220.156 209.148 219.358 209.148C218.556 209.148 218.051 208.625 218.051 207.895V204.182H216.997V207.983C216.997 209.233 217.934 210.088 219.358 210.088C220.775 210.088 221.718 209.233 221.718 207.983V204.182H220.664ZM226.042 205.781H227.056C227.036 204.798 226.198 204.102 224.96 204.102C223.738 204.102 222.82 204.79 222.823 205.818C222.823 206.653 223.417 207.134 224.374 207.381L225.036 207.551C225.664 207.71 226.079 207.906 226.082 208.358C226.079 208.855 225.607 209.188 224.92 209.188C224.261 209.188 223.749 208.892 223.707 208.281H222.67C222.712 209.438 223.573 210.088 224.928 210.088C226.323 210.088 227.133 209.392 227.136 208.366C227.133 207.358 226.3 206.898 225.425 206.69L224.88 206.554C224.403 206.44 223.886 206.239 223.891 205.753C223.894 205.315 224.286 204.994 224.945 204.994C225.573 204.994 225.988 205.287 226.042 205.781Z" fill="black"/>
<path d="M436.254 298.393L393.74 287.111L364.407 297.477L334.203 309.376V322.189L381.797 334.087L436.254 311.664V298.393Z" fill="white"/>
<path d="M367.152 317.154C365.764 322.541 365.353 324.634 363.949 330.426M384.084 318.527C382.174 324.934 381.844 327.346 380.343 333.171M371.728 318.527C370.303 324.057 369.961 325.478 368.525 331.389M376.762 319.307C375.337 324.836 374.474 328.46 373.559 332.256M359.372 329.053L363.034 315.781M377.678 333.764C378.365 330.934 378.908 328.589 379.443 326.307" stroke="black" stroke-linecap="round" stroke-linejoin="round"/>
<path d="M334.661 322.189C335.9 317.379 336.483 315.08 337.864 309.375M341.525 310.29C340.162 315.578 339.77 318.661 338.484 323.652M342.278 324.561C343.021 321.468 344.896 314.719 345.644 311.663" stroke="black" stroke-linecap="round" stroke-linejoin="round"/>
<path d="M394.153 314.866C392.593 320.917 391.407 324.018 390.034 329.51M398.965 313.035C397.35 319.3 396.582 321.712 395.068 327.59M389.119 317.154L385 332.256" stroke="black" stroke-linecap="round" stroke-linejoin="round"/>
<path d="M358.634 314.867C357.323 319.955 356.039 323.43 354.796 328.252M349.762 313.037L346.246 326.168M354.161 313.495L350.219 327.224C351.458 322.418 352.863 318.533 354.161 313.495Z" stroke="black" stroke-linecap="round" stroke-linejoin="round"/>
<path d="M405.593 324.019L409.254 308.917M404.22 310.748L400.102 325.85M410.627 321.731C412.066 316.148 412.764 312.541 414.288 306.629L410.627 321.731ZM415.203 319.9C416.616 314.419 417.367 310.152 418.864 304.341L415.203 319.9Z" stroke="black" stroke-linecap="round" stroke-linejoin="round"/>
<path d="M428.932 300.68C427.344 306.843 426.187 312.121 425.271 315.782M429.889 313.952C431.326 308.374 432.445 304.298 433.966 298.392M420.238 317.613L423.898 302.969M433.966 312.579C434.696 309.743 435.594 306.381 436.255 303.884" stroke="black" stroke-linecap="round" stroke-linejoin="round"/>
<path d="M331 308.004C348.102 311.97 365.205 316.297 381.339 319.902" stroke="black" stroke-linecap="round" stroke-linejoin="round"/>
<path d="M387.919 285.816C405.021 289.783 422.123 294.109 438.258 297.715" stroke="black" stroke-linecap="round" stroke-linejoin="round"/>
<path d="M331.916 321.733C342.899 324.937 362.119 329.513 381.797 334.547" stroke="black" stroke-linecap="round" stroke-linejoin="round"/>
<path d="M379.508 320.361C391.407 316.243 421.152 303.887 439 296.565M331 309.75C342.898 305.631 373.689 293.58 395.034 285.818" stroke="black" stroke-linecap="round" stroke-linejoin="round"/>
<path d="M379.051 334.547C396.441 327.225 412.458 321.276 439 310.293" stroke="black" stroke-linecap="round" stroke-linejoin="round"/>
<path d="M436.254 297.021C436.254 302.512 436.254 307.546 436.254 314.41" stroke="black" stroke-linecap="round" stroke-linejoin="round"/>
<path d="M334.661 303.428C334.779 310.14 334.661 317.157 334.661 324.479" stroke="black" stroke-linecap="round" stroke-linejoin="round"/>
<path d="M379.509 317.156C379.626 323.868 379.509 329.97 379.509 337.292" stroke="black" stroke-linecap="round" stroke-linejoin="round"/>
<path d="M372.502 304.997H378.145V307.04L385.674 308.403L393.847 304.997L392.372 297.505L397.253 292.056L402.673 293.544L404.506 280.972H400.322V274.277L404.506 270.511L402.673 262.142L395.719 258.821L392.372 264.653V258.821L387.351 255.447L378.145 260.468V267.163L374.379 270.511H370.195L366.429 283.57H370.195V293.544L366.429 297.505L372.502 304.997Z" fill="white"/>
<path d="M366.476 283.163C367.141 283.381 367.801 283.516 368.493 283.648C371.494 284.219 374.514 284.689 377.525 285.206" stroke="black" stroke-linecap="round" stroke-linejoin="round"/>
<path d="M368.519 270.255C369.235 270.37 369.887 270.495 370.587 270.714C373.914 271.752 377.197 272.942 380.496 274.062" stroke="black" stroke-linecap="round" stroke-linejoin="round"/>
<path d="M377.524 260.137C380.925 261.256 384.464 262.018 387.924 262.922" stroke="black" stroke-linecap="round" stroke-linejoin="round"/>
<path d="M385.138 255.029C388.092 256.127 391.076 257.148 394.051 258.186" stroke="black" stroke-linecap="round" stroke-linejoin="round"/>
<path d="M395.258 259.022C397.869 259.644 400.416 260.612 402.965 261.437" stroke="black" stroke-linecap="round" stroke-linejoin="round"/>
<path d="M400.737 281.119C402.377 281.523 404.018 281.921 405.658 282.326" stroke="black" stroke-linecap="round" stroke-linejoin="round"/>
<path d="M397.488 292.169C399.322 292.592 401.142 293.096 402.966 293.562" stroke="black" stroke-linecap="round" stroke-linejoin="round"/>
<path d="M393.588 297.09C393.661 297.547 393.706 297.959 393.717 298.431C393.776 301.078 393.695 303.728 393.68 306.375" stroke="black" stroke-linecap="round" stroke-linejoin="round"/>
<path d="M385.695 301.641C385.898 304.231 385.859 306.845 385.974 309.44" stroke="black" stroke-linecap="round" stroke-linejoin="round"/>
<path d="M377.061 306.839C379.103 305.376 380.675 303.197 382.353 301.361" stroke="black" stroke-linecap="round" stroke-linejoin="round"/>
<path d="M372.975 298.946C374.717 296.802 376.99 295.051 379.01 293.189" stroke="black" stroke-linecap="round" stroke-linejoin="round"/>
<path d="M378.056 294.485C377.711 292.262 376.968 288.176 377.711 284.091" stroke="black" stroke-linecap="round" stroke-linejoin="round"/>
<path d="M380.681 274.434C381.61 272.856 382.91 271.091 386.252 269.234" stroke="black" stroke-linecap="round" stroke-linejoin="round"/>
<path d="M385.695 261.715C385.623 265.057 385.543 268.399 385.51 271.743" stroke="black" stroke-linecap="round" stroke-linejoin="round"/>
<path d="M392.659 258.279C392.659 261.034 392.659 263.788 392.659 266.543" stroke="black" stroke-linecap="round" stroke-linejoin="round"/>
<path d="M391.731 265.801C393.309 265.801 395.538 266.265 396.652 267.751" stroke="black" stroke-linecap="round" stroke-linejoin="round"/>
<path d="M395.816 267.286C396.308 266.917 396.731 266.538 397.177 266.105C399.465 263.886 401.719 261.632 403.986 259.394" stroke="black" stroke-linecap="round" stroke-linejoin="round"/>
<path d="M400.366 274.529C400.494 274.239 400.635 273.982 400.851 273.745C402.502 271.929 404.303 270.237 406.03 268.494" stroke="black" stroke-linecap="round" stroke-linejoin="round"/>
<path d="M401.666 260.88C402.126 261.706 402.32 262.527 402.553 263.459C403.048 265.437 403.413 267.471 404.008 269.422C404.083 269.668 404.209 269.898 404.451 269.979" stroke="black" stroke-linecap="round" stroke-linejoin="round"/>
<path d="M400.366 273.691C401.109 277.034 401.337 279.377 400.366 282.048" stroke="black" stroke-linecap="round" stroke-linejoin="round"/>
<path d="M404.172 281.77C404.822 285.948 402.594 291.519 401.48 294.49" stroke="black" stroke-linecap="round" stroke-linejoin="round"/>
<path d="M392.473 298.019C395.239 295.777 396.308 294.174 397.58 290.869" stroke="black" stroke-linecap="round" stroke-linejoin="round"/>
<path d="M384.673 308.883C385.252 308.786 385.639 308.674 386.2 308.403C389.212 306.947 390.506 306.515 395.034 304.574" stroke="black" stroke-linecap="round" stroke-linejoin="round"/>
<path d="M379.01 307.303C381.786 307.67 384.486 308.649 387.274 308.881" stroke="black" stroke-linecap="round" stroke-linejoin="round"/>
<path d="M379.195 307.676C379.023 306.597 378.886 305.509 378.731 304.427" stroke="black" stroke-linecap="round" stroke-linejoin="round"/>
<path d="M373.625 285.205C373.253 281.491 374.739 274.806 376.967 272.206" stroke="black" stroke-linecap="round" stroke-linejoin="round"/>
<path d="M367.311 283.813C367.207 279.222 368.797 274.435 371.025 270.35" stroke="black" stroke-linecap="round" stroke-linejoin="round"/>
<path d="M374.089 272.112C375.436 270.926 376.7 269.647 377.989 268.398" stroke="black" stroke-linecap="round" stroke-linejoin="round"/>
<path d="M378.175 260.416C378.175 262.48 378.061 264.543 378 266.606C377.989 266.982 377.972 267.233 378.082 267.565" stroke="black" stroke-linecap="round" stroke-linejoin="round"/>
<path d="M376.967 268.029C380.157 269.001 382.638 269.397 385.332 270.295" stroke="black" stroke-linecap="round" stroke-linejoin="round"/>
<path d="M392.566 264.314C393.942 262.168 395.352 260.043 396.744 257.907" stroke="black" stroke-linecap="round" stroke-linejoin="round"/>
<path d="M376.689 260.6C380.078 258.642 383.701 256.996 387.181 255.215" stroke="black" stroke-linecap="round" stroke-linejoin="round"/>
<path d="M384.488 262.92C386.359 262.11 388.127 261.006 389.904 260.021C391.918 258.905 393.947 257.813 395.909 256.606" stroke="black" stroke-linecap="round" stroke-linejoin="round"/>
<path d="M371.582 284.927C371.582 287.439 371.954 289.938 371.954 292.448" stroke="black" stroke-linecap="round" stroke-linejoin="round"/>
<path d="M371.102 292.285C373.689 292.932 375.944 293.407 379.51 294.226" stroke="black" stroke-linecap="round" stroke-linejoin="round"/>
<path d="M366.382 297.925C367.09 297.425 367.647 296.772 368.25 296.15C369.586 294.769 370.91 293.376 372.232 291.982" stroke="black" stroke-linecap="round" stroke-linejoin="round"/>
<path d="M366.011 297.74C368.992 298.191 371.102 298.753 374.983 299.4" stroke="black" stroke-linecap="round" stroke-linejoin="round"/>
<path d="M381.61 300.897C383.601 301.403 385.612 301.537 387.645 301.64" stroke="black" stroke-linecap="round" stroke-linejoin="round"/>
<path d="M373.068 298.668C374.584 300.75 375.906 302.963 377.318 305.116C377.771 305.806 378.226 306.692 378.917 307.21" stroke="black" stroke-linecap="round" stroke-linejoin="round"/>
<path d="M366.197 297.832C368.425 300.432 370.678 303.28 372.511 305.539" stroke="black" stroke-linecap="round" stroke-linejoin="round"/>
<path d="M371.025 304.982C373.542 305.031 375.949 306.259 378.453 306.468" stroke="black" stroke-linecap="round" stroke-linejoin="round"/>
<path d="M381.796 287.712C385.138 290.033 387.367 291.519 389.595 293.376" stroke="black" stroke-linecap="round" stroke-linejoin="round"/>
<path d="M382.538 290.033C382.91 287.433 383.281 282.605 383.653 279.263" stroke="black" stroke-linecap="round" stroke-linejoin="round"/>
<path d="M382.167 281.491C383.613 280.298 388.858 276.7 390.338 275.549" stroke="black" stroke-linecap="round" stroke-linejoin="round"/>
<path d="M387.924 275.363C390.292 276.851 392.965 277.92 395.475 279.139C396.136 279.46 397.035 279.766 397.673 280.191" stroke="black" stroke-linecap="round" stroke-linejoin="round"/>
<path d="M386.995 293.005C388.48 292.262 393.905 288.909 395.166 288.177" stroke="black" stroke-linecap="round" stroke-linejoin="round"/>
<path d="M394.052 288.921C394.794 285.579 395.166 282.236 395.909 278.894" stroke="black" stroke-linecap="round" stroke-linejoin="round"/>
<path d="M390.988 278.706C390.704 280.055 390.428 281.406 390.121 282.75C389.843 283.97 389.549 285.187 389.286 286.41C389.244 286.604 389.224 286.673 389.224 286.83" stroke="black" stroke-linecap="round" stroke-linejoin="round"/>
<path d="M384.024 289.522C384.999 289.151 385.937 288.679 386.882 288.242C387.805 287.816 388.752 287.416 389.642 286.922" stroke="black" stroke-linecap="round" stroke-linejoin="round"/>
<path d="M387.739 277.777C389.224 278.52 389.967 278.892 391.824 279.634" stroke="black" stroke-linecap="round" stroke-linejoin="round"/>
<path d="M390.337 279.588C392.566 279.588 395.448 279.44 397.394 279.263" stroke="black" stroke-linecap="round" stroke-linejoin="round"/>
<path d="M388.387 286.597C389.797 286.932 391.202 287.284 392.617 287.597C393.707 287.839 394.796 288.11 395.908 288.222" stroke="black" stroke-linecap="round" stroke-linejoin="round"/>
<path d="M389.45 278.519C390.232 278.229 391.275 277.826 392.499 277.321M389.86 282.976C391.562 283.352 393.267 283.721 394.982 284.09" stroke="black" stroke-linecap="round" stroke-linejoin="round"/>
<path d="M390.904 290.644L385.979 288.405" stroke="black" stroke-linecap="round" stroke-linejoin="round"/>
<path d="M385.51 304.797L380.157 303.928M374.983 302.635L369.412 301.921" stroke="black" stroke-linecap="round" stroke-linejoin="round"/>
<path d="M394.387 262.531C396.15 263.018 397.603 263.598 399.802 264.172" stroke="black" stroke-linecap="round" stroke-linejoin="round"/>
<path d="M375.63 296.165C373.479 295.716 371.841 295.305 369.808 294.872M376.967 289.089L372.139 288.045" stroke="black" stroke-linecap="round" stroke-linejoin="round"/>
<path d="M374.733 276.044L369.162 274.821M367.312 278.702L374.093 280.123" stroke="black" stroke-linecap="round" stroke-linejoin="round"/>
<path d="M385.382 266.093L377.57 264.472M376.277 270.293L381.451 272.234" stroke="black" stroke-linecap="round" stroke-linejoin="round"/>
<path d="M382.238 258.004C384.767 258.636 385.403 258.975 389.859 260.247L382.238 258.004Z" stroke="black" stroke-linecap="round" stroke-linejoin="round"/>
<path fill-rule="evenodd" clip-rule="evenodd" d="M350.561 211.402C348.235 212.796 346.571 215.047 345.876 217.74L345.237 220.218L350.219 221.605L350.858 219.126C351.558 216.417 354.248 214.806 356.857 215.531C359.466 216.258 361.02 219.052 360.322 221.76C359.623 224.468 356.934 226.081 354.323 225.355L354.268 225.339L339.877 221.335C337.283 220.613 334.573 220.982 332.247 222.376C329.921 223.77 328.257 226.021 327.563 228.714C326.867 231.407 327.225 234.22 328.568 236.635C329.911 239.05 332.08 240.778 334.675 241.5C337.27 242.222 339.979 241.852 342.305 240.458C344.631 239.064 346.295 236.814 346.99 234.12L347.629 231.642L342.647 230.256L342.008 232.734C341.309 235.443 338.619 237.054 336.009 236.329C333.4 235.602 331.846 232.809 332.544 230.1C332.894 228.746 333.741 227.666 334.828 227.015C335.914 226.365 337.238 226.143 338.543 226.506L352.989 230.525C355.584 231.248 358.293 230.878 360.619 229.484C362.945 228.09 364.609 225.84 365.303 223.146C365.998 220.453 365.641 217.64 364.298 215.225C362.955 212.81 360.786 211.083 358.191 210.361C355.596 209.638 352.887 210.008 350.561 211.402Z" fill="url(#paint4_linear)"/>
<path d="M378.35 236H375.054V225.818H378.455C379.452 225.818 380.309 226.022 381.025 226.429C381.741 226.834 382.29 227.415 382.671 228.174C383.055 228.93 383.247 229.837 383.247 230.894C383.247 231.954 383.053 232.866 382.666 233.628C382.281 234.391 381.724 234.977 380.995 235.388C380.266 235.796 379.384 236 378.35 236ZM376.59 234.657H378.266C379.041 234.657 379.686 234.511 380.2 234.22C380.714 233.925 381.098 233.499 381.353 232.942C381.608 232.382 381.736 231.699 381.736 230.894C381.736 230.095 381.608 229.417 381.353 228.86C381.101 228.304 380.725 227.881 380.225 227.593C379.724 227.304 379.103 227.16 378.36 227.16H376.59V234.657Z" fill="black"/>
<path d="M388.32 236.154C387.567 236.154 386.919 235.993 386.376 235.672C385.835 235.347 385.418 234.891 385.123 234.304C384.831 233.714 384.685 233.023 384.685 232.231C384.685 231.449 384.831 230.76 385.123 230.163C385.418 229.566 385.829 229.101 386.356 228.766C386.886 228.431 387.506 228.264 388.215 228.264C388.646 228.264 389.064 228.335 389.468 228.478C389.872 228.62 390.235 228.844 390.557 229.149C390.878 229.454 391.132 229.85 391.317 230.337C391.503 230.821 391.596 231.409 391.596 232.102V232.629H385.526V231.515H390.139C390.139 231.124 390.06 230.778 389.901 230.476C389.741 230.171 389.518 229.931 389.229 229.755C388.944 229.58 388.61 229.492 388.225 229.492C387.808 229.492 387.443 229.595 387.131 229.8C386.823 230.002 386.585 230.267 386.415 230.596C386.25 230.92 386.167 231.273 386.167 231.654V232.525C386.167 233.035 386.256 233.469 386.435 233.827C386.618 234.185 386.871 234.458 387.196 234.647C387.521 234.833 387.9 234.926 388.335 234.926C388.616 234.926 388.873 234.886 389.105 234.806C389.337 234.724 389.538 234.601 389.707 234.439C389.876 234.276 390.005 234.076 390.094 233.837L391.501 234.091C391.389 234.505 391.187 234.868 390.895 235.179C390.607 235.488 390.244 235.728 389.806 235.9C389.372 236.069 388.876 236.154 388.32 236.154Z" fill="black"/>
<path d="M394.722 225.818V236H393.235V225.818H394.722Z" fill="black"/>
<path d="M396.712 236V228.363H398.198V236H396.712ZM397.462 227.185C397.204 227.185 396.982 227.099 396.796 226.926C396.614 226.751 396.523 226.542 396.523 226.3C396.523 226.055 396.614 225.846 396.796 225.674C396.982 225.498 397.204 225.41 397.462 225.41C397.721 225.41 397.941 225.498 398.123 225.674C398.309 225.846 398.402 226.055 398.402 226.3C398.402 226.542 398.309 226.751 398.123 226.926C397.941 227.099 397.721 227.185 397.462 227.185Z" fill="black"/>
<path d="M406.721 228.363L403.951 236H402.36L399.586 228.363H401.182L403.116 234.24H403.196L405.125 228.363H406.721Z" fill="black"/>
<path d="M411.125 236.154C410.373 236.154 409.725 235.993 409.181 235.672C408.641 235.347 408.224 234.891 407.929 234.304C407.637 233.714 407.491 233.023 407.491 232.231C407.491 231.449 407.637 230.76 407.929 230.163C408.224 229.566 408.635 229.101 409.162 228.766C409.692 228.431 410.312 228.264 411.021 228.264C411.452 228.264 411.869 228.335 412.274 228.478C412.678 228.62 413.041 228.844 413.363 229.149C413.684 229.454 413.938 229.85 414.123 230.337C414.309 230.821 414.402 231.409 414.402 232.102V232.629H408.331V231.515H412.945C412.945 231.124 412.865 230.778 412.706 230.476C412.547 230.171 412.323 229.931 412.035 229.755C411.75 229.58 411.415 229.492 411.031 229.492C410.613 229.492 410.249 229.595 409.937 229.8C409.629 230.002 409.39 230.267 409.221 230.596C409.055 230.92 408.973 231.273 408.973 231.654V232.525C408.973 233.035 409.062 233.469 409.241 233.827C409.423 234.185 409.677 234.458 410.002 234.647C410.327 234.833 410.706 234.926 411.14 234.926C411.422 234.926 411.679 234.886 411.911 234.806C412.143 234.724 412.343 234.601 412.512 234.439C412.681 234.276 412.811 234.076 412.9 233.837L414.307 234.091C414.194 234.505 413.992 234.868 413.701 235.179C413.412 235.488 413.049 235.728 412.612 235.9C412.178 236.069 411.682 236.154 411.125 236.154Z" fill="black"/>
<path d="M416.041 236V228.363H417.478V229.576H417.557C417.696 229.165 417.942 228.842 418.293 228.607C418.648 228.368 419.049 228.249 419.496 228.249C419.589 228.249 419.698 228.252 419.824 228.259C419.954 228.266 420.055 228.274 420.128 228.284V229.706C420.068 229.689 419.962 229.671 419.809 229.651C419.657 229.628 419.504 229.616 419.352 229.616C419.001 229.616 418.687 229.691 418.412 229.84C418.141 229.986 417.925 230.19 417.766 230.451C417.607 230.71 417.527 231.005 417.527 231.336V236H416.041Z" fill="black"/>
<path d="M422.576 238.843C422.354 238.843 422.152 238.825 421.969 238.789C421.787 238.756 421.651 238.719 421.562 238.679L421.92 237.461C422.327 237.574 422.669 237.582 422.944 237.486C423.222 237.393 423.456 237.1 423.645 236.606L423.829 236.099L421.035 228.363H422.626L424.56 234.289H424.639L426.573 228.363L428.179 228.378L425.022 237.019C424.876 237.413 424.691 237.746 424.465 238.018C424.24 238.29 423.971 238.495 423.66 238.635C423.348 238.774 422.987 238.843 422.576 238.843Z" fill="black"/>
<path d="M379.49 217.144H378.427C378.397 216.97 378.341 216.816 378.26 216.681C378.178 216.545 378.077 216.429 377.956 216.335C377.834 216.24 377.696 216.169 377.541 216.121C377.387 216.072 377.222 216.048 377.044 216.048C376.727 216.048 376.447 216.127 376.203 216.286C375.958 216.443 375.767 216.674 375.629 216.979C375.491 217.282 375.421 217.653 375.421 218.09C375.421 218.535 375.491 218.91 375.629 219.215C375.769 219.518 375.96 219.747 376.203 219.903C376.447 220.056 376.726 220.133 377.041 220.133C377.215 220.133 377.378 220.11 377.529 220.065C377.683 220.017 377.82 219.948 377.941 219.857C378.064 219.766 378.168 219.655 378.251 219.522C378.336 219.389 378.395 219.238 378.427 219.067L379.49 219.073C379.45 219.35 379.364 219.609 379.231 219.852C379.1 220.094 378.929 220.308 378.717 220.494C378.505 220.677 378.257 220.821 377.973 220.925C377.689 221.028 377.373 221.079 377.027 221.079C376.515 221.079 376.059 220.96 375.657 220.724C375.256 220.487 374.939 220.145 374.708 219.698C374.477 219.251 374.362 218.715 374.362 218.09C374.362 217.463 374.478 216.927 374.711 216.482C374.944 216.035 375.261 215.693 375.663 215.457C376.064 215.22 376.519 215.102 377.027 215.102C377.35 215.102 377.652 215.147 377.93 215.238C378.208 215.329 378.457 215.462 378.674 215.638C378.892 215.813 379.071 216.027 379.211 216.281C379.353 216.532 379.446 216.82 379.49 217.144Z" fill="black"/>
<path d="M385.67 218.09C385.67 218.717 385.552 219.254 385.317 219.701C385.084 220.146 384.766 220.487 384.363 220.724C383.961 220.96 383.506 221.079 382.996 221.079C382.487 221.079 382.031 220.96 381.627 220.724C381.226 220.485 380.907 220.143 380.673 219.698C380.44 219.251 380.323 218.715 380.323 218.09C380.323 217.463 380.44 216.927 380.673 216.482C380.907 216.035 381.226 215.693 381.627 215.457C382.031 215.22 382.487 215.102 382.996 215.102C383.506 215.102 383.961 215.22 384.363 215.457C384.766 215.693 385.084 216.035 385.317 216.482C385.552 216.927 385.67 217.463 385.67 218.09ZM384.61 218.09C384.61 217.649 384.541 217.277 384.403 216.974C384.266 216.669 384.077 216.439 383.834 216.283C383.592 216.126 383.313 216.048 382.996 216.048C382.68 216.048 382.401 216.126 382.158 216.283C381.916 216.439 381.726 216.669 381.587 216.974C381.451 217.277 381.383 217.649 381.383 218.09C381.383 218.531 381.451 218.905 381.587 219.21C381.726 219.513 381.916 219.743 382.158 219.9C382.401 220.055 382.68 220.133 382.996 220.133C383.313 220.133 383.592 220.055 383.834 219.9C384.077 219.743 384.266 219.513 384.403 219.21C384.541 218.905 384.61 218.531 384.61 218.09Z" fill="black"/>
<path d="M391.463 215.181V220.999H390.526L387.784 217.036H387.736V220.999H386.682V215.181H387.625L390.364 219.147H390.415V215.181H391.463Z" fill="black"/>
<path d="M392.372 216.065V215.181H397.014V216.065H395.216V220.999H394.17V216.065H392.372Z" fill="black"/>
<path d="M398.979 215.181V220.999H397.925V215.181H398.979Z" fill="black"/>
<path d="M404.918 215.181V220.999H403.98L401.239 217.036H401.19V220.999H400.136V215.181H401.08L403.818 219.147H403.869V215.181H404.918Z" fill="black"/>
<path d="M409.75 215.181H410.804V218.982C410.804 219.399 410.705 219.765 410.508 220.082C410.313 220.398 410.039 220.645 409.684 220.823C409.33 220.999 408.916 221.087 408.443 221.087C407.968 221.087 407.553 220.999 407.199 220.823C406.844 220.645 406.57 220.398 406.375 220.082C406.18 219.765 406.082 219.399 406.082 218.982V215.181H407.136V218.894C407.136 219.137 407.189 219.353 407.295 219.542C407.403 219.731 407.555 219.88 407.75 219.988C407.945 220.094 408.176 220.147 408.443 220.147C408.71 220.147 408.941 220.094 409.136 219.988C409.333 219.88 409.485 219.731 409.591 219.542C409.697 219.353 409.75 219.137 409.75 218.894V215.181Z" fill="black"/>
<path d="M417.164 218.09C417.164 218.717 417.047 219.254 416.812 219.701C416.579 220.146 416.261 220.487 415.857 220.724C415.456 220.96 415 221.079 414.491 221.079C413.981 221.079 413.525 220.96 413.122 220.724C412.72 220.485 412.402 220.143 412.167 219.698C411.934 219.251 411.818 218.715 411.818 218.09C411.818 217.463 411.934 216.927 412.167 216.482C412.402 216.035 412.72 215.693 413.122 215.457C413.525 215.22 413.981 215.102 414.491 215.102C415 215.102 415.456 215.22 415.857 215.457C416.261 215.693 416.579 216.035 416.812 216.482C417.047 216.927 417.164 217.463 417.164 218.09ZM416.104 218.09C416.104 217.649 416.035 217.277 415.897 216.974C415.761 216.669 415.571 216.439 415.329 216.283C415.087 216.126 414.807 216.048 414.491 216.048C414.175 216.048 413.895 216.126 413.653 216.283C413.41 216.439 413.22 216.669 413.082 216.974C412.945 217.277 412.877 217.649 412.877 218.09C412.877 218.531 412.945 218.905 413.082 219.21C413.22 219.513 413.41 219.743 413.653 219.9C413.895 220.055 414.175 220.133 414.491 220.133C414.807 220.133 415.087 220.055 415.329 219.9C415.571 219.743 415.761 219.513 415.897 219.21C416.035 218.905 416.104 218.531 416.104 218.09Z" fill="black"/>
<path d="M421.844 215.181H422.898V218.982C422.898 219.399 422.8 219.765 422.603 220.082C422.408 220.398 422.133 220.645 421.779 220.823C421.425 220.999 421.011 221.087 420.537 221.087C420.062 221.087 419.647 220.999 419.293 220.823C418.939 220.645 418.664 220.398 418.469 220.082C418.274 219.765 418.177 219.399 418.177 218.982V215.181H419.231V218.894C419.231 219.137 419.284 219.353 419.39 219.542C419.498 219.731 419.649 219.88 419.844 219.988C420.039 220.094 420.27 220.147 420.537 220.147C420.804 220.147 421.036 220.094 421.231 219.988C421.428 219.88 421.579 219.731 421.685 219.542C421.791 219.353 421.844 219.137 421.844 218.894V215.181Z" fill="black"/>
<path d="M427.222 216.781C427.195 216.532 427.083 216.339 426.887 216.201C426.691 216.063 426.438 215.994 426.125 215.994C425.905 215.994 425.717 216.027 425.56 216.093C425.403 216.159 425.282 216.249 425.199 216.363C425.116 216.477 425.073 216.606 425.071 216.752C425.071 216.873 425.099 216.978 425.154 217.067C425.21 217.156 425.287 217.232 425.384 217.295C425.48 217.355 425.587 217.406 425.705 217.448C425.822 217.49 425.94 217.525 426.06 217.553L426.605 217.69C426.825 217.741 427.036 217.81 427.239 217.897C427.443 217.984 427.626 218.094 427.787 218.227C427.95 218.359 428.079 218.519 428.173 218.707C428.268 218.894 428.315 219.114 428.315 219.366C428.315 219.707 428.228 220.007 428.054 220.266C427.88 220.524 427.628 220.726 427.298 220.871C426.971 221.015 426.574 221.087 426.108 221.087C425.655 221.087 425.262 221.017 424.929 220.877C424.598 220.737 424.338 220.532 424.151 220.263C423.965 219.995 423.865 219.667 423.85 219.281H424.887C424.902 219.483 424.964 219.652 425.074 219.786C425.184 219.921 425.327 220.021 425.503 220.087C425.681 220.154 425.88 220.187 426.1 220.187C426.329 220.187 426.529 220.153 426.702 220.085C426.876 220.014 427.012 219.918 427.111 219.795C427.209 219.67 427.26 219.524 427.262 219.357C427.26 219.206 427.215 219.081 427.128 218.982C427.041 218.882 426.919 218.799 426.762 218.732C426.606 218.664 426.424 218.603 426.216 218.55L425.554 218.38C425.075 218.257 424.696 218.07 424.418 217.82C424.141 217.568 424.003 217.234 424.003 216.817C424.003 216.475 424.096 216.174 424.281 215.917C424.469 215.659 424.724 215.46 425.046 215.317C425.368 215.174 425.732 215.102 426.139 215.102C426.552 215.102 426.914 215.174 427.225 215.317C427.537 215.46 427.782 215.657 427.96 215.911C428.138 216.163 428.23 216.453 428.236 216.781H427.222Z" fill="black"/>
</g>
<defs>
<filter id="filter0_dd" x="58.9988" y="55.3652" width="1106.1" height="437.136" filterUnits="userSpaceOnUse" color-interpolation-filters="sRGB">
<feFlood flood-opacity="0" result="BackgroundImageFix"/>
<feColorMatrix in="SourceAlpha" type="matrix" values="0 0 0 0 0 0 0 0 0 0 0 0 0 0 0 0 0 0 127 0"/>
<feOffset dx="-12"/>
<feGaussianBlur stdDeviation="5"/>
<feColorMatrix type="matrix" values="0 0 0 0 0 0 0 0 0 0 0 0 0 0 0 0 0 0 0.05 0"/>
<feBlend mode="normal" in2="BackgroundImageFix" result="effect1_dropShadow"/>
<feColorMatrix in="SourceAlpha" type="matrix" values="0 0 0 0 0 0 0 0 0 0 0 0 0 0 0 0 0 0 127 0"/>
<feOffset dx="4"/>
<feGaussianBlur stdDeviation="10"/>
<feColorMatrix type="matrix" values="0 0 0 0 0 0 0 0 0 0 0 0 0 0 0 0 0 0 0.2 0"/>
<feBlend mode="normal" in2="effect1_dropShadow" result="effect2_dropShadow"/>
<feBlend mode="normal" in="SourceGraphic" in2="effect2_dropShadow" result="shape"/>
</filter>
<filter id="filter1_d" x="-6.82251" y="49.4316" width="1147.14" height="432.989" filterUnits="userSpaceOnUse" color-interpolation-filters="sRGB">
<feFlood flood-opacity="0" result="BackgroundImageFix"/>
<feColorMatrix in="SourceAlpha" type="matrix" values="0 0 0 0 0 0 0 0 0 0 0 0 0 0 0 0 0 0 127 0"/>
<feOffset dy="6"/>
<feGaussianBlur stdDeviation="5"/>
<feColorMatrix type="matrix" values="0 0 0 0 0 0 0 0 0 0 0 0 0 0 0 0 0 0 0.4 0"/>
<feBlend mode="normal" in2="BackgroundImageFix" result="effect1_dropShadow"/>
<feBlend mode="normal" in="SourceGraphic" in2="effect1_dropShadow" result="shape"/>
</filter>
<linearGradient id="paint0_linear" x1="447.711" y1="63" x2="474.182" y2="103.738" gradientUnits="userSpaceOnUse">
<stop stop-color="#FFC100"/>
<stop offset="1" stop-color="#E66B35"/>
</linearGradient>
<linearGradient id="paint1_linear" x1="712.071" y1="79.3874" x2="731.752" y2="115.475" gradientUnits="userSpaceOnUse">
<stop stop-color="#9E74FF"/>
<stop offset="1" stop-color="#8A36FF"/>
</linearGradient>
<linearGradient id="paint2_linear" x1="592.188" y1="277.762" x2="608.204" y2="313.392" gradientUnits="userSpaceOnUse">
<stop stop-color="#00CFDE"/>
<stop offset="1" stop-color="#05A660"/>
</linearGradient>
<linearGradient id="paint3_linear" x1="132.741" y1="198.228" x2="156.635" y2="235.03" gradientUnits="userSpaceOnUse">
<stop stop-color="#73DFE7"/>
<stop offset="1" stop-color="#0095F7"/>
</linearGradient>
<linearGradient id="paint4_linear" x1="328.725" y1="224.487" x2="339.211" y2="241.986" gradientUnits="userSpaceOnUse">
<stop stop-color="#62F91F"/>
<stop offset="1" stop-color="#5EAA53"/>
</linearGradient>
<clipPath id="clip0">
<rect width="961" height="452" fill="white"/>
</clipPath>
</defs>
</svg>
