<svg width="24" height="24" viewBox="0 0 24 24" fill="none" xmlns="http://www.w3.org/2000/svg">
<g clip-path="url(#clip0)">
<path d="M23.5046 9.60911C22.9642 9.23412 21.7257 9.0935 20.7574 9.281C20.6448 8.34354 20.1269 7.52326 19.2262 6.79672L18.7082 6.42174L18.3479 6.96078C17.8976 7.66388 17.6724 8.64821 17.74 9.58567C17.7625 9.91378 17.8751 10.4997 18.2128 11.0153C17.8976 11.2028 17.2446 11.4372 16.3889 11.4372H0.10826L0.0632234 11.6247C-0.0944035 12.5621 -0.0944036 15.4917 1.75208 17.7416C3.14821 19.4525 5.21988 20.3196 7.94457 20.3196C13.8443 20.3196 18.2128 17.4838 20.262 12.3512C21.0726 12.3746 22.8065 12.3512 23.6847 10.5934C23.7073 10.5466 23.7523 10.4528 23.9099 10.1013L24 9.91378L23.5046 9.60911ZM13.1237 3H10.6467V5.34366H13.1237V3ZM13.1237 5.81239H10.6467V8.15604H13.1237V5.81239ZM10.1964 5.81239H7.71939V8.15604H10.1964V5.81239ZM7.26903 5.81239H4.79203V8.15604H7.26903V5.81239ZM4.34167 8.62477H1.86467V10.9684H4.34167V8.62477ZM7.26903 8.62477H4.79203V10.9684H7.26903V8.62477ZM10.1964 8.62477H7.71939V10.9684H10.1964V8.62477ZM13.1237 8.62477H10.6467V10.9684H13.1237V8.62477ZM16.0511 8.62477H13.5741V10.9684H16.0511V8.62477Z" fill="#2396ED"/>
</g>
<defs>
<clipPath id="clip0">
<rect width="24" height="17.3438" fill="white" transform="translate(0 3)"/>
</clipPath>
</defs>
</svg>
