<svg width="64" height="64" viewBox="0 0 64 64" fill="none" xmlns="http://www.w3.org/2000/svg">
<g opacity="0.9">
<path fill-rule="evenodd" clip-rule="evenodd" d="M28.1147 55.6555L28.8204 56.0607C29.5398 56.4642 30.3509 56.6697 31.173 56.6566C31.9792 56.6614 32.773 56.4562 33.4784 56.0607L34.1842 55.6555C45.394 49.2524 52.3333 37.2305 52.3457 24.1922V23.8585C52.3609 22.1401 51.4621 20.5464 49.9932 19.6872L46.19 17.5183L31.3111 40.3819C31.0476 40.6686 30.6741 40.8344 30.2807 40.8392C29.8754 40.838 29.5022 40.6774 29.2362 40.3957L22.3761 33.2306C22.0307 32.8692 21.8402 32.4945 22.054 31.8798C22.3761 30.9538 23.2099 30.5569 23.8005 30.5569C24.3743 30.5569 24.5004 30.6891 24.8239 31.028C24.8334 31.038 24.843 31.0481 24.8529 31.0584L29.8184 35.9854C30.0428 36.208 30.4148 36.1692 30.5884 35.9051L43.6341 16.0607L33.5255 10.2959C32.0697 9.44433 30.2762 9.44433 28.8204 10.2959L12.3527 19.6872C10.8838 20.5464 9.98501 22.1401 10.0002 23.8585V24.1922C10.003 37.2206 16.9231 49.2401 28.1147 55.6555Z" fill="url(#paint0_linear)"/>
</g>
<defs>
<linearGradient id="paint0_linear" x1="12.1699" y1="23.2135" x2="35.8193" y2="65.8287" gradientUnits="userSpaceOnUse">
<stop stop-color="#9E74FF"/>
<stop offset="1" stop-color="#8A36FF"/>
</linearGradient>
</defs>
</svg>
