<svg xmlns="http://www.w3.org/2000/svg" width="24" height="24" fill="none" viewBox="0 0 24 24">
  <g clip-path="url(#clip0)">
    <path fill="#fff" d="M23.505 9.61c-.54-.376-1.78-.516-2.748-.329-.112-.937-.63-1.758-1.53-2.484l-.519-.375-.36.539c-.45.703-.676 1.687-.608 2.625.023.328.135.914.473 1.43-.315.187-.968.421-1.824.421H.109l-.046.188c-.157.937-.157 3.867 1.69 6.117 1.395 1.71 3.467 2.578 6.192 2.578 5.9 0 10.268-2.836 12.317-7.969.81.024 2.544 0 3.423-1.758.022-.046.067-.14.225-.492l.09-.187-.495-.305zM13.124 3h-2.477v2.344h2.477V3zm0 2.812h-2.477v2.344h2.477V5.812zm-2.928 0H7.72v2.344h2.477V5.812zm-2.927 0H4.792v2.344h2.477V5.812zM4.342 8.625H1.865v2.343h2.477V8.625zm2.927 0H4.792v2.343h2.477V8.625zm2.927 0H7.72v2.343h2.477V8.625zm2.928 0h-2.477v2.343h2.477V8.625zm2.927 0h-2.477v2.343h2.477V8.625z"/>
  </g>
  <defs>
    <clipPath id="clip0">
      <path fill="#fff" d="M0 0h24v17.344H0z" transform="translate(0 3)"/>
    </clipPath>
  </defs>
</svg>
