<svg width="24" height="24" viewBox="0 0 24 24" fill="none" xmlns="http://www.w3.org/2000/svg">
<path d="M14.0316 13.1823C14.0022 13.1765 13.9723 13.1742 13.9424 13.1755C13.8908 13.1783 13.8402 13.1914 13.7938 13.2141C13.7036 13.2576 13.6338 13.3343 13.5987 13.428C13.5637 13.5218 13.5662 13.6254 13.6057 13.7174L13.603 13.7213L14.4925 15.8702C15.3435 15.3272 15.9893 14.516 16.3277 13.5649L14.0355 13.1775L14.0316 13.1823ZM10.4651 13.4869C10.4458 13.4022 10.3986 13.3264 10.3312 13.2716C10.2637 13.2169 10.1798 13.1864 10.0929 13.185C10.0673 13.1847 10.0417 13.187 10.0165 13.1918L10.0126 13.1871L7.74037 13.5728C8.08159 14.5164 8.72466 15.321 9.56984 15.8619L10.4504 13.7341L10.4435 13.7257C10.476 13.6505 10.4835 13.5668 10.4651 13.4869ZM12.3681 14.3213C12.3349 14.2594 12.2855 14.2077 12.2252 14.1717C12.165 14.1357 12.0961 14.1167 12.0259 14.1168C11.9556 14.1169 11.8868 14.1361 11.8266 14.1722C11.7664 14.2084 11.7172 14.2602 11.6842 14.3221H11.6823L10.5649 16.3427C11.3649 16.6151 12.2251 16.6593 13.0488 16.4705C13.2016 16.4357 13.3508 16.394 13.4965 16.3453L12.3765 14.3212L12.3681 14.3213ZM15.9054 9.6277L14.1862 11.1665L14.1871 11.1714C14.1343 11.2175 14.0949 11.2772 14.0733 11.3439C14.0516 11.4106 14.0484 11.482 14.064 11.5504C14.0796 11.6188 14.1135 11.6816 14.162 11.7324C14.2104 11.7831 14.2718 11.8197 14.3394 11.8384L14.3415 11.8477L16.5683 12.4891C16.6646 11.4887 16.4318 10.4841 15.9054 9.62791V9.6277ZM12.7113 9.80011C12.7146 9.87019 12.7367 9.93809 12.7754 9.9966C12.8141 10.0551 12.868 10.102 12.9312 10.1324C12.9945 10.1628 13.0648 10.1755 13.1346 10.1691C13.2045 10.1628 13.2713 10.1376 13.3281 10.0963L13.3348 10.0991L15.216 8.76532C14.5 8.06394 13.5733 7.61723 12.5785 7.49388L12.7092 9.79948L12.7113 9.80011ZM10.7191 10.1048C10.7759 10.146 10.8428 10.1711 10.9126 10.1774C10.9825 10.1837 11.0528 10.1709 11.116 10.1404C11.1792 10.1099 11.2329 10.0628 11.2714 10.0042C11.31 9.94558 11.3319 9.87761 11.3349 9.80751L11.3445 9.80303L11.4752 7.49377C11.3175 7.51273 11.1608 7.53975 11.0058 7.57471C10.1812 7.76007 9.42476 8.17224 8.82199 8.7647L10.7155 10.107L10.7191 10.1048ZM9.70971 11.8497C9.77748 11.8312 9.83897 11.7946 9.8876 11.7439C9.93623 11.6932 9.97019 11.6303 9.98585 11.5618C10.0015 11.4933 9.99827 11.4218 9.97649 11.3551C9.95471 11.2883 9.91521 11.2286 9.8622 11.1825L9.86407 11.1734L8.13537 9.62718C7.60798 10.4855 7.38162 11.4952 7.49203 12.4965L9.70793 11.8572L9.70971 11.8497ZM11.3888 12.5289L12.0265 12.8355L12.6623 12.5295L12.8202 11.8431L12.3802 11.2928H11.6719L11.2306 11.8422L11.3888 12.5289Z" fill="#326CE5"/>
<path d="M22.5688 13.8813L20.7517 5.98823C20.7028 5.78403 20.6092 5.59323 20.4777 5.42958C20.3461 5.26593 20.1799 5.13352 19.991 5.0419L12.6355 1.53003C12.4448 1.43906 12.2363 1.39185 12.0251 1.39185C11.8138 1.39185 11.6053 1.43906 11.4146 1.53003L4.06057 5.04377C3.87161 5.13534 3.70533 5.26771 3.57375 5.43135C3.44217 5.59498 3.34856 5.7858 3.29968 5.99001L1.48545 13.8829C1.4407 14.0824 1.44056 14.2893 1.48503 14.4889C1.49813 14.5497 1.51524 14.6095 1.53624 14.6681C1.57175 14.768 1.61876 14.8634 1.67632 14.9524C1.70125 14.9905 1.72753 15.0275 1.75611 15.0634L6.84649 21.3922C6.86871 21.4198 6.89322 21.4449 6.91752 21.4705C6.99739 21.5555 7.08758 21.6303 7.186 21.693C7.31046 21.7713 7.44611 21.8303 7.58829 21.8679C7.70488 21.8998 7.82515 21.9164 7.94605 21.9172H8.02521L16.1091 21.9153C16.1582 21.9151 16.2073 21.9122 16.2561 21.9067C16.3262 21.8987 16.3955 21.8856 16.4636 21.8672C16.5124 21.8544 16.5605 21.839 16.6076 21.8211C16.6445 21.8071 16.6812 21.793 16.7166 21.776C16.7697 21.7505 16.8213 21.7219 16.8709 21.6902C16.999 21.6097 17.113 21.5088 17.2085 21.3914L17.3637 21.1985L22.2971 15.0613C22.3917 14.9427 22.466 14.8093 22.517 14.6665C22.5383 14.6078 22.5557 14.5477 22.5692 14.4867C22.6137 14.2871 22.6137 14.0808 22.5688 13.8813ZM14.9394 16.9512C14.9601 17.0119 14.9846 17.0712 15.0128 17.1288C14.9677 17.2075 14.9555 17.3008 14.9786 17.3885C15.0857 17.6336 15.2164 17.8676 15.3689 18.0873C15.4543 18.1996 15.5331 18.3168 15.605 18.4382C15.6227 18.4711 15.6459 18.5219 15.6627 18.5567C15.6943 18.6096 15.7146 18.6686 15.7221 18.7299C15.7296 18.7911 15.7242 18.8533 15.7063 18.9123C15.6884 18.9714 15.6583 19.026 15.6179 19.0727C15.5776 19.1194 15.528 19.1572 15.4722 19.1836C15.4164 19.2099 15.3557 19.2244 15.294 19.2259C15.2323 19.2274 15.171 19.216 15.114 19.1924C15.0569 19.1687 15.0055 19.1335 14.9629 19.0888C14.9204 19.0441 14.8876 18.991 14.8668 18.9329C14.85 18.8985 14.8267 18.8526 14.8124 18.82C14.7621 18.6881 14.7194 18.5534 14.6846 18.4166C14.6083 18.1606 14.5071 17.9127 14.3826 17.6764C14.3284 17.6033 14.2477 17.5544 14.1579 17.54C14.1438 17.5157 14.0917 17.4201 14.0637 17.3708C12.7543 17.8666 11.3082 17.8629 10.0013 17.3603L9.90172 17.5408C9.83061 17.5518 9.76449 17.5841 9.71199 17.6333C9.56188 17.8796 9.44714 18.1458 9.37113 18.4241C9.33664 18.5609 9.29422 18.6957 9.24409 18.8276C9.23001 18.8599 9.20644 18.9052 9.18965 18.9395L9.18892 18.9412C9.16814 18.9994 9.1354 19.0526 9.09281 19.0973C9.05022 19.1421 8.99872 19.1774 8.94164 19.201C8.88456 19.2247 8.82316 19.236 8.76141 19.2345C8.69965 19.2329 8.63891 19.2184 8.5831 19.1919C8.52729 19.1654 8.47765 19.1275 8.43739 19.0807C8.39712 19.0338 8.36713 18.9791 8.34933 18.9199C8.33154 18.8608 8.32634 18.7985 8.33407 18.7372C8.34181 18.676 8.3623 18.617 8.39423 18.5641C8.41082 18.5291 8.43304 18.4786 8.45056 18.4457C8.52236 18.324 8.60114 18.2065 8.68649 18.0939C8.8418 17.8684 8.97522 17.6286 9.08493 17.3777C9.0966 17.2927 9.08296 17.2061 9.04571 17.1288L9.12581 16.9369C7.92102 16.2258 7.01807 15.0984 6.5873 13.7674L6.39549 13.8001C6.32107 13.7473 6.23333 13.7164 6.14224 13.7109C5.87978 13.7611 5.62282 13.8367 5.37499 13.9367C5.24631 13.9946 5.11443 14.0451 4.98 14.0879C4.94819 14.0967 4.90229 14.1055 4.866 14.1134C4.86307 14.1144 4.86057 14.1157 4.85765 14.1164C4.8554 14.1168 4.85314 14.117 4.85087 14.117C4.79244 14.1363 4.73065 14.1431 4.66943 14.137C4.60822 14.131 4.54895 14.1122 4.4954 14.082C4.44186 14.0517 4.39522 14.0106 4.35848 13.9613C4.32174 13.9119 4.2957 13.8555 4.28204 13.7955C4.26837 13.7355 4.26738 13.6734 4.27912 13.613C4.29086 13.5526 4.31508 13.4954 4.35023 13.4449C4.38538 13.3944 4.43067 13.3518 4.48323 13.3199C4.53578 13.2879 4.59442 13.2673 4.65541 13.2593L4.66177 13.2577L4.66563 13.2567C4.70245 13.248 4.74959 13.2358 4.78318 13.2293C4.92322 13.2099 5.06426 13.1985 5.2056 13.1953C5.47217 13.1779 5.7364 13.1345 5.99455 13.0658C6.07105 13.0171 6.1357 12.9518 6.18375 12.8749L6.36806 12.8211C6.16806 11.4319 6.48797 10.0178 7.26641 8.84998L7.12529 8.72419C7.12015 8.63289 7.0895 8.54487 7.03684 8.47011C6.8341 8.29584 6.61483 8.14178 6.38214 8.01014C6.25649 7.94606 6.13464 7.87481 6.01718 7.79673C5.99048 7.77681 5.95502 7.74688 5.92602 7.7233L5.91945 7.71872C5.81932 7.64679 5.75173 7.53817 5.73144 7.41656C5.71116 7.29496 5.73983 7.17028 5.81118 7.06975C5.85335 7.01813 5.90708 6.97719 5.96802 6.95022C6.02896 6.92326 6.0954 6.91103 6.16195 6.91454C6.27398 6.91935 6.38153 6.95993 6.46881 7.03032C6.49875 7.05379 6.53974 7.08518 6.56633 7.10802C6.66881 7.20494 6.76562 7.30768 6.8563 7.41572C7.0362 7.61337 7.23497 7.793 7.44978 7.95204C7.53027 7.99436 7.62414 8.00346 7.71126 7.97739C7.76369 8.01563 7.81661 8.05325 7.87001 8.09024C8.64355 7.268 9.6452 6.69575 10.7464 6.44696C11.0084 6.3876 11.2744 6.34672 11.5422 6.32461L11.5526 6.13853C11.621 6.07777 11.6706 5.99874 11.6955 5.91074C11.7051 5.64367 11.6887 5.37629 11.6465 5.1124C11.6185 4.97411 11.5984 4.83432 11.5864 4.69373C11.5853 4.66171 11.587 4.61749 11.5875 4.58098C11.5875 4.57681 11.5864 4.57264 11.5864 4.56868C11.5802 4.50714 11.5869 4.44497 11.6062 4.38619C11.6254 4.32741 11.6568 4.27332 11.6982 4.22742C11.7397 4.18151 11.7903 4.14481 11.8469 4.11968C11.9034 4.09455 11.9645 4.08156 12.0264 4.08153C12.0882 4.0815 12.1494 4.09444 12.206 4.11951C12.2625 4.14459 12.3132 4.18124 12.3547 4.22711C12.3962 4.27297 12.4276 4.32703 12.4469 4.38579C12.4662 4.44455 12.473 4.50671 12.4668 4.56826C12.4668 4.60685 12.4691 4.65796 12.4678 4.69342C12.4557 4.83399 12.4356 4.97375 12.4074 5.11199C12.3649 5.37592 12.3482 5.64336 12.3575 5.91053C12.3749 5.99984 12.4265 6.07882 12.5014 6.13061C12.5029 6.16242 12.5081 6.2686 12.512 6.32711C13.9036 6.45367 15.202 7.08102 16.1659 8.09264L16.3334 7.973C16.4234 7.98844 16.5159 7.9784 16.6004 7.94401C16.8152 7.78469 17.014 7.60486 17.1939 7.40706C17.2848 7.29896 17.3818 7.19622 17.4846 7.09937C17.5116 7.07621 17.5524 7.04513 17.5822 7.02156C17.6264 6.978 17.6793 6.94422 17.7373 6.92241C17.7954 6.9006 17.8574 6.89125 17.9193 6.89496C17.9813 6.89866 18.0417 6.91535 18.0968 6.94393C18.1518 6.97252 18.2002 7.01236 18.2389 7.06087C18.2776 7.10938 18.3056 7.16549 18.3212 7.22553C18.3367 7.28558 18.3395 7.34823 18.3293 7.40942C18.3191 7.47061 18.2961 7.52896 18.2619 7.5807C18.2277 7.63244 18.183 7.67641 18.1307 7.70975C18.1011 7.73363 18.0621 7.7669 18.0338 7.78797C17.9161 7.86611 17.7939 7.93736 17.668 8.00137C17.4353 8.13309 17.2161 8.28714 17.0133 8.46135C16.9542 8.53047 16.9246 8.61994 16.9307 8.71063C16.9062 8.73316 16.8201 8.80941 16.7745 8.85071C17.5552 10.0144 17.8815 11.4241 17.6916 12.8124L17.8693 12.8642C17.9137 12.9441 17.9794 13.0102 18.0591 13.055C18.3174 13.1239 18.5818 13.1674 18.8485 13.185C18.9897 13.1882 19.1306 13.1995 19.2705 13.2188C19.3075 13.2256 19.361 13.2404 19.3988 13.249C19.4598 13.2571 19.5184 13.2777 19.5709 13.3097C19.6235 13.3417 19.6688 13.3843 19.7039 13.4348C19.739 13.4853 19.7632 13.5426 19.7749 13.603C19.7866 13.6633 19.7856 13.7255 19.7719 13.7855C19.7582 13.8454 19.7322 13.9019 19.6954 13.9512C19.6586 14.0005 19.612 14.0416 19.5584 14.0718C19.5048 14.1021 19.4455 14.1208 19.3843 14.1268C19.3231 14.1328 19.2613 14.126 19.2029 14.1067L19.1965 14.1059C19.1936 14.1052 19.1909 14.1036 19.1879 14.1028C19.1516 14.0949 19.106 14.087 19.0742 14.0787C18.9398 14.0355 18.8079 13.9846 18.6794 13.9262C18.4313 13.8261 18.1741 13.7505 17.9114 13.7004C17.8205 13.6975 17.7321 13.7303 17.6651 13.7918C17.6025 13.7799 17.5398 13.769 17.4769 13.7589C17.0513 15.0982 16.1482 16.2344 14.9394 16.9512Z" fill="#326CE5"/>
<path d="M23.5283 14.0836L21.5458 5.47242C21.4925 5.2496 21.3904 5.04138 21.2469 4.86281C21.1033 4.68425 20.9219 4.53977 20.7158 4.43983L12.6913 0.608797C12.4833 0.509527 12.2557 0.458008 12.0252 0.458008C11.7948 0.458008 11.5672 0.509527 11.3592 0.608797L3.33543 4.44212C3.12927 4.54198 2.94784 4.68635 2.80425 4.86483C2.66066 5.04331 2.55848 5.25143 2.50507 5.47419L0.52604 14.0859C0.4814 14.2844 0.47681 14.4899 0.51254 14.6902C0.54827 14.8905 0.623601 15.0817 0.734123 15.2525C0.761346 15.2943 0.790238 15.3347 0.821529 15.3737L6.37522 22.2791C6.52078 22.4568 6.70372 22.6002 6.91103 22.6991C7.11833 22.798 7.3449 22.85 7.57459 22.8514L16.4807 22.8493C16.7103 22.848 16.9368 22.7961 17.1442 22.6973C17.3515 22.5985 17.5345 22.4553 17.6801 22.2777L23.2319 15.3718C23.374 15.1927 23.4744 14.9842 23.5257 14.7614C23.577 14.5386 23.5779 14.3071 23.5283 14.0839V14.0836ZM22.569 14.4869C22.5556 14.5478 22.5383 14.6079 22.5171 14.6666C22.466 14.8094 22.3916 14.9429 22.297 15.0615L17.3636 21.1984L17.2086 21.3916C17.113 21.509 16.9988 21.6099 16.8707 21.6904C16.8212 21.7221 16.7698 21.7507 16.7169 21.7761C16.6812 21.7926 16.6449 21.8076 16.6079 21.821C16.5607 21.839 16.5125 21.8545 16.4637 21.8674C16.3956 21.8858 16.3263 21.899 16.2562 21.9069C16.2074 21.9125 16.1583 21.9153 16.1091 21.9155L8.02528 21.9174H7.94601C7.82516 21.9166 7.70492 21.9001 7.58836 21.8681C7.44624 21.8305 7.31067 21.7714 7.18627 21.693C7.08779 21.6304 6.99753 21.5557 6.91759 21.4706C6.89329 21.445 6.86878 21.4198 6.84667 21.3924L1.75618 15.0634C1.72781 15.0277 1.70122 14.9906 1.67639 14.9523C1.61883 14.8632 1.57182 14.7678 1.53631 14.6679C1.5153 14.6094 1.49819 14.5495 1.4851 14.4886C1.44065 14.2891 1.44079 14.0822 1.48552 13.8827L3.29976 5.98966C3.34866 5.78548 3.44228 5.59471 3.57386 5.43112C3.70544 5.26752 3.8717 5.13517 4.06064 5.04363L11.4148 1.5302C11.6054 1.43923 11.814 1.39202 12.0252 1.39202C12.2365 1.39202 12.445 1.43923 12.6357 1.5302L19.991 5.04207C20.1799 5.13369 20.3461 5.2661 20.4777 5.42975C20.6092 5.5934 20.7028 5.78421 20.7516 5.9884L22.5688 13.8814C22.6135 14.0808 22.6136 14.2876 22.569 14.4871V14.4869Z" fill="white"/>
<path d="M19.3985 13.2492C19.361 13.2405 19.3074 13.2257 19.2705 13.2189C19.1306 13.1996 18.9897 13.1882 18.8485 13.1849C18.5818 13.1675 18.3173 13.1241 18.059 13.0554C17.9792 13.0105 17.9135 12.9443 17.8691 12.8643L17.6914 12.8126C17.8814 11.4243 17.5551 10.0145 16.7746 8.85085C16.8201 8.80954 16.9062 8.7333 16.9305 8.71087C16.9244 8.62018 16.9541 8.53072 17.0131 8.46159C17.2159 8.28738 17.4352 8.13333 17.6678 8.00162C17.7938 7.9376 17.9159 7.86635 18.0336 7.78821C18.062 7.76715 18.1008 7.73377 18.1305 7.70999C18.1828 7.67666 18.2275 7.6327 18.2617 7.58097C18.296 7.52925 18.3189 7.47091 18.3291 7.40973C18.3393 7.34856 18.3366 7.28592 18.321 7.22588C18.3055 7.16585 18.2775 7.10975 18.2388 7.06123C18.2002 7.01272 18.1518 6.97287 18.0968 6.94427C18.0417 6.91567 17.9813 6.89895 17.9194 6.89522C17.8575 6.89148 17.7955 6.9008 17.7374 6.92257C17.6793 6.94434 17.6265 6.97808 17.5823 7.02159C17.5523 7.04527 17.5114 7.07635 17.4847 7.09951C17.3818 7.19636 17.2847 7.29909 17.1938 7.4072C17.0138 7.605 16.8151 7.78483 16.6003 7.94415C16.5157 7.97854 16.4232 7.98858 16.3333 7.97314L16.1658 8.09278C15.2018 7.08116 13.9034 6.45381 12.5118 6.32725C12.5078 6.26874 12.5028 6.16276 12.5012 6.13074C12.4265 6.07892 12.3749 5.99994 12.3576 5.91067C12.3483 5.6435 12.365 5.37606 12.4074 5.11213C12.4355 4.97391 12.4555 4.83419 12.4674 4.69366C12.4688 4.6582 12.4667 4.60668 12.4667 4.5684C12.4729 4.50685 12.4661 4.44469 12.4468 4.38593C12.4274 4.32717 12.396 4.27311 12.3545 4.22725C12.313 4.18138 12.2624 4.14473 12.2058 4.11965C12.1493 4.09458 12.0881 4.08164 12.0262 4.08167C11.9644 4.08169 11.9032 4.09469 11.8467 4.11982C11.7902 4.14495 11.7396 4.18165 11.6981 4.22756C11.6566 4.27346 11.6253 4.32755 11.606 4.38633C11.5867 4.44511 11.58 4.50728 11.5863 4.56881C11.5863 4.57299 11.5872 4.57695 11.5873 4.58112C11.5869 4.61763 11.5851 4.66185 11.5863 4.69377C11.5983 4.83439 11.6183 4.97421 11.6463 5.11254C11.6885 5.37643 11.705 5.6438 11.6954 5.91087C11.6704 5.9988 11.6208 6.07776 11.5525 6.13846L11.542 6.32475C11.2742 6.34686 11.0083 6.38774 10.7462 6.44709C9.64517 6.69591 8.64364 7.26813 7.87017 8.09027C7.81663 8.05335 7.76357 8.01573 7.711 7.97742C7.62391 8.00347 7.53008 7.99437 7.44962 7.95207C7.23482 7.79307 7.03605 7.61347 6.85614 7.41585C6.76557 7.30782 6.66886 7.20509 6.56649 7.10816C6.53969 7.08522 6.49869 7.05392 6.46866 7.02993C6.38137 6.95954 6.27383 6.91897 6.1618 6.91416C6.09523 6.91068 6.02878 6.92293 5.96783 6.94993C5.90689 6.97693 5.85317 7.01792 5.81103 7.06957C5.73967 7.1701 5.711 7.29479 5.73129 7.41639C5.75158 7.53799 5.81917 7.64662 5.91929 7.71854L5.92607 7.72334C5.95486 7.74691 5.99032 7.77705 6.01703 7.79656C6.13448 7.8747 6.25633 7.94603 6.38198 8.01017C6.61464 8.14189 6.83388 8.29601 7.03658 8.47035C7.08923 8.54504 7.11991 8.63299 7.12514 8.72422L7.26605 8.85022C6.48768 10.0181 6.16785 11.4322 6.3679 12.8213L6.1836 12.8749C6.1355 12.9518 6.07086 13.0169 5.99439 13.0655C5.73623 13.1344 5.47196 13.178 5.20534 13.1956C5.06403 13.1988 4.92303 13.2101 4.78302 13.2296C4.74923 13.2358 4.70229 13.2477 4.66547 13.2569L4.66162 13.2577L4.65536 13.2596C4.59438 13.2676 4.53576 13.2883 4.48322 13.3203C4.43069 13.3522 4.38541 13.3948 4.35029 13.4453C4.31516 13.4958 4.29096 13.553 4.27923 13.6134C4.2675 13.6738 4.2685 13.7359 4.28217 13.7959C4.29584 13.8558 4.32188 13.9123 4.35862 13.9616C4.39535 14.0109 4.44198 14.052 4.49552 14.0823C4.54905 14.1126 4.60832 14.1313 4.66952 14.1374C4.73072 14.1434 4.7925 14.1366 4.85092 14.1174L4.8575 14.1163C4.86042 14.1157 4.86292 14.1143 4.86584 14.1137C4.90214 14.1054 4.94782 14.0967 4.97974 14.0881C5.11414 14.0452 5.24598 13.9947 5.37463 13.9367C5.62252 13.8368 5.87955 13.7611 6.14208 13.7109C6.23312 13.7165 6.32078 13.7475 6.39512 13.8003L6.58704 13.7675C7.01786 15.0985 7.92089 16.2259 9.12576 16.9369L9.04555 17.1288C9.08284 17.2061 9.09652 17.2927 9.08487 17.3778C8.97515 17.6286 8.84173 17.8683 8.68644 18.0937C8.60105 18.2063 8.52224 18.3237 8.4504 18.4454C8.43288 18.4786 8.41066 18.5294 8.39387 18.5641C8.3621 18.617 8.34175 18.676 8.33413 18.7372C8.32651 18.7984 8.33179 18.8605 8.34963 18.9196C8.36748 18.9787 8.39748 19.0333 8.43772 19.0801C8.47797 19.1269 8.52755 19.1647 8.58329 19.1911C8.63903 19.2176 8.69969 19.2321 8.76136 19.2337C8.82304 19.2352 8.88436 19.2239 8.94139 19.2004C8.99842 19.1768 9.0499 19.1416 9.0925 19.097C9.1351 19.0524 9.16789 18.9993 9.18876 18.9413L9.18949 18.9404V18.9394C9.20618 18.905 9.22986 18.8598 9.24394 18.8276C9.29407 18.6957 9.33648 18.561 9.37098 18.4241C9.44699 18.1459 9.56173 17.8797 9.71184 17.6333C9.76432 17.5841 9.83044 17.5518 9.90156 17.5407L10.0014 17.3603C11.3082 17.8628 12.7542 17.8664 14.0635 17.3706C14.0915 17.4204 14.1436 17.5158 14.1574 17.5399C14.2473 17.5542 14.328 17.6033 14.3822 17.6765C14.5068 17.9128 14.6081 18.1607 14.6845 18.4166C14.7193 18.5535 14.7619 18.6882 14.8122 18.8201C14.8265 18.8526 14.8498 18.8983 14.8667 18.9329C14.8875 18.991 14.9202 19.0441 14.9628 19.0888C15.0053 19.1335 15.0568 19.1688 15.1138 19.1924C15.1708 19.216 15.2322 19.2274 15.2938 19.2259C15.3555 19.2244 15.4162 19.21 15.472 19.1836C15.5278 19.1572 15.5775 19.1195 15.6178 19.0728C15.6581 19.026 15.6882 18.9714 15.7061 18.9124C15.7241 18.8533 15.7295 18.7912 15.722 18.7299C15.7144 18.6687 15.6942 18.6097 15.6625 18.5567C15.6457 18.522 15.6226 18.4712 15.6051 18.4382C15.5333 18.3168 15.4545 18.1997 15.3691 18.0874C15.2166 17.8677 15.0858 17.6336 14.9788 17.3885C14.9556 17.3009 14.9677 17.2076 15.0126 17.1288C14.9844 17.0712 14.9599 17.0119 14.9393 16.9512C16.148 16.2344 17.0511 15.0983 17.4767 13.759C17.5337 13.7681 17.6329 13.7854 17.6651 13.792C17.7321 13.7305 17.8204 13.6977 17.9113 13.7005C18.1739 13.7507 18.431 13.8263 18.6789 13.9263C18.8076 13.9847 18.9395 14.0356 19.074 14.0788C19.1058 14.0871 19.1512 14.0951 19.1877 14.1031C19.1907 14.1039 19.1935 14.1052 19.1964 14.106L19.2026 14.107C19.261 14.1261 19.3228 14.1329 19.384 14.1268C19.4451 14.1208 19.5044 14.102 19.5579 14.0718C19.6114 14.0415 19.658 14.0004 19.6947 13.9511C19.7314 13.9019 19.7575 13.8455 19.7711 13.7855C19.7848 13.7256 19.7859 13.6635 19.7742 13.6031C19.7625 13.5428 19.7383 13.4856 19.7033 13.4351C19.6682 13.3846 19.623 13.342 19.5705 13.31C19.518 13.278 19.4594 13.2573 19.3985 13.2492ZM15.216 8.76553L13.3347 10.0992L13.3281 10.0961C13.2714 10.1375 13.2046 10.1627 13.1347 10.1691C13.0648 10.1755 12.9945 10.1628 12.9313 10.1325C12.868 10.1021 12.8141 10.0552 12.7754 9.99664C12.7367 9.93812 12.7146 9.8702 12.7114 9.8001L12.7093 9.79906L12.5786 7.49366C13.5733 7.61717 14.5 8.06404 15.216 8.76553ZM11.672 11.2926H12.38L12.8202 11.8429L12.6623 12.5292L12.0265 12.8352L11.3888 12.5286L11.2307 11.8419L11.672 11.2926ZM11.0059 7.57439C11.161 7.53949 11.3178 7.51255 11.4756 7.49366L11.3447 9.80261L11.3351 9.8072C11.3321 9.87731 11.3102 9.9453 11.2717 10.0039C11.2331 10.0626 11.1794 10.1097 11.1162 10.1402C11.053 10.1707 10.9827 10.1835 10.9128 10.1773C10.8429 10.171 10.7761 10.1459 10.7193 10.1047L10.7156 10.1068L8.82214 8.76417C9.42494 8.17179 10.1813 7.75969 11.0059 7.57439ZM8.13551 9.62707L9.86422 11.1732L9.86235 11.1826C9.91533 11.2287 9.95481 11.2884 9.97657 11.3551C9.99833 11.4219 10.0016 11.4933 9.9859 11.5618C9.97025 11.6303 9.9363 11.6932 9.88769 11.7439C9.83907 11.7946 9.77761 11.8311 9.70986 11.8496L9.70808 11.8572L7.49218 12.4965C7.38177 11.4952 7.60813 10.4854 8.13551 9.62707ZM10.4501 13.7345L9.56967 15.862C8.72462 15.321 8.0817 14.5163 7.74062 13.5727L10.0126 13.1868L10.0165 13.1919C10.0416 13.1871 10.0671 13.1848 10.0926 13.1851C10.1564 13.1861 10.2189 13.2027 10.2746 13.2335C10.3304 13.2644 10.3777 13.3085 10.4124 13.3619C10.4471 13.4154 10.4681 13.4765 10.4735 13.54C10.4789 13.6035 10.4686 13.6674 10.4435 13.7259L10.4501 13.7345ZM13.0489 16.4704C12.2251 16.6593 11.365 16.6151 10.5649 16.3428L11.6823 14.3222H11.6842C11.7174 14.2605 11.7667 14.2089 11.8269 14.1729C11.8871 14.1369 11.9559 14.1179 12.026 14.1178C12.0961 14.1178 12.1649 14.1367 12.2251 14.1726C12.2854 14.2084 12.3348 14.2599 12.3681 14.3216H12.3765L13.4967 16.3455C13.3513 16.394 13.202 16.4355 13.0489 16.4704ZM14.4925 15.8705L13.603 13.7214L13.6058 13.7175C13.5663 13.6256 13.5638 13.522 13.5989 13.4282C13.6339 13.3345 13.7037 13.258 13.7938 13.2144C13.8403 13.1917 13.8908 13.1786 13.9424 13.1759C13.9723 13.1745 14.0023 13.1767 14.0316 13.1824L14.0355 13.1776L16.3277 13.565C15.9894 14.5162 15.3436 15.3274 14.4925 15.8705ZM16.5685 12.489L14.3414 11.8476L14.3393 11.8382C14.2717 11.8195 14.2104 11.7829 14.1619 11.7321C14.1134 11.6814 14.0796 11.6185 14.064 11.5501C14.0484 11.4818 14.0516 11.4104 14.0732 11.3437C14.0949 11.2769 14.1342 11.2173 14.187 11.1712L14.1862 11.1667L15.9053 9.62811C16.4317 10.4842 16.6646 11.4886 16.5685 12.489Z" fill="white"/>
</svg>
