<svg xmlns="http://www.w3.org/2000/svg" width="24" height="24" fill="none" viewBox="0 0 24 24">
  <path fill="#fff" fill-rule="evenodd" d="M20.752 5.988l1.817 7.893a1.386 1.386 0 01-.052.785 1.375 1.375 0 01-.22.395l-4.933 6.137-.155.193a1.385 1.385 0 01-.601.43 1.419 1.419 0 01-.499.094l-8.084.002h-.079a1.453 1.453 0 01-.76-.224 1.403 1.403 0 01-.277-.232c-.021-.022-.043-.044-.063-.069l-5.09-6.329a1.366 1.366 0 01-.271-.575 1.389 1.389 0 010-.605L3.3 5.99a1.418 1.418 0 01.76-.946l7.355-3.514a1.418 1.418 0 011.22 0l7.356 3.512a1.42 1.42 0 01.76.946zm-5.74 11.14a1.518 1.518 0 01-.073-.177 5.728 5.728 0 002.538-3.192c.063.01.125.02.188.033a.348.348 0 01.246-.092c.263.05.52.126.768.226.129.059.26.11.395.153l.073.015.04.009c.004 0 .007.002.01.003h.006a.441.441 0 10.196-.857 1.428 1.428 0 00-.128-.03c-.14-.02-.281-.03-.422-.034a4.114 4.114 0 01-.79-.13.494.494 0 01-.19-.19l-.177-.053a5.72 5.72 0 00-.918-3.961l.085-.076.072-.064a.348.348 0 01.082-.25c.203-.174.422-.328.655-.46.126-.064.248-.135.366-.213a1.84 1.84 0 00.097-.078.442.442 0 10-.549-.688 2.288 2.288 0 00-.098.078c-.102.096-.2.199-.29.307a4.12 4.12 0 01-.594.537.489.489 0 01-.267.029l-.167.12a5.769 5.769 0 00-3.654-1.766 15.38 15.38 0 01-.01-.196.349.349 0 01-.145-.22c-.009-.268.008-.535.05-.799.029-.138.049-.278.06-.419.002-.022.001-.05 0-.077v-.048a.443.443 0 10-.88 0v.126c.011.14.031.28.06.418.042.264.058.532.048.799a.48.48 0 01-.142.228l-.01.186A5.662 5.662 0 007.87 8.09a8 8 0 01-.16-.114.348.348 0 01-.261-.025 4.107 4.107 0 01-.594-.536 3.678 3.678 0 00-.29-.308 7.68 7.68 0 01-.098-.078.525.525 0 00-.306-.115.424.424 0 00-.35.155.467.467 0 00.107.649l.007.004.025.02c.023.02.047.04.066.054.118.078.24.15.365.213.233.132.452.286.655.46a.489.489 0 01.088.254l.141.126a5.696 5.696 0 00-.898 3.971l-.184.054a.609.609 0 01-.19.19 4.108 4.108 0 01-.788.13 3.687 3.687 0 00-.423.034 1.986 1.986 0 00-.117.028h-.004l-.007.002a.441.441 0 10.2.858h.003a.034.034 0 00.005-.003h.003l.033-.008c.028-.005.058-.012.081-.018.134-.043.266-.093.395-.151.248-.1.505-.176.767-.226a.489.489 0 01.253.09l.192-.034a5.729 5.729 0 002.539 3.17l-.08.192c.037.077.05.164.039.249a4.3 4.3 0 01-.399.716c-.085.112-.164.23-.235.352-.013.022-.027.053-.04.082a2.87 2.87 0 01-.017.036.443.443 0 10.795.377v-.002l.017-.033.038-.078c.05-.132.093-.267.127-.404.076-.278.19-.544.341-.79a.357.357 0 01.19-.093l.1-.18a5.697 5.697 0 004.062.01l.053.096.04.073c.09.014.171.063.226.136.124.237.225.485.302.74.034.137.077.272.127.404.01.024.026.055.04.084l.015.029a.443.443 0 10.796-.376 8.583 8.583 0 01-.058-.119 3.665 3.665 0 00-.236-.35 4.115 4.115 0 01-.39-.7.345.345 0 01.034-.26zm-1.07-3.953c.03 0 .06.002.09.007l.004-.005 2.292.388a4.54 4.54 0 01-1.835 2.305l-.89-2.149.003-.004a.389.389 0 01.336-.542zm-3.61.097a.389.389 0 01.111.454l.007.008-.88 2.128a4.558 4.558 0 01-1.83-2.29l2.273-.385.004.005a.384.384 0 01.314.08zm1.893.9c.06.036.11.087.143.15h.008l1.12 2.023a4.552 4.552 0 01-2.932-.003l1.118-2.02h.002a.388.388 0 01.541-.15zm1.961-3.006l1.72-1.538c.526.856.759 1.86.662 2.861l-2.227-.641-.002-.01a.388.388 0 01-.152-.667v-.005zm-1.41-1.17a.39.39 0 01-.065-.196h-.002l-.13-2.306c.994.123 1.921.57 2.637 1.271L13.335 10.1l-.007-.003a.388.388 0 01-.553-.1zm-1.863.181a.39.39 0 01-.194-.072l-.003.002-1.894-1.342a4.534 4.534 0 012.653-1.271l-.13 2.309-.01.005a.388.388 0 01-.422.37zm-1.025 1.567a.388.388 0 01-.178.106l-.002.007-2.216.64a4.532 4.532 0 01.643-2.87l1.73 1.546-.003.01a.388.388 0 01.026.56zm2.139 1.091l-.638-.306-.158-.687.44-.55h.71l.44.551-.159.687-.636.306z" clip-rule="evenodd"/>
  <path fill="#fff" d="M23.528 14.084l-1.982-8.612a1.548 1.548 0 00-.83-1.032L12.69.609a1.547 1.547 0 00-1.332 0L3.335 4.442a1.548 1.548 0 00-.83 1.032L.526 14.086a1.53 1.53 0 00.296 1.288l5.553 6.905a1.562 1.562 0 001.2.572l8.906-.002a1.563 1.563 0 001.2-.571l5.55-6.906a1.537 1.537 0 00.297-1.288zm-.959.403a1.44 1.44 0 01-.272.575l-4.933 6.136-.155.194a1.388 1.388 0 01-.601.429 1.432 1.432 0 01-.499.095l-8.084.001h-.079a1.45 1.45 0 01-.76-.224 1.396 1.396 0 01-.268-.222c-.025-.026-.05-.051-.071-.079l-5.09-6.329a1.42 1.42 0 01-.22-.395 1.389 1.389 0 01-.05-.785L3.299 5.99a1.418 1.418 0 01.76-.946l7.355-3.514a1.417 1.417 0 011.22 0l7.356 3.512a1.42 1.42 0 01.76.946l1.818 7.893c.044.2.045.407 0 .606z"/>
</svg>
