<svg xmlns="http://www.w3.org/2000/svg" width="24" height="24" fill="none" viewBox="0 0 24 24">
  <g clip-path="url(#clip0)">
    <path fill="#9293AB" d="M2.002 18.988l1.264.632.207-.368V4.593l-.207-.27-1.264.632v14.033z"/>
    <path fill="#F3F3FA" d="M5.694 4.922l-2.428-.599V19.62l2.428-.566V4.923z"/>
    <path fill="#B0B1C4" d="M13.143 6.085l1.729-.897 5.753 2.228-1.53.2-5.952-1.53z"/>
    <path fill="#D9DAE6" d="M13.209 17.857l1.696.898 5.753-2.228-1.53-.2-5.92 1.53z"/>
    <path fill="#9293AB" d="M13.641 15.396l3.026.4.174-.312V8.516l-.174-.369-3.026.4v6.85zM4.762 3.559l1.863-.93.203.391v17.884l-.203.413-1.863-.931V3.558z"/>
    <path fill="#F3F3FA" d="M10.415 20.052l-3.79 1.23V2.627l3.79 1.23v16.195z"/>
    <path fill="#9293AB" d="M8.952 22.446l2.96 1.497.31-.356V.44L11.912 0l-2.96 1.496v20.95zm10.076-14.83l1.53-.2.131.19v8.73l-.131.225-1.53-.2V7.615z"/>
    <path fill="#FAFBFC" d="M16.667 8.147v7.682l3.16-3.858-3.16-3.824z"/>
    <path fill="#FAFBFC" d="M20.558 4.323L11.912 0v23.943l9.91-4.955V4.955l-1.264-.632zm0 12.25l-5.686 1.697V5.673l5.686 1.698v9.201z"/>
  </g>
  <defs>
    <clipPath id="clip0">
      <path fill="#fff" d="M0 0h19.824v24H0z" transform="translate(2)"/>
    </clipPath>
  </defs>
</svg>
