<svg width="953" height="317" viewBox="0 0 953 317" fill="none" xmlns="http://www.w3.org/2000/svg">
<path d="M78.054 19H84.4773V17.9062H79.7443V17.8267L82.0312 15.3807C83.7812 13.5064 84.2983 12.6314 84.2983 11.5028C84.2983 9.93182 83.0256 8.67898 81.2358 8.67898C79.451 8.67898 78.0938 9.89205 78.0938 11.6818H79.267C79.267 10.5234 80.0178 9.75284 81.196 9.75284C82.2997 9.75284 83.1449 10.429 83.1449 11.5028C83.1449 12.4425 82.593 13.1385 81.4148 14.4261L78.054 18.1051V19ZM89.8516 19.1392C92.0987 19.1392 93.3913 17.2351 93.3913 13.9091C93.3913 10.608 92.0788 8.67898 89.8516 8.67898C87.6243 8.67898 86.3118 10.608 86.3118 13.9091C86.3118 17.2351 87.6044 19.1392 89.8516 19.1392ZM89.8516 18.0455C88.37 18.0455 87.505 16.5589 87.505 13.9091C87.505 11.2642 88.38 9.75284 89.8516 9.75284C91.3232 9.75284 92.1982 11.2642 92.1982 13.9091C92.1982 16.5589 91.3331 18.0455 89.8516 18.0455ZM98.6016 19.1392C100.849 19.1392 102.141 17.2351 102.141 13.9091C102.141 10.608 100.829 8.67898 98.6016 8.67898C96.3743 8.67898 95.0618 10.608 95.0618 13.9091C95.0618 17.2351 96.3544 19.1392 98.6016 19.1392ZM98.6016 18.0455C97.12 18.0455 96.255 16.5589 96.255 13.9091C96.255 11.2642 97.13 9.75284 98.6016 9.75284C100.073 9.75284 100.948 11.2642 100.948 13.9091C100.948 16.5589 100.083 18.0455 98.6016 18.0455ZM105.999 14.5455H106.954L106.874 12.358L108.724 13.5312L109.201 12.696L107.252 11.6818L109.201 10.6676L108.724 9.83239L106.874 11.0057L106.954 8.81818H105.999L106.079 11.0057L104.229 9.83239L103.752 10.6676L105.701 11.6818L103.752 12.696L104.229 13.5312L106.079 12.358L105.999 14.5455ZM111.031 19H117.454V17.9062H112.721V17.8267L115.008 15.3807C116.758 13.5064 117.275 12.6314 117.275 11.5028C117.275 9.93182 116.002 8.67898 114.212 8.67898C112.428 8.67898 111.07 9.89205 111.07 11.6818H112.244C112.244 10.5234 112.994 9.75284 114.173 9.75284C115.276 9.75284 116.121 10.429 116.121 11.5028C116.121 12.4425 115.57 13.1385 114.391 14.4261L111.031 18.1051V19ZM122.828 19.1392C125.075 19.1392 126.368 17.2351 126.368 13.9091C126.368 10.608 125.055 8.67898 122.828 8.67898C120.601 8.67898 119.288 10.608 119.288 13.9091C119.288 17.2351 120.581 19.1392 122.828 19.1392ZM122.828 18.0455C121.347 18.0455 120.482 16.5589 120.482 13.9091C120.482 11.2642 121.357 9.75284 122.828 9.75284C124.3 9.75284 125.175 11.2642 125.175 13.9091C125.175 16.5589 124.31 18.0455 122.828 18.0455ZM131.578 19.1392C133.825 19.1392 135.118 17.2351 135.118 13.9091C135.118 10.608 133.805 8.67898 131.578 8.67898C129.351 8.67898 128.038 10.608 128.038 13.9091C128.038 17.2351 129.331 19.1392 131.578 19.1392ZM131.578 18.0455C130.097 18.0455 129.232 16.5589 129.232 13.9091C129.232 11.2642 130.107 9.75284 131.578 9.75284C133.05 9.75284 133.925 11.2642 133.925 13.9091C133.925 16.5589 133.06 18.0455 131.578 18.0455Z" fill="#22222A"/>
<path d="M1 26C1 32.4 1 40.5 1 30.5H68H200.5V34V26" stroke="#9293AB"/>
<path d="M76.1363 56.5455H76.9885C76.9495 55.4482 75.9374 54.6278 74.5312 54.6278C73.1391 54.6278 72.0454 55.4375 72.0454 56.6591C72.0454 57.6392 72.7556 58.2216 73.892 58.5483L74.7868 58.804C75.5539 59.017 76.2357 59.2869 76.2357 60.0114C76.2357 60.8068 75.4687 61.3324 74.4601 61.3324C73.5937 61.3324 72.8266 60.9489 72.7556 60.125H71.8465C71.9317 61.3182 72.8976 62.1278 74.4601 62.1278C76.1363 62.1278 77.088 61.2045 77.088 60.0256C77.088 58.6619 75.7954 58.2216 75.0425 58.0227L74.3039 57.8239C73.7641 57.6818 72.8976 57.3977 72.8976 56.6165C72.8976 55.9205 73.5368 55.4091 74.5028 55.4091C75.3834 55.4091 76.051 55.8281 76.1363 56.5455ZM78.8343 62L79.5658 59.9403H82.5061L83.2377 62H84.161L81.4905 54.7273H80.5814L77.911 62H78.8343ZM79.8428 59.1591L81.0075 55.8778H81.0644L82.2291 59.1591H79.8428ZM85.2938 62H86.1744V58.7472H89.3279V57.9659H86.1744V55.5085H89.6546V54.7273H85.2938V62ZM91.1629 62H95.6089V61.2188H92.0436V58.7472H95.3248V57.9659H92.0436V55.5085H95.5521V54.7273H91.1629V62ZM103.929 56.5455H104.782C104.742 55.4482 103.73 54.6278 102.324 54.6278C100.932 54.6278 99.8383 55.4375 99.8383 56.6591C99.8383 57.6392 100.549 58.2216 101.685 58.5483L102.58 58.804C103.347 59.017 104.029 59.2869 104.029 60.0114C104.029 60.8068 103.262 61.3324 102.253 61.3324C101.387 61.3324 100.62 60.9489 100.549 60.125H99.6395C99.7247 61.3182 100.691 62.1278 102.253 62.1278C103.929 62.1278 104.881 61.2045 104.881 60.0256C104.881 58.6619 103.588 58.2216 102.835 58.0227L102.097 57.8239C101.557 57.6818 100.691 57.3977 100.691 56.6165C100.691 55.9205 101.33 55.4091 102.296 55.4091C103.176 55.4091 103.844 55.8281 103.929 56.5455ZM106.329 62H107.21V59.3438H108.801C110.494 59.3438 111.258 58.3139 111.258 57.0284C111.258 55.7429 110.494 54.7273 108.786 54.7273H106.329V62ZM107.21 58.5625V55.5085H108.758C109.94 55.5085 110.391 56.1548 110.391 57.0284C110.391 57.902 109.94 58.5625 108.772 58.5625H107.21ZM112.233 62L112.964 59.9403H115.905L116.636 62H117.559L114.889 54.7273H113.98L111.309 62H112.233ZM113.241 59.1591L114.406 55.8778H114.463L115.628 59.1591H113.241ZM124.203 57C123.933 55.5085 122.74 54.6278 121.277 54.6278C119.416 54.6278 118.066 56.0625 118.066 58.3636C118.066 60.6648 119.416 62.0994 121.277 62.0994C122.74 62.0994 123.933 61.2188 124.203 59.7273H123.322C123.109 60.7358 122.242 61.2756 121.277 61.2756C119.956 61.2756 118.919 60.2528 118.919 58.3636C118.919 56.4744 119.956 55.4517 121.277 55.4517C122.242 55.4517 123.109 55.9915 123.322 57H124.203ZM125.626 62H130.072V61.2188H126.506V58.7472H129.788V57.9659H126.506V55.5085H130.015V54.7273H125.626V62Z" fill="#9293AB"/>
<path d="M76.1363 159.545H76.9885C76.9495 158.448 75.9374 157.628 74.5312 157.628C73.1391 157.628 72.0454 158.438 72.0454 159.659C72.0454 160.639 72.7556 161.222 73.892 161.548L74.7868 161.804C75.5539 162.017 76.2357 162.287 76.2357 163.011C76.2357 163.807 75.4687 164.332 74.4601 164.332C73.5937 164.332 72.8266 163.949 72.7556 163.125H71.8465C71.9317 164.318 72.8976 165.128 74.4601 165.128C76.1363 165.128 77.088 164.205 77.088 163.026C77.088 161.662 75.7954 161.222 75.0425 161.023L74.3039 160.824C73.7641 160.682 72.8976 160.398 72.8976 159.616C72.8976 158.92 73.5368 158.409 74.5028 158.409C75.3834 158.409 76.051 158.828 76.1363 159.545ZM78.8343 165L79.5658 162.94H82.5061L83.2377 165H84.161L81.4905 157.727H80.5814L77.911 165H78.8343ZM79.8428 162.159L81.0075 158.878H81.0644L82.2291 162.159H79.8428ZM85.2938 165H86.1744V161.747H89.3279V160.966H86.1744V158.509H89.6546V157.727H85.2938V165ZM91.1629 165H95.6089V164.219H92.0436V161.747H95.3248V160.966H92.0436V158.509H95.5521V157.727H91.1629V165ZM103.929 159.545H104.782C104.742 158.448 103.73 157.628 102.324 157.628C100.932 157.628 99.8383 158.438 99.8383 159.659C99.8383 160.639 100.549 161.222 101.685 161.548L102.58 161.804C103.347 162.017 104.029 162.287 104.029 163.011C104.029 163.807 103.262 164.332 102.253 164.332C101.387 164.332 100.62 163.949 100.549 163.125H99.6395C99.7247 164.318 100.691 165.128 102.253 165.128C103.929 165.128 104.881 164.205 104.881 163.026C104.881 161.662 103.588 161.222 102.835 161.023L102.097 160.824C101.557 160.682 100.691 160.398 100.691 159.616C100.691 158.92 101.33 158.409 102.296 158.409C103.176 158.409 103.844 158.828 103.929 159.545ZM106.329 165H107.21V162.344H108.801C110.494 162.344 111.258 161.314 111.258 160.028C111.258 158.743 110.494 157.727 108.786 157.727H106.329V165ZM107.21 161.562V158.509H108.758C109.94 158.509 110.391 159.155 110.391 160.028C110.391 160.902 109.94 161.562 108.772 161.562H107.21ZM112.233 165L112.964 162.94H115.905L116.636 165H117.559L114.889 157.727H113.98L111.309 165H112.233ZM113.241 162.159L114.406 158.878H114.463L115.628 162.159H113.241ZM124.203 160C123.933 158.509 122.74 157.628 121.277 157.628C119.416 157.628 118.066 159.062 118.066 161.364C118.066 163.665 119.416 165.099 121.277 165.099C122.74 165.099 123.933 164.219 124.203 162.727H123.322C123.109 163.736 122.242 164.276 121.277 164.276C119.956 164.276 118.919 163.253 118.919 161.364C118.919 159.474 119.956 158.452 121.277 158.452C122.242 158.452 123.109 158.991 123.322 160H124.203ZM125.626 165H130.072V164.219H126.506V161.747H129.788V160.966H126.506V158.509H130.015V157.727H125.626V165Z" fill="#9293AB"/>
<path d="M11.5455 165.864L11.5455 165.011C10.4482 165.051 9.62784 166.063 9.62784 167.469C9.62784 168.861 10.4375 169.955 11.6591 169.955C12.6392 169.955 13.2216 169.244 13.5483 168.108L13.804 167.213C14.017 166.446 14.2869 165.764 15.0114 165.764C15.8068 165.764 16.3324 166.531 16.3324 167.54C16.3324 168.406 15.9489 169.173 15.125 169.244L15.125 170.153C16.3182 170.068 17.1278 169.102 17.1278 167.54C17.1278 165.864 16.2045 164.912 15.0256 164.912C13.6619 164.912 13.2216 166.205 13.0227 166.957L12.8239 167.696C12.6818 168.236 12.3977 169.102 11.6165 169.102C10.9205 169.102 10.4091 168.463 10.4091 167.497C10.4091 166.617 10.8281 165.949 11.5455 165.864ZM17 163.166L14.9403 162.434L14.9403 159.494L17 158.762L17 157.839L9.72727 160.509L9.72727 161.419L17 164.089L17 163.166ZM14.1591 162.157L10.8778 160.992L10.8778 160.936L14.1591 159.771L14.1591 162.157ZM17 156.706L17 155.826L13.7472 155.826L13.7472 152.672L12.9659 152.672L12.9659 155.826L10.5085 155.826L10.5085 152.345L9.72727 152.345L9.72727 156.706L17 156.706ZM17 150.837L17 146.391L16.2187 146.391L16.2187 149.956L13.7472 149.956L13.7472 146.675L12.9659 146.675L12.9659 149.956L10.5085 149.956L10.5085 146.448L9.72727 146.448L9.72727 150.837L17 150.837ZM11.5455 138.071L11.5455 137.218C10.4482 137.258 9.62784 138.27 9.62784 139.676C9.62784 141.068 10.4375 142.162 11.6591 142.162C12.6392 142.162 13.2216 141.451 13.5483 140.315L13.804 139.42C14.017 138.653 14.2869 137.971 15.0114 137.971C15.8068 137.971 16.3324 138.738 16.3324 139.747C16.3324 140.613 15.9489 141.38 15.125 141.451L15.125 142.361C16.3182 142.275 17.1278 141.309 17.1278 139.747C17.1278 138.071 16.2045 137.119 15.0256 137.119C13.6619 137.119 13.2216 138.412 13.0227 139.165L12.8239 139.903C12.6818 140.443 12.3977 141.309 11.6165 141.309C10.9205 141.309 10.4091 140.67 10.4091 139.704C10.4091 138.824 10.8281 138.156 11.5455 138.071ZM17 135.671L17 134.79L14.3437 134.79L14.3437 133.199C14.3437 131.506 13.3139 130.742 12.0284 130.742C10.7429 130.742 9.72727 131.506 9.72727 133.214L9.72727 135.671L17 135.671ZM13.5625 134.79L10.5085 134.79L10.5085 133.242C10.5085 132.06 11.1548 131.609 12.0284 131.609C12.902 131.609 13.5625 132.06 13.5625 133.228L13.5625 134.79ZM17 129.767L14.9403 129.036L14.9403 126.095L17 125.364L17 124.441L9.72727 127.111L9.72727 128.02L17 130.691L17 129.767ZM14.1591 128.759L10.8778 127.594L10.8778 127.537L14.1591 126.372L14.1591 128.759ZM12 117.797C10.5085 118.067 9.62784 119.26 9.62784 120.723C9.62784 122.584 11.0625 123.934 13.3636 123.934C15.6648 123.934 17.0994 122.584 17.0994 120.723C17.0994 119.26 16.2187 118.067 14.7273 117.797L14.7273 118.678C15.7358 118.891 16.2756 119.758 16.2756 120.723C16.2756 122.044 15.2528 123.081 13.3636 123.081C11.4744 123.081 10.4517 122.044 10.4517 120.723C10.4517 119.758 10.9915 118.891 12 118.678L12 117.797ZM17 116.374L17 111.928L16.2187 111.928L16.2187 115.494L13.7472 115.494L13.7472 112.212L12.9659 112.212L12.9659 115.494L10.5085 115.494L10.5085 111.985L9.72727 111.985L9.72727 116.374L17 116.374Z" fill="#9293AB"/>
<path d="M192.455 120.136L192.455 120.989C193.552 120.949 194.372 119.937 194.372 118.531C194.372 117.139 193.562 116.045 192.341 116.045C191.361 116.045 190.778 116.756 190.452 117.892L190.196 118.787C189.983 119.554 189.713 120.236 188.989 120.236C188.193 120.236 187.668 119.469 187.668 118.46C187.668 117.594 188.051 116.827 188.875 116.756L188.875 115.847C187.682 115.932 186.872 116.898 186.872 118.46C186.872 120.136 187.795 121.088 188.974 121.088C190.338 121.088 190.778 119.795 190.977 119.043L191.176 118.304C191.318 117.764 191.602 116.898 192.384 116.898C193.08 116.898 193.591 117.537 193.591 118.503C193.591 119.383 193.172 120.051 192.455 120.136ZM187 122.834L189.06 123.566L189.06 126.506L187 127.238L187 128.161L194.273 125.491L194.273 124.581L187 121.911L187 122.834ZM189.841 123.843L193.122 125.008L193.122 125.064L189.841 126.229L189.841 123.843ZM187 129.294L187 130.174L190.253 130.174L190.253 133.328L191.034 133.328L191.034 130.174L193.491 130.174L193.491 133.655L194.273 133.655L194.273 129.294L187 129.294ZM187 135.163L187 139.609L187.781 139.609L187.781 136.044L190.253 136.044L190.253 139.325L191.034 139.325L191.034 136.044L193.491 136.044L193.491 139.552L194.273 139.552L194.273 135.163L187 135.163ZM192.455 147.929L192.455 148.782C193.552 148.742 194.372 147.73 194.372 146.324C194.372 144.932 193.562 143.838 192.341 143.838C191.361 143.838 190.778 144.549 190.452 145.685L190.196 146.58C189.983 147.347 189.713 148.029 188.989 148.029C188.193 148.029 187.668 147.262 187.668 146.253C187.668 145.387 188.051 144.62 188.875 144.549L188.875 143.639C187.682 143.725 186.872 144.691 186.872 146.253C186.872 147.929 187.795 148.881 188.974 148.881C190.338 148.881 190.778 147.588 190.977 146.835L191.176 146.097C191.318 145.557 191.602 144.691 192.384 144.691C193.08 144.691 193.591 145.33 193.591 146.296C193.591 147.176 193.172 147.844 192.455 147.929ZM187 150.329L187 151.21L189.656 151.21L189.656 152.801C189.656 154.494 190.686 155.258 191.972 155.258C193.257 155.258 194.273 154.494 194.273 152.786L194.273 150.329L187 150.329ZM190.437 151.21L193.491 151.21L193.491 152.758C193.491 153.94 192.845 154.391 191.972 154.391C191.098 154.391 190.437 153.94 190.437 152.772L190.437 151.21ZM187 156.233L189.06 156.964L189.06 159.905L187 160.636L187 161.559L194.273 158.889L194.273 157.98L187 155.309L187 156.233ZM189.841 157.241L193.122 158.406L193.122 158.463L189.841 159.628L189.841 157.241ZM192 168.203C193.491 167.933 194.372 166.74 194.372 165.277C194.372 163.416 192.937 162.066 190.636 162.066C188.335 162.066 186.901 163.416 186.901 165.277C186.901 166.74 187.781 167.933 189.273 168.203L189.273 167.322C188.264 167.109 187.724 166.242 187.724 165.277C187.724 163.956 188.747 162.919 190.636 162.919C192.526 162.919 193.548 163.956 193.548 165.277C193.548 166.242 193.009 167.109 192 167.322L192 168.203ZM187 169.626L187 174.072L187.781 174.072L187.781 170.506L190.253 170.506L190.253 173.788L191.034 173.788L191.034 170.506L193.491 170.506L193.491 174.015L194.273 174.015L194.273 169.626L187 169.626Z" fill="#9293AB"/>
<rect x="1" y="46" width="200" height="200" stroke="#6B6D85" stroke-dasharray="3 3"/>
<rect x="26" y="71" width="150" height="150" fill="#9293AB" stroke="#6B6D85" stroke-dasharray="3 3"/>
<path fill-rule="evenodd" clip-rule="evenodd" d="M116.449 90.5559C107.411 95.9336 100.947 104.617 98.2483 115.008L95.7637 124.569L115.12 129.918L117.604 120.356C120.324 109.906 130.778 103.69 140.913 106.488C151.051 109.29 157.089 120.069 154.376 130.518C151.661 140.965 141.211 147.187 131.067 144.387L130.853 144.328L74.9381 128.878C64.8561 126.091 54.3275 127.518 45.2892 132.895C36.2522 138.272 29.7886 146.955 27.0896 157.347C24.3885 167.738 25.7761 178.59 30.9961 187.908C36.216 197.225 44.642 203.89 54.7246 206.675C64.8066 209.462 75.3352 208.034 84.3721 202.657C93.4105 197.28 99.8741 188.597 102.573 178.205L105.058 168.644L85.7012 163.295L83.2175 172.857C80.5016 183.309 70.0479 189.525 59.9083 186.726C49.7707 183.923 43.732 173.144 46.4456 162.695C47.8044 157.471 51.097 153.305 55.3179 150.793C59.5378 148.282 64.6848 147.427 69.7545 148.827L125.883 164.336C135.965 167.123 146.494 165.696 155.532 160.318C164.569 154.941 171.033 146.258 173.732 135.866C176.433 125.475 175.045 114.623 169.825 105.306C164.605 95.9881 156.179 89.3235 146.097 86.5387C136.015 83.7518 125.486 85.179 116.449 90.5559Z" fill="#F3F3FA"/>
<line x1="201" y1="250" x2="201" y2="275" stroke="#6B6D85" stroke-dasharray="3 3"/>
<path d="M177 226L177 276" stroke="#6B6D85" stroke-dasharray="3 3"/>
<line x1="102.5" y1="149" x2="102.5" y2="276" stroke="#6B6D85" stroke-dasharray="3 3"/>
<circle cx="101.5" cy="145.5" r="2.5" fill="#6B6D85"/>
<path d="M186.3 309L187.032 306.94H189.972L190.703 309H191.627L188.956 301.727H188.047L185.377 309H186.3ZM187.309 306.159L188.473 302.878H188.53L189.695 306.159H187.309Z" fill="black"/>
<path d="M127.043 309.099C128.453 309.099 129.501 308.215 129.501 307.026C129.501 306.102 128.954 305.431 128.038 305.278V305.222C128.773 304.998 129.231 304.394 129.231 303.574C129.231 302.544 128.418 301.628 127.072 301.628C125.815 301.628 124.771 302.402 124.728 303.545H125.58C125.612 302.821 126.301 302.395 127.057 302.395C127.86 302.395 128.378 302.881 128.378 303.616C128.378 304.384 127.778 304.881 126.915 304.881H126.333V305.662H126.915C128.02 305.662 128.634 306.223 128.634 307.026C128.634 307.796 127.963 308.318 127.029 308.318C126.187 308.318 125.52 307.885 125.467 307.182H124.572C124.625 308.325 125.633 309.099 127.043 309.099ZM132.359 305.818H133.041L132.984 304.256L134.305 305.094L134.646 304.497L133.254 303.773L134.646 303.048L134.305 302.452L132.984 303.29L133.041 301.727H132.359L132.416 303.29L131.095 302.452L130.754 303.048L132.146 303.773L130.754 304.497L131.095 305.094L132.416 304.256L132.359 305.818ZM135.588 309L136.32 306.94H139.26L139.992 309H140.915L138.244 301.727H137.335L134.665 309H135.588ZM136.597 306.159L137.761 302.878H137.818L138.983 306.159H136.597Z" fill="black"/>
<path d="M201 284L201 294L176.878 294M102 284L102 294L176.878 294M176.878 294L176.878 284" stroke="#6B6D85"/>
<path opacity="0.8" d="M293.783 107.144C293.581 107.166 293.425 107.26 293.314 107.425C293.202 107.59 293.146 107.797 293.146 108.047C293.146 108.315 293.207 108.528 293.329 108.686C293.451 108.844 293.605 108.923 293.791 108.923C293.93 108.923 294.044 108.881 294.132 108.797C294.219 108.712 294.287 108.608 294.337 108.486C294.386 108.362 294.426 108.244 294.456 108.13L294.567 107.704C294.601 107.565 294.648 107.422 294.707 107.276C294.766 107.129 294.842 106.994 294.937 106.869C295.031 106.744 295.148 106.643 295.289 106.566C295.43 106.488 295.598 106.449 295.794 106.449C296.04 106.449 296.259 106.513 296.452 106.641C296.646 106.767 296.798 106.95 296.908 107.19C297.018 107.43 297.072 107.722 297.072 108.064C297.072 108.553 296.958 108.942 296.729 109.232C296.501 109.52 296.189 109.675 295.794 109.696L295.794 109.036C296.031 109.016 296.207 108.913 296.322 108.727C296.437 108.541 296.495 108.321 296.495 108.068C296.495 107.788 296.43 107.558 296.301 107.376C296.172 107.193 296.001 107.101 295.788 107.101C295.658 107.101 295.553 107.138 295.47 107.212C295.386 107.284 295.318 107.383 295.266 107.508C295.212 107.631 295.164 107.771 295.123 107.928L294.982 108.443C294.887 108.794 294.747 109.071 294.562 109.274C294.378 109.477 294.134 109.579 293.83 109.579C293.578 109.579 293.359 109.511 293.171 109.374C292.984 109.238 292.838 109.053 292.734 108.82C292.629 108.586 292.577 108.323 292.577 108.032C292.577 107.737 292.629 107.476 292.732 107.25C292.836 107.023 292.979 106.844 293.161 106.713C293.342 106.582 293.55 106.514 293.783 106.509L293.783 107.144ZM297 105.329L297 106.028L292.636 104.457L292.636 103.697L297 102.126L297 102.825L295.845 103.224L295.845 104.928L297 105.329ZM295.291 104.736L295.291 103.415L293.429 104.059L293.429 104.093L295.291 104.736ZM297 101.496L292.636 101.496L292.636 98.7902L293.203 98.7902L293.203 100.838L294.533 100.838L294.533 98.9841L295.097 98.9841L295.097 100.838L297 100.838L297 101.496ZM297 97.9806L292.636 97.9806L292.636 95.2448L293.203 95.2448L293.203 97.3222L294.533 97.3222L294.533 95.3875L295.097 95.3875L295.097 97.3222L296.433 97.3222L296.433 95.2192L297 95.2192L297 97.9806ZM293.783 90.3975C293.581 90.4202 293.425 90.5139 293.314 90.6787C293.202 90.8435 293.146 91.0509 293.146 91.3009C293.146 91.5693 293.207 91.7824 293.329 91.9401C293.451 92.0977 293.605 92.1766 293.791 92.1766C293.93 92.1766 294.044 92.1347 294.132 92.0509C294.219 91.9656 294.287 91.8619 294.337 91.7398C294.386 91.6162 294.426 91.4976 294.456 91.384L294.567 90.9578C294.601 90.8186 294.648 90.6759 294.707 90.5296C294.766 90.3833 294.842 90.2476 294.937 90.1226C295.031 89.9976 295.148 89.8968 295.289 89.82C295.43 89.7419 295.598 89.7029 295.794 89.7029C296.04 89.7029 296.259 89.7668 296.452 89.8946C296.646 90.021 296.798 90.2043 296.908 90.4443C297.018 90.6844 297.072 90.9756 297.072 91.3179C297.072 91.8066 296.958 92.1958 296.729 92.4855C296.501 92.7739 296.189 92.9287 295.794 92.95L295.794 92.2895C296.031 92.2696 296.207 92.1666 296.322 91.9806C296.437 91.7945 296.495 91.575 296.495 91.3222C296.495 91.0423 296.43 90.8115 296.301 90.6297C296.172 90.4465 296.001 90.3548 295.788 90.3548C295.658 90.3548 295.553 90.3918 295.47 90.4656C295.386 90.5381 295.318 90.6368 295.266 90.7618C295.212 90.8854 295.164 91.0253 295.123 91.1816L294.982 91.6972C294.887 92.048 294.747 92.325 294.562 92.5281C294.378 92.7313 294.134 92.8328 293.83 92.8328C293.578 92.8328 293.359 92.7646 293.171 92.6283C292.984 92.4919 292.838 92.3073 292.734 92.0743C292.629 91.8399 292.577 91.5771 292.577 91.286C292.577 90.9905 292.629 90.7298 292.732 90.504C292.836 90.2767 292.979 90.0977 293.161 89.9671C293.342 89.8364 293.55 89.7682 293.783 89.7625L293.783 90.3975ZM297 88.9161L292.636 88.9161L292.636 87.3607C292.636 87.0226 292.698 86.7421 292.822 86.5191C292.945 86.2947 293.114 86.127 293.327 86.0162C293.54 85.9055 293.781 85.8501 294.049 85.8501C294.317 85.8501 294.559 85.9062 294.773 86.0184C294.987 86.1292 295.156 86.2968 295.281 86.5212C295.404 86.7442 295.466 87.0248 295.466 87.3628L295.466 88.2577L297 88.2577L297 88.9161ZM294.908 88.2577L294.908 87.4225C294.908 87.1001 294.827 86.8678 294.665 86.7258C294.501 86.5837 294.296 86.5127 294.049 86.5127C293.802 86.5127 293.599 86.5844 293.44 86.7279C293.281 86.8699 293.201 87.1043 293.201 87.431L293.201 88.2577L294.908 88.2577ZM297 85.1725L297 85.8714L292.636 84.301L292.636 83.5404L297 81.9701L297 82.6689L295.845 83.0674L295.845 84.7719L297 85.1725ZM295.291 84.5802L295.291 83.2591L293.429 83.9026L293.429 83.9367L295.291 84.5802ZM294.055 77.9207L294.055 78.5855C293.773 78.6395 293.556 78.7723 293.406 78.9839C293.254 79.1942 293.178 79.4385 293.178 79.7169C293.178 79.9669 293.241 80.1913 293.367 80.3902C293.494 80.589 293.679 80.746 293.923 80.8611C294.166 80.9747 294.464 81.0315 294.818 81.0315C295.173 81.0315 295.473 80.974 295.717 80.8589C295.962 80.7439 296.146 80.5876 296.271 80.3902C296.396 80.1913 296.459 79.9676 296.459 79.719C296.459 79.4434 296.384 79.1998 296.235 78.9882C296.086 78.7765 295.872 78.6423 295.594 78.5855L295.596 77.9207C295.883 77.9676 296.136 78.0727 296.357 78.2361C296.577 78.3994 296.749 78.6082 296.874 78.8625C296.998 79.1167 297.06 79.4037 297.06 79.7233C297.06 80.1011 296.97 80.4378 296.791 80.7332C296.611 81.0287 296.353 81.2616 296.018 81.4321C295.683 81.6011 295.283 81.6856 294.818 81.6856C294.352 81.6856 293.952 81.6004 293.619 81.43C293.283 81.2595 293.026 81.0265 292.847 80.7311C292.667 80.4356 292.577 80.0997 292.577 79.7233C292.577 79.415 292.635 79.1345 292.751 78.8817C292.868 78.6274 293.037 78.4165 293.259 78.2488C293.479 78.0798 293.744 77.9704 294.055 77.9207ZM297 77.1329L292.636 77.1329L292.636 74.3971L293.203 74.3971L293.203 76.4745L294.533 76.4745L294.533 74.5399L295.097 74.5399L295.097 76.4745L296.433 76.4745L296.433 74.3715L297 74.3715L297 77.1329Z" fill="#9293AB"/>
<path opacity="0.8" d="M382.783 106.144C382.581 106.166 382.425 106.26 382.314 106.425C382.202 106.59 382.146 106.797 382.146 107.047C382.146 107.315 382.207 107.528 382.329 107.686C382.451 107.844 382.605 107.923 382.791 107.923C382.93 107.923 383.044 107.881 383.132 107.797C383.219 107.712 383.287 107.608 383.337 107.486C383.386 107.362 383.426 107.244 383.456 107.13L383.567 106.704C383.601 106.565 383.648 106.422 383.707 106.276C383.766 106.129 383.842 105.994 383.937 105.869C384.031 105.744 384.148 105.643 384.289 105.566C384.43 105.488 384.598 105.449 384.794 105.449C385.04 105.449 385.259 105.513 385.452 105.641C385.646 105.767 385.798 105.95 385.908 106.19C386.018 106.43 386.072 106.722 386.072 107.064C386.072 107.553 385.958 107.942 385.729 108.232C385.501 108.52 385.189 108.675 384.794 108.696L384.794 108.036C385.031 108.016 385.207 107.913 385.322 107.727C385.437 107.541 385.495 107.321 385.495 107.068C385.495 106.788 385.43 106.558 385.301 106.376C385.172 106.193 385.001 106.101 384.788 106.101C384.658 106.101 384.553 106.138 384.47 106.212C384.386 106.284 384.318 106.383 384.266 106.508C384.212 106.631 384.164 106.771 384.123 106.928L383.982 107.443C383.887 107.794 383.747 108.071 383.562 108.274C383.378 108.477 383.134 108.579 382.83 108.579C382.578 108.579 382.359 108.511 382.171 108.374C381.984 108.238 381.838 108.053 381.734 107.82C381.629 107.586 381.577 107.323 381.577 107.032C381.577 106.737 381.629 106.476 381.732 106.25C381.836 106.023 381.979 105.844 382.161 105.713C382.342 105.582 382.55 105.514 382.783 105.509L382.783 106.144ZM386 104.329L386 105.028L381.636 103.457L381.636 102.697L386 101.126L386 101.825L384.845 102.224L384.845 103.928L386 104.329ZM384.291 103.736L384.291 102.415L382.429 103.059L382.429 103.093L384.291 103.736ZM386 100.496L381.636 100.496L381.636 97.7902L382.203 97.7902L382.203 99.8378L383.533 99.8378L383.533 97.9841L384.097 97.9841L384.097 99.8378L386 99.8378L386 100.496ZM386 96.9806L381.636 96.9806L381.636 94.2448L382.203 94.2448L382.203 96.3222L383.533 96.3222L383.533 94.3875L384.097 94.3875L384.097 96.3222L385.433 96.3222L385.433 94.2192L386 94.2192L386 96.9806ZM382.783 89.3975C382.581 89.4202 382.425 89.5139 382.314 89.6787C382.202 89.8435 382.146 90.0509 382.146 90.3009C382.146 90.5693 382.207 90.7824 382.329 90.9401C382.451 91.0977 382.605 91.1766 382.791 91.1766C382.93 91.1766 383.044 91.1347 383.132 91.0509C383.219 90.9656 383.287 90.8619 383.337 90.7398C383.386 90.6162 383.426 90.4976 383.456 90.384L383.567 89.9578C383.601 89.8186 383.648 89.6759 383.707 89.5296C383.766 89.3833 383.842 89.2476 383.937 89.1226C384.031 88.9976 384.148 88.8968 384.289 88.82C384.43 88.7419 384.598 88.7029 384.794 88.7029C385.04 88.7029 385.259 88.7668 385.452 88.8946C385.646 89.021 385.798 89.2043 385.908 89.4443C386.018 89.6844 386.072 89.9756 386.072 90.3179C386.072 90.8066 385.958 91.1958 385.729 91.4855C385.501 91.7739 385.189 91.9287 384.794 91.95L384.794 91.2895C385.031 91.2696 385.207 91.1666 385.322 90.9806C385.437 90.7945 385.495 90.575 385.495 90.3222C385.495 90.0423 385.43 89.8115 385.301 89.6297C385.172 89.4465 385.001 89.3548 384.788 89.3548C384.658 89.3548 384.553 89.3918 384.47 89.4656C384.386 89.5381 384.318 89.6368 384.266 89.7618C384.212 89.8854 384.164 90.0253 384.123 90.1816L383.982 90.6972C383.887 91.048 383.747 91.325 383.562 91.5281C383.378 91.7313 383.134 91.8328 382.83 91.8328C382.578 91.8328 382.359 91.7646 382.171 91.6283C381.984 91.4919 381.838 91.3073 381.734 91.0743C381.629 90.8399 381.577 90.5771 381.577 90.286C381.577 89.9905 381.629 89.7298 381.732 89.504C381.836 89.2767 381.979 89.0977 382.161 88.9671C382.342 88.8364 382.55 88.7682 382.783 88.7625L382.783 89.3975ZM386 87.9161L381.636 87.9161L381.636 86.3607C381.636 86.0226 381.698 85.7421 381.822 85.5191C381.945 85.2947 382.114 85.127 382.327 85.0162C382.54 84.9055 382.781 84.8501 383.049 84.8501C383.317 84.8501 383.559 84.9062 383.773 85.0184C383.987 85.1292 384.156 85.2968 384.281 85.5212C384.404 85.7442 384.466 86.0248 384.466 86.3628L384.466 87.2577L386 87.2577L386 87.9161ZM383.908 87.2577L383.908 86.4225C383.908 86.1001 383.827 85.8678 383.665 85.7258C383.501 85.5837 383.296 85.5127 383.049 85.5127C382.802 85.5127 382.599 85.5844 382.44 85.7279C382.281 85.8699 382.201 86.1043 382.201 86.431L382.201 87.2577L383.908 87.2577ZM386 84.1725L386 84.8714L381.636 83.301L381.636 82.5404L386 80.9701L386 81.6689L384.845 82.0674L384.845 83.7719L386 84.1725ZM384.291 83.5802L384.291 82.2591L382.429 82.9026L382.429 82.9367L384.291 83.5802ZM383.055 76.9207L383.055 77.5855C382.773 77.6395 382.556 77.7723 382.406 77.9839C382.254 78.1942 382.178 78.4385 382.178 78.7169C382.178 78.9669 382.241 79.1913 382.367 79.3902C382.494 79.589 382.679 79.746 382.923 79.8611C383.166 79.9747 383.464 80.0315 383.818 80.0315C384.173 80.0315 384.473 79.974 384.717 79.8589C384.962 79.7439 385.146 79.5876 385.271 79.3902C385.396 79.1913 385.459 78.9676 385.459 78.719C385.459 78.4434 385.384 78.1998 385.235 77.9882C385.086 77.7765 384.872 77.6423 384.594 77.5855L384.596 76.9207C384.883 76.9676 385.136 77.0727 385.357 77.2361C385.577 77.3994 385.749 77.6082 385.874 77.8625C385.998 78.1167 386.06 78.4037 386.06 78.7233C386.06 79.1011 385.97 79.4378 385.791 79.7332C385.611 80.0287 385.353 80.2616 385.018 80.4321C384.683 80.6011 384.283 80.6856 383.818 80.6856C383.352 80.6856 382.952 80.6004 382.619 80.43C382.283 80.2595 382.026 80.0265 381.847 79.7311C381.667 79.4356 381.577 79.0997 381.577 78.7233C381.577 78.415 381.635 78.1345 381.751 77.8817C381.868 77.6274 382.037 77.4165 382.259 77.2488C382.479 77.0798 382.744 76.9704 383.055 76.9207ZM386 76.1329L381.636 76.1329L381.636 73.3971L382.203 73.3971L382.203 75.4745L383.533 75.4745L383.533 73.5399L384.097 73.5399L384.097 75.4745L385.433 75.4745L385.433 73.3715L386 73.3715L386 76.1329Z" fill="#9293AB"/>
<path opacity="0.8" d="M322.856 51.7827C322.834 51.581 322.74 51.4247 322.575 51.3139C322.41 51.2017 322.203 51.1456 321.953 51.1456C321.685 51.1456 321.472 51.2067 321.314 51.3288C321.156 51.451 321.077 51.6051 321.077 51.7912C321.077 51.9304 321.119 52.044 321.203 52.1321C321.288 52.2187 321.392 52.2869 321.514 52.3366C321.638 52.3864 321.756 52.4261 321.87 52.456L322.296 52.5668C322.435 52.6009 322.578 52.6477 322.724 52.7074C322.871 52.7656 323.006 52.8423 323.131 52.9375C323.256 53.0312 323.357 53.1484 323.434 53.2891C323.512 53.4297 323.551 53.598 323.551 53.794C323.551 54.0398 323.487 54.2592 323.359 54.4524C323.233 54.6456 323.05 54.7976 322.81 54.9084C322.57 55.0178 322.278 55.0724 321.936 55.0724C321.447 55.0724 321.058 54.9581 320.768 54.7294C320.48 54.5007 320.325 54.1889 320.304 53.794H320.964C320.984 54.0312 321.087 54.2074 321.273 54.3224C321.459 54.4375 321.679 54.495 321.932 54.495C322.212 54.495 322.442 54.4304 322.624 54.3011C322.807 54.1719 322.899 54.0007 322.899 53.7876C322.899 53.6584 322.862 53.5526 322.788 53.4702C322.716 53.3864 322.617 53.3182 322.492 53.2656C322.369 53.2116 322.229 53.1641 322.072 53.1229L321.557 52.9822C321.206 52.8871 320.929 52.7472 320.726 52.5625C320.523 52.3778 320.421 52.1335 320.421 51.8295C320.421 51.5781 320.489 51.3587 320.626 51.1712C320.762 50.9837 320.947 50.8381 321.18 50.7344C321.414 50.6293 321.677 50.5767 321.968 50.5767C322.263 50.5767 322.524 50.6286 322.75 50.7322C322.977 50.8359 323.156 50.9787 323.287 51.1605C323.418 51.3423 323.486 51.5497 323.491 51.7827H322.856ZM324.671 55H323.972L325.543 50.6364H326.303L327.874 55H327.175L326.776 53.8452H325.072L324.671 55ZM325.264 53.2912H326.585L325.941 51.429H325.907L325.264 53.2912ZM328.504 55V50.6364H331.21V51.2031H329.162V52.5327H331.016V53.0973H329.162V55H328.504ZM332.019 55V50.6364H334.755V51.2031H332.678V52.5327H334.612V53.0973H332.678V54.4332H334.781V55H332.019ZM339.603 51.7827C339.58 51.581 339.486 51.4247 339.321 51.3139C339.157 51.2017 338.949 51.1456 338.699 51.1456C338.431 51.1456 338.218 51.2067 338.06 51.3288C337.902 51.451 337.823 51.6051 337.823 51.7912C337.823 51.9304 337.865 52.044 337.949 52.1321C338.034 52.2187 338.138 52.2869 338.26 52.3366C338.384 52.3864 338.502 52.4261 338.616 52.456L339.042 52.5668C339.181 52.6009 339.324 52.6477 339.47 52.7074C339.617 52.7656 339.752 52.8423 339.877 52.9375C340.002 53.0313 340.103 53.1484 340.18 53.2891C340.258 53.4297 340.297 53.598 340.297 53.794C340.297 54.0398 340.233 54.2592 340.105 54.4524C339.979 54.6456 339.796 54.7976 339.556 54.9084C339.316 55.0178 339.024 55.0724 338.682 55.0724C338.193 55.0724 337.804 54.9581 337.514 54.7294C337.226 54.5007 337.071 54.1889 337.05 53.794H337.71C337.73 54.0312 337.833 54.2074 338.019 54.3224C338.206 54.4375 338.425 54.495 338.678 54.495C338.958 54.495 339.188 54.4304 339.37 54.3011C339.554 54.1719 339.645 54.0007 339.645 53.7876C339.645 53.6584 339.608 53.5526 339.534 53.4702C339.462 53.3864 339.363 53.3182 339.238 53.2656C339.115 53.2116 338.975 53.1641 338.818 53.1229L338.303 52.9822C337.952 52.8871 337.675 52.7472 337.472 52.5625C337.269 52.3778 337.167 52.1335 337.167 51.8295C337.167 51.5781 337.235 51.3587 337.372 51.1712C337.508 50.9837 337.693 50.8381 337.926 50.7344C338.16 50.6293 338.423 50.5767 338.714 50.5767C339.009 50.5767 339.27 50.6286 339.496 50.7322C339.723 50.8359 339.902 50.9787 340.033 51.1605C340.164 51.3423 340.232 51.5497 340.237 51.7827H339.603ZM341.084 55V50.6364H342.639C342.977 50.6364 343.258 50.6982 343.481 50.8217C343.705 50.9453 343.873 51.1136 343.984 51.3267C344.095 51.5398 344.15 51.7805 344.15 52.049C344.15 52.3175 344.094 52.5589 343.982 52.7734C343.871 52.9865 343.703 53.1555 343.479 53.2805C343.256 53.4041 342.975 53.4659 342.637 53.4659H341.742V55H341.084ZM341.742 52.9077H342.578C342.9 52.9077 343.132 52.8267 343.274 52.6648C343.416 52.5014 343.487 52.2962 343.487 52.049C343.487 51.8018 343.416 51.5987 343.272 51.4396C343.13 51.2805 342.896 51.201 342.569 51.201H341.742V52.9077ZM344.828 55H344.129L345.699 50.6364H346.46L348.03 55H347.331L346.933 53.8452H345.228L344.828 55ZM345.42 53.2912H346.741L346.097 51.429H346.063L345.42 53.2912ZM352.079 52.0554H351.415C351.361 51.7727 351.228 51.5561 351.016 51.4055C350.806 51.2536 350.562 51.1776 350.283 51.1776C350.033 51.1776 349.809 51.2408 349.61 51.3672C349.411 51.4936 349.254 51.679 349.139 51.9233C349.025 52.1662 348.968 52.4645 348.968 52.8182C348.968 53.1733 349.026 53.473 349.141 53.7173C349.256 53.9616 349.412 54.1463 349.61 54.2713C349.809 54.3963 350.032 54.4588 350.281 54.4588C350.557 54.4588 350.8 54.3842 351.012 54.2351C351.223 54.0859 351.358 53.8722 351.415 53.5938L352.079 53.5959C352.032 53.8828 351.927 54.1364 351.764 54.3565C351.601 54.5767 351.392 54.7493 351.138 54.8743C350.883 54.9979 350.596 55.0597 350.277 55.0597C349.899 55.0597 349.562 54.9702 349.267 54.7912C348.971 54.6108 348.738 54.353 348.568 54.0178C348.399 53.6825 348.314 53.2827 348.314 52.8182C348.314 52.3523 348.4 51.9524 348.57 51.6186C348.741 51.2834 348.973 51.0263 349.269 50.8473C349.564 50.6669 349.9 50.5767 350.277 50.5767C350.585 50.5767 350.866 50.6349 351.118 50.7514C351.373 50.8679 351.584 51.0369 351.751 51.2585C351.92 51.4787 352.03 51.7443 352.079 52.0554ZM352.867 55V50.6364H355.603V51.2031H353.525V52.5327H355.46V53.0973H353.525V54.4332H355.628V55H352.867Z" fill="#9293AB"/>
<rect x="289" y="46.5" width="100" height="100" stroke="#6B6D85" stroke-width="0.5" stroke-dasharray="2 2"/>
<rect x="301.25" y="58.75" width="75.5" height="75.5" fill="#9293AB" stroke="#6B6D85" stroke-width="0.5" stroke-dasharray="2 2"/>
<g opacity="0.9">
<g clip-path="url(#clip0)">
<path fill-rule="evenodd" clip-rule="evenodd" d="M376.516 96.6953C376.516 101.957 375.365 107.055 373.391 111.659L359.743 98.1752C361.387 95.5443 362.21 92.42 362.21 89.1312C362.374 79.7584 354.646 72.0299 345.108 72.0299C341.655 72.0299 338.531 73.0165 335.9 74.6609L323.238 62.1637C328.007 60.0261 333.104 58.875 338.695 58.875C359.579 58.875 376.516 75.8119 376.516 96.6953ZM317.976 65.1236L331.625 78.7718C329.322 81.7316 328.007 85.3492 328.007 89.2957C328.007 98.833 335.735 106.561 345.273 106.561C349.219 106.561 352.837 105.246 355.797 102.944L370.431 117.579C363.525 127.774 352.015 134.516 338.695 134.516C317.812 134.516 300.875 117.579 300.875 96.6953C300.875 83.376 307.617 71.8655 317.976 65.1236ZM345.273 99.984C351.686 99.984 356.783 94.8865 356.783 88.4735C356.783 82.0605 351.686 76.963 345.273 76.963C338.86 76.963 333.762 82.0605 333.762 88.4735C333.762 94.8865 338.86 99.984 345.273 99.984Z" fill="white"/>
</g>
</g>
<line x1="388.75" y1="147" x2="388.75" y2="165" stroke="#6B6D85" stroke-width="0.5" stroke-dasharray="2 2"/>
<path d="M376.75 134.25L376.75 164.5" stroke="#6B6D85" stroke-width="0.5" stroke-dasharray="2 2"/>
<line x1="339.25" y1="96" x2="339.25" y2="165" stroke="#6B6D85" stroke-width="0.5" stroke-dasharray="2 2"/>
<path d="M388.75 168L388.75 173.75L376.75 173.75M339.5 168L339.5 173.75L376.75 173.75M376.75 173.75L376.75 168" stroke="#4F5162" stroke-width="0.5"/>
<path d="M380.943 179.727H380.063L378.245 180.935V181.83L380.02 180.651H380.063V187H380.943V179.727ZM385.308 187.099C386.693 187.099 387.708 186.077 387.708 184.685C387.708 183.275 386.728 182.241 385.393 182.241C384.903 182.241 384.427 182.415 384.129 182.653H384.086L384.342 180.509H387.382V179.727H383.603L383.163 183.307L383.987 183.406C384.289 183.19 384.804 183.033 385.251 183.037C386.178 183.044 386.856 183.747 386.856 184.699C386.856 185.633 386.203 186.318 385.308 186.318C384.562 186.318 383.969 185.839 383.902 185.182H383.049C383.103 186.29 384.058 187.099 385.308 187.099Z" fill="#6B6D85"/>
<path d="M349.832 186.009H353.256V187.5H354.094V186.009H355.088V185.227H354.094V180.227H353.028L349.832 185.284V186.009ZM353.256 185.227H350.784V185.17L353.199 181.349H353.256V185.227ZM358.692 187.599C360.077 187.599 361.092 186.577 361.092 185.185C361.092 183.775 360.112 182.741 358.777 182.741C358.287 182.741 357.811 182.915 357.513 183.153H357.47L357.726 181.009H360.765V180.227H356.987L356.547 183.807L357.371 183.906C357.672 183.69 358.187 183.533 358.635 183.537C359.562 183.544 360.24 184.247 360.24 185.199C360.24 186.133 359.586 186.818 358.692 186.818C357.946 186.818 357.353 186.339 357.285 185.682H356.433C356.486 186.79 357.442 187.599 358.692 187.599Z" fill="#6B6D85"/>
<circle cx="339.25" cy="96.25" r="1.25" fill="#6B6D85"/>
<path d="M288 30C288 32.7823 288 36.3036 288 31.9563H321.92H389V33.4778V30" stroke="#4F5162" stroke-width="0.5"/>
<path d="M314.972 7.27273H313.915L311.733 8.72159V9.79545L313.864 8.38068H313.915V16H314.972V7.27273ZM320.328 16.1193C322.254 16.1193 323.362 14.4872 323.362 11.6364C323.362 8.80682 322.237 7.15341 320.328 7.15341C318.419 7.15341 317.294 8.80682 317.294 11.6364C317.294 14.4872 318.402 16.1193 320.328 16.1193ZM320.328 15.1818C319.058 15.1818 318.317 13.9077 318.317 11.6364C318.317 9.36932 319.067 8.07386 320.328 8.07386C321.589 8.07386 322.339 9.36932 322.339 11.6364C322.339 13.9077 321.598 15.1818 320.328 15.1818ZM327.828 16.1193C329.754 16.1193 330.862 14.4872 330.862 11.6364C330.862 8.80682 329.737 7.15341 327.828 7.15341C325.919 7.15341 324.794 8.80682 324.794 11.6364C324.794 14.4872 325.902 16.1193 327.828 16.1193ZM327.828 15.1818C326.558 15.1818 325.817 13.9077 325.817 11.6364C325.817 9.36932 326.567 8.07386 327.828 8.07386C329.089 8.07386 329.839 9.36932 329.839 11.6364C329.839 13.9077 329.098 15.1818 327.828 15.1818ZM334.169 12.1818H334.987L334.919 10.3068L336.504 11.3125L336.913 10.5966L335.243 9.72727L336.913 8.85795L336.504 8.14205L334.919 9.14773L334.987 7.27273H334.169L334.237 9.14773L332.652 8.14205L332.243 8.85795L333.913 9.72727L332.243 10.5966L332.652 11.3125L334.237 10.3068L334.169 12.1818ZM341.55 7.27273H340.493L338.311 8.72159V9.79545L340.442 8.38068H340.493V16H341.55V7.27273ZM346.906 16.1193C348.832 16.1193 349.94 14.4872 349.94 11.6364C349.94 8.80682 348.815 7.15341 346.906 7.15341C344.997 7.15341 343.872 8.80682 343.872 11.6364C343.872 14.4872 344.98 16.1193 346.906 16.1193ZM346.906 15.1818C345.636 15.1818 344.895 13.9077 344.895 11.6364C344.895 9.36932 345.645 8.07386 346.906 8.07386C348.168 8.07386 348.918 9.36932 348.918 11.6364C348.918 13.9077 348.176 15.1818 346.906 15.1818ZM354.406 16.1193C356.332 16.1193 357.44 14.4872 357.44 11.6364C357.44 8.80682 356.315 7.15341 354.406 7.15341C352.497 7.15341 351.372 8.80682 351.372 11.6364C351.372 14.4872 352.48 16.1193 354.406 16.1193ZM354.406 15.1818C353.136 15.1818 352.395 13.9077 352.395 11.6364C352.395 9.36932 353.145 8.07386 354.406 8.07386C355.668 8.07386 356.418 9.36932 356.418 11.6364C356.418 13.9077 355.676 15.1818 354.406 15.1818Z" fill="#6B6D85"/>
<rect x="672.634" y="41.3168" width="63.3663" height="63.3663" stroke="#6B6D85" stroke-width="0.5" stroke-dasharray="2 2"/>
<rect x="680.305" y="48.9875" width="48.0247" height="48.0247" fill="#9293AB" stroke="#6B6D85" stroke-width="0.5" stroke-dasharray="2 2"/>
<g opacity="0.9">
<path d="M703.992 52.9957C715.04 52.9957 723.989 61.9443 723.989 72.9926C723.989 83.7515 715.503 92.5194 704.856 92.9711L697.749 80.7156L697.932 81.0296L698.364 81.7666C698.364 81.7666 699.592 80.0178 702.544 79.2331C707.658 77.8736 708.148 79.6888 713.259 78.3303C716.457 77.4802 719.278 75.1709 719.278 75.1709L711.308 62.4447C711.308 62.4447 708.486 64.7507 705.289 65.6007C700.174 66.9602 699.684 65.145 694.573 66.5036L694.197 66.6164C692.339 67.4469 691.661 68.1255 690.982 68.804L690.304 69.4826C690.304 69.4826 689.91 69.8044 689.778 69.8808C689.205 70.21 689.137 71.6872 689.589 72.466L701.928 95.7152C702.223 96.2252 702.492 96.6812 703.094 96.8519C703.113 96.9533 703.37 96.7502 703.373 96.8519C703.094 96.9451 703.785 96.8597 703.992 96.8597C717.177 96.8597 727.859 86.1773 727.859 72.9926C727.859 59.8079 717.177 49.1254 703.992 49.1254C690.807 49.1254 680.125 59.8079 680.125 72.9926C680.125 84.2164 688.584 93.8117 699.02 96.3625L696.176 91.3902L696.061 91.1658L696.036 91.122C689.31 87.9024 683.995 80.951 683.995 72.9926C683.995 61.9443 692.944 52.9957 703.992 52.9957Z" fill="white"/>
</g>
<line x1="735.934" y1="105" x2="735.934" y2="116.406" stroke="#6B6D85" stroke-width="0.5" stroke-dasharray="2 2"/>
<path d="M728.238 96.9207V116.089" stroke="#6B6D85" stroke-width="0.5" stroke-dasharray="2 2"/>
<line x1="704.567" y1="72.6831" x2="704.567" y2="116.406" stroke="#6B6D85" stroke-width="0.5" stroke-dasharray="2 2"/>
<path d="M735.842 118.307L735.842 121.95L728.238 121.95M704.634 118.307L704.634 121.95L728.238 121.95M728.238 121.95L728.238 118.307" stroke="#4F5162" stroke-width="0.5"/>
<path d="M732.203 133.307C733.655 133.307 734.667 132.459 734.674 131.276C734.667 130.356 734.053 129.575 733.268 129.429V129.387C733.95 129.209 734.397 128.542 734.404 127.768C734.397 126.66 733.467 125.836 732.203 125.836C730.924 125.836 729.994 126.66 730.001 127.768C729.994 128.542 730.441 129.209 731.137 129.387V129.429C730.338 129.575 729.724 130.356 729.731 131.276C729.724 132.459 730.736 133.307 732.203 133.307ZM732.203 132.526C731.205 132.526 730.591 132.015 730.598 131.233C730.591 130.413 731.269 129.827 732.203 129.827C733.122 129.827 733.801 130.413 733.808 131.233C733.801 132.015 733.186 132.526 732.203 132.526ZM732.203 129.074C731.407 129.074 730.846 128.577 730.853 127.824C730.846 127.086 731.386 126.603 732.203 126.603C733.005 126.603 733.545 127.086 733.552 127.824C733.545 128.577 732.984 129.074 732.203 129.074Z" fill="#6B6D85"/>
<path d="M709.368 133.525H713.956V132.743H710.575V132.687L712.209 130.939C713.459 129.601 713.828 128.976 713.828 128.17C713.828 127.047 712.919 126.152 711.641 126.152C710.366 126.152 709.396 127.019 709.396 128.297H710.235C710.235 127.47 710.771 126.92 711.612 126.92C712.401 126.92 713.004 127.402 713.004 128.17C713.004 128.841 712.61 129.338 711.769 130.258L709.368 132.885V133.525ZM715.096 132.033H718.519V133.525H719.357V132.033H720.352V131.252H719.357V126.252H718.292L715.096 131.309V132.033ZM718.519 131.252H716.048V131.195L718.463 127.374H718.519V131.252Z" fill="#6B6D85"/>
<ellipse cx="704.476" cy="72.8415" rx="0.792078" ry="0.792081" fill="#6B6D85"/>
<path d="M672 30.8615C672 32.6245 672 34.8558 672 32.1011H693.494H736V33.0652V30.8615" stroke="#4F5162" stroke-width="0.5"/>
<path d="M688.801 14.1193C690.565 14.1406 691.716 12.8111 691.716 11.1875C691.716 9.5 690.467 8.28977 688.972 8.28977C688.072 8.28977 687.301 8.72869 686.824 9.44886H686.756C686.76 7.32244 687.587 6.09091 688.938 6.09091C689.858 6.09091 690.412 6.67045 690.608 7.45455H691.648C691.435 6.09943 690.403 5.15341 688.938 5.15341C686.973 5.15341 685.767 6.89205 685.767 9.97727C685.767 13.2031 687.369 14.1023 688.801 14.1193ZM688.801 13.1818C687.706 13.1818 686.905 12.2486 686.909 11.2045C686.913 10.1605 687.753 9.22727 688.835 9.22727C689.905 9.22727 690.693 10.1051 690.693 11.1875C690.693 12.2955 689.871 13.1818 688.801 13.1818ZM693.187 12.2102H697.295V14H698.301V12.2102H699.494V11.2727H698.301V5.27273H697.022L693.187 11.3409V12.2102ZM697.295 11.2727H694.329V11.2045L697.227 6.61932H697.295V11.2727ZM702.778 10.1818H703.597L703.528 8.30682L705.114 9.3125L705.523 8.59659L703.852 7.72727L705.523 6.85795L705.114 6.14205L703.528 7.14773L703.597 5.27273H702.778L702.847 7.14773L701.261 6.14205L700.852 6.85795L702.523 7.72727L700.852 8.59659L701.261 9.3125L702.847 8.30682L702.778 10.1818ZM709.989 14.1193C711.753 14.1406 712.903 12.8111 712.903 11.1875C712.903 9.5 711.655 8.28977 710.159 8.28977C709.26 8.28977 708.489 8.72869 708.011 9.44886H707.943C707.947 7.32244 708.774 6.09091 710.125 6.09091C711.045 6.09091 711.599 6.67045 711.795 7.45455H712.835C712.622 6.09943 711.591 5.15341 710.125 5.15341C708.161 5.15341 706.955 6.89205 706.955 9.97727C706.955 13.2031 708.557 14.1023 709.989 14.1193ZM709.989 13.1818C708.893 13.1818 708.092 12.2486 708.097 11.2045C708.101 10.1605 708.94 9.22727 710.023 9.22727C711.092 9.22727 711.881 10.1051 711.881 11.1875C711.881 12.2955 711.058 13.1818 709.989 13.1818ZM714.375 12.2102H718.483V14H719.488V12.2102H720.681V11.2727H719.488V5.27273H718.21L714.375 11.3409V12.2102ZM718.483 11.2727H715.517V11.2045L718.414 6.61932H718.483V11.2727Z" fill="#6B6D85"/>
<rect x="465" y="46.5" width="100" height="100" stroke="#6B6D85" stroke-width="0.5" stroke-dasharray="2 2"/>
<rect x="477.25" y="58.75" width="75.5" height="75.5" fill="#9293AB" stroke="#6B6D85" stroke-width="0.5" stroke-dasharray="2 2"/>
<g opacity="0.9">
<path fill-rule="evenodd" clip-rule="evenodd" d="M509.247 135.701L510.383 136.347C511.541 136.99 512.846 137.317 514.169 137.296C515.466 137.304 516.744 136.977 517.879 136.347L519.015 135.701C537.056 125.496 548.224 106.336 548.244 85.5562V85.0244C548.268 82.2857 546.822 79.7457 544.458 78.3764L538.337 74.9199L514.392 111.359C513.968 111.816 513.367 112.08 512.733 112.088C512.081 112.086 511.481 111.83 511.052 111.381L500.012 99.9614C499.456 99.3853 499.149 98.7882 499.494 97.8085C500.012 96.3327 501.354 95.7001 502.304 95.7001C503.228 95.7001 503.431 95.9108 503.951 96.451C503.967 96.4668 503.982 96.483 503.998 96.4994L512.256 104.614C512.48 104.834 512.849 104.795 513.023 104.534L534.224 72.5969L517.955 63.409C515.612 62.0518 512.726 62.0518 510.383 63.409L483.88 78.3764C481.516 79.7457 480.07 82.2857 480.094 85.0244V85.5562C480.099 106.32 491.236 125.476 509.247 135.701Z" fill="white"/>
</g>
<line x1="564.75" y1="147" x2="564.75" y2="165" stroke="#6B6D85" stroke-width="0.5" stroke-dasharray="2 2"/>
<path d="M552.75 134.25L552.75 164.5" stroke="#6B6D85" stroke-width="0.5" stroke-dasharray="2 2"/>
<line x1="515.25" y1="96" x2="515.25" y2="165" stroke="#6B6D85" stroke-width="0.5" stroke-dasharray="2 2"/>
<path d="M564.75 168L564.75 173.75L552.75 173.75M515.5 168L515.5 173.75L552.75 173.75M552.75 173.75L552.75 168" stroke="#4F5162" stroke-width="0.5"/>
<path d="M556.943 179.727H556.063L554.245 180.935V181.83L556.02 180.651H556.063V187H556.943V179.727ZM561.308 187.099C562.693 187.099 563.708 186.077 563.708 184.685C563.708 183.275 562.728 182.241 561.393 182.241C560.903 182.241 560.427 182.415 560.129 182.653H560.086L560.342 180.509H563.382V179.727H559.603L559.163 183.307L559.987 183.406C560.289 183.19 560.804 183.033 561.251 183.037C562.178 183.044 562.856 183.747 562.856 184.699C562.856 185.633 562.203 186.318 561.308 186.318C560.562 186.318 559.969 185.839 559.902 185.182H559.049C559.103 186.29 560.058 187.099 561.308 187.099Z" fill="#6B6D85"/>
<path d="M525.832 186.009H529.256V187.5H530.094V186.009H531.088V185.227H530.094V180.227H529.028L525.832 185.284V186.009ZM529.256 185.227H526.784V185.17L529.199 181.349H529.256V185.227ZM534.692 187.599C536.077 187.599 537.092 186.577 537.092 185.185C537.092 183.775 536.112 182.741 534.777 182.741C534.287 182.741 533.811 182.915 533.513 183.153H533.47L533.726 181.009H536.765V180.227H532.987L532.547 183.807L533.371 183.906C533.672 183.69 534.187 183.533 534.635 183.537C535.562 183.544 536.24 184.247 536.24 185.199C536.24 186.133 535.586 186.818 534.692 186.818C533.946 186.818 533.353 186.339 533.285 185.682H532.433C532.486 186.79 533.442 187.599 534.692 187.599Z" fill="#6B6D85"/>
<circle cx="515.25" cy="96.25" r="1.25" fill="#6B6D85"/>
<path d="M464 30C464 32.7823 464 36.3036 464 31.9563H497.92H565V33.4778V30" stroke="#4F5162" stroke-width="0.5"/>
<path d="M490.972 7.27273H489.915L487.733 8.72159V9.79545L489.864 8.38068H489.915V16H490.972V7.27273ZM496.328 16.1193C498.254 16.1193 499.362 14.4872 499.362 11.6364C499.362 8.80682 498.237 7.15341 496.328 7.15341C494.419 7.15341 493.294 8.80682 493.294 11.6364C493.294 14.4872 494.402 16.1193 496.328 16.1193ZM496.328 15.1818C495.058 15.1818 494.317 13.9077 494.317 11.6364C494.317 9.36932 495.067 8.07386 496.328 8.07386C497.589 8.07386 498.339 9.36932 498.339 11.6364C498.339 13.9077 497.598 15.1818 496.328 15.1818ZM503.828 16.1193C505.754 16.1193 506.862 14.4872 506.862 11.6364C506.862 8.80682 505.737 7.15341 503.828 7.15341C501.919 7.15341 500.794 8.80682 500.794 11.6364C500.794 14.4872 501.902 16.1193 503.828 16.1193ZM503.828 15.1818C502.558 15.1818 501.817 13.9077 501.817 11.6364C501.817 9.36932 502.567 8.07386 503.828 8.07386C505.089 8.07386 505.839 9.36932 505.839 11.6364C505.839 13.9077 505.098 15.1818 503.828 15.1818ZM510.169 12.1818H510.987L510.919 10.3068L512.504 11.3125L512.913 10.5966L511.243 9.72727L512.913 8.85795L512.504 8.14205L510.919 9.14773L510.987 7.27273H510.169L510.237 9.14773L508.652 8.14205L508.243 8.85795L509.913 9.72727L508.243 10.5966L508.652 11.3125L510.237 10.3068L510.169 12.1818ZM517.55 7.27273H516.493L514.311 8.72159V9.79545L516.442 8.38068H516.493V16H517.55V7.27273ZM522.906 16.1193C524.832 16.1193 525.94 14.4872 525.94 11.6364C525.94 8.80682 524.815 7.15341 522.906 7.15341C520.997 7.15341 519.872 8.80682 519.872 11.6364C519.872 14.4872 520.98 16.1193 522.906 16.1193ZM522.906 15.1818C521.636 15.1818 520.895 13.9077 520.895 11.6364C520.895 9.36932 521.645 8.07386 522.906 8.07386C524.168 8.07386 524.918 9.36932 524.918 11.6364C524.918 13.9077 524.176 15.1818 522.906 15.1818ZM530.406 16.1193C532.332 16.1193 533.44 14.4872 533.44 11.6364C533.44 8.80682 532.315 7.15341 530.406 7.15341C528.497 7.15341 527.372 8.80682 527.372 11.6364C527.372 14.4872 528.48 16.1193 530.406 16.1193ZM530.406 15.1818C529.136 15.1818 528.395 13.9077 528.395 11.6364C528.395 9.36932 529.145 8.07386 530.406 8.07386C531.668 8.07386 532.418 9.36932 532.418 11.6364C532.418 13.9077 531.676 15.1818 530.406 15.1818Z" fill="#6B6D85"/>
<rect x="851.316" y="30.1584" width="31.6832" height="31.6832" stroke="#6B6D85" stroke-width="0.5" stroke-dasharray="2 2"/>
<rect x="855.026" y="33.8689" width="24.2624" height="24.2624" fill="#9293AB" stroke="#6B6D85" stroke-width="0.5" stroke-dasharray="2 2"/>
<g opacity="0.9">
<path fill-rule="evenodd" clip-rule="evenodd" d="M866.581 37.5527C870.133 37.5527 873.12 39.7883 874.008 43.1417C876.914 43.461 879.094 45.8563 879.094 48.7306C879.094 51.8445 876.591 54.3196 873.443 54.3196H859.315C856.893 54.3196 854.875 52.3235 854.875 49.9282C854.875 47.6128 856.651 45.6966 858.911 45.5369V45.1377C858.911 40.9859 862.383 37.5527 866.581 37.5527ZM867.715 46.0456L867.945 46.1028C868.564 46.2512 870.012 46.5988 870.012 48.1139C870.012 49.3623 869.073 50.1829 867.528 50.3279V50.9539C867.528 51.0764 867.426 51.1758 867.301 51.1758H866.734C866.608 51.1758 866.507 51.0764 866.507 50.9539V50.3229C865.719 50.2366 865.039 49.9522 864.594 49.5123C864.181 49.1036 863.967 48.5759 863.957 47.9425H865.365C865.404 48.7812 866.04 49.2789 867.083 49.2789C867.44 49.2789 868.605 49.2081 868.605 48.2961C868.605 47.5668 867.739 47.3592 866.823 47.1395C866.666 47.1021 866.507 47.0639 866.348 47.0224C865.311 46.7546 864.205 46.3589 864.205 45.046C864.205 43.7406 865.337 43.077 866.507 42.9598V42.3157C866.507 42.1931 866.608 42.0937 866.734 42.0937H867.301C867.426 42.0937 867.528 42.1932 867.528 42.3157V42.9851C868.422 43.108 869.718 43.5542 869.762 45.106H868.35C868.276 44.3704 867.772 44.0125 866.813 44.0125C866.259 44.0125 865.612 44.2487 865.612 44.9143C865.612 45.5175 865.974 45.6085 867.715 46.0456Z" fill="white"/>
</g>
<line x1="883.092" y1="62" x2="883.092" y2="67.703" stroke="#6B6D85" stroke-width="0.5" stroke-dasharray="2 2"/>
<path d="M879.119 57.9603V67.5445" stroke="#6B6D85" stroke-width="0.5" stroke-dasharray="2 2"/>
<line x1="867.408" y1="45.8416" x2="867.408" y2="67.7029" stroke="#6B6D85" stroke-width="0.5" stroke-dasharray="2 2"/>
<path d="M882.921 68.6534L882.921 70.4752L879.119 70.4752M867.317 68.6534L867.317 70.4752L879.119 70.4752M879.119 70.4752L879.119 68.6534" stroke="#4F5162" stroke-width="0.5"/>
<path d="M878.582 81.5084H882.006V82.9999H882.844V81.5084H883.838V80.7272H882.844V75.7272H881.778L878.582 80.784V81.5084ZM882.006 80.7272H879.534V80.6703L881.949 76.8493H882.006V80.7272Z" fill="#6B6D85"/>
<ellipse cx="867.237" cy="45.9208" rx="0.396038" ry="0.396041" fill="#6B6D85"/>
<path d="M851 24.9307C851 25.8122 851 26.9278 851 25.5505H861.747H883V26.0325V24.9307" stroke="#4F5162" stroke-width="0.5"/>
<path d="M851.852 14.1193C853.544 14.1193 854.801 13.0582 854.801 11.6307C854.801 10.5227 854.145 9.71733 853.045 9.53409V9.46591C853.928 9.19744 854.477 8.47301 854.477 7.48864C854.477 6.25284 853.501 5.15341 851.886 5.15341C850.378 5.15341 849.125 6.08239 849.074 7.45455H850.097C850.135 6.58523 850.962 6.07386 851.869 6.07386C852.832 6.07386 853.455 6.65767 853.455 7.53977C853.455 8.46023 852.734 9.05682 851.699 9.05682H851V9.99432H851.699C853.024 9.99432 853.761 10.6676 853.761 11.6307C853.761 12.5554 852.956 13.1818 851.835 13.1818C850.825 13.1818 850.024 12.6619 849.96 11.8182H848.886C848.95 13.1903 850.161 14.1193 851.852 14.1193ZM856.544 14H862.05V13.0625H857.993V12.9943L859.953 10.8977C861.453 9.29119 861.896 8.54119 861.896 7.57386C861.896 6.22727 860.805 5.15341 859.271 5.15341C857.741 5.15341 856.578 6.19318 856.578 7.72727H857.584C857.584 6.73438 858.227 6.07386 859.237 6.07386C860.183 6.07386 860.908 6.65341 860.908 7.57386C860.908 8.37926 860.435 8.97585 859.425 10.0795L856.544 13.233V14ZM865.497 10.1818H866.315L866.247 8.30682L867.832 9.3125L868.241 8.59659L866.571 7.72727L868.241 6.85795L867.832 6.14205L866.247 7.14773L866.315 5.27273H865.497L865.565 7.14773L863.98 6.14205L863.571 6.85795L865.241 7.72727L863.571 8.59659L863.98 9.3125L865.565 8.30682L865.497 10.1818ZM872.759 14.1193C874.45 14.1193 875.707 13.0582 875.707 11.6307C875.707 10.5227 875.051 9.71733 873.952 9.53409V9.46591C874.834 9.19744 875.384 8.47301 875.384 7.48864C875.384 6.25284 874.408 5.15341 872.793 5.15341C871.284 5.15341 870.031 6.08239 869.98 7.45455H871.003C871.041 6.58523 871.868 6.07386 872.776 6.07386C873.739 6.07386 874.361 6.65767 874.361 7.53977C874.361 8.46023 873.641 9.05682 872.605 9.05682H871.906V9.99432H872.605C873.93 9.99432 874.668 10.6676 874.668 11.6307C874.668 12.5554 873.862 13.1818 872.741 13.1818C871.732 13.1818 870.93 12.6619 870.866 11.8182H869.793C869.857 13.1903 871.067 14.1193 872.759 14.1193ZM877.45 14H882.956V13.0625H878.899V12.9943L880.859 10.8977C882.359 9.29119 882.803 8.54119 882.803 7.57386C882.803 6.22727 881.712 5.15341 880.178 5.15341C878.648 5.15341 877.484 6.19318 877.484 7.72727H878.49C878.49 6.73438 879.134 6.07386 880.143 6.07386C881.089 6.07386 881.814 6.65341 881.814 7.57386C881.814 8.37926 881.341 8.97585 880.331 10.0795L877.45 13.233V14Z" fill="#6B6D85"/>
<defs>
<clipPath id="clip0">
<rect width="75.6406" height="75.6406" fill="white" transform="translate(300.875 58.875)"/>
</clipPath>
</defs>
</svg>
