<svg width="64" height="64" viewBox="0 0 64 64" fill="none" xmlns="http://www.w3.org/2000/svg">
<path d="M59.0083 20.4303L43.3811 4.68944C41.5304 2.92934 39.326 1.58907 36.9166 0.759052C31.5775 -1.02925 26.264 0.366646 21.9607 4.68944L6.2951 20.4303C4.54555 22.2922 3.21332 24.5099 2.38828 26.9338C0.604318 32.3052 1.99185 37.6508 6.2951 41.9736L21.9415 57.7145C23.7892 59.4752 25.9917 60.8157 28.3996 61.6449C29.8583 62.1409 31.3869 62.3972 32.9266 62.4039C36.68 62.4039 40.2735 60.8086 43.3555 57.7145L58.9955 41.9736C60.7474 40.1123 62.0818 37.8946 62.9087 35.4701C64.6863 30.0987 63.2988 24.7596 58.9955 20.4303H59.0083ZM33.8538 9.25669C35.0358 9.63793 36.125 10.2647 37.0509 11.0965L41.6738 15.7537L32.6581 24.8175L23.6424 15.7473L28.2909 11.0643C29.5378 9.81633 31.2961 8.49119 33.8666 9.25025L33.8538 9.25669ZM10.8477 29.983C11.2279 28.793 11.8532 27.697 12.6828 26.7666L17.3058 22.1157L26.3215 31.1859L17.2994 40.256L12.6509 35.573C11.404 34.325 10.0932 32.556 10.8413 29.9701L10.8477 29.983ZM31.4496 53.1279C30.2661 52.7501 29.1762 52.1229 28.2525 51.2882L23.6424 46.6888L32.6581 37.6122L41.6738 46.6823L37.0253 51.3653C35.7784 52.6133 34.0264 53.9384 31.4496 53.1794V53.1279ZM54.4685 32.4467C54.0885 33.6353 53.4656 34.7309 52.6398 35.663L48.0168 40.256L39.0011 31.1859L48.0168 22.1157L52.6653 26.7923C53.9122 28.0403 55.223 29.8093 54.4749 32.3952" fill="#00ADE4"/>
</svg>
