<svg xmlns="http://www.w3.org/2000/svg" width="24" height="24" fill="none" viewBox="0 0 24 24">
  <g clip-path="url(#clip0)">
    <path fill="#B7CA9D" d="M22.187 16.494l-10.59-1.555L1 16.496l10.594 3.926 10.593-3.928z"/>
    <path fill="#4B612C" d="M3.12 16.313l1.79.56.164-.186V4.161l-.163-.213-1.79.684v11.68z"/>
    <path fill="#759C3E" d="M11.249 15.76L4.91 16.871V3.948l6.338 1.425V15.76z"/>
    <path fill="#4B612C" d="M8.423 17.95l-2.47-.762V1.235L8.423 0l.216.236v17.45l-.216.264z"/>
    <path fill="#759C3E" d="M16.887 15.964l-8.464 1.985V0l8.464 3.3v12.664z"/>
    <path fill="#4B612C" d="M11.59 20.252L1 16.496v2.179l10.59 5.295v-3.718z"/>
    <path fill="#759C3E" d="M22.187 18.672L11.59 23.97v-3.718l10.596-3.758v2.178z"/>
    <path fill="#B7CA9D" d="M19.21 12.885h-2.567l-7.32.499 2.27.418 7.618-.917z"/>
    <path fill="#4B612C" d="M9.323 18.199l2.27.68.065-.07-.002-5.118-.065-.063-2.268-.245V18.2z"/>
    <path fill="#759C3E" d="M19.21 12.885l-7.62.743.003 5.252 7.618-2.293v-3.702z"/>
  </g>
  <defs>
    <clipPath id="clip0">
      <path fill="#fff" d="M0 0h21.187v24H0z" transform="translate(1)"/>
    </clipPath>
  </defs>
</svg>
