<svg viewBox="0 0 64 64" fill="none" xmlns="http://www.w3.org/2000/svg">
<path opacity="0.5" d="M54.2267 29.2401C54.2267 41.5481 44.249 53.1753 31.941 53.1753C19.6329 53.1753 9.65527 41.5481 9.65527 29.2401C9.65527 16.932 19.6329 6.95435 31.941 6.95435C44.249 6.95435 54.2267 16.932 54.2267 29.2401Z" fill="currentColor"/>
<path d="M13.4568 17.1584C17.4584 8.97909 25.3906 4.87301 33.7752 5.8583C55.5426 8.41622 63.1706 35.9777 45.4563 50.2635C24.9963 57.7651 4.88518 39.4063 13.4568 17.1584Z" stroke="black" stroke-linecap="round" stroke-linejoin="round"/>
<path d="M20.8848 9.12109C22.0276 25.6925 31.5759 47.6166 45.2021 49.3749" stroke="black" stroke-linecap="round" stroke-linejoin="round"/>
<path d="M22.0283 8.54956C32.8855 14.2638 42.0283 33.121 45.6428 49.3748" stroke="black" stroke-linecap="round" stroke-linejoin="round"/>
<path d="M20.3138 9.12109C18.4319 11.5801 7.17068 48.5497 44.8871 50.2628" stroke="black" stroke-linecap="round" stroke-linejoin="round"/>
<path d="M22.5996 7.97772C32.8853 5.69189 59.171 23.978 46.0282 49.692" stroke="black" stroke-linecap="round" stroke-linejoin="round"/>
<path d="M11.7422 23.9774C27.7422 27.406 38.7648 20.8658 42.5993 8.54883" stroke="black" stroke-linecap="round" stroke-linejoin="round"/>
<path d="M12.8857 36.5488C26.6 43.406 52.8857 32.5488 51.1715 16.5488" stroke="black" stroke-linecap="round" stroke-linejoin="round"/>
<path d="M23.1709 48.5494C36.8852 51.4065 52.3035 41.0427 55.1709 30.2637" stroke="black" stroke-linecap="round" stroke-linejoin="round"/>
<path d="M45.259 45.3513L36.9814 56.7329L45.259 53.1429L54.5713 58.2852C53.0192 53.4566 51.7984 44.0005 52.5019 43.7994C56.1233 42.7645 57.6754 40.1786 58.1927 37.0745C58.7101 33.9705 51.9845 29.3135 48.3631 33.9696C45.466 37.6945 47.8458 41.385 49.3978 42.7645L36.9814 36.5564L45.259 45.3513Z" fill="white"/>
<path d="M45.7761 45.3518C42.672 49.4906 38.6123 54.6574 35.4287 58.286C37.9049 56.1907 43.543 52.3431 46.2859 53.7145C49.0287 55.086 53.143 58.0955 54.8573 59.4288" stroke="black" stroke-linecap="round" stroke-linejoin="round"/>
<path d="M54.858 60.0007C53.3053 54.8272 52.502 48.9733 52.502 43.7998" stroke="black" stroke-linecap="round" stroke-linejoin="round"/>
<path d="M46.8112 39.1472C46.1887 35.7243 49.3967 32.9358 51.4674 32.418C54.5715 31.6419 59.3669 33.4965 58.1962 38.6251C56.1236 45.3553 47.8459 44.838 46.8112 39.1472Z" stroke="black" stroke-linecap="round" stroke-linejoin="round"/>
<path d="M48.3624 42.2476C42.7464 40.1416 40.2512 38.8803 35.4287 35.2634L45.7757 45.3517" stroke="black" stroke-linecap="round" stroke-linejoin="round"/>
<path d="M47.4287 36.572C47.8848 38.7573 50.8349 39.8722 53.7144 39.4292" stroke="black" stroke-linecap="round" stroke-linejoin="round"/>
<path d="M21.117 44.2085L29.3945 55.5901L21.117 52L11.8047 57.1424C13.3567 52.3138 14.5776 42.8576 13.8741 42.6566C10.2526 41.6217 8.70061 39.0358 8.18326 35.9317C7.66591 32.8276 14.3914 28.1707 18.0129 32.8268C20.91 36.5517 18.5302 40.2421 16.9782 41.6217L29.3945 35.4135L21.117 44.2085Z" fill="white"/>
<path d="M20.5999 44.209C23.704 48.3478 27.7637 53.5146 30.9473 57.1431C28.4711 55.0479 22.833 51.2003 20.0901 52.5717C17.3473 53.9431 13.233 56.9527 11.5187 58.286" stroke="black" stroke-linecap="round" stroke-linejoin="round"/>
<path d="M11.4276 58.8579C12.9802 53.6844 13.874 47.8305 13.874 42.657" stroke="black" stroke-linecap="round" stroke-linejoin="round"/>
<path d="M19.5648 38.0043C20.1873 34.5814 16.9793 31.7929 14.9086 31.2752C11.8045 30.4991 7.00906 32.3537 8.17972 37.4822C10.2524 44.2125 18.5301 43.6952 19.5648 38.0043Z" stroke="black" stroke-linecap="round" stroke-linejoin="round"/>
<path d="M18.0136 41.1048C23.6295 38.9988 26.1247 37.7375 30.9473 34.1206L20.6003 44.2089" stroke="black" stroke-linecap="round" stroke-linejoin="round"/>
<path d="M18.9473 35.4292C18.4912 37.6145 15.541 38.7293 12.6616 38.2863" stroke="black" stroke-linecap="round" stroke-linejoin="round"/>
</svg>
