<svg width="64" height="64" viewBox="0 0 64 64" fill="none" xmlns="http://www.w3.org/2000/svg">
<g opacity="0.9">
<path fill-rule="evenodd" clip-rule="evenodd" d="M55 31.5C55 34.7696 54.2848 37.937 53.0587 40.7978L44.5783 32.4196C45.6 30.7848 46.1109 28.8435 46.1109 26.8C46.213 20.9761 41.4109 16.1739 35.4848 16.1739C33.3391 16.1739 31.3978 16.787 29.763 17.8087L21.8957 10.0435C24.8587 8.71522 28.0261 8 31.5 8C44.4761 8 55 18.5239 55 31.5ZM18.6261 11.8826L27.1065 20.363C25.6761 22.2022 24.8587 24.45 24.8587 26.9022C24.8587 32.8283 29.6609 37.6304 35.587 37.6304C38.0391 37.6304 40.287 36.813 42.1261 35.3826L51.2196 44.4761C46.9283 50.8109 39.7761 55 31.5 55C18.5239 55 8 44.4761 8 31.5C8 23.2239 12.1891 16.0717 18.6261 11.8826ZM35.587 33.5435C39.5717 33.5435 42.7391 30.3761 42.7391 26.3913C42.7391 22.4065 39.5717 19.2391 35.587 19.2391C31.6022 19.2391 28.4348 22.4065 28.4348 26.3913C28.4348 30.3761 31.6022 33.5435 35.587 33.5435Z" fill="url(#paint0_linear)"/>
</g>
<defs>
<linearGradient id="paint0_linear" x1="17.2938" y1="9.50962" x2="46.5966" y2="54.8688" gradientUnits="userSpaceOnUse">
<stop stop-color="#73DFE7"/>
<stop offset="1" stop-color="#0095F7"/>
</linearGradient>
</defs>
</svg>
