<svg width="64" height="64" viewBox="0 0 64 64" fill="none" xmlns="http://www.w3.org/2000/svg">
<g opacity="0.9">
<path d="M31.5002 11.8108C42.3785 11.8108 51.1894 20.6217 51.1894 31.5C51.1894 42.0935 42.8339 50.7264 32.3503 51.1712L25.353 39.1042L25.5334 39.4134L25.9591 40.1391C25.9591 40.1391 27.1674 38.4172 30.074 37.6445C35.1097 36.306 35.5924 38.0932 40.625 36.7556C43.7735 35.9186 46.5513 33.6449 46.5513 33.6449L38.7039 21.1145C38.7039 21.1145 35.9252 23.3849 32.7766 24.2219C27.7409 25.5604 27.2582 23.7732 22.2258 25.1109L21.8562 25.222C20.0267 26.0397 19.3585 26.7078 18.6904 27.3759L18.0223 28.0441C18.0223 28.0441 17.6344 28.3609 17.5051 28.4362C16.941 28.7602 16.8739 30.2147 17.3185 30.9816L29.4675 53.8731C29.7587 54.3753 30.0235 54.8242 30.6159 54.9923C30.6341 55.0921 30.8876 54.8922 30.8911 54.9923C30.6159 55.0841 31.2966 55 31.5002 55C44.4821 55 55.0002 44.4819 55.0002 31.5C55.0002 18.5181 44.4821 8 31.5002 8C18.5184 8 8.00024 18.5181 8.00024 31.5C8.00024 42.5512 16.3287 51.9989 26.6044 54.5104L23.804 49.6146L23.6914 49.3936L23.6669 49.3505C17.0437 46.1805 11.8111 39.3361 11.8111 31.5C11.8111 20.6217 20.622 11.8108 31.5002 11.8108Z" fill="url(#paint0_linear)"/>
</g>
<defs>
<linearGradient id="paint0_linear" x1="16.3188" y1="8" x2="45.4874" y2="53.1176" gradientUnits="userSpaceOnUse">
<stop stop-color="#FFC100"/>
<stop offset="1" stop-color="#E66B35"/>
</linearGradient>
</defs>
</svg>
