<svg xmlns="http://www.w3.org/2000/svg" width="24" height="24" fill="none" viewBox="0 0 24 24">
  <path fill="#009" d="M4.992 11.12v2.49H4.41v-.27c-.132.216-.372.336-.732.336-.588 0-.882-.306-.882-.792V11.12h.636v1.602c0 .258.138.414.414.414.318 0 .51-.18.51-.516v-1.5h.636zm4.122.75v1.74h-.636v-1.548c0-.294-.12-.48-.396-.48s-.438.204-.438.492v1.53h-.636v-1.548c0-.318-.132-.48-.396-.48-.282 0-.438.204-.438.492v1.53h-.63V11.12h.588v.276c.144-.24.384-.36.708-.36.318 0 .558.132.69.366.168-.246.42-.366.744-.366.54 0 .84.318.84.834zm5.088 1.734h-.636v-3.456h.636v3.456zm6.882 0h-.636V11.12h.636v2.484zm-.648-2.862h.654v-.606h-.654v.606zm3.024 2.016c-.258.276-.438.384-.678.384-.282 0-.486-.162-.576-.42v-.726c.096-.258.294-.426.588-.426.21 0 .378.072.648.324l.396-.39c-.318-.348-.624-.474-1.044-.474-.582 0-1.032.306-1.206.816v1.02c.174.51.612.81 1.188.81.45 0 .756-.15 1.104-.576l-.42-.342zm-22.038-.684c-.174-.036-.294-.072-.366-.084a.388.388 0 01-.186-.102v-.192c.06-.09.198-.15.39-.15.27 0 .456.06.744.294l.342-.414c-.348-.288-.642-.39-1.074-.39-.492 0-.834.204-.972.492v.624c.108.21.354.33.846.438.18.042.294.072.366.084.09.03.174.066.216.132v.216c-.06.096-.21.15-.402.15a.925.925 0 01-.402-.078c-.126-.048-.27-.144-.45-.294l-.354.414c.396.348.732.468 1.206.468.504 0 .864-.192 1.002-.504v-.63c-.12-.234-.396-.36-.906-.474zm9.354-1.044c-.57 0-1.02.306-1.206.804v1.044c.18.492.636.804 1.206.804s1.02-.306 1.2-.798v-1.056c-.186-.486-.636-.798-1.2-.798zm.588 1.692a.6.6 0 01-.588.42.617.617 0 01-.594-.42v-.732a.607.607 0 01.594-.426c.282 0 .486.162.588.426v.732zM15.9 11.03c-.57 0-1.02.306-1.206.804v1.044c.186.492.636.804 1.206.804s1.02-.306 1.2-.798v-1.056c-.18-.486-.63-.798-1.2-.798zm.588 1.692a.6.6 0 01-.588.42c-.282 0-.492-.156-.594-.42v-.732a.607.607 0 01.594-.426c.288 0 .486.162.588.426v.732zm2.82-1.602v.276c-.162-.24-.414-.36-.756-.36-.468 0-.846.288-1.014.744v1.026c.162.456.54.744 1.014.744.318 0 .558-.108.726-.318v.198c0 .414-.24.606-.612.606-.276 0-.504-.084-.864-.294l-.306.456c.348.234.762.36 1.182.366.702 0 1.218-.372 1.218-1.074v-2.37h-.588zm-.078 1.512c-.096.234-.294.384-.54.384-.246 0-.444-.144-.54-.384v-.678c.096-.234.288-.378.54-.378.252 0 .444.144.54.378v.678z"/>
</svg>
