<svg width="24" height="24" viewBox="0 0 24 24" fill="none" xmlns="http://www.w3.org/2000/svg">
<path d="M12 18.5767C6.86004 18.5767 2.69141 14.4081 2.69141 9.26813C2.69141 4.12816 6.86004 0 12 0C17.14 0 21.3086 4.16863 21.3086 9.3086C21.3086 14.4486 17.0995 18.5767 12 18.5767ZM12 1.65936C7.75043 1.65936 4.35077 5.09949 4.35077 9.3086C4.35077 13.5177 7.75043 16.9578 12 16.9578C16.2496 16.9578 19.6492 13.5177 19.6492 9.3086C19.6492 5.09949 16.2091 1.65936 12 1.65936ZM2.81282 22.3406H21.3086V24H2.81282V22.3406Z" fill="#42A046"/>
</svg>
