<svg xmlns="http://www.w3.org/2000/svg" width="24" height="24" fill="none" viewBox="0 0 24 24">
  <g clip-path="url(#clip0)">
    <path fill="#fff" d="M15.229 7.319h.732l2.087-2.087.102-.885C14.268.92 8.342 1.29 4.915 5.172a9.362 9.362 0 00-2.02 3.75c.233-.096.49-.111.733-.045l4.171-.688s.213-.351.322-.33a5.205 5.205 0 017.123-.54h-.015z"/>
    <path fill="#fff" d="M21.02 8.921a9.398 9.398 0 00-2.834-4.567L15.26 7.281a5.204 5.204 0 011.91 4.129v.52a2.605 2.605 0 110 5.211h-5.212l-.52.527v3.126l.52.52h5.212a6.78 6.78 0 006.526-4.766A6.782 6.782 0 0021.02 8.92z"/>
    <path fill="#fff" d="M6.738 21.285h5.212v-4.172H6.738c-.371 0-.738-.08-1.076-.235l-.733.227-2.1 2.086-.183.733a6.745 6.745 0 004.092 1.36z"/>
    <path fill="#fff" d="M6.738 7.75A6.777 6.777 0 002.647 19.9l3.023-3.022a2.605 2.605 0 113.447-3.448l3.023-3.023A6.775 6.775 0 006.738 7.75z"/>
  </g>
  <defs>
    <clipPath id="clip0">
      <path fill="#fff" d="M0 0h24v19.314H0z" transform="translate(0 2)"/>
    </clipPath>
  </defs>
</svg>
