<svg width="24" height="24" viewBox="0 0 24 24" fill="none" xmlns="http://www.w3.org/2000/svg">
<g clip-path="url(#clip0)">
<path d="M7.01722 11.0191L3.18652 12.4129C3.23573 13.0271 3.34137 13.6337 3.49021 14.2281L7.12867 12.9031C7.01207 12.2889 6.97036 11.6546 7.01807 11.0191L7.01722 11.0191ZM23.9455 6.78332C23.6783 6.23227 23.3693 5.69969 23.0113 5.19775L19.1818 6.59154C19.6274 7.04745 20.0012 7.55979 20.3072 8.10775L23.9456 6.78313V6.78332H23.9455Z" fill="#DA2430"/>
<path d="M17.1504 6.76082C16.6687 6.34278 16.1245 5.98191 15.5188 5.69941H15.5185C11.9624 4.04148 7.71921 5.58393 6.0613 9.14142C5.96885 9.34006 5.88587 9.54296 5.81263 9.74946C5.60567 10.3515 5.48476 10.967 5.43855 11.5815L5.42505 11.5866L5.42402 11.6001L3.11861 12.439L1.63522 12.9872L1.63457 12.979L1.59389 12.9938C1.44992 11.1721 1.75698 9.29027 2.58303 7.51883C2.69039 7.28853 2.80565 7.06201 2.92862 6.83965C5.65188 1.76727 11.8484 -0.352938 17.0743 2.12214C18.1294 2.62158 19.0967 3.28866 19.9385 4.09744C20.4878 4.60583 20.9834 5.1693 21.4175 5.77898L17.588 7.17315C17.5682 7.15301 17.5484 7.13298 17.5285 7.11307L17.5179 7.11691C17.3996 6.99403 17.2771 6.87529 17.1505 6.76092L17.1504 6.76082Z" fill="#DA2430"/>
<path d="M1.80768 19.1741L1.80168 19.1763C1.00664 18.0565 0.426361 16.7987 0.090332 15.4671L3.72946 14.1417L3.72965 14.142L3.7319 14.1537L3.75552 14.145L3.75608 14.1464C3.94298 15.1362 4.33206 16.0806 4.89942 16.9109C5.11683 17.2213 5.35887 17.5136 5.62322 17.7851L5.60878 17.7904L5.63634 17.8193L1.84133 19.2224C1.83009 19.2064 1.81884 19.1903 1.80768 19.1741Z" fill="#E82429"/>
<path d="M16.2614 18.1947C14.2882 19.4148 11.7573 19.6506 9.50216 18.5989C8.7276 18.2383 8.02512 17.7399 7.42902 17.1278L3.60742 18.5191L3.63676 18.5601L3.63488 18.5609C4.68561 20.062 6.11894 21.3169 7.87771 22.1506C11.671 23.9467 15.9748 23.3223 19.0911 20.9054C20.4866 19.8602 21.6516 18.4669 22.4385 16.7794C23.2651 15.0084 23.5704 13.1273 23.4241 11.307L23.3176 11.3458C23.3162 11.3263 23.3148 11.3068 23.3132 11.2874L19.5181 12.6893L19.5182 12.6897C19.4562 13.548 19.2401 14.3881 18.8803 15.1698C18.2884 16.4589 17.3652 17.4857 16.2615 18.1947H16.2614Z" fill="#DA2430"/>
<path d="M20.4876 8.04206L20.5445 8.02125V8.02115C21.1446 9.25684 21.5087 10.5937 21.618 11.963L17.7965 13.3535L17.7985 13.325L17.7264 13.3517C17.8304 11.9374 17.5131 10.531 16.842 9.30968L20.4551 7.97401L20.4553 7.97363C20.4661 7.99641 20.4769 8.01919 20.4876 8.04206Z" fill="#E82429"/>
<path d="M7.02189 10.9968L3.21826 12.4024C3.267 13.022 3.37198 13.6337 3.51998 14.2332L7.13296 12.8967C7.01607 12.2761 6.97408 11.6372 7.02339 10.9964L7.02189 10.9968ZM23.8314 6.72532C23.5662 6.16958 23.2591 5.63259 22.9037 5.12634L19.1011 6.53195C19.5435 6.9918 19.9147 7.50845 20.2183 8.06119L23.8309 6.72495L23.8315 6.72532H23.8314Z" fill="#C22035"/>
<path d="M3.21812 12.4027L7.01256 11.0127L6.99709 11.7751L3.33632 13.1575L3.21765 12.4017L3.21812 12.4027ZM19.1017 6.52048L22.9553 5.19812L23.3558 5.80259L19.6116 7.12617L19.1022 6.5202L19.1017 6.52048Z" fill="#AC223B"/>
<path d="M3.63574 18.5466L7.43468 17.1641L8.58364 18.2482L4.59977 19.7437L3.63593 18.5462L3.63574 18.5466ZM23.3771 11.2975L19.5186 12.6888L19.2344 14.2333L23.3485 12.7671L23.3777 11.2977L23.3772 11.2975H23.3771Z" fill="#B92135"/>
</g>
<defs>
<clipPath id="clip0">
<rect width="24" height="22.2144" fill="white" transform="translate(0 1)"/>
</clipPath>
</defs>
</svg>
