<svg width="24" height="24" viewBox="0 0 24 24" fill="none" xmlns="http://www.w3.org/2000/svg">
<g clip-path="url(#clip0)">
<path d="M12.4842 2.38903C12.4936 2.79456 12.4536 3.19563 12.3511 3.58793C12.3234 3.69396 12.3486 3.71133 12.4479 3.72268C13.7434 3.87084 14.9478 4.28261 16.0489 4.98131C16.1784 5.06348 16.2037 5.01798 16.2511 4.90171C16.5705 4.11736 17.047 3.44203 17.6982 2.89484C17.9166 2.71132 18.1512 2.54889 18.4418 2.49601C18.7343 2.44276 18.9187 2.58415 18.9486 2.8814C18.9777 3.17102 18.9121 3.44627 18.8092 3.7128C18.4989 4.51604 18.0201 5.20416 17.365 5.76635C17.266 5.85132 17.2486 5.89236 17.3545 5.99051C17.8759 6.47404 18.3208 7.02205 18.7052 7.6198C18.7665 7.71512 18.7686 7.76334 18.663 7.82416C18.3564 8.00081 18.0537 8.18446 17.7544 8.37323C17.6554 8.43568 17.6045 8.43575 17.5366 8.32727C17.0968 7.62457 16.5438 7.02157 15.8849 6.51689C14.8168 5.69874 13.6158 5.19414 12.2715 5.07468C9.62786 4.83977 7.47812 5.77423 5.81759 7.83254C5.78589 7.87184 5.75516 7.91201 5.72579 7.95305C5.49171 8.28025 5.49188 8.2803 5.15974 8.06657C4.9365 7.92292 4.71542 7.77573 4.4888 7.63757C4.39062 7.57772 4.35859 7.5342 4.43566 7.42206C4.8238 6.85728 5.26548 6.33937 5.77568 5.88162C5.88012 5.78792 5.8915 5.74626 5.78258 5.64108C5.11259 4.99408 4.59929 4.24825 4.37032 3.33206C4.32848 3.16465 4.32234 2.99407 4.34877 2.8249C4.38677 2.58171 4.56692 2.45334 4.81109 2.48924C5.11795 2.53434 5.36297 2.70387 5.59196 2.89498C6.20446 3.40617 6.65963 4.03696 6.97986 4.76296C7.03953 4.89823 7.08272 4.90796 7.20647 4.83532C8.30227 4.19211 9.48423 3.81117 10.7536 3.71127C10.9205 3.69813 10.9402 3.64325 10.9086 3.48822C10.7363 2.64198 10.7404 1.79867 10.9949 0.965706C11.056 0.76558 11.1406 0.575572 11.2722 0.410548C11.5053 0.118148 11.7799 0.118679 12.0116 0.417121C12.2426 0.714691 12.3329 1.06961 12.4044 1.42975C12.4673 1.74629 12.4905 2.06664 12.4842 2.38903Z" fill="#27799F"/>
<path d="M10.7919 21.7432C10.8067 21.4224 10.8014 21.0996 10.8765 20.784C10.9042 20.6674 10.9077 20.599 10.7398 20.5844C9.44654 20.4718 8.24076 20.08 7.12754 19.4143C7.01156 19.3449 6.9796 19.371 6.92748 19.4797C6.60429 20.1535 6.17163 20.7471 5.59311 21.2277C5.37354 21.4101 5.13993 21.5737 4.84951 21.6271C4.55654 21.6809 4.37168 21.54 4.34146 21.2431C4.31198 20.9534 4.37916 20.6786 4.48004 20.4112C4.74237 19.7159 5.14621 19.1091 5.6744 18.5885C5.8016 18.4632 5.78147 18.408 5.66332 18.3023C5.26623 17.947 4.92541 17.5407 4.60766 17.1139C4.53608 17.0177 4.52838 16.9674 4.63748 16.8959C4.92828 16.7053 5.21472 16.5076 5.49555 16.3027C5.60068 16.226 5.65335 16.232 5.7319 16.3403C6.36132 17.208 7.14992 17.8998 8.09707 18.4053C9.52196 19.1657 11.037 19.433 12.6348 19.1729C14.5702 18.8579 16.1173 17.9004 17.2851 16.3341C17.3584 16.2358 17.4092 16.206 17.5211 16.2885C17.8009 16.4947 18.0884 16.6909 18.3789 16.8819C18.4807 16.9489 18.4963 16.9921 18.4185 17.0968C18.12 17.4984 17.8004 17.8812 17.4346 18.223C17.342 18.3095 17.3607 18.3452 17.4435 18.4229C18.1482 19.0833 18.6838 19.8502 18.9215 20.7994C18.9619 20.9603 18.9662 21.1249 18.9427 21.2881C18.9061 21.5419 18.7254 21.6717 18.4703 21.6325C18.1705 21.5865 17.9303 21.4211 17.7057 21.2348C17.0811 20.7166 16.6228 20.0727 16.2969 19.3351C16.2448 19.2172 16.2099 19.2077 16.1041 19.2759C15.002 19.986 13.7969 20.414 12.4929 20.5607C12.3691 20.5746 12.3761 20.6171 12.3938 20.716C12.5323 21.4886 12.5317 22.2591 12.3276 23.022C12.2589 23.2789 12.1653 23.5269 11.9894 23.7339C11.7652 23.998 11.5044 23.9996 11.2868 23.7281C11.0084 23.3807 10.9235 22.9589 10.8479 22.5352C10.801 22.273 10.8079 22.0073 10.7919 21.7432Z" fill="#27799F"/>
<path d="M18.2558 11.39C18.4869 12.6565 18.4892 13.9143 18.4826 15.1733C18.4817 15.3444 18.4356 15.3839 18.2714 15.3784C17.898 15.3657 17.5238 15.3694 17.1502 15.3772C17.0308 15.3797 17.0031 15.343 17.0033 15.2282C17.0068 13.2597 17.0069 11.2911 17.0032 9.3226C17.0029 9.19927 17.0359 9.16258 17.1611 9.16444C17.6361 9.17151 18.1115 9.17395 18.5864 9.16322C18.7291 9.16 18.7825 9.21427 18.8264 9.33772C19.2234 10.4529 19.6779 11.5483 19.9815 12.6954C19.9908 12.7303 20.0089 12.763 20.029 12.8114C20.1129 12.7014 20.125 12.5796 20.1561 12.4684C20.4579 11.3876 20.8695 10.3438 21.2307 9.28311C21.2631 9.18823 21.3148 9.16417 21.4105 9.1651C21.8983 9.16984 22.3862 9.17154 22.8739 9.16435C22.9976 9.16253 23.0186 9.2076 23.0184 9.31728C23.0156 11.2858 23.0157 13.2544 23.0183 15.2229C23.0184 15.3294 23.0037 15.3802 22.8767 15.3775C22.4777 15.369 22.0784 15.3693 21.6794 15.3774C21.5536 15.3799 21.5362 15.3304 21.5358 15.2224C21.5309 14.0428 21.5164 12.863 21.7101 11.6931C21.7224 11.6189 21.7201 11.5422 21.7225 11.4667C21.7229 11.4514 21.7136 11.4358 21.6963 11.3804C21.6338 11.5666 21.5824 11.7182 21.5319 11.8701C21.2122 12.8328 20.8385 13.776 20.4941 14.7298C20.4526 14.8448 20.3929 14.8838 20.2728 14.8778C20.0769 14.8681 19.88 14.8704 19.6838 14.8773C19.5926 14.8805 19.5482 14.8475 19.5178 14.7642C19.1253 13.6874 18.6936 12.6244 18.3716 11.5228C18.3585 11.4781 18.356 11.4221 18.2558 11.39Z" fill="#27799F"/>
<path d="M5.29428 12.2714C5.29428 13.2428 5.29177 14.2142 5.2971 15.1856C5.29787 15.3243 5.27629 15.3833 5.11569 15.3786C4.68537 15.366 4.25434 15.3692 3.82381 15.3774C3.6929 15.3799 3.65234 15.3477 3.65371 15.212C3.66077 14.5119 3.65338 13.8117 3.65998 13.1116C3.66132 12.9693 3.63272 12.9147 3.47468 12.9182C2.98091 12.9292 2.48656 12.9295 1.9928 12.9182C1.82698 12.9144 1.79762 12.972 1.79929 13.1221C1.80701 13.8159 1.79796 14.5098 1.80651 15.2036C1.80832 15.3502 1.76348 15.3804 1.62575 15.3776C1.18891 15.3688 0.751735 15.371 0.314789 15.3766C0.203592 15.3781 0.16259 15.3554 0.162843 15.2329C0.166915 13.2586 0.166858 11.2842 0.16296 9.30991C0.162721 9.18857 0.20227 9.16349 0.314733 9.16499C0.751675 9.17085 1.18886 9.17307 1.62569 9.16406C1.7648 9.16119 1.8083 9.19389 1.80638 9.33931C1.79786 9.98259 1.80732 10.6261 1.79927 11.2694C1.79739 11.4197 1.82727 11.4767 1.99277 11.4729C2.48653 11.4616 2.98088 11.4618 3.47465 11.4729C3.63267 11.4765 3.66149 11.4224 3.65999 11.28C3.65314 10.6304 3.66082 9.98058 3.65385 9.33096C3.65241 9.19663 3.69193 9.16181 3.82379 9.16431C4.25432 9.17248 4.68535 9.17567 5.11567 9.1631C5.27719 9.15838 5.29775 9.21928 5.29702 9.35726C5.29186 10.3286 5.29428 11.3 5.29428 12.2714Z" fill="#27799F"/>
<path d="M6.62811 12.2794C6.62811 11.3014 6.63065 10.3235 6.62514 9.34562C6.62438 9.21132 6.64808 9.16262 6.79825 9.16346C8.01453 9.17027 9.23088 9.16939 10.4472 9.16433C10.5831 9.16377 10.6353 9.18953 10.6303 9.33815C10.6185 9.68475 10.6208 10.0322 10.6294 10.379C10.6326 10.5069 10.5882 10.5356 10.4678 10.5346C9.79635 10.5295 9.12477 10.5362 8.45334 10.529C8.30875 10.5275 8.25806 10.5577 8.26157 10.7141C8.26909 11.0495 8.27128 10.9839 8.26213 11.3193C8.25815 11.4652 8.2935 11.5133 8.44846 11.5105C8.99943 11.5005 9.5508 11.5128 10.1018 11.5027C10.2575 11.4998 10.2907 11.5505 10.2868 11.694C10.2771 12.0471 10.2783 12.4007 10.2864 12.7538C10.2893 12.8789 10.2507 12.9139 10.1265 12.9125C9.5691 12.9064 9.01152 12.9142 8.45413 12.9069C8.31263 12.905 8.25844 12.9315 8.26121 13.0898C8.26569 13.3453 8.25776 13.599 8.26194 13.8465C8.26425 13.9831 8.30289 14.0136 8.43301 14.0125C9.13614 14.0064 9.8394 14.0137 10.5425 14.0062C10.6894 14.0047 10.7378 14.0398 10.7324 14.1923C10.7202 14.5325 10.7243 14.8736 10.7309 15.2142C10.7331 15.3309 10.7095 15.3778 10.5774 15.3773C9.31046 15.3722 8.04344 15.372 6.77646 15.3775C6.64092 15.3781 6.62564 15.3262 6.62605 15.2131C6.62963 14.2352 6.62811 13.2573 6.62811 12.2794Z" fill="#27799F"/>
<path d="M11.95 12.2659C11.95 11.2943 11.9533 10.3227 11.9466 9.35113C11.9455 9.20318 11.983 9.15985 12.1338 9.16363C12.558 9.17427 12.9828 9.17532 13.4069 9.16322C13.5651 9.1587 13.5903 9.21452 13.5899 9.35517C13.5853 10.8378 13.5895 12.3204 13.5835 13.803C13.5828 13.962 13.6105 14.0179 13.7872 14.0146C14.4457 14.0022 15.1048 14.0144 15.7635 14.006C15.9102 14.0041 15.9434 14.0486 15.9395 14.1867C15.9296 14.5335 15.9314 14.8807 15.9389 15.2276C15.9414 15.3437 15.9085 15.3772 15.7906 15.3768C14.5617 15.3727 13.3327 15.3724 12.1037 15.3771C11.9772 15.3776 11.9468 15.34 11.9474 15.2185C11.9521 14.2343 11.95 13.2501 11.95 12.2659Z" fill="#27799F"/>
</g>
<defs>
<clipPath id="clip0">
<rect width="23.1429" height="24" fill="white"/>
</clipPath>
</defs>
</svg>
