<svg xmlns="http://www.w3.org/2000/svg" width="24" height="24" fill="none" viewBox="0 0 24 24">
  <g clip-path="url(#clip0)">
    <path fill="#fff" d="M7.017 11.02l-3.83 1.393c.049.614.154 1.22.303 1.815l3.639-1.325a7.214 7.214 0 01-.11-1.884h-.002zm16.928-4.237a10.963 10.963 0 00-.934-1.585l-3.83 1.394c.446.456.82.968 1.126 1.516l3.639-1.325z"/>
    <path fill="#fff" d="M17.15 6.76A7.001 7.001 0 0015.52 5.7c-3.557-1.659-7.8-.116-9.458 3.441a6.934 6.934 0 00-.248.608 7.314 7.314 0 00-.374 1.832l-.014.005-.001.014-2.305.839-1.484.548v-.008l-.041.015A10.887 10.887 0 012.929 6.84c2.723-5.073 8.92-7.193 14.145-4.718a10.81 10.81 0 012.864 1.975c.55.509 1.045 1.072 1.48 1.682l-3.83 1.394-.06-.06-.01.004a7.34 7.34 0 00-.367-.356zM1.808 19.174l-.006.002A11.098 11.098 0 01.09 15.467l3.64-1.325.002.012.024-.009v.001c.187.99.576 1.935 1.143 2.765.218.31.46.603.724.874l-.014.005.027.03-3.795 1.402a6.418 6.418 0 01-.033-.048z"/>
    <path fill="#fff" d="M16.261 18.195a7.117 7.117 0 01-6.759.404 7.043 7.043 0 01-2.073-1.471l-3.822 1.391.03.041h-.002a10.828 10.828 0 004.243 3.59c3.793 1.797 8.097 1.172 11.213-1.245a10.888 10.888 0 003.348-4.126 10.845 10.845 0 00.985-5.472l-.106.039-.005-.059-3.795 1.402a7.167 7.167 0 01-.638 2.48 7.102 7.102 0 01-2.618 3.026z"/>
    <path fill="#fff" d="M20.488 8.042l.056-.02c.6 1.235.965 2.572 1.074 3.941l-3.821 1.39.002-.028-.073.027a7.297 7.297 0 00-.884-4.042l3.613-1.336.033.068z"/>
    <path fill="#FAFBFC" d="M7.022 10.997l-3.804 1.405c.049.62.154 1.232.302 1.831l3.613-1.336a7.26 7.26 0 01-.11-1.9h-.001zm16.81-4.272a11.094 11.094 0 00-.928-1.599L19.1 6.532c.443.46.814.977 1.117 1.53l3.613-1.337z"/>
    <path fill="#D9DAE6" d="M3.218 12.403l3.795-1.39-.016.762-3.66 1.383-.12-.756h.001zM19.102 6.52l3.853-1.322.4.605-3.743 1.323-.51-.606z"/>
    <path fill="#F3F3FA" d="M3.636 18.547l3.799-1.383 1.149 1.084L4.6 19.744l-.964-1.198zm19.741-7.25L19.52 12.69l-.285 1.544 4.114-1.466.03-1.47z"/>
  </g>
  <defs>
    <clipPath id="clip0">
      <path fill="#fff" d="M0 0h24v22.214H0z" transform="translate(0 1)"/>
    </clipPath>
  </defs>
</svg>
