<svg xmlns="http://www.w3.org/2000/svg" width="24" height="24" fill="none" viewBox="0 0 24 24">
  <g clip-path="url(#clip0)">
    <mask id="a" width="25" height="26" x="0" y="0" maskUnits="userSpaceOnUse">
      <path fill="#fff" d="M24.3 0H.037v25.875H24.3V0z"/>
    </mask>
    <g mask="url(#a)">
      <path fill="#5C2D90" d="M21.64 12.644l.59 7.537-10.455 1.877-.9-7.538 1.494-.208c.243.104.417.138.694.208.452.104.973.243 1.737-.174.173-.104.555-.417.695-.625l6.144-1.077zM5.486 21.606c-.174-.277-.486-.59-.973-.972-.695-.556-.451-1.529-.035-2.12.525-1.006 3.266-2.326 3.127-3.96-.07-.59-.139-1.354-.695-1.91-.035.209 0 .417 0 .417s-.243-.277-.347-.695c-.105-.138-.209-.208-.313-.417-.07.243-.07.487-.07.487s-.173-.452-.208-.799c-.104.174-.139.486-.139.486s-.243-.694-.173-1.076c-.105-.313-.452-.973-.348-2.431.591.417 1.911.312 2.432-.452.174-.243.277-.937-.07-2.293-.242-.868-.833-2.153-1.076-2.64l-.035.035c.14.383.383 1.216.487 1.633.277 1.216.382 1.633.243 2.189-.104.486-.383.798-1.112 1.146-.695.347-1.667-.525-1.702-.556-.695-.556-1.216-1.462-1.285-1.876-.07-.486.277-.764.451-1.146-.243.07-.525.208-.525.208s.313-.347.73-.625c.158-.092.309-.197.451-.312h-.447s.417-.243.869-.383h-.625l1.667-.73c.525-.208 1.007-.138 1.285.244.383.525.764.799 1.563 1.007.487-.209.66-.347 1.285-.525.556-.625 1.008-.695 1.008-.695s-.313.278-.348.59c.313-.242.66-.45.66-.45s-.138.173-.243.416l.035.035c.383-.208.799-.382.799-.382s-.139.138-.278.347c.278 0 .834 0 1.043.035 1.285.035 1.563-1.355 2.05-1.563.624-.209.902-.347 1.944.695.903.903 1.598 2.466 1.251 2.813-.277.278-.869-.104-1.529-.903-.347-.417-.59-.937-.729-1.563-.07-.525-.451-.833-.451-.833s.243.525.243.972c0 .243.035 1.147.417 1.668-.035.069-.07.382-.105.417-.451-.556-1.462-.938-1.597-1.077.556.452 1.806 1.463 2.293 2.432.451.937.173 1.771.417 1.98.069.07.972 1.181 1.146 1.771.313 1.008.035 2.05-.383 2.675l-1.111.174a1.47 1.47 0 01-.417-.14c.07-.138.243-.486.243-.555l-.07-.105c-.347.487-.937.973-1.424 1.251-.625.347-1.354.313-1.837.139-1.355-.417-2.64-1.32-2.918-1.563 0 0 0 .173.035.243a10.533 10.533 0 001.876 1.563l-1.598.173.765 5.906c-.348.034-.383.069-.764.138-.313-1.146-.938-1.875-1.633-2.327-.59-.383-1.424-.486-2.223-.313l-.035.07c.556-.07 1.216.034 1.876.451.66.417 1.18 1.494 1.389 2.119.243.834.417 1.702-.243 2.64-.486.66-1.876 1.042-2.987.243.313.486.695.868 1.25.937.8.105 1.563-.034 2.12-.555.45-.452.694-1.425.624-2.467l.73-.104.243 1.837 11.84-1.413-1.043-9.448-.59.105L20.458 0 .729 2.293l2.43 19.66 2.328-.347z"/>
      <path fill="#5C2D90" d="M14.874 11.273c.525.382.973.625 1.425.59.277-.035.555-.486.729-.903.139-.277.139-.59-.07-.695-.104-.035-.524-.035-.833 0-.59.07-1.181.278-1.32.383-.208.139-.104.486.07.625zm.14-4.065v.035l.034.07c.139.277.277.555.556.694.07 0 .139-.035.208-.035.243 0 .383.035.487.07v-.209c-.035-.347.069-.973-.625-1.32-.278-.139-.626-.07-.765.07h.07c.173.069.069.138.035.208-.035.139-.07.174 0 .417M11.887 7.278c.173-.14-.799-.348-1.563.138-.556.383-.556 1.182-.035 1.633.052.026.1.061.139.104.138-.069.347-.138.525-.208.347-.104.625-.174.868-.209a.962.962 0 00.209-.729c-.035-.525-.452-.417-.14-.73h-.003zm5.666 8.437l-1.668 2.775-1.945-.59-1.702 2.605.07.833 9.308-1.702-.555-5.801-1.529 3.195-1.98-1.315z"/>
    </g>
  </g>
  <defs>
    <clipPath id="clip0">
      <path fill="#fff" d="M0 0h24v24H0z"/>
    </clipPath>
  </defs>
</svg>
