<svg width="24" height="24" viewBox="0 0 24 24" fill="none" xmlns="http://www.w3.org/2000/svg">
<g clip-path="url(#clip0)">
<path d="M15.2288 7.31859H15.9611L18.0476 5.23216L18.1502 4.34689C14.268 0.92047 8.34173 1.28967 4.9153 5.1718C3.96263 6.25023 3.27151 7.53287 2.89526 8.92114C3.12765 8.82557 3.38518 8.81048 3.62763 8.87688L7.79949 8.18878C7.79949 8.18878 8.01176 7.83769 8.12141 7.85982C9.97748 5.82167 13.1011 5.58426 15.2439 7.31859H15.2288Z" fill="#EA4335"/>
<path d="M21.0191 8.92122C20.5393 7.1557 19.5554 5.56824 18.1863 4.354L15.2589 7.28145C16.4952 8.29147 17.1994 9.81353 17.1692 11.41V11.9301C18.6088 11.9301 19.7747 13.0971 19.7747 14.5357C19.7747 15.9752 18.6078 17.1412 17.1692 17.1412H11.9572L11.4371 17.6683V20.794L11.9572 21.3141H17.1692C20.157 21.3372 22.8078 19.4007 23.6951 16.5477C24.5803 13.6937 23.4939 10.5952 21.0191 8.92122Z" fill="#4285F4"/>
<path d="M6.73811 21.2847H11.9501V17.1128H6.73811C6.3669 17.1128 5.99971 17.0333 5.6617 16.8784L4.92934 17.1048L2.82884 19.1912L2.64575 19.9236C3.82376 20.8129 5.26132 21.2907 6.73811 21.2847Z" fill="#34A853"/>
<path d="M6.73816 7.75016C3.8429 7.76726 1.27863 9.62131 0.355123 12.3647C-0.56838 15.108 0.352105 18.136 2.64678 19.9006L5.66979 16.8775C4.35797 16.285 3.7755 14.7418 4.36803 13.43C4.96056 12.1182 6.50376 11.5357 7.81558 12.1282C8.39302 12.3898 8.85577 12.8526 9.11733 13.43L12.1403 10.407C10.8537 8.72597 8.85477 7.74312 6.73816 7.75016Z" fill="#FBBC05"/>
</g>
<defs>
<clipPath id="clip0">
<rect width="24" height="19.3141" fill="white" transform="translate(0 2)"/>
</clipPath>
</defs>
</svg>
