<svg width="24" height="24" viewBox="0 0 24 24" fill="none" xmlns="http://www.w3.org/2000/svg">
<g clip-path="url(#clip0)">
<path d="M6.82105 10.2335C6.82105 10.5251 6.85263 10.7615 6.9079 10.9349C6.97105 11.1083 7.05 11.2975 7.16053 11.5024C7.2 11.5655 7.21579 11.6285 7.21579 11.6837C7.21579 11.7625 7.16842 11.8413 7.06579 11.9202L6.56842 12.2512C6.49737 12.2985 6.42632 12.3221 6.36316 12.3221C6.28421 12.3221 6.20526 12.2827 6.12632 12.2118C6.01579 12.0936 5.92105 11.9675 5.84211 11.8413C5.76316 11.7074 5.68421 11.5576 5.59737 11.3763C4.98158 12.1014 4.2079 12.464 3.27632 12.464C2.61316 12.464 2.08421 12.2748 1.69737 11.8965C1.31053 11.5182 1.11316 11.0138 1.11316 10.3832C1.11316 9.71327 1.35 9.16943 1.83158 8.75958C2.31316 8.34972 2.95263 8.1448 3.76579 8.1448C4.03421 8.1448 4.31053 8.16844 4.60263 8.20785C4.89474 8.24726 5.19474 8.31032 5.51053 8.38125V7.80588C5.51053 7.20687 5.38421 6.78913 5.13948 6.5448C4.88684 6.30046 4.46053 6.18224 3.85263 6.18224C3.57632 6.18224 3.29211 6.21376 3 6.2847C2.7079 6.35564 2.42369 6.44233 2.14737 6.55268C2.02105 6.60785 1.92632 6.63938 1.87105 6.65514C1.81579 6.67091 1.77632 6.67879 1.74474 6.67879C1.63421 6.67879 1.57895 6.59997 1.57895 6.43445V6.04825C1.57895 5.92214 1.59474 5.82756 1.63421 5.77238C1.67369 5.71721 1.74474 5.66204 1.85526 5.60687C2.13158 5.46499 2.46316 5.34677 2.85 5.25219C3.23684 5.14972 3.64737 5.10243 4.08158 5.10243C5.02105 5.10243 5.7079 5.31524 6.15 5.74086C6.58421 6.16647 6.80526 6.81278 6.80526 7.67977V10.2335H6.82105ZM3.61579 11.4315C3.87632 11.4315 4.14474 11.3842 4.42895 11.2896C4.71316 11.195 4.96579 11.0216 5.17895 10.7852C5.30526 10.6354 5.4 10.4699 5.44737 10.2808C5.49474 10.0916 5.52632 9.86302 5.52632 9.59504V9.26401C5.29737 9.20884 5.05263 9.16155 4.8 9.13002C4.54737 9.09849 4.30263 9.08273 4.0579 9.08273C3.52895 9.08273 3.14211 9.18519 2.88158 9.398C2.62105 9.61081 2.49474 9.91032 2.49474 10.3044C2.49474 10.6748 2.58947 10.9507 2.78684 11.1399C2.97632 11.3369 3.25263 11.4315 3.61579 11.4315ZM9.95527 12.2827C9.81316 12.2827 9.71842 12.2591 9.65526 12.2039C9.59211 12.1566 9.53684 12.0463 9.48948 11.8965L7.63421 5.80391C7.58684 5.64628 7.56316 5.54381 7.56316 5.48864C7.56316 5.36253 7.62632 5.2916 7.75263 5.2916H8.52632C8.67632 5.2916 8.77895 5.31524 8.83421 5.37041C8.89737 5.4177 8.94474 5.52805 8.99211 5.6778L10.3184 10.8955L11.55 5.6778C11.5895 5.52017 11.6368 5.4177 11.7 5.37041C11.7632 5.32312 11.8737 5.2916 12.0158 5.2916H12.6474C12.7974 5.2916 12.9 5.31524 12.9632 5.37041C13.0263 5.4177 13.0816 5.52805 13.1132 5.6778L14.3605 10.9586L15.7263 5.6778C15.7737 5.52017 15.8289 5.4177 15.8842 5.37041C15.9474 5.32312 16.05 5.2916 16.1921 5.2916H16.9263C17.0526 5.2916 17.1237 5.35465 17.1237 5.48864C17.1237 5.52805 17.1158 5.56746 17.1079 5.61475C17.1 5.66204 17.0842 5.72509 17.0526 5.81179L15.15 11.9044C15.1026 12.062 15.0474 12.1645 14.9842 12.2118C14.9211 12.2591 14.8184 12.2906 14.6842 12.2906H14.0053C13.8553 12.2906 13.7526 12.267 13.6895 12.2118C13.6263 12.1566 13.5711 12.0542 13.5395 11.8965L12.3158 6.81278L11.1 11.8886C11.0605 12.0463 11.0132 12.1487 10.95 12.2039C10.8868 12.2591 10.7763 12.2827 10.6342 12.2827H9.95527ZM20.1 12.4955C19.6895 12.4955 19.2789 12.4482 18.8842 12.3537C18.4895 12.2591 18.1816 12.1566 17.9763 12.0384C17.85 11.9675 17.7632 11.8886 17.7316 11.8177C17.7 11.7468 17.6842 11.6679 17.6842 11.597V11.195C17.6842 11.0295 17.7474 10.9507 17.8658 10.9507C17.9132 10.9507 17.9605 10.9586 18.0079 10.9744C18.0553 10.9901 18.1263 11.0216 18.2053 11.0532C18.4737 11.1714 18.7658 11.266 19.0737 11.329C19.3895 11.3921 19.6974 11.4236 20.0132 11.4236C20.5105 11.4236 20.8974 11.3369 21.1658 11.1635C21.4342 10.9901 21.5763 10.7379 21.5763 10.4147C21.5763 10.1941 21.5053 10.0128 21.3632 9.86302C21.2211 9.71327 20.9526 9.57928 20.5658 9.45317L19.4211 9.09849C18.8447 8.91721 18.4184 8.64923 18.1579 8.29455C17.8974 7.94775 17.7632 7.56155 17.7632 7.15169C17.7632 6.82066 17.8342 6.52903 17.9763 6.27682C18.1184 6.0246 18.3079 5.80391 18.5447 5.63051C18.7816 5.44923 19.05 5.31524 19.3658 5.22066C19.6816 5.12608 20.0132 5.08667 20.3605 5.08667C20.5342 5.08667 20.7158 5.09455 20.8895 5.1182C21.0711 5.14184 21.2368 5.17337 21.4026 5.2049C21.5605 5.24431 21.7105 5.28371 21.8526 5.331C21.9947 5.3783 22.1053 5.42559 22.1842 5.47288C22.2947 5.53593 22.3737 5.59899 22.4211 5.66992C22.4684 5.73298 22.4921 5.81967 22.4921 5.93002V6.30046C22.4921 6.46598 22.4289 6.55268 22.3105 6.55268C22.2474 6.55268 22.1447 6.52115 22.0105 6.4581C21.5605 6.25317 21.0553 6.15071 20.4947 6.15071C20.0447 6.15071 19.6895 6.22165 19.4447 6.3714C19.2 6.52115 19.0737 6.74972 19.0737 7.07288C19.0737 7.29357 19.1526 7.48273 19.3105 7.63248C19.4684 7.78224 19.7605 7.93199 20.1789 8.06598L21.3 8.42066C21.8684 8.60194 22.2789 8.85416 22.5237 9.17731C22.7684 9.50046 22.8868 9.87091 22.8868 10.2808C22.8868 10.6197 22.8158 10.9271 22.6816 11.195C22.5395 11.463 22.35 11.6995 22.1053 11.8886C21.8605 12.0857 21.5684 12.2276 21.2289 12.33C20.8737 12.4404 20.5026 12.4955 20.1 12.4955Z" fill="#252F3E"/>
<path fill-rule="evenodd" clip-rule="evenodd" d="M21.5921 16.326C18.9948 18.2413 15.2211 19.2581 11.9763 19.2581C7.42898 19.2581 3.33161 17.5792 0.236873 14.7891C-0.00786375 14.5684 0.213189 14.2689 0.505294 14.4423C3.85266 16.3812 7.98161 17.5556 12.2527 17.5556C15.1342 17.5556 18.3 16.9566 21.2132 15.727C21.6474 15.53 22.0185 16.0108 21.5921 16.326Z" fill="#FF9900"/>
<path fill-rule="evenodd" clip-rule="evenodd" d="M22.6737 15.0965C22.3422 14.6709 20.479 14.8916 19.6343 14.994C19.3816 15.0256 19.3422 14.8049 19.5711 14.6394C21.0553 13.599 23.4948 13.8985 23.779 14.2453C24.0632 14.6 23.7 17.0354 22.3106 18.2019C22.0974 18.3832 21.8922 18.2886 21.9869 18.0522C22.3027 17.2719 23.0053 15.5142 22.6737 15.0965Z" fill="#FF9900"/>
</g>
<defs>
<clipPath id="clip0">
<rect width="24" height="14.3448" fill="white" transform="translate(0 5)"/>
</clipPath>
</defs>
</svg>
