<svg width="24" height="24" viewBox="0 0 24 24" fill="none" xmlns="http://www.w3.org/2000/svg">
<g clip-path="url(#clip0)">
<path d="M6.82105 10.2335C6.82105 10.5252 6.85263 10.7616 6.9079 10.935C6.97105 11.1084 7.05 11.2976 7.16053 11.5025C7.2 11.5655 7.21579 11.6286 7.21579 11.6838C7.21579 11.7626 7.16842 11.8414 7.06579 11.9202L6.56842 12.2513C6.49737 12.2986 6.42632 12.3222 6.36316 12.3222C6.28421 12.3222 6.20526 12.2828 6.12632 12.2119C6.01579 12.0936 5.92105 11.9675 5.84211 11.8414C5.76316 11.7074 5.68421 11.5577 5.59737 11.3764C4.98158 12.1015 4.2079 12.4641 3.27632 12.4641C2.61316 12.4641 2.08421 12.2749 1.69737 11.8966C1.31053 11.5183 1.11316 11.0138 1.11316 10.3833C1.11316 9.71333 1.35 9.16949 1.83158 8.75964C2.31316 8.34979 2.95263 8.14486 3.76579 8.14486C4.03421 8.14486 4.31053 8.1685 4.60263 8.20791C4.89474 8.24732 5.19474 8.31038 5.51053 8.38131V7.80594C5.51053 7.20693 5.38421 6.78919 5.13948 6.54486C4.88684 6.30052 4.46053 6.1823 3.85263 6.1823C3.57632 6.1823 3.29211 6.21382 3 6.28476C2.7079 6.3557 2.42369 6.4424 2.14737 6.55274C2.02105 6.60791 1.92632 6.63944 1.87105 6.6552C1.81579 6.67097 1.77632 6.67885 1.74474 6.67885C1.63421 6.67885 1.57895 6.60003 1.57895 6.43451V6.04831C1.57895 5.9222 1.59474 5.82762 1.63421 5.77245C1.67369 5.71727 1.74474 5.6621 1.85526 5.60693C2.13158 5.46506 2.46316 5.34683 2.85 5.25225C3.23684 5.14979 3.64737 5.10249 4.08158 5.10249C5.02105 5.10249 5.7079 5.3153 6.15 5.74092C6.58421 6.16653 6.80526 6.81284 6.80526 7.67983V10.2335H6.82105ZM3.61579 11.4316C3.87632 11.4316 4.14474 11.3843 4.42895 11.2897C4.71316 11.1951 4.96579 11.0217 5.17895 10.7853C5.30526 10.6355 5.4 10.47 5.44737 10.2808C5.49474 10.0917 5.52632 9.86309 5.52632 9.5951V9.26407C5.29737 9.2089 5.05263 9.16161 4.8 9.13008C4.54737 9.09855 4.30263 9.08279 4.0579 9.08279C3.52895 9.08279 3.14211 9.18525 2.88158 9.39806C2.62105 9.61087 2.49474 9.91038 2.49474 10.3045C2.49474 10.6749 2.58947 10.9508 2.78684 11.1399C2.97632 11.337 3.25263 11.4316 3.61579 11.4316ZM9.95527 12.2828C9.81316 12.2828 9.71842 12.2591 9.65526 12.204C9.59211 12.1567 9.53684 12.0463 9.48948 11.8966L7.63421 5.80397C7.58684 5.64634 7.56316 5.54387 7.56316 5.4887C7.56316 5.36259 7.62632 5.29166 7.75263 5.29166H8.52632C8.67632 5.29166 8.77895 5.3153 8.83421 5.37047C8.89737 5.41777 8.94474 5.52811 8.99211 5.67786L10.3184 10.8956L11.55 5.67786C11.5895 5.52023 11.6368 5.41777 11.7 5.37047C11.7632 5.32318 11.8737 5.29166 12.0158 5.29166H12.6474C12.7974 5.29166 12.9 5.3153 12.9632 5.37047C13.0263 5.41777 13.0816 5.52811 13.1132 5.67786L14.3605 10.9587L15.7263 5.67786C15.7737 5.52023 15.8289 5.41777 15.8842 5.37047C15.9474 5.32318 16.05 5.29166 16.1921 5.29166H16.9263C17.0526 5.29166 17.1237 5.35471 17.1237 5.4887C17.1237 5.52811 17.1158 5.56752 17.1079 5.61481C17.1 5.6621 17.0842 5.72515 17.0526 5.81185L15.15 11.9045C15.1026 12.0621 15.0474 12.1646 14.9842 12.2119C14.9211 12.2591 14.8184 12.2907 14.6842 12.2907H14.0053C13.8553 12.2907 13.7526 12.267 13.6895 12.2119C13.6263 12.1567 13.5711 12.0542 13.5395 11.8966L12.3158 6.81284L11.1 11.8887C11.0605 12.0463 11.0132 12.1488 10.95 12.204C10.8868 12.2591 10.7763 12.2828 10.6342 12.2828H9.95527ZM20.1 12.4956C19.6895 12.4956 19.2789 12.4483 18.8842 12.3537C18.4895 12.2591 18.1816 12.1567 17.9763 12.0385C17.85 11.9675 17.7632 11.8887 17.7316 11.8178C17.7 11.7468 17.6842 11.668 17.6842 11.5971V11.1951C17.6842 11.0296 17.7474 10.9508 17.8658 10.9508C17.9132 10.9508 17.9605 10.9587 18.0079 10.9744C18.0553 10.9902 18.1263 11.0217 18.2053 11.0532C18.4737 11.1715 18.7658 11.266 19.0737 11.3291C19.3895 11.3921 19.6974 11.4237 20.0132 11.4237C20.5105 11.4237 20.8974 11.337 21.1658 11.1636C21.4342 10.9902 21.5763 10.738 21.5763 10.4148C21.5763 10.1941 21.5053 10.0128 21.3632 9.86309C21.2211 9.71333 20.9526 9.57934 20.5658 9.45323L19.4211 9.09855C18.8447 8.91727 18.4184 8.64929 18.1579 8.29461C17.8974 7.94781 17.7632 7.56161 17.7632 7.15176C17.7632 6.82072 17.8342 6.5291 17.9763 6.27688C18.1184 6.02466 18.3079 5.80397 18.5447 5.63057C18.7816 5.44929 19.05 5.3153 19.3658 5.22072C19.6816 5.12614 20.0132 5.08673 20.3605 5.08673C20.5342 5.08673 20.7158 5.09461 20.8895 5.11826C21.0711 5.1419 21.2368 5.17343 21.4026 5.20496C21.5605 5.24437 21.7105 5.28378 21.8526 5.33107C21.9947 5.37836 22.1053 5.42565 22.1842 5.47294C22.2947 5.53599 22.3737 5.59905 22.4211 5.66998C22.4684 5.73304 22.4921 5.81974 22.4921 5.93008V6.30052C22.4921 6.46604 22.4289 6.55274 22.3105 6.55274C22.2474 6.55274 22.1447 6.52121 22.0105 6.45816C21.5605 6.25323 21.0553 6.15077 20.4947 6.15077C20.0447 6.15077 19.6895 6.22171 19.4447 6.37146C19.2 6.52121 19.0737 6.74978 19.0737 7.07294C19.0737 7.29363 19.1526 7.48279 19.3105 7.63254C19.4684 7.7823 19.7605 7.93205 20.1789 8.06604L21.3 8.42072C21.8684 8.602 22.2789 8.85422 22.5237 9.17737C22.7684 9.50052 22.8868 9.87097 22.8868 10.2808C22.8868 10.6197 22.8158 10.9271 22.6816 11.1951C22.5395 11.4631 22.35 11.6995 22.1053 11.8887C21.8605 12.0857 21.5684 12.2276 21.2289 12.3301C20.8737 12.4404 20.5026 12.4956 20.1 12.4956Z" fill="white"/>
<path fill-rule="evenodd" clip-rule="evenodd" d="M21.5921 16.326C18.9948 18.2413 15.2211 19.2581 11.9763 19.2581C7.42898 19.2581 3.33161 17.5792 0.236873 14.7891C-0.00786375 14.5684 0.213189 14.2689 0.505294 14.4423C3.85266 16.3812 7.98161 17.5556 12.2527 17.5556C15.1342 17.5556 18.3 16.9566 21.2132 15.727C21.6474 15.53 22.0185 16.0108 21.5921 16.326Z" fill="#F3F3FA"/>
<path fill-rule="evenodd" clip-rule="evenodd" d="M22.6737 15.0965C22.3422 14.6709 20.479 14.8916 19.6343 14.994C19.3816 15.0256 19.3422 14.8049 19.5711 14.6394C21.0553 13.599 23.4948 13.8985 23.779 14.2453C24.0632 14.6 23.7 17.0354 22.3106 18.2019C22.0974 18.3832 21.8922 18.2886 21.9869 18.0522C22.3027 17.2719 23.0053 15.5142 22.6737 15.0965Z" fill="#F3F3FA"/>
</g>
<defs>
<clipPath id="clip0">
<rect width="24" height="14.3448" fill="white" transform="translate(0 5)"/>
</clipPath>
</defs>
</svg>
