<svg width="24" height="24" viewBox="0 0 24 24" fill="none" xmlns="http://www.w3.org/2000/svg">
<g clip-path="url(#clip0)">
<path d="M22.0438 13.6131H17.0654C16.7407 13.6094 16.4629 13.8455 16.4142 14.1666C16.1314 16.1898 14.4001 17.6946 12.3573 17.6928L13.7053 23.8498C18.589 23.2118 22.3478 19.2228 22.695 14.3099C22.7076 14.1294 22.6447 13.9518 22.5211 13.8196C22.3976 13.6875 22.2247 13.6126 22.0438 13.6131Z" fill="#2684FF"/>
<path d="M13.4285 13.4569L20.5916 7.29984C20.7318 7.17622 20.8121 6.99834 20.8121 6.81145C20.8121 6.62455 20.7318 6.44667 20.5916 6.32305L13.4285 0.156261C13.2352 -0.00687664 12.965 -0.0433428 12.7354 0.0627355C12.5058 0.168814 12.3584 0.398246 12.3573 0.651168V12.962C12.3584 13.2149 12.5058 13.4443 12.7354 13.5504C12.965 13.6565 13.2352 13.62 13.4285 13.4569Z" fill="#2684FF"/>
<path d="M2.09766 14.9579C2.78277 20.1014 7.16828 23.9441 12.3572 23.9476V17.6929C10.1024 17.6929 8.27309 15.8679 8.2677 13.6132L2.09766 14.9579Z" fill="url(#paint0_linear)"/>
<path d="M2 13.5154V13.6131H8.26773C8.27311 11.3583 10.1025 9.53336 12.3572 9.53337L11.0125 3.37634C5.90365 4.04205 2.06215 8.36374 2 13.5154Z" fill="url(#paint1_linear)"/>
</g>
<defs>
<linearGradient id="paint0_linear" x1="7.22905" y1="3.45456" x2="7.22905" y2="17.5626" gradientUnits="userSpaceOnUse">
<stop stop-color="#0052CC"/>
<stop offset="1" stop-color="#2684FF"/>
</linearGradient>
<linearGradient id="paint1_linear" x1="7.18023" y1="3.45449" x2="7.18023" y2="17.5626" gradientUnits="userSpaceOnUse">
<stop stop-color="#0052CC"/>
<stop offset="1" stop-color="#2684FF"/>
</linearGradient>
<clipPath id="clip0">
<rect width="20.7568" height="24" fill="white" transform="translate(2)"/>
</clipPath>
</defs>
</svg>
