<svg xmlns="http://www.w3.org/2000/svg" width="24" height="24" fill="none" viewBox="0 0 24 24">
  <g clip-path="url(#clip0)">
    <path fill="#D9DAE6" fill-rule="evenodd" d="M20.471 11.565c0 4.755-3.769 8.61-8.417 8.61-4.649 0-8.417-3.855-8.417-8.61 0-4.755 3.768-8.61 8.417-8.61 4.648 0 8.417 3.855 8.417 8.61z" clip-rule="evenodd"/>
    <path fill="#F3F3FA" d="M3.98 13.697s-.61-8.978 7.663-9.235l-.578-.962L6.577 5 5.301 6.475l-1.122 2.15-.641 2.5.192 1.668"/>
    <path fill="#0A3364" d="M6.289 5.693a8.42 8.42 0 00-2.391 5.905c0 2.308.915 4.395 2.39 5.905a8.037 8.037 0 005.766 2.442c2.252 0 4.288-.932 5.765-2.442a8.417 8.417 0 002.391-5.905 8.426 8.426 0 00-2.39-5.905 8.033 8.033 0 00-5.766-2.443c-2.252 0-4.288.932-5.765 2.443zm-.374 12.176a8.942 8.942 0 01-2.54-6.27c0-2.447.971-4.665 2.54-6.27a8.558 8.558 0 016.139-2.6c2.398 0 4.57.995 6.139 2.6a8.946 8.946 0 012.54 6.27c0 2.446-.97 4.665-2.54 6.27a8.563 8.563 0 01-6.139 2.6 8.561 8.561 0 01-6.139-2.6z"/>
    <path fill="#fff" fill-rule="evenodd" d="M15.597 11.613l-1.275.193-1.733.193-1.122.032-1.09-.033-.834-.256-.737-.803-.578-1.634-.127-.353-.77-.256-.45-.738L6.555 6.9l.352-.93.834-.289.674.321.32.705.386-.064.127-.16-.127-.738-.033-.93.193-1.275-.007-.733.585-.934 1.026-.737 1.794-.778 1.987.289 1.733 1.25.802 1.275.513.93.128 2.308-.385 1.988-.705 1.762-.674.93" clip-rule="evenodd"/>
    <path fill="#fff" fill-rule="evenodd" d="M14.507 17.16l-4.586.193v.77l.385 2.692-.193.225-3.205-1.09-.226-.385-.32-3.622-.738-2.18-.16-.514 2.565-1.762.802-.321.705.865.61.546.704.225.32.096.385 1.667.289.353.737-.257-.513.994 2.79 1.315-.352.192" clip-rule="evenodd"/>
    <path fill="#D9DAE6" fill-rule="evenodd" d="M6.908 5.97l.834-.289.673.321.321.705.385-.064.096-.385-.193-.737.193-1.764-.16-.962.577-.674 1.25-.994-.353-.48-1.763.866-.738.577-.417.898-.641.866L6.78 4.88l.128 1.09" clip-rule="evenodd"/>
    <path fill="#DCD9D8" fill-rule="evenodd" d="M8.222 2.955s.48-1.186 2.405-1.762c1.925-.576.096-.417.096-.417l-2.085.802-.803.803-.352.64.737-.064.002-.002zm-.962 2.79S6.587 3.5 9.152 3.18l-.096-.385-1.762.417L6.78 4.88l.127 1.09.353-.225" clip-rule="evenodd"/>
    <path fill="#fff" fill-rule="evenodd" d="M8.286 8.727l.42-.406a.27.27 0 00.221.246c.033.225.128 2.245 1.5 3.336.126.1-1.026-.16-1.026-.16l-1.026-1.604-.089-1.412zm5.893-.61s.075-.972.337-.897c.263.075.263.338.263.338s-.636.41-.599.56" clip-rule="evenodd"/>
    <path fill="#fff" d="M16.848 4.558s-.529.112-.578.577c-.048.465.578.096.674.065l-.096-.642zm-3.873.032s-.705.096-.705.545c0 .45.803.417 1.026.225"/>
    <path fill="#F3F3FA" fill-rule="evenodd" d="M8.606 6.675s-1.219-.738-1.346-.032c-.128.706-.417 1.219.193 1.956l-.417-.128-.385-.993-.128-.963.738-.77.834.065.48.385.032.48zm.578-2.02s.546-2.822 3.303-3.375c2.27-.449 3.463.096 3.912.609 0 0-2.02-2.405-3.945-1.668C10.53.96 9.12 2.321 9.15 3.18l.032 1.475h.002zm7.438-2.439s-.93-.032-.962.803a.647.647 0 00.064.256s.738-.834 1.186-.384l-.288-.675zM12.55 3.362s-.16-1.28-1.25-.536c-.706.48-.642 1.155-.514 1.275.129.12.094.386.192.21.097-.176.065-.754.418-.915.353-.16.93-.34 1.155-.041" clip-rule="evenodd"/>
    <path fill="#D9DAE6" fill-rule="evenodd" d="M9.536 12.03l-3.015 1.347s1.25 4.97.61 6.51l-.45-.16-.033-1.893-.831-3.584-.353-.994 3.15-2.116.93.898-.008-.008zm.311 2.749l.428.522v1.924h-.513l-.064-1.5c0-.16.064-.738.064-.738l.085-.208zm.01 2.734l-1.443.063.417.29 1.026.16" clip-rule="evenodd"/>
    <path fill="#fff" fill-rule="evenodd" d="M14.795 17.192l1.187-.032.288 2.95-1.218.161-.257-3.078" clip-rule="evenodd"/>
    <path fill="#fff" fill-rule="evenodd" d="M15.116 17.192l1.796-.096.737-1.956c0-.096.641-2.692.641-2.692l-1.443-1.508-.289-.256-.769.77v2.981l-.673 2.758" clip-rule="evenodd"/>
    <path fill="#D9DAE6" fill-rule="evenodd" d="M15.918 16.968l-1.122.225.16.898c.418.192 1.122-.321 1.122-.321l-.16-.802zm.032-5.61l2.244 1.666.065-.769-1.7-1.571-.609.673" clip-rule="evenodd"/>
    <path fill="#fff" fill-rule="evenodd" d="M10.97 23.51l-.664-2.695-.33-1.987-.054-1.475 3.004-.16h1.87l-.17 3.375.289 2.597-.033.48-2.437.193-1.476-.321" clip-rule="evenodd"/>
    <path fill="#DCD9D8" fill-rule="evenodd" d="M14.377 17.16s-.16 3.335.321 5.7c0 0-.962.609-2.373.77l2.693-.096.32-.193-.384-5.26-.096-1.122" clip-rule="evenodd"/>
    <path fill="#fff" fill-rule="evenodd" d="M16.325 19.854l1.25-.352 2.373-.128.353-1.09-.641-1.893-.738-.096-1.026.321-.984.48-.523-.096-.407.16" clip-rule="evenodd"/>
    <path fill="#DCD9D8" fill-rule="evenodd" d="M16.303 19.212s.834-.385.962-.352l-.352-1.764.416-.16.29 1.86 1.955.095s.385-.737.289-1.5l.352 1.026.033.578-.513.77-.578.127-.962-.033-.321-.417-1.122.16-.352.128" clip-rule="evenodd"/>
    <path fill="#fff" d="M15.042 16.935l-.705-1.795-.737-1.058s.16-.45.385-.45h.737l.705.257-.064 1.186-.321 1.86z"/>
    <path fill="#DCD9D8" fill-rule="evenodd" d="M15.18 16.328s-.898-1.733-.898-1.988c0 0 .16-.385.385-.289.224.096.705.353.705.353v-.61l-1.09-.224-.738.096 1.25 2.95.257.032" clip-rule="evenodd"/>
    <path fill="#fff" d="M11.258 12.094l-.888-.098-.834-.256v.288l.407.45 1.275.578"/>
    <path fill="#DCD9D8" fill-rule="evenodd" d="M9.825 12.19s.994.418 1.315.322l.032.384-.898-.192-.545-.384.096-.128" clip-rule="evenodd"/>
    <path fill="#FAFBFC" fill-rule="evenodd" d="M16.322 13.742a6.015 6.015 0 01-1.467-.202c.03-.176-.025-.35.02-.477.12-.087.32-.085.502-.105a.875.875 0 00-.558-.063c-.005-.122-.06-.198-.093-.294.306-.11 1.028-.825 1.434-.588.194.112.276.757.291 1.07.013.259-.022.521-.13.66z" clip-rule="evenodd"/>
    <path stroke="#D9DAE6" stroke-width=".514" d="M16.322 13.742a6.015 6.015 0 01-1.467-.202c.03-.176-.025-.35.02-.477.12-.087.32-.085.502-.105a.875.875 0 00-.558-.063c-.005-.122-.06-.198-.093-.294.306-.11 1.028-.825 1.434-.588.194.112.276.757.291 1.07.013.259-.022.521-.13.66v0z"/>
    <path fill="#D9DAE6" fill-rule="evenodd" d="M13.72 12.853l-.005.124c-.17.113-.444.11-.63.204.275.012.491.078.679.173l-.012.311c-.311.213-.596.531-.962.73-.173.095-.782.338-.966.295-.105-.024-.114-.153-.155-.276-.089-.262-.293-.677-.312-1.07-.022-.498-.072-1.33.463-1.228.443.093.87.25 1.269.464.205.112.322.25.633.274" clip-rule="evenodd"/>
    <path stroke="#FAFBFC" stroke-width=".514" d="M13.72 12.853l-.005.124c-.17.113-.444.11-.63.204.275.012.491.078.679.173l-.012.311c-.311.213-.596.531-.962.73-.173.095-.782.338-.966.295-.105-.024-.114-.153-.155-.276-.089-.262-.293-.677-.312-1.07-.022-.498-.072-1.33.463-1.228.443.093.87.25 1.269.464.205.112.322.25.633.274l-.002-.001z"/>
    <path fill="#FAFBFC" fill-rule="evenodd" d="M14.029 13.446c-.047-.27-.103-.348-.081-.585.722-.482.857.826.08.585z" clip-rule="evenodd"/>
    <path stroke="#FAFBFC" stroke-width=".514" d="M14.029 13.446c-.047-.27-.103-.348-.081-.585.722-.482.857.826.08.585z"/>
    <path fill="#F3F3FA" fill-rule="evenodd" d="M15.075 13.665s-.225-.321-.064-.417c.16-.096.32 0 .417-.16.095-.161 0-.257.032-.45.032-.194.192-.226.352-.257.16-.031.61-.096.674.064l-.193-.577-.385-.127-1.218.704-.065.353v.705l.45.162zM11.7 14.723l-.124-1.5c-.075-.747.18-.617.826-.617.099 0 .6.118.645.193.175.357-.3.277.202.547.417.227 1.154-.138.985-.643-.094-.113-.491-.035-.633-.109l-.752-.39c-.319-.165-1.055-.407-1.395-.176-.861.585.054 2.05.361 2.66" clip-rule="evenodd"/>
    <path fill="#0A3364" fill-rule="evenodd" d="M12.551 3.362c-.874-.202-1.308.366-1.573.956-.237-.057-.15-.378-.075-.543.15-.43.787-1.002 1.302-.925.222.034.522.236.354.512h-.008zm4.259.988l.04.001c.198.41.376.846.618 1.2-.167.389-1.264.733-1.247.035.237-.104.646-.021.857-.154-.121-.334-.297-.618-.27-1.09l.002.008zm-3.812.018c.188.343.248.705.515.964.12.117.352.26.237.585a.75.75 0 01-.337.281c-.416.123-1.388.025-1.05-.494.345.015.807.224 1.065-.026-.198-.315-.55-.941-.42-1.31h-.01zM16.66 7.86c-.627.403-1.326.84-2.353.74-.22-.191-.303-.616-.09-.897.11.19.041.542.35.595.584.1 1.262-.356 1.68-.516.261-.439-.022-.6-.256-.882-.48-.578-1.122-1.295-1.1-2.16.194-.14.21.214.24.279.25.585.88 1.335 1.34 1.837.112.124.3.243.32.324.06.238-.156.522-.131.68zm-8.273-.425c-.196-.112-.243-.606-.474-.62-.33-.02-.27.641-.268 1.028-.228-.207-.267-.84-.1-1.167-.19-.093-.276.103-.381.173.135-.984 1.44-.45 1.222.587h.001zm8.666.826c-.3.555-.705 1.167-1.562 1.185-.017-.18-.03-.452 0-.56.656-.063 1.06-.396 1.562-.625zm-4.104.36c.546.287 1.55.318 2.293.296.04.163.04.364.04.563-.954.047-2.082-.188-2.324-.859h-.009zm-.096.536c.378.948 1.676.84 2.77.813-.047.123-.152.268-.282.32-.35.15-1.318.252-1.805-.007-.31-.165-.507-.535-.677-.753-.075-.105-.489-.373-.006-.375" clip-rule="evenodd"/>
    <path fill="#fff" fill-rule="evenodd" d="M16.608 14.397l-1.394 2.209c.221-.648.316-1.733.348-2.56.462-.217.857.048 1.046.352" clip-rule="evenodd"/>
    <path fill="#231F20" fill-rule="evenodd" d="M18.993 17.125c-.497.1-.845.582-1.33.551.267-.375.733-.525 1.33-.55zm.219.777c-.405.043-.88.108-1.29.075.195-.297.943-.195 1.29-.075zm.14.67c-.454.01-1.02 0-1.452-.036.255-.274 1.157-.102 1.452.035z" clip-rule="evenodd"/>
    <path fill="#DCD9D8" fill-rule="evenodd" d="M15.752 20.404c.066.57.293 1.15.263 1.775-.252.085-.396.159-.733.158l-.073-1.85c.165.01.41-.12.543-.076" clip-rule="evenodd"/>
    <path fill="#F0D6B7" fill-rule="evenodd" d="M15.02 11.99c-.229.15-.423.335-.643.495-.486.024-.751-.034-1.108-.313.006-.023.042-.013.043-.04.52.232 1.182-.095 1.708-.143z" clip-rule="evenodd"/>
    <path fill="#fff" fill-rule="evenodd" d="M12.287 15.537c.143-.62.704-.94 1.212-1.283.525.668.845 1.523 1.196 2.351-.83-.25-1.68-.657-2.407-1.069" clip-rule="evenodd"/>
    <path fill="#0A3364" fill-rule="evenodd" d="M15.21 20.487c-.021.506.05 1.32.073 1.85.338.001.482-.073.733-.157.029-.626-.198-1.204-.262-1.775-.133-.035-.377.094-.543.075l-.001.007zm-5.244-2.88c.222 2.041.544 3.75 1.134 5.565 1.31.398 2.888.432 4.046.073-.213-1.02-.12-2.262-.244-3.352l-.174-2.477c-1.403-.293-3.385-.068-4.761.189l-.001.002zm5.1-.176c-.012.877.039 1.741.106 2.62l.878-.153c-.101-.846-.09-1.797-.296-2.544-.24.002-.45-.003-.688.077zm1.708-.141c-.16-.038-.345-.002-.499.001l.3 2.254c.24.007.367-.105.566-.144.01-.659-.057-1.566-.375-2.111h.008zm2.586 2.362c.5-.121.815-.735.675-1.365-.094-.423-.261-1.22-.44-1.49-.133-.201-.492-.463-.778-.28-.467.299-1.288.386-1.628.747.17.567.224 1.346.294 2.066.583.036 1.3-.16 1.784.048-.338.11-.777.11-1.069.27.238.115.798.092 1.162.003v.001zm-4.656-3.045c-.353-.827-.671-1.684-1.197-2.35-.508.341-1.068.662-1.211 1.282.727.413 1.577.818 2.407 1.069zm.867-2.561c-.033.827-.128 1.913-.348 2.56.525-.67.95-1.45 1.393-2.208-.189-.303-.585-.567-1.045-.352zm-.975-.35c-.2-.022-.368.23-.628.12l-.174.201c.572.69.825 1.668 1.275 2.479.237-.779.21-1.632.262-2.481-.325.02-.506-.295-.734-.32l-.001.002zm-.633-.833c-.02.236.034.313.082.585.776.242.64-1.066-.082-.585zm-.86-.283a4.782 4.782 0 00-1.27-.464c-.535-.103-.485.73-.462 1.227.018.394.223.81.311 1.071.042.123.051.252.155.276.185.043.793-.2.966-.294.368-.2.651-.526.962-.731l.012-.311a1.656 1.656 0 00-.678-.173c.187-.093.46-.092.63-.204l.004-.124c-.31-.024-.427-.162-.633-.274h.002zM9.907 12c-.278.281.778.665 1.115.686-.002-.178.102-.346.08-.475-.399-.07-.925-.024-1.195-.212zm3.42.131c-.002.028-.038.018-.043.04.357.279.622.338 1.108.313l.642-.495c-.525.047-1.187.373-1.707.142zm3.139.953c-.015-.314-.098-.957-.291-1.07-.406-.237-1.129.479-1.434.588.033.096.088.173.092.294a.865.865 0 01.558.063c-.181.02-.375.019-.502.105-.045.128.01.3-.019.477.43.122.922.186 1.466.203.105-.137.143-.4.13-.66zm-7.027-.812c-.087-.062-.678-.83-.75-.798-1.068.42-2.065 1.148-2.957 1.838.85 1.824 1.193 4.06 1.254 6.214.975.455 1.83 1.112 3.15 1.18l-.38-3.066c-.332-.14-.808.006-1.118-.044-.003-.375.474-.165.514-.415.03-.19-.262-.205-.167-.505.243.089.37.284.63.357.237-.518-.003-1.435.03-1.876.007-.08.04-.45.223-.385.16.057-.01.982.007 1.391.015.378-.045.75.107.98a36.349 36.349 0 013.957-.324c-.304-.13-.666-.255-1.062-.477-.214-.12-.89-.373-.952-.578-.1-.324.26-.498.32-.776-.645.353-.77-.338-.923-.825a6.344 6.344 0 01-.25-1.027c-.555-.265-1.149-.525-1.627-.873l-.006.01zm6.462-.705c.89-.431 1.05 1.613.702 2.27.053.196.24.271.315.447l-1.553 2.598c.377-.235.915-.042 1.35-.225.162-.064.279-.435.402-.732.338-.816.692-1.845.849-2.625.035-.177.133-.564.111-.722-.039-.282-.422-.492-.618-.675l-.96-.909c-.152.225-.479.375-.603.558l.005.015zm-8.51-7.886c-.424.466-.336 1.34-.284 1.961.765-.481 1.782.038 1.773.857.366-.01.136-.457.07-.744-.216-.94.365-1.962.027-2.823-.657.05-1.196.318-1.587.749zm3.03-2.706c-.96.271-2.188.969-2.581 1.83.305-.045.517-.198.817-.225.114-.008.263.048.394.015.26-.065.48-.649.677-.866.192-.213.422-.303.58-.497.101-.049.251-.045.256-.197-.045-.047-.09-.075-.15-.075l.008.015zm4.993.255c-.995-.56-2.68-.983-3.739-.455-.855.426-2.01 1.13-2.404 2.025.368.862-.108 1.652-.14 2.527-.016.465.22.872.238 1.38-.126.208-.51.233-.777.22-.09-.45-.248-.953-.708-1.004-.653-.072-1.131.47-1.161 1.035-.035.664.51 1.766 1.284 1.69.298-.03.372-.33.697-.327.177.353-.272.463-.318.714-.012.065.038.32.066.439.14.58.454 1.331.762 1.773.392.56 1.16.645 1.988.7.148-.318.691-.293 1.046-.209-.425-.168-.82-.576-1.148-.937-.375-.414-.757-.859-.776-1.4.71.985 1.298 1.846 2.59 2.28.977.327 2.119-.15 2.87-.678.311-.22.497-.568.72-.886.828-1.2 1.215-2.895 1.13-4.545-.035-.68-.033-1.357-.262-1.815-.239-.478-1.046-.907-1.518-.474-.088-.465.393-.753.957-.585-.402-.519-.825-1.143-1.397-1.465V1.23zm1.855 15.35c.778-.387 2.232-1.04 2.72.002.18.384.391 1.033.484 1.43.132.56-.15 1.735-.718 1.924-.507.165-1.1.156-1.712.033a.95.95 0 01-.209-.273c-.437-.018-.846.022-1.191.202.033.323-.186.375-.39.443-.152.602.304 1.389.195 1.938-.078.391-.56.451-.913.525-.011.225.015.399.04.583-.081.297-.444.468-.787.51-1.131.135-2.849.197-3.938-.195-.304-.745-.543-1.65-.795-2.502-1.061.113-1.92-.457-2.728-.832-.281-.13-.675-.203-.773-.425-.101-.216-.06-.63-.085-1.02-.063-.997-.12-1.961-.375-2.983-.118-.46-.324-.863-.468-1.305-.133-.41-.366-.915-.426-1.325-.09-.605.48-.639.844-.901.563-.405 1.005-.63 1.616-.996.18-.109.726-.375.788-.51.123-.25-.212-.604-.3-.8a2.388 2.388 0 01-.236-.882 1.7 1.7 0 01-1.134-.729c-.388-.568-.657-1.62-.321-2.42.026-.063.15-.188.177-.284.037-.19-.072-.444-.08-.646-.034-1.04.177-1.935.877-2.25.285-1.125 1.301-1.508 2.26-2.072.358-.21.752-.345 1.16-.495 1.463-.538 3.708-.437 4.923.482.514.39 1.338 1.211 1.632 1.807.777 1.572.722 4.198.178 6.11-.073.256-.18.634-.327.942-.103.215-.424.645-.384.836.04.197.73.722.88.865.266.257.773.6.814.924.045.345-.152.819-.252 1.153l-1.034 3.135" clip-rule="evenodd"/>
    <path fill="#fff" fill-rule="evenodd" d="M12.08 8.872c.042-.056.275-.142.6.015 0 0-.384.065-.352.705l-.16-.032s-.166-.582-.086-.688" clip-rule="evenodd"/>
    <path fill="#1D1919" fill-rule="evenodd" d="M14.892 14.386a.176.176 0 11-.352 0 .176.176 0 01.352 0zm.176.825a.176.176 0 11-.352 0 .176.176 0 01.352 0z" clip-rule="evenodd"/>
  </g>
  <defs>
    <clipPath id="clip0">
      <path fill="#fff" d="M0 0h24v24H0z"/>
    </clipPath>
  </defs>
</svg>
