<svg width="64" height="64" viewBox="0 0 64 64" fill="none" xmlns="http://www.w3.org/2000/svg">
<g opacity="0.9">
<path fill-rule="evenodd" clip-rule="evenodd" d="M32.1667 17.6572C39.5 17.6572 45.6667 22.2726 47.5 29.1957C53.5 29.855 58 34.8001 58 40.7341C58 47.1627 52.8333 52.2726 46.3333 52.2726H17.1667C12.1667 52.2726 8 48.1517 8 43.2067C8 38.4265 11.6667 34.4704 16.3333 34.1407V33.3166C16.3333 24.7451 23.5 17.6572 32.1667 17.6572ZM34.5081 35.1908L34.9839 35.3089C36.2603 35.6153 39.25 36.3331 39.25 39.4609C39.25 42.0383 37.3126 43.7325 34.1223 44.0317V45.3241C34.1223 45.577 33.9124 45.7822 33.6538 45.7822H32.4825C32.2236 45.7822 32.0139 45.5771 32.0139 45.3241V44.0213C30.3875 43.8433 28.9829 43.2561 28.0651 42.348C27.2122 41.5043 26.7702 40.4147 26.75 39.1071H29.6572C29.7367 40.8386 31.0494 41.8662 33.2027 41.8662C33.9399 41.8662 36.3459 41.7198 36.3459 39.8371C36.3459 38.3314 34.5583 37.9028 32.666 37.4492C32.3435 37.3721 32.0148 37.2932 31.6863 37.2074C29.5457 36.6546 27.2623 35.8377 27.2623 33.1273C27.2623 30.4322 29.5988 29.0622 32.0138 28.8203V27.4903C32.0138 27.2374 32.2232 27.0322 32.4822 27.0322H33.6538C33.9121 27.0322 34.122 27.2375 34.122 27.4903V28.8725C35.9676 29.1261 38.6437 30.0474 38.7347 33.251H35.8204C35.6661 31.7324 34.6262 30.9936 32.6471 30.9936C31.5028 30.9936 30.1666 31.4812 30.1666 32.8553C30.1666 34.1007 30.9145 34.2885 34.5081 35.1908Z" fill="url(#paint0_linear)"/>
</g>
<defs>
<linearGradient id="paint0_linear" x1="-8.15044" y1="28.8383" x2="10.1346" y2="69.7222" gradientUnits="userSpaceOnUse">
<stop stop-color="#00CFDE"/>
<stop offset="1" stop-color="#05A660"/>
</linearGradient>
</defs>
</svg>
