<svg xmlns="http://www.w3.org/2000/svg" width="24" height="24" fill="none" viewBox="0 0 24 24">
  <g clip-path="url(#clip0)">
    <path fill="#fff" d="M12.484 2.39c.01.405-.03.806-.133 1.198-.028.106-.002.123.097.135 1.295.148 2.5.56 3.6 1.258.13.083.156.037.203-.08a5.08 5.08 0 011.447-2.006c.219-.184.453-.346.744-.399.292-.053.477.088.507.385.029.29-.037.565-.14.832a5.073 5.073 0 01-1.444 2.053c-.099.085-.116.126-.01.225a8.404 8.404 0 011.35 1.629c.062.095.064.143-.042.204-.307.177-.61.36-.909.55-.099.062-.15.062-.217-.047a6.834 6.834 0 00-1.652-1.81c-1.068-.818-2.27-1.323-3.614-1.442-2.643-.235-4.793.7-6.453 2.758-.032.039-.063.08-.092.12-.234.327-.234.327-.566.114-.224-.144-.445-.291-.671-.43-.098-.06-.13-.103-.053-.215a8.59 8.59 0 011.34-1.54c.104-.094.115-.136.007-.24-.67-.648-1.184-1.394-1.413-2.31a1.27 1.27 0 01-.021-.507c.038-.243.218-.372.462-.336.307.045.552.215.781.406A5.045 5.045 0 016.98 4.763c.06.135.103.145.226.072a8.199 8.199 0 013.548-1.124c.167-.013.186-.068.155-.223-.173-.846-.169-1.69.086-2.522.061-.2.146-.39.277-.555.233-.293.508-.292.74.006.23.298.32.653.392 1.013.063.316.087.637.08.96zM10.792 21.743c.015-.32.01-.643.085-.959.027-.117.03-.185-.137-.2a8.371 8.371 0 01-3.612-1.17c-.116-.07-.148-.043-.2.066a5.095 5.095 0 01-1.335 1.748c-.22.182-.453.346-.743.4-.293.053-.478-.088-.509-.385-.029-.29.038-.564.139-.832a5.035 5.035 0 011.194-1.823c.128-.125.107-.18-.01-.286a7.906 7.906 0 01-1.056-1.188c-.072-.096-.08-.147.03-.218.29-.19.577-.388.858-.593.105-.077.157-.071.236.037a6.91 6.91 0 002.365 2.065c1.425.76 2.94 1.028 4.538.768 1.935-.315 3.482-1.273 4.65-2.839.073-.098.124-.128.236-.046.28.207.567.403.858.594.102.067.117.11.04.215a8.297 8.297 0 01-.984 1.126c-.093.087-.074.122.009.2.704.66 1.24 1.427 1.478 2.376.04.161.044.326.02.49-.036.253-.217.383-.472.343-.3-.046-.54-.21-.764-.397a5.1 5.1 0 01-1.41-1.9c-.051-.118-.086-.127-.192-.06a8.295 8.295 0 01-3.611 1.286c-.124.014-.117.056-.1.155.14.773.139 1.543-.065 2.306-.07.257-.163.505-.339.712-.224.264-.485.266-.702-.006-.279-.347-.364-.77-.44-1.193-.046-.262-.04-.528-.055-.792zM18.256 11.39c.23 1.266.233 2.524.227 3.783-.001.171-.047.211-.212.205a20.544 20.544 0 00-1.12 0c-.12.002-.148-.035-.148-.15.004-1.968.004-3.937 0-5.905 0-.124.033-.16.158-.158.475.007.95.009 1.425-.002.143-.003.197.051.24.175.397 1.115.852 2.21 1.155 3.357.01.035.028.068.048.116.084-.11.096-.231.127-.343.302-1.08.713-2.124 1.075-3.185.032-.095.084-.119.18-.118.487.005.975.007 1.463 0 .124-.002.145.043.144.152-.002 1.969-.002 3.937 0 5.906 0 .106-.014.157-.141.155a28.963 28.963 0 00-1.198 0c-.125.002-.143-.047-.143-.155-.005-1.18-.02-2.36.174-3.53.012-.074.01-.15.012-.226 0-.016-.008-.031-.026-.087l-.164.49c-.32.963-.694 1.906-1.038 2.86-.041.115-.101.154-.221.148a6.97 6.97 0 00-.59 0c-.09.002-.135-.03-.165-.114-.393-1.076-.824-2.14-1.146-3.241-.014-.045-.016-.1-.116-.133zM5.294 12.271c0 .972-.002 1.943.003 2.915 0 .138-.02.197-.181.193a26.75 26.75 0 00-1.292-.002c-.131.003-.172-.03-.17-.165.007-.7 0-1.4.006-2.1.001-.143-.027-.197-.185-.194-.494.011-.988.012-1.482 0-.166-.004-.195.054-.194.204.008.694-.001 1.388.008 2.082.001.146-.044.176-.181.174a39.511 39.511 0 00-1.311-.001c-.111.001-.152-.022-.152-.144.004-1.974.004-3.949 0-5.923 0-.121.04-.146.152-.145.437.006.874.008 1.31 0 .14-.004.183.029.181.174-.008.644.001 1.287-.007 1.93-.002.15.028.208.194.204.494-.011.988-.011 1.482 0 .158.003.186-.05.185-.193-.007-.65 0-1.3-.006-1.949-.002-.134.038-.17.17-.167.43.009.861.012 1.292 0 .161-.006.182.055.181.193-.005.972-.003 1.943-.003 2.915zM6.628 12.28c0-.978.003-1.956-.003-2.934 0-.135.023-.183.173-.182 1.217.006 2.433.006 3.65 0 .135 0 .187.026.182.174-.012.347-.01.694 0 1.041.003.128-.042.157-.162.156-.672-.005-1.343.001-2.015-.006-.144-.001-.195.029-.191.185.007.336.01.27 0 .605-.004.146.031.194.186.192.551-.01 1.103.002 1.654-.008.155-.003.189.048.185.191-.01.353-.009.707 0 1.06.002.125-.036.16-.16.159-.558-.007-1.115.001-1.673-.006-.141-.002-.196.025-.193.183.005.255-.003.51 0 .757.003.136.042.167.172.166.703-.006 1.406 0 2.11-.007.146-.001.195.034.19.186-.013.34-.009.682-.002 1.022.002.117-.021.164-.154.163a454.315 454.315 0 00-3.8 0c-.136.001-.151-.05-.15-.164.003-.978.001-1.956.001-2.933zM11.95 12.266c0-.972.003-1.943-.003-2.915-.002-.148.036-.191.187-.187.424.01.849.011 1.273 0 .158-.005.183.05.183.191-.005 1.483 0 2.965-.006 4.448-.001.159.027.215.203.212.659-.013 1.318 0 1.976-.009.147-.002.18.043.177.18-.01.348-.009.695-.001 1.042.002.116-.03.15-.148.149a514.897 514.897 0 00-3.687 0c-.127 0-.157-.037-.157-.159.005-.984.003-1.968.003-2.952z"/>
  </g>
  <defs>
    <clipPath id="clip0">
      <path fill="#fff" d="M0 0h23.143v24H0z"/>
    </clipPath>
  </defs>
</svg>
