<svg xmlns="http://www.w3.org/2000/svg" width="24" height="24" fill="none" viewBox="0 0 24 24">
  <g clip-path="url(#clip0)">
    <path fill="#FAFBFC" d="M14.119 18.075c0-3.87-3.19-7.06-7.06-7.06C3.19 11.016 0 14.207 0 18.076c0 .611.068 1.29.272 1.9.067.204.135.476.203.675.068.136.136.204.272.204h1.9a.292.292 0 00.272-.271c0-.068 0-.068-.067-.136l-.204-.403c-1.019-2.376.067-5.16 2.443-6.245 2.376-1.018 5.159.067 6.245 2.443.271.612.407 1.222.407 1.9 0 .612-.136 1.29-.407 1.901-.068.136-.136.272-.204.476-.067.135 0 .271.136.339.067 0 .067.067.136.067h1.969c.135 0 .203-.067.271-.203.067-.204.136-.475.204-.675.135-.675.271-1.358.271-1.969v-.003z"/>
    <path fill="#fff" d="M15.07 8.708a8.949 8.949 0 00-8.957 8.96c0 .75.067 1.56.271 2.308.068.203.136.475.204.675.067.135.135.203.271.203h1.9a.292.292 0 00.272-.271v-.136c-.067-.136-.136-.34-.203-.475-1.222-3.462.543-7.263 3.937-8.485 3.395-1.223 7.26.55 8.481 3.94a6.551 6.551 0 010 4.549c-.067.135-.135.339-.203.475-.068.135 0 .271.136.339h2.036c.136 0 .203-.067.271-.204.068-.203.136-.475.204-.675 1.29-4.75-1.561-9.707-6.38-10.928-.676-.204-1.426-.272-2.24-.272v-.003z"/>
    <path fill="#F3F3FA" d="M20.025 11.016a7.908 7.908 0 00-7.943-7.942 7.909 7.909 0 00-7.941 7.942c0 .271 0 .475.067.75h2.308c-.34-3.055 1.969-5.838 5.023-6.177 3.054-.34 5.838 1.968 6.177 5.023v.675a5.643 5.643 0 01-1.154 3.054c-.067.136-.067.34.068.408.067.067.135.067.203.067h2.037c.135 0 .203-.067.271-.136.543-1.018.882-2.24.882-3.393v-.272h.002z"/>
  </g>
  <defs>
    <clipPath id="clip0">
      <path fill="#fff" d="M0 0h24v24H0z"/>
    </clipPath>
  </defs>
</svg>
