<svg width="24" height="24" viewBox="0 0 24 24" fill="none" xmlns="http://www.w3.org/2000/svg">
<g clip-path="url(#clip0)">
<path d="M14.1188 18.075C14.1188 14.2058 10.9283 11.0156 7.05938 11.0156C3.1905 11.0156 0 14.2061 0 18.075C0 18.6863 0.0675 19.365 0.2715 19.9755C0.339 20.1791 0.40725 20.4506 0.475125 20.6505C0.542625 20.7863 0.610875 20.8541 0.746625 20.8541H2.6475C2.71789 20.8492 2.78414 20.8191 2.83403 20.7692C2.88393 20.7193 2.9141 20.653 2.919 20.5826C2.919 20.5151 2.919 20.5151 2.8515 20.4469L2.6475 20.0438C1.62937 17.6681 2.715 14.8849 5.091 13.7989C7.46663 12.7808 10.2499 13.8664 11.3359 16.2424C11.6074 16.8536 11.7431 17.4641 11.7431 18.1429C11.7431 18.7541 11.6074 19.4329 11.3359 20.0434C11.2684 20.1791 11.2001 20.3149 11.1322 20.5185C11.0648 20.6543 11.1322 20.79 11.268 20.8579C11.3355 20.8579 11.3355 20.9254 11.4037 20.9254H13.3725C13.5083 20.9254 13.5761 20.8579 13.644 20.7218C13.7115 20.5181 13.7797 20.2466 13.8476 20.0468C13.9834 19.3718 14.1191 18.6893 14.1191 18.078L14.1188 18.075Z" fill="#008774"/>
<path d="M15.0694 8.70752C10.1138 8.70752 6.11255 12.7125 6.11255 17.6678C6.11255 18.4178 6.18005 19.2289 6.38405 19.9755C6.45155 20.1791 6.5198 20.4506 6.58767 20.6505C6.65517 20.7863 6.72342 20.8541 6.85917 20.8541H8.75967C8.83007 20.8492 8.89631 20.8191 8.94621 20.7692C8.9961 20.7193 9.02628 20.653 9.03117 20.5826V20.4469C8.96367 20.3111 8.89542 20.1075 8.82755 19.9718C7.6058 16.5098 9.37055 12.7088 12.765 11.4866C16.1596 10.2645 20.0251 12.0375 21.2464 15.4275C21.7895 16.8949 21.7895 18.5082 21.2464 19.9755C21.1789 20.1113 21.1107 20.3149 21.0428 20.4506C20.9749 20.5864 21.0428 20.7221 21.1786 20.79H23.2148C23.3505 20.79 23.4184 20.7225 23.4863 20.5864C23.5538 20.3828 23.6221 20.1113 23.6899 19.9114C24.9799 15.1601 22.1288 10.2045 17.3093 8.98277C16.6343 8.77914 15.8843 8.71127 15.0694 8.71127V8.70752Z" fill="#00AE9E"/>
<path d="M20.0249 11.0157C20.0293 9.97146 19.8268 8.93672 19.4292 7.97117C19.0316 7.00561 18.4467 6.12835 17.7083 5.39001C16.9699 4.65167 16.0926 4.06686 15.127 3.66935C14.1614 3.27183 13.1267 3.06946 12.0824 3.07392C11.0383 3.06956 10.0036 3.272 9.03811 3.66956C8.0726 4.06713 7.19537 4.65194 6.45704 5.39028C5.71871 6.12861 5.1339 7.00583 4.73633 7.97134C4.33877 8.93685 4.13633 9.97153 4.14069 11.0157C4.14069 11.2872 4.14069 11.4908 4.20819 11.7657H6.51594C6.17657 8.71093 8.48469 5.92805 11.5391 5.58867C14.5934 5.2493 17.3767 7.55743 17.7161 10.6118V11.2868C17.6486 12.3728 17.2409 13.4588 16.5622 14.3415C16.4947 14.4773 16.4947 14.6809 16.6297 14.7488C16.6972 14.8163 16.7654 14.8163 16.8333 14.8163H18.8696C19.0053 14.8163 19.0732 14.7488 19.1411 14.6805C19.6841 13.6624 20.0234 12.4407 20.0234 11.2868V11.0153L20.0249 11.0157Z" fill="#008774"/>
</g>
<defs>
<clipPath id="clip0">
<rect width="24" height="24" fill="white"/>
</clipPath>
</defs>
</svg>
