<svg width="64" height="64" viewBox="0 0 64 64" fill="none" xmlns="http://www.w3.org/2000/svg">
<g opacity="0.8">
<path fill-rule="evenodd" clip-rule="evenodd" d="M37.1975 15.4379C34.5119 17.0358 32.5913 19.6158 31.7894 22.7035L31.0511 25.5445L36.8025 27.1336L37.5406 24.2926C38.3488 21.1874 41.4549 19.3404 44.4664 20.1718C47.4786 21.0045 49.2729 24.2073 48.4666 27.312C47.66 30.4162 44.5549 32.2649 41.5407 31.4328L41.4772 31.4152L24.8632 26.8245C21.8675 25.9964 18.7391 26.4205 16.0536 28.0184C13.3684 29.616 11.4479 32.196 10.6459 35.2837C9.84332 38.3711 10.2556 41.5957 11.8066 44.3642C13.3576 47.1327 15.8613 49.113 18.8571 49.9405C21.8528 50.7686 24.9812 50.3445 27.6663 48.7468C30.3519 47.1489 32.2725 44.569 33.0744 41.4813L33.8127 38.6403L28.0613 37.0511L27.3233 39.8922C26.5163 42.9978 23.4102 44.8447 20.3974 44.013C17.3852 43.1803 15.5909 39.9775 16.3972 36.8728C16.8009 35.3204 17.7792 34.0826 19.0334 33.3364C20.2873 32.5903 21.8166 32.3362 23.323 32.752L40.0006 37.3603C42.9963 38.1884 46.1247 37.7643 48.8102 36.1664C51.4954 34.5688 53.4159 31.9888 54.2179 28.9011C55.0205 25.8136 54.6082 22.5891 53.0572 19.8205C51.5062 17.052 49.0025 15.0718 46.0067 14.2443C43.011 13.4162 39.8826 13.8403 37.1975 15.4379Z" fill="url(#paint0_linear)"/>
</g>
<defs>
<linearGradient id="paint0_linear" x1="11.9874" y1="30.4377" x2="23.9681" y2="50.5735" gradientUnits="userSpaceOnUse">
<stop stop-color="#62F91F"/>
<stop offset="1" stop-color="#5EAA53"/>
</linearGradient>
</defs>
</svg>
