<svg xmlns="http://www.w3.org/2000/svg" width="24" height="24" fill="none" viewBox="0 0 24 24">
  <g clip-path="url(#clip0)">
    <path fill="#B7CA9D" d="M3.268 16.579l.168.19 8.454 2.396.038-1.485-5.92-1.486-.29-.105-2.45.49z"/>
    <path fill="#B7CA9D" d="M20.421 16.579l-8.634 2.881-.026-1.78 5.921-1.486.258-.29 2.481.675z"/>
    <path fill="#3C4929" d="M11.761 6.398l5.921 1.38 2.604-.124.135-.26-8.25-2.97-.41 1.974z"/>
    <path fill="#759C3E" d="M6.007 16.194l-2.739.384-.076-.284V7.693l.076-.3 2.475.184.264.201v8.416z"/>
    <path fill="#3C4929" d="M11.928 6.398l-5.92 1.38-2.74-.385.104-.162 8.518-2.424.038 1.59z"/>
    <path fill="#4B612C" d="M11.833.002L2 4.965l.005 14.045 9.828 4.96.146-.222V.29l-.146-.288zM8.958 18.286l-5.69-1.707V7.394l5.69-1.707v12.6zm8.724-2.092l2.739.385.153-.272V7.655l-.153-.261-2.739.384v8.416z"/>
    <path fill="#759C3E" d="M11.833 23.97l9.852-4.96.005-14.045L11.833.002V23.97zm2.899-18.283l5.689 1.707v9.185l-5.69 1.707v-12.6z"/>
  </g>
  <defs>
    <clipPath id="clip0">
      <path fill="#fff" d="M0 0h19.69v24H0z" transform="translate(2)"/>
    </clipPath>
  </defs>
</svg>
