<svg xmlns="http://www.w3.org/2000/svg" width="25" height="25" fill="none" viewBox="0 0 25 25">
  <g clip-path="url(#clip0)">
    <path fill="#008C99" d="M24.674 9.495c-1.117-5.175-7.337-8.212-13.847-6.778C4.292 4.126-.081 9.47 1.037 14.645c1.117 5.174 7.336 8.211 13.847 6.802 6.535-1.433 10.932-6.778 9.79-11.952zm-11.83 7.336a4.77 4.77 0 01-4.762-4.761 4.77 4.77 0 014.761-4.762 4.77 4.77 0 014.762 4.762 4.754 4.754 0 01-4.762 4.761z"/>
    <path fill="#72CCD2" d="M13.912 5.413a6.843 6.843 0 00-6.85 6.851c0 3.79 3.06 6.851 6.85 6.851 3.79 0 6.85-3.061 6.85-6.85 0-3.79-3.06-6.852-6.85-6.852zm-1.069 10.811a4.152 4.152 0 01-4.154-4.154 4.168 4.168 0 014.154-4.154c2.284 0 4.178 1.87 4.178 4.154s-1.87 4.154-4.178 4.154z"/>
  </g>
  <defs>
    <clipPath id="clip0">
      <path fill="#fff" d="M0 0h24v24H0z" transform="translate(.858 .092)"/>
    </clipPath>
  </defs>
</svg>
