<svg width="24" height="24" viewBox="0 0 24 24" fill="none" xmlns="http://www.w3.org/2000/svg">
<g clip-path="url(#clip0)">
<path fill-rule="evenodd" clip-rule="evenodd" d="M20.4712 11.565C20.4712 16.32 16.7024 20.175 12.054 20.175C7.40545 20.175 3.63745 16.32 3.63745 11.565C3.63745 6.80996 7.40545 2.95496 12.054 2.95496C16.7024 2.95496 20.4712 6.80996 20.4712 11.565Z" fill="#D33833"/>
<path d="M3.97947 13.6972C3.97947 13.6972 3.37047 4.71899 11.643 4.46249L11.0655 3.50024L6.57597 5.00024L5.30097 6.47549L4.17897 8.62424L3.53772 11.1255L3.73047 12.7927" fill="#EF3D3A"/>
<path d="M6.28873 5.69252C4.81123 7.20377 3.89773 9.29027 3.89773 11.598C3.89773 13.9058 4.81273 15.993 6.28873 17.5028C7.76473 19.0125 9.80248 19.9455 12.054 19.9455C14.3055 19.9455 16.3417 19.0133 17.8192 17.5028C19.2967 15.9923 20.2102 13.905 20.2102 11.598C20.2102 9.29102 19.2952 7.20302 17.8192 5.69252C16.3432 4.18202 14.3055 3.24977 12.054 3.24977C9.80248 3.24977 7.76623 4.18202 6.28873 5.69252ZM5.91523 17.8688C4.34548 16.2638 3.37573 14.0453 3.37573 11.5988C3.37573 9.15227 4.34623 6.93377 5.91523 5.32877C7.48423 3.72377 9.65623 2.72777 12.054 2.72852C14.4517 2.72927 16.6237 3.72377 18.1927 5.32877C19.7617 6.93377 20.733 9.15227 20.733 11.5988C20.733 14.0453 19.7625 16.2638 18.1927 17.8688C16.623 19.4738 14.4517 20.469 12.054 20.469C9.65623 20.469 7.48423 19.4738 5.91523 17.8688Z" fill="#231F20"/>
<path fill-rule="evenodd" clip-rule="evenodd" d="M15.5969 11.613L14.3219 11.8058L12.5894 11.9985L11.4674 12.0308L10.3769 11.9985L9.54293 11.742L8.80568 10.9395L8.22818 9.30454L8.10068 8.95204L7.33118 8.69554L6.88118 7.95829L6.55493 6.90004L6.90743 5.97004L7.74143 5.68129L8.41493 6.00229L8.73593 6.70729L9.12068 6.64279L9.24818 6.48229L9.12068 5.74504L9.08843 4.81504L9.28118 3.54004L9.27368 2.80729L9.85868 1.87279L10.8847 1.13554L12.6787 0.357788L14.6662 0.646538L16.3987 1.89679L17.2012 3.17179L17.7142 4.10179L17.8417 6.41029L17.4569 8.39779L16.7519 10.1603L16.0784 11.0903" fill="#F0D6B7"/>
<path fill-rule="evenodd" clip-rule="evenodd" d="M14.5065 17.16L9.92099 17.3528V18.1223L10.3057 20.8148L10.113 21.0398L6.9075 19.95L6.6825 19.5653L6.3615 15.9428L5.62425 13.7625L5.46375 13.2495L8.02875 11.487L8.83124 11.166L9.53625 12.0315L10.1452 12.5768L10.8502 12.8018L11.1705 12.8978L11.5552 14.565L11.844 14.9175L12.5812 14.661L12.0682 15.6548L14.8582 16.9695L14.5057 17.1623" fill="#335061"/>
<path fill-rule="evenodd" clip-rule="evenodd" d="M6.90755 5.97009L7.74155 5.68134L8.41505 6.00234L8.73605 6.70734L9.1208 6.64284L9.2168 6.25809L9.02405 5.52084L9.2168 3.75684L9.0563 2.79459L9.6338 2.12109L10.884 1.12734L10.5315 0.647339L8.76755 1.51284L8.0303 2.09034L7.6133 2.98809L6.97205 3.85359L6.7793 4.87959L6.9068 5.97009" fill="#6D6B6D"/>
<path fill-rule="evenodd" clip-rule="evenodd" d="M8.22151 2.95511C8.22151 2.95511 8.70151 1.76861 10.6268 1.19261C12.552 0.616611 10.7228 0.775611 10.7228 0.775611L8.63776 1.57811L7.83526 2.38061L7.48276 3.02186L8.22001 2.95736L8.22151 2.95511ZM7.26001 5.74511C7.26001 5.74511 6.58651 3.50036 9.15226 3.18011L9.05626 2.79536L7.29376 3.21236L6.78076 4.87961L6.90826 5.97011L7.26076 5.74511" fill="#DCD9D8"/>
<path fill-rule="evenodd" clip-rule="evenodd" d="M8.28601 8.72706L8.70601 8.32056C8.71022 8.38043 8.73426 8.43719 8.77432 8.48188C8.81439 8.52656 8.8682 8.55663 8.92726 8.56731C8.95951 8.79231 9.05476 10.8121 10.4273 11.9026C10.5533 12.0023 9.40126 11.7421 9.40126 11.7421L8.37526 10.1386L8.28601 8.72706ZM14.1788 8.11731C14.1788 8.11731 14.2538 7.14531 14.5163 7.22031C14.7788 7.29531 14.7788 7.55781 14.7788 7.55781C14.7788 7.55781 14.1428 7.96881 14.1803 8.11881" fill="#F7E4CD"/>
<path d="M16.848 4.55774C16.848 4.55774 16.3193 4.67024 16.2705 5.13524C16.2218 5.60024 16.848 5.23124 16.944 5.19974L16.848 4.55774ZM12.975 4.58999C12.975 4.58999 12.27 4.68599 12.27 5.13524C12.27 5.58449 13.0725 5.55224 13.296 5.36024" fill="#F7E4CD"/>
<path fill-rule="evenodd" clip-rule="evenodd" d="M8.60619 6.67505C8.60619 6.67505 7.38744 5.93705 7.25994 6.6428C7.13244 7.34855 6.84294 7.86155 7.45269 8.5988L7.03569 8.4713L6.65094 7.47755L6.52344 6.5153L7.26069 5.7458L8.09469 5.8103L8.57469 6.19505L8.60694 6.67505H8.60619ZM9.18444 4.65455C9.18444 4.65455 9.72969 1.83305 12.4874 1.27955C14.7577 0.831048 15.9502 1.37555 16.3994 1.88855C16.3994 1.88855 14.3789 -0.515952 12.4544 0.221298C10.5299 0.958548 9.11994 2.3213 9.14994 3.17855L9.18219 4.6538L9.18444 4.65455ZM16.6222 2.2163C16.6222 2.2163 15.6922 2.18405 15.6599 3.0188C15.6633 3.10778 15.685 3.19512 15.7237 3.2753C15.7237 3.2753 16.4617 2.4413 16.9102 2.89055L16.6222 2.2163ZM12.5504 3.36155C12.5504 3.36155 12.3907 2.08205 11.2994 2.82605C10.5944 3.30605 10.6582 3.98105 10.7864 4.10105C10.9147 4.22105 10.8802 4.4873 10.9777 4.31105C11.0752 4.1348 11.0429 3.55655 11.3962 3.39605C11.7494 3.23555 12.3262 3.0563 12.5512 3.3548" fill="#F7E4CD"/>
<path fill-rule="evenodd" clip-rule="evenodd" d="M9.53623 12.03L6.52123 13.377C6.52123 13.377 7.77148 18.3473 7.13023 19.887L6.68023 19.7265L6.64798 17.8343L5.81698 14.25L5.46448 13.2563L8.61448 11.1398L9.54448 12.0375L9.53623 12.03ZM9.84748 14.7788L10.275 15.3008V17.2245H9.76198L9.69823 15.7245C9.69823 15.564 9.76198 14.9873 9.76198 14.9873L9.84748 14.7788ZM9.85723 17.5125L8.41423 17.5763L8.83123 17.865L9.85723 18.0255" fill="#49728B"/>
<path fill-rule="evenodd" clip-rule="evenodd" d="M14.7953 17.1923L15.9818 17.16L16.2705 20.1105L15.0518 20.271L14.7953 17.193" fill="#335061"/>
<path fill-rule="evenodd" clip-rule="evenodd" d="M15.1162 17.1923L16.9117 17.0963L17.649 15.1403C17.649 15.0443 18.2902 12.4478 18.2902 12.4478L16.8472 10.9403L16.5585 10.6838L15.789 11.4533V14.4353L15.1155 17.1931" fill="#335061"/>
<path fill-rule="evenodd" clip-rule="evenodd" d="M15.918 16.9681L14.796 17.1931L14.9565 18.0908C15.3735 18.2836 16.0785 17.7698 16.0785 17.7698L15.918 16.9681ZM15.9495 11.3573L18.1943 13.0246L18.2588 12.2551L16.5593 10.6838L15.9503 11.3573" fill="#49728B"/>
<path fill-rule="evenodd" clip-rule="evenodd" d="M10.9703 23.5095L10.3065 20.8155L9.9765 18.828L9.92175 17.3527L12.9263 17.193H14.796L14.6258 20.568L14.9145 23.1652L14.8823 23.6452L12.4448 23.838L10.9695 23.517" fill="white"/>
<path fill-rule="evenodd" clip-rule="evenodd" d="M14.3774 17.16C14.3774 17.16 14.2169 20.4952 14.6984 22.86C14.6984 22.86 13.7362 23.469 12.3254 23.6295L15.0179 23.5335L15.3389 23.3407L14.9542 18.0817L14.8582 16.959" fill="#DCD9D8"/>
<path fill-rule="evenodd" clip-rule="evenodd" d="M16.3252 19.854L17.5754 19.5015L19.9484 19.374L20.3009 18.2835L19.6597 16.3913L18.9224 16.2953L17.8964 16.6163L16.9117 17.0963L16.3889 17.0003L15.9817 17.16" fill="white"/>
<path fill-rule="evenodd" clip-rule="evenodd" d="M16.3027 19.2121C16.3027 19.2121 17.1367 18.8273 17.265 18.8596L16.9125 17.0956L17.3295 16.9351L17.6182 18.7951L19.5742 18.8911C19.5742 18.8911 19.959 18.1538 19.863 17.3911L20.2155 18.4171L20.2477 18.9946L19.7347 19.7641L19.1572 19.8916L18.195 19.8593L17.874 19.4423L16.752 19.6028L16.3995 19.7303" fill="#DCD9D8"/>
<path d="M15.042 16.935L14.337 15.1395L13.5997 14.082C13.5997 14.082 13.7602 13.632 13.9845 13.632H14.7217L15.4267 13.8885L15.363 15.075L15.042 16.935Z" fill="white"/>
<path fill-rule="evenodd" clip-rule="evenodd" d="M15.1799 16.3275C15.1799 16.3275 14.2822 14.595 14.2822 14.34C14.2822 14.34 14.4427 13.9552 14.6669 14.0512C14.8912 14.1472 15.3719 14.4037 15.3719 14.4037V13.7947L14.2814 13.5697L13.5442 13.6657L14.7944 16.6162L15.0509 16.6485" fill="#DCD9D8"/>
<path d="M11.2575 12.0937L10.3695 11.9962L9.53552 11.7397V12.0285L9.94277 12.4785L11.2178 13.056" fill="white"/>
<path fill-rule="evenodd" clip-rule="evenodd" d="M9.825 12.1906C9.825 12.1906 10.8188 12.6076 11.1398 12.5116L11.172 12.8963L10.2743 12.7043L9.729 12.3196L9.825 12.1921" fill="#DCD9D8"/>
<path fill-rule="evenodd" clip-rule="evenodd" d="M16.3216 13.7423C15.7778 13.7273 15.2866 13.662 14.8553 13.5398C14.8853 13.3635 14.8298 13.1903 14.8741 13.0628C14.9941 12.9765 15.1951 12.978 15.3766 12.9578C15.2191 12.8805 14.9993 12.8505 14.8186 12.8948C14.8141 12.7725 14.7586 12.6968 14.7263 12.6008C15.0323 12.4913 15.7538 11.7758 16.1603 12.0128C16.3538 12.1253 16.4363 12.7703 16.4513 13.0823C16.4641 13.3418 16.4288 13.6043 16.3216 13.7423Z" fill="#D33833"/>
<path d="M16.3216 13.7423C15.7778 13.7273 15.2866 13.662 14.8553 13.5398C14.8853 13.3635 14.8298 13.1903 14.8741 13.0628C14.9941 12.9765 15.1951 12.978 15.3766 12.9578C15.2191 12.8805 14.9993 12.8505 14.8186 12.8948C14.8141 12.7725 14.7586 12.6968 14.7263 12.6008C15.0323 12.4913 15.7538 11.7758 16.1603 12.0128C16.3538 12.1253 16.4363 12.7703 16.4513 13.0823C16.4641 13.3418 16.4288 13.6043 16.3216 13.7423V13.7423Z" stroke="#D33833" stroke-width="0.514"/>
<path fill-rule="evenodd" clip-rule="evenodd" d="M13.7197 12.8528L13.7152 12.9773C13.545 13.0898 13.2712 13.0875 13.0852 13.1813C13.3597 13.1933 13.5765 13.2593 13.764 13.3538L13.752 13.665C13.4407 13.878 13.1565 14.196 12.7897 14.3955C12.6172 14.49 12.0082 14.733 11.8237 14.6903C11.7187 14.6663 11.7097 14.5365 11.6685 14.4143C11.58 14.1518 11.376 13.737 11.3572 13.3433C11.3347 12.846 11.2845 12.0135 11.82 12.1155C12.2628 12.2094 12.6901 12.3658 13.089 12.5798C13.2937 12.6923 13.4115 12.8295 13.722 12.8535" fill="#D33833"/>
<path d="M13.7197 12.8528L13.7152 12.9773C13.545 13.0898 13.2712 13.0875 13.0852 13.1813C13.3597 13.1933 13.5765 13.2593 13.764 13.3538L13.752 13.665C13.4407 13.878 13.1565 14.196 12.7897 14.3955C12.6172 14.49 12.0082 14.733 11.8237 14.6903C11.7187 14.6663 11.7097 14.5365 11.6685 14.4143C11.58 14.1518 11.376 13.737 11.3572 13.3433C11.3347 12.846 11.2845 12.0135 11.82 12.1155C12.2628 12.2094 12.6901 12.3658 13.089 12.5798C13.2937 12.6923 13.4115 12.8295 13.722 12.8535L13.7197 12.8528Z" stroke="#D33833" stroke-width="0.514"/>
<path fill-rule="evenodd" clip-rule="evenodd" d="M14.0287 13.446C13.9815 13.176 13.926 13.098 13.9477 12.861C14.67 12.3795 14.805 13.6875 14.0287 13.446Z" fill="#D33833"/>
<path d="M14.0287 13.446C13.9815 13.176 13.926 13.098 13.9477 12.861C14.67 12.3795 14.805 13.6875 14.0287 13.446Z" stroke="#D33833" stroke-width="0.514"/>
<path fill-rule="evenodd" clip-rule="evenodd" d="M15.075 13.665C15.075 13.665 14.85 13.344 15.0105 13.248C15.171 13.152 15.3315 13.248 15.4275 13.0875C15.5235 12.927 15.4275 12.831 15.4598 12.6375C15.492 12.444 15.6525 12.4125 15.8123 12.381C15.972 12.3495 16.4213 12.285 16.4858 12.4455L16.293 11.868L15.9083 11.7405L14.6895 12.4455L14.625 12.798V13.503L15.075 13.665ZM11.7 14.7225L11.5755 13.2225C11.5005 12.4762 11.7555 12.606 12.402 12.606C12.501 12.606 13.002 12.7237 13.047 12.7987C13.2218 13.1557 12.747 13.0762 13.2495 13.3462C13.6665 13.5735 14.403 13.2082 14.2343 12.7027C14.1398 12.5902 13.743 12.6675 13.6005 12.594L12.849 12.204C12.5303 12.039 11.7938 11.7975 11.454 12.0285C10.593 12.6135 11.508 14.0775 11.8155 14.688" fill="#EF3D3A"/>
<path fill-rule="evenodd" clip-rule="evenodd" d="M12.5512 3.36221C11.6774 3.15971 11.2432 3.72821 10.9777 4.31846C10.7414 4.26146 10.8277 3.93971 10.9027 3.77546C11.0527 3.34496 11.6902 2.77271 12.2047 2.84996C12.4267 2.88371 12.7267 3.08621 12.5587 3.36221H12.5512ZM16.8097 4.34996L16.8509 4.35146C17.0482 4.76171 17.2259 5.19671 17.4682 5.55146C17.3009 5.93996 16.2044 6.28421 16.2209 5.58596C16.4579 5.48246 16.8674 5.56496 17.0782 5.43221C16.9567 5.09846 16.7812 4.81421 16.8082 4.34246L16.8097 4.34996ZM12.9982 4.36796C13.1857 4.71146 13.2457 5.07296 13.5127 5.33171C13.6327 5.44871 13.8652 5.59121 13.7504 5.91671C13.6685 6.04205 13.551 6.14 13.4129 6.19796C12.9967 6.32096 12.0254 6.22346 12.3629 5.70446C12.7079 5.71946 13.1699 5.92796 13.4279 5.67821C13.2299 5.36321 12.8782 4.73696 13.0079 4.36871L12.9982 4.36796ZM16.6604 7.85996C16.0334 8.26271 15.3344 8.69996 14.3069 8.59946C14.0872 8.40896 14.0039 7.98446 14.2169 7.70321C14.3279 7.89371 14.2582 8.24546 14.5679 8.29796C15.1507 8.39771 15.8294 7.94171 16.2479 7.78196C16.5082 7.34321 16.2254 7.18196 15.9914 6.89996C15.5114 6.32246 14.8687 5.60546 14.8919 4.73996C15.0854 4.59971 15.1019 4.95446 15.1304 5.01896C15.3809 5.60396 16.0109 6.35396 16.4707 6.85646C16.5832 6.98021 16.7707 7.09871 16.7902 7.18046C16.8502 7.41821 16.6349 7.70246 16.6597 7.86071L16.6604 7.85996ZM8.38719 7.43546C8.19069 7.32296 8.14419 6.82946 7.91319 6.81521C7.58319 6.79496 7.64319 7.45646 7.64469 7.84271C7.41744 7.63646 7.37769 7.00271 7.54419 6.67646C7.35444 6.58346 7.26894 6.77921 7.16394 6.84896C7.29894 5.86496 8.60394 6.39896 8.38644 7.43621L8.38719 7.43546ZM17.0527 8.26121C16.7527 8.81621 16.3477 9.42821 15.4912 9.44621C15.4739 9.26621 15.4612 8.99396 15.4919 8.88596C16.1467 8.82296 16.5509 8.48996 17.0519 8.26121H17.0527ZM12.9494 8.62121C13.4954 8.90846 14.4997 8.93921 15.2422 8.91746C15.2819 9.08021 15.2812 9.28121 15.2827 9.47996C14.3279 9.52721 13.1999 9.29246 12.9577 8.62121H12.9494ZM12.8527 9.15671C13.2307 10.1055 14.5289 9.99671 15.6239 9.96971C15.5759 10.0927 15.4709 10.2382 15.3412 10.2907C14.9902 10.4407 14.0227 10.542 13.5359 10.2832C13.2269 10.1182 13.0289 9.74771 12.8594 9.53021C12.7844 9.42521 12.3704 9.15671 12.8534 9.15521" fill="#231F20"/>
<path fill-rule="evenodd" clip-rule="evenodd" d="M16.608 14.397L15.2145 16.6057C15.435 15.9577 15.5295 14.8732 15.5625 14.0452C16.0237 13.8292 16.419 14.094 16.608 14.3977" fill="#81B0C4"/>
<path fill-rule="evenodd" clip-rule="evenodd" d="M18.9929 17.1255C18.4964 17.2245 18.1477 17.7075 17.6639 17.676C17.9302 17.301 18.3959 17.151 18.9929 17.1255ZM19.2119 17.9025C18.8069 17.9452 18.3322 18.0105 17.9219 17.9775C18.1169 17.6805 18.8647 17.7825 19.2119 17.9025ZM19.3522 18.5715C18.8977 18.5812 18.3322 18.5722 17.9002 18.5362C18.1552 18.2617 19.0574 18.4342 19.3522 18.5715Z" fill="#231F20"/>
<path fill-rule="evenodd" clip-rule="evenodd" d="M15.7522 20.4045C15.8175 20.9745 16.0447 21.5543 16.0147 22.179C15.7635 22.2638 15.6187 22.338 15.282 22.3365L15.2085 20.4863C15.3735 20.4975 15.6187 20.3678 15.7515 20.4113" fill="#DCD9D8"/>
<path fill-rule="evenodd" clip-rule="evenodd" d="M15.0195 11.9895C14.7915 12.1395 14.5965 12.3248 14.3775 12.4845C13.8915 12.5085 13.626 12.4508 13.269 12.1718C13.275 12.1493 13.311 12.159 13.3118 12.132C13.8323 12.3645 14.4938 12.0375 15.0195 11.9895Z" fill="#F0D6B7"/>
<path fill-rule="evenodd" clip-rule="evenodd" d="M12.2872 15.537C12.4297 14.9175 12.9907 14.5965 13.4992 14.2545C14.0242 14.922 14.3437 15.777 14.6955 16.605C13.8645 16.3545 13.0155 15.948 12.288 15.5363" fill="#81B0C4"/>
<path fill-rule="evenodd" clip-rule="evenodd" d="M15.21 20.487C15.189 20.9933 15.2595 21.8071 15.2835 22.3373C15.621 22.3381 15.765 22.2638 16.0163 22.1798C16.0448 21.5543 15.8183 20.976 15.7538 20.4053C15.621 20.3701 15.3765 20.499 15.2108 20.4803L15.21 20.487ZM9.96604 17.607C10.188 19.6486 10.5098 21.357 11.1 23.1721C12.4095 23.5695 13.9875 23.604 15.1455 23.2456C14.9333 22.2255 15.0255 20.9828 14.9018 19.893L14.7278 17.4158C13.3253 17.1233 11.343 17.3483 9.96679 17.6048L9.96604 17.607ZM15.066 17.4308C15.054 18.3083 15.105 19.1723 15.1725 20.0505L16.05 19.8976C15.9488 19.0523 15.96 18.1013 15.7538 17.3535C15.5138 17.3558 15.3045 17.3505 15.066 17.4308ZM16.7738 17.2898C16.614 17.2523 16.4288 17.2883 16.275 17.2913L16.575 19.545C16.815 19.5525 16.9425 19.4401 17.1413 19.4011C17.1518 18.7425 17.0835 17.835 16.7663 17.2898H16.7738ZM19.3598 19.6523C19.8608 19.5308 20.175 18.9173 20.0348 18.2873C19.941 17.8643 19.7738 17.0671 19.5945 16.7963C19.4625 16.5961 19.1033 16.3335 18.8168 16.5173C18.3503 16.8158 17.529 16.9028 17.1893 17.2635C17.3595 17.8313 17.4128 18.6105 17.4833 19.3298C18.066 19.3658 18.7823 19.1693 19.2668 19.3778C18.9293 19.4873 18.4898 19.4881 18.198 19.6478C18.4365 19.7633 18.996 19.74 19.3605 19.6516L19.3598 19.6523ZM14.7038 16.6073C14.3513 15.7801 14.0325 14.9228 13.5075 14.2568C12.999 14.5981 12.4388 14.9191 12.2955 15.5393C13.023 15.9518 13.8728 16.3568 14.703 16.608L14.7038 16.6073ZM15.5708 14.0461C15.5378 14.8733 15.4433 15.9586 15.2228 16.6066C15.7478 15.9368 16.173 15.1568 16.6163 14.3978C16.4273 14.0948 16.0313 13.8308 15.5708 14.0461ZM14.5958 13.6965C14.3963 13.674 14.2283 13.9253 13.968 13.8166L13.794 14.0176C14.3663 14.7076 14.619 15.6855 15.069 16.4956C15.306 15.7171 15.279 14.8643 15.3315 14.0146C15.006 14.0356 14.8253 13.7198 14.5965 13.6958L14.5958 13.6965ZM13.9635 12.8625C13.9425 13.0988 13.9973 13.1761 14.0445 13.4475C14.8208 13.6905 14.685 12.3826 13.9635 12.8625ZM13.1025 12.5798C12.7036 12.3658 12.2764 12.2095 11.8335 12.1155C11.298 12.0128 11.3483 12.8461 11.3708 13.3433C11.3888 13.7371 11.5935 14.1533 11.682 14.4143C11.724 14.5365 11.733 14.6656 11.8373 14.6903C12.0218 14.7331 12.63 14.49 12.8033 14.3955C13.1708 14.1953 13.4543 13.8705 13.7655 13.665L13.7775 13.3538C13.59 13.2608 13.374 13.194 13.0988 13.1813C13.2863 13.0876 13.5593 13.089 13.7288 12.9773L13.7333 12.8528C13.4228 12.8288 13.3058 12.6908 13.1003 12.579L13.1025 12.5798ZM9.90754 11.9993C9.63004 12.2813 10.686 12.6653 11.0228 12.6863C11.0205 12.5078 11.1248 12.3398 11.1038 12.2115C10.704 12.141 10.1783 12.1875 9.90754 11.9993ZM13.3275 12.1313C13.326 12.159 13.29 12.1486 13.2848 12.1711C13.6418 12.4501 13.9073 12.5085 14.3933 12.4838L15.0353 11.9888C14.5103 12.036 13.848 12.3623 13.3275 12.1313ZM16.467 13.0838C16.452 12.7703 16.3695 12.1268 16.176 12.0143C15.7695 11.7773 15.0473 12.4928 14.742 12.6023C14.775 12.6983 14.8305 12.7748 14.8343 12.8963C15.0143 12.8513 15.2355 12.8813 15.3923 12.9593C15.2108 12.9795 15.0173 12.9781 14.8898 13.0643C14.8448 13.1918 14.9003 13.3643 14.871 13.5413C15.3015 13.6628 15.7935 13.7273 16.3373 13.7438C16.4423 13.6066 16.4798 13.344 16.467 13.0838ZM9.43954 12.2723C9.35254 12.2101 8.76229 11.4428 8.68954 11.4743C7.62229 11.8943 6.62479 12.6218 5.73304 13.3118C6.58354 15.1358 6.92554 17.3716 6.98704 19.5256C7.96204 19.9808 8.81704 20.6378 10.137 20.706L9.75754 17.6401C9.42529 17.4998 8.94904 17.646 8.63854 17.5965C8.63554 17.2215 9.11329 17.4316 9.15304 17.1811C9.18304 16.9906 8.89054 16.9763 8.98579 16.6763C9.22879 16.7648 9.35629 16.9598 9.61579 17.0325C9.85279 16.515 9.61279 15.5985 9.64579 15.1575C9.65329 15.0765 9.68629 14.7075 9.86854 14.772C10.0298 14.829 9.85954 15.7545 9.87604 16.1633C9.89104 16.5406 9.83104 16.9133 9.98329 17.1428C11.2605 16.9688 12.558 16.8563 13.9395 16.8188C13.6358 16.6883 13.2743 16.5638 12.8783 16.3418C12.6638 16.2218 11.9873 15.969 11.9258 15.7643C11.8268 15.4395 12.1853 15.2663 12.246 14.988C11.601 15.3405 11.4758 14.6506 11.3235 14.1631C11.1855 13.7206 11.106 13.3905 11.073 13.1355C10.518 12.8708 9.92404 12.6105 9.44554 12.2633L9.43954 12.2723ZM15.9023 11.5673C16.7918 11.1361 16.9523 13.1798 16.6035 13.8368C16.6575 14.0333 16.8435 14.1083 16.9185 14.2845L15.366 16.8818C15.7425 16.647 16.281 16.8398 16.716 16.6568C16.878 16.5931 16.995 16.2218 17.118 15.9255C17.4555 15.1095 17.8095 14.0805 17.967 13.3005C18.0023 13.1228 18.0998 12.7365 18.078 12.5783C18.039 12.2955 17.6558 12.0856 17.46 11.9033L16.5 10.9943C16.3478 11.2193 16.0215 11.3693 15.897 11.5523L15.9023 11.5673ZM7.39129 3.68105C6.96754 4.14755 7.05604 5.02055 7.10779 5.6423C7.87279 5.1608 8.88979 5.6798 8.88079 6.49955C9.24679 6.4898 9.01729 6.04205 8.95129 5.7548C8.73529 4.8143 9.31579 3.7928 8.97754 2.93255C8.32129 2.98205 7.78204 3.25055 7.39129 3.68105ZM10.4228 0.97505C9.46279 1.24655 8.23429 1.94405 7.84054 2.80505C8.14579 2.76005 8.35804 2.60705 8.65804 2.58005C8.77204 2.57255 8.92054 2.62805 9.05179 2.59505C9.31204 2.53055 9.53179 1.9463 9.72904 1.7288C9.92104 1.51655 10.1513 1.4258 10.3088 1.2323C10.41 1.18355 10.56 1.1873 10.5653 1.03505C10.5203 0.9878 10.4753 0.96005 10.4153 0.96005L10.4228 0.97505ZM15.4155 1.23005C14.4203 0.6698 12.735 0.24755 11.676 0.7748C10.821 1.2008 9.66604 1.9058 9.27229 2.7998C9.63979 3.6623 9.16354 4.45205 9.13279 5.3273C9.11629 5.7923 9.35179 6.19955 9.36979 6.7073C9.24379 6.91505 8.85979 6.9398 8.59279 6.9263C8.50279 6.4778 8.34529 5.9738 7.88479 5.9228C7.23229 5.85155 6.75379 6.3923 6.72379 6.9578C6.68854 7.6223 7.23379 8.72405 8.00779 8.64755C8.30629 8.61755 8.37979 8.31755 8.70529 8.3213C8.88154 8.6738 8.43304 8.78405 8.38729 9.0353C8.37529 9.10055 8.42479 9.3548 8.45329 9.47405C8.59354 10.0545 8.90704 10.8053 9.21529 11.2471C9.60679 11.8073 10.3748 11.892 11.2028 11.9468C11.3505 11.6288 11.8943 11.6543 12.249 11.7383C11.8245 11.5703 11.4293 11.1623 11.1015 10.8008C10.7265 10.3868 10.344 9.94205 10.3253 9.40055C11.0355 10.3861 11.6228 11.2471 12.9143 11.6806C13.8915 12.0083 15.0338 11.5306 15.7845 11.0026C16.0965 10.7836 16.2825 10.4355 16.5045 10.1175C17.3333 8.91755 17.7195 7.22255 17.6355 5.57255C17.6003 4.8923 17.6018 4.21505 17.373 3.75755C17.1345 3.27905 16.3275 2.85005 15.855 3.28355C15.7673 2.81855 16.248 2.53055 16.812 2.69855C16.41 2.17955 15.987 1.55555 15.4155 1.23305V1.23005ZM17.2703 16.5803C18.048 16.1933 19.5015 15.5393 19.9898 16.5818C20.1698 16.9658 20.3813 17.6153 20.4743 18.0121C20.6063 18.5716 20.3243 19.7475 19.7565 19.9358C19.2488 20.1008 18.6555 20.0918 18.0435 19.9688C17.9715 19.9088 17.8913 19.8038 17.835 19.6958C17.3978 19.6785 16.989 19.7183 16.644 19.8983C16.677 20.2208 16.458 20.2733 16.254 20.3408C16.1018 20.943 16.5578 21.7298 16.449 22.2788C16.371 22.6703 15.8895 22.7303 15.5363 22.8038C15.525 23.0288 15.5513 23.2028 15.576 23.3865C15.495 23.6843 15.132 23.8545 14.7885 23.8965C13.6575 24.0315 11.94 24.0938 10.851 23.7015C10.5473 22.9568 10.308 22.0515 10.056 21.2003C8.99479 21.3128 8.13604 20.7428 7.32754 20.3678C7.04704 20.2381 6.65254 20.1653 6.55504 19.9433C6.45379 19.7273 6.49504 19.3133 6.47029 18.9233C6.40654 17.9258 6.35029 16.962 6.09529 15.9398C5.97679 15.4808 5.77054 15.0773 5.62654 14.6348C5.49379 14.2253 5.26129 13.7198 5.20054 13.3103C5.11054 12.705 5.68054 12.6713 6.04504 12.4088C6.60754 12.0038 7.05004 11.7788 7.66129 11.4128C7.84129 11.304 8.38729 11.0378 8.44879 10.9028C8.57179 10.6523 8.23729 10.2991 8.14879 10.1026C8.00629 9.79205 7.93354 9.52805 7.91329 9.2213C7.40104 9.1403 7.01329 8.8358 6.77854 8.4923C6.39079 7.9238 6.12154 6.8723 6.45754 6.07205C6.48379 6.00905 6.60754 5.88455 6.63454 5.78855C6.67204 5.59805 6.56254 5.34455 6.55579 5.14205C6.52054 4.1018 6.73204 3.20705 7.43179 2.89205C7.71679 1.76705 8.73304 1.38455 9.69154 0.82055C10.05 0.61055 10.4445 0.47555 10.8525 0.32555C12.315 -0.21295 14.5605 -0.1117 15.7748 0.80705C16.2893 1.19705 17.1128 2.0183 17.4068 2.61455C18.1845 4.1858 18.129 6.8123 17.5853 8.72405C17.5125 8.98055 17.4053 9.3578 17.2583 9.66605C17.1548 9.8813 16.8345 10.3111 16.8735 10.5023C16.9133 10.6988 17.6048 11.2238 17.7533 11.3671C18.0203 11.6243 18.5273 11.967 18.5685 12.291C18.6135 12.6361 18.4163 13.11 18.3165 13.4438L17.2815 16.5788" fill="#231F20"/>
<path fill-rule="evenodd" clip-rule="evenodd" d="M12.0802 8.87247C12.1222 8.81622 12.3547 8.72998 12.6802 8.88748C12.6802 8.88748 12.2955 8.95197 12.3277 9.59247L12.1672 9.56022C12.1672 9.56022 12.0022 8.97823 12.0817 8.87173" fill="#F7E4CD"/>
<path fill-rule="evenodd" clip-rule="evenodd" d="M14.8921 14.3865C14.8921 14.484 14.8133 14.5627 14.7158 14.5627C14.6183 14.5627 14.5396 14.484 14.5396 14.3865C14.5396 14.289 14.6183 14.2102 14.7158 14.2102C14.8133 14.2102 14.8921 14.289 14.8921 14.3865ZM15.0676 15.2115C15.0676 15.309 14.9888 15.3877 14.8913 15.3877C14.7938 15.3877 14.7151 15.309 14.7151 15.2115C14.7151 15.114 14.7938 15.0352 14.8913 15.0352C14.9888 15.0352 15.0676 15.114 15.0676 15.2115Z" fill="#1D1919"/>
</g>
<defs>
<clipPath id="clip0">
<rect width="24" height="24" fill="white"/>
</clipPath>
</defs>
</svg>
