<svg xmlns="http://www.w3.org/2000/svg" width="24" height="24" fill="none" viewBox="0 0 24 24">
  <g clip-path="url(#clip0)">
    <path fill="#1496FF" d="M7.974 2.002a66.267 66.267 0 00-.888 6.47c-.358 4.303-.136 7.188-.136 7.188L.89 21.413s-.462-3.227-.7-6.863A96.356 96.356 0 010 9.121c0-.068.035-.136.035-.205 0-.085.102-.887.887-1.639.854-.82 7.153-5.753 7.051-5.275z"/>
    <path fill="#1284EA" d="M7.974 2.002a66.267 66.267 0 00-.888 6.47S.377 7.67.001 9.292c0-.086.12-1.076.905-1.827.854-.82 7.17-5.94 7.068-5.463z"/>
    <path fill="#B4DC00" d="M.001 8.9v.375c.069-.29.188-.495.427-.82.495-.631 1.298-.802 1.622-.836a63.988 63.988 0 016.505-.547c4.319-.136 7.17.222 7.17.222l6.06-5.753S18.61.944 14.991.517A92.126 92.126 0 009.357.005c-.085 0-.922-.103-1.707.648-.854.82-5.19 4.934-6.931 6.59C-.067 7.994 0 8.831 0 8.9z"/>
    <path fill="#6F2DA8" d="M21.563 16.257c-1.639.222-4.063.495-6.504.58-4.32.137-7.187-.221-7.187-.221l-6.061 5.77s3.21.632 6.829 1.041c2.22.256 4.182.393 5.377.461.086 0 .222-.068.308-.068.085 0 .922-.154 1.707-.905.854-.82 6.01-6.709 5.531-6.658z"/>
    <path fill="#591F91" d="M21.563 16.257c-1.639.222-4.063.495-6.504.58 0 0 .46 6.744-1.161 7.034.085 0 1.195-.051 1.98-.802.854-.82 6.163-6.863 5.685-6.812z"/>
    <path fill="#73BE28" d="M14.256 23.905c-.12 0-.239-.017-.375-.017.307-.05.512-.153.836-.392.65-.461.854-1.264.922-1.588.29-1.622.683-4.029.87-6.47.342-4.302.137-7.17.137-7.17l6.061-5.77s.444 3.209.7 6.845c.154 2.373.205 4.473.222 5.634 0 .085.068.922-.717 1.673-.854.82-5.19 4.95-6.914 6.607-.82.75-1.656.648-1.742.648z"/>
  </g>
  <defs>
    <clipPath id="clip0">
      <path fill="#fff" d="M0 0h23.631v24H0z"/>
    </clipPath>
  </defs>
</svg>
