<svg xmlns="http://www.w3.org/2000/svg" width="24" height="24" fill="none" viewBox="0 0 24 24">
  <g clip-path="url(#clip0)">
    <path fill="#B0B1C4" d="M1.285 21.705l5.064-9.33-5.064-10.08L0 2.931V21.07l1.285.636zm12.3-14.732l-8.396-1.41 1.896-2.67 8.483 3.768-1.984.312zm.099 10.017L3.73 18.623l2.083 2.869 9.755-4.217-1.884-.287z"/>
    <path fill="#F3F3FA" d="M4.279 2.981v18.025l-2.994.699V2.295l2.994.686z"/>
    <path fill="#B0B1C4" d="M4.279 23.202l-1.572-.786V1.584L4.279.798 7.235 13.26l-2.956 9.942zm11.289-16.54l-1.996.311v9.992l1.996.311 1.82-5.076-1.82-5.539z"/>
    <path fill="#F3F3FA" d="M7.335 1.672V22.34l-3.056.86V.799l3.056.874z"/>
    <path fill="#F3F3FA" d="M17.65 19.422V16.89L4.28 19.372v3.83l13.372-3.78zm.026-14.82V7.06L4.279 4.516V.798l13.397 3.805z"/>
    <path fill="#F3F3FA" d="M15.568 20.008V4.004l2.145.586v14.832l-2.146.586z"/>
    <path fill="#D9DAE6" d="M22.03 5.489L24 10.042l-5.75.274-2.034-.137 5.813-4.69z"/>
    <path fill="#B0B1C4" d="M16.216 6.437v3.742l5.813-.337V5.489l-5.813.948z"/>
    <path fill="#D9DAE6" d="M13.522 9.992l-2.782-.187 5.9-5.938 2.994 5.738-6.112.387z"/>
    <path fill="#B0B1C4" d="M10.74 5.239v4.566l5.9-.5V3.868l-5.9 1.372zm5.476 12.412v-3.742l7.784.124-1.97 4.553-5.814-.935z"/>
    <path fill="#B0B1C4" d="M10.74 18.836V14.27l8.894.2-2.994 5.738-5.9-1.372z"/>
    <path fill="#D9DAE6" d="M13.522 14.083l-2.782.187 5.9.5 2.994-.3-6.112-.387zm8.507.15l1.971-.2-5.75-.262-2.034.137 5.813.325z"/>
    <path fill="#FAFBFC" d="M22.03 5.489v4.353l1.97.2V6.074l-1.97-.587zm-2.396-.724v4.84l-2.994-.3V3.868l2.994.898zm2.395 13.821v-4.353l1.971-.2V18l-1.97.586zm-2.395.724v-4.84l-2.994.3v5.438l2.994-.898z"/>
  </g>
  <defs>
    <clipPath id="clip0">
      <path fill="#fff" d="M0 0h24v24H0z"/>
    </clipPath>
  </defs>
</svg>
