<svg xmlns="http://www.w3.org/2000/svg" width="24" height="24" fill="none" viewBox="0 0 24 24">
  <g clip-path="url(#clip0)">
    <path fill="#000" d="M2.928 12.61a.952.952 0 01-.373.758 1.207 1.207 0 01-.414.21 1.654 1.654 0 01-.525.076c-.228 0-.432-.03-.613-.093a1.841 1.841 0 01-.542-.31l.298-.483c.145.122.274.21.39.262a.774.774 0 00.356.082c.146 0 .268-.041.356-.117a.375.375 0 00.134-.309.447.447 0 00-.111-.309 1.772 1.772 0 00-.18-.17 9.791 9.791 0 00-.298-.22 4.65 4.65 0 01-.268-.205 2.196 2.196 0 01-.24-.221 1.285 1.285 0 01-.174-.263.77.77 0 01-.065-.332.88.88 0 01.332-.694c.106-.082.228-.146.374-.193a1.54 1.54 0 01.472-.07c.181 0 .356.024.525.07.17.047.327.117.472.21l-.274.438a1.01 1.01 0 00-.583-.193.49.49 0 00-.309.1.299.299 0 00-.122.244c0 .094.035.175.105.251.07.076.192.18.373.315.175.128.32.245.437.344.117.1.21.187.274.274a.72.72 0 01.14.263c.041.081.053.18.053.285zm3.079-.816c0-.38-.076-.682-.234-.904a.722.722 0 00-.63-.332.77.77 0 00-.664.35c-.163.233-.245.553-.245.95 0 .39.082.694.239.921a.775.775 0 00.665.333c.169 0 .309-.041.414-.129a.985.985 0 00.268-.326c.07-.134.117-.274.146-.432.023-.151.04-.297.04-.431zm.973-.041c0 .274-.04.525-.128.752a1.809 1.809 0 01-.35.6c-.151.17-.326.304-.53.403a1.58 1.58 0 01-.962.111 1.005 1.005 0 01-.263-.093c-.082-.047-.169-.1-.245-.17a2.654 2.654 0 01-.256-.256v2.204h-.898v-5.213h.892l.006.507c.163-.204.338-.355.53-.449.193-.093.414-.14.665-.14.227 0 .437.041.624.129.187.087.35.204.49.355.134.152.245.339.315.549.07.215.11.454.11.711zm.397-3.289h.915v5.108h-.915V8.464zm3.919 5.108v-.466a1.665 1.665 0 01-.543.42 1.509 1.509 0 01-.647.128c-.274 0-.507-.053-.694-.163a.93.93 0 01-.408-.484.831.831 0 01-.053-.158c-.011-.058-.023-.116-.029-.192a1.56 1.56 0 01-.017-.245c0-.093-.006-.204-.006-.344v-1.983h.915v1.995c0 .175.006.309.024.402a.85.85 0 00.087.25c.105.199.298.292.566.292.344 0 .583-.146.711-.431a.849.849 0 00.07-.245c.012-.094.024-.222.024-.385v-1.878h.915v3.481h-.915v.006zm3.959 0v-1.988a2.39 2.39 0 00-.023-.402.852.852 0 00-.088-.251c-.105-.193-.297-.292-.566-.292a.876.876 0 00-.443.105.634.634 0 00-.274.315.925.925 0 00-.064.257 3.093 3.093 0 00-.017.379v1.877h-.928v-3.475h.928v.466c.175-.192.355-.338.542-.42a1.51 1.51 0 01.647-.128c.274 0 .508.059.694.17.187.11.327.274.408.483.018.053.035.105.047.158.012.052.023.117.035.186.012.07.017.152.017.245 0 .094.006.21.006.344v1.977h-.921v-.006zm3.86.07l-1.388-1.924v1.854h-.921V8.464h.921v2.997h.1l1.23-1.422.694.297-1.178 1.265 1.393 1.738-.85.303zm1.65-.169v-.606l2.152-1.067-2.152-1.05v-.624l2.782 1.4v.565l-2.782 1.382zM21.034 9.228c.169 0 .309.14.309.315a.309.309 0 11-.618 0c0-.18.14-.315.309-.315zm0 .047c-.14 0-.251.116-.251.262 0 .146.11.262.25.262s.251-.116.251-.262a.255.255 0 00-.25-.262zm-.059.443h-.058v-.35a.504.504 0 01.1-.006.18.18 0 01.11.03c.023.017.03.04.03.07 0 .046-.03.075-.07.087.028.006.052.035.058.087a.233.233 0 00.023.088h-.058a.28.28 0 01-.024-.088c-.006-.046-.029-.058-.076-.058h-.04v.14h.005zm0-.193h.041c.047 0 .088-.017.088-.058 0-.029-.024-.058-.088-.058h-.04v.116z"/>
  </g>
  <defs>
    <clipPath id="clip0">
      <path fill="#fff" d="M0 0h24v7.76H0z" transform="translate(0 8)"/>
    </clipPath>
  </defs>
</svg>
