<svg xmlns="http://www.w3.org/2000/svg" width="24" height="24" fill="none" viewBox="0 0 24 24">
  <path fill="#FED10A" d="M9.57 10.418l4.984 2.27 5.025-4.406c.074-.364.11-.735.105-1.106A5.613 5.613 0 009.44 4.001L8.6 8.34l.972 2.078z"/>
  <path fill="#24BBB1" d="M4.415 15.69c-.075.37-.11.747-.106 1.124a5.635 5.635 0 0010.293 3.165l.825-4.319-1.102-2.116-5.002-2.28-4.909 4.425z"/>
  <path fill="#EF5098" d="M4.386 7.07l3.414.805.75-3.877A2.695 2.695 0 004.386 7.07z"/>
  <path fill="#17A8E0" d="M4.088 7.888a3.762 3.762 0 00-.164 7.09l4.791-4.328-.875-1.875-3.752-.887z"/>
  <path fill="#93C83E" d="M15.468 19.98a2.692 2.692 0 004.156-3.07l-3.406-.799-.75 3.868z"/>
  <path fill="#0779A1" d="M16.16 15.217l3.75.876A3.762 3.762 0 0020.076 9l-4.906 4.3.99 1.917z"/>
</svg>
