<svg width="825" height="356" viewBox="0 0 825 356" fill="none" xmlns="http://www.w3.org/2000/svg">
<ellipse cx="417.077" cy="242.673" rx="413.755" ry="79.1931" transform="rotate(-2.6021 417.077 242.673)" fill="url(#paint0_radial)"/>
<path d="M12.5 312.499C52.1936 294.777 164.994 240.342 205.5 224.5C222.754 217.752 237.926 209.724 256.5 211.001C272.56 212.105 322.782 234.928 338 240.001L374.5 253.5C383.5 256 405 265.5 424 256C437.719 249.141 504.167 206.667 548 179C552.5 176.16 556.3 173.6 561.5 174C568 174.5 607.975 184.593 611.5 185.5C629 190 641.5 187.5 650 182C662.363 174 695.5 146.333 720 129.5" stroke="black" stroke-width="1.8" stroke-linecap="round" stroke-linejoin="round"/>
<path d="M12 302.634C51.6936 284.912 164.494 230.477 205 214.635C222.254 207.887 237.426 199.858 256 201.135C272.06 202.239 340.782 229.427 356 234.5C368.667 240.5 400.8 250.623 412 247C429 241.5 502 196 526 181.5C547.248 168.663 536 170.727 516.5 166C497 161.273 485 159 488.5 151.5C491.3 145.5 534.667 126.333 556.5 115.5M564.5 119.289C544 130 526 139 510.5 147.289C501.188 152.27 501 154.056 512 156.5C516.5 157.5 615.481 178 622 178C637.5 178 643.5 172.5 651 168C657 164.4 691.167 138.5 707.5 126" stroke="black" stroke-width="1.8" stroke-linecap="round" stroke-linejoin="round"/>
<ellipse cx="139.57" cy="238.064" rx="12" ry="10.5" fill="white"/>
<path d="M138.238 226C133.909 226.946 129.647 227.634 127.428 231.888C125.804 235.001 125.33 239.082 127.257 242.206C132.066 250.001 144.764 251.333 149.938 243.493C155.917 234.436 145.942 225.062 136.496 226.265C132.308 226.798 128.979 229.698 128.28 233.895C127.552 238.261 129.526 240.706 131.763 244.061" stroke="black" stroke-width="1.8" stroke-linecap="round" stroke-linejoin="round"/>
<path d="M199.875 178.48L191.375 172.48H190.375L208.375 165.98L216.375 173.48L226.375 176.98L237.875 172.48L230.875 179.98L231.875 197.48L216.375 204.48L199.875 198.48V178.48Z" fill="white"/>
<path d="M215.625 184.48C217.641 182.58 219.666 180.689 221.625 178.73" stroke="black" stroke-width="1.8" stroke-linecap="round" stroke-linejoin="round"/>
<path d="M220.5 179.105C226.498 177 232.344 174.615 238.125 171.98" stroke="black" stroke-width="1.8" stroke-linecap="round" stroke-linejoin="round"/>
<path d="M238.375 171.73C236.507 173.22 232.875 176.48 230.875 179.48" stroke="black" stroke-width="1.8" stroke-linecap="round" stroke-linejoin="round"/>
<path d="M213.875 185.48C219.421 183.416 223.375 182.48 232.375 178.98" stroke="black" stroke-width="1.8" stroke-linecap="round" stroke-linejoin="round"/>
<path d="M231.25 180.105C231.411 183.797 231.229 187.439 231.076 191.126C230.981 193.429 231.034 195.603 231.5 197.855" stroke="black" stroke-width="1.8" stroke-linecap="round" stroke-linejoin="round"/>
<path d="M215.875 185.355C215.875 192.98 215.875 197.98 215.875 204.98" stroke="black" stroke-width="1.8" stroke-linecap="round" stroke-linejoin="round"/>
<path d="M215.625 204.73C221.665 202.357 227.506 199.243 233.375 196.48" stroke="black" stroke-width="1.8" stroke-linecap="round" stroke-linejoin="round"/>
<path d="M198.875 198.48C205.646 200.515 211.375 202.48 218.875 204.73" stroke="black" stroke-width="1.8" stroke-linecap="round" stroke-linejoin="round"/>
<path d="M199.875 178.48C199.875 190.98 199.875 194.98 199.875 199.98" stroke="black" stroke-width="1.8" stroke-linecap="round" stroke-linejoin="round"/>
<path d="M197.375 178.98C203.795 181.872 210.576 183.908 217.125 186.48" stroke="black" stroke-width="1.8" stroke-linecap="round" stroke-linejoin="round"/>
<path d="M196.875 180.355C203.233 178.738 209.605 176.91 215.75 174.605" stroke="black" stroke-width="1.8" stroke-linecap="round" stroke-linejoin="round"/>
<path d="M217.625 173.855C220.214 175.014 223.206 176.605 226.125 176.605" stroke="black" stroke-width="1.8" stroke-linecap="round" stroke-linejoin="round"/>
<path d="M191.375 172.855C194.44 174.987 197.395 177.286 200.5 179.355" stroke="black" stroke-width="1.8" stroke-linecap="round" stroke-linejoin="round"/>
<path d="M190 172.48C196.392 171.222 202.539 168.567 208.75 166.605" stroke="black" stroke-width="1.8" stroke-linecap="round" stroke-linejoin="round"/>
<path d="M208.875 166.855C210.598 168.402 212.28 169.95 213.861 171.64C214.522 172.347 215.226 172.91 216 173.48" stroke="black" stroke-width="1.8" stroke-linecap="round" stroke-linejoin="round"/>
<path d="M216.5 173.855C216.138 176.352 215.965 178.838 215.875 181.355" stroke="black" stroke-width="1.8" stroke-linecap="round" stroke-linejoin="round"/>
<path d="M216.75 197.605C218.522 199.247 220.423 200.859 222.5 202.105" stroke="black" stroke-width="1.8" stroke-linecap="round" stroke-linejoin="round"/>
<path d="M215.75 191.73C220.024 194.46 223.723 197.981 228 200.73" stroke="black" stroke-width="1.8" stroke-linecap="round" stroke-linejoin="round"/>
<path d="M216.25 186.23C221.816 189.765 227.169 193.728 232.5 197.605" stroke="black" stroke-width="1.8" stroke-linecap="round" stroke-linejoin="round"/>
<path d="M221.625 183.23C224.403 185.225 227.192 187.237 229.875 189.355" stroke="black" stroke-width="1.8" stroke-linecap="round" stroke-linejoin="round"/>
<path d="M227 181.855C228.204 182.73 229.358 183.654 230.5 184.605" stroke="black" stroke-width="1.8" stroke-linecap="round" stroke-linejoin="round"/>
<ellipse cx="211.875" cy="161.48" rx="10" ry="8" fill="white"/>
<path d="M208.827 153.119C206.554 154.426 203.402 155.707 202.284 158.327C201.179 160.919 202.118 164.283 203.404 166.62C205.303 170.073 210.141 171.545 213.869 170.833C220.18 169.627 227.988 159.793 220.869 154.654C217.669 152.344 212.277 152.815 208.736 153.891C205.302 154.934 200.353 157.431 200.758 161.711C201.389 168.37 209.815 171.228 215.395 169.688" stroke="black" stroke-width="1.8" stroke-linecap="round" stroke-linejoin="round"/>
<path d="M227.5 174.5C254.5 175.5 240.178 189.172 254.083 191.805C260.651 193.049 269.06 195.211 275.5 197" stroke="black" stroke-width="1.8" stroke-linecap="round" stroke-linejoin="round"/>
<path d="M264 198C266.614 196.537 268.699 194.841 271 193" stroke="black" stroke-width="1.8" stroke-linecap="round" stroke-linejoin="round"/>
<path d="M264.75 197.5C269.027 197.523 273.261 197.784 277.528 198C278.325 198.04 281.128 198.7 279.139 197.694C276.326 196.272 273.692 194.615 271 193" stroke="black" stroke-width="1.8" stroke-linecap="round" stroke-linejoin="round"/>
<path d="M325.5 192.5C357.5 192.5 357.794 216.984 359.25 233" stroke="black" stroke-width="1.8" stroke-linecap="round" stroke-linejoin="round"/>
<path d="M346 192.5C360.5 199 364 211.5 364 223.5" stroke="black" stroke-width="1.8" stroke-linecap="round" stroke-linejoin="round"/>
<path d="M644 156.5C648 155.5 650.5 154.5 653.5 153.5" stroke="black" stroke-width="1.8" stroke-linecap="round" stroke-linejoin="round"/>
<path d="M652 162C653 158.5 653.693 156.767 654 153C642.947 166.063 631.5 172.5 614 170" stroke="black" stroke-width="1.8" stroke-linecap="round" stroke-linejoin="round"/>
<path d="M155 228.124C155 172.233 167.949 108.208 199.642 153.152" stroke="black" stroke-width="1.8" stroke-linecap="round" stroke-linejoin="round"/>
<path d="M189.899 151.037C190.767 151.384 199.722 156.438 199.365 153.271C198.881 148.97 198.416 145.145 199.1 140.813" stroke="black" stroke-width="1.8" stroke-linecap="round" stroke-linejoin="round"/>
<path d="M378 237.497C379.447 234.624 380.765 230.984 384.231 230.146C387.657 229.317 388.976 232.17 389.928 235.071C390.759 237.601 391.528 241.253 388.917 243.048C387.784 243.827 386.22 243.714 385.352 242.57C382.343 238.604 389.076 235.554 392.115 236.064C395.373 236.61 399.118 238.988 399.504 242.46" stroke="black" stroke-width="1.8" stroke-linecap="round" stroke-linejoin="round"/>
<path d="M293 223L291 203.5L306.5 198L322 203.5L323 221.5L308.5 228L293 223Z" fill="white"/>
<path d="M289.762 221.631C296.81 224.274 306.06 227.357 312.226 229.119" stroke="black" stroke-width="1.8" stroke-linecap="round" stroke-linejoin="round"/>
<path d="M292.174 204.326C297.394 206.144 302.606 207.949 307.933 209.429C308.968 209.717 309.822 209.942 310.748 210.405" stroke="black" stroke-width="1.8" stroke-linecap="round" stroke-linejoin="round"/>
<path d="M308.721 206.69C308.721 213.959 308.721 222.512 308.721 230" stroke="black" stroke-width="1.8" stroke-linecap="round" stroke-linejoin="round"/>
<path d="M291.499 202.3C291.499 209.054 291.499 217.079 291.499 223.833" stroke="black" stroke-width="1.8" stroke-linecap="round" stroke-linejoin="round"/>
<path d="M307.033 228.979C312.667 226.035 317.512 223.833 324.256 220.198" stroke="black" stroke-width="1.8" stroke-linecap="round" stroke-linejoin="round"/>
<path d="M321.917 202.25C322.024 209.123 322.592 215.961 322.592 222.85" stroke="black" stroke-width="1.8" stroke-linecap="round" stroke-linejoin="round"/>
<path d="M307.033 210.067C312.843 207.71 318.592 204.776 324.594 202.976" stroke="black" stroke-width="1.8" stroke-linecap="round" stroke-linejoin="round"/>
<path d="M302.98 196.896C309.665 199.363 318.354 201.96 325 204.452" stroke="black" stroke-width="1.8" stroke-linecap="round" stroke-linejoin="round"/>
<path d="M288 205.333C296.81 202.25 301.693 200.234 308.384 197.234" stroke="black" stroke-width="1.8" stroke-linecap="round" stroke-linejoin="round"/>
<path d="M339.75 258.75V247.75H367.25L374.25 242.75V258.75L372.25 262.75L377.75 265.75L374.25 286.75L367.25 281.25H339.75V258.75Z" fill="white"/>
<path d="M340.5 258.5C341.018 263.164 340.722 267.894 340.451 272.562C340.27 275.688 340.126 278.784 340.625 281.875" stroke="black" stroke-width="1.8" stroke-linecap="round" stroke-linejoin="round"/>
<path d="M337 281.75C347.638 282.284 358.363 282.415 369 281.75" stroke="black" stroke-width="1.8" stroke-linecap="round" stroke-linejoin="round"/>
<path d="M367.625 258.25C367.556 266.262 367.628 274.267 366.875 282.25" stroke="black" stroke-width="1.8" stroke-linecap="round" stroke-linejoin="round"/>
<path d="M367 282.25C369.669 283.781 372.08 285.553 374.625 287.25" stroke="black" stroke-width="1.8" stroke-linecap="round" stroke-linejoin="round"/>
<path d="M366.875 257.375C369.684 260.445 372.757 263.28 376.375 265.375" stroke="black" stroke-width="1.8" stroke-linecap="round" stroke-linejoin="round"/>
<path d="M376.375 265C376.544 272.367 375.654 279.629 374.375 286.875" stroke="black" stroke-width="1.8" stroke-linecap="round" stroke-linejoin="round"/>
<path d="M366.75 245.125C366.358 247.603 366.455 250.166 366.528 252.667C366.573 254.214 366.697 255.734 367 257.25" stroke="black" stroke-width="1.8" stroke-linecap="round" stroke-linejoin="round"/>
<path d="M364.625 247.5C367.734 246.213 371.321 244.929 373.75 242.5" stroke="black" stroke-width="1.8" stroke-linecap="round" stroke-linejoin="round"/>
<path d="M373.25 242C373.25 246.337 373.046 250.739 373.347 255.069C373.468 256.812 373.713 258.604 374.625 260.125" stroke="black" stroke-width="1.8" stroke-linecap="round" stroke-linejoin="round"/>
<path d="M374.5 260.25C373.934 261.175 373.102 262.046 372.625 263" stroke="black" stroke-width="1.8" stroke-linecap="round" stroke-linejoin="round"/>
<path d="M337.875 258.75C347.791 258.586 357.707 258.868 367.625 258.75" stroke="black" stroke-width="1.8" stroke-linecap="round" stroke-linejoin="round"/>
<path d="M340.125 247.625C340.401 251.634 340.144 255.95 341.125 259.875" stroke="black" stroke-width="1.8" stroke-linecap="round" stroke-linejoin="round"/>
<path d="M339.5 247.375C344.27 247.375 349.016 247.134 353.778 246.847C357.219 246.64 360.663 246.388 364.111 246.333C365.335 246.314 366.345 246.374 367.5 246.625" stroke="black" stroke-width="1.8" stroke-linecap="round" stroke-linejoin="round"/>
<path d="M404 249.477V244.25L406.614 243.205L408.705 237.977L407.659 235.364L411.841 230.136L415.5 231.182L416.545 227L425.432 230.136L421.773 235.364L423.864 236.932L427 235.364V241.114L425.432 243.205L422.818 246.864L425.432 249.477L422.818 252.614L420.205 251.045L418.114 252.614L416.545 256.795L408.705 255.227L411.841 249.477L408.705 251.045L404 249.477Z" fill="white"/>
<path d="M420.59 228.885C420.271 229.813 419.421 232.112 419.082 233.032" stroke="black" stroke-width="1.8" stroke-linecap="round" stroke-linejoin="round"/>
<path d="M415.94 227.126C417.78 227.586 419.607 228.034 421.47 228.383" stroke="black" stroke-width="1.8" stroke-linecap="round" stroke-linejoin="round"/>
<path d="M416.317 227C415.952 228.011 415.57 229.013 415.186 230.016" stroke="black" stroke-width="1.8" stroke-linecap="round" stroke-linejoin="round"/>
<path d="M411.164 229.891C412.764 230.412 414.384 230.979 416.066 231.147" stroke="black" stroke-width="1.8" stroke-linecap="round" stroke-linejoin="round"/>
<path d="M415.437 232.152C414.554 233.392 413.55 234.607 412.798 235.923" stroke="black" stroke-width="1.8" stroke-linecap="round" stroke-linejoin="round"/>
<path d="M407.519 235.295C408.435 233.654 409.567 232.276 410.661 230.771" stroke="black" stroke-width="1.8" stroke-linecap="round" stroke-linejoin="round"/>
<path d="M408.022 235.044C409.357 235.206 410.729 235.284 412.044 235.547" stroke="black" stroke-width="1.8" stroke-linecap="round" stroke-linejoin="round"/>
<path d="M412.043 236.049C412.588 236.593 414.013 238.144 414.557 238.688" stroke="black" stroke-width="1.8" stroke-linecap="round" stroke-linejoin="round"/>
<path d="M407.519 236.049C408.022 237.054 409.027 238.06 409.53 239.065" stroke="black" stroke-width="1.8" stroke-linecap="round" stroke-linejoin="round"/>
<path d="M408.525 238.562C408.503 239.292 407.519 240.857 407.519 241.579" stroke="black" stroke-width="1.8" stroke-linecap="round" stroke-linejoin="round"/>
<path d="M411.541 243.59C411.575 241.661 413.434 239.751 414.054 238.06" stroke="black" stroke-width="1.8" stroke-linecap="round" stroke-linejoin="round"/>
<path d="M406.765 242.082C408.734 242.371 410.68 242.71 412.672 242.71" stroke="black" stroke-width="1.8" stroke-linecap="round" stroke-linejoin="round"/>
<path d="M408.022 238.06C410.032 238.522 412.02 239.065 414.054 239.065" stroke="black" stroke-width="1.8" stroke-linecap="round" stroke-linejoin="round"/>
<path d="M404.754 243.339C405.532 243.075 406.561 242.789 407.142 242.208" stroke="black" stroke-width="1.8" stroke-linecap="round" stroke-linejoin="round"/>
<path d="M409.781 244.47C410.563 244.198 411.342 243.906 412.155 243.743C412.351 243.704 412.35 243.731 412.421 243.59" stroke="black" stroke-width="1.8" stroke-linecap="round" stroke-linejoin="round"/>
<path d="M405.131 244.219C406.961 244.502 408.803 244.847 410.661 244.847" stroke="black" stroke-width="1.8" stroke-linecap="round" stroke-linejoin="round"/>
<path d="M404 243.59C404 245.601 404 247.612 404 249.623" stroke="black" stroke-width="1.8" stroke-linecap="round" stroke-linejoin="round"/>
<path d="M408.651 245.099C408.603 246.05 408.525 248.618 408.525 250.629" stroke="black" stroke-width="1.8" stroke-linecap="round" stroke-linejoin="round"/>
<path d="M404.126 249.874C405.504 250.229 406.889 250.554 408.273 250.879" stroke="black" stroke-width="1.8" stroke-linecap="round" stroke-linejoin="round"/>
<path d="M409.153 251.382C410.033 250.628 411.038 250.126 412.546 249.12" stroke="black" stroke-width="1.8" stroke-linecap="round" stroke-linejoin="round"/>
<path d="M412.043 249.12C412.043 250.126 412.965 250.896 413.552 251.131" stroke="black" stroke-width="1.8" stroke-linecap="round" stroke-linejoin="round"/>
<path d="M413.426 252.262C413.189 253.586 412.798 254.931 412.798 256.284" stroke="black" stroke-width="1.8" stroke-linecap="round" stroke-linejoin="round"/>
<path d="M412.169 256.033C413.559 256.318 414.888 256.606 416.191 257.164" stroke="black" stroke-width="1.8" stroke-linecap="round" stroke-linejoin="round"/>
<path d="M416.568 256.661C417.15 255.636 417.616 253.21 418.076 252.137" stroke="black" stroke-width="1.8" stroke-linecap="round" stroke-linejoin="round"/>
<path d="M422.601 253.142C422.098 252.639 421.093 251.634 420.338 250.88C420.254 251.299 419.685 252.137 418.076 252.137" stroke="black" stroke-width="1.8" stroke-linecap="round" stroke-linejoin="round"/>
<path d="M422.35 252.89C423.31 251.604 424.343 250.197 424.738 248.617" stroke="black" stroke-width="1.8" stroke-linecap="round" stroke-linejoin="round"/>
<path d="M423.229 246.355C424.028 246.885 424.689 247.633 425.492 248.115" stroke="black" stroke-width="1.8" stroke-linecap="round" stroke-linejoin="round"/>
<path d="M423.606 246.104C424.428 244.695 424.487 244.207 424.612 242.585" stroke="black" stroke-width="1.8" stroke-linecap="round" stroke-linejoin="round"/>
<path d="M424.612 242.584C425.705 241.929 426.094 241.606 427 240.699" stroke="black" stroke-width="1.8" stroke-linecap="round" stroke-linejoin="round"/>
<path d="M426.497 235.169C426.65 237.134 426.63 239.124 426.874 241.076" stroke="black" stroke-width="1.8" stroke-linecap="round" stroke-linejoin="round"/>
<path d="M423.858 236.3C424.576 235.873 425.397 235.516 425.995 234.918" stroke="black" stroke-width="1.8" stroke-linecap="round" stroke-linejoin="round"/>
<path d="M422.852 233.912C423.401 234.477 424.199 235.117 424.36 235.923" stroke="black" stroke-width="1.8" stroke-linecap="round" stroke-linejoin="round"/>
<path d="M422.978 233.786C423.577 232.861 424.106 231.969 424.458 230.924C424.564 230.612 424.596 230.32 424.863 230.142" stroke="black" stroke-width="1.8" stroke-linecap="round" stroke-linejoin="round"/>
<path d="M421.344 228.257C422.66 229.028 424.103 229.839 425.617 230.142" stroke="black" stroke-width="1.8" stroke-linecap="round" stroke-linejoin="round"/>
<path d="M416.443 231.147C417.024 231.586 417.624 232.197 418.328 232.432C418.567 232.512 418.7 232.586 418.831 232.781" stroke="black" stroke-width="1.8" stroke-linecap="round" stroke-linejoin="round"/>
<path d="M415.814 240.448C416.815 239.46 418.05 238.615 418.956 237.558" stroke="black" stroke-width="1.8" stroke-linecap="round" stroke-linejoin="round"/>
<path d="M419.585 237.432C420.706 237.84 422.149 238.176 423.104 238.94" stroke="black" stroke-width="1.8" stroke-linecap="round" stroke-linejoin="round"/>
<path d="M421.344 238.562C421.533 241.202 420.967 243.831 420.967 246.48" stroke="black" stroke-width="1.8" stroke-linecap="round" stroke-linejoin="round"/>
<path d="M415.186 241.202C415.397 243.055 415.634 244.895 415.94 246.732" stroke="black" stroke-width="1.8" stroke-linecap="round" stroke-linejoin="round"/>
<path d="M415.186 245.978C416.565 246.386 418.172 246.591 419.459 247.234" stroke="black" stroke-width="1.8" stroke-linecap="round" stroke-linejoin="round"/>
<path d="M418.454 246.858C419.075 246.048 419.745 245.315 420.465 244.596" stroke="black" stroke-width="1.8" stroke-linecap="round" stroke-linejoin="round"/>
<path d="M417.574 240.448C417.574 241.11 417.488 241.824 417.699 242.459" stroke="black" stroke-width="1.8" stroke-linecap="round" stroke-linejoin="round"/>
<path d="M418.202 242.585C418.899 242.754 419.83 242.77 420.464 243.088" stroke="black" stroke-width="1.8" stroke-linecap="round" stroke-linejoin="round"/>
<path d="M417.197 242.836C416.813 243.515 416.398 244.1 415.94 244.721" stroke="black" stroke-width="1.8" stroke-linecap="round" stroke-linejoin="round"/>
<path d="M408.65 255.027C408.788 253.939 409.138 253.116 409.53 252.137" stroke="black" stroke-width="1.8" stroke-linecap="round" stroke-linejoin="round"/>
<path d="M408.65 255.655C410.153 255.979 411.652 256.332 413.175 256.535" stroke="black" stroke-width="1.8" stroke-linecap="round" stroke-linejoin="round"/>
<path d="M309 182.11C309.452 183.58 310.219 185.265 310.219 186.83C310.219 187.675 310.404 185.133 310.715 184.342C312.552 179.666 317.793 176.571 322 174" stroke="black" stroke-width="1.8" stroke-linecap="round" stroke-linejoin="round"/>
<path d="M309.461 174.736C305.178 178.294 301.973 183.083 305.527 188.546C308.18 192.625 313.367 193.117 316.893 189.884C321.168 185.965 321.202 178.051 315.931 174.951C311.628 172.421 308.379 175.384 305.92 178.62" stroke="black" stroke-width="1.8" stroke-linecap="round" stroke-linejoin="round"/>
<path d="M462.083 151.5C456.125 147.833 452.079 150.29 454.75 153.333C456.527 155.358 462.247 155.795 463.917 157.917C465.523 159.959 464.125 162.492 462.083 162.958C460.358 163.353 455.667 164.792 452 159.75" stroke="black" stroke-width="1.8" stroke-linecap="round" stroke-linejoin="round"/>
<path d="M458.875 146C459.363 151.533 458.875 161.583 458.875 168" stroke="black" stroke-width="1.8" stroke-linecap="round" stroke-linejoin="round"/>
<path d="M474 130C467.5 126 463.086 128.68 466 132C467.938 134.209 474.179 134.686 476 137C477.753 139.228 476.227 141.991 474 142.5C472.118 142.93 467 144.5 463 139" stroke="black" stroke-width="1.8" stroke-linecap="round" stroke-linejoin="round"/>
<path d="M470.5 124C471.033 130.036 470.5 141 470.5 148" stroke="black" stroke-width="1.8" stroke-linecap="round" stroke-linejoin="round"/>
<path d="M484.5 198.107C484.506 197.476 484.508 194.582 484.508 190.107M484.5 164.607L484.5 172.107C484.498 167.768 484.5 166.891 484.5 164.607ZM484.5 184.107C484.499 182.158 484.508 179.625 484.508 177.607L484.5 184.107Z" stroke="black" stroke-width="1.8" stroke-linecap="round" stroke-linejoin="round"/>
<path d="M462.43 195.61C462.43 194.079 462.43 192.548 462.43 191.018" stroke="black" stroke-width="1.8" stroke-linecap="round" stroke-linejoin="round"/>
<path d="M462.635 182.5C462.635 179.5 462.635 178 462.635 175" stroke="black" stroke-width="1.8" stroke-linecap="round" stroke-linejoin="round"/>
<path d="M473.53 190C473.53 187.678 473.489 184.5 473.489 184.5M473.489 160C473.462 160.383 473.45 162.707 473.448 166M473.448 177.5C473.476 174 473.438 174.848 473.436 172.5" stroke="black" stroke-width="1.8" stroke-linecap="round" stroke-linejoin="round"/>
<path d="M466.243 202.312L463.243 209.812L471.743 220.312L485.243 217.312V204.312L478.743 198.812L466.243 202.312Z" fill="white"/>
<path d="M471.555 202.688C473.1 206.013 474.536 209.396 475.868 212.812" stroke="black" stroke-width="1.8" stroke-linecap="round" stroke-linejoin="round"/>
<path d="M463.68 211.875C464.88 209.991 466.211 208.268 467.798 206.688C469.66 204.834 471.708 203.171 473.68 201.438" stroke="black" stroke-width="1.8" stroke-linecap="round" stroke-linejoin="round"/>
<path d="M462.555 210.812C465.131 211.347 467.712 211.783 470.333 212.035C472.86 212.277 475.398 212.289 477.93 212.438" stroke="black" stroke-width="1.8" stroke-linecap="round" stroke-linejoin="round"/>
<path d="M476.93 213C479.125 210.252 481.442 207.613 483.93 205.125" stroke="black" stroke-width="1.8" stroke-linecap="round" stroke-linejoin="round"/>
<path d="M471.493 203.062C474.95 203.389 478.458 203.521 481.882 204.135C483.399 204.408 484.724 204.768 485.868 205.812" stroke="black" stroke-width="1.8" stroke-linecap="round" stroke-linejoin="round"/>
<path d="M484.993 205.562C485.511 209.885 485.325 213.992 484.993 218.312" stroke="black" stroke-width="1.8" stroke-linecap="round" stroke-linejoin="round"/>
<path d="M477.18 213.688C479.301 215.057 481.401 216.438 483.43 217.938" stroke="black" stroke-width="1.8" stroke-linecap="round" stroke-linejoin="round"/>
<path d="M477.243 212.312C475.705 214.433 473.525 218.057 471.493 219.75" stroke="black" stroke-width="1.8" stroke-linecap="round" stroke-linejoin="round"/>
<path d="M471.055 220.312C476.42 219.743 481.735 219.233 486.993 218" stroke="black" stroke-width="1.8" stroke-linecap="round" stroke-linejoin="round"/>
<path d="M463.868 212.438C466.627 215.39 469.412 218.271 472.555 220.812" stroke="black" stroke-width="1.8" stroke-linecap="round" stroke-linejoin="round"/>
<path d="M462.43 211.125C462.696 209.287 463.394 207.629 464.194 205.965C464.803 204.698 465.589 203.491 465.93 202.125" stroke="black" stroke-width="1.8" stroke-linecap="round" stroke-linejoin="round"/>
<path d="M465.305 201.125C466.576 201.753 467.842 202.419 469.18 202.896C470.104 203.225 471.036 203.374 471.993 203.562" stroke="black" stroke-width="1.8" stroke-linecap="round" stroke-linejoin="round"/>
<path d="M467.555 201.062C471.35 200.02 475.07 198.786 478.93 198" stroke="black" stroke-width="1.8" stroke-linecap="round" stroke-linejoin="round"/>
<path d="M478.993 198.312C476.815 200.234 474.356 201.92 471.743 203.188" stroke="black" stroke-width="1.8" stroke-linecap="round" stroke-linejoin="round"/>
<path d="M479.055 199C480.862 200.508 482.656 202.035 484.51 203.486C485.416 204.195 486.193 204.932 486.993 205.75" stroke="black" stroke-width="1.8" stroke-linecap="round" stroke-linejoin="round"/>
<path d="M663 148L666 138L678.5 134.5L687 140.5L685.5 154.5L672.5 156.5L663 148Z" fill="white"/>
<path d="M672.125 138.688C673.67 142.013 675.106 145.396 676.438 148.812" stroke="black" stroke-width="1.8" stroke-linecap="round" stroke-linejoin="round"/>
<path d="M664.25 147.875C665.45 145.991 666.78 144.268 668.368 142.688C670.229 140.834 672.278 139.171 674.25 137.438" stroke="black" stroke-width="1.8" stroke-linecap="round" stroke-linejoin="round"/>
<path d="M663.125 146.812C665.701 147.347 668.282 147.783 670.903 148.035C673.429 148.277 675.968 148.289 678.5 148.438" stroke="black" stroke-width="1.8" stroke-linecap="round" stroke-linejoin="round"/>
<path d="M677.5 149C679.695 146.252 682.012 143.613 684.5 141.125" stroke="black" stroke-width="1.8" stroke-linecap="round" stroke-linejoin="round"/>
<path d="M672.062 139.062C675.52 139.389 679.028 139.521 682.451 140.135C683.969 140.408 685.294 140.768 686.438 141.812" stroke="black" stroke-width="1.8" stroke-linecap="round" stroke-linejoin="round"/>
<path d="M685.562 141.562C686.081 145.885 685.895 149.992 685.562 154.312" stroke="black" stroke-width="1.8" stroke-linecap="round" stroke-linejoin="round"/>
<path d="M677.75 149.688C679.87 151.057 681.971 152.438 684 153.938" stroke="black" stroke-width="1.8" stroke-linecap="round" stroke-linejoin="round"/>
<path d="M677.812 148.312C676.275 150.433 674.095 154.057 672.062 155.75" stroke="black" stroke-width="1.8" stroke-linecap="round" stroke-linejoin="round"/>
<path d="M671.625 156.312C676.99 155.743 682.305 155.233 687.562 154" stroke="black" stroke-width="1.8" stroke-linecap="round" stroke-linejoin="round"/>
<path d="M664.438 148.438C667.196 151.39 669.982 154.271 673.125 156.812" stroke="black" stroke-width="1.8" stroke-linecap="round" stroke-linejoin="round"/>
<path d="M663 147.125C663.266 145.287 663.964 143.629 664.764 141.965C665.373 140.698 666.158 139.491 666.5 138.125" stroke="black" stroke-width="1.8" stroke-linecap="round" stroke-linejoin="round"/>
<path d="M665.875 137.125C667.146 137.753 668.412 138.419 669.75 138.896C670.674 139.225 671.606 139.374 672.562 139.562" stroke="black" stroke-width="1.8" stroke-linecap="round" stroke-linejoin="round"/>
<path d="M666.5 138C670.294 136.958 675.64 134.786 679.5 134" stroke="black" stroke-width="1.8" stroke-linecap="round" stroke-linejoin="round"/>
<path d="M679.562 134.312C677.385 136.234 674.926 137.92 672.312 139.188" stroke="black" stroke-width="1.8" stroke-linecap="round" stroke-linejoin="round"/>
<path d="M679.625 135C681.432 136.508 683.226 138.035 685.08 139.486C685.985 140.195 686.763 140.932 687.562 141.75" stroke="black" stroke-width="1.8" stroke-linecap="round" stroke-linejoin="round"/>
<path d="M701.76 135.5C701.321 125.02 703.42 114.584 702.635 104.125" stroke="black" stroke-width="1.8" stroke-linecap="round" stroke-linejoin="round"/>
<path d="M700.385 106C708.071 105.959 717.829 105.397 725.5 105" stroke="black" stroke-width="1.8" stroke-linecap="round" stroke-linejoin="round"/>
<path d="M703 116.5C710 117 717.5 117.5 724.5 118" stroke="black" stroke-width="1.8" stroke-linecap="round" stroke-linejoin="round"/>
<path d="M725.385 104C725 108 724.256 115.037 724 118" stroke="black" stroke-width="1.8" stroke-linecap="round" stroke-linejoin="round"/>
<path d="M709 111.875C709.508 112.273 711.417 114.767 711.903 114.292C713.231 112.991 717.006 110.142 718.5 109" stroke="black" stroke-width="1.8" stroke-linecap="round" stroke-linejoin="round"/>
<path d="M700.885 135.875C700 135.659 699.066 135.356 698.142 135.368C697.919 135.371 697.384 135.462 697.733 135.805C698.827 136.884 701.223 136.736 702.614 136.736C702.759 136.736 705.9 136.612 705.441 136.153C705.176 135.888 704.613 135.783 704.281 135.68C703.362 135.397 702.423 135.127 701.476 134.958C700.249 134.74 698.472 134.489 697.371 135.257C696.334 135.981 697.731 136.689 698.399 136.875C700.533 137.469 703.092 137.533 705.253 137.055C705.656 136.966 706.168 136.86 706.524 136.625C706.914 136.367 706.045 136.381 706.01 136.375" stroke="black" stroke-width="1.8" stroke-linecap="round" stroke-linejoin="round"/>
<path d="M678.75 95.875C678.255 98.2153 676.97 101.821 678.764 103.986C680.347 105.898 684.198 106.172 686.319 105.215C687.457 104.702 688.004 103.392 688.188 102.236C688.502 100.256 687.38 98.6083 685.833 97.4583C682.958 95.3212 678.336 96.7512 676.813 99.9653C676.102 101.464 676.232 103.374 677.292 104.681C678.567 106.253 680.449 106.163 682.25 106.375" stroke="black" stroke-width="1.8" stroke-linecap="round" stroke-linejoin="round"/>
<path d="M678 106.25C673.5 105.25 671.573 98.4386 672.75 94.125" stroke="black" stroke-width="1.8" stroke-linecap="round" stroke-linejoin="round"/>
<path d="M672.375 94.75C671.47 96.4473 670.72 97.9729 670.611 99.9375C670.485 102.221 672.375 105.25 677 107.25" stroke="black" stroke-width="1.8" stroke-linecap="round" stroke-linejoin="round"/>
<path d="M686.5 105.25C692.5 105.25 695.684 94.2909 696 92.5" stroke="black" stroke-width="1.8" stroke-linecap="round" stroke-linejoin="round"/>
<path d="M696.125 92C696.609 98.419 695.537 105.404 688.5 107.75" stroke="black" stroke-width="1.8" stroke-linecap="round" stroke-linejoin="round"/>
<path d="M677.5 107.75C675.662 112.06 674 117.25 672.549 121.59C672.328 125.675 676.541 114.384 683.722 115.847C686.074 116.327 691.164 120.799 693 122.25" stroke="black" stroke-width="1.8" stroke-linecap="round" stroke-linejoin="round"/>
<path d="M688.375 108.5C689.529 112.012 690.377 115.651 691.632 119.125C692.037 120.245 692.491 121.654 693.5 122.375" stroke="black" stroke-width="1.8" stroke-linecap="round" stroke-linejoin="round"/>
<path d="M661.625 97.75C659.165 98.8068 656.994 100.047 656.431 102.917C656.131 104.441 656.85 105.76 658.208 106.431C660.949 107.783 664.38 105.89 665.333 103.146C666.188 100.685 664.026 98.4439 661.625 98.3611C659.711 98.2951 657.691 98.9502 656.035 99.875C654.753 100.591 654.303 101.367 653.75 102.625" stroke="black" stroke-width="1.8" stroke-linecap="round" stroke-linejoin="round"/>
<path d="M654.75 103.125C657.158 100.258 659.438 97.3976 661.5 94.2778C661.7 93.9749 662.906 92.5104 662.5 92.375" stroke="black" stroke-width="1.8" stroke-linecap="round" stroke-linejoin="round"/>
<path d="M661.75 93.625C658.802 97.0723 655.524 100.2 652.542 103.611C651.638 104.645 646 109.25 643 119.75" stroke="black" stroke-width="1.8" stroke-linecap="round" stroke-linejoin="round"/>
<path d="M643.375 119.875C644.779 117.569 649.195 111.646 652.5 112.25C653.933 112.512 657.536 118.598 658 119.875" stroke="black" stroke-width="1.8" stroke-linecap="round" stroke-linejoin="round"/>
<path d="M658.25 119.875C658.851 120.343 658.786 120.218 658.5 119.66C657.893 118.474 657.737 116.979 657.583 115.681C657.542 115.336 657.234 109.109 657.875 109.278C658.417 109.42 660.83 110.951 661.5 110.75C662.75 110.375 661.526 108.345 662.653 107.715C663.389 107.304 664.145 106.917 664.875 106.5" stroke="black" stroke-width="1.8" stroke-linecap="round" stroke-linejoin="round"/>
<path d="M536.75 127C537.878 128.117 539.18 128.897 540.833 128.82C541.365 128.795 542.225 128.323 541.861 127.653C541.449 126.894 540.147 126.655 539.403 126.521C537.982 126.265 536.381 126.16 534.958 126.459C533.971 126.666 533.772 127.204 534.66 127.757C535.979 128.58 537.644 128.832 539.167 128.945C539.588 128.976 540.856 129.132 540.958 128.438C541.035 127.923 540.322 127.786 540 127.625" stroke="black" stroke-width="1.8" stroke-linecap="round" stroke-linejoin="round"/>
<path d="M523.125 98.875C525.08 103.145 527.014 107.424 528.938 111.708C530.392 114.947 531.827 118.195 533.646 121.25C534.815 123.214 536.099 125.054 537.625 126.75" stroke="black" stroke-width="1.8" stroke-linecap="round" stroke-linejoin="round"/>
<path d="M505 107.5C509.437 105.705 519.058 101.277 523.5 99.5" stroke="black" stroke-width="1.8" stroke-linecap="round" stroke-linejoin="round"/>
<path d="M505 107C507.5 111 510 115.5 512 118.5" stroke="black" stroke-width="1.8" stroke-linecap="round" stroke-linejoin="round"/>
<path d="M510.5 118C517 115.5 523.931 112.541 529.5 110.5" stroke="black" stroke-width="1.8" stroke-linecap="round" stroke-linejoin="round"/>
<path d="M520 104C518 107 516.358 110.214 514.5 113" stroke="black" stroke-width="1.8" stroke-linecap="round" stroke-linejoin="round"/>
<path d="M510.625 107.75C515 108.5 520 109.5 523.5 110" stroke="black" stroke-width="1.8" stroke-linecap="round" stroke-linejoin="round"/>
<path d="M233 150C233 154.497 233 158.994 233 163.491" stroke="black" stroke-width="2" stroke-linecap="round" stroke-linejoin="round"/>
<path d="M228 159C228 162.533 228 166.067 228 169.6" stroke="black" stroke-width="2" stroke-linecap="round" stroke-linejoin="round"/>
<path d="M434.5 228.5C440.161 224.824 445.83 221.162 451.5 217.5" stroke="black" stroke-width="2" stroke-linecap="round" stroke-linejoin="round"/>
<path d="M445.5 218C446.905 219.074 448.035 220.053 449 221.5" stroke="black" stroke-width="2" stroke-linecap="round" stroke-linejoin="round"/>
<path d="M444.5 219C446.475 218.342 448.374 217.847 450.389 217.389C450.596 217.342 452.278 216.447 452.278 216.723C452.278 218.574 449.335 220.83 448.5 222.5" stroke="black" stroke-width="2" stroke-linecap="round" stroke-linejoin="round"/>
<path d="M507 182.5C521.648 172.561 536.932 160.983 554.778 157.834C563.553 156.285 575.835 159.21 583.5 164" stroke="black" stroke-width="2" stroke-linecap="round" stroke-linejoin="round"/>
<path d="M577 164.5C578.489 164.429 580.348 164.283 581.278 162.888C581.58 162.435 581.5 161.178 581.5 162.5" stroke="black" stroke-width="2" stroke-linecap="round" stroke-linejoin="round"/>
<path d="M577 164.5C581.404 164.964 585.943 164.937 590.278 165.889C591.27 166.107 589.312 166 589 166" stroke="black" stroke-width="2" stroke-linecap="round" stroke-linejoin="round"/>
<path d="M589.5 166C586.453 164.685 583.717 162.788 581.083 160.778C580.162 160.075 578.497 158.002 577.5 158.5" stroke="black" stroke-width="2" stroke-linecap="round" stroke-linejoin="round"/>
<path d="M710 94.5C707.044 91.9562 704.549 88.9411 702 86" stroke="black" stroke-width="2" stroke-linecap="round" stroke-linejoin="round"/>
<path d="M722.5 91C724.263 88.2671 726.112 85.6423 728 83" stroke="black" stroke-width="2" stroke-linecap="round" stroke-linejoin="round"/>
<path d="M751.5 108C755.833 107.5 760.167 107 764.5 106.5" stroke="black" stroke-width="2" stroke-linecap="round" stroke-linejoin="round"/>
<path d="M359.5 233.5C357.875 229.601 357.289 224.627 353.611 222C351.89 220.771 356.764 221.539 357.889 221.389C361.408 220.92 359.953 222.098 359.611 225.389C359.362 227.782 358.912 231.325 360 233.5" stroke="black" stroke-width="2" stroke-linecap="round" stroke-linejoin="round"/>
<path d="M378.75 260C386.245 259.915 393.644 259.237 400.75 256.75" stroke="black" stroke-width="2" stroke-linecap="round" stroke-linejoin="round"/>
<path d="M380 271.75C388.362 267.569 397.044 263.585 404.75 258.25" stroke="black" stroke-width="2" stroke-linecap="round" stroke-linejoin="round"/>
<path d="M308.5 220.5C311.036 222.018 313.678 224.059 316.5 225" stroke="black" stroke-width="1.8" stroke-linecap="round" stroke-linejoin="round"/>
<path d="M307.75 215C312.175 217.438 316.367 220.245 320.75 222.75" stroke="black" stroke-width="1.8" stroke-linecap="round" stroke-linejoin="round"/>
<path d="M308.75 210C313.829 213.299 319.02 216.449 324.25 219.5" stroke="black" stroke-width="1.8" stroke-linecap="round" stroke-linejoin="round"/>
<path d="M313.5 208C316.463 209.534 319.399 211.289 322.25 213" stroke="black" stroke-width="1.8" stroke-linecap="round" stroke-linejoin="round"/>
<defs>
<radialGradient id="paint0_radial" cx="0" cy="0" r="1" gradientUnits="userSpaceOnUse" gradientTransform="translate(417.077 242.673) rotate(46.6437) scale(90.4009 257.853)">
<stop offset="0.0001" stop-color="#F0FEEA"/>
<stop offset="1" stop-color="#F0FEEA" stop-opacity="0"/>
</radialGradient>
</defs>
</svg>
