<svg width="738" height="415" viewBox="0 0 738 415" fill="none" xmlns="http://www.w3.org/2000/svg">
<ellipse opacity="0.3" cx="386.713" cy="228.88" rx="337.753" ry="94.5635" transform="rotate(-16.3619 386.713 228.88)" fill="url(#paint0_radial)"/>
<path d="M393.5 31.5L342 13L325.5 13C324.833 42.3333 329.3 100.3 352.5 97.5C375.7 94.7 389.5 80 393.5 73L393.5 31.5Z" fill="#FFF9E7"/>
<path d="M324.753 14.7418C324.753 41.1537 324.704 49.9876 324.753 66.9427" stroke="black" stroke-width="2" stroke-linecap="round" stroke-linejoin="round"/>
<path d="M323.504 58.9658C323.504 70.3391 338.245 91.5195 354.829 97.0475" stroke="black" stroke-width="2" stroke-linecap="round" stroke-linejoin="round"/>
<path d="M345.616 96.4334C364.656 96.4334 378.117 80.6383 383.697 74.3215" stroke="black" stroke-width="2" stroke-linecap="round" stroke-linejoin="round"/>
<path d="M355.506 94.5901C374.547 94.5901 388.008 78.7951 393.588 72.4782" stroke="black" stroke-width="2" stroke-linecap="round" stroke-linejoin="round"/>
<path d="M324.732 17.3735C343.791 23.461 367.169 30.9636 385.54 37.0286" stroke="black" stroke-width="2" stroke-linecap="round" stroke-linejoin="round"/>
<path d="M339.473 11.231C358.532 17.3184 376.996 24.0316 395.367 30.0967" stroke="black" stroke-width="2" stroke-linecap="round" stroke-linejoin="round"/>
<path d="M382.616 31.3263C382.616 51.5953 382.616 67.2878 382.616 78.0068" stroke="black" stroke-width="2" stroke-linecap="round" stroke-linejoin="round"/>
<path d="M392.911 27.6398C392.911 47.9088 392.911 63.6013 392.911 74.3203" stroke="black" stroke-width="2" stroke-linecap="round" stroke-linejoin="round"/>
<path d="M321.968 17.1998C326.881 15.9716 331.505 14.3395 336.283 12.7467C337.932 12.1971 339.601 11.6506 341.316 11.3647" stroke="black" stroke-width="2" stroke-linecap="round" stroke-linejoin="round"/>
<path d="M332.41 19.6559C338.767 18.534 344.928 14.4351 351.451 14.4351" stroke="black" stroke-width="2" stroke-linecap="round" stroke-linejoin="round"/>
<path d="M340.395 23.341C346.927 22.0482 352.838 18.4484 359.435 17.5059" stroke="black" stroke-width="2" stroke-linecap="round" stroke-linejoin="round"/>
<path d="M350.222 27.3336C356.587 25.4399 362.704 21.9774 369.263 20.8843" stroke="black" stroke-width="2" stroke-linecap="round" stroke-linejoin="round"/>
<path d="M362.507 30.712C368.778 28.9202 374.61 25.8436 380.933 24.2627" stroke="black" stroke-width="2" stroke-linecap="round" stroke-linejoin="round"/>
<path d="M374.484 33.7823C380.638 32.3172 386.273 29.4935 392.297 27.6401" stroke="black" stroke-width="2" stroke-linecap="round" stroke-linejoin="round"/>
<path d="M380.319 42.9965C383.314 42.3976 386.195 41.1779 389.055 40.1301C389.624 39.9215 393.218 38.34 393.218 39.004" stroke="black" stroke-width="2" stroke-linecap="round" stroke-linejoin="round"/>
<path d="M381.855 52.823C385.846 51.3808 389.808 49.865 393.832 48.5234" stroke="black" stroke-width="2" stroke-linecap="round" stroke-linejoin="round"/>
<path d="M380.933 66.0297C383.258 64.8892 385.69 63.8879 388.133 63.0268C389.044 62.7059 391.478 61.6281 392.296 62.0373" stroke="black" stroke-width="2" stroke-linecap="round" stroke-linejoin="round"/>
<path d="M381.24 75.2429C384.154 76.1298 387.104 74.2635 389.737 73.1443C391.683 72.3173 393.689 71.6654 395.674 70.9434" stroke="black" stroke-width="2" stroke-linecap="round" stroke-linejoin="round"/>
<path d="M373.256 85.3778C377.128 84.7532 380.97 83.5352 384.926 83.5352" stroke="black" stroke-width="2" stroke-linecap="round" stroke-linejoin="round"/>
<ellipse cx="354.419" cy="56.9588" rx="17.3517" ry="17.6049" transform="rotate(-0.164727 354.419 56.9588)" fill="white"/>
<path d="M338.788 56.6885C341.951 59.8103 344.587 63.2523 346.304 68.0843C346.645 71.357 342.557 51.1096 365.173 36.8712" stroke="black" stroke-width="2" stroke-linecap="round" stroke-linejoin="round"/>
<path d="M352.507 41.3514C336.542 41.3973 332.326 51.9501 333.601 59.235C334.585 64.8587 337.695 69.3017 342.617 71.8638C352.406 76.9607 362.278 72.4595 366.538 62.6835C371.174 52.0417 362.99 43.3349 357.856 41.336C353.633 39.6914 347.903 39.6087 343.527 41.3773C339.673 42.9348 335.642 45.2813 333.571 48.6051" stroke="black" stroke-width="2" stroke-linecap="round" stroke-linejoin="round"/>
<path d="M258.396 195.326L266.381 191.641C256.349 186.522 256.725 166.6 270.067 160.93C294.635 150.488 309.581 164.206 312.448 174.443L298.935 196.555L294.635 199.011V205.154C314.291 169.529 332.785 155.659 331.489 160.93C322.275 198.397 294.816 211.296 294.635 214.367C294.144 222.72 306.306 246.511 312.448 257.362C303.439 260.024 282.597 265.47 271.295 265.961C257.168 266.576 227.685 256.748 227.685 251.834C227.685 246.921 244.269 209.453 246.726 206.382C248.692 203.925 254.097 200.035 256.554 198.397C248.978 189.389 233.09 170.266 230.142 165.843C227.194 161.421 227.276 155.811 227.685 153.559L230.142 152.945L242.427 165.843L258.396 195.326Z" fill="white"/>
<path d="M344.387 162.772L343.159 162.158C333.127 157.04 331.165 130.857 345.001 126.533C348.933 125.305 362.533 116.082 381.24 134.518C388.611 103.192 397.278 111.435 395.982 116.706C386.768 154.173 381.934 160.206 384.312 162.158C418.708 190.412 426.693 229.722 428.535 235.25C416.865 232.794 386.154 203.311 368.956 205.768C354.958 207.768 337.631 232.179 337.631 227.266C337.631 222.352 341.316 185.746 341.316 181.813C341.316 177.514 338.859 174.852 341.316 173.214C333.741 164.205 308.025 134.027 305.077 129.604C302.129 125.182 302.62 121.619 309.377 125.305H311.219L342.545 166.457L344.387 162.772Z" fill="white"/>
<path d="M433.449 133.904L447.17 131.447C437.138 126.329 433.971 106.115 447.17 100.121C485.044 82.9202 509.613 128.372 467.231 136.975C462.532 137.929 480.537 195.94 476.445 195.94C467.436 198.602 456.175 195.326 451.262 192.255C439.271 184.76 399.469 150.624 403.967 148.645C419.322 141.888 426.078 138.817 433.449 133.904Z" fill="white"/>
<path d="M270.412 161.373C262.968 162.667 264.263 171.985 264.982 177.739C265.881 184.929 267.435 190.252 273.318 194.411C278.971 198.408 287.875 201.298 294.771 199.153C296.77 198.531 298.817 197.435 300.777 195.993M286.931 201.294C271.941 196.561 253.786 186.588 263.988 168.294C272.646 152.769 297.552 154.646 308.804 166.038C312.067 169.341 313.02 173.491 312.437 177.739" stroke="black" stroke-width="2" stroke-linecap="round" stroke-linejoin="round"/>
<path d="M227.735 259.109C226.313 241.145 239.175 213.418 255.226 198.397M268.35 189.59C264.863 190.985 261.387 193.167 258.019 195.94" stroke="black" stroke-width="2" stroke-linecap="round" stroke-linejoin="round"/>
<path d="M224 251.22C235.056 259.205 247.983 266.597 274.366 265.962C280.492 265.814 300.778 263.505 313.776 255.669" stroke="black" stroke-width="2" stroke-linecap="round" stroke-linejoin="round"/>
<path d="M293.816 199.916C293.816 224.809 301.392 239.55 313.089 259.11" stroke="black" stroke-width="2" stroke-linecap="round" stroke-linejoin="round"/>
<path d="M294.021 206.996C303.849 190.412 311.219 173.828 326.546 162.211C329.385 160.412 332.918 157.966 332.717 163.387C330.874 171.371 317.262 187.363 311.219 194.712C304.677 202.667 299.073 206.706 292.895 214.943" stroke="black" stroke-width="2" stroke-linecap="round" stroke-linejoin="round"/>
<path d="M261.466 205.422C253.853 195.068 244.692 185.986 236.84 175.825C233.609 171.644 229.655 166.178 228.16 161.027C227.037 157.16 226.331 148.95 232.022 154.641C242.653 165.272 251.249 180.983 258.396 196.554" stroke="black" stroke-width="2" stroke-linecap="round" stroke-linejoin="round"/>
<path d="M282.8 179.267C287.626 185.858 289.302 189.195 297.79 188.177C300.405 187.863 305.101 188.272 301.728 186.456C298.472 184.702 295.015 183.585 291.595 182.173C287.188 180.354 282.819 178.588 278.67 176.514" stroke="black" stroke-width="2" stroke-linecap="round" stroke-linejoin="round"/>
<path d="M342.687 128.752C335.243 130.047 336.538 139.365 337.257 145.119C338.156 152.308 339.71 157.631 345.593 161.791C351.246 165.788 360.15 168.678 367.045 166.532C371.727 165.076 376.667 161.02 380.157 156.016M381.079 133.417C369.827 122.025 344.921 120.148 336.263 135.673C326.06 153.967 344.216 163.94 359.206 168.674" stroke="black" stroke-width="2" stroke-linecap="round" stroke-linejoin="round"/>
<path d="M337.631 226.651C340.702 198.397 338.859 183.656 343.933 162.158" stroke="black" stroke-width="2" stroke-linecap="round" stroke-linejoin="round"/>
<path d="M337.865 227.45C349.915 225.423 348.101 205.789 374.484 205.153C386.154 205.153 427.824 241.505 428.721 234.333" stroke="black" stroke-width="2" stroke-linecap="round" stroke-linejoin="round"/>
<path d="M428.723 235.709C428.723 219.771 412.063 184.609 384.926 161.137" stroke="black" stroke-width="2" stroke-linecap="round" stroke-linejoin="round"/>
<path d="M382.707 173.879C380.271 154.839 378.154 132.446 388.822 115.462C390.61 112.616 393.483 106.471 395.635 111.45C396.943 114.474 395.382 118.7 394.726 121.712C392.843 130.366 385.831 157.243 383.697 165.844" stroke="black" stroke-width="2" stroke-linecap="round" stroke-linejoin="round"/>
<path d="M341.656 175.557C338.718 171.56 335.549 167.753 332.313 164.001M342.545 166.458C331.749 152.064 324.877 137.44 312.212 124.775C306.522 119.085 307.228 127.294 308.35 131.161C309.846 136.312 313.8 141.779 317.03 145.96C320.856 150.911 324.992 155.605 329.109 160.316" stroke="black" stroke-width="2" stroke-linecap="round" stroke-linejoin="round"/>
<path d="M347.155 149.329C352.987 149.329 357.135 148.66 365.548 148.66C367.13 149.112 364.32 155.687 359.129 156.631C355.092 157.365 351.358 155.537 348.687 152.331" stroke="black" stroke-width="2" stroke-linecap="round" stroke-linejoin="round"/>
<path d="M308.733 124.331C307.424 128.804 305.985 131.906 310.84 133.749C312.575 134.408 313.418 132.856 313.593 131.112C313.862 128.425 313.583 125.701 311.18 124.331C309.595 123.427 305.137 121.968 303.533 123.352C302.098 124.589 302.167 128.907 303.363 130.283C307.119 134.607 314.051 132.554 313.627 126.215C313.322 121.652 304.095 120.799 301.392 122.297" stroke="black" stroke-width="2" stroke-linecap="round" stroke-linejoin="round"/>
<path d="M393.614 111.815C393.76 116.118 394.284 118.052 398.394 119.96C399.172 120.322 402.233 122.162 403.25 121.146C404.764 119.631 404.627 116.498 404.627 114.568C404.627 109.208 394.72 106.3 392.237 111.127C389.33 116.779 395.841 120.806 400.841 120.037C403.123 119.686 403.938 116.877 403.938 114.913C403.938 112.073 403.183 112.504 400.497 112.504" stroke="black" stroke-width="2" stroke-linecap="round" stroke-linejoin="round"/>
<path d="M459.535 95.1479C450.496 94.9706 443.262 100.276 439.23 108.34C436.349 114.102 438.21 118.454 441.677 123.177C446.657 129.96 454.269 134.837 462.632 136.025C470.134 137.092 476.674 136.472 482.058 130.71C486.608 125.841 490.075 117.881 488.482 111.132C486.688 103.533 477.871 98.9037 471.045 97.0789C461.92 94.6397 452.42 96.2425 443.78 99.6983C428.535 111.132 437.378 129.179 450.647 133.904" stroke="black" stroke-width="2" stroke-linecap="round" stroke-linejoin="round"/>
<path d="M447.831 130.941C439.89 131.097 411.028 143.638 403.352 149.874C417.932 168.098 434.818 185.68 456.091 194.265C466.835 198.601 479.982 202.155 476.588 185.183C467.429 139.391 469.688 154.267 466.003 135.747" stroke="black" stroke-width="2" stroke-linecap="round" stroke-linejoin="round"/>
<path d="M433.449 134.519C421.102 129.168 415.489 117.238 415.637 104.422C415.746 94.9006 419.563 83.5545 425.308 76.3735" stroke="black" stroke-width="2" stroke-linecap="round" stroke-linejoin="round"/>
<path d="M462.629 147.116C480.186 153.793 498.084 159.895 516.011 165.49C520.916 167.021 526.355 168.415 531.555 168.415C532.585 168.415 534.18 168.013 533.295 166.656C531.802 164.367 527.98 163.026 525.609 161.991C522.764 160.749 519.711 159.387 516.68 158.684C515.518 158.414 512.143 157.437 511.04 158.339C508.71 160.245 514.81 163.635 515.896 163.98C516.931 164.308 519.758 165.609 519.758 163.636C519.758 162.743 518.008 159.995 517.082 161.571C515.433 164.373 520.87 163.795 521.479 165.012" stroke="black" stroke-width="2" stroke-linecap="round" stroke-linejoin="round"/>
<path d="M421.673 82.4148C422.695 80.8385 423.968 77.8516 425.994 77.2908C427.459 76.8851 432.914 75.7766 433.986 77.329C435.256 79.1683 430.535 82.5379 429.416 83.084C427.734 83.9044 425.743 85.2823 423.757 84.7856C421.767 84.2883 423.154 81.0056 423.814 80.0822C425.253 78.067 427.228 76.4451 429.512 75.5318C430.969 74.9486 430.73 75.8531 430.085 76.9084C429.444 77.9581 428.707 78.9668 428.039 80.0057C427.422 80.9667 425.813 80.8891 424.77 81.0382" stroke="black" stroke-width="2" stroke-linecap="round" stroke-linejoin="round"/>
<path d="M460.219 115.798C473.985 126.811 485.05 124.687 487.735 122.318" stroke="black" stroke-width="2" stroke-linecap="round" stroke-linejoin="round"/>
<path d="M263.924 108.718L226.457 96.4334V44.2246L262.696 56.509L263.924 108.718Z" fill="white"/>
<path d="M224 95.8187C240.277 101.347 248.293 103.699 264.231 109.178M224 44.2241C240.277 49.7521 249.183 52.8232 265.767 57.737" stroke="black" stroke-width="2" stroke-linecap="round" stroke-linejoin="round"/>
<path d="M232.319 65.0427C242.372 68.5341 244.867 69.6319 254.711 73.0923M231.371 56.5083C241.424 59.9997 246.925 61.9393 257.168 65.0427" stroke="black" stroke-width="2" stroke-linecap="round" stroke-linejoin="round"/>
<path d="M231.985 73.7065C239.166 76.2193 243.095 77.6152 250.411 79.8488" stroke="black" stroke-width="2" stroke-linecap="round" stroke-linejoin="round"/>
<path d="M225.843 41.7671C225.843 60.1937 225.843 82.3057 225.843 97.6612M262.696 52.8231C262.696 71.2497 262.696 93.3616 262.696 108.717" stroke="black" stroke-width="2" stroke-linecap="round" stroke-linejoin="round"/>
<ellipse cx="255.544" cy="106.087" rx="17.3517" ry="17.6049" transform="rotate(-0.164727 255.544 106.087)" fill="white"/>
<path d="M243.598 103.36C246.761 106.482 249.397 109.924 251.114 114.756C251.455 118.028 247.367 97.781 269.983 83.5426" stroke="black" stroke-width="2" stroke-linecap="round" stroke-linejoin="round"/>
<path d="M257.317 88.0228C241.352 88.0687 237.136 98.6215 238.411 105.906C239.395 111.53 242.505 115.973 247.426 118.535C257.216 123.632 267.088 119.131 271.348 109.355C275.984 98.7131 267.8 90.0063 262.666 88.0074C258.443 86.3628 252.713 86.28 248.337 88.0487C244.483 89.6062 240.452 91.9527 238.381 95.2765" stroke="black" stroke-width="2" stroke-linecap="round" stroke-linejoin="round"/>
<defs>
<radialGradient id="paint0_radial" cx="0" cy="0" r="1" gradientUnits="userSpaceOnUse" gradientTransform="translate(386.713 228.88) rotate(90) scale(94.5635 337.753)">
<stop stop-color="#FBC611"/>
<stop offset="1" stop-color="white" stop-opacity="0"/>
</radialGradient>
</defs>
</svg>
