<svg width="770" height="392" viewBox="0 0 770 392" fill="none" xmlns="http://www.w3.org/2000/svg">
<ellipse cx="384.5" cy="212.592" rx="337.188" ry="128.433" transform="rotate(179.407 384.5 212.592)" fill="url(#paint0_radial)"/>
<path d="M493.705 289.158C481.706 295.339 438.773 321.518 412.07 336.46L369.297 337.223C396 322.281 438.933 296.102 450.932 289.921C476.109 276.951 456.267 273.469 428.807 264.744C392.185 253.108 323.521 233.463 305.21 228.123C272.403 218.554 297.581 210.575 334.202 196.079C370.823 181.583 523.931 120.485 563.133 104.526L569.999 117.496C530.797 133.455 413.596 180.82 376.975 195.316C340.354 209.812 315.177 217.791 347.983 227.359C366.294 232.7 434.959 252.345 471.58 263.981C499.04 272.705 518.882 276.188 493.705 289.158Z" fill="white"/>
<path d="M405.07 336.526C431.773 321.584 474.706 295.405 486.705 289.224C511.882 276.254 492.04 272.771 464.58 264.047C427.958 252.411 359.294 232.766 340.983 227.425C308.176 217.857 333.353 209.878 369.975 195.382C406.596 180.886 523.797 133.52 562.999 117.562" stroke="black" stroke-width="2" stroke-linecap="round" stroke-linejoin="round"/>
<path d="M358.297 337.289C385 322.347 427.933 296.168 439.932 289.987C465.109 277.017 445.267 273.535 417.807 264.81C381.185 253.174 312.521 233.529 294.21 228.189C261.403 218.62 286.581 210.641 323.202 196.145C359.823 181.649 512.931 120.551 552.133 104.592" stroke="black" stroke-width="2" stroke-linecap="round" stroke-linejoin="round"/>
<path d="M420.678 284.203L367.773 306.465L321.098 291.766L321.098 232.522L381.714 210.053L420.678 224.766L420.678 226.942L420.678 238.825L420.678 284.203Z" fill="white"/>
<path d="M374.433 209.509C390.429 213.886 407.08 220.392 425.58 225.833" stroke="black" stroke-width="2" stroke-linecap="round" stroke-linejoin="round"/>
<path d="M321.098 229.483C321.098 262.256 321.098 271.08 321.098 293.03" stroke="black" stroke-width="2" stroke-linecap="round" stroke-linejoin="round"/>
<path d="M370.257 241.35C370.257 270.145 370.257 279.166 370.257 307.581M420.677 223.677C420.677 243.845 420.677 268.178 420.677 284.892" stroke="black" stroke-width="2" stroke-linecap="round" stroke-linejoin="round"/>
<path d="M319.838 293.024C335.834 297.401 353.871 301.847 372.779 306.889" stroke="black" stroke-width="2" stroke-linecap="round" stroke-linejoin="round"/>
<path d="M322.358 232.501C338.354 236.878 356.391 241.324 375.299 246.366" stroke="black" stroke-width="2" stroke-linecap="round" stroke-linejoin="round"/>
<path d="M364.247 308.101C375.479 303.401 415.56 287.172 426.98 282.939" stroke="black" stroke-width="2" stroke-linecap="round" stroke-linejoin="round"/>
<path d="M368.388 246.663C379.62 241.963 411.333 227.911 422.753 223.678" stroke="black" stroke-width="2" stroke-linecap="round" stroke-linejoin="round"/>
<path d="M320.747 233.603C331.979 228.903 367.803 213.763 379.223 209.53" stroke="black" stroke-width="2" stroke-linecap="round" stroke-linejoin="round"/>
<path d="M348.753 238.912C359.985 234.212 385.753 222.588 399.054 217.147" stroke="black" stroke-width="2" stroke-linecap="round" stroke-linejoin="round"/>
<path d="M377.985 240.695L369.5 276.026M371 298.526L385.904 237.136" stroke="black" stroke-width="2" stroke-linecap="round" stroke-linejoin="round"/>
<path d="M393.455 234.585L375.999 302.526M400.499 231.026L383.999 300.026M408.266 228.059L391.224 297.78" stroke="black" stroke-width="2" stroke-linecap="round" stroke-linejoin="round"/>
<path d="M415.872 225.525L397.955 296.085M421.999 225.525C410.581 269.833 414.515 255.599 404.999 292.525M420.999 257.025C412.371 290.507 420.745 258.594 413.071 288.373L420.999 257.025Z" stroke="black" stroke-width="2" stroke-linecap="round" stroke-linejoin="round"/>
<path d="M284.277 151.266V136.314L302.748 124.879H366.059L380.149 137.193V154.784L359.039 166.218H305.387L284.277 151.266Z" fill="white"/>
<path d="M279 146.768C289.629 155.445 294.944 160.266 303.296 167.014" stroke="black" stroke-width="2" stroke-linecap="round" stroke-linejoin="round"/>
<path d="M303.628 165.338C314.887 165.512 348.245 166.027 360.635 166.218" stroke="black" stroke-width="2" stroke-linecap="round" stroke-linejoin="round"/>
<path d="M284.539 130.331C284.539 141.59 284.539 150.386 284.539 156.543" stroke="black" stroke-width="2" stroke-linecap="round" stroke-linejoin="round"/>
<path d="M305.387 144.23C305.387 152.063 305.387 158.727 305.387 164.46" stroke="black" stroke-width="2" stroke-linecap="round" stroke-linejoin="round"/>
<path d="M359.039 143.349C359.039 152.884 359.039 160.997 359.039 167.976" stroke="black" stroke-width="2" stroke-linecap="round" stroke-linejoin="round"/>
<path d="M380.149 131.036C380.149 140.711 380.149 149.057 380.149 155.664" stroke="black" stroke-width="2" stroke-linecap="round" stroke-linejoin="round"/>
<path d="M283.05 132.597C295.364 140.513 295.646 140.612 305.321 146.769" stroke="black" stroke-width="2" stroke-linecap="round" stroke-linejoin="round"/>
<path d="M305.32 146.77C315.711 146.77 348.418 146.77 359.853 146.77" stroke="black" stroke-width="2" stroke-linecap="round" stroke-linejoin="round"/>
<path d="M360.998 121.46C360.998 121.46 376.183 132.595 383.269 137.657" stroke="black" stroke-width="2" stroke-linecap="round" stroke-linejoin="round"/>
<path d="M282.037 135.633C287.099 133.609 309.37 125.51 318.481 122.473" stroke="black" stroke-width="2" stroke-linecap="round" stroke-linejoin="round"/>
<path d="M308.357 124.497C331.202 124.497 353.717 124.18 376.136 124.18" stroke="black" stroke-width="2" stroke-linecap="round" stroke-linejoin="round"/>
<path d="M357.147 166.891C366.076 162.701 373.112 159.183 383.667 153.906M357.147 147.781C366.076 143.592 374.937 139.898 385.492 134.621" stroke="black" stroke-width="2" stroke-linecap="round" stroke-linejoin="round"/>
<path d="M286.916 153.024L291.314 138.072M292.16 157.904C293.511 152.664 296.091 146.944 297.471 141.59M298.234 162.965L303.628 145.987" stroke="black" stroke-width="2" stroke-linecap="round" stroke-linejoin="round"/>
<path d="M306.266 165.179L311.137 147.746M314.47 165.179C316.03 159.123 317.858 153.082 319.46 146.867M322.342 165.272C323.905 159.206 325.373 153.07 326.971 146.867" stroke="black" stroke-width="2" stroke-linecap="round" stroke-linejoin="round"/>
<path d="M348.627 147.755C347.097 153.691 345.584 159.563 344.087 165.37M336.171 165.37C337.665 159.573 339.178 153.703 340.71 147.755M333.674 147.723L329.135 165.338" stroke="black" stroke-width="2" stroke-linecap="round" stroke-linejoin="round"/>
<path d="M356.025 147.747L351.265 166.217M364.317 145.108L358.075 166.217M372.43 140.71C370.673 147.531 368.935 154.274 367.217 160.94L372.43 140.71Z" stroke="black" stroke-width="2" stroke-linecap="round" stroke-linejoin="round"/>
<path d="M379.464 137.193L373.992 158.303" stroke="black" stroke-width="2" stroke-linecap="round" stroke-linejoin="round"/>
<path d="M332 123.159L333 121.523L334 123.159V127.523L332 126.977V123.159Z" fill="white"/>
<path d="M334.114 134.998C334.114 115.272 334.114 72.1325 334.114 54.3691" stroke="black" stroke-width="2" stroke-linecap="round" stroke-linejoin="round"/>
<path d="M331 134.152C331 114.426 331 71.2863 331 53.5229" stroke="black" stroke-width="2" stroke-linecap="round" stroke-linejoin="round"/>
<path d="M331 54.3691C338.624 55.6021 368.219 58.5985 380.061 60.2903" stroke="black" stroke-width="2" stroke-linecap="round" stroke-linejoin="round"/>
<path d="M334.384 78.0537C348.249 79.7515 363.867 82.0201 377.7 83.928" stroke="black" stroke-width="2" stroke-linecap="round" stroke-linejoin="round"/>
<path d="M376.677 84.3001C376.677 78.9001 376.677 69.5955 376.677 58.5991" stroke="black" stroke-width="2" stroke-linecap="round" stroke-linejoin="round"/>
<path d="M533.463 139.816C530.613 150.808 521.096 164.848 511.898 165.46C492.094 166.78 491.499 152.673 491.499 140.981C492.72 129.989 502.68 116.502 511.898 116.502C524.72 116.502 535.906 122.31 533.463 139.816Z" fill="white"/>
<path d="M523.555 133.442C517.735 124.595 510.531 134.973 517.509 141.657C524.487 148.341 520.133 159.839 508.401 150.062" stroke="black" stroke-width="2" stroke-linecap="round" stroke-linejoin="round"/>
<path d="M521.6 127.577C519.156 136.376 515.734 146.641 512.276 156.049" stroke="black" stroke-width="2" stroke-linecap="round" stroke-linejoin="round"/>
<path d="M514.193 121.179L505.192 118.679" stroke="black" stroke-width="2" stroke-linecap="round" stroke-linejoin="round"/>
<path d="M507.135 127.354L498.393 124.44" stroke="black" stroke-width="2" stroke-linecap="round" stroke-linejoin="round"/>
<path d="M499.659 140.272L491.499 137.941M502.724 133.53L494.565 131.199M499.076 147.976L490.917 145.645" stroke="black" stroke-width="2" stroke-linecap="round" stroke-linejoin="round"/>
<path d="M499.076 155.584L491.5 153.836" stroke="black" stroke-width="2" stroke-linecap="round" stroke-linejoin="round"/>
<path d="M503.74 164.294C506.188 167.791 514.186 166.281 516.563 164.295C532.882 157.116 541.633 119.425 521.808 118.834C511.935 118.539 501.044 132.821 499.659 143.895C498.493 153.221 499.66 160.214 503.74 164.294Z" stroke="black" stroke-width="2" stroke-linecap="round" stroke-linejoin="round"/>
<path d="M508.985 166.626C503.739 165.461 498.028 163.129 495.58 159.632C491.5 155.553 489.751 146.227 491.5 139.816C492.666 129.325 503.192 116.208 513.065 116.503C516.559 116.607 519.476 117.669 524.721 119.417" stroke="black" stroke-width="2" stroke-linecap="round" stroke-linejoin="round"/>
<path d="M511.643 53.529L511.643 98.029M510.121 222.555L510.121 184.029" stroke="black" stroke-width="2" stroke-linecap="round" stroke-linejoin="round"/>
<path d="M487.463 177.383C484.614 188.375 475.097 202.415 465.899 203.028C446.094 204.347 445.5 190.24 445.5 178.549C446.721 167.557 456.68 154.07 465.899 154.07C478.721 154.07 489.906 159.878 487.463 177.383Z" fill="white"/>
<path d="M477.555 171.01C471.735 162.163 464.531 172.541 471.509 179.225C478.487 185.909 474.133 197.407 462.401 187.63" stroke="black" stroke-width="2" stroke-linecap="round" stroke-linejoin="round"/>
<path d="M475.6 165.145C473.156 173.943 469.734 184.209 466.276 193.617" stroke="black" stroke-width="2" stroke-linecap="round" stroke-linejoin="round"/>
<path d="M468.193 158.747L459.192 156.247" stroke="black" stroke-width="2" stroke-linecap="round" stroke-linejoin="round"/>
<path d="M461.136 164.921L452.393 162.007" stroke="black" stroke-width="2" stroke-linecap="round" stroke-linejoin="round"/>
<path d="M453.659 177.839L445.5 175.508M456.725 171.098L448.565 168.767M453.077 185.544L444.917 183.212" stroke="black" stroke-width="2" stroke-linecap="round" stroke-linejoin="round"/>
<path d="M453.077 193.152L445.5 191.403" stroke="black" stroke-width="2" stroke-linecap="round" stroke-linejoin="round"/>
<path d="M457.741 201.862C460.189 205.359 468.186 203.849 470.563 201.862C486.882 194.684 495.634 156.993 475.808 156.401C465.936 156.106 455.044 170.389 453.66 181.463C452.494 190.788 453.661 197.782 457.741 201.862Z" stroke="black" stroke-width="2" stroke-linecap="round" stroke-linejoin="round"/>
<path d="M462.985 204.194C457.74 203.028 452.028 200.697 449.58 197.2C445.501 193.12 443.752 183.795 445.5 177.384C446.666 166.893 457.193 153.776 467.065 154.07C470.56 154.175 473.476 155.236 478.722 156.984" stroke="black" stroke-width="2" stroke-linecap="round" stroke-linejoin="round"/>
<path d="M463.999 257.529L463.999 220.808M465.565 131.03L465.565 98.5296" stroke="black" stroke-width="2" stroke-linecap="round" stroke-linejoin="round"/>
<defs>
<radialGradient id="paint0_radial" cx="0" cy="0" r="1" gradientUnits="userSpaceOnUse" gradientTransform="translate(384.5 212.592) rotate(64.617) scale(117.99 261.107)">
<stop offset="0.0001" stop-color="#F0FEEA"/>
<stop offset="1" stop-color="#F0FEEA" stop-opacity="0"/>
</radialGradient>
</defs>
</svg>
