<svg width="588" height="376" viewBox="0 0 588 376" fill="none" xmlns="http://www.w3.org/2000/svg">
<ellipse opacity="0.6" cx="260.547" cy="237.699" rx="248.852" ry="106.28" transform="rotate(-7.46217 260.547 237.699)" fill="url(#paint0_radial)"/>
<path d="M220.138 189.354V78.4144L287.77 48.7515L383.878 67.7358V174.523L321.586 208.932L297.855 204.779L297 171L245.5 195L220.138 189.354Z" fill="white"/>
<path d="M244.084 196.499C244.084 168.465 244.08 158.404 244.083 125.115" stroke="black" stroke-width="2" stroke-linecap="round" stroke-linejoin="round"/>
<path d="M297.313 205.634C297.313 177.6 297.309 172.344 297.311 139.055" stroke="black" stroke-width="2" stroke-linecap="round" stroke-linejoin="round"/>
<path d="M220.498 188.925C220.498 160.891 220.496 110.081 220.498 76.7915" stroke="black" stroke-width="2" stroke-linecap="round" stroke-linejoin="round"/>
<path d="M322.658 210.412C322.658 177.998 322.655 119.249 322.658 80.7578" stroke="black" stroke-width="2" stroke-linecap="round" stroke-linejoin="round"/>
<path d="M383.488 175.057C383.488 142.644 383.485 98.971 383.488 60.48" stroke="black" stroke-width="2" stroke-linecap="round" stroke-linejoin="round"/>
<path d="M212 79.8736C227.597 73.1854 272.547 53.8652 291.329 46.7397" stroke="black" stroke-width="2" stroke-linecap="round" stroke-linejoin="round"/>
<path d="M312.518 99.7915C346.456 83.9602 363.082 76.1401 393.627 61.748" stroke="black" stroke-width="2" stroke-linecap="round" stroke-linejoin="round"/>
<path d="M312.518 212.491C332.795 203.056 353.072 190.383 387.924 172.006" stroke="black" stroke-width="2" stroke-linecap="round" stroke-linejoin="round"/>
<path d="M241.546 133.352C267.204 137.499 280.726 140.378 306.18 144.758M333.428 97.2329C294.128 91.2176 232.445 79.0664 210.5 74.999M390.458 67.4506C356.224 60.8513 300.66 49.9331 279.5 45.999" stroke="black" stroke-width="2" stroke-linecap="round" stroke-linejoin="round"/>
<path d="M397.097 20.3108C388.634 18.7511 380.212 17.0342 371.725 15.5837" stroke="black" stroke-width="2" stroke-linecap="round" stroke-linejoin="round"/>
<path d="M398.875 19.0509C394.357 19.5001 396.45 25.0263 399.499 23.0215C402.422 21.0995 397.697 17.0042 396.023 19.7357" stroke="black" stroke-width="2" stroke-linecap="round" stroke-linejoin="round"/>
<path d="M370.014 13.0826C365.496 13.5318 367.589 19.058 370.638 17.0533C373.561 15.1313 368.836 11.0359 367.162 13.7674" stroke="black" stroke-width="2" stroke-linecap="round" stroke-linejoin="round"/>
<path d="M366.41 14.6747C360.263 13.6238 357.306 12.9959 352.877 12.3615C349.257 16.223 346.832 20.1904 343.958 23.035" stroke="black" stroke-width="2" stroke-linecap="round" stroke-linejoin="round"/>
<path d="M384.641 31.4664C366.383 27.5647 352.983 25.0848 330.826 21.2979" stroke="black" stroke-width="2" stroke-linecap="round" stroke-linejoin="round"/>
<path d="M358.574 26.2303C359.867 29.801 361.503 34.0642 362.072 37.769" stroke="black" stroke-width="2" stroke-linecap="round" stroke-linejoin="round"/>
<path d="M362.072 37.7673C365.848 38.4127 370.564 38.9025 374.276 39.8539" stroke="black" stroke-width="2" stroke-linecap="round" stroke-linejoin="round"/>
<path d="M381.045 37.3146C372.037 34.7106 373.96 44.1731 378.018 43.0616C382.392 41.8632 378.843 34.3524 375.088 38.2369" stroke="black" stroke-width="2" stroke-linecap="round" stroke-linejoin="round"/>
<path d="M389.055 30.1177C386.516 24.4993 382.269 32.2764 387.481 34.7547C390.67 36.2713 389.837 32.1362 388.898 30.5251C387.428 28.0019 384.957 28.3001 382.601 29.0146" stroke="black" stroke-width="2" stroke-linecap="round" stroke-linejoin="round"/>
<path d="M330.787 20.7832C330.393 19.347 328.376 18.5211 327.045 19.285C325.92 19.9307 326.364 20.853 327.427 21.1662C328.632 21.5211 330.387 21.3741 330.82 19.9302C331.2 18.6618 329.384 18.3897 328.559 18.2487" stroke="black" stroke-width="2" stroke-linecap="round" stroke-linejoin="round"/>
<path d="M220.497 188.924C227.93 190.941 235.265 192.703 242.682 194.251" stroke="black" stroke-width="2" stroke-linecap="round" stroke-linejoin="round"/>
<path d="M292.24 202.423C304.124 205.648 321.699 209.098 333.815 211.183" stroke="black" stroke-width="2" stroke-linecap="round" stroke-linejoin="round"/>
<path d="M322.132 128.248L331.67 91.2369M338.655 87.9065C333.319 108.612 328.238 128.327 323.366 147.232M323.366 174.403C330.688 145.993 338.428 115.957 346.574 84.3469" stroke="black" stroke-width="2" stroke-linecap="round" stroke-linejoin="round"/>
<path d="M354.749 80.1936L322.773 204.277M361.794 76.634C349.581 124.024 338.703 166.236 328.618 205.371M369.56 73.6677C357.805 119.283 346.886 161.653 336.843 200.625L369.56 73.6677Z" stroke="black" stroke-width="2" stroke-linecap="round" stroke-linejoin="round"/>
<path d="M377.65 70.1085L345.544 194.693M383.777 70.1085C372.359 114.416 362.104 154.208 352.588 191.133M385.122 92.0591C376.494 125.541 368.335 157.202 360.661 186.981L385.122 92.0591Z" stroke="black" stroke-width="2" stroke-linecap="round" stroke-linejoin="round"/>
<path d="M368.927 182.234L383.382 126.14M383.382 151.978C381.096 160.848 378.856 169.542 376.655 178.081L383.382 151.978Z" stroke="black" stroke-width="2" stroke-linecap="round" stroke-linejoin="round"/>
<path fill-rule="evenodd" clip-rule="evenodd" d="M268.711 27.9518L273.845 21.9625L282.401 23.6737L284.112 21.9625L279.834 10.8395L285.823 3.99458L300.369 1.42773L302.936 10.8395L308.069 13.4063L313.203 8.27265L320.904 5.70581L332.882 18.54L327.749 27.9518L331.171 35.6523L340.583 37.3636V57.0427L335.449 59.6096H327.749L325.182 63.032L328.604 70.7325L320.904 73.2994L308.069 80.9999L304.647 69.8769L298.658 67.3101L294.38 73.2994H288.39L277.267 61.3208L282.401 53.6202L279.834 42.4973H268.711V27.9518ZM298.658 30.5186L302.936 28.8074L313.203 40.786L311.492 51.0534L308.069 53.6202L298.658 45.0641V30.5186Z" fill="white"/>
<path d="M279.834 27.9519C279.834 26.2406 282.401 22.8182 284.968 21.1069" stroke="#1A1A1A" stroke-width="2" stroke-linecap="round" stroke-linejoin="round"/>
<path d="M278.979 9.98389C280.454 13.2523 281.925 16.5231 283.328 19.8235C283.628 20.5281 283.963 21.2148 284.112 21.9625" stroke="#1A1A1A" stroke-width="2" stroke-linecap="round" stroke-linejoin="round"/>
<path d="M295.021 4.63623C295.846 7.40966 296.618 10.1874 297.374 12.9785" stroke="#1A1A1A" stroke-width="2" stroke-linecap="round" stroke-linejoin="round"/>
<path d="M296.947 14.0479C300.425 14.1174 304.207 15.3033 306.786 17.6842" stroke="#1A1A1A" stroke-width="2" stroke-linecap="round" stroke-linejoin="round"/>
<path d="M305.717 19.1818C308.238 14.9888 310.749 10.7931 313.203 6.56152" stroke="#1A1A1A" stroke-width="2" stroke-linecap="round" stroke-linejoin="round"/>
<path d="M318.979 30.7326C321.298 27.6204 323.559 24.4722 325.824 21.3208" stroke="#1A1A1A" stroke-width="2" stroke-linecap="round" stroke-linejoin="round"/>
<path d="M327.107 27.31C329.274 24.5595 331.517 21.8345 333.524 18.9678" stroke="#1A1A1A" stroke-width="2" stroke-linecap="round" stroke-linejoin="round"/>
<path d="M327.321 27.9517C329.06 29.9746 330.067 32.4033 331.171 34.7966" stroke="#1A1A1A" stroke-width="2" stroke-linecap="round" stroke-linejoin="round"/>
<path d="M318.123 29.2354C320.31 32.5702 323.017 36.4884 323.471 40.5722" stroke="#1A1A1A" stroke-width="2" stroke-linecap="round" stroke-linejoin="round"/>
<path d="M323.043 40.5723C326.63 40.7773 330.181 41.1337 333.738 41.6418" stroke="#1A1A1A" stroke-width="2" stroke-linecap="round" stroke-linejoin="round"/>
<path d="M335.449 39.0747C335.191 45.9439 334.322 52.7639 333.738 59.6095" stroke="#1A1A1A" stroke-width="2" stroke-linecap="round" stroke-linejoin="round"/>
<path d="M324.326 57.6841C328.153 58.3453 332.012 58.6542 335.877 58.9675" stroke="#1A1A1A" stroke-width="2" stroke-linecap="round" stroke-linejoin="round"/>
<path d="M318.123 65.1714C320.263 61.3753 323.385 58.0679 324.54 53.8345" stroke="#1A1A1A" stroke-width="2" stroke-linecap="round" stroke-linejoin="round"/>
<path d="M317.053 63.8877C319.087 67.1154 320.536 71.0063 323.257 73.7273" stroke="#1A1A1A" stroke-width="2" stroke-linecap="round" stroke-linejoin="round"/>
<path d="M304.005 69.0215C304.982 72.362 305.883 75.7146 306.786 79.075" stroke="#1A1A1A" stroke-width="2" stroke-linecap="round" stroke-linejoin="round"/>
<path d="M307.642 80.3586C312.113 77.9676 316.656 75.7024 321.118 73.2998" stroke="#1A1A1A" stroke-width="2" stroke-linecap="round" stroke-linejoin="round"/>
<path d="M322.829 73.0853C324.947 72.1904 327.556 71.1602 329.888 71.1602" stroke="#1A1A1A" stroke-width="2" stroke-linecap="round" stroke-linejoin="round"/>
<path d="M324.112 61.9629C325.299 64.3205 326.525 66.6587 327.701 69.0217C327.989 69.6009 328.266 70.1118 328.39 70.7329" stroke="#1A1A1A" stroke-width="2" stroke-linecap="round" stroke-linejoin="round"/>
<path d="M324.326 64.1016C325.312 62.0109 326.77 60.2093 327.749 58.1123" stroke="#1A1A1A" stroke-width="2" stroke-linecap="round" stroke-linejoin="round"/>
<path d="M334.38 58.9679C336.46 57.659 338.655 56.5308 340.797 55.3315" stroke="#1A1A1A" stroke-width="2" stroke-linecap="round" stroke-linejoin="round"/>
<path d="M334.807 41.8558C336.889 40.2412 339.143 38.8037 341.011 36.936" stroke="#1A1A1A" stroke-width="2" stroke-linecap="round" stroke-linejoin="round"/>
<path d="M323.685 40.1445C326.406 38.5938 328.842 36.6134 331.385 34.7969" stroke="#1A1A1A" stroke-width="2" stroke-linecap="round" stroke-linejoin="round"/>
<path d="M330.743 36.0806C333.033 36.653 335.338 36.9679 337.683 37.2214C338.446 37.3038 339.056 37.3095 339.727 37.5779" stroke="#1A1A1A" stroke-width="2" stroke-linecap="round" stroke-linejoin="round"/>
<path d="M340.796 36.5078C340.504 42.93 340.41 51.5064 339.727 57.8982" stroke="#1A1A1A" stroke-width="2" stroke-linecap="round" stroke-linejoin="round"/>
<path d="M324.326 21.9626C326.893 21.107 331.171 19.3958 334.594 17.6846" stroke="#1A1A1A" stroke-width="2" stroke-linecap="round" stroke-linejoin="round"/>
<path d="M312.989 8.27295C317.276 12.5598 321.582 16.8134 325.396 21.535" stroke="#1A1A1A" stroke-width="2" stroke-linecap="round" stroke-linejoin="round"/>
<path d="M320.048 4.85059C324.326 9.12866 330.315 15.9736 333.738 19.396" stroke="#1A1A1A" stroke-width="2" stroke-linecap="round" stroke-linejoin="round"/>
<path d="M312.775 8.70033C315.78 7.83328 318.449 6.66537 321.118 5.06396" stroke="#1A1A1A" stroke-width="2" stroke-linecap="round" stroke-linejoin="round"/>
<path d="M302.722 11.2673C302.219 7.97946 301.708 4.68019 301.011 1.42773" stroke="#1A1A1A" stroke-width="2" stroke-linecap="round" stroke-linejoin="round"/>
<path d="M302.294 11.4814C304.544 11.9492 307.125 12.3019 308.497 14.2622" stroke="#1A1A1A" stroke-width="2" stroke-linecap="round" stroke-linejoin="round"/>
<path d="M277.053 11.6954C283.052 8.97521 289.718 7.1368 296.091 5.49219" stroke="#1A1A1A" stroke-width="2" stroke-linecap="round" stroke-linejoin="round"/>
<path d="M278.123 11.6955C281.332 8.91471 284.112 5.70615 287.535 2.28369" stroke="#1A1A1A" stroke-width="2" stroke-linecap="round" stroke-linejoin="round"/>
<path d="M284.112 4.85019C289.246 3.99458 297.541 2.03301 302.08 1.42773" stroke="#1A1A1A" stroke-width="2" stroke-linecap="round" stroke-linejoin="round"/>
<path d="M294.38 6.7754C296.492 4.71045 298.601 2.70091 301.011 1" stroke="#1A1A1A" stroke-width="2" stroke-linecap="round" stroke-linejoin="round"/>
<path d="M267 27.0962C270.773 27.4173 276.412 27.9518 280.69 27.9518" stroke="#1A1A1A" stroke-width="2" stroke-linecap="round" stroke-linejoin="round"/>
<path d="M268.711 25.3848C268.711 31.6606 268.711 37.9383 268.711 44.2083" stroke="#1A1A1A" stroke-width="2" stroke-linecap="round" stroke-linejoin="round"/>
<path d="M268.711 43.0264C271.366 42.8903 276.324 43.1382 278.979 43.0264" stroke="#1A1A1A" stroke-width="2" stroke-linecap="round" stroke-linejoin="round"/>
<path d="M278.551 42.0693C278.979 47.6308 279.932 50.7822 283.257 54.4758" stroke="#1A1A1A" stroke-width="2" stroke-linecap="round" stroke-linejoin="round"/>
<path d="M275.556 63.032C278.361 59.5806 281.341 56.2328 284.112 52.7646" stroke="#1A1A1A" stroke-width="2" stroke-linecap="round" stroke-linejoin="round"/>
<path d="M276.412 60.2515C279.181 63.4138 281.847 66.6642 284.611 69.8296C285.545 70.8988 286.416 71.8192 287.535 72.6579" stroke="#1A1A1A" stroke-width="2" stroke-linecap="round" stroke-linejoin="round"/>
<path d="M287.107 72.0161C290.063 69.1975 292.938 66.2901 295.877 63.46" stroke="#1A1A1A" stroke-width="2" stroke-linecap="round" stroke-linejoin="round"/>
<path d="M294.807 64.7432C297.437 66.8911 301.44 70.0549 305.075 69.449" stroke="#1A1A1A" stroke-width="2" stroke-linecap="round" stroke-linejoin="round"/>
<path d="M287.321 73.0857C289.927 72.8958 292.343 72.6239 294.807 71.8022" stroke="#1A1A1A" stroke-width="2" stroke-linecap="round" stroke-linejoin="round"/>
<path d="M294.807 73.0854C295.382 71.4963 296.51 68.1245 298.444 67.7378" stroke="#1A1A1A" stroke-width="2" stroke-linecap="round" stroke-linejoin="round"/>
<path d="M268.711 27.0964C271.262 25.1557 273.41 22.7551 275.556 20.2515" stroke="#1A1A1A" stroke-width="2" stroke-linecap="round" stroke-linejoin="round"/>
<path d="M270.422 21.9624C272.84 22.4858 279.1 23.3226 281.545 23.6736" stroke="#1A1A1A" stroke-width="2" stroke-linecap="round" stroke-linejoin="round"/>
<path d="M290.741 30.519C290.741 38.2196 290.102 42.4977 290.102 49.3426" stroke="#1A1A1A" stroke-width="2" stroke-linecap="round" stroke-linejoin="round"/>
<path d="M289.032 45.4917C292.092 48.9147 295.243 52.2576 298.658 55.3313" stroke="#1A1A1A" stroke-width="2" stroke-linecap="round" stroke-linejoin="round"/>
<path d="M296.091 55.3316C302.08 54.476 306.358 53.6204 312.348 51.9092" stroke="#1A1A1A" stroke-width="2" stroke-linecap="round" stroke-linejoin="round"/>
<path d="M310.85 55.5452C311.642 49.149 313.08 42.8724 314.059 36.5078" stroke="#1A1A1A" stroke-width="2" stroke-linecap="round" stroke-linejoin="round"/>
<path d="M300.797 26.2402C305.285 31.5209 309.917 36.6765 314.273 42.0691" stroke="#1A1A1A" stroke-width="2" stroke-linecap="round" stroke-linejoin="round"/>
<path d="M286.893 34.5827C293.17 32.4724 299.461 30.4564 305.503 27.7378" stroke="#1A1A1A" stroke-width="2" stroke-linecap="round" stroke-linejoin="round"/>
<path d="M297.802 44.2089C297.802 40.1019 297.802 35.4816 297.802 30.519" stroke="#1A1A1A" stroke-width="2" stroke-linecap="round" stroke-linejoin="round"/>
<path d="M297.16 44.2085C300.788 47.73 303.292 49.5779 307.214 52.7646" stroke="#1A1A1A" stroke-width="2" stroke-linecap="round" stroke-linejoin="round"/>
<path d="M288.818 46.7756C291.978 46.0233 296.833 45.5 299.085 42.9253" stroke="#1A1A1A" stroke-width="2" stroke-linecap="round" stroke-linejoin="round"/>
<path d="M297.16 13.834C298.846 12.7704 300.557 11.81 302.294 10.8394" stroke="#1A1A1A" stroke-width="2" stroke-linecap="round" stroke-linejoin="round"/>
<path d="M318.123 30.9465C321.642 29.7877 325.045 28.2533 328.39 26.6685" stroke="#1A1A1A" stroke-width="2" stroke-linecap="round" stroke-linejoin="round"/>
<path d="M274.059 28.3798C275.425 26.6532 276.642 24.831 277.909 23.0322" stroke="#1A1A1A" stroke-width="2" stroke-linecap="round" stroke-linejoin="round"/>
<path d="M287.963 6.7756C289.041 5.38005 290.136 3.96038 291.385 2.71143" stroke="#1A1A1A" stroke-width="2" stroke-linecap="round" stroke-linejoin="round"/>
<path d="M303.364 15.5454C304.177 14.7142 305.556 13.6744 305.93 12.5508" stroke="#1A1A1A" stroke-width="2" stroke-linecap="round" stroke-linejoin="round"/>
<path d="M316.84 12.5509C319.072 11.3814 321.253 10.1084 323.471 8.91455" stroke="#1A1A1A" stroke-width="2" stroke-linecap="round" stroke-linejoin="round"/>
<path d="M321.545 17.257C323.319 15.8954 325.176 14.3357 327.321 13.6206" stroke="#1A1A1A" stroke-width="2" stroke-linecap="round" stroke-linejoin="round"/>
<path d="M289.888 39.931C292.031 39.1468 294.412 38.0059 296.733 38.0059" stroke="#1A1A1A" stroke-width="2" stroke-linecap="round" stroke-linejoin="round"/>
<path d="M294.166 51.6953C296.308 50.8652 298.641 50.1285 300.583 48.9146" stroke="#1A1A1A" stroke-width="2" stroke-linecap="round" stroke-linejoin="round"/>
<path d="M321.759 36.0804C323.724 34.2895 325.901 32.74 328.177 31.3745" stroke="#1A1A1A" stroke-width="2" stroke-linecap="round" stroke-linejoin="round"/>
<path d="M290.529 68.8076C291.962 68.8265 293.378 68.9322 294.807 69.0215" stroke="#1A1A1A" stroke-width="2" stroke-linecap="round" stroke-linejoin="round"/>
<path d="M317.909 64.5296C319.726 64.5609 322.619 63.8136 324.112 62.8184" stroke="#1A1A1A" stroke-width="2" stroke-linecap="round" stroke-linejoin="round"/>
<path d="M319.62 69.4492C321.569 68.4894 323.684 67.0965 325.824 66.6685" stroke="#1A1A1A" stroke-width="2" stroke-linecap="round" stroke-linejoin="round"/>
<path d="M334.594 48.0592C336.24 46.8169 337.975 45.7212 339.727 44.6367" stroke="#1A1A1A" stroke-width="2" stroke-linecap="round" stroke-linejoin="round"/>
<path d="M334.166 54.904C335.848 53.8092 337.459 52.6119 339.133 51.5053C339.585 51.2066 340.028 50.8398 340.583 50.8398" stroke="#1A1A1A" stroke-width="2" stroke-linecap="round" stroke-linejoin="round"/>
<path d="M265.817 137.545C258.345 141.037 251.012 144.464 243.819 147.826L265.817 137.545ZM243.819 140.341C247.342 138.695 250.889 137.037 254.462 135.367L243.819 140.341Z" stroke="black" stroke-width="2" stroke-linecap="round" stroke-linejoin="round"/>
<path d="M275.411 139.519L244.46 153.984M297.26 143.341C278.862 151.94 261.257 160.168 244.46 168.018L297.26 143.341ZM244.46 160.533C257.564 154.409 270.976 148.141 284.802 141.679L244.46 160.533Z" stroke="black" stroke-width="2" stroke-linecap="round" stroke-linejoin="round"/>
<path d="M244.46 174.685L297.774 149.769M244.46 195.399L296.667 171M244.46 188.719C261.041 180.969 278.45 172.833 296.667 164.32L244.46 188.719ZM297.774 156.318C279.345 164.931 261.655 173.198 244.46 181.234L297.774 156.318Z" stroke="black" stroke-width="2" stroke-linecap="round" stroke-linejoin="round"/>
<path d="M236.5 252.499L193 256.499L193 290.499L240 300.499L279.5 294.999L279.5 273.499L276 259.499L236.5 252.499Z" fill="white"/>
<path d="M192.592 268.347C192.592 276.695 192.592 281.565 192.592 291.305" stroke="black" stroke-width="2" stroke-linecap="round" stroke-linejoin="round"/>
<path d="M192.592 255.824C192.592 262.908 192.592 267.04 192.592 275.304" stroke="black" stroke-width="2" stroke-linecap="round" stroke-linejoin="round"/>
<path d="M226.19 276.16L221.281 295.355M230.649 277.551C229.02 283.921 227.42 290.178 225.845 296.335L230.649 277.551ZM231.112 297.256C232.688 291.095 234.293 284.821 235.926 278.435L231.112 297.256Z" stroke="black" stroke-width="2" stroke-linecap="round" stroke-linejoin="round"/>
<path d="M241.554 278.998L236.645 298.193M246.704 277.551C245.075 283.921 243.249 291.569 241.674 297.726L246.704 277.551ZM245.986 297.03C247.561 290.869 250.1 283.241 251.734 276.855L245.986 297.03Z" stroke="black" stroke-width="2" stroke-linecap="round" stroke-linejoin="round"/>
<path d="M256.764 276.855L251.016 296.802M262.075 275.179C260.446 281.549 257.436 290.645 255.862 296.802L262.075 275.179ZM260.847 295.677C262.423 289.515 264.471 281.565 266.104 275.179L260.847 295.677Z" stroke="black" stroke-width="2" stroke-linecap="round" stroke-linejoin="round"/>
<path d="M234.703 298.958C252.415 297.567 262.699 296.871 282.125 293.393" stroke="black" stroke-width="2" stroke-linecap="round" stroke-linejoin="round"/>
<path d="M275.445 294.943L278.319 283.812M271.134 274.768L265.506 295.41M276.655 274.072C275.025 280.443 272.709 288.787 271.134 294.943L276.655 274.072Z" stroke="black" stroke-width="2" stroke-linecap="round" stroke-linejoin="round"/>
<path d="M196.408 271.596L191.679 290.083M206.448 272.681C204.81 279.084 203.209 285.346 201.644 291.465L206.448 272.681ZM196.408 290.421C197.903 284.576 199.414 278.668 200.945 272.681L196.408 290.421Z" stroke="black" stroke-width="2" stroke-linecap="round" stroke-linejoin="round"/>
<path d="M211.297 274.031L206.482 292.856M215.924 274.768C214.362 280.873 212.821 286.897 211.297 292.856L215.924 274.768ZM221.204 275.639C219.519 282.227 217.873 288.662 216.266 294.944L221.204 275.639Z" stroke="black" stroke-width="2" stroke-linecap="round" stroke-linejoin="round"/>
<path d="M189 270.434C207.681 273.912 228.519 277.391 245.044 279.478" stroke="black" stroke-width="2" stroke-linecap="round" stroke-linejoin="round"/>
<path d="M233.548 251.65C251.511 255.129 263.007 257.216 278.815 259.303" stroke="black" stroke-width="2" stroke-linecap="round" stroke-linejoin="round"/>
<path d="M280.253 278.086C278.135 269.738 276.622 262.781 274.504 255.824" stroke="black" stroke-width="2" stroke-linecap="round" stroke-linejoin="round"/>
<path d="M191.155 290.609C211.274 294.262 225.644 297.305 245.762 300.349" stroke="black" stroke-width="2" stroke-linecap="round" stroke-linejoin="round"/>
<path d="M233.548 278.782C251.796 277.738 265.985 275.129 286 272.521" stroke="black" stroke-width="2" stroke-linecap="round" stroke-linejoin="round"/>
<path d="M191.155 255.825C213.429 254.433 219.177 253.737 244.325 251.65" stroke="black" stroke-width="2" stroke-linecap="round" stroke-linejoin="round"/>
<path d="M238.577 278.086C238.577 286.434 238.577 291.304 238.577 301.044" stroke="black" stroke-width="2" stroke-linecap="round" stroke-linejoin="round"/>
<path d="M278.815 272.521C278.815 280.869 278.815 285.739 278.815 295.479" stroke="black" stroke-width="2" stroke-linecap="round" stroke-linejoin="round"/>
<rect x="217.674" y="221.144" width="39.3857" height="39.3857" rx="19.6928" fill="#F8F8F8" stroke="black" stroke-width="2"/>
<path d="M229.592 250.962L225.333 247.514L239.269 236.019L235.398 235.253L238.495 234.104L239.269 232.188L240.43 229.889H243.914L246.624 231.039L249.333 236.786V242.15L246.237 248.663L240.043 252.111L229.592 250.962Z" fill="#F8F8F8"/>
<path d="M223.5 252.111L221.5 251L239.269 236.019L235.398 235.253L238.495 234.104L239.269 232.188L240.43 229.889H243.914L246.237 231.5L248.5 236.5L249.333 242.15L246.237 248.663L242.5 251L236.5 252.111L227.5 250.5L223.5 252.111Z" fill="url(#paint1_linear)"/>
<g filter="url(#filter0_d)">
<mask id="path-123-inside-1" fill="white">
<path fill-rule="evenodd" clip-rule="evenodd" d="M257.833 243.912C257.717 244.689 257.558 245.453 257.358 246.199C256.444 246.845 255.482 247.525 254.473 248.238C252.729 249.469 250.844 250.8 248.821 252.232C248.452 252.494 247.918 252.435 247.63 252.1C247.341 251.765 247.407 251.282 247.776 251.02C249.807 249.582 251.696 248.248 253.441 247.016L253.443 247.014L253.445 247.013C255.027 245.896 256.49 244.863 257.833 243.912ZM233.668 245L234.018 245.332C234.976 246.242 237.805 247.622 241.199 245.277C241.455 245.1 241.814 245.154 242.001 245.397C242.188 245.641 242.131 245.982 241.874 246.16C238.266 248.653 235.07 247.547 233.579 246.42L224.36 252.893C224.105 253.072 223.745 253.021 223.557 252.779C223.368 252.536 223.422 252.195 223.677 252.015L233.668 245Z"/>
</mask>
<path fill-rule="evenodd" clip-rule="evenodd" d="M257.833 243.912C257.717 244.689 257.558 245.453 257.358 246.199C256.444 246.845 255.482 247.525 254.473 248.238C252.729 249.469 250.844 250.8 248.821 252.232C248.452 252.494 247.918 252.435 247.63 252.1C247.341 251.765 247.407 251.282 247.776 251.02C249.807 249.582 251.696 248.248 253.441 247.016L253.443 247.014L253.445 247.013C255.027 245.896 256.49 244.863 257.833 243.912ZM233.668 245L234.018 245.332C234.976 246.242 237.805 247.622 241.199 245.277C241.455 245.1 241.814 245.154 242.001 245.397C242.188 245.641 242.131 245.982 241.874 246.16C238.266 248.653 235.07 247.547 233.579 246.42L224.36 252.893C224.105 253.072 223.745 253.021 223.557 252.779C223.368 252.536 223.422 252.195 223.677 252.015L233.668 245Z" fill="#F8F8F8"/>
<path d="M257.833 243.912L258.822 244.059L259.167 241.741L257.255 243.096L257.833 243.912ZM257.358 246.199L257.935 247.016L258.231 246.807L258.324 246.458L257.358 246.199ZM254.473 248.238L255.049 249.055L255.049 249.055L254.473 248.238ZM248.821 252.232L248.243 251.416L248.243 251.416L248.821 252.232ZM247.63 252.1L246.872 252.753L246.872 252.753L247.63 252.1ZM247.776 251.02L248.354 251.836L248.354 251.836L247.776 251.02ZM253.441 247.016L254.018 247.833L254.019 247.832L253.441 247.016ZM253.443 247.014L252.868 246.196L252.866 246.198L253.443 247.014ZM253.445 247.013L254.02 247.831L254.022 247.83L253.445 247.013ZM234.018 245.332L233.329 246.057L233.329 246.057L234.018 245.332ZM233.668 245L234.357 244.275L233.764 243.711L233.094 244.182L233.668 245ZM241.199 245.277L240.63 244.454L240.63 244.454L241.199 245.277ZM242.001 245.397L242.795 244.789L242.795 244.789L242.001 245.397ZM241.874 246.16L242.443 246.982L242.443 246.982L241.874 246.16ZM233.579 246.42L234.183 245.622L233.601 245.182L233.005 245.601L233.579 246.42ZM224.36 252.893L223.786 252.075L223.786 252.075L224.36 252.893ZM223.557 252.779L224.346 252.165L224.346 252.165L223.557 252.779ZM223.677 252.015L223.103 251.197L223.103 251.197L223.677 252.015ZM256.844 243.764C256.734 244.504 256.582 245.23 256.392 245.941L258.324 246.458C258.534 245.675 258.701 244.874 258.822 244.059L256.844 243.764ZM255.049 249.055C256.059 248.342 257.021 247.662 257.935 247.016L256.781 245.383C255.867 246.029 254.906 246.708 253.896 247.421L255.049 249.055ZM249.399 253.048C251.422 251.616 253.306 250.286 255.049 249.055L253.896 247.421C252.153 248.652 250.267 249.983 248.243 251.416L249.399 253.048ZM246.872 252.753C247.51 253.492 248.625 253.597 249.399 253.048L248.243 251.416C248.274 251.395 248.297 251.395 248.306 251.396C248.314 251.397 248.35 251.404 248.387 251.447L246.872 252.753ZM247.198 250.204C246.369 250.791 246.182 251.952 246.872 252.753L248.387 251.447C248.429 251.496 248.459 251.578 248.447 251.667C248.435 251.754 248.389 251.811 248.354 251.836L247.198 250.204ZM252.864 246.199C251.119 247.431 249.23 248.765 247.198 250.204L248.354 251.836C250.384 250.398 252.273 249.065 254.018 247.833L252.864 246.199ZM252.866 246.198L252.863 246.2L254.019 247.832L254.021 247.831L252.866 246.198ZM252.869 246.195L252.868 246.196L254.019 247.832L254.02 247.831L252.869 246.195ZM257.255 243.096C255.913 244.046 254.45 245.079 252.868 246.196L254.022 247.83C255.604 246.713 257.068 245.679 258.411 244.728L257.255 243.096ZM234.707 244.607L234.357 244.275L232.979 245.725L233.329 246.057L234.707 244.607ZM240.63 244.454C237.7 246.479 235.391 245.257 234.707 244.607L233.329 246.057C234.561 247.227 237.911 248.764 241.767 246.1L240.63 244.454ZM242.795 244.789C242.276 244.111 241.314 243.982 240.63 244.454L241.767 246.1C241.596 246.218 241.353 246.196 241.207 246.005L242.795 244.789ZM242.443 246.982C243.156 246.489 243.339 245.5 242.795 244.789L241.207 246.005C241.037 245.782 241.106 245.475 241.306 245.337L242.443 246.982ZM232.976 247.217C234.74 248.552 238.412 249.767 242.443 246.982L241.306 245.337C238.121 247.538 235.399 246.543 234.183 245.622L232.976 247.217ZM224.935 253.712L234.154 247.238L233.005 245.601L223.786 252.075L224.935 253.712ZM222.768 253.393C223.292 254.066 224.254 254.19 224.935 253.712L223.786 252.075C223.956 251.955 224.199 251.976 224.346 252.165L222.768 253.393ZM223.103 251.197C222.392 251.696 222.219 252.687 222.768 253.393L224.346 252.165C224.518 252.385 224.452 252.693 224.252 252.834L223.103 251.197ZM233.094 244.182L223.103 251.197L224.252 252.834L234.243 245.818L233.094 244.182Z" fill="black" mask="url(#path-123-inside-1)"/>
</g>
<defs>
<filter id="filter0_d" x="218.444" y="242.912" width="44.3886" height="19.0884" filterUnits="userSpaceOnUse" color-interpolation-filters="sRGB">
<feFlood flood-opacity="0" result="BackgroundImageFix"/>
<feColorMatrix in="SourceAlpha" type="matrix" values="0 0 0 0 0 0 0 0 0 0 0 0 0 0 0 0 0 0 127 0"/>
<feOffset dy="4"/>
<feGaussianBlur stdDeviation="2.5"/>
<feColorMatrix type="matrix" values="0 0 0 0 0 0 0 0 0 0 0 0 0 0 0 0 0 0 0.1 0"/>
<feBlend mode="normal" in2="BackgroundImageFix" result="effect1_dropShadow"/>
<feBlend mode="normal" in="SourceGraphic" in2="effect1_dropShadow" result="shape"/>
</filter>
<radialGradient id="paint0_radial" cx="0" cy="0" r="1" gradientUnits="userSpaceOnUse" gradientTransform="translate(260.547 237.699) rotate(90) scale(106.28 248.852)">
<stop stop-color="#CBB5FF"/>
<stop offset="1" stop-color="white" stop-opacity="0"/>
</radialGradient>
<linearGradient id="paint1_linear" x1="237.333" y1="229.889" x2="226" y2="252" gradientUnits="userSpaceOnUse">
<stop offset="0.214073" stop-color="#FFD608" stop-opacity="0.49"/>
<stop offset="1" stop-color="#FFD608" stop-opacity="0"/>
</linearGradient>
</defs>
</svg>
