<svg width="710" height="424" viewBox="0 0 710 424" fill="none" xmlns="http://www.w3.org/2000/svg">
<ellipse opacity="0.6" cx="338" cy="255" rx="363" ry="79" transform="rotate(14.6502 338 255)" fill="url(#paint0_radial)"/>
<path d="M283.496 62.2695L267.33 69.4545V179.624L444.558 235.307L457.132 228.122V105.978L283.496 62.2695Z" fill="white"/>
<path d="M267.317 59.5342C267.317 107.061 267.318 136.814 267.318 184.713" stroke="black" stroke-width="2" stroke-linecap="round" stroke-linejoin="round"/>
<path d="M443.349 105.679C443.349 154.781 443.349 185.52 443.349 235.008" stroke="black" stroke-width="2" stroke-linecap="round" stroke-linejoin="round"/>
<path d="M450.534 112.864C378.7 94.6783 333.729 83.2934 261.331 64.9646" stroke="black" stroke-width="2" stroke-linecap="round" stroke-linejoin="round"/>
<path d="M464.904 106.877C393.07 88.691 348.099 77.306 275.701 58.9773" stroke="black" stroke-width="2" stroke-linecap="round" stroke-linejoin="round"/>
<path d="M448.139 235.008C378.123 213.185 334.291 199.523 263.726 177.528" stroke="black" stroke-width="2" stroke-linecap="round" stroke-linejoin="round"/>
<path d="M455.324 100.89C455.324 149.537 455.324 179.992 455.324 229.021" stroke="black" stroke-width="2" stroke-linecap="round" stroke-linejoin="round"/>
<path d="M440.954 235.008C447.54 231.415 450.534 229.619 458.317 224.23" stroke="black" stroke-width="2" stroke-linecap="round" stroke-linejoin="round"/>
<path d="M439.157 113.463C446.941 108.673 453.417 104.895 460.114 100.291" stroke="black" stroke-width="2" stroke-linecap="round" stroke-linejoin="round"/>
<path d="M262.528 68.557C272.108 64.3658 276.139 62.6825 285.579 58.6777" stroke="black" stroke-width="2" stroke-linecap="round" stroke-linejoin="round"/>
<path d="M278.106 68.2896L291.279 62.4111C286.827 64.3977 282.436 66.3572 278.106 68.2896Z" stroke="black" stroke-width="2" stroke-linecap="round" stroke-linejoin="round"/>
<path d="M286.555 70.7842L300.261 64.668M293.629 72.9781C298.377 70.8593 303.18 68.7159 308.045 66.5449M302.274 75.235C306.732 73.2454 311.25 71.2291 315.828 69.1862" stroke="black" stroke-width="2" stroke-linecap="round" stroke-linejoin="round"/>
<path d="M311.705 77.23L324.865 71.3573M319.564 79.0732C324.09 77.0538 328.667 75.011 333.303 72.9423M327.424 81.6808C332.078 79.6037 336.795 77.4987 341.575 75.3659" stroke="black" stroke-width="2" stroke-linecap="round" stroke-linejoin="round"/>
<path d="M337.64 83.3858L350.307 77.7332M344.711 85.5807C349 83.6668 353.339 81.7304 357.733 79.7699M354.145 87.4858L367.32 81.6061C362.878 83.5885 358.486 85.5484 354.145 87.4858Z" stroke="black" stroke-width="2" stroke-linecap="round" stroke-linejoin="round"/>
<path d="M362.165 90.4692L376.901 83.8932M371.433 92.3124C375.99 90.2791 380.605 88.2196 385.283 86.1319M380.242 94.4964C384.471 92.6089 388.746 90.7011 393.067 88.7731" stroke="black" stroke-width="2" stroke-linecap="round" stroke-linejoin="round"/>
<path d="M387.94 96.8325L402.048 90.5367M395.206 98.9406C399.804 96.8887 404.463 94.8095 409.188 92.701M403.658 101.283C408.455 99.1429 413.307 96.9777 418.214 94.7877" stroke="black" stroke-width="2" stroke-linecap="round" stroke-linejoin="round"/>
<path d="M412.301 103.364L426.593 96.9862M421.685 105.229C426.065 103.274 430.502 101.295 434.997 99.2883M430.378 107.464C434.662 105.553 438.988 103.622 443.358 101.672" stroke="black" stroke-width="2" stroke-linecap="round" stroke-linejoin="round"/>
<path d="M442.762 118.447L455.336 110.727M455.336 117.538C451.499 119.894 447.708 122.221 443.96 124.523M454.632 124.523C451.04 126.728 447.483 128.912 443.96 131.075" stroke="black" stroke-width="2" stroke-linecap="round" stroke-linejoin="round"/>
<path d="M455.333 130.771L443.956 137.755M454.97 137.755C451.258 140.035 447.588 142.288 443.956 144.518M454.629 144.518C451.035 146.724 447.477 148.908 443.956 151.07" stroke="black" stroke-width="2" stroke-linecap="round" stroke-linejoin="round"/>
<path d="M454.735 150.635L444.556 156.884M454.735 156.368C451.308 158.472 447.916 160.555 444.556 162.618M454.735 162.921C451.307 165.025 447.914 167.108 444.556 169.17" stroke="black" stroke-width="2" stroke-linecap="round" stroke-linejoin="round"/>
<path d="M454.736 169.104L443.36 176.089M454.736 174.838C451.097 177.072 447.496 179.283 443.929 181.473M454.601 181.473C451.004 183.682 447.446 185.866 443.929 188.026" stroke="black" stroke-width="2" stroke-linecap="round" stroke-linejoin="round"/>
<path d="M455.334 187.735L443.958 194.72M454.65 193.889C451.052 196.098 447.489 198.286 443.958 200.454M454.63 200.454C451.031 202.664 447.473 204.848 443.958 207.006" stroke="black" stroke-width="2" stroke-linecap="round" stroke-linejoin="round"/>
<path d="M454.737 207.03L443.959 213.647M454.737 213.647C451.418 215.685 448.128 217.705 444.863 219.71M454.736 220.234C451.098 222.468 447.505 224.673 443.959 226.851" stroke="black" stroke-width="2" stroke-linecap="round" stroke-linejoin="round"/>
<path d="M341.41 139.378C350.858 134.225 358.457 130.283 370.117 124.605" stroke="black" stroke-width="2" stroke-linecap="round" stroke-linejoin="round"/>
<path d="M376.168 126.245C384.038 131.82 390.596 137.066 400.354 144.555C390.596 145.592 383.382 146.903 373.873 148.215" stroke="black" stroke-width="2" stroke-linecap="round" stroke-linejoin="round"/>
<path d="M338.459 117.392C331.901 119.031 317.473 122.31 308.619 124.278C315.177 128.213 324.359 133.787 334.852 138.706" stroke="black" stroke-width="2" stroke-linecap="round" stroke-linejoin="round"/>
<path d="M315.833 152.806L359.445 165.922" stroke="black" stroke-width="2" stroke-linecap="round" stroke-linejoin="round"/>
<path d="M314.521 164.61L393.219 188.876" stroke="black" stroke-width="2" stroke-linecap="round" stroke-linejoin="round"/>
<path d="M314.258 176.593L366.331 192.483" stroke="black" stroke-width="2" stroke-linecap="round" stroke-linejoin="round"/>
<path d="M220.206 244.047C218.273 238.247 231.484 193.297 238.331 171.547C220.93 175.413 218.997 199.741 220.206 211.422C212.955 205.38 200.145 190.396 206.912 178.796C213.679 167.196 233.898 158.657 243.162 155.838C235.509 143.352 206.912 119.588 254.038 124.421C286.004 127.7 277.399 148.991 269.746 155.838C274.177 155.435 279.896 153.18 291.496 166.713C303.096 180.247 303.045 199.041 294.191 205.271C294.191 205.271 292.383 193.332 290.256 186.58C287.442 177.646 277.468 168.545 277.468 168.545C290.256 197.401 300.422 227.569 300.422 227.569C300.422 227.569 305.34 256.097 273.533 218.715C266.39 210.321 247.593 219.075 243.162 224.714C236.316 233.575 222.14 249.847 220.206 244.047Z" fill="white"/>
<path d="M252.744 123.059C262.753 124.552 271.386 126.429 276.759 135.733C279.652 140.743 277.397 152.78 270.668 156.021C260.654 160.843 244.315 156.543 236.385 149.618C231.596 145.435 225.945 137.082 227.952 130.409C229.191 126.292 233.539 124.588 237.389 123.664C245.574 121.699 254.229 122.771 262.21 125.057C269.449 127.13 281.199 131.901 280.597 141.345C280.039 150.104 271.542 157.176 263.465 158.636C251.267 160.84 225.698 148.274 227.548 133.862" stroke="black" stroke-width="2" stroke-linecap="round" stroke-linejoin="round"/>
<path d="M276.774 167.347C285.149 185.654 287.247 192.898 295.129 211.422C296.838 215.438 303.843 233.89 298.754 238.006C291.233 240.026 279.979 221.972 270.963 217.464C258.88 211.422 247.479 217.83 237.127 231.964C232.294 238.563 226.252 246.464 215.377 244.047" stroke="black" stroke-width="2" stroke-linecap="round" stroke-linejoin="round"/>
<path d="M237.127 172.755C233.129 183.211 216.839 226.761 220.837 247.672" stroke="black" stroke-width="2" stroke-linecap="round" stroke-linejoin="round"/>
<path d="M242.715 154.453C233.096 160.36 223.509 165.736 215.149 173.388C201.947 185.471 200.983 202.455 222.636 212.605" stroke="black" stroke-width="2" stroke-linecap="round" stroke-linejoin="round"/>
<path d="M270.96 154.628C293.917 159.461 310.747 189.754 293.918 206.587C293.918 196.92 291.501 181.212 277.001 167.92" stroke="black" stroke-width="2" stroke-linecap="round" stroke-linejoin="round"/>
<path d="M274.359 139.554C270.734 150.429 250.192 149.22 241.734 141.97" stroke="black" stroke-width="2" stroke-linecap="round" stroke-linejoin="round"/>
<path d="M223.607 214.471C209.107 189.096 226.024 174.596 242.941 169.763" stroke="black" stroke-width="2" stroke-linecap="round" stroke-linejoin="round"/>
<path d="M468.088 270.599C467.511 273.373 435.504 276.87 425.785 270.599L417.018 224.411L414.02 205.925C428.762 193.513 461.678 199.437 476.42 202.954C471.975 227.409 471.975 251.889 468.088 270.599Z" fill="white"/>
<path d="M468.753 199.516C461.728 197.409 449.69 197.149 441.374 197.404C434.338 197.62 420.401 198.733 415.658 202.092C412.528 204.309 413.667 206.96 416.734 208.495C425.283 212.773 438.508 212.456 447.78 212.013C456.181 211.612 467.612 211.08 474.718 206.126C480.353 202.198 469.018 199.753 466.663 199.427C453.235 197.569 437.139 197.958 423.977 200.924C416.668 202.572 411.189 205.993 405.071 209.858" stroke="black" stroke-width="2" stroke-linecap="round" stroke-linejoin="round"/>
<path d="M415.77 199.96C412.579 203.151 413.359 203.505 414.271 207.454C418.268 234.433 421.265 253.918 425.043 272.311" stroke="black" stroke-width="2" stroke-linecap="round" stroke-linejoin="round"/>
<path d="M476.222 203.958C472.725 236.433 470.227 256.917 468.443 271.674" stroke="black" stroke-width="2" stroke-linecap="round" stroke-linejoin="round"/>
<path d="M423.128 270.397C435.255 275.503 455.678 275.503 469.081 270.717" stroke="black" stroke-width="2" stroke-linecap="round" stroke-linejoin="round"/>
<path d="M439.5 234.792C437.597 232.957 435.557 230.944 433.504 228.901M440.999 233.237C439.258 231.413 437.374 229.431 435.503 227.492" stroke="black" stroke-width="2" stroke-linecap="round" stroke-linejoin="round"/>
<path d="M440.499 241.399C440.499 244.129 440.499 250.075 440.499 254.389" stroke="black" stroke-width="2" stroke-linecap="round" stroke-linejoin="round"/>
<path d="M443.389 241.824C443.389 244.554 443.389 249.964 443.389 254.638" stroke="black" stroke-width="2" stroke-linecap="round" stroke-linejoin="round"/>
<path d="M445.495 237.9C448.043 240.266 450.991 242.651 452.49 243.896" stroke="black" stroke-width="2" stroke-linecap="round" stroke-linejoin="round"/>
<path d="M444.496 239.899C447.289 242.24 449.492 244.395 450.99 245.395" stroke="black" stroke-width="2" stroke-linecap="round" stroke-linejoin="round"/>
<path d="M439.351 261.983C441.862 262.842 443.789 262.315 445.21 260.379C446.524 258.589 446.33 255.545 443.536 254.632C441.307 253.903 438.969 254.814 438.132 257.278C437.295 259.741 440.619 263.219 443.536 260.676" stroke="black" stroke-width="2" stroke-linecap="round" stroke-linejoin="round"/>
<path d="M451.986 251C454.296 251.805 456.068 251.31 457.375 249.495C458.583 247.817 458.404 244.963 455.835 244.107C453.786 243.423 451.635 244.278 450.866 246.587C450.096 248.897 453.152 252.158 455.835 249.773" stroke="black" stroke-width="2" stroke-linecap="round" stroke-linejoin="round"/>
<path d="M433.005 229.158C434.312 228.51 435.789 227.968 437.002 227.159" stroke="black" stroke-width="2" stroke-linecap="round" stroke-linejoin="round"/>
<path d="M439.351 241C441.862 241.859 443.789 241.331 445.21 239.396C446.524 237.606 446.33 234.562 443.536 233.648C441.307 232.92 438.969 233.831 438.132 236.294C437.295 238.757 440.619 242.236 443.536 239.692" stroke="black" stroke-width="2" stroke-linecap="round" stroke-linejoin="round"/>
<path d="M415.656 201.959C412.526 204.176 413.666 206.827 416.732 208.362C425.282 212.64 438.506 212.323 447.778 211.881C456.179 211.48 467.61 210.947 474.716 205.994C480.352 202.066 469.016 199.62 466.661 199.294M423.975 200.792C416.667 202.439 411.188 205.86 405.069 209.725" stroke="black" stroke-width="2" stroke-linecap="round" stroke-linejoin="round"/>
<path d="M418.797 209.206L421.015 201.664" stroke="black" stroke-width="2" stroke-linecap="round" stroke-linejoin="round"/>
<path d="M470.523 200.353C468.761 206.914 469.319 204.975 467.983 209.833M465.36 199.041L462.081 211.012" stroke="black" stroke-width="2" stroke-linecap="round" stroke-linejoin="round"/>
<path d="M452.156 197.64L448.383 212.169M455.195 210.993C456.531 206.132 457.344 203.464 458.729 198.425L455.195 210.993Z" stroke="black" stroke-width="2" stroke-linecap="round" stroke-linejoin="round"/>
<path d="M445.685 198.032C443.718 204.287 442.938 207.706 441.603 212.564M439.127 199.041L435.578 212.169" stroke="black" stroke-width="2" stroke-linecap="round" stroke-linejoin="round"/>
<path d="M429.946 211.501L433.225 199.696M424.371 210.845L427.65 199.696" stroke="black" stroke-width="2" stroke-linecap="round" stroke-linejoin="round"/>
<defs>
<radialGradient id="paint0_radial" cx="0" cy="0" r="1" gradientUnits="userSpaceOnUse" gradientTransform="translate(338 255) rotate(90) scale(79 363)">
<stop stop-color="#33F6FF"/>
<stop offset="1" stop-color="white" stop-opacity="0"/>
</radialGradient>
</defs>
</svg>
