<?xml version="1.0" encoding="utf-8"?>
<!-- Generator: Adobe Illustrator 25.2.3, SVG Export Plug-In . SVG Version: 6.00 Build 0)  -->
<svg version="1.1" id="Layer_1" xmlns="http://www.w3.org/2000/svg" xmlns:xlink="http://www.w3.org/1999/xlink" x="0px" y="0px"
	 viewBox="0 0 500 500" style="enable-background:new 0 0 500 500;" xml:space="preserve">
<style type="text/css">
	.st0{fill:#FFFFFF;}
</style>
<g id="XMLID_1_">
	<path id="e" class="st0" d="M109.1,207.1c-26.8,0-49.1,11.4-49.1,45.7c0,27.2,15,44.3,49.8,44.3c41,0,43.6-27,43.6-27h-19.9
		c0,0-4.3,14.5-25,14.5c-16.9,0-29-11.4-29-27.4h75.9v-10C155.5,231.4,145.5,207.1,109.1,207.1L109.1,207.1z M108.4,219.9
		c16,0,27,9.8,27,24.6H80.1C80.1,228.8,94.4,219.9,108.4,219.9z"/>
	<path id="b" class="st0" d="M155.5,173.9v106c0,6-0.4,14.5-0.4,14.5H174c0,0,0.7-6.1,0.7-11.6c0,0,9.4,14.6,34.8,14.6
		c26.8,0,45-18.6,45-45.2c0-24.8-16.7-44.7-44.9-44.7c-26.4,0-34.6,14.3-34.6,14.3V174h-19.5V173.9z M204.6,220.5
		c18.2,0,29.8,13.5,29.8,31.6c0,19.4-13.4,32.1-29.6,32.1c-19.4,0-29.9-15.2-29.9-32C174.9,236.6,184.3,220.5,204.6,220.5z"/>
	<path id="a" class="st0" d="M301.5,207.1c-40.3,0-42.9,22.1-42.9,25.6h20.1c0,0,1.1-12.9,21.5-12.9c13.3,0,23.5,6.1,23.5,17.7v4.2
		h-23.5c-31.2,0-47.8,9.1-47.8,27.7c0,18.3,15.3,28.2,35.9,28.2c28.1,0,37.2-15.5,37.2-15.5c0,6.2,0.5,12.3,0.5,12.3h17.8
		c0,0-0.7-7.5-0.7-12.4v-41.7C343,212.8,321,207.1,301.5,207.1L301.5,207.1z M323.7,254.2v5.5c0,7.2-4.5,25.2-30.7,25.2
		c-14.4,0-20.5-7.2-20.5-15.5C272.5,254.2,293.2,254.2,323.7,254.2L323.7,254.2z"/>
	<path id="y" class="st0" d="M332.2,210.6h22.6l32.4,64.9l32.3-64.9H440l-58.9,115.6h-21.5l17-32.2L332.2,210.6z"/>
</g>
</svg>
