<svg width="106" height="14" viewBox="0 0 106 14" fill="none" xmlns="http://www.w3.org/2000/svg">
<path fill-rule="evenodd" clip-rule="evenodd" d="M90.2446 13.3575C90.1905 13.4041 90.1201 13.4293 90.0481 13.4293H86.2089C86.0874 13.4293 85.969 13.365 85.9191 13.2542C85.8613 13.1266 85.8948 12.9778 85.9992 12.8915L93.0052 6.99119C93.1613 6.8594 93.1618 6.619 93.006 6.48693L86.0098 0.546697C85.9249 0.474381 85.8755 0.363813 85.8948 0.254083C85.921 0.103029 86.0506 0 86.1969 0H89.8914C89.9623 0 90.0313 0.0251291 90.088 0.0714783L97.7121 6.48498L97.7811 6.54389C97.8984 6.64385 97.9014 6.82394 97.7878 6.92809L97.7124 6.99705L90.2446 13.3575Z" fill="white"/>
<path fill-rule="evenodd" clip-rule="evenodd" d="M15.3837 0.0942279H13.0412C12.7603 0.0942279 12.5302 0.324299 12.5302 0.605465V8.17713C12.5302 8.35499 12.3208 8.45048 12.1865 8.33349L3.51584 0.784998C2.92475 0.27069 2.28228 0.00878906 1.60435 0.00878906C1.006 0.00878906 0 0.2531 0 1.88705V12.8414C0 13.1237 0.228675 13.3523 0.510958 13.3523H2.85215C3.13415 13.3523 3.36283 13.1237 3.36283 12.8417V5.23843C3.36283 5.06029 3.57252 4.96508 3.70682 5.08235L12.469 12.745C13.0121 13.227 13.6026 13.4713 14.2245 13.4713C14.8482 13.4713 15.8941 13.2161 15.8941 11.507V0.604907C15.8941 0.324019 15.6643 0.0942279 15.3837 0.0942279Z" fill="white"/>
<path fill-rule="evenodd" clip-rule="evenodd" d="M32.52 0.09375H29.7971C29.6307 0.09375 29.4939 0.229447 29.4939 0.396974V9.26447C29.4939 9.99489 28.587 10.3654 26.797 10.3654H23.0938C21.2703 10.3654 20.3444 9.99489 20.3444 9.26447V0.396974C20.3444 0.229447 20.2087 0.09375 20.0409 0.09375H17.2845C17.1164 0.09375 16.9805 0.229447 16.9805 0.396974V9.40072C16.9805 10.0253 17.0863 10.5642 17.2918 11.0031C17.4965 11.437 17.7751 11.8103 18.1211 12.1127C18.4597 12.4081 18.8576 12.6429 19.301 12.8091C19.7313 12.9718 20.1847 13.0941 20.6462 13.1748C21.1055 13.2578 21.5836 13.3075 22.0672 13.3259C22.5382 13.3432 22.981 13.3519 23.3959 13.3519H26.4092C28.6211 13.3519 30.1953 13.0458 31.2231 12.4173C32.2852 11.7673 32.8241 10.7532 32.8241 9.40072V0.396974C32.8241 0.229447 32.6873 0.09375 32.52 0.09375Z" fill="white"/>
<path fill-rule="evenodd" clip-rule="evenodd" d="M48.4392 2.4337V0.688623C48.4392 0.350776 48.1656 0.0771484 47.8278 0.0771484H34.5102C34.1723 0.0771484 33.8984 0.351055 33.8984 0.688902V2.4337C33.8984 2.77154 34.1723 3.04573 34.5105 3.04573H39.1691C39.3394 3.04573 39.4777 3.18366 39.4777 3.35398V12.74C39.4777 13.0778 39.7516 13.3517 40.0894 13.3517H42.2296C42.5677 13.3517 42.8419 13.0775 42.8419 12.7397V3.35398C42.8419 3.18366 42.9798 3.04573 43.1501 3.04573H47.8272C48.1653 3.04573 48.4392 2.77182 48.4392 2.4337Z" fill="white"/>
<path fill-rule="evenodd" clip-rule="evenodd" d="M51.9311 6.69046L53.6371 4.23842C53.715 4.1259 53.8811 4.12534 53.9601 4.23702L55.6865 6.67175C55.7669 6.78483 55.6859 6.94147 55.5472 6.94147H52.0623C51.9333 6.94147 51.8574 6.79628 51.9311 6.69046ZM55.6851 0.991185C55.2264 0.350673 54.6191 0.0253906 53.88 0.0253906C53.151 0.0253906 52.5496 0.356815 52.0897 1.0124L43.8747 12.8747C43.7963 12.9875 43.8018 13.1411 43.8968 13.2494C43.9585 13.3195 44.0526 13.3522 44.1458 13.3522H47.3752C47.478 13.3522 47.5746 13.2997 47.6304 13.2134L49.6935 10.0393C49.7387 9.9698 49.8158 9.92792 49.8987 9.92792C49.8987 9.92792 56.7771 9.92625 57.8183 9.92764C57.9009 9.92764 57.9772 9.96897 58.0227 10.0379L60.1324 13.2159C60.1882 13.3011 60.2834 13.3522 60.3854 13.3522H63.4846C63.596 13.3522 63.6996 13.2902 63.7518 13.19C63.8049 13.0908 63.7984 12.9711 63.7356 12.8781L55.6851 0.991185Z" fill="white"/>
<path fill-rule="evenodd" clip-rule="evenodd" d="M79.9161 0.0932514H77.509C77.2452 0.0932514 77.031 0.307407 77.031 0.571541V8.24736C77.031 8.39757 76.8543 8.47799 76.7409 8.37943L68.017 0.784022C67.4261 0.269713 66.7826 0.0078125 66.1038 0.0078125C65.5054 0.0078125 64.5 0.252123 64.5 1.88607V12.8728C64.5 13.1361 64.7153 13.3514 64.9786 13.3514H67.3848C67.6492 13.3514 67.8637 13.1369 67.8637 12.8725V5.16597C67.8637 5.01548 68.0407 4.93535 68.154 5.03419L76.9699 12.7441C77.5124 13.226 78.1035 13.4703 78.7253 13.4703C79.3485 13.4703 80.395 13.2151 80.395 11.506V0.5721C80.395 0.307686 80.1805 0.0932514 79.9161 0.0932514Z" fill="white"/>
<path fill-rule="evenodd" clip-rule="evenodd" d="M84.5265 0.09375H81.7713C81.6035 0.09375 81.4678 0.229447 81.4678 0.396974V13.0483C81.4678 13.2156 81.6035 13.3519 81.7713 13.3519H84.5265C84.6941 13.3519 84.8306 13.2156 84.8306 13.0483V0.396974C84.8306 0.229447 84.6941 0.09375 84.5265 0.09375Z" fill="white"/>
<path fill-rule="evenodd" clip-rule="evenodd" d="M98.8906 5.62863C99.0128 5.73278 99.1929 5.73278 99.3152 5.62891L105.431 0.546697C105.515 0.474381 105.565 0.363813 105.546 0.254083C105.519 0.103029 105.389 0 105.243 0H101.549C101.478 0 101.409 0.0251291 101.352 0.0714783L97.0612 3.56973C96.9059 3.7004 96.9054 3.93912 97.0598 4.07063L98.8906 5.62863Z" fill="white"/>
<path fill-rule="evenodd" clip-rule="evenodd" d="M98.8701 7.85071C98.9927 7.74656 99.1725 7.74628 99.2951 7.85043L105.501 12.9192C105.586 12.9913 105.635 13.1021 105.616 13.2119C105.59 13.3626 105.46 13.4659 105.314 13.4659H101.619C101.549 13.4659 101.48 13.4408 101.423 13.3945L97.1588 9.84373C97.0036 9.71305 97.003 9.47433 97.1574 9.34282L98.8701 7.85071Z" fill="white"/>
</svg>
