<svg xmlns="http://www.w3.org/2000/svg" width="134" height="48" viewBox="0 0 126.4 28.4"><defs><style>.cls-1{fill:#fff;}</style></defs><title>openbank-logo</title><g id="Layer_2" data-name="Layer 2"><g id="Layer_1-2" data-name="Layer 1"><path class="cls-1" d="M126.3,3.5h-12a2.54,2.54,0,0,0-2.6,2.4,3.19,3.19,0,0,1-3.3,2.9,3.35,3.35,0,0,1-3.3-3.4A3.35,3.35,0,0,1,108.4,2a3.08,3.08,0,0,1,2.8,1.6c.1.1.2.1.2,0a4.12,4.12,0,0,1,1.3-1c.1,0,.1-.1.1-.2A5.35,5.35,0,0,0,108.4,0a5.25,5.25,0,0,0-5.2,5.3,5.32,5.32,0,0,0,5.2,5.3,5.21,5.21,0,0,0,5.2-4.7c0-.4.3-.6.8-.6h10.2V6.7c0,.8-.3,1.9-1.2,1.9s-1.2-1.1-1.2-1.9V6.3a.1.1,0,0,0-.1-.1h-1.7a.1.1,0,0,0-.1.1v.4c0,.8-.3,1.9-1.2,1.9s-1.2-1.1-1.2-1.9V6.3a.1.1,0,0,0-.1-.1h-1.7a.1.1,0,0,0-.1.1v.4c0,1.9,1.1,3.9,3.1,3.9a2.66,2.66,0,0,0,2.1-1,2.81,2.81,0,0,0,2.1,1c2.1,0,3.1-1.9,3.1-3.9l-.1-3.2C126.4,3.6,126.4,3.5,126.3,3.5Z"/><path class="cls-1" d="M35.7,5.2c-3.2,0-5.4,2.4-5.4,5.8s2.3,5.8,5.6,5.8a6.54,6.54,0,0,0,4.4-1.5c.1,0,.1-.1,0-.2l-1-1.5c0-.1-.1-.1-.2,0A5.1,5.1,0,0,1,36,14.7a3.39,3.39,0,0,1-3.4-3.5c0-1.9.9-3.8,3.1-3.8,1.5,0,2.5,1,2.8,2.7H34c-.1,0-.1,0-.1.1a4.3,4.3,0,0,0,0,1.6.1.1,0,0,0,.1.1h6.8a.1.1,0,0,0,.1-.1V11C40.9,7.6,38.7,5.2,35.7,5.2Zm-11.8,0a4,4,0,0,0-3.4,1.6V5.7a.1.1,0,0,0-.1-.1H18.3a.1.1,0,0,0-.1.1V21.3a.1.1,0,0,0,.1.1h2.1a.1.1,0,0,0,.1-.1V10.4a3,3,0,0,1,3.1-2.9A3.31,3.31,0,0,1,26.9,11a3.25,3.25,0,0,1-3.3,3.5,3.08,3.08,0,0,1-1.9-.6c-.1-.1-.2,0-.2.1v2c0,.1.1.2.1.3a3.93,3.93,0,0,0,2.3.5c3.1,0,5.4-2.4,5.4-5.8S27,5.2,23.9,5.2ZM48,5.2a4,4,0,0,0-3.3,1.6V5.7a.1.1,0,0,0-.1-.1H42.5a.1.1,0,0,0-.1.1V16.5a.1.1,0,0,0,.1.1h2.1a.1.1,0,0,0,.1-.1v-6a2.7,2.7,0,0,1,2.8-2.9c1.6,0,2.5,1.1,2.5,2.9v6a.1.1,0,0,0,.1.1h2.1a.1.1,0,0,0,.1-.1V9.7A4.15,4.15,0,0,0,48,5.2ZM9.1.2a.35.35,0,0,0-.2.1V2.6a.1.1,0,0,0,.1.1,5.61,5.61,0,0,1,5,5.8,5.54,5.54,0,0,1-5.7,5.8A5.54,5.54,0,0,1,2.6,8.5a5.54,5.54,0,0,1,5-5.8.1.1,0,0,0,.1-.1V.3c.1,0,0-.1-.1-.1A8,8,0,0,0,0,8.5a8,8,0,0,0,8.3,8.4,8,8,0,0,0,8.3-8.4A7.87,7.87,0,0,0,9.1.2Zm92,16.1-4.5-5.6L101,5.8c.1-.1,0-.2-.1-.2H98.3c-.1,0-.2,0-.2.1L94.6,9.8h-1V.7a.1.1,0,0,0-.1-.1H91.4a.1.1,0,0,0-.1.1V16.5a.1.1,0,0,0,.1.1h2.1a.1.1,0,0,0,.1-.1V12h1l3.6,4.6c.1.1.1.1.2.1H101C101.1,16.6,101.2,16.4,101.1,16.3ZM85.1,5.2a4,4,0,0,0-3.3,1.6V5.7a.1.1,0,0,0-.1-.1H79.6a.1.1,0,0,0-.1.1V16.5a.1.1,0,0,0,.1.1h2.1a.1.1,0,0,0,.1-.1v-6a2.7,2.7,0,0,1,2.8-2.9c1.6,0,2.5,1.1,2.5,2.9v6a.1.1,0,0,0,.1.1h2.1a.1.1,0,0,0,.1-.1V9.7A4.2,4.2,0,0,0,85.1,5.2Zm-7.6.4H75.4a.1.1,0,0,0-.1.1V6.8a4,4,0,0,0-3.4-1.6c-3.1,0-5.4,2.4-5.4,5.8a5.48,5.48,0,0,0,5.4,5.8,5.21,5.21,0,0,0,2.3-.5c.1-.1.1-.1.1-.3V14.1c0-.1-.1-.2-.2-.1a2.88,2.88,0,0,1-1.9.6,3.31,3.31,0,0,1-3.3-3.5,3.25,3.25,0,0,1,3.3-3.5,3,3,0,0,1,3.1,2.9v6a.1.1,0,0,0,.1.1h2.1a.1.1,0,0,0,.1-.1L77.5,5.6ZM60,5.2a5.21,5.21,0,0,0-2.3.5c-.1.1-.1.1-.1.3V7.9c0,.2.1.2.2.2a2.88,2.88,0,0,1,1.9-.6A3.31,3.31,0,0,1,63,11a3.25,3.25,0,0,1-3.3,3.5,3,3,0,0,1-3.1-2.9V.6a.1.1,0,0,0-.1-.1H54.4a.1.1,0,0,0-.1.1V16.4a.1.1,0,0,0,.1.1h2.1a.1.1,0,0,0,.1-.1V15.3A4,4,0,0,0,60,16.9c3.1,0,5.4-2.4,5.4-5.8A5.51,5.51,0,0,0,60,5.2ZM118.1,23a1.25,1.25,0,0,0-1.1.6v-.5h-.6v3.7h.6v-2a1,1,0,0,1,1-1.1,1.42,1.42,0,0,1,.6.2l.2-.5A.67.67,0,0,0,118.1,23Zm-4.4.6a1,1,0,0,1,1.1,1.1h-2.4A1.48,1.48,0,0,1,113.7,23.6Zm.1-.6a1.76,1.76,0,0,0-1.8,1.9,1.82,1.82,0,0,0,1.8,1.9,2.4,2.4,0,0,0,1.5-.6l-.4-.4a1.5,1.5,0,0,1-1.1.4,1.23,1.23,0,0,1-1.3-1.2h3v-.2A1.85,1.85,0,0,0,113.8,23Zm-4.8.6a1.4,1.4,0,1,1-1.3,1.4A1.35,1.35,0,0,1,109,23.6Zm0-.6a1.76,1.76,0,0,0-1.8,1.9,1.82,1.82,0,0,0,1.8,1.9,1.78,1.78,0,0,0,1.3-.6v.5h.6V21h-.6v2.5A2.23,2.23,0,0,0,109,23Zm-4.4,0a1.43,1.43,0,0,0-1.2.6v-.5h-.6v3.7h.6V24.7a1,1,0,0,1,1.1-1.1,1,1,0,0,1,1.1,1.1v2.1h.6V24.5A1.56,1.56,0,0,0,104.6,23Zm-5.1.6A1.4,1.4,0,1,1,98.2,25,1.29,1.29,0,0,1,99.5,23.6Zm1.9,3.2V23.1h-.6v.5a1.49,1.49,0,0,0-1.3-.6,1.9,1.9,0,0,0,0,3.8,1.61,1.61,0,0,0,1.3-.6v.5h.6Zm-4.5-3.2v-.5H95.3V22h-.6v1.1h-.8v.5h.8v1.9c0,1,.4,1.3,1.2,1.3a2.1,2.1,0,0,0,1.1-.4l-.3-.4a1.14,1.14,0,0,1-.8.3.71.71,0,0,1-.7-.8V23.6ZM91.6,23a1.43,1.43,0,0,0-1.2.6v-.5h-.6v3.7h.6V24.7a1,1,0,0,1,1.1-1.1c.7,0,1,.4,1,1.1v2.1h.6V24.5C93.2,23.6,92.6,23,91.6,23Zm-4.9.6A1.4,1.4,0,1,1,85.4,25,1.29,1.29,0,0,1,86.7,23.6Zm1.8,3.2V23.1h-.6v.5a1.49,1.49,0,0,0-1.3-.6,1.76,1.76,0,0,0-1.8,1.9,1.82,1.82,0,0,0,1.8,1.9,1.78,1.78,0,0,0,1.3-.6v.5h.6Zm-5.1-4.4.4-.5a2.88,2.88,0,0,0-1.9-.6c-1.1,0-2,.6-2,1.6s.7,1.3,1.6,1.4l.5.1c.9.1,1.3.4,1.3.9s-.7,1-1.5,1a3.22,3.22,0,0,1-1.8-.6l-.4.6a3.52,3.52,0,0,0,2.1.7c1.1,0,2.1-.5,2.1-1.7,0-1-.8-1.3-1.7-1.4l-.5-.1c-.9-.1-1.2-.4-1.2-.9s.6-1,1.4-1A2.54,2.54,0,0,1,83.4,22.4Zm-8.6,1.2A1.29,1.29,0,0,1,76.1,25a1.35,1.35,0,0,1-1.3,1.4A1.29,1.29,0,0,1,73.5,25,1.24,1.24,0,0,1,74.8,23.6Zm0-.6a1.9,1.9,0,1,0,1.9,1.9A2,2,0,0,0,74.8,23Zm-4.7.6A1.4,1.4,0,1,1,68.8,25,1.29,1.29,0,0,1,70.1,23.6Zm.1-.6a1.78,1.78,0,0,0-1.3.6v-.5h-.6v5.3h.6V26.3a1.49,1.49,0,0,0,1.3.6A1.82,1.82,0,0,0,72,25,1.84,1.84,0,0,0,70.2,23ZM67,25.3V23.1h-.5v2.1c0,.8-.4,1.1-1,1.1a1,1,0,0,1-1-1.1V23.1h-.6v2.1a1.55,1.55,0,0,0,1.7,1.6C66.2,26.9,67,26.4,67,25.3ZM62.2,23a1,1,0,0,0-1,.6v-.5h-.6v3.7h.6v-2a1,1,0,0,1,1-1.1,1.42,1.42,0,0,1,.6.2l.2-.5A1.2,1.2,0,0,0,62.2,23Zm-5.4-1.7A2.68,2.68,0,0,0,54,24.1a2.67,2.67,0,0,0,2.8,2.8,2.52,2.52,0,0,0,2.6-2.8v-.2H57v.6h1.7a1.81,1.81,0,0,1-1.9,1.8,2.08,2.08,0,0,1-2.1-2.2,2.14,2.14,0,0,1,2.1-2.2,2.29,2.29,0,0,1,1.7.8l.4-.4A2.39,2.39,0,0,0,56.8,21.3Z"/></g></g></svg>