<?xml version="1.0" encoding="utf-8"?>
<!-- Generator: Adobe Illustrator 25.2.3, SVG Export Plug-In . SVG Version: 6.00 Build 0)  -->
<svg version="1.1" id="Layer_1" xmlns="http://www.w3.org/2000/svg" xmlns:xlink="http://www.w3.org/1999/xlink" x="0px" y="0px"
	 viewBox="0 0 300 130.5" style="enable-background:new 0 0 300 130.5;" xml:space="preserve">
<style type="text/css">
	.st0{fill:#FFFFFF;}
</style>
<g>
	<path class="st0" d="M63.5,129.8c-4.7-1.8-9.1-6.5-10.4-11.1c-1.5-5.4-0.1-12.4,3.4-16.6c5.1-6.2,16.3-6.8,22.2-1.1
		c2.5,2.4,4.4,6.7,4.8,10.7l0.3,3.5H58.7l0.4,1.3c1,3.2,2.3,5.2,4.4,6.5c1.9,1.3,2.9,1.5,6.1,1.5c3.4,0,4.1-0.2,6.4-1.9l2.6-1.9
		l1.9,1.5c1.1,0.8,1.9,1.8,1.9,2.2c0,1-2.1,2.8-5.1,4.3C74.4,130.3,66.4,130.9,63.5,129.8L63.5,129.8L63.5,129.8z M76.8,109.2
		c0-1.1-2.4-4.2-4.1-5.2c-2.1-1.2-6-1.5-7.9-0.5c-1.8,0.9-3.8,2.8-4.7,4.6l-0.8,1.6H68C72.9,109.6,76.8,109.4,76.8,109.2z
		 M113.2,129.5c-2.3-1.2-4.2-3-5.3-5c-0.7-1.3-1-3.8-1.1-11.4l-0.2-9.7h-4.4v-5.6h4.5v-9h6.8v9h10.2v5.6h-10.2v9.1
		c0,8.9,0,9.1,1.4,10.4c1.1,1.1,1.9,1.4,4.4,1.4h3.1l0.6,2.6c0.4,1.4,0.5,2.8,0.3,3.1C122.8,130.8,115.1,130.5,113.2,129.5z
		 M191.2,129.8c-6.5-2.4-10.9-9-11-16.3c0-5.8,3.9-12.3,9.1-14.9c4.2-2.1,10.4-2.1,14.3-0.1c3.2,1.7,3.2,1.7,3.2,0.3
		c0-1,0.4-1.1,3.1-1.1h3.1v32.2h-3.1c-2.7,0-3.1-0.1-3.1-1.1c0-1.4,0-1.4-2.9,0.1C201,130.4,194,130.9,191.2,129.8z M202,123.2
		c3.9-2,4.1-2.5,3.9-9.7l-0.2-6.4l-2.1-1.7c-1.6-1.3-2.8-1.8-5.2-2c-1.7-0.1-3.7-0.1-4.5,0.1c-2,0.5-5.4,3.6-6.3,5.8
		c-1.6,3.8-0.5,9.6,2.4,12.1C193.4,124.4,198.3,125.1,202,123.2z M230.1,129.7c-2.3-1-5.2-4.4-5.9-7c-0.3-1.2-0.6-6-0.6-10.7l0-8.6
		h-4.5v-5.6h4.5v-9h6.8v9h10.2v5.6h-10.2v9.1c0,8.9,0,9.1,1.4,10.4c1.1,1.1,1.9,1.4,4.5,1.4c3.4,0,3.6,0.2,3.9,4.2l0.1,1.7l-4.2,0.1
		C233.5,130.4,231.1,130.2,230.1,129.7z M255.8,129.9c-4.5-1.4-8-4.5-10.1-9.1c-2.8-6.1-1.6-14.4,2.9-19.1c4.1-4.3,12.3-6,17.6-3.5
		c4.8,2.2,8.5,7.8,9.1,13.9l0.3,3.1h-25.1l0.4,1.8c0.8,4.2,5.6,7.8,10.2,7.8c2.5,0,6.3-1.5,7.6-3c1.1-1.4,1.9-1.2,3.9,0.9l1.8,1.9
		l-1.9,1.8c-2.7,2.6-6.9,4.1-11.5,4C258.9,130.4,256.6,130.2,255.8,129.9L255.8,129.9L255.8,129.9z M268.2,108.8
		c0-1.2-2.7-4.2-4.6-5.1c-3.6-1.9-8.7-0.4-11.1,3.1c-0.7,1-1.3,2.1-1.3,2.3c0,0.3,3.8,0.5,8.5,0.5
		C266.7,109.6,268.2,109.4,268.2,108.8z M0,105.9v-24h5l8.6,13.7c4.7,7.5,9.9,14.4,9.9,14.4s1.9-2.2,9.1-13.6l9-14.3l2.7-0.2
		l2.7-0.2V130l-3.5-0.2l-3.5-0.2l-0.3-15.5l-0.3-15.5l-6.7,10.6l-6.7,10.6H21l-7-10.9L7.1,98l-0.2,16l-0.2,16H0V105.9L0,105.9z
		 M89.9,105.5l0.1-24.4h6.2l0.1,24.4l0.1,24.4h-6.8L89.9,105.5z M133.7,114.8c-3.3-8.3-6.2-15.6-6.4-16.1c-0.3-0.9,0-1,3-1h3.4
		l4.2,10.5c2.3,5.8,4.3,10.6,4.5,10.7c0.2,0.1,2.2-4.6,4.5-10.5l4.2-10.7l2.5,0.2L156,98l4.2,10.4c2.3,5.7,4.3,10.5,4.4,10.6
		c0.1,0.1,2.1-4.6,4.4-10.4l4.2-10.6l3.4-0.2c1.9-0.1,3.4-0.1,3.4,0s-2.9,7.3-6.4,16l-6.4,15.8h-4.9l-4.1-10.1
		c-2.2-5.6-4.3-10.5-4.5-10.9c-0.3-0.5-1.9,2.7-4.8,10.1l-4.3,10.9l-2.5,0.2l-2.5,0.2L133.7,114.8z M281.2,113.8V97.7h3.1
		c2.9,0,3.1,0.1,3.1,1.4c0,1.4,0.8,1.9,1.4,0.8c0.9-1.4,4.9-2.8,8-2.8h3.2l-0.4,1.8c-0.2,1-0.4,2.4-0.4,3.1c0,1.2-0.2,1.3-2.6,1.3
		c-3,0-4.3,0.6-6.9,3l-1.8,1.7v21.8h-6.8V113.8L281.2,113.8z M93.2,65.7c-8.8-7-18.8-17.8-25.1-27.5c-2.1-3.2-2.1-3.3-1.3-5.1
		c3-6.3,17.6-22.7,26.8-29.9l4-3.2l12.5,0.2l12.5,0.2l-4.4,2.9c-6.8,4.6-13.4,10.1-19.9,16.5c-7.3,7.3-12.4,13.4-12.4,14.9
		c0,1.6,5,7.5,13.1,15.4c7.4,7.2,12.9,11.8,19.6,16.3c2.2,1.5,4.1,2.8,4.1,2.9c0,0.1-5.5,0.2-12.3,0.2H97.9L93.2,65.7z M144.3,68.9
		c-7.8-1.4-13.1-4.3-19-10.2c-12.4-12.5-13.4-31.2-2.6-45.4c4.5-5.9,10.8-10,18.9-12.2c8.3-2.3,18.4-0.8,26.1,3.9
		c7.1,4.3,12.3,10.7,15.2,18.9c1.3,3.5,1.5,5.1,1.5,10.6c0,5.6-0.2,7.1-1.5,11c-2.7,7.9-8.6,15.2-15.2,19.1
		C161.3,68.2,151.1,70.1,144.3,68.9z M157.6,47.2c7.4-5.2,9.1-13.9,4.2-21c-3.3-4.7-10-7.3-15.3-5.9c-11,3-15,16-7.4,24.2
		C144.4,49.5,152.5,50.7,157.6,47.2L157.6,47.2z M177.3,69.2c0-0.1,2.3-1.8,5.1-3.7c7.1-4.8,13.9-10.6,21.2-18.1
		c7.7-7.9,10.4-11.3,10.4-12.8c0-2.4-14.5-17.6-23.7-25c-3-2.4-7.1-5.4-9.3-6.8l-3.9-2.5l12.6-0.2L202.2,0l4.3,3.5
		c9.8,8,18.1,16.9,24.2,26.2c3.6,5.5,3.7,4.9-1.3,11.8c-6.8,9.5-15.2,18.2-24.2,25.3l-3.4,2.7l-12.3,0
		C182.8,69.5,177.3,69.4,177.3,69.2L177.3,69.2z"/>
</g>
</svg>
