<svg width="109" height="14" viewBox="0 0 109 14" fill="none" xmlns="http://www.w3.org/2000/svg">
<path fill-rule="evenodd" clip-rule="evenodd" d="M3.83603 11.1606C4.1119 11.3545 4.43529 11.498 4.80711 11.5921C5.17862 11.6853 5.563 11.732 5.96057 11.732C6.23001 11.732 6.51815 11.7104 6.82559 11.6668C7.12552 11.6255 7.41728 11.54 7.69092 11.4134C7.95295 11.2944 8.18322 11.118 8.36375 10.898C8.54338 10.6798 8.63319 10.4013 8.63319 10.0639C8.63319 9.70208 8.51426 9.40804 8.27762 9.18333C8.04006 8.95861 7.72955 8.77125 7.34485 8.62125C6.96047 8.47124 6.52458 8.34006 6.03751 8.2274C5.55013 8.11534 5.05723 7.99044 4.55729 7.85268C4.04835 7.72902 3.5475 7.57564 3.05744 7.3934C2.57037 7.21231 2.13479 6.97834 1.75041 6.69057C1.36378 6.40099 1.04574 6.03357 0.817949 5.61333C0.58039 5.18183 0.462377 4.66009 0.462377 4.04811C0.462377 3.36112 0.612882 2.76408 0.913893 2.25788C1.2096 1.75791 1.61308 1.32645 2.09648 0.993277C2.58324 0.655909 3.13438 0.406096 3.74958 0.243837C4.35104 0.0829726 4.97181 0.000971715 5.5955 0C6.31339 0 7.00215 0.0779919 7.66211 0.233976C8.32207 0.390258 8.90845 0.643658 9.42127 0.993277C9.93081 1.33994 10.3491 1.79904 10.6422 2.33318C10.9432 2.87674 11.0937 3.53623 11.0937 4.31047H8.17156C8.14581 3.91095 8.05937 3.57926 7.91193 3.3172C7.76449 3.05453 7.56892 2.84865 7.32554 2.69864C7.08185 2.54863 6.80322 2.44285 6.48933 2.3798C6.15048 2.31535 5.80586 2.28412 5.46062 2.28657C5.21724 2.28657 4.97355 2.31167 4.73047 2.36127C4.49461 2.40841 4.26966 2.49745 4.06684 2.62394C3.87179 2.74517 3.70485 2.90475 3.5767 3.09248C3.44857 3.27984 3.38451 3.51741 3.38451 3.80457C3.38451 4.06664 3.4357 4.2791 3.53839 4.44195C3.64077 4.60421 3.84246 4.75422 4.14378 4.89138C4.44479 5.02913 4.86136 5.16629 5.3938 5.30405C6.08804 5.4826 6.78325 5.65751 7.47942 5.82878C7.73568 5.87868 8.09125 5.96922 8.54675 6.1007C9.00133 6.23129 9.45315 6.44076 9.90191 6.72792C10.3504 7.01569 10.7381 7.39967 11.0649 7.88077C11.3919 8.36217 11.5553 8.97744 11.5553 9.72658C11.5553 10.3395 11.4333 10.9075 11.1902 11.4325C10.9466 11.9573 10.5842 12.4103 10.1039 12.7913C9.62297 13.1726 9.02708 13.469 8.31593 13.6815C7.60448 13.8939 6.78084 14 5.84532 14C5.08881 14 4.35528 13.9089 3.64414 13.7281C2.93269 13.5473 2.30461 13.2628 1.75991 12.8755C1.21521 12.4886 0.782392 11.9946 0.462377 11.3946C0.141748 10.7955 -0.0121287 10.0828 0.000745472 9.25863H2.92318C2.92318 9.70805 3.00625 10.0896 3.173 10.4013C3.33945 10.7142 3.56046 10.967 3.83603 11.1606ZM15.3983 8.70521C15.5331 9.23711 15.7474 9.71433 16.0426 10.1393C16.3372 10.5642 16.7219 10.9045 17.1957 11.1606C17.6699 11.417 18.2468 11.5446 18.9264 11.5446C19.6054 11.5446 20.1823 11.417 20.6565 11.1606C21.1303 10.9045 21.515 10.5642 21.8099 10.1393C22.1048 9.71433 22.3194 9.23711 22.4542 8.70521C22.5885 8.17481 22.6559 7.62797 22.6559 7.06529C22.6559 6.47811 22.5885 5.90976 22.4542 5.35993C22.3194 4.8101 22.1048 4.32004 21.8099 3.88854C21.5164 3.45924 21.1207 3.10561 20.6565 2.85791C20.1823 2.60242 19.6054 2.47393 18.9264 2.47393C18.2468 2.47393 17.6699 2.60242 17.1957 2.85791C16.7316 3.10554 16.3359 3.45918 16.0426 3.88854C15.7474 4.32004 15.5331 4.8101 15.3983 5.35993C15.2628 5.91873 15.1951 6.4911 15.1966 7.06529C15.1966 7.62797 15.264 8.17481 15.3983 8.70521ZM12.6395 4.28268C12.9473 3.42627 13.389 2.67981 13.9659 2.04273C14.5427 1.40535 15.2511 0.905722 16.0904 0.543254C16.9297 0.181384 17.875 0 18.9264 0C19.9901 0 20.9382 0.181384 21.7716 0.543254C22.6047 0.905722 23.3098 1.40535 23.8866 2.04273C24.4629 2.67981 24.9055 3.42627 25.213 4.28268C25.5207 5.1382 25.6743 6.06604 25.6743 7.06529C25.6743 8.04004 25.5207 8.94935 25.213 9.79262C24.9055 10.6359 24.4629 11.3701 23.8866 11.9946C23.3098 12.6198 22.6047 13.1101 21.7716 13.466C20.9382 13.8222 19.9901 14 18.9264 14C17.875 14 16.9297 13.8222 16.0904 13.466C15.2511 13.1101 14.5427 12.6198 13.9659 11.9946C13.389 11.3701 12.9473 10.6359 12.6395 9.79262C12.3318 8.94935 12.1779 8.04004 12.1779 7.06529C12.1779 6.06604 12.3318 5.1382 12.6395 4.28268ZM36.8638 12.6786C35.8256 13.5595 34.3898 14 32.5571 14C30.6983 14 29.2601 13.5628 28.2412 12.6882C27.222 11.8138 26.7125 10.4644 26.7125 8.64007V0.318542H29.7309V8.64007C29.7309 9.00254 29.7628 9.35843 29.8272 9.70805C29.8912 10.0583 30.0255 10.3675 30.2309 10.6359C30.4356 10.9045 30.7213 11.1233 31.0864 11.2921C31.4514 11.4606 31.9419 11.5446 32.5571 11.5446C33.6336 11.5446 34.3766 11.3106 34.7874 10.8421C35.1972 10.3732 35.4026 9.63962 35.4026 8.64007V0.318542H38.421V8.64007C38.421 10.4515 37.9017 11.798 36.8638 12.6786ZM42.8773 0.318542V11.2261H49.5676V13.7H39.8589V0.318542H42.8773ZM58.9072 3.88854C58.7267 3.60705 58.4992 3.35698 58.234 3.14866C57.9604 2.93413 57.6516 2.76622 57.3206 2.65202C56.9782 2.53286 56.6171 2.4726 56.2536 2.47393C55.5743 2.47393 54.9977 2.60242 54.5232 2.85791C54.0589 3.10553 53.6631 3.45917 53.3697 3.88854C53.0746 4.32004 52.8606 4.8101 52.7257 5.35993C52.5904 5.91876 52.5227 6.49111 52.524 7.06529C52.524 7.62797 52.5918 8.17481 52.7257 8.70521C52.8606 9.23711 53.0746 9.71433 53.3697 10.1393C53.6643 10.5642 54.0493 10.9045 54.5232 11.1606C54.9977 11.417 55.5743 11.5446 56.2536 11.5446C57.1768 11.5446 57.8978 11.2703 58.4167 10.7202C58.9357 10.1709 59.2532 9.44599 59.3682 8.54594H62.2903C62.2137 9.38353 62.0148 10.1393 61.6944 10.814C61.3738 11.4887 60.9511 12.0637 60.4254 12.5382C59.8997 13.013 59.2848 13.3755 58.5801 13.6253C57.8748 13.8751 57.0996 14 56.2536 14C55.2025 14 54.2574 13.8222 53.4182 13.466C52.5786 13.1101 51.8702 12.6198 51.2936 11.9946C50.717 11.3701 50.2747 10.6359 49.967 9.79262C49.6592 8.94935 49.5053 8.04004 49.5053 7.06529C49.5053 6.06604 49.6592 5.1382 49.967 4.28268C50.2747 3.42627 50.717 2.67981 51.2936 2.04273C51.8702 1.40535 52.5786 0.905722 53.4182 0.543254C54.2574 0.181384 55.2025 0 56.2536 0C57.0098 0 57.7246 0.106081 58.3977 0.318542C59.0699 0.531003 59.6729 0.840281 60.2044 1.24608C60.7359 1.65217 61.1755 2.15539 61.5215 2.75452C61.8676 3.35455 62.0856 4.04213 62.1748 4.81667H59.2532C59.2049 4.48731 59.0871 4.17128 58.9072 3.88854ZM61.7101 0.318542H65.0932L68.3041 5.60406L71.4951 0.318542H74.8598L69.7653 8.56477V13.7H66.7469V8.49006L61.7101 0.318542ZM83.0726 3.88854C82.8923 3.60692 82.6648 3.35682 82.3995 3.14866C82.126 2.93401 81.8171 2.76609 81.486 2.65202C81.1439 2.53281 80.783 2.47255 80.4196 2.47393C79.7398 2.47393 79.1632 2.60242 78.689 2.85791C78.2247 3.10546 77.829 3.45912 77.5358 3.88854C77.2406 4.32004 77.0264 4.8101 76.8918 5.35993C76.756 5.91867 76.6881 6.49107 76.6898 7.06529C76.6898 7.62797 76.7569 8.17481 76.8918 8.70521C77.0264 9.23711 77.2406 9.71433 77.5358 10.1393C77.8304 10.5642 78.2148 10.9045 78.689 11.1606C79.1632 11.417 79.7398 11.5446 80.4196 11.5446C81.3423 11.5446 82.0632 11.2703 82.5828 10.7202C83.1011 10.1709 83.4184 9.44599 83.534 8.54594H86.4564C86.3791 9.38353 86.1802 10.1393 85.8605 10.814C85.5396 11.4887 85.1166 12.0637 84.5915 12.5382C84.0658 13.013 83.4503 13.3755 82.7456 13.6253C82.0402 13.8751 81.265 14 80.4196 14C79.3679 14 78.4232 13.8222 77.5836 13.466C76.7437 13.1101 76.036 12.6198 75.4591 11.9946C74.8825 11.3701 74.4405 10.6359 74.133 9.79262C73.8253 8.94935 73.6714 8.04004 73.6714 7.06529C73.6714 6.06604 73.8253 5.1382 74.133 4.28268C74.4405 3.42627 74.8825 2.67981 75.4591 2.04273C76.036 1.40535 76.7437 0.905722 77.5836 0.543254C78.4232 0.181384 79.3679 0 80.4196 0C81.1758 0 81.89 0.106081 82.5629 0.318542C83.236 0.531003 83.8383 0.840281 84.3705 1.24608C84.902 1.65217 85.3416 2.15539 85.6876 2.75452C86.0331 3.35455 86.2516 4.04213 86.3408 4.81667H83.4184C83.3703 4.48729 83.2526 4.17124 83.0726 3.88854ZM90.7668 0.318542V11.2261H97.4571V13.7H87.7481V0.318542H90.7668ZM108.846 0.318542V2.79247H101.598V5.65994H108.25V7.94651H101.598V11.2261H109V13.7H98.5796V0.318542H108.846Z" fill="white"/>
</svg>
