<svg width="63" height="62" viewBox="0 0 63 62" fill="none" xmlns="http://www.w3.org/2000/svg">
<g clip-path="url(#clip0)">
<path d="M0.882812 0H62.8828V62H0.882812V0Z" fill="white"/>
<path d="M54.7859 28.0615C54.7859 27.1749 54.2341 26.5115 53.7877 25.8419C53.3413 25.3955 53.0127 24.9553 53.0127 24.3973C53.0127 23.7339 53.4591 23.2875 54.0109 23.2875C54.3457 23.2875 54.5627 23.3991 54.7859 23.5107C55.0091 23.6223 55.3377 23.7339 55.5609 23.7339C56.0073 23.7339 56.3359 23.2875 56.3359 22.9589C56.3359 22.5125 55.8895 22.0723 55.1145 22.0723C53.3413 22.0723 51.7851 24.0687 51.7851 25.6187C51.7851 26.5053 52.3369 27.1687 52.7833 27.7267C53.1181 28.1731 53.4467 28.6133 53.4467 29.0597C53.4467 29.723 52.7833 30.1694 52.2253 30.1694C51.5619 30.1694 51.2271 29.8346 50.7807 29.506C50.5575 29.2828 50.3343 29.0597 50.1173 29.0597C49.7825 29.0597 49.6709 29.723 49.6709 30.0578C49.6709 30.5042 50.4459 31.1676 51.4441 31.1676C53.0127 30.9444 54.7859 29.6114 54.7859 28.0615Z" fill="black"/>
<path d="M16.9635 17.1924C16.8519 17.1924 16.8519 17.1924 16.9635 17.1924L16.8519 17.6388V17.7504H17.4037C17.8501 17.862 17.9555 17.862 17.9555 18.0852C17.9555 18.42 17.5091 19.5298 16.9573 21.0798L16.5109 22.5244C16.0645 23.7458 15.4011 25.519 14.8493 26.9636C14.1859 28.7368 13.6279 30.1814 13.6279 30.4046C13.6279 30.6278 13.7395 30.7394 14.2913 30.7394C14.8431 30.7394 15.0663 30.6278 15.1779 30.4046C16.1761 27.1868 18.8359 23.5288 20.1689 23.5288C20.6153 23.5288 20.7207 23.6404 20.7207 24.0806C20.7207 24.744 20.1689 26.077 19.4993 27.41C18.9475 28.5198 18.5011 29.6296 18.5011 30.1814C18.5011 30.6278 18.7243 30.8448 19.1645 30.8448C20.4975 30.8448 21.6073 29.6234 22.3823 28.6252L22.4939 28.5136L22.1591 28.1788H22.0475C21.6011 28.6252 20.8261 29.4002 20.6029 29.4002H20.4913V29.177C20.4913 29.0654 20.6029 28.7306 20.8261 28.2904C21.3779 27.069 22.2707 24.961 22.2707 23.7458C22.2707 22.7476 21.8243 22.1958 20.9377 22.1958C19.2761 22.1958 17.9431 24.0806 17.2797 25.0788C17.1681 25.302 16.9449 25.5252 16.9449 25.5252C16.9449 25.5252 17.0565 25.302 17.1681 24.8618C17.3913 24.4154 17.6145 23.752 17.9431 22.8654C19.1645 19.536 19.7163 17.8744 19.7163 17.6512C19.7163 17.428 19.4931 17.428 19.3815 17.428H16.9387L16.9635 17.1924Z" fill="black"/>
<path d="M13.1957 28.9473C13.3073 28.8357 13.3073 28.8357 13.1957 28.9473C13.1957 28.8357 12.8609 28.6125 12.8609 28.6125C12.3091 29.0589 11.3109 29.9455 10.4181 29.9455C10.0833 29.9455 9.75474 29.8339 9.53154 29.6107C9.19674 29.3875 9.08514 28.9473 9.08514 28.3893C8.97354 27.0563 10.1949 24.9483 11.3047 23.7331C11.9681 23.0697 12.5261 22.7349 12.8547 22.7349C13.3011 22.7349 13.6297 23.0697 13.9645 23.3983C14.1877 23.7331 14.4109 23.9501 14.7395 23.9501C14.8511 23.9501 15.0743 23.8385 15.0743 23.7269C15.1859 23.6153 15.2975 23.3921 15.2975 23.2805C15.2975 22.7287 14.7457 21.9475 13.5243 21.8359C12.1913 21.8359 10.4181 22.6109 9.08514 23.9439C7.86374 25.1653 7.20034 26.7153 7.31194 28.1599C7.31194 29.3813 7.97534 30.7081 9.75474 30.7081C11.5279 30.9437 12.9725 29.3937 13.1957 28.9473Z" fill="black"/>
<path d="M35.5946 25.8412C35.5946 25.9528 35.483 26.0644 35.483 26.0644V25.9528C35.483 25.8412 35.5946 25.5064 35.7062 25.0662C35.9294 24.1796 36.1526 23.0698 36.1526 22.735C36.1526 22.2886 35.9294 22.0716 35.4892 22.0716C34.6026 22.0716 33.158 23.6216 32.7178 24.4028L32.941 24.7376L33.0526 24.626L33.1642 24.5144C33.499 24.068 34.1624 23.293 34.4972 23.293C34.7204 23.293 34.832 23.5162 34.832 23.8448C34.832 24.6198 33.9454 27.0626 33.3874 28.7242C33.0526 29.6108 32.8356 30.2742 32.8356 30.3858C32.8356 30.609 32.9472 30.609 33.0588 30.609H33.8338C33.9454 30.609 34.057 30.4974 34.1686 30.2742C34.1686 30.2742 34.5034 29.3876 34.7204 28.9412C36.2704 25.835 37.0516 24.285 37.715 23.6154C38.1614 23.169 38.49 23.0636 38.7132 23.0636C38.9364 23.0636 38.9364 23.1752 39.048 23.2868C39.1596 23.3984 39.2712 23.6216 39.4944 23.6216C39.606 23.6216 39.8292 23.6216 39.9408 23.51C40.164 23.2868 40.2756 23.0636 40.2756 22.735C40.2756 22.1832 39.8292 21.96 39.5006 21.96C37.9258 22.0716 36.9276 23.0698 35.5946 25.8412Z" fill="black"/>
<path d="M30.8289 21.8486C30.7173 21.8486 30.6057 21.9602 30.6057 22.0718C30.4941 22.1834 30.4941 22.295 30.2709 22.295C30.1593 22.295 30.0477 22.295 29.8245 22.1834C29.6013 22.1834 29.3781 22.0718 29.0495 22.0718C25.1683 22.0718 23.1719 27.286 23.1719 29.0592C23.1719 30.2806 23.8353 30.8324 24.5049 30.8324C25.2799 30.8324 26.3897 30.6092 27.8343 28.3896L28.1691 27.8378V27.9494L28.0575 28.1726C27.8343 28.5074 27.5057 29.2824 27.5057 29.9458C27.5057 30.2806 27.6173 30.4976 27.7289 30.6092C27.8405 30.7208 28.0637 30.8324 28.2807 30.8324C29.6137 30.8324 30.7235 29.0592 31.1637 28.3896L30.8289 28.0548H30.7173L30.3825 28.3896C29.9361 28.836 29.4959 29.4994 29.1611 29.4994H29.0495V29.2762C29.0495 28.8298 29.9361 26.728 30.4941 25.0602C30.9405 23.8388 31.3807 22.729 31.3807 22.512C31.3807 22.512 31.3807 22.2888 31.2691 22.2888L30.7173 21.954C30.9405 21.8486 30.8289 21.8486 30.8289 21.8486ZM24.7281 28.7244C24.7281 26.1762 26.7245 22.7352 28.7209 22.7352C29.3843 22.7352 29.7191 23.07 29.7191 23.7334C29.7191 24.7316 27.0593 29.4994 25.2799 29.4994C24.9513 29.611 24.7281 29.4994 24.7281 28.7244Z" fill="black"/>
<path d="M43.2539 28.5016C43.2539 29.9462 44.1405 30.9444 45.4735 30.9444C47.0235 30.9444 48.6913 29.3944 49.1315 28.948V28.8364L48.9083 28.5016H48.7967L48.5735 28.6132C48.0217 29.0596 47.1289 29.723 46.3539 29.723C45.4673 29.723 44.9093 29.1712 44.9093 28.2784C44.9093 27.1686 45.4611 26.3936 45.7959 25.7302V25.6186H46.6825C48.1271 25.6186 50.7869 24.9552 50.7869 23.2874C50.7869 22.624 50.1235 21.8428 49.0137 21.8428C46.8003 22.0722 43.2539 25.4016 43.2539 28.5016ZM48.9083 22.624C49.3547 22.624 49.6833 22.9588 49.6833 23.399C49.6833 24.5088 48.4619 25.0606 46.3539 25.0606C46.6887 24.2918 47.9101 22.624 48.9083 22.624Z" fill="black"/>
<path d="M42.5856 28.6129C42.5856 28.6129 42.5856 28.5013 42.5856 28.6129C42.5856 28.5013 42.2508 28.1665 42.2508 28.1665L42.1392 28.2781C41.3642 29.0531 41.0294 29.6111 40.5892 29.6111H40.4776C40.4776 29.6111 40.366 29.4995 40.366 29.3879C40.366 28.9415 41.141 26.7281 42.6972 22.7353L43.807 19.8523C44.3588 18.4077 44.6936 17.6327 44.6936 17.5211V17.4095C44.6936 17.2979 44.582 17.2979 44.3588 17.2979H41.8106C41.8106 17.2979 41.699 17.2979 41.699 17.4095V17.9613H42.2508C42.5856 18.0729 42.8026 18.1845 42.8026 18.4077C42.8026 18.7425 41.141 22.8469 41.141 22.8469C40.2544 25.0665 38.6982 28.9477 38.6982 29.8343C38.6982 30.2807 38.8098 30.6093 38.9214 30.7209C39.1446 30.9441 39.3678 31.0557 39.6964 31.0557C40.6946 31.0557 41.8044 29.7227 42.4678 28.8361C42.474 28.8361 42.5856 28.6129 42.5856 28.6129Z" fill="black"/>
<path d="M7.42367 36.3812C7.42367 37.6026 8.42187 38.266 9.30847 38.7124L9.75487 38.9356C10.6415 39.382 11.0879 39.9338 11.0879 40.5972C11.0879 41.3722 10.5361 42.0418 9.75487 42.0418C8.53347 42.0418 7.87007 40.8204 7.53527 40.0454L7.08887 40.157C7.20047 40.932 7.42367 41.8186 7.42367 42.1534H7.64687L8.19867 42.3766C8.53347 42.4882 8.97367 42.5998 9.42007 42.5998C11.0817 42.5998 12.3031 41.6016 12.3031 40.0516C12.3031 38.607 11.1933 37.9436 10.4183 37.6088L10.0835 37.4972C9.08527 36.9454 8.63887 36.499 8.63887 35.8356C8.63887 35.1722 9.08527 34.5026 9.86027 34.5026C10.8585 34.5026 11.3049 35.2776 11.5219 36.0526L11.9683 35.941C11.8567 35.2776 11.7451 34.7196 11.7451 34.2794L11.4103 34.1678L11.1871 34.0562C10.8523 33.9446 10.4121 33.833 10.0773 33.833C8.53347 33.9384 7.42367 34.9366 7.42367 36.3812Z" fill="black"/>
<path d="M13.3076 38.3775C13.3076 40.4855 14.7522 42.4819 17.9638 42.4819C18.7388 42.4819 19.8486 42.2587 20.295 42.1471C20.5182 41.5953 20.8468 40.5971 20.9584 40.0391L20.512 39.9275C19.8486 41.2605 19.2906 41.9239 17.8522 41.9239C16.079 41.9239 14.8576 40.3739 14.8576 38.0427C14.8576 36.3811 15.6326 34.4963 17.8522 34.4963C19.1852 34.4963 19.8486 35.0481 20.1834 36.3811H20.6298L20.5182 35.8293L20.295 34.3847H20.0718C19.6254 34.2731 18.962 34.1615 18.0754 34.1615C15.304 33.9383 13.3076 35.7115 13.3076 38.3775Z" fill="black"/>
<path d="M30.2764 34.1621H26.73V34.6085C27.6166 34.7201 27.7282 34.7201 27.7282 36.1585V37.8201H23.9586V36.1585C23.9586 34.8255 24.0702 34.7139 24.9568 34.6085V34.1621H21.2988V34.6085C22.4086 34.7201 22.4086 34.8317 22.4086 36.1585V40.5977C22.4086 41.9307 22.297 42.0423 21.2988 42.1477V42.5941H24.9568V42.1477C24.0702 42.0361 23.847 42.0361 23.847 40.5977V38.4897H27.6166V40.5977C27.6166 41.9307 27.505 42.0423 26.5068 42.1477V42.5941H30.1648V42.1477C29.1666 42.0361 29.055 42.0361 29.055 40.5977V36.1585C29.055 34.8255 29.1666 34.7139 30.1648 34.6085C30.1648 34.6023 30.2764 34.1621 30.2764 34.1621Z" fill="black"/>
<path d="M42.8056 34.1621H39.9226V34.6085H40.369C40.5922 34.6085 40.7038 34.7201 40.8154 34.7201C40.8154 34.8317 40.927 34.8317 40.927 34.9433C40.927 35.0549 40.927 35.2781 40.8154 35.4951C40.8154 35.6067 40.152 38.3781 39.594 40.1513C39.4824 39.9281 37.3744 34.2737 37.3744 34.2737H36.8226C36.8226 34.2737 34.9378 40.1513 34.9378 40.2629C34.8262 40.0397 33.4932 35.3835 33.4932 35.3835C33.4932 35.1603 33.3816 35.0487 33.3816 34.9371V34.7139C33.4932 34.6023 33.6048 34.6023 33.828 34.6023H34.2744V34.2675H30.8271V34.7139C31.4905 34.8255 31.7138 34.8255 32.0486 35.9353L34.1566 42.5879H34.7084C34.7084 42.5879 36.5932 36.8219 36.7048 36.7103C36.8164 36.9335 38.8128 42.5879 38.8128 42.5879H39.3646C40.4744 38.7067 41.4726 36.0469 41.4726 35.9353C41.919 34.8255 42.0244 34.7139 42.8056 34.7139V34.1621Z" fill="black"/>
<path d="M45.0264 36.1578C45.0264 36.1578 45.913 38.8176 46.0246 38.8176H44.1398C44.0282 38.8176 45.0264 36.1578 45.0264 36.1578ZM46.5764 36.381L45.6898 34.0498L45.138 34.1614L42.5898 40.7024C42.1434 41.8122 42.038 41.9238 41.2568 41.9238V42.3702H44.1398V41.9238H43.805C43.5818 41.9238 43.3586 41.8122 43.3586 41.7006V41.4774C43.3586 41.3658 43.3586 41.2542 43.4702 41.031L43.5818 40.8078C43.6934 40.3614 43.9166 39.698 44.0282 39.4748H46.3594C46.5826 40.1382 46.9112 40.9194 47.0228 41.248C47.0228 41.3596 47.1344 41.4712 47.1344 41.5828V41.6944C47.1344 41.806 47.0228 41.806 46.7996 41.806L46.4648 41.9176V42.2524H49.7942V41.806C49.1308 41.6944 48.9076 41.6944 48.4612 40.5846L46.5764 36.381Z" fill="black"/>
<path d="M52.4542 35.2719C52.4542 34.9371 52.4542 34.7201 52.5658 34.7201H53.1176C53.4524 34.7201 54.6676 34.8317 54.6676 36.2701C54.6676 37.2683 54.0042 37.8201 52.8944 37.8201H52.448C52.4542 37.8201 52.4542 35.2719 52.4542 35.2719ZM50.1292 34.1621V34.6085C51.0158 34.7201 51.1274 34.7201 51.1274 36.1585V40.5977C51.1274 41.9307 51.0158 42.0423 50.0176 42.1477V42.5941H53.1238C54.122 42.5941 55.0086 42.3709 55.5666 42.0423C56.3416 41.5959 56.6764 40.9325 56.6764 40.1575C56.6764 39.0477 55.9014 38.2727 54.4568 38.0495C55.1202 37.9379 56.23 37.3861 56.23 36.2763C56.23 35.6129 56.0068 35.1665 55.5666 34.8317C55.1202 34.4969 54.5684 34.3853 53.5702 34.3853H50.1292V34.1621ZM52.9006 38.1549C54.3452 38.1549 55.1202 38.8183 55.1202 40.0397C55.1202 41.2611 54.2336 41.8129 53.4586 41.8129C53.1238 41.8129 52.9068 41.8129 52.7952 41.7013C52.572 41.4781 52.572 41.1495 52.572 40.4799V38.2603C52.5658 38.1549 52.9006 38.1549 52.9006 38.1549Z" fill="black"/>
</g>
<defs>
<clipPath id="clip0">
<rect width="62" height="62" fill="white" transform="translate(0.882812)"/>
</clipPath>
</defs>
</svg>
