<svg width="105" height="31" viewBox="0 0 105 31" fill="none" xmlns="http://www.w3.org/2000/svg">
<g clip-path="url(#clip0)">
<path d="M63.9536 17.5933C63.9536 17.5933 63.7451 16.8242 63.7451 16.2542V7.33591H67.2998V24.5136L55.9191 15.0446C55.3102 14.5248 54.9498 13.9443 54.9498 13.9443C54.9498 13.9443 55.1302 14.5843 55.1302 15.1382L55.1271 24.1259H51.5703V7.01562L62.8465 16.2944C63.4513 16.8091 63.9536 17.5933 63.9536 17.5933Z" fill="white"/>
<path d="M96.1375 7.33691C101.771 7.33691 103.213 9.56897 103.213 12.777C103.213 15.1021 101.509 17.3801 98.0724 17.6497L97.6959 17.668C97.6959 17.668 98.0282 17.727 98.3756 18.063L104.612 24.1249H99.7931L91.0862 15.2421H95.4214C99.3048 15.2421 99.4177 13.1861 99.4442 12.6678C99.517 11.3334 99.0921 10.2665 96.1307 10.2665H91.1736V24.1249H87.4795V7.33691H96.1375Z" fill="white"/>
<path d="M68.8984 15.971C68.8984 8.93787 74.7573 7.08984 79.6822 7.08984C81.654 7.08984 83.4002 7.26749 85.2379 7.65883L85.2431 11.2253C84.1864 10.8988 82.0643 10.1819 79.6827 10.1819C75.0136 10.1819 72.7464 12.0043 72.7464 15.9705C72.7464 19.2193 75.1904 21.2889 79.6827 21.2889C82.0643 21.2889 84.449 20.7194 85.604 20.2915L85.5972 23.7513C83.7616 24.1406 81.6546 24.3809 79.6827 24.3809C74.4224 24.3815 68.8984 21.8124 68.8984 15.971Z" fill="white"/>
<path d="M28.895 7.76855L32.3618 11.0492C32.2672 11.0916 32.158 11.1438 32.0295 11.2086C31.8288 11.3136 31.5896 11.4542 31.3031 11.6537C30.7316 12.0482 29.987 12.6783 29.0343 13.7113L22.2587 20.9158C21.0976 22.1489 19.9177 23.1259 18.8205 23.6427L15.3516 20.3609C15.4462 20.3165 15.5554 20.2674 15.6818 20.1995C15.8825 20.0966 16.1217 19.9539 16.4082 19.7575C16.9781 19.3593 17.7248 18.7329 18.6785 17.6984L25.4526 10.5058C26.6142 9.27435 27.7962 8.28529 28.895 7.76855Z" fill="white"/>
<path d="M15.4744 25.1842C17.0068 25.1842 18.4155 24.879 19.3712 24.3811C19.808 24.1522 20.4315 23.7583 20.9676 23.3382C21.5017 22.9197 22.2588 22.2676 22.8989 21.5837L29.6813 14.3996C31.3921 12.5891 32.4201 12.0301 33.0441 11.8101L36.5229 15.1211C35.797 15.9012 27.1385 25.1669 27.1385 25.1669C26.5483 25.8075 25.9264 26.4256 25.5036 26.8148C25.0975 27.191 24.4028 27.7516 24.044 28.0155C22.0076 29.5145 19.2875 30.7303 15.6246 30.7303C7.32492 30.7303 0.613281 23.9427 0.613281 16.1269C0.613281 6.43115 8.15276 0.805036 15.0194 0.805036C17.1243 0.742338 18.8133 1.09815 20.1486 1.55376C21.3826 1.9754 22.3144 2.48535 22.9904 2.83228C22.1912 3.34692 21.418 4.04862 20.1434 5.41648L18.7509 6.91862C18.4306 6.7948 17.0099 6.29687 15.1863 6.35277C10.7803 6.4834 5.96148 10.0718 6.13516 15.9586C6.29688 21.463 10.8126 25.1842 15.4744 25.1842Z" fill="white"/>
<path d="M28.2978 7.0797C27.8594 7.31011 27.2375 7.70302 26.6983 8.1231C26.1658 8.54161 25.4092 9.19367 24.767 9.87603L17.9862 17.0618C16.2754 18.8722 15.2468 19.4291 14.6233 19.6496L11.1445 16.3418C11.8725 15.5596 20.5295 6.29545 20.5295 6.29545C21.1213 5.65488 21.7416 5.03678 22.1644 4.64597C22.5705 4.26978 23.2652 3.71124 23.6271 3.4453C25.6598 1.94629 28.3836 0.730469 32.0465 0.730469C40.3457 0.730469 47.0542 7.51858 47.0542 15.3323C47.0542 25.0312 39.5163 30.6542 32.6481 30.6542C30.5447 30.7185 28.8542 30.3626 27.5209 29.9034C26.2838 29.4833 25.3483 28.9702 24.6739 28.6249C25.5184 28.0522 26.2412 27.4242 27.5256 26.0454L28.9161 24.5432C29.2364 24.6649 30.6575 25.1634 32.4827 25.1091C36.8871 24.9769 41.7075 21.3848 41.5339 15.4995C41.3706 9.99777 36.8518 6.27507 32.1926 6.27507C30.6575 6.27507 29.2551 6.58177 28.2978 7.0797Z" fill="white"/>
</g>
<defs>
<clipPath id="clip0">
<rect width="104" height="30" fill="white" transform="translate(0.613281 0.730469)"/>
</clipPath>
</defs>
</svg>
