<svg width="1440" height="212" viewBox="0 0 1440 212" fill="none" xmlns="http://www.w3.org/2000/svg" xmlns:xlink="http://www.w3.org/1999/xlink">
    <path id="planePath" d="M-37.6758,151.128C-37.6758,151.128 232.266,241.48 226.986,106.242C221.706,-28.9959 34.588,-31.6533 63.7073,91.0039C96.7065,230.004 417.707,196.881 576.707,174.004C735.707,151.128 768.299,173.313 946.708,194.504C1125.12,215.696 1275.55,189.503 1440.21,174.004" stroke="#B0B1C4" stroke-linecap="round" stroke-dasharray="1 4"/>
    <g transform="translate(0, -15)">
        <path d="M6.12267 17.8518C9.7796 17.4617 13.4308 17.0167 17.0872 16.6241C18.0461 16.5211 19.7374 16.035 20.1464 17.2583C21.049 19.9578 21.3121 22.9532 22.2165 25.6581C22.3526 26.065 24.4298 24.6312 24.6314 24.5091C28.3931 22.2326 32.4961 20.4985 36.6542 19.0764C40.5739 17.7357 44.602 16.7328 48.6696 15.9592C48.7405 15.9457 50.4257 15.5855 50.3758 15.5624C49.8928 15.3385 49.1929 15.3134 48.6678 15.2011" stroke="#B0B1C4" stroke-linecap="round" stroke-linejoin="round" />
        <path d="M4.46425 17.9478C7.97982 17.1258 11.4338 16.3143 15.0061 15.752C17.3256 15.3869 19.6436 15.5499 21.9735 15.4527C25.3261 15.3129 28.6732 15.456 32.0262 15.2305C37.0748 14.891 42.1814 14.2692 47.2401 14.5547" stroke="#B0B1C4" stroke-linecap="round" stroke-linejoin="round"/>
        <path d="M1.94983 18.1834C5.40956 16.786 9.40723 15.6749 12.5066 13.5387C13.3697 12.9437 15.3138 11.8919 13.9133 11.0136C11.3302 9.39366 8.58078 7.21921 5.6416 6.30566" stroke="#B0B1C4" stroke-linecap="round" stroke-linejoin="round"/>
        <path d="M5.44287 5.63374C19.0869 9.33329 33.2964 10.6117 46.9847 14.0682" stroke="#B0B1C4" stroke-linecap="round" stroke-linejoin="round"/>
        <path d="M16.769 12.4101C20.8925 12.9819 24.9148 13.8757 29.0792 14.2012C32.5927 14.4758 36.117 14.4954 39.624 14.8329" stroke="#B0B1C4" stroke-linecap="round" stroke-linejoin="round"/>
        <path d="M21.667 23.498C22.2173 25.0377 22.2037 25.7 22.2538 28.1578" stroke="#B0B1C4" stroke-linecap="round" stroke-linejoin="round"/>
        <path d="M19.54 27.721C21.1559 26.8178 23.1765 25.188 26.0958 23.6531" stroke="#B0B1C4" stroke-linecap="round" stroke-linejoin="round"/>
        <path d="M8.45926 7.59032C8.66975 7.24974 8.88077 6.9083 9.09232 6.56598L8.45926 7.59032ZM10.4075 9.00995C10.7582 8.44262 11.1099 7.87354 11.4627 7.30272L10.4075 9.00995Z" stroke="#B0B1C4" stroke-linecap="round" stroke-linejoin="round"/>
        <path d="M12.6247 10.1051L14.3128 7.37355M13.0105 13.4814C14.1209 11.6846 15.2461 9.86406 16.3869 8.0182L13.0105 13.4814ZM14.9954 14.8419C16.3438 12.66 17.7086 10.4516 19.0896 8.21701L14.9954 14.8419Z" stroke="#B0B1C4" stroke-linecap="round" stroke-linejoin="round"/>
        <path d="M21.9675 8.93817L19.0132 13.7184M24.0416 9.58281C23.3322 10.7306 22.6289 11.8687 21.9314 12.9973L24.0416 9.58281ZM26.4119 10.3195C25.7042 11.4646 25.0008 12.6028 24.3017 13.734L26.4119 10.3195Z" stroke="#B0B1C4" stroke-linecap="round" stroke-linejoin="round"/>
        <path d="M28.8599 10.6728L27.1718 13.4044M33.7264 11.3713C33.1609 12.2862 32.5982 13.1968 32.0382 14.1029L33.7264 11.3713ZM31.356 10.6346C30.6467 11.7824 29.9433 12.9204 29.2458 14.049L31.356 10.6346Z" stroke="#B0B1C4" stroke-linecap="round" stroke-linejoin="round"/>
        <path d="M36.5557 11.8446L35.0785 14.2348M38.6297 12.4893C38.1344 13.2907 37.642 14.0874 37.1526 14.8794L38.6297 12.4893ZM41.282 12.7697C40.9055 13.379 40.5301 13.9864 40.1559 14.5918L41.282 12.7697Z" stroke="#B0B1C4" stroke-linecap="round" stroke-linejoin="round"/>
        <path d="M43.8516 13.2979L43.0075 14.6636" stroke="#B0B1C4" stroke-linecap="round" stroke-linejoin="round"/>
        <animateMotion dur="20s" repeatCount="indefinite" rotate="auto" direction="reverse">
            <mpath xlink:href="#planePath" />
        </animateMotion>
    </g>
</svg>

