<svg width="1198" height="5601" viewBox="0 0 1198 5601" fill="none" xmlns="http://www.w3.org/2000/svg">
<path d="M950 120C995 102.5 1106.5 48.5 1196.5 1M12.7124 5599.5C-37.2876 5555.5 74.9209 5505.99 308.712 5523.5C762.712 5557.5 732.68 5281.5 554.712 5097.5C338.745 4874.21 246.383 4763.5 339.712 4535.5C433.042 4307.5 808.505 4257.52 706.712 4053.5C587.712 3815 95.9657 3699.34 112.712 3523.5C132.712 3313.5 500.943 3280.91 706.712 3132.5C932.712 2969.5 492.712 2765.5 345.712 2691.5C198.712 2617.5 174.212 2479.49 400.712 2433.5C627.212 2387.51 1136.71 2231.5 1036.71 2045.5C912.25 1814 599.972 1875.5 329.212 1778C8.26917 1662.43 63.9717 1410 292.712 1346C490.5 1281 746.5 1155.87 540.712 1115.5C334.925 1075.13 98 976 61 813.5C24 651 514.5 511 806 327" stroke="black" stroke-width="2" stroke-linecap="round" stroke-dasharray="1 8"/>
<circle cx="169.951" cy="1390.93" r="16.9284" fill="#FBFCFD"/>
<path d="M179.583 1393.46L187.324 1392.03M178.933 1397C181.478 1396.64 183.947 1396.31 186.433 1395.9M181.616 1389.24L188.416 1388.26" stroke="black" stroke-width="2" stroke-linecap="round" stroke-linejoin="round"/>
<path d="M175.079 1404.15L181.745 1402.88M175.515 1400.82L185.542 1399.39" stroke="black" stroke-width="2" stroke-linecap="round" stroke-linejoin="round"/>
<path d="M173.553 1405.61C170.91 1405.99 168.183 1406.57 165.496 1407.1M182.123 1386.04C184.053 1385.77 185.908 1385.44 187.769 1385.1M171.082 1403.09L161.487 1404.46" stroke="black" stroke-width="2" stroke-linecap="round" stroke-linejoin="round"/>
<path d="M162.107 1406.59C169.813 1408.43 178.219 1405.89 182.072 1402.04C185.925 1398.19 188.027 1393.11 187.676 1389.43C187.676 1384.88 184.524 1378.24 178.92 1375.77C170.968 1372.27 159.305 1373.32 154.401 1384.88C152.942 1389.98 153.722 1396.97 157.204 1400.99C160.394 1404.67 163.775 1406.83 168.762 1407.29C178.86 1408.22 185.895 1401.71 188.552 1392.41" stroke="black" stroke-width="2" stroke-linecap="round" stroke-linejoin="round"/>
<circle cx="344.951" cy="2434.93" r="16.9284" fill="#FBFCFD"/>
<path d="M354.583 2437.46L362.324 2436.03M353.933 2441C356.478 2440.64 358.947 2440.31 361.433 2439.9M356.616 2433.24L363.416 2432.26" stroke="black" stroke-width="2" stroke-linecap="round" stroke-linejoin="round"/>
<path d="M350.079 2448.15L356.745 2446.88M350.515 2444.82L360.542 2443.39" stroke="black" stroke-width="2" stroke-linecap="round" stroke-linejoin="round"/>
<path d="M348.553 2449.61C345.91 2449.99 343.183 2450.57 340.496 2451.1M357.123 2430.04C359.053 2429.77 360.908 2429.44 362.769 2429.1M346.082 2447.09L336.487 2448.46" stroke="black" stroke-width="2" stroke-linecap="round" stroke-linejoin="round"/>
<path d="M337.107 2450.59C344.813 2452.43 353.219 2449.89 357.072 2446.04C360.925 2442.19 363.027 2437.11 362.676 2433.43C362.676 2428.88 359.524 2422.24 353.92 2419.77C345.968 2416.27 334.305 2417.32 329.401 2428.88C327.942 2433.98 328.722 2440.97 332.204 2444.99C335.394 2448.67 338.775 2450.83 343.762 2451.29C353.86 2452.22 360.895 2445.7 363.552 2436.41" stroke="black" stroke-width="2" stroke-linecap="round" stroke-linejoin="round"/>
<circle cx="608.951" cy="3178.93" r="16.9284" fill="#FBFCFD"/>
<path d="M618.583 3181.46L626.324 3180.03M617.934 3185C620.478 3184.64 622.947 3184.31 625.433 3183.9M620.617 3177.24L627.416 3176.26" stroke="black" stroke-width="2" stroke-linecap="round" stroke-linejoin="round"/>
<path d="M614.079 3192.15L620.746 3190.88M614.516 3188.81L624.542 3187.39" stroke="black" stroke-width="2" stroke-linecap="round" stroke-linejoin="round"/>
<path d="M612.553 3193.61C609.91 3193.99 607.184 3194.57 604.496 3195.1M621.124 3174.04C623.053 3173.77 624.908 3173.44 626.769 3173.09M610.082 3191.09L600.487 3192.46" stroke="black" stroke-width="2" stroke-linecap="round" stroke-linejoin="round"/>
<path d="M601.107 3194.59C608.813 3196.43 617.219 3193.89 621.072 3190.04C624.925 3186.19 627.027 3181.11 626.676 3177.43C626.676 3172.88 623.524 3166.24 617.92 3163.77C609.968 3160.27 598.305 3161.32 593.401 3172.88C591.942 3177.98 592.722 3184.97 596.204 3188.99C599.394 3192.67 602.775 3194.83 607.762 3195.29C617.86 3196.22 624.895 3189.7 627.552 3180.41" stroke="black" stroke-width="2" stroke-linecap="round" stroke-linejoin="round"/>
<circle cx="449.951" cy="4381.93" r="16.9284" fill="#FBFCFD"/>
<path d="M459.583 4384.46L467.324 4383.03M458.934 4388C461.478 4387.64 463.947 4387.31 466.433 4386.9M461.617 4380.24L468.416 4379.26" stroke="black" stroke-width="2" stroke-linecap="round" stroke-linejoin="round"/>
<path d="M455.079 4395.15L461.746 4393.88M455.516 4391.81L465.542 4390.39" stroke="black" stroke-width="2" stroke-linecap="round" stroke-linejoin="round"/>
<path d="M453.553 4396.61C450.91 4396.99 448.184 4397.57 445.496 4398.1M462.124 4377.04C464.053 4376.77 465.908 4376.44 467.769 4376.09M451.082 4394.09L441.487 4395.46" stroke="black" stroke-width="2" stroke-linecap="round" stroke-linejoin="round"/>
<path d="M442.107 4397.59C449.813 4399.43 458.219 4396.89 462.072 4393.04C465.925 4389.19 468.027 4384.11 467.676 4380.43C467.676 4375.88 464.524 4369.24 458.92 4366.77C450.968 4363.27 439.305 4364.32 434.401 4375.88C432.942 4380.98 433.722 4387.97 437.204 4391.99C440.394 4395.67 443.775 4397.83 448.762 4398.29C458.86 4399.22 465.895 4392.7 468.552 4383.41" stroke="black" stroke-width="2" stroke-linecap="round" stroke-linejoin="round"/>
<circle cx="223.951" cy="5504.93" r="16.9284" fill="#FBFCFD"/>
<path d="M233.583 5507.46L241.324 5506.03M232.933 5511C235.478 5510.64 237.947 5510.31 240.433 5509.9M235.616 5503.24L242.416 5502.26" stroke="black" stroke-width="2" stroke-linecap="round" stroke-linejoin="round"/>
<path d="M229.079 5518.15L235.745 5516.88M229.515 5514.81L239.542 5513.39" stroke="black" stroke-width="2" stroke-linecap="round" stroke-linejoin="round"/>
<path d="M227.553 5519.61C224.91 5519.99 222.183 5520.57 219.496 5521.1M236.123 5500.04C238.053 5499.77 239.908 5499.44 241.769 5499.09M225.082 5517.09L215.487 5518.46" stroke="black" stroke-width="2" stroke-linecap="round" stroke-linejoin="round"/>
<path d="M216.107 5520.59C223.813 5522.43 232.219 5519.89 236.072 5516.04C239.925 5512.19 242.027 5507.11 241.676 5503.43C241.676 5498.88 238.524 5492.24 232.92 5489.77C224.968 5486.27 213.305 5487.32 208.401 5498.88C206.942 5503.98 207.722 5510.97 211.204 5514.99C214.394 5518.67 217.775 5520.83 222.762 5521.29C232.86 5522.22 239.895 5515.7 242.552 5506.41" stroke="black" stroke-width="2" stroke-linecap="round" stroke-linejoin="round"/>
</svg>
