<svg width="1187" height="5511" viewBox="0 0 1187 5511" fill="none" xmlns="http://www.w3.org/2000/svg">
<path d="M1014 131C1051 105.5 1128.5 43.5 1188 1.5M13 5509C-37 5465 75.2085 5415.49 309 5433C763 5467 732.967 5191 555 5007C339.032 4783.71 246.67 4673 340 4445C433.33 4217 808.793 4167.02 707 3963C588 3724.5 96.2533 3608.84 113 3433C133 3223 501.23 3190.41 707 3042C933 2879 493 2675 346 2601C199 2527 174.5 2388.99 401 2343C627.5 2297.01 1137 2141 1037 1955C912.538 1723.5 600.26 1785 329.5 1687.5C8.55676 1571.93 64.2593 1319.5 293 1255.5C560.259 1199.5 775.5 1071 541 1025C306.5 979.001 135.501 943.501 58.5008 694.501C19.5989 568.701 211.5 316.501 490 208.501" stroke="black" stroke-width="2" stroke-linecap="round" stroke-dasharray="1 8"/>
<circle cx="169.951" cy="1300.93" r="16.9284" fill="#FBFCFD"/>
<path d="M179.583 1303.46L187.324 1302.03M178.933 1307C181.478 1306.64 183.947 1306.31 186.433 1305.9M181.616 1299.24L188.416 1298.26" stroke="black" stroke-width="2" stroke-linecap="round" stroke-linejoin="round"/>
<path d="M175.079 1314.15L181.745 1312.88M175.515 1310.82L185.542 1309.39" stroke="black" stroke-width="2" stroke-linecap="round" stroke-linejoin="round"/>
<path d="M173.553 1315.61C170.91 1315.99 168.183 1316.57 165.496 1317.1M182.123 1296.04C184.053 1295.77 185.908 1295.44 187.769 1295.1M171.082 1313.09L161.487 1314.46" stroke="black" stroke-width="2" stroke-linecap="round" stroke-linejoin="round"/>
<path d="M162.107 1316.59C169.813 1318.43 178.219 1315.89 182.072 1312.04C185.925 1308.19 188.027 1303.11 187.676 1299.43C187.676 1294.88 184.524 1288.24 178.92 1285.77C170.968 1282.27 159.305 1283.32 154.401 1294.88C152.942 1299.98 153.722 1306.97 157.204 1310.99C160.394 1314.67 163.775 1316.83 168.762 1317.29C178.86 1318.22 185.895 1311.7 188.552 1302.41" stroke="black" stroke-width="2" stroke-linecap="round" stroke-linejoin="round"/>
<circle cx="344.951" cy="2344.93" r="16.9284" fill="#FBFCFD"/>
<path d="M354.583 2347.46L362.324 2346.03M353.933 2351C356.478 2350.64 358.947 2350.31 361.433 2349.9M356.616 2343.24L363.416 2342.26" stroke="black" stroke-width="2" stroke-linecap="round" stroke-linejoin="round"/>
<path d="M350.079 2358.15L356.745 2356.88M350.515 2354.82L360.542 2353.39" stroke="black" stroke-width="2" stroke-linecap="round" stroke-linejoin="round"/>
<path d="M348.553 2359.61C345.91 2359.99 343.183 2360.57 340.496 2361.1M357.123 2340.04C359.053 2339.77 360.908 2339.44 362.769 2339.1M346.082 2357.09L336.487 2358.46" stroke="black" stroke-width="2" stroke-linecap="round" stroke-linejoin="round"/>
<path d="M337.107 2360.59C344.813 2362.43 353.219 2359.89 357.072 2356.04C360.925 2352.19 363.027 2347.11 362.676 2343.43C362.676 2338.88 359.524 2332.24 353.92 2329.77C345.968 2326.27 334.305 2327.32 329.401 2338.88C327.942 2343.98 328.722 2350.97 332.204 2354.99C335.394 2358.67 338.775 2360.83 343.762 2361.29C353.86 2362.22 360.895 2355.7 363.552 2346.41" stroke="black" stroke-width="2" stroke-linecap="round" stroke-linejoin="round"/>
<circle cx="608.951" cy="3088.93" r="16.9284" fill="#FBFCFD"/>
<path d="M618.583 3091.46L626.324 3090.03M617.933 3095C620.478 3094.64 622.947 3094.31 625.433 3093.9M620.616 3087.24L627.416 3086.26" stroke="black" stroke-width="2" stroke-linecap="round" stroke-linejoin="round"/>
<path d="M614.079 3102.15L620.745 3100.88M614.515 3098.82L624.542 3097.39" stroke="black" stroke-width="2" stroke-linecap="round" stroke-linejoin="round"/>
<path d="M612.553 3103.61C609.91 3103.99 607.183 3104.57 604.496 3105.1M621.123 3084.04C623.053 3083.77 624.908 3083.44 626.769 3083.1M610.082 3101.09L600.487 3102.46" stroke="black" stroke-width="2" stroke-linecap="round" stroke-linejoin="round"/>
<path d="M601.107 3104.59C608.813 3106.43 617.219 3103.89 621.072 3100.04C624.925 3096.19 627.027 3091.11 626.676 3087.43C626.676 3082.88 623.524 3076.24 617.92 3073.77C609.968 3070.27 598.305 3071.32 593.401 3082.88C591.942 3087.98 592.722 3094.97 596.204 3098.99C599.394 3102.67 602.775 3104.83 607.762 3105.29C617.86 3106.22 624.895 3099.7 627.552 3090.41" stroke="black" stroke-width="2" stroke-linecap="round" stroke-linejoin="round"/>
<circle cx="449.951" cy="4291.93" r="16.9284" fill="#FBFCFD"/>
<path d="M459.583 4294.46L467.324 4293.03M458.933 4298C461.478 4297.64 463.947 4297.31 466.433 4296.9M461.616 4290.24L468.416 4289.26" stroke="black" stroke-width="2" stroke-linecap="round" stroke-linejoin="round"/>
<path d="M455.079 4305.15L461.745 4303.88M455.515 4301.82L465.542 4300.39" stroke="black" stroke-width="2" stroke-linecap="round" stroke-linejoin="round"/>
<path d="M453.553 4306.61C450.91 4306.99 448.183 4307.57 445.496 4308.1M462.123 4287.04C464.053 4286.77 465.908 4286.44 467.769 4286.1M451.082 4304.09L441.487 4305.46" stroke="black" stroke-width="2" stroke-linecap="round" stroke-linejoin="round"/>
<path d="M442.107 4307.59C449.813 4309.43 458.219 4306.89 462.072 4303.04C465.925 4299.19 468.027 4294.11 467.676 4290.43C467.676 4285.88 464.524 4279.24 458.92 4276.77C450.968 4273.27 439.305 4274.32 434.401 4285.88C432.942 4290.98 433.722 4297.97 437.204 4301.99C440.394 4305.67 443.775 4307.83 448.762 4308.29C458.86 4309.22 465.895 4302.7 468.552 4293.41" stroke="black" stroke-width="2" stroke-linecap="round" stroke-linejoin="round"/>
<circle cx="223.951" cy="5414.93" r="16.9284" fill="#FBFCFD"/>
<path d="M233.583 5417.46L241.324 5416.03M232.933 5421C235.478 5420.64 237.947 5420.31 240.433 5419.9M235.616 5413.24L242.416 5412.26" stroke="black" stroke-width="2" stroke-linecap="round" stroke-linejoin="round"/>
<path d="M229.079 5428.15L235.745 5426.88M229.515 5424.82L239.542 5423.39" stroke="black" stroke-width="2" stroke-linecap="round" stroke-linejoin="round"/>
<path d="M227.553 5429.61C224.91 5429.99 222.183 5430.57 219.496 5431.1M236.123 5410.04C238.053 5409.77 239.908 5409.44 241.769 5409.09M225.082 5427.09L215.487 5428.46" stroke="black" stroke-width="2" stroke-linecap="round" stroke-linejoin="round"/>
<path d="M216.107 5430.59C223.813 5432.43 232.219 5429.89 236.072 5426.04C239.925 5422.19 242.027 5417.11 241.676 5413.43C241.676 5408.88 238.524 5402.24 232.92 5399.77C224.968 5396.27 213.305 5397.32 208.401 5408.88C206.942 5413.98 207.722 5420.97 211.204 5424.99C214.394 5428.67 217.775 5430.83 222.762 5431.29C232.86 5432.22 239.895 5425.7 242.552 5416.41" stroke="black" stroke-width="2" stroke-linecap="round" stroke-linejoin="round"/>
</svg>
