<svg width="1187" height="5511" viewBox="0 0 1187 5511" fill="none" xmlns="http://www.w3.org/2000/svg">
<path d="M1014 131C1051 105.5 1128.5 43.5 1188 1.5M13 5509C-37 5465 75.2085 5415.49 309 5433C763 5467 732.967 5191 555 5007C339.032 4783.71 246.67 4673 340 4445C433.33 4217 808.793 4167.02 707 3963C588 3724.5 96.2533 3608.84 113 3433C133 3223 501.23 3190.41 707 3042C933 2879 493 2675 346 2601C199 2527 174.5 2388.99 401 2343C627.5 2297.01 1137 2141 1037 1955C912.538 1723.5 600.26 1785 329.5 1687.5C8.55676 1571.93 64.2593 1319.5 293 1255.5C560.259 1199.5 775.5 1071 541 1025C306.5 979.001 135.501 943.501 58.5008 694.501C19.5989 568.701 211.5 316.501 490 208.501" stroke="black" stroke-width="2" stroke-linecap="round" stroke-dasharray="1 8"/>
    <g transform="translate(0, -16)">
        <animateMotion dur="20s" repeatCount="indefinite" rotate="auto"
            path="M1014 131C1051 105.5 1128.5 43.5 1188 1.5M13 5509C-37 5465 75.2085 5415.49 309 5433C763 5467 732.967 5191 555 5007C339.032 4783.71 246.67 4673 340 4445C433.33 4217 808.793 4167.02 707 3963C588 3724.5 96.2533 3608.84 113 3433C133 3223 501.23 3190.41 707 3042C933 2879 493 2675 346 2601C199 2527 174.5 2388.99 401 2343C627.5 2297.01 1137 2141 1037 1955C912.538 1723.5 600.26 1785 329.5 1687.5C8.55676 1571.93 64.2593 1319.5 293 1255.5C560.259 1199.5 775.5 1071 541 1025C306.5 979.001 135.501 943.501 58.5008 694.501C19.5989 568.701 211.5 316.501 490 208.501" />
        <circle cx="17.9514" cy="17.9294" r="16.9284" fill="#FBFCFD"/>
        <path d="M27.583 20.4632L35.3239 19.0307M26.9335 24.0009C29.4776 23.637 31.9466 23.3128 34.4329 22.9023M29.6164 16.2355L36.416 15.2627" stroke="black" stroke-width="2" stroke-linecap="round" stroke-linejoin="round"/>
        <path d="M23.0787 31.1536L29.7453 29.8786M23.5154 27.8153L33.5418 26.3927" stroke="black" stroke-width="2" stroke-linecap="round" stroke-linejoin="round"/>
        <path d="M21.5531 32.6097C18.9096 32.9879 16.1834 33.5659 13.496 34.1009M30.1233 13.0441C32.053 12.7681 33.9078 12.437 35.7686 12.0952M19.082 30.0906L9.48667 31.4633" stroke="black" stroke-width="2" stroke-linecap="round" stroke-linejoin="round"/>
        <path d="M10.1073 33.5915C17.813 35.4323 26.2193 32.8909 30.0722 29.0381C33.925 25.1852 36.0266 20.1063 35.6763 16.4286C35.6763 11.8752 32.5244 5.23735 26.9196 2.76847C18.968 -0.734146 7.30489 0.316637 2.40123 11.8753C0.941901 16.9829 1.7223 23.9672 5.20362 27.9873C8.39443 31.6719 11.7749 33.8323 16.7622 34.292C26.8601 35.2227 33.8952 28.7046 36.552 19.4058" stroke="black" stroke-width="2" stroke-linecap="round" stroke-linejoin="round"/>
    </g>
</svg>
