<svg width="348" height="496" viewBox="0 0 348 496" fill="none" xmlns="http://www.w3.org/2000/svg">
<g clip-path="url(#clip0)">
<path opacity="0.1" fill-rule="evenodd" clip-rule="evenodd" d="M422.98 258.545C418.001 271.817 409.702 283.43 408.042 283.43L371.527 319.928L298.498 248.591L369.868 177.253L406.382 213.751C418.001 223.705 427.959 236.978 422.98 258.545M238.742 422.786C225.464 417.808 213.845 409.513 213.845 407.854L177.33 371.356L248.7 300.018L320.07 371.356L283.555 407.854C273.597 417.808 258.659 427.763 238.742 422.786M74.4258 238.637C79.4051 225.364 87.7039 213.751 89.3636 213.751L125.878 177.253L197.248 248.591L125.878 319.928L87.7039 283.43C77.7453 273.476 67.7867 258.545 74.4258 238.637M258.659 74.3929C271.937 79.3699 283.555 87.665 283.555 89.324L320.07 125.822L248.7 197.16L177.33 125.822L213.845 89.324C223.804 79.3699 237.082 67.7568 258.659 74.3929M459.493 162.323L335.011 37.8963C333.351 36.2373 313.434 16.329 283.558 6.37492C240.404 -8.55625 198.91 3.05688 164.055 37.8963L37.9132 162.323C36.2535 163.982 16.3363 183.89 6.37778 213.752C-8.56008 256.887 3.05825 298.362 37.9132 333.202L162.395 457.628C164.055 459.287 183.972 479.195 213.848 489.15C225.466 492.468 238.744 495.786 250.363 495.786C280.238 495.786 308.454 482.513 333.351 459.287L457.833 334.861C459.493 333.202 479.41 313.294 489.368 283.431C504.306 240.297 492.688 197.162 459.493 162.323" fill="#25A6F7"/>
</g>
<defs>
<clipPath id="clip0">
<rect width="348" height="496" fill="white"/>
</clipPath>
</defs>
</svg>
